%
M48
M72
T01C0.01500
T02C0.03543
T03C0.03937
T04C0.04000
T05C0.12500
%
T01
X329780Y51118
X322280Y61118
X312280Y61118
X317280Y36118
X299780Y36118
X282280Y36118
X262280Y43618
X247280Y41118
X247280Y51118
X247280Y56118
X252280Y61118
X239780Y68618
X222280Y76118
X232280Y86118
X228530Y94868
X234780Y106118
X224780Y108618
X219780Y108618
X237280Y118618
X242280Y116118
X242280Y131118
X237280Y136118
X252280Y143618
X247280Y148618
X264780Y136118
X254780Y131118
X264780Y124868
X264780Y119868
X269780Y116118
X264780Y112368
X264780Y108618
X259780Y103618
X267280Y101118
X257280Y91118
X244780Y88618
X269780Y81118
X277280Y68618
X282280Y63618
X272280Y56118
X292280Y87368
X309780Y96118
X314780Y93618
X322280Y96118
X319780Y106118
X324780Y106118
X329780Y111118
X334780Y101118
X312280Y131118
X312280Y138618
X307280Y143618
X302280Y148618
X292280Y143618
X284780Y143618
X284780Y151118
X269780Y158618
X267280Y153618
X272280Y163618
X274780Y168618
X274780Y173618
X272280Y178618
X277280Y178618
X282280Y176118
X272280Y183618
X267280Y183618
X262280Y183618
X262280Y188618
X263530Y197368
X269780Y201118
X242280Y192368
X234780Y201118
X224780Y194868
X224780Y186118
X212280Y186118
X207280Y186118
X197280Y178618
X189780Y176118
X184780Y176118
X184780Y181118
X184780Y186118
X179780Y191118
X179780Y203618
X194780Y206118
X211030Y207368
X184780Y221118
X179780Y221118
X174780Y223618
X176030Y229868
X167280Y233618
X157280Y236118
X152280Y238618
X147280Y241118
X142280Y248618
X122280Y253618
X112280Y243618
X97280Y253618
X81030Y242368
X69780Y241118
X69780Y236118
X64780Y236118
X59780Y236118
X59780Y231118
X54780Y231118
X52280Y236118
X47280Y236118
X42280Y236118
X37280Y236118
X37280Y231118
X42280Y231118
X47280Y231118
X42280Y226118
X37280Y226118
X37280Y221118
X37280Y216118
X42280Y216118
X42280Y221118
X44780Y203618
X64780Y216118
X64780Y221118
X64780Y226118
X69780Y226118
X69780Y221118
X69780Y216118
X68530Y208618
X67280Y193618
X67280Y178618
X52280Y171118
X67280Y163618
X64780Y148618
X74780Y146118
X64780Y141118
X72280Y136118
X54780Y138618
X54780Y143618
X54780Y151118
X42280Y158618
X42280Y181118
X89780Y203618
X92280Y212368
X108530Y217368
X104780Y226118
X94780Y231118
X69780Y231118
X64780Y231118
X69780Y246118
X69780Y251118
X73530Y267368
X52280Y278618
X51030Y263618
X42280Y259868
X37280Y251118
X37280Y246118
X37280Y241118
X97280Y268618
X97280Y286118
X94780Y301118
X72280Y301118
X73530Y287368
X52280Y303618
X39780Y306118
X54780Y326118
X119780Y331118
X137280Y329868
X119780Y316118
X122280Y298618
X122280Y286118
X144780Y281118
X152280Y286118
X144780Y291118
X152280Y298618
X149780Y273618
X157280Y271118
X166030Y264868
X158530Y262368
X173530Y259868
X183530Y259868
X193530Y259868
X203530Y259868
X213530Y259868
X223530Y259868
X233530Y259868
X243530Y259868
X254780Y259868
X264780Y259868
X268530Y267368
X259780Y271118
X267280Y276118
X274780Y278618
X277280Y286118
X267280Y286118
X292280Y273618
X277280Y266118
X274780Y261118
X304780Y261118
X322280Y256118
X327280Y248618
X334780Y251118
X337280Y268618
X327280Y283618
X314780Y276118
X302280Y286118
X319780Y296118
X337280Y303618
X342280Y318618
X327280Y318618
X319780Y336118
X302280Y318618
X289780Y318618
X289780Y336118
X342280Y286118
X312280Y241118
X297280Y238618
X274780Y228618
X267280Y226118
X259780Y226118
X272280Y237368
X294780Y216118
X318530Y208618
X314780Y198618
X322280Y176118
X312280Y173618
X294780Y166118
X309780Y158618
X317280Y153618
X297280Y133618
X292280Y136118
X304780Y128618
X297280Y124868
X297280Y119868
X297280Y112368
X297280Y108618
X277280Y131118
X234780Y163618
X222280Y158618
X214780Y156118
X209780Y158618
X197280Y148618
X192280Y148618
X194780Y153618
X182280Y153618
X177280Y153618
X169780Y146118
X164780Y146118
X157280Y153618
X152280Y143618
X142280Y151118
X132280Y158618
X127280Y158618
X122280Y161118
X119780Y166118
X114780Y168618
X109780Y176118
X107280Y181118
X99780Y191118
X94780Y188618
X104780Y196118
X123530Y217368
X132280Y226118
X129780Y233618
X139780Y233618
X144780Y228618
X147280Y223618
X152280Y223618
X157280Y223618
X167280Y211118
X162280Y206118
X154780Y203618
X149780Y206118
X134780Y206118
X134780Y198618
X137280Y193618
X129780Y176118
X144780Y168618
X142280Y163618
X152280Y166118
X154780Y171118
X159780Y171118
X184780Y171118
X196030Y169868
X202280Y143618
X209780Y143618
X222280Y136118
X214780Y133618
X222280Y131118
X207280Y133618
X202280Y133618
X187280Y131118
X187280Y138618
X174780Y131118
X174780Y126118
X174780Y121118
X172280Y113618
X174780Y108618
X167280Y103618
X149780Y116118
X152280Y121118
X154780Y131118
X164780Y123618
X139780Y133618
X132280Y138618
X127280Y141118
X122280Y143618
X114780Y143618
X89780Y153618
X52280Y131118
X67280Y121118
X82280Y106118
X92280Y98618
X89780Y88618
X79780Y77368
X89780Y73618
X87280Y63618
X82280Y63618
X77280Y63618
X72280Y63618
X67280Y63618
X92280Y63618
X97280Y63618
X102280Y63618
X107280Y63618
X112280Y63618
X112280Y71118
X112280Y83618
X132280Y91118
X132280Y96118
X137280Y106118
X132280Y113618
X134780Y118618
X137280Y123618
X114780Y121118
X109780Y111118
X104780Y98618
X92280Y113618
X72280Y96118
X47280Y96118
X47280Y103618
X47280Y82368
X37280Y63618
X137280Y66118
X152280Y66118
X167280Y66118
X177280Y56118
X194780Y41118
X212280Y43618
X212280Y51118
X212280Y56118
X207280Y63618
X204780Y78618
X197280Y81118
X192280Y81118
X174780Y86118
X186030Y98618
X189780Y107368
X157280Y78618
X139780Y83618
X177280Y36118
X232280Y36118
X339780Y176118
X232280Y243618
X222280Y241118
X217280Y238618
X214780Y233618
X229780Y228618
X193530Y229868
X202280Y296118
X201030Y318618
X189780Y318618
X184780Y321118
X177280Y328618
X184780Y333618
X194780Y334868
X174780Y338618
X167280Y331118
X157280Y331118
T02
X305509Y307752
X305509Y331217
X248422Y331217
X248422Y307752
X204327Y307752
X204327Y331217
X147241Y331217
X147241Y307752
T03
X102123Y308618
X82438Y308618
T04
X327280Y118618
X337280Y118618
X337280Y128618
X327280Y128618
X327280Y138618
X337280Y138618
X337280Y148618
X327280Y148618
X327280Y158618
X337280Y158618
X337280Y168618
X327280Y168618
X327280Y188618
X327280Y198618
X337280Y198618
X337280Y188618
X337280Y208618
X327280Y208618
X327280Y218618
X337280Y218618
X337280Y228618
X327280Y228618
X327280Y238618
X337280Y238618
X77280Y228618
X77280Y218618
X77280Y208618
X77280Y198618
X77280Y188618
X77280Y178618
X77280Y168618
X77280Y158618
T05
X44091Y40429
X335430Y40429
X335430Y331768
X44091Y331768
M30
