G75*
%MOIN*%
%OFA0B0*%
%FSLAX25Y25*%
%IPPOS*%
%LPD*%
%AMOC8*
5,1,8,0,0,1.08239X$1,22.5*
%
%ADD10C,0.00000*%
%ADD11C,0.12998*%
%ADD12R,0.08400X0.08400*%
%ADD13C,0.08400*%
%ADD14R,0.03900X0.06800*%
%ADD15R,0.12900X0.06800*%
%ADD16C,0.07800*%
%ADD17C,0.07400*%
%ADD18R,0.07800X0.07800*%
%ADD19R,0.06306X0.05518*%
%ADD20C,0.06900*%
%ADD21R,0.05400X0.02600*%
%ADD22R,0.02600X0.05400*%
%ADD23R,0.07487X0.06699*%
%ADD24OC8,0.07800*%
%ADD25R,0.05518X0.06306*%
%ADD26R,0.06699X0.07487*%
%ADD27OC8,0.05600*%
%ADD28OC8,0.06700*%
%ADD29C,0.06700*%
%ADD30C,0.07000*%
%ADD31OC8,0.07000*%
D10*
X0016748Y0029179D02*
X0221472Y0029179D01*
X0221853Y0029184D01*
X0222233Y0029197D01*
X0222613Y0029220D01*
X0222992Y0029253D01*
X0223370Y0029294D01*
X0223747Y0029344D01*
X0224123Y0029404D01*
X0224498Y0029472D01*
X0224870Y0029550D01*
X0225241Y0029637D01*
X0225609Y0029732D01*
X0225975Y0029837D01*
X0226338Y0029950D01*
X0226699Y0030072D01*
X0227056Y0030202D01*
X0227410Y0030342D01*
X0227761Y0030489D01*
X0228108Y0030646D01*
X0228451Y0030810D01*
X0228790Y0030983D01*
X0229125Y0031164D01*
X0229456Y0031353D01*
X0229781Y0031550D01*
X0230102Y0031754D01*
X0230418Y0031967D01*
X0230728Y0032187D01*
X0231034Y0032414D01*
X0231333Y0032649D01*
X0231627Y0032891D01*
X0231915Y0033139D01*
X0232197Y0033395D01*
X0232472Y0033658D01*
X0232741Y0033927D01*
X0233004Y0034202D01*
X0233260Y0034484D01*
X0233508Y0034772D01*
X0233750Y0035066D01*
X0233985Y0035365D01*
X0234212Y0035671D01*
X0234432Y0035981D01*
X0234645Y0036297D01*
X0234849Y0036618D01*
X0235046Y0036943D01*
X0235235Y0037274D01*
X0235416Y0037609D01*
X0235589Y0037948D01*
X0235753Y0038291D01*
X0235910Y0038638D01*
X0236057Y0038989D01*
X0236197Y0039343D01*
X0236327Y0039700D01*
X0236449Y0040061D01*
X0236562Y0040424D01*
X0236667Y0040790D01*
X0236762Y0041158D01*
X0236849Y0041529D01*
X0236927Y0041901D01*
X0236995Y0042276D01*
X0237055Y0042652D01*
X0237105Y0043029D01*
X0237146Y0043407D01*
X0237179Y0043786D01*
X0237202Y0044166D01*
X0237215Y0044546D01*
X0237220Y0044927D01*
X0237220Y0210281D01*
X0237215Y0210662D01*
X0237202Y0211042D01*
X0237179Y0211422D01*
X0237146Y0211801D01*
X0237105Y0212179D01*
X0237055Y0212556D01*
X0236995Y0212932D01*
X0236927Y0213307D01*
X0236849Y0213679D01*
X0236762Y0214050D01*
X0236667Y0214418D01*
X0236562Y0214784D01*
X0236449Y0215147D01*
X0236327Y0215508D01*
X0236197Y0215865D01*
X0236057Y0216219D01*
X0235910Y0216570D01*
X0235753Y0216917D01*
X0235589Y0217260D01*
X0235416Y0217599D01*
X0235235Y0217934D01*
X0235046Y0218265D01*
X0234849Y0218590D01*
X0234645Y0218911D01*
X0234432Y0219227D01*
X0234212Y0219537D01*
X0233985Y0219843D01*
X0233750Y0220142D01*
X0233508Y0220436D01*
X0233260Y0220724D01*
X0233004Y0221006D01*
X0232741Y0221281D01*
X0232472Y0221550D01*
X0232197Y0221813D01*
X0231915Y0222069D01*
X0231627Y0222317D01*
X0231333Y0222559D01*
X0231034Y0222794D01*
X0230728Y0223021D01*
X0230418Y0223241D01*
X0230102Y0223454D01*
X0229781Y0223658D01*
X0229456Y0223855D01*
X0229125Y0224044D01*
X0228790Y0224225D01*
X0228451Y0224398D01*
X0228108Y0224562D01*
X0227761Y0224719D01*
X0227410Y0224866D01*
X0227056Y0225006D01*
X0226699Y0225136D01*
X0226338Y0225258D01*
X0225975Y0225371D01*
X0225609Y0225476D01*
X0225241Y0225571D01*
X0224870Y0225658D01*
X0224498Y0225736D01*
X0224123Y0225804D01*
X0223747Y0225864D01*
X0223370Y0225914D01*
X0222992Y0225955D01*
X0222613Y0225988D01*
X0222233Y0226011D01*
X0221853Y0226024D01*
X0221472Y0226029D01*
X0016748Y0226029D01*
X0016367Y0226024D01*
X0015987Y0226011D01*
X0015607Y0225988D01*
X0015228Y0225955D01*
X0014850Y0225914D01*
X0014473Y0225864D01*
X0014097Y0225804D01*
X0013722Y0225736D01*
X0013350Y0225658D01*
X0012979Y0225571D01*
X0012611Y0225476D01*
X0012245Y0225371D01*
X0011882Y0225258D01*
X0011521Y0225136D01*
X0011164Y0225006D01*
X0010810Y0224866D01*
X0010459Y0224719D01*
X0010112Y0224562D01*
X0009769Y0224398D01*
X0009430Y0224225D01*
X0009095Y0224044D01*
X0008764Y0223855D01*
X0008439Y0223658D01*
X0008118Y0223454D01*
X0007802Y0223241D01*
X0007492Y0223021D01*
X0007186Y0222794D01*
X0006887Y0222559D01*
X0006593Y0222317D01*
X0006305Y0222069D01*
X0006023Y0221813D01*
X0005748Y0221550D01*
X0005479Y0221281D01*
X0005216Y0221006D01*
X0004960Y0220724D01*
X0004712Y0220436D01*
X0004470Y0220142D01*
X0004235Y0219843D01*
X0004008Y0219537D01*
X0003788Y0219227D01*
X0003575Y0218911D01*
X0003371Y0218590D01*
X0003174Y0218265D01*
X0002985Y0217934D01*
X0002804Y0217599D01*
X0002631Y0217260D01*
X0002467Y0216917D01*
X0002310Y0216570D01*
X0002163Y0216219D01*
X0002023Y0215865D01*
X0001893Y0215508D01*
X0001771Y0215147D01*
X0001658Y0214784D01*
X0001553Y0214418D01*
X0001458Y0214050D01*
X0001371Y0213679D01*
X0001293Y0213307D01*
X0001225Y0212932D01*
X0001165Y0212556D01*
X0001115Y0212179D01*
X0001074Y0211801D01*
X0001041Y0211422D01*
X0001018Y0211042D01*
X0001005Y0210662D01*
X0001000Y0210281D01*
X0001000Y0044927D01*
X0001005Y0044546D01*
X0001018Y0044166D01*
X0001041Y0043786D01*
X0001074Y0043407D01*
X0001115Y0043029D01*
X0001165Y0042652D01*
X0001225Y0042276D01*
X0001293Y0041901D01*
X0001371Y0041529D01*
X0001458Y0041158D01*
X0001553Y0040790D01*
X0001658Y0040424D01*
X0001771Y0040061D01*
X0001893Y0039700D01*
X0002023Y0039343D01*
X0002163Y0038989D01*
X0002310Y0038638D01*
X0002467Y0038291D01*
X0002631Y0037948D01*
X0002804Y0037609D01*
X0002985Y0037274D01*
X0003174Y0036943D01*
X0003371Y0036618D01*
X0003575Y0036297D01*
X0003788Y0035981D01*
X0004008Y0035671D01*
X0004235Y0035365D01*
X0004470Y0035066D01*
X0004712Y0034772D01*
X0004960Y0034484D01*
X0005216Y0034202D01*
X0005479Y0033927D01*
X0005748Y0033658D01*
X0006023Y0033395D01*
X0006305Y0033139D01*
X0006593Y0032891D01*
X0006887Y0032649D01*
X0007186Y0032414D01*
X0007492Y0032187D01*
X0007802Y0031967D01*
X0008118Y0031754D01*
X0008439Y0031550D01*
X0008764Y0031353D01*
X0009095Y0031164D01*
X0009430Y0030983D01*
X0009769Y0030810D01*
X0010112Y0030646D01*
X0010459Y0030489D01*
X0010810Y0030342D01*
X0011164Y0030202D01*
X0011521Y0030072D01*
X0011882Y0029950D01*
X0012245Y0029837D01*
X0012611Y0029732D01*
X0012979Y0029637D01*
X0013350Y0029550D01*
X0013722Y0029472D01*
X0014097Y0029404D01*
X0014473Y0029344D01*
X0014850Y0029294D01*
X0015228Y0029253D01*
X0015607Y0029220D01*
X0015987Y0029197D01*
X0016367Y0029184D01*
X0016748Y0029179D01*
X0006512Y0159100D02*
X0006514Y0159258D01*
X0006520Y0159416D01*
X0006530Y0159574D01*
X0006544Y0159732D01*
X0006562Y0159889D01*
X0006583Y0160046D01*
X0006609Y0160202D01*
X0006639Y0160358D01*
X0006672Y0160513D01*
X0006710Y0160666D01*
X0006751Y0160819D01*
X0006796Y0160971D01*
X0006845Y0161122D01*
X0006898Y0161271D01*
X0006954Y0161419D01*
X0007014Y0161565D01*
X0007078Y0161710D01*
X0007146Y0161853D01*
X0007217Y0161995D01*
X0007291Y0162135D01*
X0007369Y0162272D01*
X0007451Y0162408D01*
X0007535Y0162542D01*
X0007624Y0162673D01*
X0007715Y0162802D01*
X0007810Y0162929D01*
X0007907Y0163054D01*
X0008008Y0163176D01*
X0008112Y0163295D01*
X0008219Y0163412D01*
X0008329Y0163526D01*
X0008442Y0163637D01*
X0008557Y0163746D01*
X0008675Y0163851D01*
X0008796Y0163953D01*
X0008919Y0164053D01*
X0009045Y0164149D01*
X0009173Y0164242D01*
X0009303Y0164332D01*
X0009436Y0164418D01*
X0009571Y0164502D01*
X0009707Y0164581D01*
X0009846Y0164658D01*
X0009987Y0164730D01*
X0010129Y0164800D01*
X0010273Y0164865D01*
X0010419Y0164927D01*
X0010566Y0164985D01*
X0010715Y0165040D01*
X0010865Y0165091D01*
X0011016Y0165138D01*
X0011168Y0165181D01*
X0011321Y0165220D01*
X0011476Y0165256D01*
X0011631Y0165287D01*
X0011787Y0165315D01*
X0011943Y0165339D01*
X0012100Y0165359D01*
X0012258Y0165375D01*
X0012415Y0165387D01*
X0012574Y0165395D01*
X0012732Y0165399D01*
X0012890Y0165399D01*
X0013048Y0165395D01*
X0013207Y0165387D01*
X0013364Y0165375D01*
X0013522Y0165359D01*
X0013679Y0165339D01*
X0013835Y0165315D01*
X0013991Y0165287D01*
X0014146Y0165256D01*
X0014301Y0165220D01*
X0014454Y0165181D01*
X0014606Y0165138D01*
X0014757Y0165091D01*
X0014907Y0165040D01*
X0015056Y0164985D01*
X0015203Y0164927D01*
X0015349Y0164865D01*
X0015493Y0164800D01*
X0015635Y0164730D01*
X0015776Y0164658D01*
X0015915Y0164581D01*
X0016051Y0164502D01*
X0016186Y0164418D01*
X0016319Y0164332D01*
X0016449Y0164242D01*
X0016577Y0164149D01*
X0016703Y0164053D01*
X0016826Y0163953D01*
X0016947Y0163851D01*
X0017065Y0163746D01*
X0017180Y0163637D01*
X0017293Y0163526D01*
X0017403Y0163412D01*
X0017510Y0163295D01*
X0017614Y0163176D01*
X0017715Y0163054D01*
X0017812Y0162929D01*
X0017907Y0162802D01*
X0017998Y0162673D01*
X0018087Y0162542D01*
X0018171Y0162408D01*
X0018253Y0162272D01*
X0018331Y0162135D01*
X0018405Y0161995D01*
X0018476Y0161853D01*
X0018544Y0161710D01*
X0018608Y0161565D01*
X0018668Y0161419D01*
X0018724Y0161271D01*
X0018777Y0161122D01*
X0018826Y0160971D01*
X0018871Y0160819D01*
X0018912Y0160666D01*
X0018950Y0160513D01*
X0018983Y0160358D01*
X0019013Y0160202D01*
X0019039Y0160046D01*
X0019060Y0159889D01*
X0019078Y0159732D01*
X0019092Y0159574D01*
X0019102Y0159416D01*
X0019108Y0159258D01*
X0019110Y0159100D01*
X0019108Y0158942D01*
X0019102Y0158784D01*
X0019092Y0158626D01*
X0019078Y0158468D01*
X0019060Y0158311D01*
X0019039Y0158154D01*
X0019013Y0157998D01*
X0018983Y0157842D01*
X0018950Y0157687D01*
X0018912Y0157534D01*
X0018871Y0157381D01*
X0018826Y0157229D01*
X0018777Y0157078D01*
X0018724Y0156929D01*
X0018668Y0156781D01*
X0018608Y0156635D01*
X0018544Y0156490D01*
X0018476Y0156347D01*
X0018405Y0156205D01*
X0018331Y0156065D01*
X0018253Y0155928D01*
X0018171Y0155792D01*
X0018087Y0155658D01*
X0017998Y0155527D01*
X0017907Y0155398D01*
X0017812Y0155271D01*
X0017715Y0155146D01*
X0017614Y0155024D01*
X0017510Y0154905D01*
X0017403Y0154788D01*
X0017293Y0154674D01*
X0017180Y0154563D01*
X0017065Y0154454D01*
X0016947Y0154349D01*
X0016826Y0154247D01*
X0016703Y0154147D01*
X0016577Y0154051D01*
X0016449Y0153958D01*
X0016319Y0153868D01*
X0016186Y0153782D01*
X0016051Y0153698D01*
X0015915Y0153619D01*
X0015776Y0153542D01*
X0015635Y0153470D01*
X0015493Y0153400D01*
X0015349Y0153335D01*
X0015203Y0153273D01*
X0015056Y0153215D01*
X0014907Y0153160D01*
X0014757Y0153109D01*
X0014606Y0153062D01*
X0014454Y0153019D01*
X0014301Y0152980D01*
X0014146Y0152944D01*
X0013991Y0152913D01*
X0013835Y0152885D01*
X0013679Y0152861D01*
X0013522Y0152841D01*
X0013364Y0152825D01*
X0013207Y0152813D01*
X0013048Y0152805D01*
X0012890Y0152801D01*
X0012732Y0152801D01*
X0012574Y0152805D01*
X0012415Y0152813D01*
X0012258Y0152825D01*
X0012100Y0152841D01*
X0011943Y0152861D01*
X0011787Y0152885D01*
X0011631Y0152913D01*
X0011476Y0152944D01*
X0011321Y0152980D01*
X0011168Y0153019D01*
X0011016Y0153062D01*
X0010865Y0153109D01*
X0010715Y0153160D01*
X0010566Y0153215D01*
X0010419Y0153273D01*
X0010273Y0153335D01*
X0010129Y0153400D01*
X0009987Y0153470D01*
X0009846Y0153542D01*
X0009707Y0153619D01*
X0009571Y0153698D01*
X0009436Y0153782D01*
X0009303Y0153868D01*
X0009173Y0153958D01*
X0009045Y0154051D01*
X0008919Y0154147D01*
X0008796Y0154247D01*
X0008675Y0154349D01*
X0008557Y0154454D01*
X0008442Y0154563D01*
X0008329Y0154674D01*
X0008219Y0154788D01*
X0008112Y0154905D01*
X0008008Y0155024D01*
X0007907Y0155146D01*
X0007810Y0155271D01*
X0007715Y0155398D01*
X0007624Y0155527D01*
X0007535Y0155658D01*
X0007451Y0155792D01*
X0007369Y0155928D01*
X0007291Y0156065D01*
X0007217Y0156205D01*
X0007146Y0156347D01*
X0007078Y0156490D01*
X0007014Y0156635D01*
X0006954Y0156781D01*
X0006898Y0156929D01*
X0006845Y0157078D01*
X0006796Y0157229D01*
X0006751Y0157381D01*
X0006710Y0157534D01*
X0006672Y0157687D01*
X0006639Y0157842D01*
X0006609Y0157998D01*
X0006583Y0158154D01*
X0006562Y0158311D01*
X0006544Y0158468D01*
X0006530Y0158626D01*
X0006520Y0158784D01*
X0006514Y0158942D01*
X0006512Y0159100D01*
X0128559Y0084297D02*
X0128561Y0084455D01*
X0128567Y0084613D01*
X0128577Y0084771D01*
X0128591Y0084929D01*
X0128609Y0085086D01*
X0128630Y0085243D01*
X0128656Y0085399D01*
X0128686Y0085555D01*
X0128719Y0085710D01*
X0128757Y0085863D01*
X0128798Y0086016D01*
X0128843Y0086168D01*
X0128892Y0086319D01*
X0128945Y0086468D01*
X0129001Y0086616D01*
X0129061Y0086762D01*
X0129125Y0086907D01*
X0129193Y0087050D01*
X0129264Y0087192D01*
X0129338Y0087332D01*
X0129416Y0087469D01*
X0129498Y0087605D01*
X0129582Y0087739D01*
X0129671Y0087870D01*
X0129762Y0087999D01*
X0129857Y0088126D01*
X0129954Y0088251D01*
X0130055Y0088373D01*
X0130159Y0088492D01*
X0130266Y0088609D01*
X0130376Y0088723D01*
X0130489Y0088834D01*
X0130604Y0088943D01*
X0130722Y0089048D01*
X0130843Y0089150D01*
X0130966Y0089250D01*
X0131092Y0089346D01*
X0131220Y0089439D01*
X0131350Y0089529D01*
X0131483Y0089615D01*
X0131618Y0089699D01*
X0131754Y0089778D01*
X0131893Y0089855D01*
X0132034Y0089927D01*
X0132176Y0089997D01*
X0132320Y0090062D01*
X0132466Y0090124D01*
X0132613Y0090182D01*
X0132762Y0090237D01*
X0132912Y0090288D01*
X0133063Y0090335D01*
X0133215Y0090378D01*
X0133368Y0090417D01*
X0133523Y0090453D01*
X0133678Y0090484D01*
X0133834Y0090512D01*
X0133990Y0090536D01*
X0134147Y0090556D01*
X0134305Y0090572D01*
X0134462Y0090584D01*
X0134621Y0090592D01*
X0134779Y0090596D01*
X0134937Y0090596D01*
X0135095Y0090592D01*
X0135254Y0090584D01*
X0135411Y0090572D01*
X0135569Y0090556D01*
X0135726Y0090536D01*
X0135882Y0090512D01*
X0136038Y0090484D01*
X0136193Y0090453D01*
X0136348Y0090417D01*
X0136501Y0090378D01*
X0136653Y0090335D01*
X0136804Y0090288D01*
X0136954Y0090237D01*
X0137103Y0090182D01*
X0137250Y0090124D01*
X0137396Y0090062D01*
X0137540Y0089997D01*
X0137682Y0089927D01*
X0137823Y0089855D01*
X0137962Y0089778D01*
X0138098Y0089699D01*
X0138233Y0089615D01*
X0138366Y0089529D01*
X0138496Y0089439D01*
X0138624Y0089346D01*
X0138750Y0089250D01*
X0138873Y0089150D01*
X0138994Y0089048D01*
X0139112Y0088943D01*
X0139227Y0088834D01*
X0139340Y0088723D01*
X0139450Y0088609D01*
X0139557Y0088492D01*
X0139661Y0088373D01*
X0139762Y0088251D01*
X0139859Y0088126D01*
X0139954Y0087999D01*
X0140045Y0087870D01*
X0140134Y0087739D01*
X0140218Y0087605D01*
X0140300Y0087469D01*
X0140378Y0087332D01*
X0140452Y0087192D01*
X0140523Y0087050D01*
X0140591Y0086907D01*
X0140655Y0086762D01*
X0140715Y0086616D01*
X0140771Y0086468D01*
X0140824Y0086319D01*
X0140873Y0086168D01*
X0140918Y0086016D01*
X0140959Y0085863D01*
X0140997Y0085710D01*
X0141030Y0085555D01*
X0141060Y0085399D01*
X0141086Y0085243D01*
X0141107Y0085086D01*
X0141125Y0084929D01*
X0141139Y0084771D01*
X0141149Y0084613D01*
X0141155Y0084455D01*
X0141157Y0084297D01*
X0141155Y0084139D01*
X0141149Y0083981D01*
X0141139Y0083823D01*
X0141125Y0083665D01*
X0141107Y0083508D01*
X0141086Y0083351D01*
X0141060Y0083195D01*
X0141030Y0083039D01*
X0140997Y0082884D01*
X0140959Y0082731D01*
X0140918Y0082578D01*
X0140873Y0082426D01*
X0140824Y0082275D01*
X0140771Y0082126D01*
X0140715Y0081978D01*
X0140655Y0081832D01*
X0140591Y0081687D01*
X0140523Y0081544D01*
X0140452Y0081402D01*
X0140378Y0081262D01*
X0140300Y0081125D01*
X0140218Y0080989D01*
X0140134Y0080855D01*
X0140045Y0080724D01*
X0139954Y0080595D01*
X0139859Y0080468D01*
X0139762Y0080343D01*
X0139661Y0080221D01*
X0139557Y0080102D01*
X0139450Y0079985D01*
X0139340Y0079871D01*
X0139227Y0079760D01*
X0139112Y0079651D01*
X0138994Y0079546D01*
X0138873Y0079444D01*
X0138750Y0079344D01*
X0138624Y0079248D01*
X0138496Y0079155D01*
X0138366Y0079065D01*
X0138233Y0078979D01*
X0138098Y0078895D01*
X0137962Y0078816D01*
X0137823Y0078739D01*
X0137682Y0078667D01*
X0137540Y0078597D01*
X0137396Y0078532D01*
X0137250Y0078470D01*
X0137103Y0078412D01*
X0136954Y0078357D01*
X0136804Y0078306D01*
X0136653Y0078259D01*
X0136501Y0078216D01*
X0136348Y0078177D01*
X0136193Y0078141D01*
X0136038Y0078110D01*
X0135882Y0078082D01*
X0135726Y0078058D01*
X0135569Y0078038D01*
X0135411Y0078022D01*
X0135254Y0078010D01*
X0135095Y0078002D01*
X0134937Y0077998D01*
X0134779Y0077998D01*
X0134621Y0078002D01*
X0134462Y0078010D01*
X0134305Y0078022D01*
X0134147Y0078038D01*
X0133990Y0078058D01*
X0133834Y0078082D01*
X0133678Y0078110D01*
X0133523Y0078141D01*
X0133368Y0078177D01*
X0133215Y0078216D01*
X0133063Y0078259D01*
X0132912Y0078306D01*
X0132762Y0078357D01*
X0132613Y0078412D01*
X0132466Y0078470D01*
X0132320Y0078532D01*
X0132176Y0078597D01*
X0132034Y0078667D01*
X0131893Y0078739D01*
X0131754Y0078816D01*
X0131618Y0078895D01*
X0131483Y0078979D01*
X0131350Y0079065D01*
X0131220Y0079155D01*
X0131092Y0079248D01*
X0130966Y0079344D01*
X0130843Y0079444D01*
X0130722Y0079546D01*
X0130604Y0079651D01*
X0130489Y0079760D01*
X0130376Y0079871D01*
X0130266Y0079985D01*
X0130159Y0080102D01*
X0130055Y0080221D01*
X0129954Y0080343D01*
X0129857Y0080468D01*
X0129762Y0080595D01*
X0129671Y0080724D01*
X0129582Y0080855D01*
X0129498Y0080989D01*
X0129416Y0081125D01*
X0129338Y0081262D01*
X0129264Y0081402D01*
X0129193Y0081544D01*
X0129125Y0081687D01*
X0129061Y0081832D01*
X0129001Y0081978D01*
X0128945Y0082126D01*
X0128892Y0082275D01*
X0128843Y0082426D01*
X0128798Y0082578D01*
X0128757Y0082731D01*
X0128719Y0082884D01*
X0128686Y0083039D01*
X0128656Y0083195D01*
X0128630Y0083351D01*
X0128609Y0083508D01*
X0128591Y0083665D01*
X0128577Y0083823D01*
X0128567Y0083981D01*
X0128561Y0084139D01*
X0128559Y0084297D01*
X0219110Y0155163D02*
X0219112Y0155321D01*
X0219118Y0155479D01*
X0219128Y0155637D01*
X0219142Y0155795D01*
X0219160Y0155952D01*
X0219181Y0156109D01*
X0219207Y0156265D01*
X0219237Y0156421D01*
X0219270Y0156576D01*
X0219308Y0156729D01*
X0219349Y0156882D01*
X0219394Y0157034D01*
X0219443Y0157185D01*
X0219496Y0157334D01*
X0219552Y0157482D01*
X0219612Y0157628D01*
X0219676Y0157773D01*
X0219744Y0157916D01*
X0219815Y0158058D01*
X0219889Y0158198D01*
X0219967Y0158335D01*
X0220049Y0158471D01*
X0220133Y0158605D01*
X0220222Y0158736D01*
X0220313Y0158865D01*
X0220408Y0158992D01*
X0220505Y0159117D01*
X0220606Y0159239D01*
X0220710Y0159358D01*
X0220817Y0159475D01*
X0220927Y0159589D01*
X0221040Y0159700D01*
X0221155Y0159809D01*
X0221273Y0159914D01*
X0221394Y0160016D01*
X0221517Y0160116D01*
X0221643Y0160212D01*
X0221771Y0160305D01*
X0221901Y0160395D01*
X0222034Y0160481D01*
X0222169Y0160565D01*
X0222305Y0160644D01*
X0222444Y0160721D01*
X0222585Y0160793D01*
X0222727Y0160863D01*
X0222871Y0160928D01*
X0223017Y0160990D01*
X0223164Y0161048D01*
X0223313Y0161103D01*
X0223463Y0161154D01*
X0223614Y0161201D01*
X0223766Y0161244D01*
X0223919Y0161283D01*
X0224074Y0161319D01*
X0224229Y0161350D01*
X0224385Y0161378D01*
X0224541Y0161402D01*
X0224698Y0161422D01*
X0224856Y0161438D01*
X0225013Y0161450D01*
X0225172Y0161458D01*
X0225330Y0161462D01*
X0225488Y0161462D01*
X0225646Y0161458D01*
X0225805Y0161450D01*
X0225962Y0161438D01*
X0226120Y0161422D01*
X0226277Y0161402D01*
X0226433Y0161378D01*
X0226589Y0161350D01*
X0226744Y0161319D01*
X0226899Y0161283D01*
X0227052Y0161244D01*
X0227204Y0161201D01*
X0227355Y0161154D01*
X0227505Y0161103D01*
X0227654Y0161048D01*
X0227801Y0160990D01*
X0227947Y0160928D01*
X0228091Y0160863D01*
X0228233Y0160793D01*
X0228374Y0160721D01*
X0228513Y0160644D01*
X0228649Y0160565D01*
X0228784Y0160481D01*
X0228917Y0160395D01*
X0229047Y0160305D01*
X0229175Y0160212D01*
X0229301Y0160116D01*
X0229424Y0160016D01*
X0229545Y0159914D01*
X0229663Y0159809D01*
X0229778Y0159700D01*
X0229891Y0159589D01*
X0230001Y0159475D01*
X0230108Y0159358D01*
X0230212Y0159239D01*
X0230313Y0159117D01*
X0230410Y0158992D01*
X0230505Y0158865D01*
X0230596Y0158736D01*
X0230685Y0158605D01*
X0230769Y0158471D01*
X0230851Y0158335D01*
X0230929Y0158198D01*
X0231003Y0158058D01*
X0231074Y0157916D01*
X0231142Y0157773D01*
X0231206Y0157628D01*
X0231266Y0157482D01*
X0231322Y0157334D01*
X0231375Y0157185D01*
X0231424Y0157034D01*
X0231469Y0156882D01*
X0231510Y0156729D01*
X0231548Y0156576D01*
X0231581Y0156421D01*
X0231611Y0156265D01*
X0231637Y0156109D01*
X0231658Y0155952D01*
X0231676Y0155795D01*
X0231690Y0155637D01*
X0231700Y0155479D01*
X0231706Y0155321D01*
X0231708Y0155163D01*
X0231706Y0155005D01*
X0231700Y0154847D01*
X0231690Y0154689D01*
X0231676Y0154531D01*
X0231658Y0154374D01*
X0231637Y0154217D01*
X0231611Y0154061D01*
X0231581Y0153905D01*
X0231548Y0153750D01*
X0231510Y0153597D01*
X0231469Y0153444D01*
X0231424Y0153292D01*
X0231375Y0153141D01*
X0231322Y0152992D01*
X0231266Y0152844D01*
X0231206Y0152698D01*
X0231142Y0152553D01*
X0231074Y0152410D01*
X0231003Y0152268D01*
X0230929Y0152128D01*
X0230851Y0151991D01*
X0230769Y0151855D01*
X0230685Y0151721D01*
X0230596Y0151590D01*
X0230505Y0151461D01*
X0230410Y0151334D01*
X0230313Y0151209D01*
X0230212Y0151087D01*
X0230108Y0150968D01*
X0230001Y0150851D01*
X0229891Y0150737D01*
X0229778Y0150626D01*
X0229663Y0150517D01*
X0229545Y0150412D01*
X0229424Y0150310D01*
X0229301Y0150210D01*
X0229175Y0150114D01*
X0229047Y0150021D01*
X0228917Y0149931D01*
X0228784Y0149845D01*
X0228649Y0149761D01*
X0228513Y0149682D01*
X0228374Y0149605D01*
X0228233Y0149533D01*
X0228091Y0149463D01*
X0227947Y0149398D01*
X0227801Y0149336D01*
X0227654Y0149278D01*
X0227505Y0149223D01*
X0227355Y0149172D01*
X0227204Y0149125D01*
X0227052Y0149082D01*
X0226899Y0149043D01*
X0226744Y0149007D01*
X0226589Y0148976D01*
X0226433Y0148948D01*
X0226277Y0148924D01*
X0226120Y0148904D01*
X0225962Y0148888D01*
X0225805Y0148876D01*
X0225646Y0148868D01*
X0225488Y0148864D01*
X0225330Y0148864D01*
X0225172Y0148868D01*
X0225013Y0148876D01*
X0224856Y0148888D01*
X0224698Y0148904D01*
X0224541Y0148924D01*
X0224385Y0148948D01*
X0224229Y0148976D01*
X0224074Y0149007D01*
X0223919Y0149043D01*
X0223766Y0149082D01*
X0223614Y0149125D01*
X0223463Y0149172D01*
X0223313Y0149223D01*
X0223164Y0149278D01*
X0223017Y0149336D01*
X0222871Y0149398D01*
X0222727Y0149463D01*
X0222585Y0149533D01*
X0222444Y0149605D01*
X0222305Y0149682D01*
X0222169Y0149761D01*
X0222034Y0149845D01*
X0221901Y0149931D01*
X0221771Y0150021D01*
X0221643Y0150114D01*
X0221517Y0150210D01*
X0221394Y0150310D01*
X0221273Y0150412D01*
X0221155Y0150517D01*
X0221040Y0150626D01*
X0220927Y0150737D01*
X0220817Y0150851D01*
X0220710Y0150968D01*
X0220606Y0151087D01*
X0220505Y0151209D01*
X0220408Y0151334D01*
X0220313Y0151461D01*
X0220222Y0151590D01*
X0220133Y0151721D01*
X0220049Y0151855D01*
X0219967Y0151991D01*
X0219889Y0152128D01*
X0219815Y0152268D01*
X0219744Y0152410D01*
X0219676Y0152553D01*
X0219612Y0152698D01*
X0219552Y0152844D01*
X0219496Y0152992D01*
X0219443Y0153141D01*
X0219394Y0153292D01*
X0219349Y0153444D01*
X0219308Y0153597D01*
X0219270Y0153750D01*
X0219237Y0153905D01*
X0219207Y0154061D01*
X0219181Y0154217D01*
X0219160Y0154374D01*
X0219142Y0154531D01*
X0219128Y0154689D01*
X0219118Y0154847D01*
X0219112Y0155005D01*
X0219110Y0155163D01*
D11*
X0225409Y0155163D03*
X0134858Y0084297D03*
X0012811Y0159100D03*
D12*
X0211000Y0184179D03*
D13*
X0211000Y0203864D03*
D14*
X0183093Y0187380D03*
X0173993Y0187380D03*
X0164893Y0187380D03*
D15*
X0173993Y0212580D03*
D16*
X0146000Y0211679D03*
X0146000Y0201679D03*
X0146000Y0191679D03*
X0131000Y0191679D03*
X0131000Y0201679D03*
X0131000Y0211679D03*
X0116000Y0211679D03*
X0116000Y0201679D03*
X0116000Y0191679D03*
X0173500Y0136679D03*
X0183500Y0136679D03*
X0193500Y0136679D03*
X0203500Y0136679D03*
X0213500Y0136679D03*
X0223500Y0136679D03*
X0223500Y0096679D03*
X0213500Y0096679D03*
X0203500Y0096679D03*
X0193500Y0096679D03*
X0183500Y0096679D03*
X0173500Y0096679D03*
X0166000Y0064179D03*
X0166000Y0054179D03*
X0148500Y0054179D03*
X0148500Y0044179D03*
X0148500Y0064179D03*
X0131000Y0064179D03*
X0131000Y0054179D03*
X0131000Y0044179D03*
X0183500Y0044179D03*
X0183500Y0054179D03*
X0183500Y0064179D03*
X0021000Y0184179D03*
X0021000Y0194179D03*
X0021000Y0204179D03*
D17*
X0056000Y0206974D03*
X0056000Y0181384D03*
D18*
X0116000Y0181679D03*
X0131000Y0181679D03*
X0146000Y0181679D03*
D19*
X0076000Y0065419D03*
X0076000Y0057939D03*
X0038500Y0052919D03*
X0038500Y0045439D03*
D20*
X0066000Y0134179D03*
X0066000Y0154179D03*
D21*
X0109100Y0140203D03*
X0109100Y0137053D03*
X0109100Y0133903D03*
X0109100Y0130754D03*
X0109100Y0127604D03*
X0109100Y0124455D03*
X0109100Y0121305D03*
X0109100Y0118155D03*
X0142900Y0118155D03*
X0142900Y0121305D03*
X0142900Y0124455D03*
X0142900Y0127604D03*
X0142900Y0130754D03*
X0142900Y0133903D03*
X0142900Y0137053D03*
X0142900Y0140203D03*
D22*
X0137024Y0146079D03*
X0133874Y0146079D03*
X0130724Y0146079D03*
X0127575Y0146079D03*
X0124425Y0146079D03*
X0121276Y0146079D03*
X0118126Y0146079D03*
X0114976Y0146079D03*
X0114976Y0112279D03*
X0118126Y0112279D03*
X0121276Y0112279D03*
X0124425Y0112279D03*
X0127575Y0112279D03*
X0130724Y0112279D03*
X0133874Y0112279D03*
X0137024Y0112279D03*
D23*
X0081000Y0128667D03*
X0081000Y0139691D03*
X0081000Y0153667D03*
X0081000Y0164691D03*
D24*
X0211000Y0069179D03*
X0211000Y0059179D03*
X0211000Y0049179D03*
X0221000Y0049179D03*
X0221000Y0059179D03*
X0221000Y0069179D03*
D25*
X0202240Y0111679D03*
X0194760Y0111679D03*
X0194760Y0121679D03*
X0202240Y0121679D03*
X0097240Y0054179D03*
X0089760Y0054179D03*
X0084740Y0079179D03*
X0077260Y0079179D03*
X0079760Y0091679D03*
X0087240Y0091679D03*
X0057240Y0054179D03*
X0049760Y0054179D03*
X0067260Y0199179D03*
X0074740Y0199179D03*
X0072260Y0211679D03*
X0079740Y0211679D03*
D26*
X0090488Y0064179D03*
X0101512Y0064179D03*
D27*
X0098351Y0196621D03*
X0090851Y0201621D03*
X0098351Y0206621D03*
D28*
X0156000Y0159179D03*
X0186000Y0154179D03*
D29*
X0186000Y0164179D03*
X0156000Y0169179D03*
D30*
X0029500Y0130366D03*
X0024500Y0137992D03*
X0012500Y0137992D03*
D31*
X0018500Y0130366D03*
M02*
