G75*
%MOIN*%
%OFA0B0*%
%FSLAX25Y25*%
%IPPOS*%
%LPD*%
%AMOC8*
5,1,8,0,0,1.08239X$1,22.5*
%
%ADD10C,0.00000*%
%ADD11C,0.00039*%
D10*
X0044888Y0146728D02*
X0344100Y0146728D01*
X0344290Y0146730D01*
X0344480Y0146737D01*
X0344670Y0146749D01*
X0344860Y0146765D01*
X0345049Y0146785D01*
X0345238Y0146811D01*
X0345426Y0146840D01*
X0345613Y0146875D01*
X0345799Y0146914D01*
X0345984Y0146957D01*
X0346169Y0147005D01*
X0346352Y0147057D01*
X0346533Y0147113D01*
X0346713Y0147174D01*
X0346892Y0147240D01*
X0347069Y0147309D01*
X0347245Y0147383D01*
X0347418Y0147461D01*
X0347590Y0147544D01*
X0347759Y0147630D01*
X0347927Y0147720D01*
X0348092Y0147815D01*
X0348255Y0147913D01*
X0348415Y0148016D01*
X0348573Y0148122D01*
X0348728Y0148232D01*
X0348881Y0148345D01*
X0349031Y0148463D01*
X0349177Y0148584D01*
X0349321Y0148708D01*
X0349462Y0148836D01*
X0349600Y0148967D01*
X0349735Y0149102D01*
X0349866Y0149240D01*
X0349994Y0149381D01*
X0350118Y0149525D01*
X0350239Y0149671D01*
X0350357Y0149821D01*
X0350470Y0149974D01*
X0350580Y0150129D01*
X0350686Y0150287D01*
X0350789Y0150447D01*
X0350887Y0150610D01*
X0350982Y0150775D01*
X0351072Y0150943D01*
X0351158Y0151112D01*
X0351241Y0151284D01*
X0351319Y0151457D01*
X0351393Y0151633D01*
X0351462Y0151810D01*
X0351528Y0151989D01*
X0351589Y0152169D01*
X0351645Y0152350D01*
X0351697Y0152533D01*
X0351745Y0152718D01*
X0351788Y0152903D01*
X0351827Y0153089D01*
X0351862Y0153276D01*
X0351891Y0153464D01*
X0351917Y0153653D01*
X0351937Y0153842D01*
X0351953Y0154032D01*
X0351965Y0154222D01*
X0351972Y0154412D01*
X0351974Y0154602D01*
X0351974Y0335705D01*
X0351972Y0335895D01*
X0351965Y0336085D01*
X0351953Y0336275D01*
X0351937Y0336465D01*
X0351917Y0336654D01*
X0351891Y0336843D01*
X0351862Y0337031D01*
X0351827Y0337218D01*
X0351788Y0337404D01*
X0351745Y0337589D01*
X0351697Y0337774D01*
X0351645Y0337957D01*
X0351589Y0338138D01*
X0351528Y0338318D01*
X0351462Y0338497D01*
X0351393Y0338674D01*
X0351319Y0338850D01*
X0351241Y0339023D01*
X0351158Y0339195D01*
X0351072Y0339364D01*
X0350982Y0339532D01*
X0350887Y0339697D01*
X0350789Y0339860D01*
X0350686Y0340020D01*
X0350580Y0340178D01*
X0350470Y0340333D01*
X0350357Y0340486D01*
X0350239Y0340636D01*
X0350118Y0340782D01*
X0349994Y0340926D01*
X0349866Y0341067D01*
X0349735Y0341205D01*
X0349600Y0341340D01*
X0349462Y0341471D01*
X0349321Y0341599D01*
X0349177Y0341723D01*
X0349031Y0341844D01*
X0348881Y0341962D01*
X0348728Y0342075D01*
X0348573Y0342185D01*
X0348415Y0342291D01*
X0348255Y0342394D01*
X0348092Y0342492D01*
X0347927Y0342587D01*
X0347759Y0342677D01*
X0347590Y0342763D01*
X0347418Y0342846D01*
X0347245Y0342924D01*
X0347069Y0342998D01*
X0346892Y0343067D01*
X0346713Y0343133D01*
X0346533Y0343194D01*
X0346352Y0343250D01*
X0346169Y0343302D01*
X0345984Y0343350D01*
X0345799Y0343393D01*
X0345613Y0343432D01*
X0345426Y0343467D01*
X0345238Y0343496D01*
X0345049Y0343522D01*
X0344860Y0343542D01*
X0344670Y0343558D01*
X0344480Y0343570D01*
X0344290Y0343577D01*
X0344100Y0343579D01*
X0044888Y0343579D01*
X0044698Y0343577D01*
X0044508Y0343570D01*
X0044318Y0343558D01*
X0044128Y0343542D01*
X0043939Y0343522D01*
X0043750Y0343496D01*
X0043562Y0343467D01*
X0043375Y0343432D01*
X0043189Y0343393D01*
X0043004Y0343350D01*
X0042819Y0343302D01*
X0042636Y0343250D01*
X0042455Y0343194D01*
X0042275Y0343133D01*
X0042096Y0343067D01*
X0041919Y0342998D01*
X0041743Y0342924D01*
X0041570Y0342846D01*
X0041398Y0342763D01*
X0041229Y0342677D01*
X0041061Y0342587D01*
X0040896Y0342492D01*
X0040733Y0342394D01*
X0040573Y0342291D01*
X0040415Y0342185D01*
X0040260Y0342075D01*
X0040107Y0341962D01*
X0039957Y0341844D01*
X0039811Y0341723D01*
X0039667Y0341599D01*
X0039526Y0341471D01*
X0039388Y0341340D01*
X0039253Y0341205D01*
X0039122Y0341067D01*
X0038994Y0340926D01*
X0038870Y0340782D01*
X0038749Y0340636D01*
X0038631Y0340486D01*
X0038518Y0340333D01*
X0038408Y0340178D01*
X0038302Y0340020D01*
X0038199Y0339860D01*
X0038101Y0339697D01*
X0038006Y0339532D01*
X0037916Y0339364D01*
X0037830Y0339195D01*
X0037747Y0339023D01*
X0037669Y0338850D01*
X0037595Y0338674D01*
X0037526Y0338497D01*
X0037460Y0338318D01*
X0037399Y0338138D01*
X0037343Y0337957D01*
X0037291Y0337774D01*
X0037243Y0337589D01*
X0037200Y0337404D01*
X0037161Y0337218D01*
X0037126Y0337031D01*
X0037097Y0336843D01*
X0037071Y0336654D01*
X0037051Y0336465D01*
X0037035Y0336275D01*
X0037023Y0336085D01*
X0037016Y0335895D01*
X0037014Y0335705D01*
X0037014Y0154602D01*
X0037016Y0154412D01*
X0037023Y0154222D01*
X0037035Y0154032D01*
X0037051Y0153842D01*
X0037071Y0153653D01*
X0037097Y0153464D01*
X0037126Y0153276D01*
X0037161Y0153089D01*
X0037200Y0152903D01*
X0037243Y0152718D01*
X0037291Y0152533D01*
X0037343Y0152350D01*
X0037399Y0152169D01*
X0037460Y0151989D01*
X0037526Y0151810D01*
X0037595Y0151633D01*
X0037669Y0151457D01*
X0037747Y0151284D01*
X0037830Y0151112D01*
X0037916Y0150943D01*
X0038006Y0150775D01*
X0038101Y0150610D01*
X0038199Y0150447D01*
X0038302Y0150287D01*
X0038408Y0150129D01*
X0038518Y0149974D01*
X0038631Y0149821D01*
X0038749Y0149671D01*
X0038870Y0149525D01*
X0038994Y0149381D01*
X0039122Y0149240D01*
X0039253Y0149102D01*
X0039388Y0148967D01*
X0039526Y0148836D01*
X0039667Y0148708D01*
X0039811Y0148584D01*
X0039957Y0148463D01*
X0040107Y0148345D01*
X0040260Y0148232D01*
X0040415Y0148122D01*
X0040573Y0148016D01*
X0040733Y0147913D01*
X0040896Y0147815D01*
X0041061Y0147720D01*
X0041229Y0147630D01*
X0041398Y0147544D01*
X0041570Y0147461D01*
X0041743Y0147383D01*
X0041919Y0147309D01*
X0042096Y0147240D01*
X0042275Y0147174D01*
X0042455Y0147113D01*
X0042636Y0147057D01*
X0042819Y0147005D01*
X0043004Y0146957D01*
X0043189Y0146914D01*
X0043375Y0146875D01*
X0043562Y0146840D01*
X0043750Y0146811D01*
X0043939Y0146785D01*
X0044128Y0146765D01*
X0044318Y0146749D01*
X0044508Y0146737D01*
X0044698Y0146730D01*
X0044888Y0146728D01*
X0042575Y0158539D02*
X0042577Y0158697D01*
X0042583Y0158854D01*
X0042593Y0159012D01*
X0042607Y0159169D01*
X0042625Y0159325D01*
X0042646Y0159482D01*
X0042672Y0159637D01*
X0042702Y0159792D01*
X0042735Y0159946D01*
X0042773Y0160099D01*
X0042814Y0160252D01*
X0042859Y0160403D01*
X0042908Y0160553D01*
X0042961Y0160701D01*
X0043017Y0160849D01*
X0043078Y0160994D01*
X0043141Y0161139D01*
X0043209Y0161281D01*
X0043280Y0161422D01*
X0043354Y0161561D01*
X0043432Y0161698D01*
X0043514Y0161833D01*
X0043598Y0161966D01*
X0043687Y0162097D01*
X0043778Y0162225D01*
X0043873Y0162352D01*
X0043970Y0162475D01*
X0044071Y0162597D01*
X0044175Y0162715D01*
X0044282Y0162831D01*
X0044392Y0162944D01*
X0044504Y0163055D01*
X0044620Y0163162D01*
X0044738Y0163267D01*
X0044858Y0163369D01*
X0044981Y0163467D01*
X0045107Y0163563D01*
X0045235Y0163655D01*
X0045365Y0163744D01*
X0045497Y0163830D01*
X0045632Y0163912D01*
X0045769Y0163991D01*
X0045907Y0164066D01*
X0046047Y0164138D01*
X0046190Y0164206D01*
X0046333Y0164271D01*
X0046479Y0164332D01*
X0046626Y0164389D01*
X0046774Y0164443D01*
X0046924Y0164493D01*
X0047074Y0164539D01*
X0047226Y0164581D01*
X0047379Y0164620D01*
X0047533Y0164654D01*
X0047688Y0164685D01*
X0047843Y0164711D01*
X0047999Y0164734D01*
X0048156Y0164753D01*
X0048313Y0164768D01*
X0048470Y0164779D01*
X0048628Y0164786D01*
X0048786Y0164789D01*
X0048943Y0164788D01*
X0049101Y0164783D01*
X0049258Y0164774D01*
X0049416Y0164761D01*
X0049572Y0164744D01*
X0049729Y0164723D01*
X0049884Y0164699D01*
X0050039Y0164670D01*
X0050194Y0164637D01*
X0050347Y0164601D01*
X0050500Y0164560D01*
X0050651Y0164516D01*
X0050801Y0164468D01*
X0050950Y0164417D01*
X0051098Y0164361D01*
X0051244Y0164302D01*
X0051389Y0164239D01*
X0051532Y0164172D01*
X0051673Y0164102D01*
X0051812Y0164029D01*
X0051950Y0163952D01*
X0052086Y0163871D01*
X0052219Y0163787D01*
X0052350Y0163700D01*
X0052479Y0163609D01*
X0052606Y0163515D01*
X0052731Y0163418D01*
X0052852Y0163318D01*
X0052972Y0163215D01*
X0053088Y0163109D01*
X0053202Y0163000D01*
X0053314Y0162888D01*
X0053422Y0162774D01*
X0053527Y0162656D01*
X0053630Y0162536D01*
X0053729Y0162414D01*
X0053825Y0162289D01*
X0053918Y0162161D01*
X0054008Y0162032D01*
X0054094Y0161900D01*
X0054178Y0161766D01*
X0054257Y0161630D01*
X0054334Y0161492D01*
X0054406Y0161352D01*
X0054475Y0161210D01*
X0054541Y0161067D01*
X0054603Y0160922D01*
X0054661Y0160775D01*
X0054716Y0160627D01*
X0054767Y0160478D01*
X0054814Y0160327D01*
X0054857Y0160176D01*
X0054896Y0160023D01*
X0054932Y0159869D01*
X0054963Y0159715D01*
X0054991Y0159560D01*
X0055015Y0159404D01*
X0055035Y0159247D01*
X0055051Y0159090D01*
X0055063Y0158933D01*
X0055071Y0158776D01*
X0055075Y0158618D01*
X0055075Y0158460D01*
X0055071Y0158302D01*
X0055063Y0158145D01*
X0055051Y0157988D01*
X0055035Y0157831D01*
X0055015Y0157674D01*
X0054991Y0157518D01*
X0054963Y0157363D01*
X0054932Y0157209D01*
X0054896Y0157055D01*
X0054857Y0156902D01*
X0054814Y0156751D01*
X0054767Y0156600D01*
X0054716Y0156451D01*
X0054661Y0156303D01*
X0054603Y0156156D01*
X0054541Y0156011D01*
X0054475Y0155868D01*
X0054406Y0155726D01*
X0054334Y0155586D01*
X0054257Y0155448D01*
X0054178Y0155312D01*
X0054094Y0155178D01*
X0054008Y0155046D01*
X0053918Y0154917D01*
X0053825Y0154789D01*
X0053729Y0154664D01*
X0053630Y0154542D01*
X0053527Y0154422D01*
X0053422Y0154304D01*
X0053314Y0154190D01*
X0053202Y0154078D01*
X0053088Y0153969D01*
X0052972Y0153863D01*
X0052852Y0153760D01*
X0052731Y0153660D01*
X0052606Y0153563D01*
X0052479Y0153469D01*
X0052350Y0153378D01*
X0052219Y0153291D01*
X0052086Y0153207D01*
X0051950Y0153126D01*
X0051812Y0153049D01*
X0051673Y0152976D01*
X0051532Y0152906D01*
X0051389Y0152839D01*
X0051244Y0152776D01*
X0051098Y0152717D01*
X0050950Y0152661D01*
X0050801Y0152610D01*
X0050651Y0152562D01*
X0050500Y0152518D01*
X0050347Y0152477D01*
X0050194Y0152441D01*
X0050039Y0152408D01*
X0049884Y0152379D01*
X0049729Y0152355D01*
X0049572Y0152334D01*
X0049416Y0152317D01*
X0049258Y0152304D01*
X0049101Y0152295D01*
X0048943Y0152290D01*
X0048786Y0152289D01*
X0048628Y0152292D01*
X0048470Y0152299D01*
X0048313Y0152310D01*
X0048156Y0152325D01*
X0047999Y0152344D01*
X0047843Y0152367D01*
X0047688Y0152393D01*
X0047533Y0152424D01*
X0047379Y0152458D01*
X0047226Y0152497D01*
X0047074Y0152539D01*
X0046924Y0152585D01*
X0046774Y0152635D01*
X0046626Y0152689D01*
X0046479Y0152746D01*
X0046333Y0152807D01*
X0046190Y0152872D01*
X0046047Y0152940D01*
X0045907Y0153012D01*
X0045769Y0153087D01*
X0045632Y0153166D01*
X0045497Y0153248D01*
X0045365Y0153334D01*
X0045235Y0153423D01*
X0045107Y0153515D01*
X0044981Y0153611D01*
X0044858Y0153709D01*
X0044738Y0153811D01*
X0044620Y0153916D01*
X0044504Y0154023D01*
X0044392Y0154134D01*
X0044282Y0154247D01*
X0044175Y0154363D01*
X0044071Y0154481D01*
X0043970Y0154603D01*
X0043873Y0154726D01*
X0043778Y0154853D01*
X0043687Y0154981D01*
X0043598Y0155112D01*
X0043514Y0155245D01*
X0043432Y0155380D01*
X0043354Y0155517D01*
X0043280Y0155656D01*
X0043209Y0155797D01*
X0043141Y0155939D01*
X0043078Y0156084D01*
X0043017Y0156229D01*
X0042961Y0156377D01*
X0042908Y0156525D01*
X0042859Y0156675D01*
X0042814Y0156826D01*
X0042773Y0156979D01*
X0042735Y0157132D01*
X0042702Y0157286D01*
X0042672Y0157441D01*
X0042646Y0157596D01*
X0042625Y0157753D01*
X0042607Y0157909D01*
X0042593Y0158066D01*
X0042583Y0158224D01*
X0042577Y0158381D01*
X0042575Y0158539D01*
X0042575Y0331768D02*
X0042577Y0331926D01*
X0042583Y0332083D01*
X0042593Y0332241D01*
X0042607Y0332398D01*
X0042625Y0332554D01*
X0042646Y0332711D01*
X0042672Y0332866D01*
X0042702Y0333021D01*
X0042735Y0333175D01*
X0042773Y0333328D01*
X0042814Y0333481D01*
X0042859Y0333632D01*
X0042908Y0333782D01*
X0042961Y0333930D01*
X0043017Y0334078D01*
X0043078Y0334223D01*
X0043141Y0334368D01*
X0043209Y0334510D01*
X0043280Y0334651D01*
X0043354Y0334790D01*
X0043432Y0334927D01*
X0043514Y0335062D01*
X0043598Y0335195D01*
X0043687Y0335326D01*
X0043778Y0335454D01*
X0043873Y0335581D01*
X0043970Y0335704D01*
X0044071Y0335826D01*
X0044175Y0335944D01*
X0044282Y0336060D01*
X0044392Y0336173D01*
X0044504Y0336284D01*
X0044620Y0336391D01*
X0044738Y0336496D01*
X0044858Y0336598D01*
X0044981Y0336696D01*
X0045107Y0336792D01*
X0045235Y0336884D01*
X0045365Y0336973D01*
X0045497Y0337059D01*
X0045632Y0337141D01*
X0045769Y0337220D01*
X0045907Y0337295D01*
X0046047Y0337367D01*
X0046190Y0337435D01*
X0046333Y0337500D01*
X0046479Y0337561D01*
X0046626Y0337618D01*
X0046774Y0337672D01*
X0046924Y0337722D01*
X0047074Y0337768D01*
X0047226Y0337810D01*
X0047379Y0337849D01*
X0047533Y0337883D01*
X0047688Y0337914D01*
X0047843Y0337940D01*
X0047999Y0337963D01*
X0048156Y0337982D01*
X0048313Y0337997D01*
X0048470Y0338008D01*
X0048628Y0338015D01*
X0048786Y0338018D01*
X0048943Y0338017D01*
X0049101Y0338012D01*
X0049258Y0338003D01*
X0049416Y0337990D01*
X0049572Y0337973D01*
X0049729Y0337952D01*
X0049884Y0337928D01*
X0050039Y0337899D01*
X0050194Y0337866D01*
X0050347Y0337830D01*
X0050500Y0337789D01*
X0050651Y0337745D01*
X0050801Y0337697D01*
X0050950Y0337646D01*
X0051098Y0337590D01*
X0051244Y0337531D01*
X0051389Y0337468D01*
X0051532Y0337401D01*
X0051673Y0337331D01*
X0051812Y0337258D01*
X0051950Y0337181D01*
X0052086Y0337100D01*
X0052219Y0337016D01*
X0052350Y0336929D01*
X0052479Y0336838D01*
X0052606Y0336744D01*
X0052731Y0336647D01*
X0052852Y0336547D01*
X0052972Y0336444D01*
X0053088Y0336338D01*
X0053202Y0336229D01*
X0053314Y0336117D01*
X0053422Y0336003D01*
X0053527Y0335885D01*
X0053630Y0335765D01*
X0053729Y0335643D01*
X0053825Y0335518D01*
X0053918Y0335390D01*
X0054008Y0335261D01*
X0054094Y0335129D01*
X0054178Y0334995D01*
X0054257Y0334859D01*
X0054334Y0334721D01*
X0054406Y0334581D01*
X0054475Y0334439D01*
X0054541Y0334296D01*
X0054603Y0334151D01*
X0054661Y0334004D01*
X0054716Y0333856D01*
X0054767Y0333707D01*
X0054814Y0333556D01*
X0054857Y0333405D01*
X0054896Y0333252D01*
X0054932Y0333098D01*
X0054963Y0332944D01*
X0054991Y0332789D01*
X0055015Y0332633D01*
X0055035Y0332476D01*
X0055051Y0332319D01*
X0055063Y0332162D01*
X0055071Y0332005D01*
X0055075Y0331847D01*
X0055075Y0331689D01*
X0055071Y0331531D01*
X0055063Y0331374D01*
X0055051Y0331217D01*
X0055035Y0331060D01*
X0055015Y0330903D01*
X0054991Y0330747D01*
X0054963Y0330592D01*
X0054932Y0330438D01*
X0054896Y0330284D01*
X0054857Y0330131D01*
X0054814Y0329980D01*
X0054767Y0329829D01*
X0054716Y0329680D01*
X0054661Y0329532D01*
X0054603Y0329385D01*
X0054541Y0329240D01*
X0054475Y0329097D01*
X0054406Y0328955D01*
X0054334Y0328815D01*
X0054257Y0328677D01*
X0054178Y0328541D01*
X0054094Y0328407D01*
X0054008Y0328275D01*
X0053918Y0328146D01*
X0053825Y0328018D01*
X0053729Y0327893D01*
X0053630Y0327771D01*
X0053527Y0327651D01*
X0053422Y0327533D01*
X0053314Y0327419D01*
X0053202Y0327307D01*
X0053088Y0327198D01*
X0052972Y0327092D01*
X0052852Y0326989D01*
X0052731Y0326889D01*
X0052606Y0326792D01*
X0052479Y0326698D01*
X0052350Y0326607D01*
X0052219Y0326520D01*
X0052086Y0326436D01*
X0051950Y0326355D01*
X0051812Y0326278D01*
X0051673Y0326205D01*
X0051532Y0326135D01*
X0051389Y0326068D01*
X0051244Y0326005D01*
X0051098Y0325946D01*
X0050950Y0325890D01*
X0050801Y0325839D01*
X0050651Y0325791D01*
X0050500Y0325747D01*
X0050347Y0325706D01*
X0050194Y0325670D01*
X0050039Y0325637D01*
X0049884Y0325608D01*
X0049729Y0325584D01*
X0049572Y0325563D01*
X0049416Y0325546D01*
X0049258Y0325533D01*
X0049101Y0325524D01*
X0048943Y0325519D01*
X0048786Y0325518D01*
X0048628Y0325521D01*
X0048470Y0325528D01*
X0048313Y0325539D01*
X0048156Y0325554D01*
X0047999Y0325573D01*
X0047843Y0325596D01*
X0047688Y0325622D01*
X0047533Y0325653D01*
X0047379Y0325687D01*
X0047226Y0325726D01*
X0047074Y0325768D01*
X0046924Y0325814D01*
X0046774Y0325864D01*
X0046626Y0325918D01*
X0046479Y0325975D01*
X0046333Y0326036D01*
X0046190Y0326101D01*
X0046047Y0326169D01*
X0045907Y0326241D01*
X0045769Y0326316D01*
X0045632Y0326395D01*
X0045497Y0326477D01*
X0045365Y0326563D01*
X0045235Y0326652D01*
X0045107Y0326744D01*
X0044981Y0326840D01*
X0044858Y0326938D01*
X0044738Y0327040D01*
X0044620Y0327145D01*
X0044504Y0327252D01*
X0044392Y0327363D01*
X0044282Y0327476D01*
X0044175Y0327592D01*
X0044071Y0327710D01*
X0043970Y0327832D01*
X0043873Y0327955D01*
X0043778Y0328082D01*
X0043687Y0328210D01*
X0043598Y0328341D01*
X0043514Y0328474D01*
X0043432Y0328609D01*
X0043354Y0328746D01*
X0043280Y0328885D01*
X0043209Y0329026D01*
X0043141Y0329168D01*
X0043078Y0329313D01*
X0043017Y0329458D01*
X0042961Y0329606D01*
X0042908Y0329754D01*
X0042859Y0329904D01*
X0042814Y0330055D01*
X0042773Y0330208D01*
X0042735Y0330361D01*
X0042702Y0330515D01*
X0042672Y0330670D01*
X0042646Y0330825D01*
X0042625Y0330982D01*
X0042607Y0331138D01*
X0042593Y0331295D01*
X0042583Y0331453D01*
X0042577Y0331610D01*
X0042575Y0331768D01*
X0333913Y0331768D02*
X0333915Y0331926D01*
X0333921Y0332083D01*
X0333931Y0332241D01*
X0333945Y0332398D01*
X0333963Y0332554D01*
X0333984Y0332711D01*
X0334010Y0332866D01*
X0334040Y0333021D01*
X0334073Y0333175D01*
X0334111Y0333328D01*
X0334152Y0333481D01*
X0334197Y0333632D01*
X0334246Y0333782D01*
X0334299Y0333930D01*
X0334355Y0334078D01*
X0334416Y0334223D01*
X0334479Y0334368D01*
X0334547Y0334510D01*
X0334618Y0334651D01*
X0334692Y0334790D01*
X0334770Y0334927D01*
X0334852Y0335062D01*
X0334936Y0335195D01*
X0335025Y0335326D01*
X0335116Y0335454D01*
X0335211Y0335581D01*
X0335308Y0335704D01*
X0335409Y0335826D01*
X0335513Y0335944D01*
X0335620Y0336060D01*
X0335730Y0336173D01*
X0335842Y0336284D01*
X0335958Y0336391D01*
X0336076Y0336496D01*
X0336196Y0336598D01*
X0336319Y0336696D01*
X0336445Y0336792D01*
X0336573Y0336884D01*
X0336703Y0336973D01*
X0336835Y0337059D01*
X0336970Y0337141D01*
X0337107Y0337220D01*
X0337245Y0337295D01*
X0337385Y0337367D01*
X0337528Y0337435D01*
X0337671Y0337500D01*
X0337817Y0337561D01*
X0337964Y0337618D01*
X0338112Y0337672D01*
X0338262Y0337722D01*
X0338412Y0337768D01*
X0338564Y0337810D01*
X0338717Y0337849D01*
X0338871Y0337883D01*
X0339026Y0337914D01*
X0339181Y0337940D01*
X0339337Y0337963D01*
X0339494Y0337982D01*
X0339651Y0337997D01*
X0339808Y0338008D01*
X0339966Y0338015D01*
X0340124Y0338018D01*
X0340281Y0338017D01*
X0340439Y0338012D01*
X0340596Y0338003D01*
X0340754Y0337990D01*
X0340910Y0337973D01*
X0341067Y0337952D01*
X0341222Y0337928D01*
X0341377Y0337899D01*
X0341532Y0337866D01*
X0341685Y0337830D01*
X0341838Y0337789D01*
X0341989Y0337745D01*
X0342139Y0337697D01*
X0342288Y0337646D01*
X0342436Y0337590D01*
X0342582Y0337531D01*
X0342727Y0337468D01*
X0342870Y0337401D01*
X0343011Y0337331D01*
X0343150Y0337258D01*
X0343288Y0337181D01*
X0343424Y0337100D01*
X0343557Y0337016D01*
X0343688Y0336929D01*
X0343817Y0336838D01*
X0343944Y0336744D01*
X0344069Y0336647D01*
X0344190Y0336547D01*
X0344310Y0336444D01*
X0344426Y0336338D01*
X0344540Y0336229D01*
X0344652Y0336117D01*
X0344760Y0336003D01*
X0344865Y0335885D01*
X0344968Y0335765D01*
X0345067Y0335643D01*
X0345163Y0335518D01*
X0345256Y0335390D01*
X0345346Y0335261D01*
X0345432Y0335129D01*
X0345516Y0334995D01*
X0345595Y0334859D01*
X0345672Y0334721D01*
X0345744Y0334581D01*
X0345813Y0334439D01*
X0345879Y0334296D01*
X0345941Y0334151D01*
X0345999Y0334004D01*
X0346054Y0333856D01*
X0346105Y0333707D01*
X0346152Y0333556D01*
X0346195Y0333405D01*
X0346234Y0333252D01*
X0346270Y0333098D01*
X0346301Y0332944D01*
X0346329Y0332789D01*
X0346353Y0332633D01*
X0346373Y0332476D01*
X0346389Y0332319D01*
X0346401Y0332162D01*
X0346409Y0332005D01*
X0346413Y0331847D01*
X0346413Y0331689D01*
X0346409Y0331531D01*
X0346401Y0331374D01*
X0346389Y0331217D01*
X0346373Y0331060D01*
X0346353Y0330903D01*
X0346329Y0330747D01*
X0346301Y0330592D01*
X0346270Y0330438D01*
X0346234Y0330284D01*
X0346195Y0330131D01*
X0346152Y0329980D01*
X0346105Y0329829D01*
X0346054Y0329680D01*
X0345999Y0329532D01*
X0345941Y0329385D01*
X0345879Y0329240D01*
X0345813Y0329097D01*
X0345744Y0328955D01*
X0345672Y0328815D01*
X0345595Y0328677D01*
X0345516Y0328541D01*
X0345432Y0328407D01*
X0345346Y0328275D01*
X0345256Y0328146D01*
X0345163Y0328018D01*
X0345067Y0327893D01*
X0344968Y0327771D01*
X0344865Y0327651D01*
X0344760Y0327533D01*
X0344652Y0327419D01*
X0344540Y0327307D01*
X0344426Y0327198D01*
X0344310Y0327092D01*
X0344190Y0326989D01*
X0344069Y0326889D01*
X0343944Y0326792D01*
X0343817Y0326698D01*
X0343688Y0326607D01*
X0343557Y0326520D01*
X0343424Y0326436D01*
X0343288Y0326355D01*
X0343150Y0326278D01*
X0343011Y0326205D01*
X0342870Y0326135D01*
X0342727Y0326068D01*
X0342582Y0326005D01*
X0342436Y0325946D01*
X0342288Y0325890D01*
X0342139Y0325839D01*
X0341989Y0325791D01*
X0341838Y0325747D01*
X0341685Y0325706D01*
X0341532Y0325670D01*
X0341377Y0325637D01*
X0341222Y0325608D01*
X0341067Y0325584D01*
X0340910Y0325563D01*
X0340754Y0325546D01*
X0340596Y0325533D01*
X0340439Y0325524D01*
X0340281Y0325519D01*
X0340124Y0325518D01*
X0339966Y0325521D01*
X0339808Y0325528D01*
X0339651Y0325539D01*
X0339494Y0325554D01*
X0339337Y0325573D01*
X0339181Y0325596D01*
X0339026Y0325622D01*
X0338871Y0325653D01*
X0338717Y0325687D01*
X0338564Y0325726D01*
X0338412Y0325768D01*
X0338262Y0325814D01*
X0338112Y0325864D01*
X0337964Y0325918D01*
X0337817Y0325975D01*
X0337671Y0326036D01*
X0337528Y0326101D01*
X0337385Y0326169D01*
X0337245Y0326241D01*
X0337107Y0326316D01*
X0336970Y0326395D01*
X0336835Y0326477D01*
X0336703Y0326563D01*
X0336573Y0326652D01*
X0336445Y0326744D01*
X0336319Y0326840D01*
X0336196Y0326938D01*
X0336076Y0327040D01*
X0335958Y0327145D01*
X0335842Y0327252D01*
X0335730Y0327363D01*
X0335620Y0327476D01*
X0335513Y0327592D01*
X0335409Y0327710D01*
X0335308Y0327832D01*
X0335211Y0327955D01*
X0335116Y0328082D01*
X0335025Y0328210D01*
X0334936Y0328341D01*
X0334852Y0328474D01*
X0334770Y0328609D01*
X0334692Y0328746D01*
X0334618Y0328885D01*
X0334547Y0329026D01*
X0334479Y0329168D01*
X0334416Y0329313D01*
X0334355Y0329458D01*
X0334299Y0329606D01*
X0334246Y0329754D01*
X0334197Y0329904D01*
X0334152Y0330055D01*
X0334111Y0330208D01*
X0334073Y0330361D01*
X0334040Y0330515D01*
X0334010Y0330670D01*
X0333984Y0330825D01*
X0333963Y0330982D01*
X0333945Y0331138D01*
X0333931Y0331295D01*
X0333921Y0331453D01*
X0333915Y0331610D01*
X0333913Y0331768D01*
X0333913Y0158539D02*
X0333915Y0158697D01*
X0333921Y0158854D01*
X0333931Y0159012D01*
X0333945Y0159169D01*
X0333963Y0159325D01*
X0333984Y0159482D01*
X0334010Y0159637D01*
X0334040Y0159792D01*
X0334073Y0159946D01*
X0334111Y0160099D01*
X0334152Y0160252D01*
X0334197Y0160403D01*
X0334246Y0160553D01*
X0334299Y0160701D01*
X0334355Y0160849D01*
X0334416Y0160994D01*
X0334479Y0161139D01*
X0334547Y0161281D01*
X0334618Y0161422D01*
X0334692Y0161561D01*
X0334770Y0161698D01*
X0334852Y0161833D01*
X0334936Y0161966D01*
X0335025Y0162097D01*
X0335116Y0162225D01*
X0335211Y0162352D01*
X0335308Y0162475D01*
X0335409Y0162597D01*
X0335513Y0162715D01*
X0335620Y0162831D01*
X0335730Y0162944D01*
X0335842Y0163055D01*
X0335958Y0163162D01*
X0336076Y0163267D01*
X0336196Y0163369D01*
X0336319Y0163467D01*
X0336445Y0163563D01*
X0336573Y0163655D01*
X0336703Y0163744D01*
X0336835Y0163830D01*
X0336970Y0163912D01*
X0337107Y0163991D01*
X0337245Y0164066D01*
X0337385Y0164138D01*
X0337528Y0164206D01*
X0337671Y0164271D01*
X0337817Y0164332D01*
X0337964Y0164389D01*
X0338112Y0164443D01*
X0338262Y0164493D01*
X0338412Y0164539D01*
X0338564Y0164581D01*
X0338717Y0164620D01*
X0338871Y0164654D01*
X0339026Y0164685D01*
X0339181Y0164711D01*
X0339337Y0164734D01*
X0339494Y0164753D01*
X0339651Y0164768D01*
X0339808Y0164779D01*
X0339966Y0164786D01*
X0340124Y0164789D01*
X0340281Y0164788D01*
X0340439Y0164783D01*
X0340596Y0164774D01*
X0340754Y0164761D01*
X0340910Y0164744D01*
X0341067Y0164723D01*
X0341222Y0164699D01*
X0341377Y0164670D01*
X0341532Y0164637D01*
X0341685Y0164601D01*
X0341838Y0164560D01*
X0341989Y0164516D01*
X0342139Y0164468D01*
X0342288Y0164417D01*
X0342436Y0164361D01*
X0342582Y0164302D01*
X0342727Y0164239D01*
X0342870Y0164172D01*
X0343011Y0164102D01*
X0343150Y0164029D01*
X0343288Y0163952D01*
X0343424Y0163871D01*
X0343557Y0163787D01*
X0343688Y0163700D01*
X0343817Y0163609D01*
X0343944Y0163515D01*
X0344069Y0163418D01*
X0344190Y0163318D01*
X0344310Y0163215D01*
X0344426Y0163109D01*
X0344540Y0163000D01*
X0344652Y0162888D01*
X0344760Y0162774D01*
X0344865Y0162656D01*
X0344968Y0162536D01*
X0345067Y0162414D01*
X0345163Y0162289D01*
X0345256Y0162161D01*
X0345346Y0162032D01*
X0345432Y0161900D01*
X0345516Y0161766D01*
X0345595Y0161630D01*
X0345672Y0161492D01*
X0345744Y0161352D01*
X0345813Y0161210D01*
X0345879Y0161067D01*
X0345941Y0160922D01*
X0345999Y0160775D01*
X0346054Y0160627D01*
X0346105Y0160478D01*
X0346152Y0160327D01*
X0346195Y0160176D01*
X0346234Y0160023D01*
X0346270Y0159869D01*
X0346301Y0159715D01*
X0346329Y0159560D01*
X0346353Y0159404D01*
X0346373Y0159247D01*
X0346389Y0159090D01*
X0346401Y0158933D01*
X0346409Y0158776D01*
X0346413Y0158618D01*
X0346413Y0158460D01*
X0346409Y0158302D01*
X0346401Y0158145D01*
X0346389Y0157988D01*
X0346373Y0157831D01*
X0346353Y0157674D01*
X0346329Y0157518D01*
X0346301Y0157363D01*
X0346270Y0157209D01*
X0346234Y0157055D01*
X0346195Y0156902D01*
X0346152Y0156751D01*
X0346105Y0156600D01*
X0346054Y0156451D01*
X0345999Y0156303D01*
X0345941Y0156156D01*
X0345879Y0156011D01*
X0345813Y0155868D01*
X0345744Y0155726D01*
X0345672Y0155586D01*
X0345595Y0155448D01*
X0345516Y0155312D01*
X0345432Y0155178D01*
X0345346Y0155046D01*
X0345256Y0154917D01*
X0345163Y0154789D01*
X0345067Y0154664D01*
X0344968Y0154542D01*
X0344865Y0154422D01*
X0344760Y0154304D01*
X0344652Y0154190D01*
X0344540Y0154078D01*
X0344426Y0153969D01*
X0344310Y0153863D01*
X0344190Y0153760D01*
X0344069Y0153660D01*
X0343944Y0153563D01*
X0343817Y0153469D01*
X0343688Y0153378D01*
X0343557Y0153291D01*
X0343424Y0153207D01*
X0343288Y0153126D01*
X0343150Y0153049D01*
X0343011Y0152976D01*
X0342870Y0152906D01*
X0342727Y0152839D01*
X0342582Y0152776D01*
X0342436Y0152717D01*
X0342288Y0152661D01*
X0342139Y0152610D01*
X0341989Y0152562D01*
X0341838Y0152518D01*
X0341685Y0152477D01*
X0341532Y0152441D01*
X0341377Y0152408D01*
X0341222Y0152379D01*
X0341067Y0152355D01*
X0340910Y0152334D01*
X0340754Y0152317D01*
X0340596Y0152304D01*
X0340439Y0152295D01*
X0340281Y0152290D01*
X0340124Y0152289D01*
X0339966Y0152292D01*
X0339808Y0152299D01*
X0339651Y0152310D01*
X0339494Y0152325D01*
X0339337Y0152344D01*
X0339181Y0152367D01*
X0339026Y0152393D01*
X0338871Y0152424D01*
X0338717Y0152458D01*
X0338564Y0152497D01*
X0338412Y0152539D01*
X0338262Y0152585D01*
X0338112Y0152635D01*
X0337964Y0152689D01*
X0337817Y0152746D01*
X0337671Y0152807D01*
X0337528Y0152872D01*
X0337385Y0152940D01*
X0337245Y0153012D01*
X0337107Y0153087D01*
X0336970Y0153166D01*
X0336835Y0153248D01*
X0336703Y0153334D01*
X0336573Y0153423D01*
X0336445Y0153515D01*
X0336319Y0153611D01*
X0336196Y0153709D01*
X0336076Y0153811D01*
X0335958Y0153916D01*
X0335842Y0154023D01*
X0335730Y0154134D01*
X0335620Y0154247D01*
X0335513Y0154363D01*
X0335409Y0154481D01*
X0335308Y0154603D01*
X0335211Y0154726D01*
X0335116Y0154853D01*
X0335025Y0154981D01*
X0334936Y0155112D01*
X0334852Y0155245D01*
X0334770Y0155380D01*
X0334692Y0155517D01*
X0334618Y0155656D01*
X0334547Y0155797D01*
X0334479Y0155939D01*
X0334416Y0156084D01*
X0334355Y0156229D01*
X0334299Y0156377D01*
X0334246Y0156525D01*
X0334197Y0156675D01*
X0334152Y0156826D01*
X0334111Y0156979D01*
X0334073Y0157132D01*
X0334040Y0157286D01*
X0334010Y0157441D01*
X0333984Y0157596D01*
X0333963Y0157753D01*
X0333945Y0157909D01*
X0333931Y0158066D01*
X0333921Y0158224D01*
X0333915Y0158381D01*
X0333913Y0158539D01*
D11*
X0312014Y0304209D02*
X0312014Y0311295D01*
X0312012Y0311378D01*
X0312006Y0311461D01*
X0311996Y0311543D01*
X0311983Y0311625D01*
X0311966Y0311707D01*
X0311944Y0311787D01*
X0311919Y0311866D01*
X0311891Y0311944D01*
X0311859Y0312021D01*
X0311823Y0312096D01*
X0311783Y0312169D01*
X0311741Y0312240D01*
X0311695Y0312309D01*
X0311646Y0312376D01*
X0311593Y0312441D01*
X0311538Y0312503D01*
X0311480Y0312563D01*
X0311419Y0312619D01*
X0311356Y0312673D01*
X0311290Y0312724D01*
X0311222Y0312771D01*
X0311152Y0312816D01*
X0311080Y0312857D01*
X0311005Y0312894D01*
X0310930Y0312928D01*
X0310852Y0312959D01*
X0310774Y0312985D01*
X0310694Y0313008D01*
X0310613Y0313028D01*
X0310532Y0313043D01*
X0310449Y0313055D01*
X0310367Y0313063D01*
X0310284Y0313067D01*
X0310200Y0313067D01*
X0310117Y0313063D01*
X0310035Y0313055D01*
X0309952Y0313043D01*
X0309871Y0313028D01*
X0309790Y0313008D01*
X0309710Y0312985D01*
X0309632Y0312959D01*
X0309554Y0312928D01*
X0309479Y0312894D01*
X0309404Y0312857D01*
X0309332Y0312816D01*
X0309262Y0312771D01*
X0309194Y0312724D01*
X0309128Y0312673D01*
X0309065Y0312619D01*
X0309004Y0312563D01*
X0308946Y0312503D01*
X0308891Y0312441D01*
X0308838Y0312376D01*
X0308789Y0312309D01*
X0308743Y0312240D01*
X0308701Y0312169D01*
X0308661Y0312096D01*
X0308625Y0312021D01*
X0308593Y0311944D01*
X0308565Y0311866D01*
X0308540Y0311787D01*
X0308518Y0311707D01*
X0308501Y0311625D01*
X0308488Y0311543D01*
X0308478Y0311461D01*
X0308472Y0311378D01*
X0308470Y0311295D01*
X0308470Y0304209D01*
X0308472Y0304126D01*
X0308478Y0304043D01*
X0308488Y0303961D01*
X0308501Y0303879D01*
X0308518Y0303797D01*
X0308540Y0303717D01*
X0308565Y0303638D01*
X0308593Y0303560D01*
X0308625Y0303483D01*
X0308661Y0303408D01*
X0308701Y0303335D01*
X0308743Y0303264D01*
X0308789Y0303195D01*
X0308838Y0303128D01*
X0308891Y0303063D01*
X0308946Y0303001D01*
X0309004Y0302941D01*
X0309065Y0302885D01*
X0309128Y0302831D01*
X0309194Y0302780D01*
X0309262Y0302733D01*
X0309332Y0302688D01*
X0309404Y0302647D01*
X0309479Y0302610D01*
X0309554Y0302576D01*
X0309632Y0302545D01*
X0309710Y0302519D01*
X0309790Y0302496D01*
X0309871Y0302476D01*
X0309952Y0302461D01*
X0310035Y0302449D01*
X0310117Y0302441D01*
X0310200Y0302437D01*
X0310284Y0302437D01*
X0310367Y0302441D01*
X0310449Y0302449D01*
X0310532Y0302461D01*
X0310613Y0302476D01*
X0310694Y0302496D01*
X0310774Y0302519D01*
X0310852Y0302545D01*
X0310930Y0302576D01*
X0311005Y0302610D01*
X0311080Y0302647D01*
X0311152Y0302688D01*
X0311222Y0302733D01*
X0311290Y0302780D01*
X0311356Y0302831D01*
X0311419Y0302885D01*
X0311480Y0302941D01*
X0311538Y0303001D01*
X0311593Y0303063D01*
X0311646Y0303128D01*
X0311695Y0303195D01*
X0311741Y0303264D01*
X0311783Y0303335D01*
X0311823Y0303408D01*
X0311859Y0303483D01*
X0311891Y0303560D01*
X0311919Y0303638D01*
X0311944Y0303717D01*
X0311966Y0303797D01*
X0311983Y0303879D01*
X0311996Y0303961D01*
X0312006Y0304043D01*
X0312012Y0304126D01*
X0312014Y0304209D01*
X0312014Y0329642D02*
X0312014Y0332791D01*
X0312012Y0332874D01*
X0312006Y0332957D01*
X0311996Y0333039D01*
X0311983Y0333121D01*
X0311966Y0333203D01*
X0311944Y0333283D01*
X0311919Y0333362D01*
X0311891Y0333440D01*
X0311859Y0333517D01*
X0311823Y0333592D01*
X0311783Y0333665D01*
X0311741Y0333736D01*
X0311695Y0333805D01*
X0311646Y0333872D01*
X0311593Y0333937D01*
X0311538Y0333999D01*
X0311480Y0334059D01*
X0311419Y0334115D01*
X0311356Y0334169D01*
X0311290Y0334220D01*
X0311222Y0334267D01*
X0311152Y0334312D01*
X0311080Y0334353D01*
X0311005Y0334390D01*
X0310930Y0334424D01*
X0310852Y0334455D01*
X0310774Y0334481D01*
X0310694Y0334504D01*
X0310613Y0334524D01*
X0310532Y0334539D01*
X0310449Y0334551D01*
X0310367Y0334559D01*
X0310284Y0334563D01*
X0310200Y0334563D01*
X0310117Y0334559D01*
X0310035Y0334551D01*
X0309952Y0334539D01*
X0309871Y0334524D01*
X0309790Y0334504D01*
X0309710Y0334481D01*
X0309632Y0334455D01*
X0309554Y0334424D01*
X0309479Y0334390D01*
X0309404Y0334353D01*
X0309332Y0334312D01*
X0309262Y0334267D01*
X0309194Y0334220D01*
X0309128Y0334169D01*
X0309065Y0334115D01*
X0309004Y0334059D01*
X0308946Y0333999D01*
X0308891Y0333937D01*
X0308838Y0333872D01*
X0308789Y0333805D01*
X0308743Y0333736D01*
X0308701Y0333665D01*
X0308661Y0333592D01*
X0308625Y0333517D01*
X0308593Y0333440D01*
X0308565Y0333362D01*
X0308540Y0333283D01*
X0308518Y0333203D01*
X0308501Y0333121D01*
X0308488Y0333039D01*
X0308478Y0332957D01*
X0308472Y0332874D01*
X0308470Y0332791D01*
X0308470Y0329642D01*
X0308472Y0329559D01*
X0308478Y0329476D01*
X0308488Y0329394D01*
X0308501Y0329312D01*
X0308518Y0329230D01*
X0308540Y0329150D01*
X0308565Y0329071D01*
X0308593Y0328993D01*
X0308625Y0328916D01*
X0308661Y0328841D01*
X0308701Y0328768D01*
X0308743Y0328697D01*
X0308789Y0328628D01*
X0308838Y0328561D01*
X0308891Y0328496D01*
X0308946Y0328434D01*
X0309004Y0328374D01*
X0309065Y0328318D01*
X0309128Y0328264D01*
X0309194Y0328213D01*
X0309262Y0328166D01*
X0309332Y0328121D01*
X0309404Y0328080D01*
X0309479Y0328043D01*
X0309554Y0328009D01*
X0309632Y0327978D01*
X0309710Y0327952D01*
X0309790Y0327929D01*
X0309871Y0327909D01*
X0309952Y0327894D01*
X0310035Y0327882D01*
X0310117Y0327874D01*
X0310200Y0327870D01*
X0310284Y0327870D01*
X0310367Y0327874D01*
X0310449Y0327882D01*
X0310532Y0327894D01*
X0310613Y0327909D01*
X0310694Y0327929D01*
X0310774Y0327952D01*
X0310852Y0327978D01*
X0310930Y0328009D01*
X0311005Y0328043D01*
X0311080Y0328080D01*
X0311152Y0328121D01*
X0311222Y0328166D01*
X0311290Y0328213D01*
X0311356Y0328264D01*
X0311419Y0328318D01*
X0311480Y0328374D01*
X0311538Y0328434D01*
X0311593Y0328496D01*
X0311646Y0328561D01*
X0311695Y0328628D01*
X0311741Y0328697D01*
X0311783Y0328768D01*
X0311823Y0328841D01*
X0311859Y0328916D01*
X0311891Y0328993D01*
X0311919Y0329071D01*
X0311944Y0329150D01*
X0311966Y0329230D01*
X0311983Y0329312D01*
X0311996Y0329394D01*
X0312006Y0329476D01*
X0312012Y0329559D01*
X0312014Y0329642D01*
X0254927Y0329642D02*
X0254927Y0332791D01*
X0254925Y0332874D01*
X0254919Y0332957D01*
X0254909Y0333039D01*
X0254896Y0333121D01*
X0254879Y0333203D01*
X0254857Y0333283D01*
X0254832Y0333362D01*
X0254804Y0333440D01*
X0254772Y0333517D01*
X0254736Y0333592D01*
X0254696Y0333665D01*
X0254654Y0333736D01*
X0254608Y0333805D01*
X0254559Y0333872D01*
X0254506Y0333937D01*
X0254451Y0333999D01*
X0254393Y0334059D01*
X0254332Y0334115D01*
X0254269Y0334169D01*
X0254203Y0334220D01*
X0254135Y0334267D01*
X0254065Y0334312D01*
X0253993Y0334353D01*
X0253918Y0334390D01*
X0253843Y0334424D01*
X0253765Y0334455D01*
X0253687Y0334481D01*
X0253607Y0334504D01*
X0253526Y0334524D01*
X0253445Y0334539D01*
X0253362Y0334551D01*
X0253280Y0334559D01*
X0253197Y0334563D01*
X0253113Y0334563D01*
X0253030Y0334559D01*
X0252948Y0334551D01*
X0252865Y0334539D01*
X0252784Y0334524D01*
X0252703Y0334504D01*
X0252623Y0334481D01*
X0252545Y0334455D01*
X0252467Y0334424D01*
X0252392Y0334390D01*
X0252317Y0334353D01*
X0252245Y0334312D01*
X0252175Y0334267D01*
X0252107Y0334220D01*
X0252041Y0334169D01*
X0251978Y0334115D01*
X0251917Y0334059D01*
X0251859Y0333999D01*
X0251804Y0333937D01*
X0251751Y0333872D01*
X0251702Y0333805D01*
X0251656Y0333736D01*
X0251614Y0333665D01*
X0251574Y0333592D01*
X0251538Y0333517D01*
X0251506Y0333440D01*
X0251478Y0333362D01*
X0251453Y0333283D01*
X0251431Y0333203D01*
X0251414Y0333121D01*
X0251401Y0333039D01*
X0251391Y0332957D01*
X0251385Y0332874D01*
X0251383Y0332791D01*
X0251384Y0332791D02*
X0251384Y0329642D01*
X0251383Y0329642D02*
X0251385Y0329559D01*
X0251391Y0329476D01*
X0251401Y0329394D01*
X0251414Y0329312D01*
X0251431Y0329230D01*
X0251453Y0329150D01*
X0251478Y0329071D01*
X0251506Y0328993D01*
X0251538Y0328916D01*
X0251574Y0328841D01*
X0251614Y0328768D01*
X0251656Y0328697D01*
X0251702Y0328628D01*
X0251751Y0328561D01*
X0251804Y0328496D01*
X0251859Y0328434D01*
X0251917Y0328374D01*
X0251978Y0328318D01*
X0252041Y0328264D01*
X0252107Y0328213D01*
X0252175Y0328166D01*
X0252245Y0328121D01*
X0252317Y0328080D01*
X0252392Y0328043D01*
X0252467Y0328009D01*
X0252545Y0327978D01*
X0252623Y0327952D01*
X0252703Y0327929D01*
X0252784Y0327909D01*
X0252865Y0327894D01*
X0252948Y0327882D01*
X0253030Y0327874D01*
X0253113Y0327870D01*
X0253197Y0327870D01*
X0253280Y0327874D01*
X0253362Y0327882D01*
X0253445Y0327894D01*
X0253526Y0327909D01*
X0253607Y0327929D01*
X0253687Y0327952D01*
X0253765Y0327978D01*
X0253843Y0328009D01*
X0253918Y0328043D01*
X0253993Y0328080D01*
X0254065Y0328121D01*
X0254135Y0328166D01*
X0254203Y0328213D01*
X0254269Y0328264D01*
X0254332Y0328318D01*
X0254393Y0328374D01*
X0254451Y0328434D01*
X0254506Y0328496D01*
X0254559Y0328561D01*
X0254608Y0328628D01*
X0254654Y0328697D01*
X0254696Y0328768D01*
X0254736Y0328841D01*
X0254772Y0328916D01*
X0254804Y0328993D01*
X0254832Y0329071D01*
X0254857Y0329150D01*
X0254879Y0329230D01*
X0254896Y0329312D01*
X0254909Y0329394D01*
X0254919Y0329476D01*
X0254925Y0329559D01*
X0254927Y0329642D01*
X0254927Y0311295D02*
X0254927Y0304209D01*
X0254925Y0304126D01*
X0254919Y0304043D01*
X0254909Y0303961D01*
X0254896Y0303879D01*
X0254879Y0303797D01*
X0254857Y0303717D01*
X0254832Y0303638D01*
X0254804Y0303560D01*
X0254772Y0303483D01*
X0254736Y0303408D01*
X0254696Y0303335D01*
X0254654Y0303264D01*
X0254608Y0303195D01*
X0254559Y0303128D01*
X0254506Y0303063D01*
X0254451Y0303001D01*
X0254393Y0302941D01*
X0254332Y0302885D01*
X0254269Y0302831D01*
X0254203Y0302780D01*
X0254135Y0302733D01*
X0254065Y0302688D01*
X0253993Y0302647D01*
X0253918Y0302610D01*
X0253843Y0302576D01*
X0253765Y0302545D01*
X0253687Y0302519D01*
X0253607Y0302496D01*
X0253526Y0302476D01*
X0253445Y0302461D01*
X0253362Y0302449D01*
X0253280Y0302441D01*
X0253197Y0302437D01*
X0253113Y0302437D01*
X0253030Y0302441D01*
X0252948Y0302449D01*
X0252865Y0302461D01*
X0252784Y0302476D01*
X0252703Y0302496D01*
X0252623Y0302519D01*
X0252545Y0302545D01*
X0252467Y0302576D01*
X0252392Y0302610D01*
X0252317Y0302647D01*
X0252245Y0302688D01*
X0252175Y0302733D01*
X0252107Y0302780D01*
X0252041Y0302831D01*
X0251978Y0302885D01*
X0251917Y0302941D01*
X0251859Y0303001D01*
X0251804Y0303063D01*
X0251751Y0303128D01*
X0251702Y0303195D01*
X0251656Y0303264D01*
X0251614Y0303335D01*
X0251574Y0303408D01*
X0251538Y0303483D01*
X0251506Y0303560D01*
X0251478Y0303638D01*
X0251453Y0303717D01*
X0251431Y0303797D01*
X0251414Y0303879D01*
X0251401Y0303961D01*
X0251391Y0304043D01*
X0251385Y0304126D01*
X0251383Y0304209D01*
X0251384Y0304209D02*
X0251384Y0311295D01*
X0251383Y0311295D02*
X0251385Y0311378D01*
X0251391Y0311461D01*
X0251401Y0311543D01*
X0251414Y0311625D01*
X0251431Y0311707D01*
X0251453Y0311787D01*
X0251478Y0311866D01*
X0251506Y0311944D01*
X0251538Y0312021D01*
X0251574Y0312096D01*
X0251614Y0312169D01*
X0251656Y0312240D01*
X0251702Y0312309D01*
X0251751Y0312376D01*
X0251804Y0312441D01*
X0251859Y0312503D01*
X0251917Y0312563D01*
X0251978Y0312619D01*
X0252041Y0312673D01*
X0252107Y0312724D01*
X0252175Y0312771D01*
X0252245Y0312816D01*
X0252317Y0312857D01*
X0252392Y0312894D01*
X0252467Y0312928D01*
X0252545Y0312959D01*
X0252623Y0312985D01*
X0252703Y0313008D01*
X0252784Y0313028D01*
X0252865Y0313043D01*
X0252948Y0313055D01*
X0253030Y0313063D01*
X0253113Y0313067D01*
X0253197Y0313067D01*
X0253280Y0313063D01*
X0253362Y0313055D01*
X0253445Y0313043D01*
X0253526Y0313028D01*
X0253607Y0313008D01*
X0253687Y0312985D01*
X0253765Y0312959D01*
X0253843Y0312928D01*
X0253918Y0312894D01*
X0253993Y0312857D01*
X0254065Y0312816D01*
X0254135Y0312771D01*
X0254203Y0312724D01*
X0254269Y0312673D01*
X0254332Y0312619D01*
X0254393Y0312563D01*
X0254451Y0312503D01*
X0254506Y0312441D01*
X0254559Y0312376D01*
X0254608Y0312309D01*
X0254654Y0312240D01*
X0254696Y0312169D01*
X0254736Y0312096D01*
X0254772Y0312021D01*
X0254804Y0311944D01*
X0254832Y0311866D01*
X0254857Y0311787D01*
X0254879Y0311707D01*
X0254896Y0311625D01*
X0254909Y0311543D01*
X0254919Y0311461D01*
X0254925Y0311378D01*
X0254927Y0311295D01*
X0210833Y0311295D02*
X0210833Y0304209D01*
X0210831Y0304126D01*
X0210825Y0304043D01*
X0210815Y0303961D01*
X0210802Y0303879D01*
X0210785Y0303797D01*
X0210763Y0303717D01*
X0210738Y0303638D01*
X0210710Y0303560D01*
X0210678Y0303483D01*
X0210642Y0303408D01*
X0210602Y0303335D01*
X0210560Y0303264D01*
X0210514Y0303195D01*
X0210465Y0303128D01*
X0210412Y0303063D01*
X0210357Y0303001D01*
X0210299Y0302941D01*
X0210238Y0302885D01*
X0210175Y0302831D01*
X0210109Y0302780D01*
X0210041Y0302733D01*
X0209971Y0302688D01*
X0209899Y0302647D01*
X0209824Y0302610D01*
X0209749Y0302576D01*
X0209671Y0302545D01*
X0209593Y0302519D01*
X0209513Y0302496D01*
X0209432Y0302476D01*
X0209351Y0302461D01*
X0209268Y0302449D01*
X0209186Y0302441D01*
X0209103Y0302437D01*
X0209019Y0302437D01*
X0208936Y0302441D01*
X0208854Y0302449D01*
X0208771Y0302461D01*
X0208690Y0302476D01*
X0208609Y0302496D01*
X0208529Y0302519D01*
X0208451Y0302545D01*
X0208373Y0302576D01*
X0208298Y0302610D01*
X0208223Y0302647D01*
X0208151Y0302688D01*
X0208081Y0302733D01*
X0208013Y0302780D01*
X0207947Y0302831D01*
X0207884Y0302885D01*
X0207823Y0302941D01*
X0207765Y0303001D01*
X0207710Y0303063D01*
X0207657Y0303128D01*
X0207608Y0303195D01*
X0207562Y0303264D01*
X0207520Y0303335D01*
X0207480Y0303408D01*
X0207444Y0303483D01*
X0207412Y0303560D01*
X0207384Y0303638D01*
X0207359Y0303717D01*
X0207337Y0303797D01*
X0207320Y0303879D01*
X0207307Y0303961D01*
X0207297Y0304043D01*
X0207291Y0304126D01*
X0207289Y0304209D01*
X0207289Y0311295D01*
X0207291Y0311378D01*
X0207297Y0311461D01*
X0207307Y0311543D01*
X0207320Y0311625D01*
X0207337Y0311707D01*
X0207359Y0311787D01*
X0207384Y0311866D01*
X0207412Y0311944D01*
X0207444Y0312021D01*
X0207480Y0312096D01*
X0207520Y0312169D01*
X0207562Y0312240D01*
X0207608Y0312309D01*
X0207657Y0312376D01*
X0207710Y0312441D01*
X0207765Y0312503D01*
X0207823Y0312563D01*
X0207884Y0312619D01*
X0207947Y0312673D01*
X0208013Y0312724D01*
X0208081Y0312771D01*
X0208151Y0312816D01*
X0208223Y0312857D01*
X0208298Y0312894D01*
X0208373Y0312928D01*
X0208451Y0312959D01*
X0208529Y0312985D01*
X0208609Y0313008D01*
X0208690Y0313028D01*
X0208771Y0313043D01*
X0208854Y0313055D01*
X0208936Y0313063D01*
X0209019Y0313067D01*
X0209103Y0313067D01*
X0209186Y0313063D01*
X0209268Y0313055D01*
X0209351Y0313043D01*
X0209432Y0313028D01*
X0209513Y0313008D01*
X0209593Y0312985D01*
X0209671Y0312959D01*
X0209749Y0312928D01*
X0209824Y0312894D01*
X0209899Y0312857D01*
X0209971Y0312816D01*
X0210041Y0312771D01*
X0210109Y0312724D01*
X0210175Y0312673D01*
X0210238Y0312619D01*
X0210299Y0312563D01*
X0210357Y0312503D01*
X0210412Y0312441D01*
X0210465Y0312376D01*
X0210514Y0312309D01*
X0210560Y0312240D01*
X0210602Y0312169D01*
X0210642Y0312096D01*
X0210678Y0312021D01*
X0210710Y0311944D01*
X0210738Y0311866D01*
X0210763Y0311787D01*
X0210785Y0311707D01*
X0210802Y0311625D01*
X0210815Y0311543D01*
X0210825Y0311461D01*
X0210831Y0311378D01*
X0210833Y0311295D01*
X0210833Y0329642D02*
X0210833Y0332791D01*
X0210831Y0332874D01*
X0210825Y0332957D01*
X0210815Y0333039D01*
X0210802Y0333121D01*
X0210785Y0333203D01*
X0210763Y0333283D01*
X0210738Y0333362D01*
X0210710Y0333440D01*
X0210678Y0333517D01*
X0210642Y0333592D01*
X0210602Y0333665D01*
X0210560Y0333736D01*
X0210514Y0333805D01*
X0210465Y0333872D01*
X0210412Y0333937D01*
X0210357Y0333999D01*
X0210299Y0334059D01*
X0210238Y0334115D01*
X0210175Y0334169D01*
X0210109Y0334220D01*
X0210041Y0334267D01*
X0209971Y0334312D01*
X0209899Y0334353D01*
X0209824Y0334390D01*
X0209749Y0334424D01*
X0209671Y0334455D01*
X0209593Y0334481D01*
X0209513Y0334504D01*
X0209432Y0334524D01*
X0209351Y0334539D01*
X0209268Y0334551D01*
X0209186Y0334559D01*
X0209103Y0334563D01*
X0209019Y0334563D01*
X0208936Y0334559D01*
X0208854Y0334551D01*
X0208771Y0334539D01*
X0208690Y0334524D01*
X0208609Y0334504D01*
X0208529Y0334481D01*
X0208451Y0334455D01*
X0208373Y0334424D01*
X0208298Y0334390D01*
X0208223Y0334353D01*
X0208151Y0334312D01*
X0208081Y0334267D01*
X0208013Y0334220D01*
X0207947Y0334169D01*
X0207884Y0334115D01*
X0207823Y0334059D01*
X0207765Y0333999D01*
X0207710Y0333937D01*
X0207657Y0333872D01*
X0207608Y0333805D01*
X0207562Y0333736D01*
X0207520Y0333665D01*
X0207480Y0333592D01*
X0207444Y0333517D01*
X0207412Y0333440D01*
X0207384Y0333362D01*
X0207359Y0333283D01*
X0207337Y0333203D01*
X0207320Y0333121D01*
X0207307Y0333039D01*
X0207297Y0332957D01*
X0207291Y0332874D01*
X0207289Y0332791D01*
X0207289Y0329642D01*
X0207291Y0329559D01*
X0207297Y0329476D01*
X0207307Y0329394D01*
X0207320Y0329312D01*
X0207337Y0329230D01*
X0207359Y0329150D01*
X0207384Y0329071D01*
X0207412Y0328993D01*
X0207444Y0328916D01*
X0207480Y0328841D01*
X0207520Y0328768D01*
X0207562Y0328697D01*
X0207608Y0328628D01*
X0207657Y0328561D01*
X0207710Y0328496D01*
X0207765Y0328434D01*
X0207823Y0328374D01*
X0207884Y0328318D01*
X0207947Y0328264D01*
X0208013Y0328213D01*
X0208081Y0328166D01*
X0208151Y0328121D01*
X0208223Y0328080D01*
X0208298Y0328043D01*
X0208373Y0328009D01*
X0208451Y0327978D01*
X0208529Y0327952D01*
X0208609Y0327929D01*
X0208690Y0327909D01*
X0208771Y0327894D01*
X0208854Y0327882D01*
X0208936Y0327874D01*
X0209019Y0327870D01*
X0209103Y0327870D01*
X0209186Y0327874D01*
X0209268Y0327882D01*
X0209351Y0327894D01*
X0209432Y0327909D01*
X0209513Y0327929D01*
X0209593Y0327952D01*
X0209671Y0327978D01*
X0209749Y0328009D01*
X0209824Y0328043D01*
X0209899Y0328080D01*
X0209971Y0328121D01*
X0210041Y0328166D01*
X0210109Y0328213D01*
X0210175Y0328264D01*
X0210238Y0328318D01*
X0210299Y0328374D01*
X0210357Y0328434D01*
X0210412Y0328496D01*
X0210465Y0328561D01*
X0210514Y0328628D01*
X0210560Y0328697D01*
X0210602Y0328768D01*
X0210642Y0328841D01*
X0210678Y0328916D01*
X0210710Y0328993D01*
X0210738Y0329071D01*
X0210763Y0329150D01*
X0210785Y0329230D01*
X0210802Y0329312D01*
X0210815Y0329394D01*
X0210825Y0329476D01*
X0210831Y0329559D01*
X0210833Y0329642D01*
X0153746Y0329642D02*
X0153746Y0332791D01*
X0153744Y0332874D01*
X0153738Y0332957D01*
X0153728Y0333039D01*
X0153715Y0333121D01*
X0153698Y0333203D01*
X0153676Y0333283D01*
X0153651Y0333362D01*
X0153623Y0333440D01*
X0153591Y0333517D01*
X0153555Y0333592D01*
X0153515Y0333665D01*
X0153473Y0333736D01*
X0153427Y0333805D01*
X0153378Y0333872D01*
X0153325Y0333937D01*
X0153270Y0333999D01*
X0153212Y0334059D01*
X0153151Y0334115D01*
X0153088Y0334169D01*
X0153022Y0334220D01*
X0152954Y0334267D01*
X0152884Y0334312D01*
X0152812Y0334353D01*
X0152737Y0334390D01*
X0152662Y0334424D01*
X0152584Y0334455D01*
X0152506Y0334481D01*
X0152426Y0334504D01*
X0152345Y0334524D01*
X0152264Y0334539D01*
X0152181Y0334551D01*
X0152099Y0334559D01*
X0152016Y0334563D01*
X0151932Y0334563D01*
X0151849Y0334559D01*
X0151767Y0334551D01*
X0151684Y0334539D01*
X0151603Y0334524D01*
X0151522Y0334504D01*
X0151442Y0334481D01*
X0151364Y0334455D01*
X0151286Y0334424D01*
X0151211Y0334390D01*
X0151136Y0334353D01*
X0151064Y0334312D01*
X0150994Y0334267D01*
X0150926Y0334220D01*
X0150860Y0334169D01*
X0150797Y0334115D01*
X0150736Y0334059D01*
X0150678Y0333999D01*
X0150623Y0333937D01*
X0150570Y0333872D01*
X0150521Y0333805D01*
X0150475Y0333736D01*
X0150433Y0333665D01*
X0150393Y0333592D01*
X0150357Y0333517D01*
X0150325Y0333440D01*
X0150297Y0333362D01*
X0150272Y0333283D01*
X0150250Y0333203D01*
X0150233Y0333121D01*
X0150220Y0333039D01*
X0150210Y0332957D01*
X0150204Y0332874D01*
X0150202Y0332791D01*
X0150203Y0332791D02*
X0150203Y0329642D01*
X0150202Y0329642D02*
X0150204Y0329559D01*
X0150210Y0329476D01*
X0150220Y0329394D01*
X0150233Y0329312D01*
X0150250Y0329230D01*
X0150272Y0329150D01*
X0150297Y0329071D01*
X0150325Y0328993D01*
X0150357Y0328916D01*
X0150393Y0328841D01*
X0150433Y0328768D01*
X0150475Y0328697D01*
X0150521Y0328628D01*
X0150570Y0328561D01*
X0150623Y0328496D01*
X0150678Y0328434D01*
X0150736Y0328374D01*
X0150797Y0328318D01*
X0150860Y0328264D01*
X0150926Y0328213D01*
X0150994Y0328166D01*
X0151064Y0328121D01*
X0151136Y0328080D01*
X0151211Y0328043D01*
X0151286Y0328009D01*
X0151364Y0327978D01*
X0151442Y0327952D01*
X0151522Y0327929D01*
X0151603Y0327909D01*
X0151684Y0327894D01*
X0151767Y0327882D01*
X0151849Y0327874D01*
X0151932Y0327870D01*
X0152016Y0327870D01*
X0152099Y0327874D01*
X0152181Y0327882D01*
X0152264Y0327894D01*
X0152345Y0327909D01*
X0152426Y0327929D01*
X0152506Y0327952D01*
X0152584Y0327978D01*
X0152662Y0328009D01*
X0152737Y0328043D01*
X0152812Y0328080D01*
X0152884Y0328121D01*
X0152954Y0328166D01*
X0153022Y0328213D01*
X0153088Y0328264D01*
X0153151Y0328318D01*
X0153212Y0328374D01*
X0153270Y0328434D01*
X0153325Y0328496D01*
X0153378Y0328561D01*
X0153427Y0328628D01*
X0153473Y0328697D01*
X0153515Y0328768D01*
X0153555Y0328841D01*
X0153591Y0328916D01*
X0153623Y0328993D01*
X0153651Y0329071D01*
X0153676Y0329150D01*
X0153698Y0329230D01*
X0153715Y0329312D01*
X0153728Y0329394D01*
X0153738Y0329476D01*
X0153744Y0329559D01*
X0153746Y0329642D01*
X0153746Y0311295D02*
X0153746Y0304209D01*
X0153744Y0304126D01*
X0153738Y0304043D01*
X0153728Y0303961D01*
X0153715Y0303879D01*
X0153698Y0303797D01*
X0153676Y0303717D01*
X0153651Y0303638D01*
X0153623Y0303560D01*
X0153591Y0303483D01*
X0153555Y0303408D01*
X0153515Y0303335D01*
X0153473Y0303264D01*
X0153427Y0303195D01*
X0153378Y0303128D01*
X0153325Y0303063D01*
X0153270Y0303001D01*
X0153212Y0302941D01*
X0153151Y0302885D01*
X0153088Y0302831D01*
X0153022Y0302780D01*
X0152954Y0302733D01*
X0152884Y0302688D01*
X0152812Y0302647D01*
X0152737Y0302610D01*
X0152662Y0302576D01*
X0152584Y0302545D01*
X0152506Y0302519D01*
X0152426Y0302496D01*
X0152345Y0302476D01*
X0152264Y0302461D01*
X0152181Y0302449D01*
X0152099Y0302441D01*
X0152016Y0302437D01*
X0151932Y0302437D01*
X0151849Y0302441D01*
X0151767Y0302449D01*
X0151684Y0302461D01*
X0151603Y0302476D01*
X0151522Y0302496D01*
X0151442Y0302519D01*
X0151364Y0302545D01*
X0151286Y0302576D01*
X0151211Y0302610D01*
X0151136Y0302647D01*
X0151064Y0302688D01*
X0150994Y0302733D01*
X0150926Y0302780D01*
X0150860Y0302831D01*
X0150797Y0302885D01*
X0150736Y0302941D01*
X0150678Y0303001D01*
X0150623Y0303063D01*
X0150570Y0303128D01*
X0150521Y0303195D01*
X0150475Y0303264D01*
X0150433Y0303335D01*
X0150393Y0303408D01*
X0150357Y0303483D01*
X0150325Y0303560D01*
X0150297Y0303638D01*
X0150272Y0303717D01*
X0150250Y0303797D01*
X0150233Y0303879D01*
X0150220Y0303961D01*
X0150210Y0304043D01*
X0150204Y0304126D01*
X0150202Y0304209D01*
X0150203Y0304209D02*
X0150203Y0311295D01*
X0150202Y0311295D02*
X0150204Y0311378D01*
X0150210Y0311461D01*
X0150220Y0311543D01*
X0150233Y0311625D01*
X0150250Y0311707D01*
X0150272Y0311787D01*
X0150297Y0311866D01*
X0150325Y0311944D01*
X0150357Y0312021D01*
X0150393Y0312096D01*
X0150433Y0312169D01*
X0150475Y0312240D01*
X0150521Y0312309D01*
X0150570Y0312376D01*
X0150623Y0312441D01*
X0150678Y0312503D01*
X0150736Y0312563D01*
X0150797Y0312619D01*
X0150860Y0312673D01*
X0150926Y0312724D01*
X0150994Y0312771D01*
X0151064Y0312816D01*
X0151136Y0312857D01*
X0151211Y0312894D01*
X0151286Y0312928D01*
X0151364Y0312959D01*
X0151442Y0312985D01*
X0151522Y0313008D01*
X0151603Y0313028D01*
X0151684Y0313043D01*
X0151767Y0313055D01*
X0151849Y0313063D01*
X0151932Y0313067D01*
X0152016Y0313067D01*
X0152099Y0313063D01*
X0152181Y0313055D01*
X0152264Y0313043D01*
X0152345Y0313028D01*
X0152426Y0313008D01*
X0152506Y0312985D01*
X0152584Y0312959D01*
X0152662Y0312928D01*
X0152737Y0312894D01*
X0152812Y0312857D01*
X0152884Y0312816D01*
X0152954Y0312771D01*
X0153022Y0312724D01*
X0153088Y0312673D01*
X0153151Y0312619D01*
X0153212Y0312563D01*
X0153270Y0312503D01*
X0153325Y0312441D01*
X0153378Y0312376D01*
X0153427Y0312309D01*
X0153473Y0312240D01*
X0153515Y0312169D01*
X0153555Y0312096D01*
X0153591Y0312021D01*
X0153623Y0311944D01*
X0153651Y0311866D01*
X0153676Y0311787D01*
X0153698Y0311707D01*
X0153715Y0311625D01*
X0153728Y0311543D01*
X0153738Y0311461D01*
X0153744Y0311378D01*
X0153746Y0311295D01*
M02*
