%
M48
M72
T01C0.01500
T02C0.03543
T03C0.03937
T04C0.04000
T05C0.12500
%
T01
X314514Y169228
X302014Y179228
X289514Y166728
X293264Y155478
X274514Y176728
X257014Y166728
X243264Y155478
X232014Y174228
X219514Y189228
X187014Y199228
X178264Y200478
X172014Y201728
X154514Y199228
X154514Y204228
X154514Y209228
X144514Y215478
X139514Y216728
X139514Y209228
X140764Y199228
X140764Y190478
X130764Y190478
X124514Y196728
X119514Y204228
X114514Y214228
X109514Y214228
X114514Y229228
X114514Y234228
X119514Y234228
X124514Y231728
X129514Y234228
X137014Y231728
X144514Y224228
X149514Y221728
X154514Y229228
X174514Y224228
X180764Y222978
X182014Y240478
X187014Y249228
X164514Y249228
X159514Y261728
X144514Y269228
X132014Y261728
X114514Y259228
X107014Y274228
X94514Y286728
X84514Y289228
X69514Y281728
X57014Y289228
X44514Y286728
X57014Y306728
X62014Y321728
X72014Y326728
X64514Y336728
X42014Y316728
X93264Y310478
X114514Y306728
X132014Y304228
X117014Y294228
X144514Y284228
X149514Y321728
X142014Y329228
X124514Y324228
X117014Y324228
X119514Y334228
X164514Y331728
X177014Y331728
X177014Y319228
X164514Y319228
X193264Y317978
X197014Y316118
X202014Y316118
X202014Y321118
X202014Y326118
X202014Y336728
X207014Y296118
X219514Y251728
X234514Y236728
X242014Y240478
X247014Y229228
X233014Y216728
X219514Y229228
X214514Y219228
X254514Y206728
X267014Y191728
X254514Y181728
X279514Y206728
X294514Y219228
X307014Y231728
X314514Y226728
X312014Y211728
X302014Y199228
X314514Y191728
X339514Y179228
X329514Y219228
X329514Y246728
X334514Y246728
X324514Y256728
X312014Y256728
X324514Y269228
X332014Y281728
X342014Y271728
X347014Y296728
X329514Y299228
X332014Y311728
X322014Y321728
X304514Y318618
X297014Y316118
X297014Y323618
X292014Y326118
X302014Y331728
X289514Y339228
X322014Y336728
X347014Y319228
X309514Y289228
X300764Y279228
X304514Y276728
X309514Y271728
X294514Y285478
X286314Y281728
X274514Y272978
X284514Y269228
X288264Y262978
X265764Y254228
X259514Y254228
X269514Y285478
X267014Y221728
X187014Y171728
X182014Y160478
X177014Y161728
X169514Y169228
X153264Y180478
X149514Y180478
X145764Y180478
X142014Y180478
X138264Y180478
X134514Y180478
X130764Y180478
X127014Y180478
X123264Y180478
X119514Y180478
X115764Y180478
X112014Y180478
X108264Y180478
X104514Y180478
X78264Y192978
X89514Y206728
X69976Y214898
X65764Y216728
X66935Y229091
X66935Y234091
X71935Y234091
X71935Y229091
X71935Y239091
X71935Y244091
X71935Y249091
X71935Y254091
X66935Y249091
X61935Y249091
X56935Y249091
X57014Y244228
X61935Y244091
X66935Y244091
X66935Y239091
X61935Y239091
X56935Y239091
X51935Y239091
X51935Y244091
X51935Y249091
X46935Y249091
X41935Y249091
X41935Y254091
X41935Y259091
X41935Y244091
X46935Y244091
X46935Y239091
X41935Y239091
X41935Y234091
X46935Y234091
X46935Y229091
X41935Y229091
X42014Y219228
X44514Y194228
X42014Y181728
X89514Y219228
X89514Y229228
X102014Y244228
X71935Y259091
X199514Y161728
X187014Y154228
T02
X151974Y307752
X151974Y331217
X209061Y331217
X209061Y307752
X253155Y307752
X253155Y331217
X310242Y331217
X310242Y307752
T03
X107171Y294228
X126856Y294228
T04
X342014Y191728
X342014Y201728
X342014Y211728
X342014Y221728
X342014Y231728
X342014Y241728
X342014Y251728
X342014Y261728
X82014Y280154
X82014Y270154
X82014Y260154
X82014Y250154
X82014Y240154
X82014Y230154
X82014Y220154
X82014Y210154
T05
X48825Y158539
X48825Y331768
X340163Y331768
X340163Y158539
M30
