G75*
%MOIN*%
%OFA0B0*%
%FSLAX25Y25*%
%IPPOS*%
%LPD*%
%AMOC8*
5,1,8,0,0,1.08239X$1,22.5*
%
%ADD10C,0.00000*%
%ADD11R,0.08000X0.08000*%
%ADD12C,0.08000*%
%ADD13R,0.03500X0.06400*%
%ADD14R,0.12500X0.06400*%
%ADD15C,0.07400*%
%ADD16C,0.07000*%
%ADD17R,0.07400X0.07400*%
%ADD18R,0.05906X0.05118*%
%ADD19C,0.06500*%
%ADD20R,0.05000X0.02200*%
%ADD21R,0.02200X0.05000*%
%ADD22R,0.07087X0.06299*%
%ADD23OC8,0.07400*%
%ADD24R,0.05118X0.05906*%
%ADD25R,0.06299X0.07087*%
%ADD26OC8,0.05200*%
%ADD27OC8,0.06300*%
%ADD28C,0.06300*%
%ADD29C,0.06600*%
%ADD30OC8,0.06600*%
%ADD31C,0.01000*%
%ADD32C,0.02700*%
%ADD33C,0.02400*%
%ADD34C,0.01600*%
D10*
X0016748Y0029795D02*
X0221472Y0029795D01*
X0221853Y0029800D01*
X0222233Y0029813D01*
X0222613Y0029836D01*
X0222992Y0029869D01*
X0223370Y0029910D01*
X0223747Y0029960D01*
X0224123Y0030020D01*
X0224498Y0030088D01*
X0224870Y0030166D01*
X0225241Y0030253D01*
X0225609Y0030348D01*
X0225975Y0030453D01*
X0226338Y0030566D01*
X0226699Y0030688D01*
X0227056Y0030818D01*
X0227410Y0030958D01*
X0227761Y0031105D01*
X0228108Y0031262D01*
X0228451Y0031426D01*
X0228790Y0031599D01*
X0229125Y0031780D01*
X0229456Y0031969D01*
X0229781Y0032166D01*
X0230102Y0032370D01*
X0230418Y0032583D01*
X0230728Y0032803D01*
X0231034Y0033030D01*
X0231333Y0033265D01*
X0231627Y0033507D01*
X0231915Y0033755D01*
X0232197Y0034011D01*
X0232472Y0034274D01*
X0232741Y0034543D01*
X0233004Y0034818D01*
X0233260Y0035100D01*
X0233508Y0035388D01*
X0233750Y0035682D01*
X0233985Y0035981D01*
X0234212Y0036287D01*
X0234432Y0036597D01*
X0234645Y0036913D01*
X0234849Y0037234D01*
X0235046Y0037559D01*
X0235235Y0037890D01*
X0235416Y0038225D01*
X0235589Y0038564D01*
X0235753Y0038907D01*
X0235910Y0039254D01*
X0236057Y0039605D01*
X0236197Y0039959D01*
X0236327Y0040316D01*
X0236449Y0040677D01*
X0236562Y0041040D01*
X0236667Y0041406D01*
X0236762Y0041774D01*
X0236849Y0042145D01*
X0236927Y0042517D01*
X0236995Y0042892D01*
X0237055Y0043268D01*
X0237105Y0043645D01*
X0237146Y0044023D01*
X0237179Y0044402D01*
X0237202Y0044782D01*
X0237215Y0045162D01*
X0237220Y0045543D01*
X0237220Y0210897D01*
X0237215Y0211278D01*
X0237202Y0211658D01*
X0237179Y0212038D01*
X0237146Y0212417D01*
X0237105Y0212795D01*
X0237055Y0213172D01*
X0236995Y0213548D01*
X0236927Y0213923D01*
X0236849Y0214295D01*
X0236762Y0214666D01*
X0236667Y0215034D01*
X0236562Y0215400D01*
X0236449Y0215763D01*
X0236327Y0216124D01*
X0236197Y0216481D01*
X0236057Y0216835D01*
X0235910Y0217186D01*
X0235753Y0217533D01*
X0235589Y0217876D01*
X0235416Y0218215D01*
X0235235Y0218550D01*
X0235046Y0218881D01*
X0234849Y0219206D01*
X0234645Y0219527D01*
X0234432Y0219843D01*
X0234212Y0220153D01*
X0233985Y0220459D01*
X0233750Y0220758D01*
X0233508Y0221052D01*
X0233260Y0221340D01*
X0233004Y0221622D01*
X0232741Y0221897D01*
X0232472Y0222166D01*
X0232197Y0222429D01*
X0231915Y0222685D01*
X0231627Y0222933D01*
X0231333Y0223175D01*
X0231034Y0223410D01*
X0230728Y0223637D01*
X0230418Y0223857D01*
X0230102Y0224070D01*
X0229781Y0224274D01*
X0229456Y0224471D01*
X0229125Y0224660D01*
X0228790Y0224841D01*
X0228451Y0225014D01*
X0228108Y0225178D01*
X0227761Y0225335D01*
X0227410Y0225482D01*
X0227056Y0225622D01*
X0226699Y0225752D01*
X0226338Y0225874D01*
X0225975Y0225987D01*
X0225609Y0226092D01*
X0225241Y0226187D01*
X0224870Y0226274D01*
X0224498Y0226352D01*
X0224123Y0226420D01*
X0223747Y0226480D01*
X0223370Y0226530D01*
X0222992Y0226571D01*
X0222613Y0226604D01*
X0222233Y0226627D01*
X0221853Y0226640D01*
X0221472Y0226645D01*
X0016748Y0226645D01*
X0016367Y0226640D01*
X0015987Y0226627D01*
X0015607Y0226604D01*
X0015228Y0226571D01*
X0014850Y0226530D01*
X0014473Y0226480D01*
X0014097Y0226420D01*
X0013722Y0226352D01*
X0013350Y0226274D01*
X0012979Y0226187D01*
X0012611Y0226092D01*
X0012245Y0225987D01*
X0011882Y0225874D01*
X0011521Y0225752D01*
X0011164Y0225622D01*
X0010810Y0225482D01*
X0010459Y0225335D01*
X0010112Y0225178D01*
X0009769Y0225014D01*
X0009430Y0224841D01*
X0009095Y0224660D01*
X0008764Y0224471D01*
X0008439Y0224274D01*
X0008118Y0224070D01*
X0007802Y0223857D01*
X0007492Y0223637D01*
X0007186Y0223410D01*
X0006887Y0223175D01*
X0006593Y0222933D01*
X0006305Y0222685D01*
X0006023Y0222429D01*
X0005748Y0222166D01*
X0005479Y0221897D01*
X0005216Y0221622D01*
X0004960Y0221340D01*
X0004712Y0221052D01*
X0004470Y0220758D01*
X0004235Y0220459D01*
X0004008Y0220153D01*
X0003788Y0219843D01*
X0003575Y0219527D01*
X0003371Y0219206D01*
X0003174Y0218881D01*
X0002985Y0218550D01*
X0002804Y0218215D01*
X0002631Y0217876D01*
X0002467Y0217533D01*
X0002310Y0217186D01*
X0002163Y0216835D01*
X0002023Y0216481D01*
X0001893Y0216124D01*
X0001771Y0215763D01*
X0001658Y0215400D01*
X0001553Y0215034D01*
X0001458Y0214666D01*
X0001371Y0214295D01*
X0001293Y0213923D01*
X0001225Y0213548D01*
X0001165Y0213172D01*
X0001115Y0212795D01*
X0001074Y0212417D01*
X0001041Y0212038D01*
X0001018Y0211658D01*
X0001005Y0211278D01*
X0001000Y0210897D01*
X0001000Y0045543D01*
X0001005Y0045162D01*
X0001018Y0044782D01*
X0001041Y0044402D01*
X0001074Y0044023D01*
X0001115Y0043645D01*
X0001165Y0043268D01*
X0001225Y0042892D01*
X0001293Y0042517D01*
X0001371Y0042145D01*
X0001458Y0041774D01*
X0001553Y0041406D01*
X0001658Y0041040D01*
X0001771Y0040677D01*
X0001893Y0040316D01*
X0002023Y0039959D01*
X0002163Y0039605D01*
X0002310Y0039254D01*
X0002467Y0038907D01*
X0002631Y0038564D01*
X0002804Y0038225D01*
X0002985Y0037890D01*
X0003174Y0037559D01*
X0003371Y0037234D01*
X0003575Y0036913D01*
X0003788Y0036597D01*
X0004008Y0036287D01*
X0004235Y0035981D01*
X0004470Y0035682D01*
X0004712Y0035388D01*
X0004960Y0035100D01*
X0005216Y0034818D01*
X0005479Y0034543D01*
X0005748Y0034274D01*
X0006023Y0034011D01*
X0006305Y0033755D01*
X0006593Y0033507D01*
X0006887Y0033265D01*
X0007186Y0033030D01*
X0007492Y0032803D01*
X0007802Y0032583D01*
X0008118Y0032370D01*
X0008439Y0032166D01*
X0008764Y0031969D01*
X0009095Y0031780D01*
X0009430Y0031599D01*
X0009769Y0031426D01*
X0010112Y0031262D01*
X0010459Y0031105D01*
X0010810Y0030958D01*
X0011164Y0030818D01*
X0011521Y0030688D01*
X0011882Y0030566D01*
X0012245Y0030453D01*
X0012611Y0030348D01*
X0012979Y0030253D01*
X0013350Y0030166D01*
X0013722Y0030088D01*
X0014097Y0030020D01*
X0014473Y0029960D01*
X0014850Y0029910D01*
X0015228Y0029869D01*
X0015607Y0029836D01*
X0015987Y0029813D01*
X0016367Y0029800D01*
X0016748Y0029795D01*
X0006512Y0159716D02*
X0006514Y0159874D01*
X0006520Y0160032D01*
X0006530Y0160190D01*
X0006544Y0160348D01*
X0006562Y0160505D01*
X0006583Y0160662D01*
X0006609Y0160818D01*
X0006639Y0160974D01*
X0006672Y0161129D01*
X0006710Y0161282D01*
X0006751Y0161435D01*
X0006796Y0161587D01*
X0006845Y0161738D01*
X0006898Y0161887D01*
X0006954Y0162035D01*
X0007014Y0162181D01*
X0007078Y0162326D01*
X0007146Y0162469D01*
X0007217Y0162611D01*
X0007291Y0162751D01*
X0007369Y0162888D01*
X0007451Y0163024D01*
X0007535Y0163158D01*
X0007624Y0163289D01*
X0007715Y0163418D01*
X0007810Y0163545D01*
X0007907Y0163670D01*
X0008008Y0163792D01*
X0008112Y0163911D01*
X0008219Y0164028D01*
X0008329Y0164142D01*
X0008442Y0164253D01*
X0008557Y0164362D01*
X0008675Y0164467D01*
X0008796Y0164569D01*
X0008919Y0164669D01*
X0009045Y0164765D01*
X0009173Y0164858D01*
X0009303Y0164948D01*
X0009436Y0165034D01*
X0009571Y0165118D01*
X0009707Y0165197D01*
X0009846Y0165274D01*
X0009987Y0165346D01*
X0010129Y0165416D01*
X0010273Y0165481D01*
X0010419Y0165543D01*
X0010566Y0165601D01*
X0010715Y0165656D01*
X0010865Y0165707D01*
X0011016Y0165754D01*
X0011168Y0165797D01*
X0011321Y0165836D01*
X0011476Y0165872D01*
X0011631Y0165903D01*
X0011787Y0165931D01*
X0011943Y0165955D01*
X0012100Y0165975D01*
X0012258Y0165991D01*
X0012415Y0166003D01*
X0012574Y0166011D01*
X0012732Y0166015D01*
X0012890Y0166015D01*
X0013048Y0166011D01*
X0013207Y0166003D01*
X0013364Y0165991D01*
X0013522Y0165975D01*
X0013679Y0165955D01*
X0013835Y0165931D01*
X0013991Y0165903D01*
X0014146Y0165872D01*
X0014301Y0165836D01*
X0014454Y0165797D01*
X0014606Y0165754D01*
X0014757Y0165707D01*
X0014907Y0165656D01*
X0015056Y0165601D01*
X0015203Y0165543D01*
X0015349Y0165481D01*
X0015493Y0165416D01*
X0015635Y0165346D01*
X0015776Y0165274D01*
X0015915Y0165197D01*
X0016051Y0165118D01*
X0016186Y0165034D01*
X0016319Y0164948D01*
X0016449Y0164858D01*
X0016577Y0164765D01*
X0016703Y0164669D01*
X0016826Y0164569D01*
X0016947Y0164467D01*
X0017065Y0164362D01*
X0017180Y0164253D01*
X0017293Y0164142D01*
X0017403Y0164028D01*
X0017510Y0163911D01*
X0017614Y0163792D01*
X0017715Y0163670D01*
X0017812Y0163545D01*
X0017907Y0163418D01*
X0017998Y0163289D01*
X0018087Y0163158D01*
X0018171Y0163024D01*
X0018253Y0162888D01*
X0018331Y0162751D01*
X0018405Y0162611D01*
X0018476Y0162469D01*
X0018544Y0162326D01*
X0018608Y0162181D01*
X0018668Y0162035D01*
X0018724Y0161887D01*
X0018777Y0161738D01*
X0018826Y0161587D01*
X0018871Y0161435D01*
X0018912Y0161282D01*
X0018950Y0161129D01*
X0018983Y0160974D01*
X0019013Y0160818D01*
X0019039Y0160662D01*
X0019060Y0160505D01*
X0019078Y0160348D01*
X0019092Y0160190D01*
X0019102Y0160032D01*
X0019108Y0159874D01*
X0019110Y0159716D01*
X0019108Y0159558D01*
X0019102Y0159400D01*
X0019092Y0159242D01*
X0019078Y0159084D01*
X0019060Y0158927D01*
X0019039Y0158770D01*
X0019013Y0158614D01*
X0018983Y0158458D01*
X0018950Y0158303D01*
X0018912Y0158150D01*
X0018871Y0157997D01*
X0018826Y0157845D01*
X0018777Y0157694D01*
X0018724Y0157545D01*
X0018668Y0157397D01*
X0018608Y0157251D01*
X0018544Y0157106D01*
X0018476Y0156963D01*
X0018405Y0156821D01*
X0018331Y0156681D01*
X0018253Y0156544D01*
X0018171Y0156408D01*
X0018087Y0156274D01*
X0017998Y0156143D01*
X0017907Y0156014D01*
X0017812Y0155887D01*
X0017715Y0155762D01*
X0017614Y0155640D01*
X0017510Y0155521D01*
X0017403Y0155404D01*
X0017293Y0155290D01*
X0017180Y0155179D01*
X0017065Y0155070D01*
X0016947Y0154965D01*
X0016826Y0154863D01*
X0016703Y0154763D01*
X0016577Y0154667D01*
X0016449Y0154574D01*
X0016319Y0154484D01*
X0016186Y0154398D01*
X0016051Y0154314D01*
X0015915Y0154235D01*
X0015776Y0154158D01*
X0015635Y0154086D01*
X0015493Y0154016D01*
X0015349Y0153951D01*
X0015203Y0153889D01*
X0015056Y0153831D01*
X0014907Y0153776D01*
X0014757Y0153725D01*
X0014606Y0153678D01*
X0014454Y0153635D01*
X0014301Y0153596D01*
X0014146Y0153560D01*
X0013991Y0153529D01*
X0013835Y0153501D01*
X0013679Y0153477D01*
X0013522Y0153457D01*
X0013364Y0153441D01*
X0013207Y0153429D01*
X0013048Y0153421D01*
X0012890Y0153417D01*
X0012732Y0153417D01*
X0012574Y0153421D01*
X0012415Y0153429D01*
X0012258Y0153441D01*
X0012100Y0153457D01*
X0011943Y0153477D01*
X0011787Y0153501D01*
X0011631Y0153529D01*
X0011476Y0153560D01*
X0011321Y0153596D01*
X0011168Y0153635D01*
X0011016Y0153678D01*
X0010865Y0153725D01*
X0010715Y0153776D01*
X0010566Y0153831D01*
X0010419Y0153889D01*
X0010273Y0153951D01*
X0010129Y0154016D01*
X0009987Y0154086D01*
X0009846Y0154158D01*
X0009707Y0154235D01*
X0009571Y0154314D01*
X0009436Y0154398D01*
X0009303Y0154484D01*
X0009173Y0154574D01*
X0009045Y0154667D01*
X0008919Y0154763D01*
X0008796Y0154863D01*
X0008675Y0154965D01*
X0008557Y0155070D01*
X0008442Y0155179D01*
X0008329Y0155290D01*
X0008219Y0155404D01*
X0008112Y0155521D01*
X0008008Y0155640D01*
X0007907Y0155762D01*
X0007810Y0155887D01*
X0007715Y0156014D01*
X0007624Y0156143D01*
X0007535Y0156274D01*
X0007451Y0156408D01*
X0007369Y0156544D01*
X0007291Y0156681D01*
X0007217Y0156821D01*
X0007146Y0156963D01*
X0007078Y0157106D01*
X0007014Y0157251D01*
X0006954Y0157397D01*
X0006898Y0157545D01*
X0006845Y0157694D01*
X0006796Y0157845D01*
X0006751Y0157997D01*
X0006710Y0158150D01*
X0006672Y0158303D01*
X0006639Y0158458D01*
X0006609Y0158614D01*
X0006583Y0158770D01*
X0006562Y0158927D01*
X0006544Y0159084D01*
X0006530Y0159242D01*
X0006520Y0159400D01*
X0006514Y0159558D01*
X0006512Y0159716D01*
X0128559Y0084913D02*
X0128561Y0085071D01*
X0128567Y0085229D01*
X0128577Y0085387D01*
X0128591Y0085545D01*
X0128609Y0085702D01*
X0128630Y0085859D01*
X0128656Y0086015D01*
X0128686Y0086171D01*
X0128719Y0086326D01*
X0128757Y0086479D01*
X0128798Y0086632D01*
X0128843Y0086784D01*
X0128892Y0086935D01*
X0128945Y0087084D01*
X0129001Y0087232D01*
X0129061Y0087378D01*
X0129125Y0087523D01*
X0129193Y0087666D01*
X0129264Y0087808D01*
X0129338Y0087948D01*
X0129416Y0088085D01*
X0129498Y0088221D01*
X0129582Y0088355D01*
X0129671Y0088486D01*
X0129762Y0088615D01*
X0129857Y0088742D01*
X0129954Y0088867D01*
X0130055Y0088989D01*
X0130159Y0089108D01*
X0130266Y0089225D01*
X0130376Y0089339D01*
X0130489Y0089450D01*
X0130604Y0089559D01*
X0130722Y0089664D01*
X0130843Y0089766D01*
X0130966Y0089866D01*
X0131092Y0089962D01*
X0131220Y0090055D01*
X0131350Y0090145D01*
X0131483Y0090231D01*
X0131618Y0090315D01*
X0131754Y0090394D01*
X0131893Y0090471D01*
X0132034Y0090543D01*
X0132176Y0090613D01*
X0132320Y0090678D01*
X0132466Y0090740D01*
X0132613Y0090798D01*
X0132762Y0090853D01*
X0132912Y0090904D01*
X0133063Y0090951D01*
X0133215Y0090994D01*
X0133368Y0091033D01*
X0133523Y0091069D01*
X0133678Y0091100D01*
X0133834Y0091128D01*
X0133990Y0091152D01*
X0134147Y0091172D01*
X0134305Y0091188D01*
X0134462Y0091200D01*
X0134621Y0091208D01*
X0134779Y0091212D01*
X0134937Y0091212D01*
X0135095Y0091208D01*
X0135254Y0091200D01*
X0135411Y0091188D01*
X0135569Y0091172D01*
X0135726Y0091152D01*
X0135882Y0091128D01*
X0136038Y0091100D01*
X0136193Y0091069D01*
X0136348Y0091033D01*
X0136501Y0090994D01*
X0136653Y0090951D01*
X0136804Y0090904D01*
X0136954Y0090853D01*
X0137103Y0090798D01*
X0137250Y0090740D01*
X0137396Y0090678D01*
X0137540Y0090613D01*
X0137682Y0090543D01*
X0137823Y0090471D01*
X0137962Y0090394D01*
X0138098Y0090315D01*
X0138233Y0090231D01*
X0138366Y0090145D01*
X0138496Y0090055D01*
X0138624Y0089962D01*
X0138750Y0089866D01*
X0138873Y0089766D01*
X0138994Y0089664D01*
X0139112Y0089559D01*
X0139227Y0089450D01*
X0139340Y0089339D01*
X0139450Y0089225D01*
X0139557Y0089108D01*
X0139661Y0088989D01*
X0139762Y0088867D01*
X0139859Y0088742D01*
X0139954Y0088615D01*
X0140045Y0088486D01*
X0140134Y0088355D01*
X0140218Y0088221D01*
X0140300Y0088085D01*
X0140378Y0087948D01*
X0140452Y0087808D01*
X0140523Y0087666D01*
X0140591Y0087523D01*
X0140655Y0087378D01*
X0140715Y0087232D01*
X0140771Y0087084D01*
X0140824Y0086935D01*
X0140873Y0086784D01*
X0140918Y0086632D01*
X0140959Y0086479D01*
X0140997Y0086326D01*
X0141030Y0086171D01*
X0141060Y0086015D01*
X0141086Y0085859D01*
X0141107Y0085702D01*
X0141125Y0085545D01*
X0141139Y0085387D01*
X0141149Y0085229D01*
X0141155Y0085071D01*
X0141157Y0084913D01*
X0141155Y0084755D01*
X0141149Y0084597D01*
X0141139Y0084439D01*
X0141125Y0084281D01*
X0141107Y0084124D01*
X0141086Y0083967D01*
X0141060Y0083811D01*
X0141030Y0083655D01*
X0140997Y0083500D01*
X0140959Y0083347D01*
X0140918Y0083194D01*
X0140873Y0083042D01*
X0140824Y0082891D01*
X0140771Y0082742D01*
X0140715Y0082594D01*
X0140655Y0082448D01*
X0140591Y0082303D01*
X0140523Y0082160D01*
X0140452Y0082018D01*
X0140378Y0081878D01*
X0140300Y0081741D01*
X0140218Y0081605D01*
X0140134Y0081471D01*
X0140045Y0081340D01*
X0139954Y0081211D01*
X0139859Y0081084D01*
X0139762Y0080959D01*
X0139661Y0080837D01*
X0139557Y0080718D01*
X0139450Y0080601D01*
X0139340Y0080487D01*
X0139227Y0080376D01*
X0139112Y0080267D01*
X0138994Y0080162D01*
X0138873Y0080060D01*
X0138750Y0079960D01*
X0138624Y0079864D01*
X0138496Y0079771D01*
X0138366Y0079681D01*
X0138233Y0079595D01*
X0138098Y0079511D01*
X0137962Y0079432D01*
X0137823Y0079355D01*
X0137682Y0079283D01*
X0137540Y0079213D01*
X0137396Y0079148D01*
X0137250Y0079086D01*
X0137103Y0079028D01*
X0136954Y0078973D01*
X0136804Y0078922D01*
X0136653Y0078875D01*
X0136501Y0078832D01*
X0136348Y0078793D01*
X0136193Y0078757D01*
X0136038Y0078726D01*
X0135882Y0078698D01*
X0135726Y0078674D01*
X0135569Y0078654D01*
X0135411Y0078638D01*
X0135254Y0078626D01*
X0135095Y0078618D01*
X0134937Y0078614D01*
X0134779Y0078614D01*
X0134621Y0078618D01*
X0134462Y0078626D01*
X0134305Y0078638D01*
X0134147Y0078654D01*
X0133990Y0078674D01*
X0133834Y0078698D01*
X0133678Y0078726D01*
X0133523Y0078757D01*
X0133368Y0078793D01*
X0133215Y0078832D01*
X0133063Y0078875D01*
X0132912Y0078922D01*
X0132762Y0078973D01*
X0132613Y0079028D01*
X0132466Y0079086D01*
X0132320Y0079148D01*
X0132176Y0079213D01*
X0132034Y0079283D01*
X0131893Y0079355D01*
X0131754Y0079432D01*
X0131618Y0079511D01*
X0131483Y0079595D01*
X0131350Y0079681D01*
X0131220Y0079771D01*
X0131092Y0079864D01*
X0130966Y0079960D01*
X0130843Y0080060D01*
X0130722Y0080162D01*
X0130604Y0080267D01*
X0130489Y0080376D01*
X0130376Y0080487D01*
X0130266Y0080601D01*
X0130159Y0080718D01*
X0130055Y0080837D01*
X0129954Y0080959D01*
X0129857Y0081084D01*
X0129762Y0081211D01*
X0129671Y0081340D01*
X0129582Y0081471D01*
X0129498Y0081605D01*
X0129416Y0081741D01*
X0129338Y0081878D01*
X0129264Y0082018D01*
X0129193Y0082160D01*
X0129125Y0082303D01*
X0129061Y0082448D01*
X0129001Y0082594D01*
X0128945Y0082742D01*
X0128892Y0082891D01*
X0128843Y0083042D01*
X0128798Y0083194D01*
X0128757Y0083347D01*
X0128719Y0083500D01*
X0128686Y0083655D01*
X0128656Y0083811D01*
X0128630Y0083967D01*
X0128609Y0084124D01*
X0128591Y0084281D01*
X0128577Y0084439D01*
X0128567Y0084597D01*
X0128561Y0084755D01*
X0128559Y0084913D01*
X0219110Y0155779D02*
X0219112Y0155937D01*
X0219118Y0156095D01*
X0219128Y0156253D01*
X0219142Y0156411D01*
X0219160Y0156568D01*
X0219181Y0156725D01*
X0219207Y0156881D01*
X0219237Y0157037D01*
X0219270Y0157192D01*
X0219308Y0157345D01*
X0219349Y0157498D01*
X0219394Y0157650D01*
X0219443Y0157801D01*
X0219496Y0157950D01*
X0219552Y0158098D01*
X0219612Y0158244D01*
X0219676Y0158389D01*
X0219744Y0158532D01*
X0219815Y0158674D01*
X0219889Y0158814D01*
X0219967Y0158951D01*
X0220049Y0159087D01*
X0220133Y0159221D01*
X0220222Y0159352D01*
X0220313Y0159481D01*
X0220408Y0159608D01*
X0220505Y0159733D01*
X0220606Y0159855D01*
X0220710Y0159974D01*
X0220817Y0160091D01*
X0220927Y0160205D01*
X0221040Y0160316D01*
X0221155Y0160425D01*
X0221273Y0160530D01*
X0221394Y0160632D01*
X0221517Y0160732D01*
X0221643Y0160828D01*
X0221771Y0160921D01*
X0221901Y0161011D01*
X0222034Y0161097D01*
X0222169Y0161181D01*
X0222305Y0161260D01*
X0222444Y0161337D01*
X0222585Y0161409D01*
X0222727Y0161479D01*
X0222871Y0161544D01*
X0223017Y0161606D01*
X0223164Y0161664D01*
X0223313Y0161719D01*
X0223463Y0161770D01*
X0223614Y0161817D01*
X0223766Y0161860D01*
X0223919Y0161899D01*
X0224074Y0161935D01*
X0224229Y0161966D01*
X0224385Y0161994D01*
X0224541Y0162018D01*
X0224698Y0162038D01*
X0224856Y0162054D01*
X0225013Y0162066D01*
X0225172Y0162074D01*
X0225330Y0162078D01*
X0225488Y0162078D01*
X0225646Y0162074D01*
X0225805Y0162066D01*
X0225962Y0162054D01*
X0226120Y0162038D01*
X0226277Y0162018D01*
X0226433Y0161994D01*
X0226589Y0161966D01*
X0226744Y0161935D01*
X0226899Y0161899D01*
X0227052Y0161860D01*
X0227204Y0161817D01*
X0227355Y0161770D01*
X0227505Y0161719D01*
X0227654Y0161664D01*
X0227801Y0161606D01*
X0227947Y0161544D01*
X0228091Y0161479D01*
X0228233Y0161409D01*
X0228374Y0161337D01*
X0228513Y0161260D01*
X0228649Y0161181D01*
X0228784Y0161097D01*
X0228917Y0161011D01*
X0229047Y0160921D01*
X0229175Y0160828D01*
X0229301Y0160732D01*
X0229424Y0160632D01*
X0229545Y0160530D01*
X0229663Y0160425D01*
X0229778Y0160316D01*
X0229891Y0160205D01*
X0230001Y0160091D01*
X0230108Y0159974D01*
X0230212Y0159855D01*
X0230313Y0159733D01*
X0230410Y0159608D01*
X0230505Y0159481D01*
X0230596Y0159352D01*
X0230685Y0159221D01*
X0230769Y0159087D01*
X0230851Y0158951D01*
X0230929Y0158814D01*
X0231003Y0158674D01*
X0231074Y0158532D01*
X0231142Y0158389D01*
X0231206Y0158244D01*
X0231266Y0158098D01*
X0231322Y0157950D01*
X0231375Y0157801D01*
X0231424Y0157650D01*
X0231469Y0157498D01*
X0231510Y0157345D01*
X0231548Y0157192D01*
X0231581Y0157037D01*
X0231611Y0156881D01*
X0231637Y0156725D01*
X0231658Y0156568D01*
X0231676Y0156411D01*
X0231690Y0156253D01*
X0231700Y0156095D01*
X0231706Y0155937D01*
X0231708Y0155779D01*
X0231706Y0155621D01*
X0231700Y0155463D01*
X0231690Y0155305D01*
X0231676Y0155147D01*
X0231658Y0154990D01*
X0231637Y0154833D01*
X0231611Y0154677D01*
X0231581Y0154521D01*
X0231548Y0154366D01*
X0231510Y0154213D01*
X0231469Y0154060D01*
X0231424Y0153908D01*
X0231375Y0153757D01*
X0231322Y0153608D01*
X0231266Y0153460D01*
X0231206Y0153314D01*
X0231142Y0153169D01*
X0231074Y0153026D01*
X0231003Y0152884D01*
X0230929Y0152744D01*
X0230851Y0152607D01*
X0230769Y0152471D01*
X0230685Y0152337D01*
X0230596Y0152206D01*
X0230505Y0152077D01*
X0230410Y0151950D01*
X0230313Y0151825D01*
X0230212Y0151703D01*
X0230108Y0151584D01*
X0230001Y0151467D01*
X0229891Y0151353D01*
X0229778Y0151242D01*
X0229663Y0151133D01*
X0229545Y0151028D01*
X0229424Y0150926D01*
X0229301Y0150826D01*
X0229175Y0150730D01*
X0229047Y0150637D01*
X0228917Y0150547D01*
X0228784Y0150461D01*
X0228649Y0150377D01*
X0228513Y0150298D01*
X0228374Y0150221D01*
X0228233Y0150149D01*
X0228091Y0150079D01*
X0227947Y0150014D01*
X0227801Y0149952D01*
X0227654Y0149894D01*
X0227505Y0149839D01*
X0227355Y0149788D01*
X0227204Y0149741D01*
X0227052Y0149698D01*
X0226899Y0149659D01*
X0226744Y0149623D01*
X0226589Y0149592D01*
X0226433Y0149564D01*
X0226277Y0149540D01*
X0226120Y0149520D01*
X0225962Y0149504D01*
X0225805Y0149492D01*
X0225646Y0149484D01*
X0225488Y0149480D01*
X0225330Y0149480D01*
X0225172Y0149484D01*
X0225013Y0149492D01*
X0224856Y0149504D01*
X0224698Y0149520D01*
X0224541Y0149540D01*
X0224385Y0149564D01*
X0224229Y0149592D01*
X0224074Y0149623D01*
X0223919Y0149659D01*
X0223766Y0149698D01*
X0223614Y0149741D01*
X0223463Y0149788D01*
X0223313Y0149839D01*
X0223164Y0149894D01*
X0223017Y0149952D01*
X0222871Y0150014D01*
X0222727Y0150079D01*
X0222585Y0150149D01*
X0222444Y0150221D01*
X0222305Y0150298D01*
X0222169Y0150377D01*
X0222034Y0150461D01*
X0221901Y0150547D01*
X0221771Y0150637D01*
X0221643Y0150730D01*
X0221517Y0150826D01*
X0221394Y0150926D01*
X0221273Y0151028D01*
X0221155Y0151133D01*
X0221040Y0151242D01*
X0220927Y0151353D01*
X0220817Y0151467D01*
X0220710Y0151584D01*
X0220606Y0151703D01*
X0220505Y0151825D01*
X0220408Y0151950D01*
X0220313Y0152077D01*
X0220222Y0152206D01*
X0220133Y0152337D01*
X0220049Y0152471D01*
X0219967Y0152607D01*
X0219889Y0152744D01*
X0219815Y0152884D01*
X0219744Y0153026D01*
X0219676Y0153169D01*
X0219612Y0153314D01*
X0219552Y0153460D01*
X0219496Y0153608D01*
X0219443Y0153757D01*
X0219394Y0153908D01*
X0219349Y0154060D01*
X0219308Y0154213D01*
X0219270Y0154366D01*
X0219237Y0154521D01*
X0219207Y0154677D01*
X0219181Y0154833D01*
X0219160Y0154990D01*
X0219142Y0155147D01*
X0219128Y0155305D01*
X0219118Y0155463D01*
X0219112Y0155621D01*
X0219110Y0155779D01*
D11*
X0211000Y0184795D03*
D12*
X0211000Y0204480D03*
D13*
X0183093Y0187996D03*
X0173993Y0187996D03*
X0164893Y0187996D03*
D14*
X0173993Y0213196D03*
D15*
X0146000Y0212295D03*
X0146000Y0202295D03*
X0146000Y0192295D03*
X0131000Y0192295D03*
X0131000Y0202295D03*
X0131000Y0212295D03*
X0116000Y0212295D03*
X0116000Y0202295D03*
X0116000Y0192295D03*
X0173500Y0137295D03*
X0183500Y0137295D03*
X0193500Y0137295D03*
X0203500Y0137295D03*
X0213500Y0137295D03*
X0223500Y0137295D03*
X0223500Y0097295D03*
X0213500Y0097295D03*
X0203500Y0097295D03*
X0193500Y0097295D03*
X0183500Y0097295D03*
X0173500Y0097295D03*
X0166000Y0064795D03*
X0166000Y0054795D03*
X0148500Y0054795D03*
X0148500Y0064795D03*
X0131000Y0064795D03*
X0131000Y0054795D03*
X0131000Y0044795D03*
X0183500Y0044795D03*
X0183500Y0054795D03*
X0183500Y0064795D03*
X0021000Y0184795D03*
X0021000Y0194795D03*
X0021000Y0204795D03*
D16*
X0056000Y0207590D03*
X0056000Y0182000D03*
D17*
X0116000Y0182295D03*
X0131000Y0182295D03*
X0146000Y0182295D03*
D18*
X0076000Y0066035D03*
X0076000Y0058555D03*
X0038500Y0053535D03*
X0038500Y0046055D03*
D19*
X0066000Y0134795D03*
X0066000Y0154795D03*
D20*
X0109100Y0140819D03*
X0109100Y0137669D03*
X0109100Y0134519D03*
X0109100Y0131370D03*
X0109100Y0128220D03*
X0109100Y0125071D03*
X0109100Y0121921D03*
X0109100Y0118771D03*
X0142900Y0118771D03*
X0142900Y0121921D03*
X0142900Y0125071D03*
X0142900Y0128220D03*
X0142900Y0131370D03*
X0142900Y0134519D03*
X0142900Y0137669D03*
X0142900Y0140819D03*
D21*
X0137024Y0146695D03*
X0133874Y0146695D03*
X0130724Y0146695D03*
X0127575Y0146695D03*
X0124425Y0146695D03*
X0121276Y0146695D03*
X0118126Y0146695D03*
X0114976Y0146695D03*
X0114976Y0112895D03*
X0118126Y0112895D03*
X0121276Y0112895D03*
X0124425Y0112895D03*
X0127575Y0112895D03*
X0130724Y0112895D03*
X0133874Y0112895D03*
X0137024Y0112895D03*
D22*
X0081000Y0129283D03*
X0081000Y0140307D03*
X0081000Y0154283D03*
X0081000Y0165307D03*
D23*
X0211000Y0069795D03*
X0211000Y0059795D03*
X0221000Y0059795D03*
X0221000Y0069795D03*
X0221000Y0049795D03*
X0211000Y0049795D03*
D24*
X0202240Y0112295D03*
X0194760Y0112295D03*
X0194760Y0122295D03*
X0202240Y0122295D03*
X0097240Y0054795D03*
X0089760Y0054795D03*
X0084740Y0079795D03*
X0077260Y0079795D03*
X0079760Y0092295D03*
X0087240Y0092295D03*
X0057240Y0054795D03*
X0049760Y0054795D03*
X0067260Y0199795D03*
X0074740Y0199795D03*
X0072260Y0212295D03*
X0079740Y0212295D03*
D25*
X0090488Y0064795D03*
X0101512Y0064795D03*
D26*
X0098351Y0197237D03*
X0090851Y0202237D03*
X0098351Y0207237D03*
D27*
X0156000Y0159795D03*
X0186000Y0154795D03*
D28*
X0186000Y0164795D03*
X0156000Y0169795D03*
D29*
X0029500Y0130982D03*
X0024500Y0138608D03*
X0012500Y0138608D03*
D30*
X0018500Y0130982D03*
D31*
X0024500Y0138608D02*
X0030687Y0144795D01*
X0030687Y0174482D01*
X0056000Y0199795D01*
X0056000Y0207590D01*
X0063500Y0214795D02*
X0066000Y0217295D01*
X0078500Y0217295D01*
X0081000Y0214795D01*
X0081000Y0213555D01*
X0079740Y0212295D01*
X0101000Y0212295D01*
X0106000Y0207295D01*
X0106000Y0197295D01*
X0098409Y0197295D01*
X0098351Y0197237D01*
X0098351Y0187444D01*
X0098500Y0187295D01*
X0096000Y0179795D02*
X0096000Y0164795D01*
X0088500Y0159795D02*
X0083500Y0164795D01*
X0081512Y0164795D01*
X0081000Y0165307D01*
X0071512Y0165307D01*
X0066000Y0159795D01*
X0066000Y0154795D01*
X0058500Y0144795D02*
X0030687Y0144795D01*
X0026000Y0149795D02*
X0023500Y0147295D01*
X0026000Y0149795D02*
X0026000Y0184795D01*
X0021000Y0184795D01*
X0026000Y0184795D02*
X0036000Y0194795D01*
X0036000Y0212295D01*
X0038500Y0214795D01*
X0063500Y0214795D01*
X0072260Y0212295D02*
X0072260Y0208535D01*
X0076000Y0204795D01*
X0076000Y0201055D01*
X0074740Y0199795D01*
X0088409Y0199795D01*
X0090851Y0202237D01*
X0098351Y0197237D02*
X0126058Y0197237D01*
X0131000Y0192295D01*
X0133500Y0194795D01*
X0133500Y0197295D01*
X0138500Y0202295D01*
X0138500Y0209795D01*
X0141000Y0212295D01*
X0146000Y0212295D01*
X0151000Y0212295D01*
X0153500Y0209795D01*
X0153500Y0189795D01*
X0156000Y0187295D01*
X0164192Y0187295D01*
X0164893Y0187996D01*
X0158500Y0182295D02*
X0158500Y0179795D01*
X0151000Y0172295D01*
X0151000Y0152295D01*
X0156000Y0147295D01*
X0156000Y0124795D01*
X0149976Y0118771D01*
X0142900Y0118771D01*
X0142900Y0121921D02*
X0148126Y0121921D01*
X0151000Y0124795D01*
X0151000Y0132295D01*
X0153500Y0134795D02*
X0150626Y0137669D01*
X0142900Y0137669D01*
X0142526Y0137295D01*
X0118500Y0137295D01*
X0116000Y0134795D01*
X0115724Y0134519D01*
X0109100Y0134519D01*
X0100724Y0134519D01*
X0098500Y0132295D01*
X0103500Y0129795D02*
X0103500Y0127295D01*
X0101000Y0124795D01*
X0101000Y0122295D01*
X0063500Y0122295D01*
X0058500Y0127295D01*
X0058500Y0144795D01*
X0076512Y0144795D01*
X0081000Y0140307D01*
X0081000Y0154283D01*
X0088500Y0159795D02*
X0088500Y0142295D01*
X0089976Y0140819D01*
X0109100Y0140819D01*
X0109100Y0137669D02*
X0091374Y0137669D01*
X0083500Y0129795D01*
X0081512Y0129795D01*
X0081000Y0129283D01*
X0080488Y0129795D01*
X0068500Y0129795D01*
X0066000Y0132295D01*
X0066000Y0134795D01*
X0051000Y0157295D02*
X0051000Y0174795D01*
X0067260Y0196035D02*
X0081000Y0182295D01*
X0106000Y0182295D01*
X0114976Y0173319D01*
X0114976Y0146695D01*
X0118126Y0146695D02*
X0118126Y0154421D01*
X0118500Y0154795D01*
X0126000Y0157295D02*
X0127575Y0155720D01*
X0127575Y0146695D01*
X0130724Y0146695D02*
X0130724Y0152019D01*
X0133500Y0154795D01*
X0137024Y0150819D02*
X0138500Y0152295D01*
X0141000Y0152295D01*
X0143500Y0149795D01*
X0143500Y0147295D01*
X0141000Y0144795D02*
X0141000Y0142719D01*
X0142900Y0140819D01*
X0137024Y0146695D02*
X0137024Y0150819D01*
X0133874Y0150169D02*
X0138500Y0154795D01*
X0143500Y0154795D01*
X0146000Y0152295D01*
X0148500Y0147295D02*
X0148500Y0174795D01*
X0153500Y0179795D01*
X0153500Y0187295D01*
X0148500Y0192295D01*
X0146000Y0192295D01*
X0138500Y0197295D02*
X0136000Y0194795D01*
X0136000Y0164795D01*
X0138500Y0162295D01*
X0138500Y0169795D02*
X0138500Y0187295D01*
X0133874Y0150169D02*
X0133874Y0146695D01*
X0136000Y0132295D02*
X0136925Y0131370D01*
X0142900Y0131370D01*
X0142900Y0128220D02*
X0132575Y0128220D01*
X0131000Y0129795D01*
X0126276Y0125071D01*
X0109100Y0125071D01*
X0105724Y0125071D01*
X0103500Y0127295D01*
X0103500Y0129795D02*
X0105075Y0131370D01*
X0109100Y0131370D01*
X0109100Y0128220D02*
X0114425Y0128220D01*
X0116000Y0129795D01*
X0116000Y0134795D01*
X0116000Y0129795D02*
X0121000Y0129795D01*
X0121276Y0112895D02*
X0121276Y0102019D01*
X0123500Y0099795D01*
X0124425Y0103870D02*
X0128500Y0099795D01*
X0133500Y0099795D01*
X0156000Y0077295D01*
X0193500Y0077295D01*
X0198500Y0072295D01*
X0198500Y0057295D01*
X0203500Y0064795D02*
X0203500Y0074795D01*
X0198500Y0079795D01*
X0156000Y0079795D01*
X0138500Y0097295D01*
X0138500Y0104795D01*
X0133500Y0104795D02*
X0130724Y0107571D01*
X0130724Y0112895D01*
X0127575Y0112895D02*
X0127575Y0105720D01*
X0128500Y0104795D01*
X0124425Y0103870D02*
X0124425Y0112895D01*
X0118126Y0112895D02*
X0118126Y0107669D01*
X0118500Y0107295D01*
X0114976Y0106271D02*
X0113500Y0104795D01*
X0114976Y0106271D02*
X0114976Y0112895D01*
X0121000Y0092295D02*
X0103500Y0092295D01*
X0098500Y0087295D01*
X0083500Y0087295D01*
X0079760Y0091035D01*
X0079760Y0092295D01*
X0081000Y0099795D02*
X0086000Y0099795D01*
X0088500Y0097295D01*
X0088500Y0093555D01*
X0087240Y0092295D01*
X0093500Y0082295D02*
X0091000Y0079795D01*
X0084740Y0079795D01*
X0086000Y0072295D02*
X0091000Y0072295D01*
X0093500Y0074795D01*
X0093500Y0077295D01*
X0098500Y0072295D02*
X0101000Y0069795D01*
X0101000Y0065307D01*
X0101512Y0064795D01*
X0101512Y0062807D01*
X0098500Y0059795D01*
X0098500Y0056055D01*
X0097240Y0054795D01*
X0103500Y0054795D01*
X0121000Y0054795D01*
X0126000Y0059795D01*
X0136000Y0059795D01*
X0148500Y0047295D01*
X0173500Y0047295D01*
X0176000Y0049795D01*
X0176000Y0059795D01*
X0181000Y0064795D01*
X0183500Y0064795D01*
X0176000Y0067295D02*
X0171000Y0072295D01*
X0153500Y0072295D01*
X0148500Y0067295D01*
X0148500Y0064795D01*
X0146000Y0059795D02*
X0171000Y0059795D01*
X0183500Y0044795D02*
X0186000Y0042295D01*
X0216000Y0042295D01*
X0221000Y0047295D01*
X0221000Y0049795D01*
X0226000Y0049795D01*
X0228500Y0052295D01*
X0228500Y0084795D01*
X0223500Y0089795D01*
X0211000Y0089795D01*
X0203500Y0097295D01*
X0203500Y0111035D01*
X0202240Y0112295D01*
X0202240Y0122295D01*
X0202240Y0136035D01*
X0203500Y0137295D01*
X0194760Y0136035D02*
X0194760Y0122295D01*
X0191000Y0122295D01*
X0186000Y0117295D01*
X0176000Y0127295D01*
X0163500Y0127295D01*
X0153500Y0127295D02*
X0153500Y0134795D01*
X0142900Y0112895D02*
X0137024Y0112895D01*
X0142900Y0112895D02*
X0143500Y0112295D01*
X0148500Y0109795D02*
X0148500Y0094795D01*
X0158500Y0084795D01*
X0211000Y0084795D01*
X0216000Y0079795D01*
X0216000Y0064795D01*
X0221000Y0059795D01*
X0211000Y0059795D02*
X0208500Y0059795D01*
X0203500Y0064795D01*
X0211000Y0069795D02*
X0211000Y0077295D01*
X0206000Y0082295D01*
X0158500Y0082295D01*
X0143500Y0097295D01*
X0143500Y0104795D01*
X0126000Y0087295D02*
X0126000Y0077295D01*
X0128500Y0074795D01*
X0136000Y0074795D01*
X0141000Y0069795D01*
X0141000Y0064795D01*
X0146000Y0059795D01*
X0136000Y0054795D02*
X0131000Y0054795D01*
X0126000Y0054795D01*
X0123500Y0052295D01*
X0123500Y0049795D01*
X0121000Y0047295D01*
X0093500Y0047295D01*
X0091000Y0049795D01*
X0091000Y0053555D01*
X0089760Y0054795D01*
X0086000Y0058555D01*
X0076000Y0058555D01*
X0076000Y0066035D02*
X0079740Y0066035D01*
X0086000Y0072295D01*
X0081000Y0072295D02*
X0077260Y0076035D01*
X0077260Y0079795D01*
X0053500Y0079795D01*
X0049760Y0076055D01*
X0049760Y0054795D01*
X0048500Y0053535D01*
X0038500Y0053535D01*
X0031000Y0057295D02*
X0036000Y0062295D01*
X0036000Y0139795D01*
X0067260Y0196035D02*
X0067260Y0199795D01*
X0121000Y0092295D02*
X0126000Y0087295D01*
X0121000Y0087295D02*
X0103500Y0087295D01*
X0103500Y0079795D02*
X0121000Y0079795D01*
X0136000Y0054795D02*
X0146000Y0044795D01*
X0183500Y0044795D01*
X0191000Y0037295D02*
X0188500Y0034795D01*
X0036000Y0034795D01*
X0031000Y0039795D01*
X0031000Y0057295D01*
X0038500Y0046055D02*
X0039760Y0044795D01*
X0131000Y0044795D01*
X0089760Y0054795D02*
X0089760Y0064067D01*
X0090488Y0064795D01*
X0066000Y0054795D02*
X0057240Y0054795D01*
X0041000Y0039795D02*
X0038500Y0042295D01*
X0038500Y0046055D01*
X0186000Y0107295D02*
X0189760Y0107295D01*
X0194760Y0112295D01*
X0194760Y0098555D01*
X0193500Y0097295D01*
X0213500Y0107295D02*
X0218500Y0112295D01*
X0218500Y0149795D01*
X0203500Y0164795D01*
X0186000Y0164795D01*
X0193500Y0137295D02*
X0194760Y0136035D01*
D32*
X0186000Y0117295D03*
X0186000Y0107295D03*
X0163500Y0127295D03*
X0153500Y0127295D03*
X0151000Y0132295D03*
X0148500Y0147295D03*
X0143500Y0147295D03*
X0141000Y0144795D03*
X0146000Y0152295D03*
X0138500Y0162295D03*
X0133500Y0154795D03*
X0126000Y0157295D03*
X0118500Y0154795D03*
X0121000Y0129795D03*
X0131000Y0129795D03*
X0136000Y0132295D03*
X0143500Y0112295D03*
X0148500Y0109795D03*
X0143500Y0104795D03*
X0138500Y0104795D03*
X0133500Y0104795D03*
X0128500Y0104795D03*
X0123500Y0099795D03*
X0118500Y0107295D03*
X0113500Y0104795D03*
X0101000Y0122295D03*
X0098500Y0132295D03*
X0096000Y0164795D03*
X0096000Y0179795D03*
X0098500Y0187295D03*
X0138500Y0187295D03*
X0138500Y0197295D03*
X0158500Y0182295D03*
X0138500Y0169795D03*
X0081000Y0099795D03*
X0093500Y0082295D03*
X0093500Y0077295D03*
X0098500Y0072295D03*
X0103500Y0079795D03*
X0103500Y0087295D03*
X0121000Y0087295D03*
X0121000Y0079795D03*
X0103500Y0054795D03*
X0081000Y0072295D03*
X0066000Y0054795D03*
X0041000Y0039795D03*
X0036000Y0139795D03*
X0023500Y0147295D03*
X0051000Y0157295D03*
X0051000Y0174795D03*
X0171000Y0059795D03*
X0176000Y0067295D03*
X0198500Y0057295D03*
X0191000Y0037295D03*
X0213500Y0107295D03*
D33*
X0156000Y0169795D02*
X0164893Y0178688D01*
X0164893Y0187996D01*
X0183093Y0187996D02*
X0183794Y0187295D01*
X0191000Y0187295D01*
X0196000Y0192295D01*
X0196000Y0199795D01*
X0201000Y0204795D01*
X0210685Y0204795D01*
X0211000Y0204480D01*
D34*
X0214289Y0208828D02*
X0235420Y0208828D01*
X0235420Y0207230D02*
X0215706Y0207230D01*
X0215578Y0207539D02*
X0214059Y0209058D01*
X0212074Y0209880D01*
X0209926Y0209880D01*
X0207941Y0209058D01*
X0206422Y0207539D01*
X0206362Y0207395D01*
X0200483Y0207395D01*
X0199527Y0206999D01*
X0198796Y0206268D01*
X0194527Y0201999D01*
X0193796Y0201268D01*
X0193400Y0200312D01*
X0193400Y0193372D01*
X0189923Y0189895D01*
X0186243Y0189895D01*
X0186243Y0191776D01*
X0185423Y0192596D01*
X0180763Y0192596D01*
X0179943Y0191776D01*
X0179943Y0184216D01*
X0180763Y0183396D01*
X0185423Y0183396D01*
X0186243Y0184216D01*
X0186243Y0184695D01*
X0191517Y0184695D01*
X0192473Y0185091D01*
X0193204Y0185822D01*
X0198204Y0190822D01*
X0198600Y0191778D01*
X0198600Y0198718D01*
X0202077Y0202195D01*
X0206102Y0202195D01*
X0206422Y0201421D01*
X0207941Y0199902D01*
X0209926Y0199080D01*
X0212074Y0199080D01*
X0214059Y0199902D01*
X0215578Y0201421D01*
X0216400Y0203406D01*
X0216400Y0205554D01*
X0215578Y0207539D01*
X0216368Y0205631D02*
X0235420Y0205631D01*
X0235420Y0204033D02*
X0216400Y0204033D01*
X0215998Y0202434D02*
X0235420Y0202434D01*
X0235420Y0200836D02*
X0214992Y0200836D01*
X0212454Y0199237D02*
X0235420Y0199237D01*
X0235420Y0197639D02*
X0198600Y0197639D01*
X0198600Y0196040D02*
X0235420Y0196040D01*
X0235420Y0194442D02*
X0198600Y0194442D01*
X0198600Y0192843D02*
X0235420Y0192843D01*
X0235420Y0191245D02*
X0198379Y0191245D01*
X0197028Y0189646D02*
X0205871Y0189646D01*
X0205600Y0189375D02*
X0205600Y0180215D01*
X0206420Y0179395D01*
X0215580Y0179395D01*
X0216400Y0180215D01*
X0216400Y0189375D01*
X0215580Y0190195D01*
X0206420Y0190195D01*
X0205600Y0189375D01*
X0205600Y0188048D02*
X0195430Y0188048D01*
X0193831Y0186449D02*
X0205600Y0186449D01*
X0205600Y0184851D02*
X0191893Y0184851D01*
X0191273Y0191245D02*
X0186243Y0191245D01*
X0192871Y0192843D02*
X0156000Y0192843D01*
X0156000Y0191245D02*
X0161743Y0191245D01*
X0161743Y0191776D02*
X0161743Y0189195D01*
X0156787Y0189195D01*
X0156000Y0189982D01*
X0156000Y0224795D01*
X0222241Y0224795D01*
X0223293Y0224726D01*
X0226810Y0223784D01*
X0229963Y0221963D01*
X0232538Y0219388D01*
X0234359Y0216235D01*
X0235301Y0212718D01*
X0235420Y0210897D01*
X0235420Y0154795D01*
X0233509Y0154795D01*
X0233509Y0157390D01*
X0232276Y0160367D01*
X0229997Y0162645D01*
X0227020Y0163878D01*
X0223798Y0163878D01*
X0220822Y0162645D01*
X0218543Y0160367D01*
X0217310Y0157390D01*
X0217310Y0154795D01*
X0190550Y0154795D01*
X0190550Y0156680D01*
X0187885Y0159345D01*
X0184115Y0159345D01*
X0181450Y0156680D01*
X0181450Y0154795D01*
X0156000Y0154795D01*
X0156000Y0155245D01*
X0157885Y0155245D01*
X0160550Y0157910D01*
X0160550Y0161680D01*
X0157885Y0164345D01*
X0156000Y0164345D01*
X0156000Y0165245D01*
X0156905Y0165245D01*
X0158577Y0165938D01*
X0159857Y0167218D01*
X0160550Y0168890D01*
X0160550Y0170668D01*
X0167097Y0177215D01*
X0167493Y0178171D01*
X0167493Y0183666D01*
X0168043Y0184216D01*
X0168043Y0191776D01*
X0167223Y0192596D01*
X0162563Y0192596D01*
X0161743Y0191776D01*
X0161743Y0189646D02*
X0156336Y0189646D01*
X0156000Y0194442D02*
X0193400Y0194442D01*
X0193400Y0196040D02*
X0156000Y0196040D01*
X0156000Y0197639D02*
X0193400Y0197639D01*
X0193400Y0199237D02*
X0156000Y0199237D01*
X0156000Y0200836D02*
X0193617Y0200836D01*
X0194962Y0202434D02*
X0156000Y0202434D01*
X0156000Y0204033D02*
X0196561Y0204033D01*
X0198159Y0205631D02*
X0156000Y0205631D01*
X0156000Y0207230D02*
X0200084Y0207230D01*
X0200718Y0200836D02*
X0207008Y0200836D01*
X0209546Y0199237D02*
X0199119Y0199237D01*
X0207711Y0208828D02*
X0156000Y0208828D01*
X0156000Y0210427D02*
X0235420Y0210427D01*
X0235347Y0212025D02*
X0156000Y0212025D01*
X0156000Y0213624D02*
X0235058Y0213624D01*
X0234630Y0215222D02*
X0156000Y0215222D01*
X0156000Y0216821D02*
X0234021Y0216821D01*
X0233098Y0218419D02*
X0156000Y0218419D01*
X0156000Y0220018D02*
X0231909Y0220018D01*
X0230310Y0221616D02*
X0156000Y0221616D01*
X0156000Y0223215D02*
X0227795Y0223215D01*
X0235420Y0189646D02*
X0216129Y0189646D01*
X0216400Y0188048D02*
X0235420Y0188048D01*
X0235420Y0186449D02*
X0216400Y0186449D01*
X0216400Y0184851D02*
X0235420Y0184851D01*
X0235420Y0183252D02*
X0216400Y0183252D01*
X0216400Y0181654D02*
X0235420Y0181654D01*
X0235420Y0180055D02*
X0216240Y0180055D01*
X0205760Y0180055D02*
X0167493Y0180055D01*
X0167493Y0178457D02*
X0235420Y0178457D01*
X0235420Y0176858D02*
X0166740Y0176858D01*
X0165141Y0175259D02*
X0235420Y0175259D01*
X0235420Y0173661D02*
X0163543Y0173661D01*
X0161944Y0172062D02*
X0235420Y0172062D01*
X0235420Y0170464D02*
X0160550Y0170464D01*
X0160540Y0168865D02*
X0235420Y0168865D01*
X0235420Y0167267D02*
X0159878Y0167267D01*
X0157927Y0165668D02*
X0235420Y0165668D01*
X0235420Y0164070D02*
X0158160Y0164070D01*
X0159758Y0162471D02*
X0220648Y0162471D01*
X0219049Y0160873D02*
X0160550Y0160873D01*
X0160550Y0159274D02*
X0184045Y0159274D01*
X0182446Y0157676D02*
X0160316Y0157676D01*
X0158717Y0156077D02*
X0181450Y0156077D01*
X0187955Y0159274D02*
X0218091Y0159274D01*
X0217429Y0157676D02*
X0189554Y0157676D01*
X0190550Y0156077D02*
X0217310Y0156077D01*
X0230171Y0162471D02*
X0235420Y0162471D01*
X0235420Y0160873D02*
X0231770Y0160873D01*
X0232728Y0159274D02*
X0235420Y0159274D01*
X0235420Y0157676D02*
X0233390Y0157676D01*
X0233509Y0156077D02*
X0235420Y0156077D01*
X0205600Y0181654D02*
X0167493Y0181654D01*
X0167493Y0183252D02*
X0205600Y0183252D01*
X0179943Y0184851D02*
X0168043Y0184851D01*
X0168043Y0186449D02*
X0179943Y0186449D01*
X0179943Y0188048D02*
X0168043Y0188048D01*
X0168043Y0189646D02*
X0179943Y0189646D01*
X0179943Y0191245D02*
X0168043Y0191245D01*
M02*
