G75*
%MOIN*%
%OFA0B0*%
%FSLAX25Y25*%
%IPPOS*%
%LPD*%
%AMOC8*
5,1,8,0,0,1.08239X$1,22.5*
%
%ADD10C,0.00000*%
%ADD11C,0.00400*%
%ADD12C,0.01200*%
%ADD13C,0.00600*%
%ADD14C,0.00500*%
%ADD15C,0.00800*%
%ADD16C,0.00100*%
%ADD17C,0.00700*%
D10*
X0016748Y0029795D02*
X0221472Y0029795D01*
X0221853Y0029800D01*
X0222233Y0029813D01*
X0222613Y0029836D01*
X0222992Y0029869D01*
X0223370Y0029910D01*
X0223747Y0029960D01*
X0224123Y0030020D01*
X0224498Y0030088D01*
X0224870Y0030166D01*
X0225241Y0030253D01*
X0225609Y0030348D01*
X0225975Y0030453D01*
X0226338Y0030566D01*
X0226699Y0030688D01*
X0227056Y0030818D01*
X0227410Y0030958D01*
X0227761Y0031105D01*
X0228108Y0031262D01*
X0228451Y0031426D01*
X0228790Y0031599D01*
X0229125Y0031780D01*
X0229456Y0031969D01*
X0229781Y0032166D01*
X0230102Y0032370D01*
X0230418Y0032583D01*
X0230728Y0032803D01*
X0231034Y0033030D01*
X0231333Y0033265D01*
X0231627Y0033507D01*
X0231915Y0033755D01*
X0232197Y0034011D01*
X0232472Y0034274D01*
X0232741Y0034543D01*
X0233004Y0034818D01*
X0233260Y0035100D01*
X0233508Y0035388D01*
X0233750Y0035682D01*
X0233985Y0035981D01*
X0234212Y0036287D01*
X0234432Y0036597D01*
X0234645Y0036913D01*
X0234849Y0037234D01*
X0235046Y0037559D01*
X0235235Y0037890D01*
X0235416Y0038225D01*
X0235589Y0038564D01*
X0235753Y0038907D01*
X0235910Y0039254D01*
X0236057Y0039605D01*
X0236197Y0039959D01*
X0236327Y0040316D01*
X0236449Y0040677D01*
X0236562Y0041040D01*
X0236667Y0041406D01*
X0236762Y0041774D01*
X0236849Y0042145D01*
X0236927Y0042517D01*
X0236995Y0042892D01*
X0237055Y0043268D01*
X0237105Y0043645D01*
X0237146Y0044023D01*
X0237179Y0044402D01*
X0237202Y0044782D01*
X0237215Y0045162D01*
X0237220Y0045543D01*
X0237220Y0210897D01*
X0237215Y0211278D01*
X0237202Y0211658D01*
X0237179Y0212038D01*
X0237146Y0212417D01*
X0237105Y0212795D01*
X0237055Y0213172D01*
X0236995Y0213548D01*
X0236927Y0213923D01*
X0236849Y0214295D01*
X0236762Y0214666D01*
X0236667Y0215034D01*
X0236562Y0215400D01*
X0236449Y0215763D01*
X0236327Y0216124D01*
X0236197Y0216481D01*
X0236057Y0216835D01*
X0235910Y0217186D01*
X0235753Y0217533D01*
X0235589Y0217876D01*
X0235416Y0218215D01*
X0235235Y0218550D01*
X0235046Y0218881D01*
X0234849Y0219206D01*
X0234645Y0219527D01*
X0234432Y0219843D01*
X0234212Y0220153D01*
X0233985Y0220459D01*
X0233750Y0220758D01*
X0233508Y0221052D01*
X0233260Y0221340D01*
X0233004Y0221622D01*
X0232741Y0221897D01*
X0232472Y0222166D01*
X0232197Y0222429D01*
X0231915Y0222685D01*
X0231627Y0222933D01*
X0231333Y0223175D01*
X0231034Y0223410D01*
X0230728Y0223637D01*
X0230418Y0223857D01*
X0230102Y0224070D01*
X0229781Y0224274D01*
X0229456Y0224471D01*
X0229125Y0224660D01*
X0228790Y0224841D01*
X0228451Y0225014D01*
X0228108Y0225178D01*
X0227761Y0225335D01*
X0227410Y0225482D01*
X0227056Y0225622D01*
X0226699Y0225752D01*
X0226338Y0225874D01*
X0225975Y0225987D01*
X0225609Y0226092D01*
X0225241Y0226187D01*
X0224870Y0226274D01*
X0224498Y0226352D01*
X0224123Y0226420D01*
X0223747Y0226480D01*
X0223370Y0226530D01*
X0222992Y0226571D01*
X0222613Y0226604D01*
X0222233Y0226627D01*
X0221853Y0226640D01*
X0221472Y0226645D01*
X0016748Y0226645D01*
X0016367Y0226640D01*
X0015987Y0226627D01*
X0015607Y0226604D01*
X0015228Y0226571D01*
X0014850Y0226530D01*
X0014473Y0226480D01*
X0014097Y0226420D01*
X0013722Y0226352D01*
X0013350Y0226274D01*
X0012979Y0226187D01*
X0012611Y0226092D01*
X0012245Y0225987D01*
X0011882Y0225874D01*
X0011521Y0225752D01*
X0011164Y0225622D01*
X0010810Y0225482D01*
X0010459Y0225335D01*
X0010112Y0225178D01*
X0009769Y0225014D01*
X0009430Y0224841D01*
X0009095Y0224660D01*
X0008764Y0224471D01*
X0008439Y0224274D01*
X0008118Y0224070D01*
X0007802Y0223857D01*
X0007492Y0223637D01*
X0007186Y0223410D01*
X0006887Y0223175D01*
X0006593Y0222933D01*
X0006305Y0222685D01*
X0006023Y0222429D01*
X0005748Y0222166D01*
X0005479Y0221897D01*
X0005216Y0221622D01*
X0004960Y0221340D01*
X0004712Y0221052D01*
X0004470Y0220758D01*
X0004235Y0220459D01*
X0004008Y0220153D01*
X0003788Y0219843D01*
X0003575Y0219527D01*
X0003371Y0219206D01*
X0003174Y0218881D01*
X0002985Y0218550D01*
X0002804Y0218215D01*
X0002631Y0217876D01*
X0002467Y0217533D01*
X0002310Y0217186D01*
X0002163Y0216835D01*
X0002023Y0216481D01*
X0001893Y0216124D01*
X0001771Y0215763D01*
X0001658Y0215400D01*
X0001553Y0215034D01*
X0001458Y0214666D01*
X0001371Y0214295D01*
X0001293Y0213923D01*
X0001225Y0213548D01*
X0001165Y0213172D01*
X0001115Y0212795D01*
X0001074Y0212417D01*
X0001041Y0212038D01*
X0001018Y0211658D01*
X0001005Y0211278D01*
X0001000Y0210897D01*
X0001000Y0045543D01*
X0001005Y0045162D01*
X0001018Y0044782D01*
X0001041Y0044402D01*
X0001074Y0044023D01*
X0001115Y0043645D01*
X0001165Y0043268D01*
X0001225Y0042892D01*
X0001293Y0042517D01*
X0001371Y0042145D01*
X0001458Y0041774D01*
X0001553Y0041406D01*
X0001658Y0041040D01*
X0001771Y0040677D01*
X0001893Y0040316D01*
X0002023Y0039959D01*
X0002163Y0039605D01*
X0002310Y0039254D01*
X0002467Y0038907D01*
X0002631Y0038564D01*
X0002804Y0038225D01*
X0002985Y0037890D01*
X0003174Y0037559D01*
X0003371Y0037234D01*
X0003575Y0036913D01*
X0003788Y0036597D01*
X0004008Y0036287D01*
X0004235Y0035981D01*
X0004470Y0035682D01*
X0004712Y0035388D01*
X0004960Y0035100D01*
X0005216Y0034818D01*
X0005479Y0034543D01*
X0005748Y0034274D01*
X0006023Y0034011D01*
X0006305Y0033755D01*
X0006593Y0033507D01*
X0006887Y0033265D01*
X0007186Y0033030D01*
X0007492Y0032803D01*
X0007802Y0032583D01*
X0008118Y0032370D01*
X0008439Y0032166D01*
X0008764Y0031969D01*
X0009095Y0031780D01*
X0009430Y0031599D01*
X0009769Y0031426D01*
X0010112Y0031262D01*
X0010459Y0031105D01*
X0010810Y0030958D01*
X0011164Y0030818D01*
X0011521Y0030688D01*
X0011882Y0030566D01*
X0012245Y0030453D01*
X0012611Y0030348D01*
X0012979Y0030253D01*
X0013350Y0030166D01*
X0013722Y0030088D01*
X0014097Y0030020D01*
X0014473Y0029960D01*
X0014850Y0029910D01*
X0015228Y0029869D01*
X0015607Y0029836D01*
X0015987Y0029813D01*
X0016367Y0029800D01*
X0016748Y0029795D01*
X0006512Y0159716D02*
X0006514Y0159874D01*
X0006520Y0160032D01*
X0006530Y0160190D01*
X0006544Y0160348D01*
X0006562Y0160505D01*
X0006583Y0160662D01*
X0006609Y0160818D01*
X0006639Y0160974D01*
X0006672Y0161129D01*
X0006710Y0161282D01*
X0006751Y0161435D01*
X0006796Y0161587D01*
X0006845Y0161738D01*
X0006898Y0161887D01*
X0006954Y0162035D01*
X0007014Y0162181D01*
X0007078Y0162326D01*
X0007146Y0162469D01*
X0007217Y0162611D01*
X0007291Y0162751D01*
X0007369Y0162888D01*
X0007451Y0163024D01*
X0007535Y0163158D01*
X0007624Y0163289D01*
X0007715Y0163418D01*
X0007810Y0163545D01*
X0007907Y0163670D01*
X0008008Y0163792D01*
X0008112Y0163911D01*
X0008219Y0164028D01*
X0008329Y0164142D01*
X0008442Y0164253D01*
X0008557Y0164362D01*
X0008675Y0164467D01*
X0008796Y0164569D01*
X0008919Y0164669D01*
X0009045Y0164765D01*
X0009173Y0164858D01*
X0009303Y0164948D01*
X0009436Y0165034D01*
X0009571Y0165118D01*
X0009707Y0165197D01*
X0009846Y0165274D01*
X0009987Y0165346D01*
X0010129Y0165416D01*
X0010273Y0165481D01*
X0010419Y0165543D01*
X0010566Y0165601D01*
X0010715Y0165656D01*
X0010865Y0165707D01*
X0011016Y0165754D01*
X0011168Y0165797D01*
X0011321Y0165836D01*
X0011476Y0165872D01*
X0011631Y0165903D01*
X0011787Y0165931D01*
X0011943Y0165955D01*
X0012100Y0165975D01*
X0012258Y0165991D01*
X0012415Y0166003D01*
X0012574Y0166011D01*
X0012732Y0166015D01*
X0012890Y0166015D01*
X0013048Y0166011D01*
X0013207Y0166003D01*
X0013364Y0165991D01*
X0013522Y0165975D01*
X0013679Y0165955D01*
X0013835Y0165931D01*
X0013991Y0165903D01*
X0014146Y0165872D01*
X0014301Y0165836D01*
X0014454Y0165797D01*
X0014606Y0165754D01*
X0014757Y0165707D01*
X0014907Y0165656D01*
X0015056Y0165601D01*
X0015203Y0165543D01*
X0015349Y0165481D01*
X0015493Y0165416D01*
X0015635Y0165346D01*
X0015776Y0165274D01*
X0015915Y0165197D01*
X0016051Y0165118D01*
X0016186Y0165034D01*
X0016319Y0164948D01*
X0016449Y0164858D01*
X0016577Y0164765D01*
X0016703Y0164669D01*
X0016826Y0164569D01*
X0016947Y0164467D01*
X0017065Y0164362D01*
X0017180Y0164253D01*
X0017293Y0164142D01*
X0017403Y0164028D01*
X0017510Y0163911D01*
X0017614Y0163792D01*
X0017715Y0163670D01*
X0017812Y0163545D01*
X0017907Y0163418D01*
X0017998Y0163289D01*
X0018087Y0163158D01*
X0018171Y0163024D01*
X0018253Y0162888D01*
X0018331Y0162751D01*
X0018405Y0162611D01*
X0018476Y0162469D01*
X0018544Y0162326D01*
X0018608Y0162181D01*
X0018668Y0162035D01*
X0018724Y0161887D01*
X0018777Y0161738D01*
X0018826Y0161587D01*
X0018871Y0161435D01*
X0018912Y0161282D01*
X0018950Y0161129D01*
X0018983Y0160974D01*
X0019013Y0160818D01*
X0019039Y0160662D01*
X0019060Y0160505D01*
X0019078Y0160348D01*
X0019092Y0160190D01*
X0019102Y0160032D01*
X0019108Y0159874D01*
X0019110Y0159716D01*
X0019108Y0159558D01*
X0019102Y0159400D01*
X0019092Y0159242D01*
X0019078Y0159084D01*
X0019060Y0158927D01*
X0019039Y0158770D01*
X0019013Y0158614D01*
X0018983Y0158458D01*
X0018950Y0158303D01*
X0018912Y0158150D01*
X0018871Y0157997D01*
X0018826Y0157845D01*
X0018777Y0157694D01*
X0018724Y0157545D01*
X0018668Y0157397D01*
X0018608Y0157251D01*
X0018544Y0157106D01*
X0018476Y0156963D01*
X0018405Y0156821D01*
X0018331Y0156681D01*
X0018253Y0156544D01*
X0018171Y0156408D01*
X0018087Y0156274D01*
X0017998Y0156143D01*
X0017907Y0156014D01*
X0017812Y0155887D01*
X0017715Y0155762D01*
X0017614Y0155640D01*
X0017510Y0155521D01*
X0017403Y0155404D01*
X0017293Y0155290D01*
X0017180Y0155179D01*
X0017065Y0155070D01*
X0016947Y0154965D01*
X0016826Y0154863D01*
X0016703Y0154763D01*
X0016577Y0154667D01*
X0016449Y0154574D01*
X0016319Y0154484D01*
X0016186Y0154398D01*
X0016051Y0154314D01*
X0015915Y0154235D01*
X0015776Y0154158D01*
X0015635Y0154086D01*
X0015493Y0154016D01*
X0015349Y0153951D01*
X0015203Y0153889D01*
X0015056Y0153831D01*
X0014907Y0153776D01*
X0014757Y0153725D01*
X0014606Y0153678D01*
X0014454Y0153635D01*
X0014301Y0153596D01*
X0014146Y0153560D01*
X0013991Y0153529D01*
X0013835Y0153501D01*
X0013679Y0153477D01*
X0013522Y0153457D01*
X0013364Y0153441D01*
X0013207Y0153429D01*
X0013048Y0153421D01*
X0012890Y0153417D01*
X0012732Y0153417D01*
X0012574Y0153421D01*
X0012415Y0153429D01*
X0012258Y0153441D01*
X0012100Y0153457D01*
X0011943Y0153477D01*
X0011787Y0153501D01*
X0011631Y0153529D01*
X0011476Y0153560D01*
X0011321Y0153596D01*
X0011168Y0153635D01*
X0011016Y0153678D01*
X0010865Y0153725D01*
X0010715Y0153776D01*
X0010566Y0153831D01*
X0010419Y0153889D01*
X0010273Y0153951D01*
X0010129Y0154016D01*
X0009987Y0154086D01*
X0009846Y0154158D01*
X0009707Y0154235D01*
X0009571Y0154314D01*
X0009436Y0154398D01*
X0009303Y0154484D01*
X0009173Y0154574D01*
X0009045Y0154667D01*
X0008919Y0154763D01*
X0008796Y0154863D01*
X0008675Y0154965D01*
X0008557Y0155070D01*
X0008442Y0155179D01*
X0008329Y0155290D01*
X0008219Y0155404D01*
X0008112Y0155521D01*
X0008008Y0155640D01*
X0007907Y0155762D01*
X0007810Y0155887D01*
X0007715Y0156014D01*
X0007624Y0156143D01*
X0007535Y0156274D01*
X0007451Y0156408D01*
X0007369Y0156544D01*
X0007291Y0156681D01*
X0007217Y0156821D01*
X0007146Y0156963D01*
X0007078Y0157106D01*
X0007014Y0157251D01*
X0006954Y0157397D01*
X0006898Y0157545D01*
X0006845Y0157694D01*
X0006796Y0157845D01*
X0006751Y0157997D01*
X0006710Y0158150D01*
X0006672Y0158303D01*
X0006639Y0158458D01*
X0006609Y0158614D01*
X0006583Y0158770D01*
X0006562Y0158927D01*
X0006544Y0159084D01*
X0006530Y0159242D01*
X0006520Y0159400D01*
X0006514Y0159558D01*
X0006512Y0159716D01*
X0128559Y0084913D02*
X0128561Y0085071D01*
X0128567Y0085229D01*
X0128577Y0085387D01*
X0128591Y0085545D01*
X0128609Y0085702D01*
X0128630Y0085859D01*
X0128656Y0086015D01*
X0128686Y0086171D01*
X0128719Y0086326D01*
X0128757Y0086479D01*
X0128798Y0086632D01*
X0128843Y0086784D01*
X0128892Y0086935D01*
X0128945Y0087084D01*
X0129001Y0087232D01*
X0129061Y0087378D01*
X0129125Y0087523D01*
X0129193Y0087666D01*
X0129264Y0087808D01*
X0129338Y0087948D01*
X0129416Y0088085D01*
X0129498Y0088221D01*
X0129582Y0088355D01*
X0129671Y0088486D01*
X0129762Y0088615D01*
X0129857Y0088742D01*
X0129954Y0088867D01*
X0130055Y0088989D01*
X0130159Y0089108D01*
X0130266Y0089225D01*
X0130376Y0089339D01*
X0130489Y0089450D01*
X0130604Y0089559D01*
X0130722Y0089664D01*
X0130843Y0089766D01*
X0130966Y0089866D01*
X0131092Y0089962D01*
X0131220Y0090055D01*
X0131350Y0090145D01*
X0131483Y0090231D01*
X0131618Y0090315D01*
X0131754Y0090394D01*
X0131893Y0090471D01*
X0132034Y0090543D01*
X0132176Y0090613D01*
X0132320Y0090678D01*
X0132466Y0090740D01*
X0132613Y0090798D01*
X0132762Y0090853D01*
X0132912Y0090904D01*
X0133063Y0090951D01*
X0133215Y0090994D01*
X0133368Y0091033D01*
X0133523Y0091069D01*
X0133678Y0091100D01*
X0133834Y0091128D01*
X0133990Y0091152D01*
X0134147Y0091172D01*
X0134305Y0091188D01*
X0134462Y0091200D01*
X0134621Y0091208D01*
X0134779Y0091212D01*
X0134937Y0091212D01*
X0135095Y0091208D01*
X0135254Y0091200D01*
X0135411Y0091188D01*
X0135569Y0091172D01*
X0135726Y0091152D01*
X0135882Y0091128D01*
X0136038Y0091100D01*
X0136193Y0091069D01*
X0136348Y0091033D01*
X0136501Y0090994D01*
X0136653Y0090951D01*
X0136804Y0090904D01*
X0136954Y0090853D01*
X0137103Y0090798D01*
X0137250Y0090740D01*
X0137396Y0090678D01*
X0137540Y0090613D01*
X0137682Y0090543D01*
X0137823Y0090471D01*
X0137962Y0090394D01*
X0138098Y0090315D01*
X0138233Y0090231D01*
X0138366Y0090145D01*
X0138496Y0090055D01*
X0138624Y0089962D01*
X0138750Y0089866D01*
X0138873Y0089766D01*
X0138994Y0089664D01*
X0139112Y0089559D01*
X0139227Y0089450D01*
X0139340Y0089339D01*
X0139450Y0089225D01*
X0139557Y0089108D01*
X0139661Y0088989D01*
X0139762Y0088867D01*
X0139859Y0088742D01*
X0139954Y0088615D01*
X0140045Y0088486D01*
X0140134Y0088355D01*
X0140218Y0088221D01*
X0140300Y0088085D01*
X0140378Y0087948D01*
X0140452Y0087808D01*
X0140523Y0087666D01*
X0140591Y0087523D01*
X0140655Y0087378D01*
X0140715Y0087232D01*
X0140771Y0087084D01*
X0140824Y0086935D01*
X0140873Y0086784D01*
X0140918Y0086632D01*
X0140959Y0086479D01*
X0140997Y0086326D01*
X0141030Y0086171D01*
X0141060Y0086015D01*
X0141086Y0085859D01*
X0141107Y0085702D01*
X0141125Y0085545D01*
X0141139Y0085387D01*
X0141149Y0085229D01*
X0141155Y0085071D01*
X0141157Y0084913D01*
X0141155Y0084755D01*
X0141149Y0084597D01*
X0141139Y0084439D01*
X0141125Y0084281D01*
X0141107Y0084124D01*
X0141086Y0083967D01*
X0141060Y0083811D01*
X0141030Y0083655D01*
X0140997Y0083500D01*
X0140959Y0083347D01*
X0140918Y0083194D01*
X0140873Y0083042D01*
X0140824Y0082891D01*
X0140771Y0082742D01*
X0140715Y0082594D01*
X0140655Y0082448D01*
X0140591Y0082303D01*
X0140523Y0082160D01*
X0140452Y0082018D01*
X0140378Y0081878D01*
X0140300Y0081741D01*
X0140218Y0081605D01*
X0140134Y0081471D01*
X0140045Y0081340D01*
X0139954Y0081211D01*
X0139859Y0081084D01*
X0139762Y0080959D01*
X0139661Y0080837D01*
X0139557Y0080718D01*
X0139450Y0080601D01*
X0139340Y0080487D01*
X0139227Y0080376D01*
X0139112Y0080267D01*
X0138994Y0080162D01*
X0138873Y0080060D01*
X0138750Y0079960D01*
X0138624Y0079864D01*
X0138496Y0079771D01*
X0138366Y0079681D01*
X0138233Y0079595D01*
X0138098Y0079511D01*
X0137962Y0079432D01*
X0137823Y0079355D01*
X0137682Y0079283D01*
X0137540Y0079213D01*
X0137396Y0079148D01*
X0137250Y0079086D01*
X0137103Y0079028D01*
X0136954Y0078973D01*
X0136804Y0078922D01*
X0136653Y0078875D01*
X0136501Y0078832D01*
X0136348Y0078793D01*
X0136193Y0078757D01*
X0136038Y0078726D01*
X0135882Y0078698D01*
X0135726Y0078674D01*
X0135569Y0078654D01*
X0135411Y0078638D01*
X0135254Y0078626D01*
X0135095Y0078618D01*
X0134937Y0078614D01*
X0134779Y0078614D01*
X0134621Y0078618D01*
X0134462Y0078626D01*
X0134305Y0078638D01*
X0134147Y0078654D01*
X0133990Y0078674D01*
X0133834Y0078698D01*
X0133678Y0078726D01*
X0133523Y0078757D01*
X0133368Y0078793D01*
X0133215Y0078832D01*
X0133063Y0078875D01*
X0132912Y0078922D01*
X0132762Y0078973D01*
X0132613Y0079028D01*
X0132466Y0079086D01*
X0132320Y0079148D01*
X0132176Y0079213D01*
X0132034Y0079283D01*
X0131893Y0079355D01*
X0131754Y0079432D01*
X0131618Y0079511D01*
X0131483Y0079595D01*
X0131350Y0079681D01*
X0131220Y0079771D01*
X0131092Y0079864D01*
X0130966Y0079960D01*
X0130843Y0080060D01*
X0130722Y0080162D01*
X0130604Y0080267D01*
X0130489Y0080376D01*
X0130376Y0080487D01*
X0130266Y0080601D01*
X0130159Y0080718D01*
X0130055Y0080837D01*
X0129954Y0080959D01*
X0129857Y0081084D01*
X0129762Y0081211D01*
X0129671Y0081340D01*
X0129582Y0081471D01*
X0129498Y0081605D01*
X0129416Y0081741D01*
X0129338Y0081878D01*
X0129264Y0082018D01*
X0129193Y0082160D01*
X0129125Y0082303D01*
X0129061Y0082448D01*
X0129001Y0082594D01*
X0128945Y0082742D01*
X0128892Y0082891D01*
X0128843Y0083042D01*
X0128798Y0083194D01*
X0128757Y0083347D01*
X0128719Y0083500D01*
X0128686Y0083655D01*
X0128656Y0083811D01*
X0128630Y0083967D01*
X0128609Y0084124D01*
X0128591Y0084281D01*
X0128577Y0084439D01*
X0128567Y0084597D01*
X0128561Y0084755D01*
X0128559Y0084913D01*
X0219110Y0155779D02*
X0219112Y0155937D01*
X0219118Y0156095D01*
X0219128Y0156253D01*
X0219142Y0156411D01*
X0219160Y0156568D01*
X0219181Y0156725D01*
X0219207Y0156881D01*
X0219237Y0157037D01*
X0219270Y0157192D01*
X0219308Y0157345D01*
X0219349Y0157498D01*
X0219394Y0157650D01*
X0219443Y0157801D01*
X0219496Y0157950D01*
X0219552Y0158098D01*
X0219612Y0158244D01*
X0219676Y0158389D01*
X0219744Y0158532D01*
X0219815Y0158674D01*
X0219889Y0158814D01*
X0219967Y0158951D01*
X0220049Y0159087D01*
X0220133Y0159221D01*
X0220222Y0159352D01*
X0220313Y0159481D01*
X0220408Y0159608D01*
X0220505Y0159733D01*
X0220606Y0159855D01*
X0220710Y0159974D01*
X0220817Y0160091D01*
X0220927Y0160205D01*
X0221040Y0160316D01*
X0221155Y0160425D01*
X0221273Y0160530D01*
X0221394Y0160632D01*
X0221517Y0160732D01*
X0221643Y0160828D01*
X0221771Y0160921D01*
X0221901Y0161011D01*
X0222034Y0161097D01*
X0222169Y0161181D01*
X0222305Y0161260D01*
X0222444Y0161337D01*
X0222585Y0161409D01*
X0222727Y0161479D01*
X0222871Y0161544D01*
X0223017Y0161606D01*
X0223164Y0161664D01*
X0223313Y0161719D01*
X0223463Y0161770D01*
X0223614Y0161817D01*
X0223766Y0161860D01*
X0223919Y0161899D01*
X0224074Y0161935D01*
X0224229Y0161966D01*
X0224385Y0161994D01*
X0224541Y0162018D01*
X0224698Y0162038D01*
X0224856Y0162054D01*
X0225013Y0162066D01*
X0225172Y0162074D01*
X0225330Y0162078D01*
X0225488Y0162078D01*
X0225646Y0162074D01*
X0225805Y0162066D01*
X0225962Y0162054D01*
X0226120Y0162038D01*
X0226277Y0162018D01*
X0226433Y0161994D01*
X0226589Y0161966D01*
X0226744Y0161935D01*
X0226899Y0161899D01*
X0227052Y0161860D01*
X0227204Y0161817D01*
X0227355Y0161770D01*
X0227505Y0161719D01*
X0227654Y0161664D01*
X0227801Y0161606D01*
X0227947Y0161544D01*
X0228091Y0161479D01*
X0228233Y0161409D01*
X0228374Y0161337D01*
X0228513Y0161260D01*
X0228649Y0161181D01*
X0228784Y0161097D01*
X0228917Y0161011D01*
X0229047Y0160921D01*
X0229175Y0160828D01*
X0229301Y0160732D01*
X0229424Y0160632D01*
X0229545Y0160530D01*
X0229663Y0160425D01*
X0229778Y0160316D01*
X0229891Y0160205D01*
X0230001Y0160091D01*
X0230108Y0159974D01*
X0230212Y0159855D01*
X0230313Y0159733D01*
X0230410Y0159608D01*
X0230505Y0159481D01*
X0230596Y0159352D01*
X0230685Y0159221D01*
X0230769Y0159087D01*
X0230851Y0158951D01*
X0230929Y0158814D01*
X0231003Y0158674D01*
X0231074Y0158532D01*
X0231142Y0158389D01*
X0231206Y0158244D01*
X0231266Y0158098D01*
X0231322Y0157950D01*
X0231375Y0157801D01*
X0231424Y0157650D01*
X0231469Y0157498D01*
X0231510Y0157345D01*
X0231548Y0157192D01*
X0231581Y0157037D01*
X0231611Y0156881D01*
X0231637Y0156725D01*
X0231658Y0156568D01*
X0231676Y0156411D01*
X0231690Y0156253D01*
X0231700Y0156095D01*
X0231706Y0155937D01*
X0231708Y0155779D01*
X0231706Y0155621D01*
X0231700Y0155463D01*
X0231690Y0155305D01*
X0231676Y0155147D01*
X0231658Y0154990D01*
X0231637Y0154833D01*
X0231611Y0154677D01*
X0231581Y0154521D01*
X0231548Y0154366D01*
X0231510Y0154213D01*
X0231469Y0154060D01*
X0231424Y0153908D01*
X0231375Y0153757D01*
X0231322Y0153608D01*
X0231266Y0153460D01*
X0231206Y0153314D01*
X0231142Y0153169D01*
X0231074Y0153026D01*
X0231003Y0152884D01*
X0230929Y0152744D01*
X0230851Y0152607D01*
X0230769Y0152471D01*
X0230685Y0152337D01*
X0230596Y0152206D01*
X0230505Y0152077D01*
X0230410Y0151950D01*
X0230313Y0151825D01*
X0230212Y0151703D01*
X0230108Y0151584D01*
X0230001Y0151467D01*
X0229891Y0151353D01*
X0229778Y0151242D01*
X0229663Y0151133D01*
X0229545Y0151028D01*
X0229424Y0150926D01*
X0229301Y0150826D01*
X0229175Y0150730D01*
X0229047Y0150637D01*
X0228917Y0150547D01*
X0228784Y0150461D01*
X0228649Y0150377D01*
X0228513Y0150298D01*
X0228374Y0150221D01*
X0228233Y0150149D01*
X0228091Y0150079D01*
X0227947Y0150014D01*
X0227801Y0149952D01*
X0227654Y0149894D01*
X0227505Y0149839D01*
X0227355Y0149788D01*
X0227204Y0149741D01*
X0227052Y0149698D01*
X0226899Y0149659D01*
X0226744Y0149623D01*
X0226589Y0149592D01*
X0226433Y0149564D01*
X0226277Y0149540D01*
X0226120Y0149520D01*
X0225962Y0149504D01*
X0225805Y0149492D01*
X0225646Y0149484D01*
X0225488Y0149480D01*
X0225330Y0149480D01*
X0225172Y0149484D01*
X0225013Y0149492D01*
X0224856Y0149504D01*
X0224698Y0149520D01*
X0224541Y0149540D01*
X0224385Y0149564D01*
X0224229Y0149592D01*
X0224074Y0149623D01*
X0223919Y0149659D01*
X0223766Y0149698D01*
X0223614Y0149741D01*
X0223463Y0149788D01*
X0223313Y0149839D01*
X0223164Y0149894D01*
X0223017Y0149952D01*
X0222871Y0150014D01*
X0222727Y0150079D01*
X0222585Y0150149D01*
X0222444Y0150221D01*
X0222305Y0150298D01*
X0222169Y0150377D01*
X0222034Y0150461D01*
X0221901Y0150547D01*
X0221771Y0150637D01*
X0221643Y0150730D01*
X0221517Y0150826D01*
X0221394Y0150926D01*
X0221273Y0151028D01*
X0221155Y0151133D01*
X0221040Y0151242D01*
X0220927Y0151353D01*
X0220817Y0151467D01*
X0220710Y0151584D01*
X0220606Y0151703D01*
X0220505Y0151825D01*
X0220408Y0151950D01*
X0220313Y0152077D01*
X0220222Y0152206D01*
X0220133Y0152337D01*
X0220049Y0152471D01*
X0219967Y0152607D01*
X0219889Y0152744D01*
X0219815Y0152884D01*
X0219744Y0153026D01*
X0219676Y0153169D01*
X0219612Y0153314D01*
X0219552Y0153460D01*
X0219496Y0153608D01*
X0219443Y0153757D01*
X0219394Y0153908D01*
X0219349Y0154060D01*
X0219308Y0154213D01*
X0219270Y0154366D01*
X0219237Y0154521D01*
X0219207Y0154677D01*
X0219181Y0154833D01*
X0219160Y0154990D01*
X0219142Y0155147D01*
X0219128Y0155305D01*
X0219118Y0155463D01*
X0219112Y0155621D01*
X0219110Y0155779D01*
D11*
X0201769Y0129599D02*
X0201769Y0126530D01*
X0200235Y0124995D01*
X0198700Y0126530D01*
X0198700Y0129599D01*
X0197165Y0129599D02*
X0197165Y0124995D01*
X0197165Y0127297D02*
X0194096Y0127297D01*
X0194096Y0124995D02*
X0194096Y0129599D01*
X0194096Y0109599D02*
X0194096Y0104995D01*
X0197165Y0104995D01*
X0198700Y0106530D02*
X0198700Y0109599D01*
X0201769Y0109599D02*
X0201769Y0106530D01*
X0200235Y0104995D01*
X0198700Y0106530D01*
X0197858Y0089599D02*
X0196324Y0088064D01*
X0197858Y0089599D02*
X0197858Y0084995D01*
X0196324Y0084995D02*
X0199393Y0084995D01*
X0194789Y0089599D02*
X0191720Y0089599D01*
X0191720Y0084995D01*
X0190185Y0084995D02*
X0190185Y0089599D01*
X0190185Y0087297D02*
X0187116Y0087297D01*
X0185581Y0086530D02*
X0185581Y0085762D01*
X0184814Y0084995D01*
X0183279Y0084995D01*
X0182512Y0085762D01*
X0180977Y0084995D02*
X0177908Y0084995D01*
X0177908Y0089599D01*
X0176373Y0089599D02*
X0176373Y0086530D01*
X0174839Y0084995D01*
X0173304Y0086530D01*
X0173304Y0089599D01*
X0171769Y0084995D02*
X0168700Y0084995D01*
X0168700Y0089599D01*
X0182512Y0088832D02*
X0182512Y0088064D01*
X0183279Y0087297D01*
X0184814Y0087297D01*
X0185581Y0086530D01*
X0187116Y0084995D02*
X0187116Y0089599D01*
X0185581Y0088832D02*
X0184814Y0089599D01*
X0183279Y0089599D01*
X0182512Y0088832D01*
X0191720Y0087297D02*
X0193254Y0087297D01*
X0196963Y0073460D02*
X0197731Y0073460D01*
X0198498Y0072693D01*
X0199265Y0073460D01*
X0200033Y0073460D01*
X0200800Y0072693D01*
X0200800Y0071158D01*
X0200033Y0070391D01*
X0200800Y0068856D02*
X0200800Y0065787D01*
X0200800Y0064252D02*
X0199265Y0062718D01*
X0199265Y0063485D02*
X0199265Y0061183D01*
X0200800Y0061183D02*
X0196196Y0061183D01*
X0196196Y0063485D01*
X0196963Y0064252D01*
X0198498Y0064252D01*
X0199265Y0063485D01*
X0197731Y0065787D02*
X0196196Y0067322D01*
X0200800Y0067322D01*
X0198498Y0071926D02*
X0198498Y0072693D01*
X0196963Y0073460D02*
X0196196Y0072693D01*
X0196196Y0071158D01*
X0196963Y0070391D01*
X0193300Y0066125D02*
X0190698Y0066125D01*
X0190698Y0066992D02*
X0190698Y0065257D01*
X0191131Y0064230D02*
X0190698Y0063796D01*
X0190698Y0062929D01*
X0191131Y0062495D01*
X0192866Y0062495D01*
X0193300Y0062929D01*
X0193300Y0063796D01*
X0192866Y0064230D01*
X0191131Y0064230D01*
X0191131Y0061467D02*
X0190698Y0061034D01*
X0190698Y0060166D01*
X0191131Y0059733D01*
X0192866Y0059733D01*
X0193300Y0060166D01*
X0193300Y0061034D01*
X0192866Y0061467D01*
X0191131Y0061467D01*
X0191131Y0058705D02*
X0191565Y0058705D01*
X0191999Y0058271D01*
X0191999Y0056970D01*
X0193300Y0056970D02*
X0190698Y0056970D01*
X0190698Y0058271D01*
X0191131Y0058705D01*
X0191999Y0058271D02*
X0192433Y0058705D01*
X0192866Y0058705D01*
X0193300Y0058271D01*
X0193300Y0056970D01*
X0192866Y0050611D02*
X0191999Y0050611D01*
X0191999Y0049744D01*
X0192866Y0050611D02*
X0193300Y0050177D01*
X0193300Y0049310D01*
X0192866Y0048876D01*
X0191131Y0048876D01*
X0190698Y0049310D01*
X0190698Y0050177D01*
X0191131Y0050611D01*
X0191131Y0047849D02*
X0191999Y0047849D01*
X0192433Y0047415D01*
X0192433Y0046114D01*
X0193300Y0046114D02*
X0190698Y0046114D01*
X0190698Y0047415D01*
X0191131Y0047849D01*
X0192433Y0046981D02*
X0193300Y0047849D01*
X0191999Y0045086D02*
X0192433Y0044653D01*
X0192433Y0043351D01*
X0193300Y0043351D02*
X0190698Y0043351D01*
X0190698Y0044653D01*
X0191131Y0045086D01*
X0191999Y0045086D01*
X0204888Y0041730D02*
X0204888Y0039995D01*
X0204888Y0041296D02*
X0206623Y0041296D01*
X0206623Y0041730D02*
X0206623Y0039995D01*
X0206623Y0041730D02*
X0205756Y0042597D01*
X0204888Y0041730D01*
X0207651Y0042597D02*
X0209385Y0042597D01*
X0208518Y0042597D02*
X0208518Y0039995D01*
X0210413Y0039995D02*
X0210413Y0042597D01*
X0211280Y0041730D01*
X0212148Y0042597D01*
X0212148Y0039995D01*
X0213175Y0039995D02*
X0214910Y0039995D01*
X0215938Y0040429D02*
X0216371Y0039995D01*
X0217239Y0039995D01*
X0217672Y0040429D01*
X0217672Y0041296D01*
X0216805Y0041296D01*
X0215938Y0042163D02*
X0215938Y0040429D01*
X0215938Y0042163D02*
X0216371Y0042597D01*
X0217239Y0042597D01*
X0217672Y0042163D01*
X0218700Y0041730D02*
X0219567Y0042597D01*
X0220435Y0041730D01*
X0220435Y0039995D01*
X0221462Y0039561D02*
X0223197Y0039561D01*
X0224225Y0039995D02*
X0224225Y0042597D01*
X0225526Y0042597D01*
X0225959Y0042163D01*
X0225959Y0041296D01*
X0225526Y0040862D01*
X0224225Y0040862D01*
X0225092Y0040862D02*
X0225959Y0039995D01*
X0226987Y0040429D02*
X0227421Y0039995D01*
X0228288Y0039995D01*
X0228722Y0040429D01*
X0228722Y0040862D01*
X0228288Y0041296D01*
X0227421Y0041296D01*
X0226987Y0041730D01*
X0226987Y0042163D01*
X0227421Y0042597D01*
X0228288Y0042597D01*
X0228722Y0042163D01*
X0229749Y0042597D02*
X0231484Y0042597D01*
X0230617Y0042597D02*
X0230617Y0039995D01*
X0220435Y0041296D02*
X0218700Y0041296D01*
X0218700Y0041730D02*
X0218700Y0039995D01*
X0214910Y0042597D02*
X0213175Y0042597D01*
X0213175Y0039995D01*
X0213175Y0041296D02*
X0214043Y0041296D01*
X0168031Y0041730D02*
X0167164Y0039995D01*
X0166296Y0041730D01*
X0165269Y0041730D02*
X0164835Y0041296D01*
X0165269Y0040862D01*
X0165269Y0040429D01*
X0164835Y0039995D01*
X0163968Y0039995D01*
X0163534Y0040429D01*
X0162587Y0040429D02*
X0162587Y0039995D01*
X0162153Y0039995D01*
X0162153Y0040429D01*
X0162587Y0040429D01*
X0161125Y0040429D02*
X0161125Y0040862D01*
X0160692Y0041296D01*
X0160258Y0041296D01*
X0160692Y0041296D02*
X0161125Y0041730D01*
X0161125Y0042163D01*
X0160692Y0042597D01*
X0159824Y0042597D01*
X0159391Y0042163D01*
X0159391Y0040429D02*
X0159824Y0039995D01*
X0160692Y0039995D01*
X0161125Y0040429D01*
X0158363Y0039561D02*
X0156628Y0039561D01*
X0155167Y0040862D02*
X0153866Y0040862D01*
X0153866Y0039995D02*
X0153866Y0042597D01*
X0155167Y0042597D01*
X0155601Y0042163D01*
X0155601Y0041296D01*
X0155167Y0040862D01*
X0152838Y0040862D02*
X0152838Y0040429D01*
X0152405Y0039995D01*
X0151537Y0039995D01*
X0151104Y0040429D01*
X0151537Y0041296D02*
X0152405Y0041296D01*
X0152838Y0040862D01*
X0152838Y0042163D02*
X0152405Y0042597D01*
X0151537Y0042597D01*
X0151104Y0042163D01*
X0151104Y0041730D01*
X0151537Y0041296D01*
X0150076Y0039995D02*
X0148341Y0039995D01*
X0148341Y0042597D01*
X0150076Y0042597D01*
X0149209Y0041296D02*
X0148341Y0041296D01*
X0148700Y0044995D02*
X0150435Y0047597D01*
X0148700Y0047597D02*
X0150435Y0044995D01*
X0147672Y0044995D02*
X0146805Y0045862D01*
X0147239Y0045862D02*
X0145938Y0045862D01*
X0145938Y0044995D02*
X0145938Y0047597D01*
X0147239Y0047597D01*
X0147672Y0047163D01*
X0147672Y0046296D01*
X0147239Y0045862D01*
X0163438Y0047597D02*
X0165172Y0047597D01*
X0164305Y0047597D02*
X0164305Y0044995D01*
X0166200Y0044995D02*
X0167935Y0047597D01*
X0166200Y0047597D02*
X0167935Y0044995D01*
X0165269Y0042163D02*
X0165269Y0041730D01*
X0165269Y0042163D02*
X0164835Y0042597D01*
X0163968Y0042597D01*
X0163534Y0042163D01*
X0164401Y0041296D02*
X0164835Y0041296D01*
X0124234Y0048614D02*
X0124234Y0050349D01*
X0123800Y0051376D02*
X0121198Y0051376D01*
X0121198Y0052677D01*
X0121631Y0053111D01*
X0122499Y0053111D01*
X0122933Y0052677D01*
X0122933Y0051376D01*
X0122933Y0052244D02*
X0123800Y0053111D01*
X0123366Y0054138D02*
X0123800Y0054572D01*
X0123800Y0055440D01*
X0123366Y0055873D01*
X0122933Y0055873D01*
X0122499Y0055440D01*
X0122499Y0054572D01*
X0122065Y0054138D01*
X0121631Y0054138D01*
X0121198Y0054572D01*
X0121198Y0055440D01*
X0121631Y0055873D01*
X0121198Y0056901D02*
X0121198Y0058636D01*
X0121198Y0057768D02*
X0123800Y0057768D01*
X0122499Y0047586D02*
X0122933Y0047153D01*
X0122933Y0045851D01*
X0123800Y0045851D02*
X0121198Y0045851D01*
X0121198Y0047153D01*
X0121631Y0047586D01*
X0122499Y0047586D01*
X0122933Y0044824D02*
X0123366Y0044824D01*
X0123800Y0044390D01*
X0123800Y0043523D01*
X0123366Y0043089D01*
X0122499Y0043523D02*
X0122499Y0044390D01*
X0122933Y0044824D01*
X0121631Y0044824D02*
X0121198Y0044390D01*
X0121198Y0043523D01*
X0121631Y0043089D01*
X0122065Y0043089D01*
X0122499Y0043523D01*
X0123800Y0042062D02*
X0123800Y0040327D01*
X0121198Y0040327D01*
X0121198Y0042062D01*
X0122499Y0041194D02*
X0122499Y0040327D01*
X0068757Y0065153D02*
X0068757Y0068223D01*
X0067989Y0069757D02*
X0068757Y0070525D01*
X0068757Y0072059D01*
X0067989Y0072827D01*
X0067222Y0072827D01*
X0066455Y0072059D01*
X0066455Y0070525D01*
X0065688Y0069757D01*
X0064920Y0069757D01*
X0064153Y0070525D01*
X0064153Y0072059D01*
X0064920Y0072827D01*
X0064153Y0074361D02*
X0064153Y0076663D01*
X0064920Y0077430D01*
X0066455Y0077430D01*
X0067222Y0076663D01*
X0067222Y0074361D01*
X0068757Y0074361D02*
X0064153Y0074361D01*
X0066455Y0078965D02*
X0066455Y0082034D01*
X0065688Y0083569D02*
X0064153Y0085104D01*
X0068757Y0085104D01*
X0068757Y0086638D02*
X0068757Y0083569D01*
X0068757Y0088173D02*
X0065688Y0091242D01*
X0064920Y0091242D01*
X0064153Y0090475D01*
X0064153Y0088940D01*
X0064920Y0088173D01*
X0068757Y0088173D02*
X0068757Y0091242D01*
X0068757Y0092777D02*
X0068757Y0095846D01*
X0066455Y0094311D02*
X0066455Y0092777D01*
X0064153Y0092777D02*
X0068757Y0092777D01*
X0064153Y0092777D02*
X0064153Y0095846D01*
X0044665Y0112495D02*
X0041596Y0112495D01*
X0040061Y0112495D02*
X0036992Y0112495D01*
X0035457Y0112495D02*
X0033923Y0114030D01*
X0034690Y0114030D02*
X0032388Y0114030D01*
X0032388Y0112495D02*
X0032388Y0117099D01*
X0034690Y0117099D01*
X0035457Y0116332D01*
X0035457Y0114797D01*
X0034690Y0114030D01*
X0036992Y0115564D02*
X0038527Y0117099D01*
X0038527Y0112495D01*
X0041596Y0115564D02*
X0043131Y0117099D01*
X0043131Y0112495D01*
X0024665Y0114995D02*
X0021596Y0114995D01*
X0023131Y0114995D02*
X0023131Y0119599D01*
X0021596Y0118064D01*
X0020061Y0118832D02*
X0020061Y0115762D01*
X0019294Y0114995D01*
X0016992Y0114995D01*
X0016992Y0119599D01*
X0019294Y0119599D01*
X0020061Y0118832D01*
X0015457Y0119599D02*
X0012388Y0119599D01*
X0012388Y0114995D01*
X0015457Y0114995D01*
X0013923Y0117297D02*
X0012388Y0117297D01*
X0010854Y0114995D02*
X0007784Y0114995D01*
X0007784Y0119599D01*
X0029199Y0170369D02*
X0029199Y0174973D01*
X0031501Y0174973D01*
X0032269Y0174206D01*
X0032269Y0172671D01*
X0031501Y0171904D01*
X0029199Y0171904D01*
X0030734Y0171904D02*
X0032269Y0170369D01*
X0033803Y0170369D02*
X0036872Y0170369D01*
X0035338Y0170369D02*
X0035338Y0174973D01*
X0033803Y0173438D01*
X0038407Y0174206D02*
X0039174Y0174973D01*
X0040709Y0174973D01*
X0041476Y0174206D01*
X0041476Y0173438D01*
X0038407Y0170369D01*
X0041476Y0170369D01*
X0049463Y0148460D02*
X0052533Y0145391D01*
X0053300Y0146158D01*
X0053300Y0147693D01*
X0052533Y0148460D01*
X0049463Y0148460D01*
X0048696Y0147693D01*
X0048696Y0146158D01*
X0049463Y0145391D01*
X0052533Y0145391D01*
X0053300Y0143856D02*
X0053300Y0140787D01*
X0053300Y0139252D02*
X0051765Y0137718D01*
X0051765Y0138485D02*
X0051765Y0136183D01*
X0053300Y0136183D02*
X0048696Y0136183D01*
X0048696Y0138485D01*
X0049463Y0139252D01*
X0050998Y0139252D01*
X0051765Y0138485D01*
X0050231Y0140787D02*
X0048696Y0142322D01*
X0053300Y0142322D01*
X0068700Y0192495D02*
X0071002Y0192495D01*
X0071769Y0193262D01*
X0071769Y0194030D01*
X0071002Y0194797D01*
X0068700Y0194797D01*
X0068700Y0197099D02*
X0071002Y0197099D01*
X0071769Y0196332D01*
X0071769Y0195564D01*
X0071002Y0194797D01*
X0073304Y0195564D02*
X0074839Y0197099D01*
X0074839Y0192495D01*
X0076373Y0192495D02*
X0073304Y0192495D01*
X0068700Y0192495D02*
X0068700Y0197099D01*
X0109467Y0139599D02*
X0108700Y0138832D01*
X0108700Y0135762D01*
X0109467Y0134995D01*
X0111002Y0134995D01*
X0111769Y0135762D01*
X0113304Y0135762D02*
X0114071Y0134995D01*
X0115606Y0134995D01*
X0116373Y0135762D01*
X0116373Y0137297D01*
X0115606Y0138064D01*
X0114839Y0138064D01*
X0113304Y0137297D01*
X0113304Y0139599D01*
X0116373Y0139599D01*
X0111769Y0138832D02*
X0111002Y0139599D01*
X0109467Y0139599D01*
X0111992Y0159995D02*
X0111992Y0164599D01*
X0114294Y0164599D01*
X0115061Y0163832D01*
X0115061Y0162297D01*
X0114294Y0161530D01*
X0111992Y0161530D01*
X0113527Y0161530D02*
X0115061Y0159995D01*
X0116596Y0159995D02*
X0116596Y0160762D01*
X0119665Y0163832D01*
X0119665Y0164599D01*
X0116596Y0164599D01*
X0117363Y0167495D02*
X0116596Y0168262D01*
X0116596Y0169797D01*
X0118898Y0169797D01*
X0119665Y0169030D01*
X0119665Y0168262D01*
X0118898Y0167495D01*
X0117363Y0167495D01*
X0115061Y0167495D02*
X0113527Y0169030D01*
X0114294Y0169030D02*
X0111992Y0169030D01*
X0111992Y0167495D02*
X0111992Y0172099D01*
X0114294Y0172099D01*
X0115061Y0171332D01*
X0115061Y0169797D01*
X0114294Y0169030D01*
X0116596Y0169797D02*
X0118131Y0171332D01*
X0119665Y0172099D01*
X0122631Y0178351D02*
X0124366Y0178351D01*
X0124800Y0178785D01*
X0124800Y0179653D01*
X0124366Y0180086D01*
X0123499Y0180086D01*
X0123499Y0179219D01*
X0122631Y0180086D02*
X0122198Y0179653D01*
X0122198Y0178785D01*
X0122631Y0178351D01*
X0122198Y0181114D02*
X0124800Y0182849D01*
X0122198Y0182849D01*
X0122198Y0183876D02*
X0122198Y0185177D01*
X0122631Y0185611D01*
X0124366Y0185611D01*
X0124800Y0185177D01*
X0124800Y0183876D01*
X0122198Y0183876D01*
X0122198Y0181114D02*
X0124800Y0181114D01*
X0124366Y0189733D02*
X0124800Y0190166D01*
X0124800Y0191034D01*
X0124366Y0191467D01*
X0123499Y0191467D01*
X0123065Y0191034D01*
X0123065Y0190600D01*
X0123499Y0189733D01*
X0122198Y0189733D01*
X0122198Y0191467D01*
X0123065Y0192495D02*
X0124800Y0193362D01*
X0123065Y0194230D01*
X0122198Y0209733D02*
X0122198Y0211467D01*
X0122198Y0210600D02*
X0124800Y0210600D01*
X0124800Y0212495D02*
X0122198Y0214230D01*
X0122198Y0212495D02*
X0124800Y0214230D01*
X0137198Y0213665D02*
X0137198Y0212364D01*
X0139800Y0212364D01*
X0139800Y0213665D01*
X0139366Y0214099D01*
X0137631Y0214099D01*
X0137198Y0213665D01*
X0138065Y0215126D02*
X0137198Y0215994D01*
X0138065Y0216861D01*
X0139800Y0216861D01*
X0138499Y0216861D02*
X0138499Y0215126D01*
X0138065Y0215126D02*
X0139800Y0215126D01*
X0139366Y0211336D02*
X0139800Y0210903D01*
X0139800Y0210035D01*
X0139366Y0209601D01*
X0138499Y0210035D02*
X0138499Y0210903D01*
X0138933Y0211336D01*
X0139366Y0211336D01*
X0138499Y0210035D02*
X0138065Y0209601D01*
X0137631Y0209601D01*
X0137198Y0210035D01*
X0137198Y0210903D01*
X0137631Y0211336D01*
X0139800Y0206861D02*
X0139800Y0205126D01*
X0137198Y0205126D01*
X0137631Y0204099D02*
X0137198Y0203665D01*
X0137198Y0202797D01*
X0137631Y0202364D01*
X0139366Y0202364D01*
X0139800Y0202797D01*
X0139800Y0203665D01*
X0139366Y0204099D01*
X0139366Y0201336D02*
X0139800Y0200903D01*
X0139800Y0200035D01*
X0139366Y0199601D01*
X0138499Y0200035D02*
X0138499Y0200903D01*
X0138933Y0201336D01*
X0139366Y0201336D01*
X0138499Y0200035D02*
X0138065Y0199601D01*
X0137631Y0199601D01*
X0137198Y0200035D01*
X0137198Y0200903D01*
X0137631Y0201336D01*
X0138065Y0194230D02*
X0139800Y0193362D01*
X0138065Y0192495D01*
X0138499Y0191467D02*
X0138065Y0191034D01*
X0138065Y0190600D01*
X0138499Y0189733D01*
X0137198Y0189733D01*
X0137198Y0191467D01*
X0138499Y0191467D02*
X0139366Y0191467D01*
X0139800Y0191034D01*
X0139800Y0190166D01*
X0139366Y0189733D01*
X0139366Y0185611D02*
X0137631Y0185611D01*
X0137198Y0185177D01*
X0137198Y0183876D01*
X0139800Y0183876D01*
X0139800Y0185177D01*
X0139366Y0185611D01*
X0139800Y0182849D02*
X0137198Y0182849D01*
X0137198Y0181114D02*
X0139800Y0182849D01*
X0139800Y0181114D02*
X0137198Y0181114D01*
X0137631Y0180086D02*
X0137198Y0179653D01*
X0137198Y0178785D01*
X0137631Y0178351D01*
X0139366Y0178351D01*
X0139800Y0178785D01*
X0139800Y0179653D01*
X0139366Y0180086D01*
X0138499Y0180086D01*
X0138499Y0179219D01*
X0152198Y0179653D02*
X0152198Y0178785D01*
X0152631Y0178351D01*
X0154366Y0178351D01*
X0154800Y0178785D01*
X0154800Y0179653D01*
X0154366Y0180086D01*
X0153499Y0180086D01*
X0153499Y0179219D01*
X0152631Y0180086D02*
X0152198Y0179653D01*
X0152198Y0181114D02*
X0154800Y0182849D01*
X0152198Y0182849D01*
X0152198Y0183876D02*
X0152198Y0185177D01*
X0152631Y0185611D01*
X0154366Y0185611D01*
X0154800Y0185177D01*
X0154800Y0183876D01*
X0152198Y0183876D01*
X0152198Y0181114D02*
X0154800Y0181114D01*
X0154800Y0188351D02*
X0152198Y0188351D01*
X0152198Y0189653D01*
X0152631Y0190086D01*
X0153499Y0190086D01*
X0153933Y0189653D01*
X0153933Y0188351D01*
X0153933Y0189219D02*
X0154800Y0190086D01*
X0154800Y0191114D02*
X0154800Y0192849D01*
X0154800Y0193876D02*
X0153065Y0195611D01*
X0152631Y0195611D01*
X0152198Y0195177D01*
X0152198Y0194310D01*
X0152631Y0193876D01*
X0154800Y0193876D02*
X0154800Y0195611D01*
X0154800Y0198351D02*
X0152198Y0198351D01*
X0152198Y0199653D01*
X0152631Y0200086D01*
X0153499Y0200086D01*
X0153933Y0199653D01*
X0153933Y0198351D01*
X0153933Y0199219D02*
X0154800Y0200086D01*
X0154800Y0201114D02*
X0152198Y0201114D01*
X0154800Y0201114D02*
X0154800Y0202849D01*
X0154800Y0203876D02*
X0154800Y0205611D01*
X0154800Y0204744D02*
X0152198Y0204744D01*
X0153065Y0203876D01*
X0153499Y0209733D02*
X0152198Y0209733D01*
X0152198Y0211467D01*
X0153065Y0211034D02*
X0153499Y0211467D01*
X0154366Y0211467D01*
X0154800Y0211034D01*
X0154800Y0210166D01*
X0154366Y0209733D01*
X0153499Y0209733D02*
X0153065Y0210600D01*
X0153065Y0211034D01*
X0153065Y0212495D02*
X0154800Y0213362D01*
X0153065Y0214230D01*
X0152198Y0191114D02*
X0154800Y0191114D01*
X0143873Y0124599D02*
X0142339Y0123832D01*
X0140804Y0122297D01*
X0143106Y0122297D01*
X0143873Y0121530D01*
X0143873Y0120762D01*
X0143106Y0119995D01*
X0141571Y0119995D01*
X0140804Y0120762D01*
X0140804Y0122297D01*
X0139269Y0123832D02*
X0138502Y0124599D01*
X0136967Y0124599D01*
X0136200Y0123832D01*
X0136200Y0120762D01*
X0136967Y0119995D01*
X0138502Y0119995D01*
X0139269Y0120762D01*
X0068757Y0065153D02*
X0064153Y0065153D01*
X0064153Y0068223D01*
X0066455Y0066688D02*
X0066455Y0065153D01*
D12*
X0047432Y0179363D02*
X0047432Y0185235D01*
X0044496Y0182299D02*
X0050368Y0182299D01*
X0050368Y0207299D02*
X0044496Y0207299D01*
X0123047Y0218771D02*
X0123047Y0220740D01*
X0138795Y0220740D02*
X0138795Y0218771D01*
D13*
X0104851Y0210485D02*
X0104851Y0193989D01*
X0099351Y0193363D02*
X0099351Y0191784D01*
X0099351Y0201111D02*
X0099351Y0203363D01*
X0104851Y0210485D02*
X0104649Y0210640D01*
X0104444Y0210790D01*
X0104235Y0210936D01*
X0104022Y0211076D01*
X0103806Y0211210D01*
X0103587Y0211340D01*
X0103365Y0211464D01*
X0103140Y0211583D01*
X0102912Y0211696D01*
X0102682Y0211804D01*
X0102449Y0211906D01*
X0102213Y0212003D01*
X0101975Y0212094D01*
X0101736Y0212179D01*
X0101494Y0212258D01*
X0101250Y0212331D01*
X0101005Y0212398D01*
X0100758Y0212459D01*
X0100509Y0212515D01*
X0100259Y0212564D01*
X0100009Y0212607D01*
X0099757Y0212644D01*
X0099504Y0212675D01*
X0099251Y0212700D01*
X0098997Y0212719D01*
X0098743Y0212732D01*
X0098489Y0212738D01*
X0098234Y0212738D01*
X0097980Y0212732D01*
X0097725Y0212720D01*
X0097472Y0212702D01*
X0097218Y0212678D01*
X0096966Y0212647D01*
X0096714Y0212611D01*
X0096463Y0212568D01*
X0096213Y0212519D01*
X0095965Y0212464D01*
X0095718Y0212403D01*
X0095472Y0212337D01*
X0095228Y0212264D01*
X0094986Y0212185D01*
X0094746Y0212101D01*
X0094508Y0212010D01*
X0094272Y0211914D01*
X0094039Y0211813D01*
X0093808Y0211705D01*
X0093580Y0211593D01*
X0093355Y0211474D01*
X0093133Y0211350D01*
X0092913Y0211221D01*
X0092697Y0211087D01*
X0092484Y0210947D01*
X0092275Y0210802D01*
X0092069Y0210653D01*
X0091867Y0210498D01*
X0091669Y0210338D01*
X0091475Y0210174D01*
X0091284Y0210005D01*
X0091098Y0209832D01*
X0090916Y0209654D01*
X0090739Y0209471D01*
X0090566Y0209285D01*
X0090397Y0209094D01*
X0090233Y0208899D01*
X0090074Y0208700D01*
X0089920Y0208498D01*
X0089771Y0208292D01*
X0089627Y0208082D01*
X0089488Y0207869D01*
X0089354Y0207652D01*
X0089225Y0207433D01*
X0089102Y0207210D01*
X0088985Y0206984D01*
X0088872Y0206756D01*
X0088766Y0206525D01*
X0088664Y0206291D01*
X0088569Y0206055D01*
X0088480Y0205817D01*
X0088396Y0205577D01*
X0088318Y0205335D01*
X0088318Y0199141D02*
X0088396Y0198899D01*
X0088479Y0198659D01*
X0088569Y0198421D01*
X0088664Y0198185D01*
X0088766Y0197951D01*
X0088872Y0197720D01*
X0088984Y0197492D01*
X0089102Y0197266D01*
X0089225Y0197043D01*
X0089354Y0196824D01*
X0089488Y0196607D01*
X0089627Y0196394D01*
X0089771Y0196184D01*
X0089920Y0195978D01*
X0090074Y0195776D01*
X0090233Y0195577D01*
X0090397Y0195382D01*
X0090566Y0195192D01*
X0090739Y0195005D01*
X0090916Y0194823D01*
X0091098Y0194645D01*
X0091284Y0194471D01*
X0091475Y0194302D01*
X0091669Y0194138D01*
X0091867Y0193978D01*
X0092069Y0193823D01*
X0092275Y0193674D01*
X0092484Y0193529D01*
X0092697Y0193389D01*
X0092913Y0193255D01*
X0093132Y0193126D01*
X0093355Y0193002D01*
X0093580Y0192884D01*
X0093808Y0192771D01*
X0094039Y0192663D01*
X0094272Y0192562D01*
X0094508Y0192466D01*
X0094746Y0192375D01*
X0094986Y0192291D01*
X0095228Y0192212D01*
X0095472Y0192139D01*
X0095717Y0192073D01*
X0095964Y0192012D01*
X0096213Y0191957D01*
X0096463Y0191908D01*
X0096714Y0191865D01*
X0096965Y0191829D01*
X0097218Y0191798D01*
X0097471Y0191774D01*
X0097725Y0191756D01*
X0097979Y0191744D01*
X0098234Y0191738D01*
X0098488Y0191738D01*
X0098743Y0191744D01*
X0098997Y0191757D01*
X0099251Y0191776D01*
X0099504Y0191801D01*
X0099757Y0191832D01*
X0100008Y0191869D01*
X0100259Y0191912D01*
X0100509Y0191961D01*
X0100757Y0192016D01*
X0101004Y0192078D01*
X0101250Y0192145D01*
X0101493Y0192218D01*
X0101735Y0192297D01*
X0101975Y0192382D01*
X0102213Y0192473D01*
X0102449Y0192570D01*
X0102682Y0192672D01*
X0102912Y0192779D01*
X0103140Y0192893D01*
X0103365Y0193012D01*
X0103587Y0193136D01*
X0103806Y0193265D01*
X0104022Y0193400D01*
X0104235Y0193540D01*
X0104444Y0193685D01*
X0104649Y0193836D01*
X0104851Y0193991D01*
X0099351Y0211111D02*
X0099351Y0212690D01*
X0145000Y0164795D02*
X0145003Y0165065D01*
X0145013Y0165335D01*
X0145030Y0165604D01*
X0145053Y0165873D01*
X0145083Y0166142D01*
X0145119Y0166409D01*
X0145162Y0166676D01*
X0145211Y0166941D01*
X0145267Y0167205D01*
X0145330Y0167468D01*
X0145398Y0167729D01*
X0145474Y0167988D01*
X0145555Y0168245D01*
X0145643Y0168501D01*
X0145737Y0168754D01*
X0145837Y0169005D01*
X0145944Y0169253D01*
X0146056Y0169498D01*
X0146175Y0169741D01*
X0146299Y0169980D01*
X0146429Y0170217D01*
X0146565Y0170450D01*
X0146707Y0170680D01*
X0146854Y0170906D01*
X0147007Y0171129D01*
X0147165Y0171348D01*
X0147328Y0171563D01*
X0147497Y0171773D01*
X0147671Y0171980D01*
X0147850Y0172182D01*
X0148033Y0172380D01*
X0148222Y0172573D01*
X0148415Y0172762D01*
X0148613Y0172945D01*
X0148815Y0173124D01*
X0149022Y0173298D01*
X0149232Y0173467D01*
X0149447Y0173630D01*
X0149666Y0173788D01*
X0149889Y0173941D01*
X0150115Y0174088D01*
X0150345Y0174230D01*
X0150578Y0174366D01*
X0150815Y0174496D01*
X0151054Y0174620D01*
X0151297Y0174739D01*
X0151542Y0174851D01*
X0151790Y0174958D01*
X0152041Y0175058D01*
X0152294Y0175152D01*
X0152550Y0175240D01*
X0152807Y0175321D01*
X0153066Y0175397D01*
X0153327Y0175465D01*
X0153590Y0175528D01*
X0153854Y0175584D01*
X0154119Y0175633D01*
X0154386Y0175676D01*
X0154653Y0175712D01*
X0154922Y0175742D01*
X0155191Y0175765D01*
X0155460Y0175782D01*
X0155730Y0175792D01*
X0156000Y0175795D01*
X0156270Y0175792D01*
X0156540Y0175782D01*
X0156809Y0175765D01*
X0157078Y0175742D01*
X0157347Y0175712D01*
X0157614Y0175676D01*
X0157881Y0175633D01*
X0158146Y0175584D01*
X0158410Y0175528D01*
X0158673Y0175465D01*
X0158934Y0175397D01*
X0159193Y0175321D01*
X0159450Y0175240D01*
X0159706Y0175152D01*
X0159959Y0175058D01*
X0160210Y0174958D01*
X0160458Y0174851D01*
X0160703Y0174739D01*
X0160946Y0174620D01*
X0161185Y0174496D01*
X0161422Y0174366D01*
X0161655Y0174230D01*
X0161885Y0174088D01*
X0162111Y0173941D01*
X0162334Y0173788D01*
X0162553Y0173630D01*
X0162768Y0173467D01*
X0162978Y0173298D01*
X0163185Y0173124D01*
X0163387Y0172945D01*
X0163585Y0172762D01*
X0163778Y0172573D01*
X0163967Y0172380D01*
X0164150Y0172182D01*
X0164329Y0171980D01*
X0164503Y0171773D01*
X0164672Y0171563D01*
X0164835Y0171348D01*
X0164993Y0171129D01*
X0165146Y0170906D01*
X0165293Y0170680D01*
X0165435Y0170450D01*
X0165571Y0170217D01*
X0165701Y0169980D01*
X0165825Y0169741D01*
X0165944Y0169498D01*
X0166056Y0169253D01*
X0166163Y0169005D01*
X0166263Y0168754D01*
X0166357Y0168501D01*
X0166445Y0168245D01*
X0166526Y0167988D01*
X0166602Y0167729D01*
X0166670Y0167468D01*
X0166733Y0167205D01*
X0166789Y0166941D01*
X0166838Y0166676D01*
X0166881Y0166409D01*
X0166917Y0166142D01*
X0166947Y0165873D01*
X0166970Y0165604D01*
X0166987Y0165335D01*
X0166997Y0165065D01*
X0167000Y0164795D01*
X0166997Y0164525D01*
X0166987Y0164255D01*
X0166970Y0163986D01*
X0166947Y0163717D01*
X0166917Y0163448D01*
X0166881Y0163181D01*
X0166838Y0162914D01*
X0166789Y0162649D01*
X0166733Y0162385D01*
X0166670Y0162122D01*
X0166602Y0161861D01*
X0166526Y0161602D01*
X0166445Y0161345D01*
X0166357Y0161089D01*
X0166263Y0160836D01*
X0166163Y0160585D01*
X0166056Y0160337D01*
X0165944Y0160092D01*
X0165825Y0159849D01*
X0165701Y0159610D01*
X0165571Y0159373D01*
X0165435Y0159140D01*
X0165293Y0158910D01*
X0165146Y0158684D01*
X0164993Y0158461D01*
X0164835Y0158242D01*
X0164672Y0158027D01*
X0164503Y0157817D01*
X0164329Y0157610D01*
X0164150Y0157408D01*
X0163967Y0157210D01*
X0163778Y0157017D01*
X0163585Y0156828D01*
X0163387Y0156645D01*
X0163185Y0156466D01*
X0162978Y0156292D01*
X0162768Y0156123D01*
X0162553Y0155960D01*
X0162334Y0155802D01*
X0162111Y0155649D01*
X0161885Y0155502D01*
X0161655Y0155360D01*
X0161422Y0155224D01*
X0161185Y0155094D01*
X0160946Y0154970D01*
X0160703Y0154851D01*
X0160458Y0154739D01*
X0160210Y0154632D01*
X0159959Y0154532D01*
X0159706Y0154438D01*
X0159450Y0154350D01*
X0159193Y0154269D01*
X0158934Y0154193D01*
X0158673Y0154125D01*
X0158410Y0154062D01*
X0158146Y0154006D01*
X0157881Y0153957D01*
X0157614Y0153914D01*
X0157347Y0153878D01*
X0157078Y0153848D01*
X0156809Y0153825D01*
X0156540Y0153808D01*
X0156270Y0153798D01*
X0156000Y0153795D01*
X0155730Y0153798D01*
X0155460Y0153808D01*
X0155191Y0153825D01*
X0154922Y0153848D01*
X0154653Y0153878D01*
X0154386Y0153914D01*
X0154119Y0153957D01*
X0153854Y0154006D01*
X0153590Y0154062D01*
X0153327Y0154125D01*
X0153066Y0154193D01*
X0152807Y0154269D01*
X0152550Y0154350D01*
X0152294Y0154438D01*
X0152041Y0154532D01*
X0151790Y0154632D01*
X0151542Y0154739D01*
X0151297Y0154851D01*
X0151054Y0154970D01*
X0150815Y0155094D01*
X0150578Y0155224D01*
X0150345Y0155360D01*
X0150115Y0155502D01*
X0149889Y0155649D01*
X0149666Y0155802D01*
X0149447Y0155960D01*
X0149232Y0156123D01*
X0149022Y0156292D01*
X0148815Y0156466D01*
X0148613Y0156645D01*
X0148415Y0156828D01*
X0148222Y0157017D01*
X0148033Y0157210D01*
X0147850Y0157408D01*
X0147671Y0157610D01*
X0147497Y0157817D01*
X0147328Y0158027D01*
X0147165Y0158242D01*
X0147007Y0158461D01*
X0146854Y0158684D01*
X0146707Y0158910D01*
X0146565Y0159140D01*
X0146429Y0159373D01*
X0146299Y0159610D01*
X0146175Y0159849D01*
X0146056Y0160092D01*
X0145944Y0160337D01*
X0145837Y0160585D01*
X0145737Y0160836D01*
X0145643Y0161089D01*
X0145555Y0161345D01*
X0145474Y0161602D01*
X0145398Y0161861D01*
X0145330Y0162122D01*
X0145267Y0162385D01*
X0145211Y0162649D01*
X0145162Y0162914D01*
X0145119Y0163181D01*
X0145083Y0163448D01*
X0145053Y0163717D01*
X0145030Y0163986D01*
X0145013Y0164255D01*
X0145003Y0164525D01*
X0145000Y0164795D01*
X0159500Y0171295D02*
X0161000Y0171295D01*
X0162500Y0171295D01*
X0161000Y0171295D02*
X0161000Y0172795D01*
X0161000Y0171295D02*
X0161000Y0169795D01*
X0175000Y0159795D02*
X0175003Y0160065D01*
X0175013Y0160335D01*
X0175030Y0160604D01*
X0175053Y0160873D01*
X0175083Y0161142D01*
X0175119Y0161409D01*
X0175162Y0161676D01*
X0175211Y0161941D01*
X0175267Y0162205D01*
X0175330Y0162468D01*
X0175398Y0162729D01*
X0175474Y0162988D01*
X0175555Y0163245D01*
X0175643Y0163501D01*
X0175737Y0163754D01*
X0175837Y0164005D01*
X0175944Y0164253D01*
X0176056Y0164498D01*
X0176175Y0164741D01*
X0176299Y0164980D01*
X0176429Y0165217D01*
X0176565Y0165450D01*
X0176707Y0165680D01*
X0176854Y0165906D01*
X0177007Y0166129D01*
X0177165Y0166348D01*
X0177328Y0166563D01*
X0177497Y0166773D01*
X0177671Y0166980D01*
X0177850Y0167182D01*
X0178033Y0167380D01*
X0178222Y0167573D01*
X0178415Y0167762D01*
X0178613Y0167945D01*
X0178815Y0168124D01*
X0179022Y0168298D01*
X0179232Y0168467D01*
X0179447Y0168630D01*
X0179666Y0168788D01*
X0179889Y0168941D01*
X0180115Y0169088D01*
X0180345Y0169230D01*
X0180578Y0169366D01*
X0180815Y0169496D01*
X0181054Y0169620D01*
X0181297Y0169739D01*
X0181542Y0169851D01*
X0181790Y0169958D01*
X0182041Y0170058D01*
X0182294Y0170152D01*
X0182550Y0170240D01*
X0182807Y0170321D01*
X0183066Y0170397D01*
X0183327Y0170465D01*
X0183590Y0170528D01*
X0183854Y0170584D01*
X0184119Y0170633D01*
X0184386Y0170676D01*
X0184653Y0170712D01*
X0184922Y0170742D01*
X0185191Y0170765D01*
X0185460Y0170782D01*
X0185730Y0170792D01*
X0186000Y0170795D01*
X0186270Y0170792D01*
X0186540Y0170782D01*
X0186809Y0170765D01*
X0187078Y0170742D01*
X0187347Y0170712D01*
X0187614Y0170676D01*
X0187881Y0170633D01*
X0188146Y0170584D01*
X0188410Y0170528D01*
X0188673Y0170465D01*
X0188934Y0170397D01*
X0189193Y0170321D01*
X0189450Y0170240D01*
X0189706Y0170152D01*
X0189959Y0170058D01*
X0190210Y0169958D01*
X0190458Y0169851D01*
X0190703Y0169739D01*
X0190946Y0169620D01*
X0191185Y0169496D01*
X0191422Y0169366D01*
X0191655Y0169230D01*
X0191885Y0169088D01*
X0192111Y0168941D01*
X0192334Y0168788D01*
X0192553Y0168630D01*
X0192768Y0168467D01*
X0192978Y0168298D01*
X0193185Y0168124D01*
X0193387Y0167945D01*
X0193585Y0167762D01*
X0193778Y0167573D01*
X0193967Y0167380D01*
X0194150Y0167182D01*
X0194329Y0166980D01*
X0194503Y0166773D01*
X0194672Y0166563D01*
X0194835Y0166348D01*
X0194993Y0166129D01*
X0195146Y0165906D01*
X0195293Y0165680D01*
X0195435Y0165450D01*
X0195571Y0165217D01*
X0195701Y0164980D01*
X0195825Y0164741D01*
X0195944Y0164498D01*
X0196056Y0164253D01*
X0196163Y0164005D01*
X0196263Y0163754D01*
X0196357Y0163501D01*
X0196445Y0163245D01*
X0196526Y0162988D01*
X0196602Y0162729D01*
X0196670Y0162468D01*
X0196733Y0162205D01*
X0196789Y0161941D01*
X0196838Y0161676D01*
X0196881Y0161409D01*
X0196917Y0161142D01*
X0196947Y0160873D01*
X0196970Y0160604D01*
X0196987Y0160335D01*
X0196997Y0160065D01*
X0197000Y0159795D01*
X0196997Y0159525D01*
X0196987Y0159255D01*
X0196970Y0158986D01*
X0196947Y0158717D01*
X0196917Y0158448D01*
X0196881Y0158181D01*
X0196838Y0157914D01*
X0196789Y0157649D01*
X0196733Y0157385D01*
X0196670Y0157122D01*
X0196602Y0156861D01*
X0196526Y0156602D01*
X0196445Y0156345D01*
X0196357Y0156089D01*
X0196263Y0155836D01*
X0196163Y0155585D01*
X0196056Y0155337D01*
X0195944Y0155092D01*
X0195825Y0154849D01*
X0195701Y0154610D01*
X0195571Y0154373D01*
X0195435Y0154140D01*
X0195293Y0153910D01*
X0195146Y0153684D01*
X0194993Y0153461D01*
X0194835Y0153242D01*
X0194672Y0153027D01*
X0194503Y0152817D01*
X0194329Y0152610D01*
X0194150Y0152408D01*
X0193967Y0152210D01*
X0193778Y0152017D01*
X0193585Y0151828D01*
X0193387Y0151645D01*
X0193185Y0151466D01*
X0192978Y0151292D01*
X0192768Y0151123D01*
X0192553Y0150960D01*
X0192334Y0150802D01*
X0192111Y0150649D01*
X0191885Y0150502D01*
X0191655Y0150360D01*
X0191422Y0150224D01*
X0191185Y0150094D01*
X0190946Y0149970D01*
X0190703Y0149851D01*
X0190458Y0149739D01*
X0190210Y0149632D01*
X0189959Y0149532D01*
X0189706Y0149438D01*
X0189450Y0149350D01*
X0189193Y0149269D01*
X0188934Y0149193D01*
X0188673Y0149125D01*
X0188410Y0149062D01*
X0188146Y0149006D01*
X0187881Y0148957D01*
X0187614Y0148914D01*
X0187347Y0148878D01*
X0187078Y0148848D01*
X0186809Y0148825D01*
X0186540Y0148808D01*
X0186270Y0148798D01*
X0186000Y0148795D01*
X0185730Y0148798D01*
X0185460Y0148808D01*
X0185191Y0148825D01*
X0184922Y0148848D01*
X0184653Y0148878D01*
X0184386Y0148914D01*
X0184119Y0148957D01*
X0183854Y0149006D01*
X0183590Y0149062D01*
X0183327Y0149125D01*
X0183066Y0149193D01*
X0182807Y0149269D01*
X0182550Y0149350D01*
X0182294Y0149438D01*
X0182041Y0149532D01*
X0181790Y0149632D01*
X0181542Y0149739D01*
X0181297Y0149851D01*
X0181054Y0149970D01*
X0180815Y0150094D01*
X0180578Y0150224D01*
X0180345Y0150360D01*
X0180115Y0150502D01*
X0179889Y0150649D01*
X0179666Y0150802D01*
X0179447Y0150960D01*
X0179232Y0151123D01*
X0179022Y0151292D01*
X0178815Y0151466D01*
X0178613Y0151645D01*
X0178415Y0151828D01*
X0178222Y0152017D01*
X0178033Y0152210D01*
X0177850Y0152408D01*
X0177671Y0152610D01*
X0177497Y0152817D01*
X0177328Y0153027D01*
X0177165Y0153242D01*
X0177007Y0153461D01*
X0176854Y0153684D01*
X0176707Y0153910D01*
X0176565Y0154140D01*
X0176429Y0154373D01*
X0176299Y0154610D01*
X0176175Y0154849D01*
X0176056Y0155092D01*
X0175944Y0155337D01*
X0175837Y0155585D01*
X0175737Y0155836D01*
X0175643Y0156089D01*
X0175555Y0156345D01*
X0175474Y0156602D01*
X0175398Y0156861D01*
X0175330Y0157122D01*
X0175267Y0157385D01*
X0175211Y0157649D01*
X0175162Y0157914D01*
X0175119Y0158181D01*
X0175083Y0158448D01*
X0175053Y0158717D01*
X0175030Y0158986D01*
X0175013Y0159255D01*
X0175003Y0159525D01*
X0175000Y0159795D01*
X0189500Y0166295D02*
X0191000Y0166295D01*
X0192500Y0166295D01*
X0191000Y0166295D02*
X0191000Y0164795D01*
X0191000Y0166295D02*
X0191000Y0167795D01*
X0227546Y0180491D02*
X0229748Y0180491D01*
X0229014Y0181959D01*
X0229014Y0182693D01*
X0229748Y0183427D01*
X0231216Y0183427D01*
X0231950Y0182693D01*
X0231950Y0181225D01*
X0231216Y0180491D01*
X0229014Y0185095D02*
X0231950Y0186563D01*
X0229014Y0188031D01*
X0227546Y0183427D02*
X0227546Y0180491D01*
X0228280Y0198189D02*
X0231216Y0198189D01*
X0231950Y0198923D01*
X0231950Y0200391D01*
X0231216Y0201125D01*
X0229748Y0201125D01*
X0229748Y0199657D01*
X0228280Y0201125D02*
X0227546Y0200391D01*
X0227546Y0198923D01*
X0228280Y0198189D01*
X0227546Y0202793D02*
X0231950Y0205729D01*
X0227546Y0205729D01*
X0227546Y0207397D02*
X0227546Y0209599D01*
X0228280Y0210333D01*
X0231216Y0210333D01*
X0231950Y0209599D01*
X0231950Y0207397D01*
X0227546Y0207397D01*
X0227546Y0202793D02*
X0231950Y0202793D01*
D14*
X0206106Y0168049D02*
X0204605Y0168049D01*
X0203854Y0167298D01*
X0202253Y0167298D02*
X0201502Y0168049D01*
X0200001Y0168049D01*
X0199250Y0167298D01*
X0199250Y0164296D01*
X0200001Y0163545D01*
X0201502Y0163545D01*
X0202253Y0164296D01*
X0203854Y0163545D02*
X0206856Y0166548D01*
X0206856Y0167298D01*
X0206106Y0168049D01*
X0206856Y0163545D02*
X0203854Y0163545D01*
X0181150Y0182812D02*
X0178815Y0185148D01*
X0178231Y0185148D01*
X0177647Y0184564D01*
X0177647Y0183396D01*
X0178231Y0182812D01*
X0175518Y0183426D02*
X0172015Y0183426D01*
X0172015Y0185178D01*
X0172599Y0185762D01*
X0173766Y0185762D01*
X0174350Y0185178D01*
X0174350Y0183426D01*
X0174350Y0182078D02*
X0172599Y0182078D01*
X0172015Y0181495D01*
X0172015Y0179743D01*
X0174350Y0179743D01*
X0173766Y0178395D02*
X0170847Y0178395D01*
X0170847Y0176060D02*
X0173766Y0176060D01*
X0174350Y0176644D01*
X0174350Y0177811D01*
X0173766Y0178395D01*
X0174350Y0187109D02*
X0174350Y0188277D01*
X0174350Y0187693D02*
X0170847Y0187693D01*
X0170847Y0187109D01*
X0172015Y0189565D02*
X0173766Y0189565D01*
X0174350Y0190149D01*
X0174350Y0191900D01*
X0172015Y0191900D01*
X0172599Y0193248D02*
X0173766Y0193248D01*
X0174350Y0193832D01*
X0174350Y0195583D01*
X0174934Y0195583D02*
X0172015Y0195583D01*
X0172015Y0193832D01*
X0172599Y0193248D01*
X0175518Y0194416D02*
X0175518Y0194999D01*
X0174934Y0195583D01*
X0174350Y0196931D02*
X0174350Y0198683D01*
X0173766Y0199266D01*
X0173182Y0199266D01*
X0172599Y0198683D01*
X0172599Y0196931D01*
X0174350Y0196931D02*
X0170847Y0196931D01*
X0170847Y0198683D01*
X0171431Y0199266D01*
X0172015Y0199266D01*
X0172599Y0198683D01*
X0172599Y0200614D02*
X0173766Y0200614D01*
X0174350Y0201198D01*
X0174350Y0202366D01*
X0173766Y0202950D01*
X0172599Y0202950D01*
X0172015Y0202366D01*
X0172015Y0201198D01*
X0172599Y0200614D01*
X0172015Y0204297D02*
X0174350Y0206633D01*
X0172015Y0206633D02*
X0174350Y0204297D01*
X0177647Y0206079D02*
X0181150Y0206079D01*
X0181150Y0204911D02*
X0181150Y0207247D01*
X0180566Y0208594D02*
X0181150Y0209178D01*
X0181150Y0210346D01*
X0180566Y0210930D01*
X0179982Y0210930D01*
X0179399Y0210346D01*
X0179399Y0208594D01*
X0180566Y0208594D01*
X0179399Y0208594D02*
X0178231Y0209762D01*
X0177647Y0210930D01*
X0174350Y0212831D02*
X0173182Y0213999D01*
X0170847Y0213999D01*
X0172015Y0215347D02*
X0170847Y0216514D01*
X0174350Y0216514D01*
X0174350Y0215347D02*
X0174350Y0217682D01*
X0174350Y0212831D02*
X0173182Y0211664D01*
X0170847Y0211664D01*
X0177647Y0206079D02*
X0178815Y0204911D01*
X0179399Y0203563D02*
X0179399Y0201228D01*
X0179982Y0199880D02*
X0180566Y0199880D01*
X0181150Y0199296D01*
X0181150Y0198129D01*
X0180566Y0197545D01*
X0180566Y0196197D02*
X0181150Y0195613D01*
X0181150Y0194446D01*
X0180566Y0193862D01*
X0178231Y0196197D01*
X0180566Y0196197D01*
X0178231Y0196197D02*
X0177647Y0195613D01*
X0177647Y0194446D01*
X0178231Y0193862D01*
X0180566Y0193862D01*
X0179399Y0192514D02*
X0179399Y0190179D01*
X0181150Y0188831D02*
X0181150Y0186496D01*
X0181150Y0187663D02*
X0177647Y0187663D01*
X0178815Y0186496D01*
X0181150Y0185148D02*
X0181150Y0182812D01*
X0178231Y0197545D02*
X0177647Y0198129D01*
X0177647Y0199296D01*
X0178231Y0199880D01*
X0178815Y0199880D01*
X0179399Y0199296D01*
X0179982Y0199880D01*
X0179399Y0199296D02*
X0179399Y0198713D01*
X0154768Y0218045D02*
X0152433Y0218045D01*
X0152433Y0221548D01*
X0154768Y0221548D01*
X0153601Y0219796D02*
X0152433Y0219796D01*
X0151085Y0218045D02*
X0148750Y0218045D01*
X0148750Y0221548D01*
X0147402Y0221548D02*
X0145067Y0221548D01*
X0145067Y0218045D01*
X0147402Y0218045D01*
X0146235Y0219796D02*
X0145067Y0219796D01*
X0143719Y0219796D02*
X0143135Y0219213D01*
X0141384Y0219213D01*
X0142551Y0219213D02*
X0143719Y0218045D01*
X0143719Y0219796D02*
X0143719Y0220964D01*
X0143135Y0221548D01*
X0141384Y0221548D01*
X0141384Y0218045D01*
X0135427Y0218629D02*
X0134843Y0218045D01*
X0133675Y0218045D01*
X0133092Y0218629D01*
X0133092Y0220964D01*
X0133675Y0221548D01*
X0134843Y0221548D01*
X0135427Y0220964D01*
X0131744Y0221548D02*
X0129408Y0221548D01*
X0130576Y0221548D02*
X0130576Y0218045D01*
X0128061Y0218045D02*
X0126893Y0219213D01*
X0127477Y0219213D02*
X0125725Y0219213D01*
X0125725Y0218045D02*
X0125725Y0221548D01*
X0127477Y0221548D01*
X0128061Y0220964D01*
X0128061Y0219796D01*
X0127477Y0219213D01*
X0119155Y0218629D02*
X0119155Y0220964D01*
X0118571Y0221548D01*
X0116819Y0221548D01*
X0116819Y0218045D01*
X0118571Y0218045D01*
X0119155Y0218629D01*
X0115532Y0218045D02*
X0114364Y0218045D01*
X0114948Y0218045D02*
X0114948Y0221548D01*
X0114364Y0221548D02*
X0115532Y0221548D01*
X0113016Y0221548D02*
X0110681Y0221548D01*
X0110681Y0218045D01*
X0109333Y0218045D02*
X0108165Y0219213D01*
X0108749Y0219213D02*
X0106998Y0219213D01*
X0106998Y0218045D02*
X0106998Y0221548D01*
X0108749Y0221548D01*
X0109333Y0220964D01*
X0109333Y0219796D01*
X0108749Y0219213D01*
X0110681Y0219796D02*
X0111848Y0219796D01*
X0089707Y0212396D02*
X0086704Y0212396D01*
X0088205Y0212396D02*
X0088205Y0216899D01*
X0086704Y0215398D01*
X0085103Y0216149D02*
X0085103Y0213146D01*
X0084352Y0212396D01*
X0082851Y0212396D01*
X0082100Y0213146D01*
X0082100Y0216149D01*
X0082851Y0216899D01*
X0084352Y0216899D01*
X0085103Y0216149D01*
X0083601Y0213897D02*
X0085103Y0212396D01*
X0104046Y0188705D02*
X0106298Y0186453D01*
X0106298Y0189455D01*
X0108550Y0188705D02*
X0104046Y0188705D01*
X0104797Y0184851D02*
X0106298Y0184851D01*
X0107049Y0184101D01*
X0107049Y0181849D01*
X0108550Y0181849D02*
X0104046Y0181849D01*
X0104046Y0184101D01*
X0104797Y0184851D01*
X0104046Y0180248D02*
X0104046Y0178746D01*
X0104046Y0179497D02*
X0107799Y0179497D01*
X0108550Y0178746D01*
X0108550Y0177996D01*
X0107799Y0177245D01*
X0082750Y0132651D02*
X0082750Y0129649D01*
X0082750Y0131150D02*
X0078246Y0131150D01*
X0079747Y0129649D01*
X0078997Y0128048D02*
X0078246Y0128048D01*
X0078997Y0128048D02*
X0080498Y0126546D01*
X0082750Y0126546D01*
X0080498Y0126546D02*
X0078997Y0125045D01*
X0078246Y0125045D01*
X0112697Y0109048D02*
X0112697Y0045268D01*
X0017815Y0045268D01*
X0017815Y0109048D01*
X0112697Y0109048D01*
X0161542Y0149796D02*
X0162293Y0149045D01*
X0163794Y0149045D01*
X0164545Y0149796D01*
X0166146Y0149045D02*
X0169149Y0149045D01*
X0167647Y0149045D02*
X0167647Y0153549D01*
X0166146Y0152048D01*
X0164545Y0152798D02*
X0163794Y0153549D01*
X0162293Y0153549D01*
X0161542Y0152798D01*
X0161542Y0149796D01*
X0199616Y0081048D02*
X0200783Y0079880D01*
X0200783Y0077545D01*
X0200783Y0079296D02*
X0198448Y0079296D01*
X0198448Y0079880D02*
X0199616Y0081048D01*
X0198448Y0079880D02*
X0198448Y0077545D01*
X0202131Y0078713D02*
X0203299Y0077545D01*
X0204467Y0078713D01*
X0204467Y0081048D01*
X0205814Y0081048D02*
X0205814Y0077545D01*
X0205814Y0078713D02*
X0207566Y0078713D01*
X0208150Y0079296D01*
X0208150Y0080464D01*
X0207566Y0081048D01*
X0205814Y0081048D01*
X0206982Y0078713D02*
X0208150Y0077545D01*
X0209498Y0076961D02*
X0211833Y0076961D01*
X0213181Y0078129D02*
X0213765Y0077545D01*
X0214932Y0077545D01*
X0215516Y0078129D01*
X0215516Y0078713D01*
X0214932Y0079296D01*
X0213765Y0079296D01*
X0213181Y0079880D01*
X0213181Y0080464D01*
X0213765Y0081048D01*
X0214932Y0081048D01*
X0215516Y0080464D01*
X0216864Y0081048D02*
X0216864Y0077545D01*
X0216864Y0078713D02*
X0218615Y0078713D01*
X0219199Y0079296D01*
X0219199Y0080464D01*
X0218615Y0081048D01*
X0216864Y0081048D01*
X0220547Y0081048D02*
X0221715Y0081048D01*
X0221131Y0081048D02*
X0221131Y0077545D01*
X0220547Y0077545D02*
X0221715Y0077545D01*
X0223002Y0076961D02*
X0225338Y0076961D01*
X0226686Y0078129D02*
X0227269Y0077545D01*
X0228437Y0077545D01*
X0229021Y0078129D01*
X0229021Y0079296D01*
X0228437Y0079880D01*
X0227853Y0079880D01*
X0226686Y0079296D01*
X0226686Y0081048D01*
X0229021Y0081048D01*
X0230369Y0079880D02*
X0231536Y0077545D01*
X0232704Y0079880D01*
X0202131Y0081048D02*
X0202131Y0078713D01*
X0201000Y0059795D02*
X0201000Y0052295D01*
X0022000Y0127295D02*
X0015000Y0127295D01*
X0015000Y0134795D01*
X0022000Y0134795D01*
X0022000Y0127295D01*
X0011157Y0134795D02*
X0011160Y0135037D01*
X0011169Y0135278D01*
X0011184Y0135519D01*
X0011204Y0135760D01*
X0011231Y0136000D01*
X0011264Y0136239D01*
X0011302Y0136478D01*
X0011346Y0136715D01*
X0011396Y0136952D01*
X0011452Y0137187D01*
X0011514Y0137420D01*
X0011581Y0137652D01*
X0011654Y0137883D01*
X0011732Y0138111D01*
X0011817Y0138337D01*
X0011906Y0138562D01*
X0012001Y0138784D01*
X0012102Y0139003D01*
X0012208Y0139221D01*
X0012319Y0139435D01*
X0012436Y0139647D01*
X0012557Y0139855D01*
X0012684Y0140061D01*
X0012816Y0140263D01*
X0012953Y0140463D01*
X0013094Y0140658D01*
X0013240Y0140851D01*
X0013391Y0141039D01*
X0013547Y0141224D01*
X0013707Y0141405D01*
X0013871Y0141582D01*
X0014040Y0141755D01*
X0014213Y0141924D01*
X0014390Y0142088D01*
X0014571Y0142248D01*
X0014756Y0142404D01*
X0014944Y0142555D01*
X0015137Y0142701D01*
X0015332Y0142842D01*
X0015532Y0142979D01*
X0015734Y0143111D01*
X0015940Y0143238D01*
X0016148Y0143359D01*
X0016360Y0143476D01*
X0016574Y0143587D01*
X0016792Y0143693D01*
X0017011Y0143794D01*
X0017233Y0143889D01*
X0017458Y0143978D01*
X0017684Y0144063D01*
X0017912Y0144141D01*
X0018143Y0144214D01*
X0018375Y0144281D01*
X0018608Y0144343D01*
X0018843Y0144399D01*
X0019080Y0144449D01*
X0019317Y0144493D01*
X0019556Y0144531D01*
X0019795Y0144564D01*
X0020035Y0144591D01*
X0020276Y0144611D01*
X0020517Y0144626D01*
X0020758Y0144635D01*
X0021000Y0144638D01*
X0021242Y0144635D01*
X0021483Y0144626D01*
X0021724Y0144611D01*
X0021965Y0144591D01*
X0022205Y0144564D01*
X0022444Y0144531D01*
X0022683Y0144493D01*
X0022920Y0144449D01*
X0023157Y0144399D01*
X0023392Y0144343D01*
X0023625Y0144281D01*
X0023857Y0144214D01*
X0024088Y0144141D01*
X0024316Y0144063D01*
X0024542Y0143978D01*
X0024767Y0143889D01*
X0024989Y0143794D01*
X0025208Y0143693D01*
X0025426Y0143587D01*
X0025640Y0143476D01*
X0025852Y0143359D01*
X0026060Y0143238D01*
X0026266Y0143111D01*
X0026468Y0142979D01*
X0026668Y0142842D01*
X0026863Y0142701D01*
X0027056Y0142555D01*
X0027244Y0142404D01*
X0027429Y0142248D01*
X0027610Y0142088D01*
X0027787Y0141924D01*
X0027960Y0141755D01*
X0028129Y0141582D01*
X0028293Y0141405D01*
X0028453Y0141224D01*
X0028609Y0141039D01*
X0028760Y0140851D01*
X0028906Y0140658D01*
X0029047Y0140463D01*
X0029184Y0140263D01*
X0029316Y0140061D01*
X0029443Y0139855D01*
X0029564Y0139647D01*
X0029681Y0139435D01*
X0029792Y0139221D01*
X0029898Y0139003D01*
X0029999Y0138784D01*
X0030094Y0138562D01*
X0030183Y0138337D01*
X0030268Y0138111D01*
X0030346Y0137883D01*
X0030419Y0137652D01*
X0030486Y0137420D01*
X0030548Y0137187D01*
X0030604Y0136952D01*
X0030654Y0136715D01*
X0030698Y0136478D01*
X0030736Y0136239D01*
X0030769Y0136000D01*
X0030796Y0135760D01*
X0030816Y0135519D01*
X0030831Y0135278D01*
X0030840Y0135037D01*
X0030843Y0134795D01*
X0030840Y0134553D01*
X0030831Y0134312D01*
X0030816Y0134071D01*
X0030796Y0133830D01*
X0030769Y0133590D01*
X0030736Y0133351D01*
X0030698Y0133112D01*
X0030654Y0132875D01*
X0030604Y0132638D01*
X0030548Y0132403D01*
X0030486Y0132170D01*
X0030419Y0131938D01*
X0030346Y0131707D01*
X0030268Y0131479D01*
X0030183Y0131253D01*
X0030094Y0131028D01*
X0029999Y0130806D01*
X0029898Y0130587D01*
X0029792Y0130369D01*
X0029681Y0130155D01*
X0029564Y0129943D01*
X0029443Y0129735D01*
X0029316Y0129529D01*
X0029184Y0129327D01*
X0029047Y0129127D01*
X0028906Y0128932D01*
X0028760Y0128739D01*
X0028609Y0128551D01*
X0028453Y0128366D01*
X0028293Y0128185D01*
X0028129Y0128008D01*
X0027960Y0127835D01*
X0027787Y0127666D01*
X0027610Y0127502D01*
X0027429Y0127342D01*
X0027244Y0127186D01*
X0027056Y0127035D01*
X0026863Y0126889D01*
X0026668Y0126748D01*
X0026468Y0126611D01*
X0026266Y0126479D01*
X0026060Y0126352D01*
X0025852Y0126231D01*
X0025640Y0126114D01*
X0025426Y0126003D01*
X0025208Y0125897D01*
X0024989Y0125796D01*
X0024767Y0125701D01*
X0024542Y0125612D01*
X0024316Y0125527D01*
X0024088Y0125449D01*
X0023857Y0125376D01*
X0023625Y0125309D01*
X0023392Y0125247D01*
X0023157Y0125191D01*
X0022920Y0125141D01*
X0022683Y0125097D01*
X0022444Y0125059D01*
X0022205Y0125026D01*
X0021965Y0124999D01*
X0021724Y0124979D01*
X0021483Y0124964D01*
X0021242Y0124955D01*
X0021000Y0124952D01*
X0020758Y0124955D01*
X0020517Y0124964D01*
X0020276Y0124979D01*
X0020035Y0124999D01*
X0019795Y0125026D01*
X0019556Y0125059D01*
X0019317Y0125097D01*
X0019080Y0125141D01*
X0018843Y0125191D01*
X0018608Y0125247D01*
X0018375Y0125309D01*
X0018143Y0125376D01*
X0017912Y0125449D01*
X0017684Y0125527D01*
X0017458Y0125612D01*
X0017233Y0125701D01*
X0017011Y0125796D01*
X0016792Y0125897D01*
X0016574Y0126003D01*
X0016360Y0126114D01*
X0016148Y0126231D01*
X0015940Y0126352D01*
X0015734Y0126479D01*
X0015532Y0126611D01*
X0015332Y0126748D01*
X0015137Y0126889D01*
X0014944Y0127035D01*
X0014756Y0127186D01*
X0014571Y0127342D01*
X0014390Y0127502D01*
X0014213Y0127666D01*
X0014040Y0127835D01*
X0013871Y0128008D01*
X0013707Y0128185D01*
X0013547Y0128366D01*
X0013391Y0128551D01*
X0013240Y0128739D01*
X0013094Y0128932D01*
X0012953Y0129127D01*
X0012816Y0129327D01*
X0012684Y0129529D01*
X0012557Y0129735D01*
X0012436Y0129943D01*
X0012319Y0130155D01*
X0012208Y0130369D01*
X0012102Y0130587D01*
X0012001Y0130806D01*
X0011906Y0131028D01*
X0011817Y0131253D01*
X0011732Y0131479D01*
X0011654Y0131707D01*
X0011581Y0131938D01*
X0011514Y0132170D01*
X0011452Y0132403D01*
X0011396Y0132638D01*
X0011346Y0132875D01*
X0011302Y0133112D01*
X0011264Y0133351D01*
X0011231Y0133590D01*
X0011204Y0133830D01*
X0011184Y0134071D01*
X0011169Y0134312D01*
X0011160Y0134553D01*
X0011157Y0134795D01*
X0011000Y0142295D02*
X0011000Y0127295D01*
X0011187Y0127052D01*
X0011379Y0126814D01*
X0011578Y0126581D01*
X0011782Y0126353D01*
X0011991Y0126130D01*
X0012206Y0125912D01*
X0012426Y0125699D01*
X0012651Y0125492D01*
X0012882Y0125290D01*
X0013117Y0125094D01*
X0013357Y0124904D01*
X0013601Y0124720D01*
X0013850Y0124542D01*
X0014104Y0124370D01*
X0014361Y0124204D01*
X0014622Y0124044D01*
X0014887Y0123891D01*
X0015156Y0123745D01*
X0015429Y0123605D01*
X0015704Y0123472D01*
X0015983Y0123346D01*
X0016265Y0123226D01*
X0016550Y0123114D01*
X0016837Y0123009D01*
X0017127Y0122910D01*
X0017419Y0122819D01*
X0017714Y0122735D01*
X0018010Y0122658D01*
X0018308Y0122588D01*
X0018608Y0122526D01*
X0018909Y0122471D01*
X0019211Y0122424D01*
X0019515Y0122384D01*
X0019819Y0122351D01*
X0020124Y0122326D01*
X0020430Y0122308D01*
X0020736Y0122298D01*
X0021042Y0122295D01*
X0021348Y0122300D01*
X0021654Y0122312D01*
X0021960Y0122332D01*
X0022264Y0122359D01*
X0022569Y0122394D01*
X0022872Y0122436D01*
X0023174Y0122485D01*
X0023475Y0122542D01*
X0023774Y0122607D01*
X0024072Y0122678D01*
X0024367Y0122757D01*
X0024661Y0122843D01*
X0024953Y0122936D01*
X0025242Y0123037D01*
X0025529Y0123144D01*
X0025813Y0123259D01*
X0026094Y0123380D01*
X0026372Y0123508D01*
X0026647Y0123643D01*
X0026918Y0123785D01*
X0027186Y0123933D01*
X0027450Y0124088D01*
X0027710Y0124249D01*
X0027966Y0124416D01*
X0028219Y0124590D01*
X0028466Y0124770D01*
X0028710Y0124956D01*
X0028948Y0125147D01*
X0029182Y0125345D01*
X0029411Y0125548D01*
X0029635Y0125757D01*
X0029854Y0125971D01*
X0030067Y0126191D01*
X0030275Y0126415D01*
X0030478Y0126645D01*
X0030674Y0126879D01*
X0030865Y0127119D01*
X0031050Y0127362D01*
X0031229Y0127611D01*
X0031402Y0127863D01*
X0031569Y0128120D01*
X0031729Y0128381D01*
X0031883Y0128646D01*
X0032030Y0128914D01*
X0032171Y0129186D01*
X0032305Y0129461D01*
X0032432Y0129740D01*
X0032553Y0130021D01*
X0032666Y0130306D01*
X0032772Y0130593D01*
X0032872Y0130882D01*
X0032964Y0131174D01*
X0033049Y0131468D01*
X0033127Y0131764D01*
X0033198Y0132062D01*
X0033261Y0132362D01*
X0033317Y0132663D01*
X0033365Y0132965D01*
X0033406Y0133268D01*
X0033440Y0133572D01*
X0033466Y0133877D01*
X0033485Y0134183D01*
X0033496Y0134489D01*
X0033500Y0134795D01*
X0033496Y0135101D01*
X0033485Y0135407D01*
X0033466Y0135713D01*
X0033440Y0136018D01*
X0033406Y0136322D01*
X0033365Y0136625D01*
X0033317Y0136927D01*
X0033261Y0137228D01*
X0033198Y0137528D01*
X0033127Y0137826D01*
X0033049Y0138122D01*
X0032964Y0138416D01*
X0032872Y0138708D01*
X0032772Y0138997D01*
X0032666Y0139284D01*
X0032553Y0139569D01*
X0032432Y0139850D01*
X0032305Y0140129D01*
X0032171Y0140404D01*
X0032030Y0140676D01*
X0031883Y0140944D01*
X0031729Y0141209D01*
X0031569Y0141470D01*
X0031402Y0141727D01*
X0031229Y0141979D01*
X0031050Y0142228D01*
X0030865Y0142471D01*
X0030674Y0142711D01*
X0030478Y0142945D01*
X0030275Y0143175D01*
X0030067Y0143399D01*
X0029854Y0143619D01*
X0029635Y0143833D01*
X0029411Y0144042D01*
X0029182Y0144245D01*
X0028948Y0144443D01*
X0028710Y0144634D01*
X0028466Y0144820D01*
X0028219Y0145000D01*
X0027966Y0145174D01*
X0027710Y0145341D01*
X0027450Y0145502D01*
X0027186Y0145657D01*
X0026918Y0145805D01*
X0026647Y0145947D01*
X0026372Y0146082D01*
X0026094Y0146210D01*
X0025813Y0146331D01*
X0025529Y0146446D01*
X0025242Y0146553D01*
X0024953Y0146654D01*
X0024661Y0146747D01*
X0024367Y0146833D01*
X0024072Y0146912D01*
X0023774Y0146983D01*
X0023475Y0147048D01*
X0023174Y0147105D01*
X0022872Y0147154D01*
X0022569Y0147196D01*
X0022264Y0147231D01*
X0021960Y0147258D01*
X0021654Y0147278D01*
X0021348Y0147290D01*
X0021042Y0147295D01*
X0020736Y0147292D01*
X0020430Y0147282D01*
X0020124Y0147264D01*
X0019819Y0147239D01*
X0019515Y0147206D01*
X0019211Y0147166D01*
X0018909Y0147119D01*
X0018608Y0147064D01*
X0018308Y0147002D01*
X0018010Y0146932D01*
X0017714Y0146855D01*
X0017419Y0146771D01*
X0017127Y0146680D01*
X0016837Y0146581D01*
X0016550Y0146476D01*
X0016265Y0146364D01*
X0015983Y0146244D01*
X0015704Y0146118D01*
X0015429Y0145985D01*
X0015156Y0145845D01*
X0014887Y0145699D01*
X0014622Y0145546D01*
X0014361Y0145386D01*
X0014104Y0145220D01*
X0013850Y0145048D01*
X0013601Y0144870D01*
X0013357Y0144686D01*
X0013117Y0144496D01*
X0012882Y0144300D01*
X0012651Y0144098D01*
X0012426Y0143891D01*
X0012206Y0143678D01*
X0011991Y0143460D01*
X0011782Y0143237D01*
X0011578Y0143009D01*
X0011379Y0142776D01*
X0011187Y0142538D01*
X0011000Y0142295D01*
D15*
X0012437Y0171901D02*
X0012437Y0217689D01*
X0029563Y0217689D01*
X0029563Y0171901D01*
X0012437Y0171901D01*
X0057000Y0158295D02*
X0057000Y0131295D01*
X0057003Y0131076D01*
X0057011Y0130857D01*
X0057024Y0130638D01*
X0057043Y0130420D01*
X0057067Y0130202D01*
X0057096Y0129985D01*
X0057130Y0129768D01*
X0057170Y0129553D01*
X0057215Y0129338D01*
X0057266Y0129125D01*
X0057321Y0128913D01*
X0057382Y0128702D01*
X0057447Y0128493D01*
X0057518Y0128286D01*
X0057594Y0128080D01*
X0057675Y0127876D01*
X0057760Y0127674D01*
X0057851Y0127475D01*
X0057946Y0127278D01*
X0058047Y0127083D01*
X0058152Y0126890D01*
X0058261Y0126700D01*
X0058375Y0126513D01*
X0058494Y0126329D01*
X0058617Y0126148D01*
X0058745Y0125970D01*
X0058877Y0125794D01*
X0059013Y0125623D01*
X0059153Y0125454D01*
X0059297Y0125289D01*
X0059445Y0125128D01*
X0059597Y0124970D01*
X0059753Y0124816D01*
X0059913Y0124666D01*
X0060076Y0124519D01*
X0060243Y0124377D01*
X0060413Y0124239D01*
X0060587Y0124105D01*
X0060763Y0123975D01*
X0060943Y0123850D01*
X0061126Y0123729D01*
X0061312Y0123613D01*
X0061500Y0123501D01*
X0061691Y0123394D01*
X0061885Y0123291D01*
X0062081Y0123193D01*
X0062279Y0123100D01*
X0062480Y0123012D01*
X0062683Y0122929D01*
X0062888Y0122850D01*
X0063094Y0122777D01*
X0063302Y0122709D01*
X0063512Y0122646D01*
X0063724Y0122588D01*
X0063936Y0122535D01*
X0064150Y0122487D01*
X0064365Y0122445D01*
X0064581Y0122408D01*
X0064798Y0122376D01*
X0065016Y0122349D01*
X0065234Y0122328D01*
X0065452Y0122312D01*
X0065671Y0122301D01*
X0065890Y0122296D01*
X0066110Y0122296D01*
X0066329Y0122301D01*
X0066548Y0122312D01*
X0066766Y0122328D01*
X0066984Y0122349D01*
X0067202Y0122376D01*
X0067419Y0122408D01*
X0067635Y0122445D01*
X0067850Y0122487D01*
X0068064Y0122535D01*
X0068276Y0122588D01*
X0068488Y0122646D01*
X0068698Y0122709D01*
X0068906Y0122777D01*
X0069112Y0122850D01*
X0069317Y0122929D01*
X0069520Y0123012D01*
X0069721Y0123100D01*
X0069919Y0123193D01*
X0070115Y0123291D01*
X0070309Y0123394D01*
X0070500Y0123501D01*
X0070688Y0123613D01*
X0070874Y0123729D01*
X0071057Y0123850D01*
X0071237Y0123975D01*
X0071413Y0124105D01*
X0071587Y0124239D01*
X0071757Y0124377D01*
X0071924Y0124519D01*
X0072087Y0124666D01*
X0072247Y0124816D01*
X0072403Y0124970D01*
X0072555Y0125128D01*
X0072703Y0125289D01*
X0072847Y0125454D01*
X0072987Y0125623D01*
X0073123Y0125794D01*
X0073255Y0125970D01*
X0073383Y0126148D01*
X0073506Y0126329D01*
X0073625Y0126513D01*
X0073739Y0126700D01*
X0073848Y0126890D01*
X0073953Y0127083D01*
X0074054Y0127278D01*
X0074149Y0127475D01*
X0074240Y0127674D01*
X0074325Y0127876D01*
X0074406Y0128080D01*
X0074482Y0128286D01*
X0074553Y0128493D01*
X0074618Y0128702D01*
X0074679Y0128913D01*
X0074734Y0129125D01*
X0074785Y0129338D01*
X0074830Y0129553D01*
X0074870Y0129768D01*
X0074904Y0129985D01*
X0074933Y0130202D01*
X0074957Y0130420D01*
X0074976Y0130638D01*
X0074989Y0130857D01*
X0074997Y0131076D01*
X0075000Y0131295D01*
X0075000Y0158295D01*
X0074997Y0158514D01*
X0074989Y0158733D01*
X0074976Y0158952D01*
X0074957Y0159170D01*
X0074933Y0159388D01*
X0074904Y0159605D01*
X0074870Y0159822D01*
X0074830Y0160037D01*
X0074785Y0160252D01*
X0074734Y0160465D01*
X0074679Y0160677D01*
X0074618Y0160888D01*
X0074553Y0161097D01*
X0074482Y0161304D01*
X0074406Y0161510D01*
X0074325Y0161714D01*
X0074240Y0161916D01*
X0074149Y0162115D01*
X0074054Y0162312D01*
X0073953Y0162507D01*
X0073848Y0162700D01*
X0073739Y0162890D01*
X0073625Y0163077D01*
X0073506Y0163261D01*
X0073383Y0163442D01*
X0073255Y0163620D01*
X0073123Y0163796D01*
X0072987Y0163967D01*
X0072847Y0164136D01*
X0072703Y0164301D01*
X0072555Y0164462D01*
X0072403Y0164620D01*
X0072247Y0164774D01*
X0072087Y0164924D01*
X0071924Y0165071D01*
X0071757Y0165213D01*
X0071587Y0165351D01*
X0071413Y0165485D01*
X0071237Y0165615D01*
X0071057Y0165740D01*
X0070874Y0165861D01*
X0070688Y0165977D01*
X0070500Y0166089D01*
X0070309Y0166196D01*
X0070115Y0166299D01*
X0069919Y0166397D01*
X0069721Y0166490D01*
X0069520Y0166578D01*
X0069317Y0166661D01*
X0069112Y0166740D01*
X0068906Y0166813D01*
X0068698Y0166881D01*
X0068488Y0166944D01*
X0068276Y0167002D01*
X0068064Y0167055D01*
X0067850Y0167103D01*
X0067635Y0167145D01*
X0067419Y0167182D01*
X0067202Y0167214D01*
X0066984Y0167241D01*
X0066766Y0167262D01*
X0066548Y0167278D01*
X0066329Y0167289D01*
X0066110Y0167294D01*
X0065890Y0167294D01*
X0065671Y0167289D01*
X0065452Y0167278D01*
X0065234Y0167262D01*
X0065016Y0167241D01*
X0064798Y0167214D01*
X0064581Y0167182D01*
X0064365Y0167145D01*
X0064150Y0167103D01*
X0063936Y0167055D01*
X0063724Y0167002D01*
X0063512Y0166944D01*
X0063302Y0166881D01*
X0063094Y0166813D01*
X0062888Y0166740D01*
X0062683Y0166661D01*
X0062480Y0166578D01*
X0062279Y0166490D01*
X0062081Y0166397D01*
X0061885Y0166299D01*
X0061691Y0166196D01*
X0061500Y0166089D01*
X0061312Y0165977D01*
X0061126Y0165861D01*
X0060943Y0165740D01*
X0060763Y0165615D01*
X0060587Y0165485D01*
X0060413Y0165351D01*
X0060243Y0165213D01*
X0060076Y0165071D01*
X0059913Y0164924D01*
X0059753Y0164774D01*
X0059597Y0164620D01*
X0059445Y0164462D01*
X0059297Y0164301D01*
X0059153Y0164136D01*
X0059013Y0163967D01*
X0058877Y0163796D01*
X0058745Y0163620D01*
X0058617Y0163442D01*
X0058494Y0163261D01*
X0058375Y0163077D01*
X0058261Y0162890D01*
X0058152Y0162700D01*
X0058047Y0162507D01*
X0057946Y0162312D01*
X0057851Y0162115D01*
X0057760Y0161916D01*
X0057675Y0161714D01*
X0057594Y0161510D01*
X0057518Y0161304D01*
X0057447Y0161097D01*
X0057382Y0160888D01*
X0057321Y0160677D01*
X0057266Y0160465D01*
X0057215Y0160252D01*
X0057170Y0160037D01*
X0057130Y0159822D01*
X0057096Y0159605D01*
X0057067Y0159388D01*
X0057043Y0159170D01*
X0057024Y0158952D01*
X0057011Y0158733D01*
X0057003Y0158514D01*
X0057000Y0158295D01*
X0032772Y0194795D02*
X0032779Y0195365D01*
X0032800Y0195935D01*
X0032835Y0196504D01*
X0032884Y0197072D01*
X0032947Y0197638D01*
X0033023Y0198203D01*
X0033114Y0198766D01*
X0033218Y0199327D01*
X0033336Y0199884D01*
X0033468Y0200439D01*
X0033613Y0200990D01*
X0033772Y0201538D01*
X0033944Y0202081D01*
X0034130Y0202620D01*
X0034328Y0203155D01*
X0034540Y0203684D01*
X0034765Y0204208D01*
X0035002Y0204726D01*
X0035252Y0205239D01*
X0035515Y0205745D01*
X0035790Y0206244D01*
X0036077Y0206737D01*
X0036376Y0207222D01*
X0036687Y0207700D01*
X0037009Y0208170D01*
X0037343Y0208632D01*
X0037688Y0209086D01*
X0038045Y0209531D01*
X0038412Y0209967D01*
X0038789Y0210394D01*
X0039177Y0210812D01*
X0039575Y0211220D01*
X0039983Y0211618D01*
X0040401Y0212006D01*
X0040828Y0212383D01*
X0041264Y0212750D01*
X0041709Y0213107D01*
X0042163Y0213452D01*
X0042625Y0213786D01*
X0043095Y0214108D01*
X0043573Y0214419D01*
X0044058Y0214718D01*
X0044551Y0215005D01*
X0045050Y0215280D01*
X0045556Y0215543D01*
X0046069Y0215793D01*
X0046587Y0216030D01*
X0047111Y0216255D01*
X0047640Y0216467D01*
X0048175Y0216665D01*
X0048714Y0216851D01*
X0049257Y0217023D01*
X0049805Y0217182D01*
X0050356Y0217327D01*
X0050911Y0217459D01*
X0051468Y0217577D01*
X0052029Y0217681D01*
X0052592Y0217772D01*
X0053157Y0217848D01*
X0053723Y0217911D01*
X0054291Y0217960D01*
X0054860Y0217995D01*
X0055430Y0218016D01*
X0056000Y0218023D01*
X0056570Y0218016D01*
X0057140Y0217995D01*
X0057709Y0217960D01*
X0058277Y0217911D01*
X0058843Y0217848D01*
X0059408Y0217772D01*
X0059971Y0217681D01*
X0060532Y0217577D01*
X0061089Y0217459D01*
X0061644Y0217327D01*
X0062195Y0217182D01*
X0062743Y0217023D01*
X0063286Y0216851D01*
X0063825Y0216665D01*
X0064360Y0216467D01*
X0064889Y0216255D01*
X0065413Y0216030D01*
X0065931Y0215793D01*
X0066444Y0215543D01*
X0066950Y0215280D01*
X0067449Y0215005D01*
X0067942Y0214718D01*
X0068427Y0214419D01*
X0068905Y0214108D01*
X0069375Y0213786D01*
X0069837Y0213452D01*
X0070291Y0213107D01*
X0070736Y0212750D01*
X0071172Y0212383D01*
X0071599Y0212006D01*
X0072017Y0211618D01*
X0072425Y0211220D01*
X0072823Y0210812D01*
X0073211Y0210394D01*
X0073588Y0209967D01*
X0073955Y0209531D01*
X0074312Y0209086D01*
X0074657Y0208632D01*
X0074991Y0208170D01*
X0075313Y0207700D01*
X0075624Y0207222D01*
X0075923Y0206737D01*
X0076210Y0206244D01*
X0076485Y0205745D01*
X0076748Y0205239D01*
X0076998Y0204726D01*
X0077235Y0204208D01*
X0077460Y0203684D01*
X0077672Y0203155D01*
X0077870Y0202620D01*
X0078056Y0202081D01*
X0078228Y0201538D01*
X0078387Y0200990D01*
X0078532Y0200439D01*
X0078664Y0199884D01*
X0078782Y0199327D01*
X0078886Y0198766D01*
X0078977Y0198203D01*
X0079053Y0197638D01*
X0079116Y0197072D01*
X0079165Y0196504D01*
X0079200Y0195935D01*
X0079221Y0195365D01*
X0079228Y0194795D01*
X0079221Y0194225D01*
X0079200Y0193655D01*
X0079165Y0193086D01*
X0079116Y0192518D01*
X0079053Y0191952D01*
X0078977Y0191387D01*
X0078886Y0190824D01*
X0078782Y0190263D01*
X0078664Y0189706D01*
X0078532Y0189151D01*
X0078387Y0188600D01*
X0078228Y0188052D01*
X0078056Y0187509D01*
X0077870Y0186970D01*
X0077672Y0186435D01*
X0077460Y0185906D01*
X0077235Y0185382D01*
X0076998Y0184864D01*
X0076748Y0184351D01*
X0076485Y0183845D01*
X0076210Y0183346D01*
X0075923Y0182853D01*
X0075624Y0182368D01*
X0075313Y0181890D01*
X0074991Y0181420D01*
X0074657Y0180958D01*
X0074312Y0180504D01*
X0073955Y0180059D01*
X0073588Y0179623D01*
X0073211Y0179196D01*
X0072823Y0178778D01*
X0072425Y0178370D01*
X0072017Y0177972D01*
X0071599Y0177584D01*
X0071172Y0177207D01*
X0070736Y0176840D01*
X0070291Y0176483D01*
X0069837Y0176138D01*
X0069375Y0175804D01*
X0068905Y0175482D01*
X0068427Y0175171D01*
X0067942Y0174872D01*
X0067449Y0174585D01*
X0066950Y0174310D01*
X0066444Y0174047D01*
X0065931Y0173797D01*
X0065413Y0173560D01*
X0064889Y0173335D01*
X0064360Y0173123D01*
X0063825Y0172925D01*
X0063286Y0172739D01*
X0062743Y0172567D01*
X0062195Y0172408D01*
X0061644Y0172263D01*
X0061089Y0172131D01*
X0060532Y0172013D01*
X0059971Y0171909D01*
X0059408Y0171818D01*
X0058843Y0171742D01*
X0058277Y0171679D01*
X0057709Y0171630D01*
X0057140Y0171595D01*
X0056570Y0171574D01*
X0056000Y0171567D01*
X0055430Y0171574D01*
X0054860Y0171595D01*
X0054291Y0171630D01*
X0053723Y0171679D01*
X0053157Y0171742D01*
X0052592Y0171818D01*
X0052029Y0171909D01*
X0051468Y0172013D01*
X0050911Y0172131D01*
X0050356Y0172263D01*
X0049805Y0172408D01*
X0049257Y0172567D01*
X0048714Y0172739D01*
X0048175Y0172925D01*
X0047640Y0173123D01*
X0047111Y0173335D01*
X0046587Y0173560D01*
X0046069Y0173797D01*
X0045556Y0174047D01*
X0045050Y0174310D01*
X0044551Y0174585D01*
X0044058Y0174872D01*
X0043573Y0175171D01*
X0043095Y0175482D01*
X0042625Y0175804D01*
X0042163Y0176138D01*
X0041709Y0176483D01*
X0041264Y0176840D01*
X0040828Y0177207D01*
X0040401Y0177584D01*
X0039983Y0177972D01*
X0039575Y0178370D01*
X0039177Y0178778D01*
X0038789Y0179196D01*
X0038412Y0179623D01*
X0038045Y0180059D01*
X0037688Y0180504D01*
X0037343Y0180958D01*
X0037009Y0181420D01*
X0036687Y0181890D01*
X0036376Y0182368D01*
X0036077Y0182853D01*
X0035790Y0183346D01*
X0035515Y0183845D01*
X0035252Y0184351D01*
X0035002Y0184864D01*
X0034765Y0185382D01*
X0034540Y0185906D01*
X0034328Y0186435D01*
X0034130Y0186970D01*
X0033944Y0187509D01*
X0033772Y0188052D01*
X0033613Y0188600D01*
X0033468Y0189151D01*
X0033336Y0189706D01*
X0033218Y0190263D01*
X0033114Y0190824D01*
X0033023Y0191387D01*
X0032947Y0191952D01*
X0032884Y0192518D01*
X0032835Y0193086D01*
X0032800Y0193655D01*
X0032779Y0194225D01*
X0032772Y0194795D01*
X0128500Y0069795D02*
X0133500Y0069795D01*
X0136000Y0067295D01*
X0136000Y0062295D01*
X0133500Y0059795D01*
X0136000Y0057295D01*
X0136000Y0052295D01*
X0133500Y0049795D01*
X0136000Y0047295D01*
X0136000Y0042295D01*
X0133500Y0039795D01*
X0128500Y0039795D01*
X0126000Y0042295D01*
X0126000Y0047295D01*
X0128500Y0049795D01*
X0126000Y0052295D01*
X0126000Y0057295D01*
X0128500Y0059795D01*
X0126000Y0062295D01*
X0126000Y0067295D01*
X0128500Y0069795D01*
X0143500Y0067295D02*
X0143500Y0062295D01*
X0146000Y0059795D01*
X0143500Y0057295D01*
X0143500Y0052295D01*
X0146000Y0049795D01*
X0151000Y0049795D01*
X0153500Y0052295D01*
X0153500Y0057295D01*
X0151000Y0059795D01*
X0153500Y0062295D01*
X0153500Y0067295D01*
X0151000Y0069795D01*
X0146000Y0069795D01*
X0143500Y0067295D01*
X0161000Y0067295D02*
X0161000Y0062295D01*
X0163500Y0059795D01*
X0161000Y0057295D01*
X0161000Y0052295D01*
X0163500Y0049795D01*
X0168500Y0049795D01*
X0171000Y0052295D01*
X0171000Y0057295D01*
X0168500Y0059795D01*
X0171000Y0062295D01*
X0171000Y0067295D01*
X0168500Y0069795D01*
X0163500Y0069795D01*
X0161000Y0067295D01*
X0178500Y0067295D02*
X0178500Y0062295D01*
X0181000Y0059795D01*
X0178500Y0057295D01*
X0178500Y0052295D01*
X0181000Y0049795D01*
X0178500Y0047295D01*
X0178500Y0042295D01*
X0181000Y0039795D01*
X0186000Y0039795D01*
X0188500Y0042295D01*
X0188500Y0047295D01*
X0186000Y0049795D01*
X0188500Y0052295D01*
X0188500Y0057295D01*
X0186000Y0059795D01*
X0188500Y0062295D01*
X0188500Y0067295D01*
X0186000Y0069795D01*
X0181000Y0069795D01*
X0178500Y0067295D01*
X0176000Y0092295D02*
X0171000Y0092295D01*
X0168500Y0094795D01*
X0168500Y0099795D01*
X0171000Y0102295D01*
X0176000Y0102295D01*
X0178500Y0099795D01*
X0181000Y0102295D01*
X0186000Y0102295D01*
X0188500Y0099795D01*
X0191000Y0102295D01*
X0196000Y0102295D01*
X0198500Y0099795D01*
X0201000Y0102295D01*
X0206000Y0102295D01*
X0208500Y0099795D01*
X0211000Y0102295D01*
X0216000Y0102295D01*
X0218500Y0099795D01*
X0221000Y0102295D01*
X0226000Y0102295D01*
X0228500Y0099795D01*
X0228500Y0094795D01*
X0226000Y0092295D01*
X0221000Y0092295D01*
X0218500Y0094795D01*
X0216000Y0092295D01*
X0211000Y0092295D01*
X0208500Y0094795D01*
X0206000Y0092295D01*
X0201000Y0092295D01*
X0198500Y0094795D01*
X0196000Y0092295D01*
X0191000Y0092295D01*
X0188500Y0094795D01*
X0186000Y0092295D01*
X0181000Y0092295D01*
X0178500Y0094795D01*
X0176000Y0092295D01*
X0204681Y0072295D02*
X0204681Y0067295D01*
X0206000Y0067295D02*
X0206000Y0072295D01*
X0208500Y0074795D01*
X0223500Y0074795D01*
X0226000Y0072295D01*
X0226000Y0067295D01*
X0223500Y0064795D01*
X0208500Y0064795D01*
X0206000Y0062295D01*
X0206000Y0057295D01*
X0208500Y0054795D01*
X0223500Y0054795D01*
X0226000Y0052295D01*
X0226000Y0047295D01*
X0223500Y0044795D01*
X0208500Y0044795D01*
X0206000Y0047295D01*
X0206000Y0052295D01*
X0208500Y0054795D01*
X0208500Y0064795D02*
X0206000Y0067295D01*
X0223500Y0064795D02*
X0226000Y0062295D01*
X0226000Y0057295D01*
X0223500Y0054795D01*
X0221000Y0132295D02*
X0218500Y0134795D01*
X0216000Y0132295D01*
X0211000Y0132295D01*
X0208500Y0134795D01*
X0206000Y0132295D01*
X0201000Y0132295D01*
X0198500Y0134795D01*
X0196000Y0132295D01*
X0191000Y0132295D01*
X0188500Y0134795D01*
X0186000Y0132295D01*
X0181000Y0132295D01*
X0178500Y0134795D01*
X0176000Y0132295D01*
X0171000Y0132295D01*
X0168500Y0134795D01*
X0168500Y0139795D01*
X0171000Y0142295D01*
X0176000Y0142295D01*
X0178500Y0139795D01*
X0181000Y0142295D01*
X0186000Y0142295D01*
X0188500Y0139795D01*
X0191000Y0142295D01*
X0196000Y0142295D01*
X0198500Y0139795D01*
X0201000Y0142295D01*
X0206000Y0142295D01*
X0208500Y0139795D01*
X0211000Y0142295D01*
X0216000Y0142295D01*
X0218500Y0139795D01*
X0221000Y0142295D01*
X0226000Y0142295D01*
X0228500Y0139795D01*
X0228500Y0134795D01*
X0226000Y0132295D01*
X0221000Y0132295D01*
X0220055Y0172590D02*
X0194465Y0172590D01*
X0194465Y0216685D01*
X0220055Y0216685D01*
X0220055Y0172590D01*
X0223992Y0172590D01*
X0223992Y0216685D01*
X0220055Y0216685D01*
D16*
X0200950Y0183792D02*
X0200950Y0182791D01*
X0200950Y0183292D02*
X0199449Y0183292D01*
X0199949Y0182791D01*
X0199699Y0182319D02*
X0200199Y0182319D01*
X0200450Y0182069D01*
X0200450Y0181318D01*
X0200950Y0181318D02*
X0199449Y0181318D01*
X0199449Y0182069D01*
X0199699Y0182319D01*
X0199449Y0180846D02*
X0199449Y0180345D01*
X0199449Y0180596D02*
X0200700Y0180596D01*
X0200950Y0180345D01*
X0200950Y0180095D01*
X0200700Y0179845D01*
D17*
X0041608Y0215645D02*
X0037404Y0215645D01*
X0039506Y0215645D02*
X0039506Y0221950D01*
X0037404Y0219849D01*
X0035163Y0220899D02*
X0034112Y0221950D01*
X0032010Y0221950D01*
X0030959Y0220899D01*
X0030959Y0219849D01*
X0032010Y0218798D01*
X0034112Y0218798D01*
X0035163Y0217747D01*
X0035163Y0216696D01*
X0034112Y0215645D01*
X0032010Y0215645D01*
X0030959Y0216696D01*
M02*
