G75*
%MOIN*%
%OFA0B0*%
%FSLAX25Y25*%
%IPPOS*%
%LPD*%
%AMOC8*
5,1,8,0,0,1.08239X$1,22.5*
%
%ADD10C,0.00000*%
%ADD11R,0.08000X0.08000*%
%ADD12C,0.08000*%
%ADD13R,0.03500X0.06400*%
%ADD14R,0.12500X0.06400*%
%ADD15C,0.07400*%
%ADD16C,0.07000*%
%ADD17R,0.07400X0.07400*%
%ADD18R,0.05906X0.05118*%
%ADD19C,0.06500*%
%ADD20R,0.05000X0.02200*%
%ADD21R,0.02200X0.05000*%
%ADD22R,0.07087X0.06299*%
%ADD23OC8,0.07400*%
%ADD24R,0.05118X0.05906*%
%ADD25R,0.06299X0.07087*%
%ADD26OC8,0.05200*%
%ADD27OC8,0.06300*%
%ADD28C,0.06300*%
%ADD29C,0.06600*%
%ADD30OC8,0.06600*%
%ADD31C,0.03200*%
%ADD32C,0.01000*%
%ADD33C,0.02700*%
%ADD34C,0.02400*%
%ADD35C,0.01600*%
D10*
X0001000Y0029795D02*
X0001000Y0226645D01*
X0237220Y0226645D01*
X0237220Y0029795D01*
X0001000Y0029795D01*
D11*
X0211000Y0204795D03*
D12*
X0211000Y0185110D03*
D13*
X0183093Y0187996D03*
X0173993Y0187996D03*
X0164893Y0187996D03*
D14*
X0173993Y0213196D03*
D15*
X0146000Y0212295D03*
X0146000Y0202295D03*
X0146000Y0192295D03*
X0131000Y0192295D03*
X0131000Y0202295D03*
X0131000Y0212295D03*
X0116000Y0212295D03*
X0116000Y0202295D03*
X0116000Y0192295D03*
X0173500Y0137295D03*
X0183500Y0137295D03*
X0193500Y0137295D03*
X0203500Y0137295D03*
X0213500Y0137295D03*
X0223500Y0137295D03*
X0223500Y0097295D03*
X0213500Y0097295D03*
X0203500Y0097295D03*
X0193500Y0097295D03*
X0183500Y0097295D03*
X0173500Y0097295D03*
X0166000Y0064795D03*
X0166000Y0054795D03*
X0148500Y0054795D03*
X0148500Y0064795D03*
X0131000Y0064795D03*
X0131000Y0054795D03*
X0131000Y0044795D03*
X0183500Y0044795D03*
X0183500Y0054795D03*
X0183500Y0064795D03*
X0021000Y0184795D03*
X0021000Y0194795D03*
X0021000Y0204795D03*
D16*
X0056000Y0207590D03*
X0056000Y0182000D03*
D17*
X0116000Y0182295D03*
X0131000Y0182295D03*
X0146000Y0182295D03*
D18*
X0076000Y0066035D03*
X0076000Y0058555D03*
X0038500Y0053535D03*
X0038500Y0046055D03*
D19*
X0066000Y0134795D03*
X0066000Y0154795D03*
D20*
X0109100Y0140819D03*
X0109100Y0137669D03*
X0109100Y0134519D03*
X0109100Y0131370D03*
X0109100Y0128220D03*
X0109100Y0125071D03*
X0109100Y0121921D03*
X0109100Y0118771D03*
X0142900Y0118771D03*
X0142900Y0121921D03*
X0142900Y0125071D03*
X0142900Y0128220D03*
X0142900Y0131370D03*
X0142900Y0134519D03*
X0142900Y0137669D03*
X0142900Y0140819D03*
D21*
X0137024Y0146695D03*
X0133874Y0146695D03*
X0130724Y0146695D03*
X0127575Y0146695D03*
X0124425Y0146695D03*
X0121276Y0146695D03*
X0118126Y0146695D03*
X0114976Y0146695D03*
X0114976Y0112895D03*
X0118126Y0112895D03*
X0121276Y0112895D03*
X0124425Y0112895D03*
X0127575Y0112895D03*
X0130724Y0112895D03*
X0133874Y0112895D03*
X0137024Y0112895D03*
D22*
X0081000Y0129283D03*
X0081000Y0140307D03*
X0081000Y0154283D03*
X0081000Y0165307D03*
D23*
X0211000Y0069795D03*
X0211000Y0059795D03*
X0221000Y0059795D03*
X0221000Y0069795D03*
X0221000Y0049795D03*
X0211000Y0049795D03*
D24*
X0202240Y0112295D03*
X0194760Y0112295D03*
X0194760Y0122295D03*
X0202240Y0122295D03*
X0097240Y0054795D03*
X0089760Y0054795D03*
X0084740Y0079795D03*
X0077260Y0079795D03*
X0079760Y0092295D03*
X0087240Y0092295D03*
X0057240Y0054795D03*
X0049760Y0054795D03*
X0067260Y0199795D03*
X0074740Y0199795D03*
X0072260Y0212295D03*
X0079740Y0212295D03*
D25*
X0090488Y0064795D03*
X0101512Y0064795D03*
D26*
X0098351Y0197237D03*
X0090851Y0202237D03*
X0098351Y0207237D03*
D27*
X0156000Y0159795D03*
X0186000Y0154795D03*
D28*
X0186000Y0164795D03*
X0156000Y0169795D03*
D29*
X0029500Y0130982D03*
X0024500Y0138608D03*
X0012500Y0138608D03*
D30*
X0018500Y0130982D03*
D31*
X0183093Y0187996D02*
X0194201Y0187996D01*
X0211000Y0204795D01*
D32*
X0203500Y0164795D02*
X0186000Y0164795D01*
X0203500Y0164795D02*
X0218500Y0149795D01*
X0218500Y0112295D01*
X0213500Y0107295D01*
X0203500Y0111035D02*
X0203500Y0097295D01*
X0211000Y0089795D01*
X0223500Y0089795D01*
X0228500Y0084795D01*
X0228500Y0052295D01*
X0226000Y0049795D01*
X0221000Y0049795D01*
X0221000Y0047295D01*
X0216000Y0042295D01*
X0186000Y0042295D01*
X0183500Y0044795D01*
X0146000Y0044795D01*
X0136000Y0054795D01*
X0131000Y0054795D01*
X0126000Y0054795D01*
X0123500Y0052295D01*
X0123500Y0049795D01*
X0121000Y0047295D01*
X0093500Y0047295D01*
X0091000Y0049795D01*
X0091000Y0053555D01*
X0089760Y0054795D01*
X0086000Y0058555D01*
X0076000Y0058555D01*
X0076000Y0066035D02*
X0079740Y0066035D01*
X0086000Y0072295D01*
X0091000Y0072295D01*
X0093500Y0074795D01*
X0093500Y0077295D01*
X0091000Y0079795D02*
X0093500Y0082295D01*
X0091000Y0079795D02*
X0084740Y0079795D01*
X0083500Y0087295D02*
X0098500Y0087295D01*
X0103500Y0092295D01*
X0121000Y0092295D01*
X0128500Y0084795D01*
X0128500Y0077295D01*
X0131000Y0074795D01*
X0136000Y0074795D01*
X0141000Y0069795D01*
X0141000Y0064795D01*
X0146000Y0059795D01*
X0171000Y0059795D01*
X0176000Y0059795D02*
X0181000Y0064795D01*
X0183500Y0064795D01*
X0176000Y0067295D02*
X0171000Y0072295D01*
X0153500Y0072295D01*
X0148500Y0067295D01*
X0148500Y0064795D01*
X0151000Y0077295D02*
X0124425Y0103870D01*
X0124425Y0112895D01*
X0127575Y0112895D02*
X0127575Y0105720D01*
X0128500Y0104795D01*
X0130724Y0107571D02*
X0133500Y0104795D01*
X0130724Y0107571D02*
X0130724Y0112895D01*
X0137024Y0112895D02*
X0142900Y0112895D01*
X0143500Y0112295D01*
X0148500Y0109795D02*
X0148500Y0094795D01*
X0158500Y0084795D01*
X0211000Y0084795D01*
X0216000Y0079795D01*
X0216000Y0064795D01*
X0221000Y0059795D01*
X0211000Y0059795D02*
X0208500Y0059795D01*
X0203500Y0064795D01*
X0203500Y0074795D01*
X0198500Y0079795D01*
X0153500Y0079795D01*
X0138500Y0094795D01*
X0138500Y0104795D01*
X0143500Y0104795D02*
X0143500Y0094795D01*
X0156000Y0082295D01*
X0206000Y0082295D01*
X0211000Y0077295D01*
X0211000Y0069795D01*
X0198500Y0072295D02*
X0198500Y0057295D01*
X0198500Y0072295D02*
X0193500Y0077295D01*
X0151000Y0077295D01*
X0136000Y0059795D02*
X0148500Y0047295D01*
X0173500Y0047295D01*
X0176000Y0049795D01*
X0176000Y0059795D01*
X0191000Y0037295D02*
X0188500Y0034795D01*
X0036000Y0034795D01*
X0031000Y0039795D01*
X0031000Y0057295D01*
X0036000Y0062295D01*
X0036000Y0139795D01*
X0030687Y0144795D02*
X0024500Y0138608D01*
X0023500Y0147295D02*
X0026000Y0149795D01*
X0026000Y0184795D01*
X0021000Y0184795D01*
X0026000Y0184795D02*
X0036000Y0194795D01*
X0036000Y0212295D01*
X0038500Y0214795D01*
X0063500Y0214795D01*
X0066000Y0217295D01*
X0078500Y0217295D01*
X0081000Y0214795D01*
X0081000Y0213555D01*
X0079740Y0212295D01*
X0101000Y0212295D01*
X0106000Y0207295D01*
X0106000Y0197295D01*
X0098409Y0197295D01*
X0098351Y0197237D01*
X0098351Y0187444D01*
X0098500Y0187295D01*
X0096000Y0179795D02*
X0096000Y0164795D01*
X0088500Y0159795D02*
X0083500Y0164795D01*
X0081512Y0164795D01*
X0081000Y0165307D01*
X0071512Y0165307D01*
X0066000Y0159795D01*
X0066000Y0154795D01*
X0058500Y0144795D02*
X0030687Y0144795D01*
X0030687Y0174482D01*
X0056000Y0199795D01*
X0056000Y0207590D01*
X0067260Y0199795D02*
X0067260Y0196035D01*
X0081000Y0182295D01*
X0106000Y0182295D01*
X0114976Y0173319D01*
X0114976Y0146695D01*
X0118126Y0146695D02*
X0118126Y0154421D01*
X0118500Y0154795D01*
X0126000Y0157295D02*
X0127575Y0155720D01*
X0127575Y0146695D01*
X0130724Y0146695D02*
X0130724Y0152019D01*
X0133500Y0154795D01*
X0137024Y0150819D02*
X0138500Y0152295D01*
X0141000Y0152295D01*
X0143500Y0149795D01*
X0143500Y0147295D01*
X0141000Y0144795D02*
X0141000Y0142719D01*
X0142900Y0140819D01*
X0142900Y0137669D02*
X0150626Y0137669D01*
X0153500Y0134795D01*
X0153500Y0127295D01*
X0151000Y0124795D02*
X0151000Y0132295D01*
X0151000Y0124795D02*
X0148126Y0121921D01*
X0142900Y0121921D01*
X0142900Y0118771D02*
X0149976Y0118771D01*
X0156000Y0124795D01*
X0156000Y0147295D01*
X0151000Y0152295D01*
X0151000Y0172295D01*
X0158500Y0179795D01*
X0158500Y0182295D01*
X0156000Y0187295D02*
X0164192Y0187295D01*
X0164893Y0187996D01*
X0156000Y0187295D02*
X0153500Y0189795D01*
X0153500Y0209795D01*
X0151000Y0212295D01*
X0146000Y0212295D01*
X0141000Y0212295D01*
X0138500Y0209795D01*
X0138500Y0202295D01*
X0133500Y0197295D01*
X0133500Y0194795D01*
X0131000Y0192295D01*
X0126058Y0197237D01*
X0098351Y0197237D01*
X0090851Y0202237D02*
X0088409Y0199795D01*
X0074740Y0199795D01*
X0076000Y0201055D01*
X0076000Y0204795D01*
X0072260Y0208535D01*
X0072260Y0212295D01*
X0051000Y0174795D02*
X0051000Y0157295D01*
X0058500Y0144795D02*
X0076512Y0144795D01*
X0081000Y0140307D01*
X0081000Y0154283D01*
X0088500Y0159795D02*
X0088500Y0142295D01*
X0089976Y0140819D01*
X0109100Y0140819D01*
X0109100Y0137669D02*
X0091374Y0137669D01*
X0083500Y0129795D01*
X0081512Y0129795D01*
X0081000Y0129283D01*
X0080488Y0129795D01*
X0068500Y0129795D01*
X0066000Y0132295D01*
X0066000Y0134795D01*
X0058500Y0127295D02*
X0063500Y0122295D01*
X0101000Y0122295D01*
X0101000Y0124795D01*
X0103500Y0127295D01*
X0103500Y0129795D01*
X0105075Y0131370D01*
X0109100Y0131370D01*
X0109100Y0134519D02*
X0115724Y0134519D01*
X0116000Y0134795D01*
X0118500Y0137295D01*
X0142526Y0137295D01*
X0142900Y0137669D01*
X0142900Y0131370D02*
X0136925Y0131370D01*
X0136000Y0132295D01*
X0132575Y0128220D02*
X0131000Y0129795D01*
X0126276Y0125071D01*
X0109100Y0125071D01*
X0105724Y0125071D01*
X0103500Y0127295D01*
X0109100Y0128220D02*
X0114425Y0128220D01*
X0116000Y0129795D01*
X0116000Y0134795D01*
X0116000Y0129795D02*
X0121000Y0129795D01*
X0132575Y0128220D02*
X0142900Y0128220D01*
X0137024Y0146695D02*
X0137024Y0150819D01*
X0133874Y0150169D02*
X0138500Y0154795D01*
X0143500Y0154795D01*
X0146000Y0152295D01*
X0148500Y0147295D02*
X0148500Y0174795D01*
X0153500Y0179795D01*
X0153500Y0187295D01*
X0148500Y0192295D01*
X0146000Y0192295D01*
X0138500Y0197295D02*
X0136000Y0194795D01*
X0136000Y0164795D01*
X0138500Y0162295D01*
X0138500Y0169795D02*
X0138500Y0187295D01*
X0133874Y0150169D02*
X0133874Y0146695D01*
X0109100Y0134519D02*
X0100724Y0134519D01*
X0098500Y0132295D01*
X0114976Y0112895D02*
X0114976Y0106271D01*
X0113500Y0104795D01*
X0118126Y0107669D02*
X0118126Y0112895D01*
X0121276Y0112895D02*
X0121276Y0102019D01*
X0123500Y0099795D01*
X0118500Y0107295D02*
X0118126Y0107669D01*
X0121000Y0087295D02*
X0103500Y0087295D01*
X0103500Y0079795D02*
X0121000Y0079795D01*
X0126000Y0059795D02*
X0136000Y0059795D01*
X0126000Y0059795D02*
X0121000Y0054795D01*
X0103500Y0054795D01*
X0097240Y0054795D01*
X0098500Y0056055D01*
X0098500Y0059795D01*
X0101512Y0062807D01*
X0101512Y0064795D01*
X0101000Y0065307D01*
X0101000Y0069795D01*
X0098500Y0072295D01*
X0090488Y0064795D02*
X0089760Y0064067D01*
X0089760Y0054795D01*
X0081000Y0072295D02*
X0077260Y0076035D01*
X0077260Y0079795D01*
X0053500Y0079795D01*
X0049760Y0076055D01*
X0049760Y0054795D01*
X0048500Y0053535D01*
X0038500Y0053535D01*
X0038500Y0046055D02*
X0039760Y0044795D01*
X0131000Y0044795D01*
X0087240Y0092295D02*
X0088500Y0093555D01*
X0088500Y0097295D01*
X0086000Y0099795D01*
X0081000Y0099795D01*
X0079760Y0092295D02*
X0079760Y0091035D01*
X0083500Y0087295D01*
X0066000Y0054795D02*
X0057240Y0054795D01*
X0041000Y0039795D02*
X0038500Y0042295D01*
X0038500Y0046055D01*
X0058500Y0127295D02*
X0058500Y0144795D01*
X0163500Y0127295D02*
X0176000Y0127295D01*
X0186000Y0117295D01*
X0191000Y0122295D01*
X0194760Y0122295D01*
X0194760Y0136035D01*
X0193500Y0137295D01*
X0202240Y0136035D02*
X0202240Y0122295D01*
X0202240Y0112295D01*
X0203500Y0111035D01*
X0194760Y0112295D02*
X0194760Y0098555D01*
X0193500Y0097295D01*
X0189760Y0107295D02*
X0186000Y0107295D01*
X0189760Y0107295D02*
X0194760Y0112295D01*
X0202240Y0136035D02*
X0203500Y0137295D01*
D33*
X0186000Y0117295D03*
X0186000Y0107295D03*
X0163500Y0127295D03*
X0153500Y0127295D03*
X0151000Y0132295D03*
X0148500Y0147295D03*
X0143500Y0147295D03*
X0141000Y0144795D03*
X0146000Y0152295D03*
X0138500Y0162295D03*
X0133500Y0154795D03*
X0126000Y0157295D03*
X0118500Y0154795D03*
X0121000Y0129795D03*
X0131000Y0129795D03*
X0136000Y0132295D03*
X0143500Y0112295D03*
X0148500Y0109795D03*
X0143500Y0104795D03*
X0138500Y0104795D03*
X0133500Y0104795D03*
X0128500Y0104795D03*
X0123500Y0099795D03*
X0118500Y0107295D03*
X0113500Y0104795D03*
X0101000Y0122295D03*
X0098500Y0132295D03*
X0096000Y0164795D03*
X0096000Y0179795D03*
X0098500Y0187295D03*
X0138500Y0187295D03*
X0138500Y0197295D03*
X0158500Y0182295D03*
X0138500Y0169795D03*
X0081000Y0099795D03*
X0093500Y0082295D03*
X0093500Y0077295D03*
X0098500Y0072295D03*
X0103500Y0079795D03*
X0103500Y0087295D03*
X0121000Y0087295D03*
X0121000Y0079795D03*
X0103500Y0054795D03*
X0081000Y0072295D03*
X0066000Y0054795D03*
X0041000Y0039795D03*
X0036000Y0139795D03*
X0023500Y0147295D03*
X0051000Y0157295D03*
X0051000Y0174795D03*
X0171000Y0059795D03*
X0176000Y0067295D03*
X0198500Y0057295D03*
X0191000Y0037295D03*
X0213500Y0107295D03*
D34*
X0156000Y0169795D02*
X0164893Y0178688D01*
X0164893Y0187996D01*
D35*
X0168043Y0188048D02*
X0179943Y0188048D01*
X0179943Y0189646D02*
X0168043Y0189646D01*
X0168043Y0191245D02*
X0179943Y0191245D01*
X0179943Y0191776D02*
X0179943Y0184216D01*
X0180763Y0183396D01*
X0185423Y0183396D01*
X0186243Y0184216D01*
X0186243Y0184996D01*
X0194798Y0184996D01*
X0195900Y0185453D01*
X0209843Y0199395D01*
X0215580Y0199395D01*
X0216400Y0200215D01*
X0216400Y0209375D01*
X0215580Y0210195D01*
X0206420Y0210195D01*
X0205600Y0209375D01*
X0205600Y0203638D01*
X0192958Y0190996D01*
X0186243Y0190996D01*
X0186243Y0191776D01*
X0185423Y0192596D01*
X0180763Y0192596D01*
X0179943Y0191776D01*
X0179943Y0186449D02*
X0168043Y0186449D01*
X0168043Y0184851D02*
X0179943Y0184851D01*
X0186243Y0184851D02*
X0205600Y0184851D01*
X0205600Y0184036D02*
X0206422Y0182051D01*
X0207941Y0180532D01*
X0209926Y0179710D01*
X0212074Y0179710D01*
X0214059Y0180532D01*
X0215578Y0182051D01*
X0216400Y0184036D01*
X0216400Y0186184D01*
X0215578Y0188169D01*
X0214059Y0189688D01*
X0212074Y0190510D01*
X0209926Y0190510D01*
X0207941Y0189688D01*
X0206422Y0188169D01*
X0205600Y0186184D01*
X0205600Y0184036D01*
X0205925Y0183252D02*
X0167493Y0183252D01*
X0167493Y0183666D02*
X0168043Y0184216D01*
X0168043Y0191776D01*
X0167223Y0192596D01*
X0162563Y0192596D01*
X0161743Y0191776D01*
X0161743Y0189195D01*
X0156787Y0189195D01*
X0156000Y0189982D01*
X0156000Y0224795D01*
X0235420Y0224795D01*
X0235420Y0154795D01*
X0190550Y0154795D01*
X0190550Y0156680D01*
X0187885Y0159345D01*
X0184115Y0159345D01*
X0181450Y0156680D01*
X0181450Y0154795D01*
X0156000Y0154795D01*
X0156000Y0155245D01*
X0157885Y0155245D01*
X0160550Y0157910D01*
X0160550Y0161680D01*
X0157885Y0164345D01*
X0156000Y0164345D01*
X0156000Y0165245D01*
X0156905Y0165245D01*
X0158577Y0165938D01*
X0159857Y0167218D01*
X0160550Y0168890D01*
X0160550Y0170668D01*
X0167097Y0177215D01*
X0167493Y0178171D01*
X0167493Y0183666D01*
X0167493Y0181654D02*
X0206820Y0181654D01*
X0209093Y0180055D02*
X0167493Y0180055D01*
X0167493Y0178457D02*
X0235420Y0178457D01*
X0235420Y0180055D02*
X0212907Y0180055D01*
X0215180Y0181654D02*
X0235420Y0181654D01*
X0235420Y0183252D02*
X0216075Y0183252D01*
X0216400Y0184851D02*
X0235420Y0184851D01*
X0235420Y0186449D02*
X0216290Y0186449D01*
X0215628Y0188048D02*
X0235420Y0188048D01*
X0235420Y0189646D02*
X0214101Y0189646D01*
X0207899Y0189646D02*
X0200094Y0189646D01*
X0201692Y0191245D02*
X0235420Y0191245D01*
X0235420Y0192843D02*
X0203291Y0192843D01*
X0204889Y0194442D02*
X0235420Y0194442D01*
X0235420Y0196040D02*
X0206488Y0196040D01*
X0208086Y0197639D02*
X0235420Y0197639D01*
X0235420Y0199237D02*
X0209685Y0199237D01*
X0205600Y0204033D02*
X0156000Y0204033D01*
X0156000Y0205631D02*
X0205600Y0205631D01*
X0205600Y0207230D02*
X0156000Y0207230D01*
X0156000Y0208828D02*
X0205600Y0208828D01*
X0204397Y0202434D02*
X0156000Y0202434D01*
X0156000Y0200836D02*
X0202798Y0200836D01*
X0201200Y0199237D02*
X0156000Y0199237D01*
X0156000Y0197639D02*
X0199601Y0197639D01*
X0198003Y0196040D02*
X0156000Y0196040D01*
X0156000Y0194442D02*
X0196404Y0194442D01*
X0194806Y0192843D02*
X0156000Y0192843D01*
X0156000Y0191245D02*
X0161743Y0191245D01*
X0161743Y0189646D02*
X0156336Y0189646D01*
X0166740Y0176858D02*
X0235420Y0176858D01*
X0235420Y0175259D02*
X0165141Y0175259D01*
X0163543Y0173661D02*
X0235420Y0173661D01*
X0235420Y0172062D02*
X0161944Y0172062D01*
X0160550Y0170464D02*
X0235420Y0170464D01*
X0235420Y0168865D02*
X0160540Y0168865D01*
X0159878Y0167267D02*
X0235420Y0167267D01*
X0235420Y0165668D02*
X0157927Y0165668D01*
X0158160Y0164070D02*
X0235420Y0164070D01*
X0235420Y0162471D02*
X0159758Y0162471D01*
X0160550Y0160873D02*
X0235420Y0160873D01*
X0235420Y0159274D02*
X0187955Y0159274D01*
X0189554Y0157676D02*
X0235420Y0157676D01*
X0235420Y0156077D02*
X0190550Y0156077D01*
X0184045Y0159274D02*
X0160550Y0159274D01*
X0160316Y0157676D02*
X0182446Y0157676D01*
X0181450Y0156077D02*
X0158717Y0156077D01*
X0186243Y0191245D02*
X0193207Y0191245D01*
X0196897Y0186449D02*
X0205710Y0186449D01*
X0206372Y0188048D02*
X0198495Y0188048D01*
X0216400Y0200836D02*
X0235420Y0200836D01*
X0235420Y0202434D02*
X0216400Y0202434D01*
X0216400Y0204033D02*
X0235420Y0204033D01*
X0235420Y0205631D02*
X0216400Y0205631D01*
X0216400Y0207230D02*
X0235420Y0207230D01*
X0235420Y0208828D02*
X0216400Y0208828D01*
X0235420Y0210427D02*
X0156000Y0210427D01*
X0156000Y0212025D02*
X0235420Y0212025D01*
X0235420Y0213624D02*
X0156000Y0213624D01*
X0156000Y0215222D02*
X0235420Y0215222D01*
X0235420Y0216821D02*
X0156000Y0216821D01*
X0156000Y0218419D02*
X0235420Y0218419D01*
X0235420Y0220018D02*
X0156000Y0220018D01*
X0156000Y0221616D02*
X0235420Y0221616D01*
X0235420Y0223215D02*
X0156000Y0223215D01*
M02*
