%
M48
M72
T01C0.01500
T02C0.02756
T03C0.03150
T04C0.03200
T05C0.03543
T06C0.04000
T07C0.05118
%
T01
X130000Y100000
X100000Y92500
X120000Y100000
X185000Y87500
X97500Y157500
X97500Y102500
X95000Y135000
X95000Y150000
X152500Y97500
X162500Y97500
X22500Y117500
X35000Y110000
X190000Y7500
X102500Y25000
X80000Y42500
X97500Y42500
X212500Y77500
X185000Y77500
X137500Y157500
X137500Y140000
X132500Y75000
X137500Y167500
X137500Y132500
X127500Y75000
X40000Y10000
X137500Y75000
X140000Y115000
X142500Y75000
X142500Y117500
X147500Y80000
X145000Y122500
X197500Y27500
X135000Y102500
X112500Y75000
X157500Y152500
X142500Y82500
X147500Y117500
X65000Y25000
X92500Y52500
X80000Y70000
X92500Y47500
X170000Y30000
X102500Y57500
X120000Y57500
X102500Y50000
X120000Y50000
X175000Y37500
X150000Y102500
X50000Y127500
X50000Y145000
X125000Y127500
X132500Y125000
X117500Y125000
X122500Y70000
X117500Y77500
T02
X65000Y105000
X65000Y125000
T03
X11500Y108813
X17500Y101187
X23500Y108813
X28500Y101187
T04
X97351Y177442
X89851Y172442
X97351Y167442
X155000Y130000
X155000Y140000
X185000Y125000
X185000Y135000
T05
X55000Y177795
X55000Y152205
T06
X20000Y155000
X20000Y165000
X20000Y175000
X130000Y152500
X130000Y162500
X130000Y172500
X130000Y182500
X145000Y152500
X145000Y162500
X145000Y172500
X145000Y182500
X210000Y40000
X220000Y40000
X210000Y30000
X220000Y30000
X210000Y20000
X220000Y20000
X182500Y15000
X182500Y25000
X182500Y35000
X130000Y15000
X130000Y25000
X130000Y35000
X172500Y67500
X182500Y67500
X192500Y67500
X202500Y67500
X212500Y67500
X222500Y67500
X172500Y107500
X182500Y107500
X192500Y107500
X202500Y107500
X212500Y107500
X222500Y107500
X147500Y35000
X147500Y25000
X165000Y35000
X165000Y25000
X115000Y152500
X115000Y162500
X115000Y172500
X115000Y182500
T07
X210000Y175000
X210000Y155315
M30
