G75*
%MOIN*%
%OFA0B0*%
%FSLAX25Y25*%
%IPPOS*%
%LPD*%
%AMOC8*
5,1,8,0,0,1.08239X$1,22.5*
%
%ADD10C,0.00000*%
%ADD11R,0.03500X0.06400*%
%ADD12R,0.12500X0.06400*%
%ADD13R,0.05906X0.05118*%
%ADD14R,0.05000X0.02200*%
%ADD15R,0.02200X0.05000*%
%ADD16R,0.07087X0.06299*%
%ADD17R,0.05118X0.05906*%
%ADD18R,0.06299X0.07087*%
D10*
X0001000Y0029795D02*
X0001000Y0226645D01*
X0237220Y0226645D01*
X0237220Y0029795D01*
X0001000Y0029795D01*
D11*
X0164893Y0187996D03*
X0173993Y0187996D03*
X0183093Y0187996D03*
D12*
X0173993Y0213196D03*
D13*
X0076000Y0066035D03*
X0076000Y0058555D03*
X0038500Y0053535D03*
X0038500Y0046055D03*
D14*
X0109100Y0118771D03*
X0109100Y0121921D03*
X0109100Y0125071D03*
X0109100Y0128220D03*
X0109100Y0131370D03*
X0109100Y0134519D03*
X0109100Y0137669D03*
X0109100Y0140819D03*
X0142900Y0140819D03*
X0142900Y0137669D03*
X0142900Y0134519D03*
X0142900Y0131370D03*
X0142900Y0128220D03*
X0142900Y0125071D03*
X0142900Y0121921D03*
X0142900Y0118771D03*
D15*
X0137024Y0112895D03*
X0133874Y0112895D03*
X0130724Y0112895D03*
X0127575Y0112895D03*
X0124425Y0112895D03*
X0121276Y0112895D03*
X0118126Y0112895D03*
X0114976Y0112895D03*
X0114976Y0146695D03*
X0118126Y0146695D03*
X0121276Y0146695D03*
X0124425Y0146695D03*
X0127575Y0146695D03*
X0130724Y0146695D03*
X0133874Y0146695D03*
X0137024Y0146695D03*
D16*
X0081000Y0140307D03*
X0081000Y0129283D03*
X0081000Y0154283D03*
X0081000Y0165307D03*
D17*
X0074740Y0199795D03*
X0067260Y0199795D03*
X0072260Y0212295D03*
X0079740Y0212295D03*
X0079760Y0092295D03*
X0087240Y0092295D03*
X0084740Y0079795D03*
X0077260Y0079795D03*
X0089760Y0054795D03*
X0097240Y0054795D03*
X0057240Y0054795D03*
X0049760Y0054795D03*
X0194760Y0112295D03*
X0202240Y0112295D03*
X0202240Y0122295D03*
X0194760Y0122295D03*
D18*
X0101512Y0064795D03*
X0090488Y0064795D03*
M02*
