G75*
%MOIN*%
%OFA0B0*%
%FSLAX25Y25*%
%IPPOS*%
%LPD*%
%AMOC8*
5,1,8,0,0,1.08239X$1,22.5*
%
%ADD10C,0.00000*%
%ADD11R,0.04724X0.07874*%
%ADD12R,0.07874X0.04724*%
%ADD13R,0.05118X0.05906*%
%ADD14R,0.05906X0.05118*%
%ADD15R,0.07098X0.06299*%
D10*
X0001000Y0029795D02*
X0001000Y0226645D01*
X0237220Y0226645D01*
X0237220Y0029795D01*
X0001000Y0029795D01*
D11*
X0049705Y0045268D03*
X0057579Y0045268D03*
X0065453Y0045268D03*
X0073327Y0045268D03*
X0081201Y0045268D03*
X0089075Y0045268D03*
X0096949Y0045268D03*
X0104823Y0045268D03*
X0104823Y0109048D03*
X0096949Y0109048D03*
X0089075Y0109048D03*
X0081201Y0109048D03*
X0073327Y0109048D03*
X0065453Y0109048D03*
X0057579Y0109048D03*
X0049705Y0109048D03*
D12*
X0112697Y0096449D03*
X0112697Y0088575D03*
X0112697Y0080701D03*
X0112697Y0072827D03*
X0112697Y0064953D03*
X0112697Y0057079D03*
D13*
X0122260Y0122295D03*
X0129740Y0122295D03*
X0129740Y0137295D03*
X0122260Y0137295D03*
X0124760Y0162295D03*
X0132240Y0162295D03*
X0132240Y0169795D03*
X0124760Y0169795D03*
X0044740Y0122295D03*
X0037260Y0122295D03*
X0029740Y0157295D03*
X0022260Y0157295D03*
D14*
X0198500Y0048535D03*
X0198500Y0041055D03*
D15*
X0043500Y0139197D03*
X0043500Y0150393D03*
M02*
