%
M48
M72
T01C0.01500
T02C0.02756
T03C0.03150
T04C0.03200
T05C0.03543
T06C0.04000
T07C0.05118
T08C0.12598
%
T01
X131000Y129179
X101000Y121679
X121000Y129179
X186000Y116679
X98500Y186679
X98500Y131679
X96000Y164179
X96000Y179179
X153500Y126679
X163500Y126679
X23500Y146679
X36000Y139179
X191000Y36679
X103500Y54179
X81000Y71679
X98500Y71679
X213500Y106679
X186000Y106679
X138500Y186679
X138500Y169179
X133500Y104179
X138500Y196679
X138500Y161679
X128500Y104179
X41000Y39179
X138500Y104179
X141000Y144179
X143500Y104179
X143500Y146679
X148500Y109179
X146000Y151679
X198500Y56679
X136000Y131679
X113500Y104179
X158500Y181679
X143500Y111679
X148500Y146679
X66000Y54179
X93500Y81679
X81000Y99179
X93500Y76679
X171000Y59179
X103500Y86679
X121000Y86679
X103500Y79179
X121000Y79179
X176000Y66679
X151000Y131679
X51000Y156679
X51000Y174179
X126000Y156679
X133500Y154179
X118500Y154179
X123500Y99179
X118500Y106679
T02
X66000Y134179
X66000Y154179
T03
X12500Y137992
X18500Y130366
X24500Y137992
X29500Y130366
T04
X98351Y206621
X90851Y201621
X98351Y196621
X156000Y159179
X156000Y169179
X186000Y154179
X186000Y164179
T05
X56000Y206974
X56000Y181384
T06
X21000Y184179
X21000Y194179
X21000Y204179
X131000Y181679
X131000Y191679
X131000Y201679
X131000Y211679
X146000Y181679
X146000Y191679
X146000Y201679
X146000Y211679
X211000Y69179
X221000Y69179
X211000Y59179
X221000Y59179
X211000Y49179
X221000Y49179
X183500Y44179
X183500Y54179
X183500Y64179
X131000Y44179
X131000Y54179
X131000Y64179
X173500Y96679
X183500Y96679
X193500Y96679
X203500Y96679
X213500Y96679
X223500Y96679
X173500Y136679
X183500Y136679
X193500Y136679
X203500Y136679
X213500Y136679
X223500Y136679
X148500Y64179
X148500Y54179
X148500Y44179
X166000Y64179
X166000Y54179
X116000Y181679
X116000Y191679
X116000Y201679
X116000Y211679
T07
X211000Y184179
X211000Y203864
T08
X225409Y155163
X12811Y159100
X134858Y84297
M30
