G75*
%MOIN*%
%OFA0B0*%
%FSLAX25Y25*%
%IPPOS*%
%LPD*%
%AMOC8*
5,1,8,0,0,1.08239X$1,22.5*
%
%ADD10C,0.00000*%
%ADD11C,0.00600*%
%ADD12C,0.00800*%
%ADD13C,0.00400*%
%ADD14C,0.00100*%
D10*
X0001000Y0029795D02*
X0001000Y0226645D01*
X0237220Y0226645D01*
X0237220Y0029795D01*
X0001000Y0029795D01*
D11*
X0112201Y0117393D02*
X0113598Y0115996D01*
X0139799Y0115996D01*
X0139799Y0143594D01*
X0112201Y0143594D01*
X0112201Y0117393D01*
X0113786Y0118995D02*
X0113788Y0119070D01*
X0113794Y0119144D01*
X0113804Y0119218D01*
X0113817Y0119291D01*
X0113835Y0119364D01*
X0113856Y0119435D01*
X0113881Y0119506D01*
X0113910Y0119575D01*
X0113943Y0119642D01*
X0113979Y0119707D01*
X0114018Y0119771D01*
X0114060Y0119832D01*
X0114106Y0119891D01*
X0114155Y0119948D01*
X0114207Y0120001D01*
X0114261Y0120052D01*
X0114318Y0120101D01*
X0114378Y0120145D01*
X0114440Y0120187D01*
X0114504Y0120226D01*
X0114570Y0120261D01*
X0114637Y0120292D01*
X0114707Y0120320D01*
X0114777Y0120344D01*
X0114849Y0120365D01*
X0114922Y0120381D01*
X0114995Y0120394D01*
X0115070Y0120403D01*
X0115144Y0120408D01*
X0115219Y0120409D01*
X0115293Y0120406D01*
X0115368Y0120399D01*
X0115441Y0120388D01*
X0115515Y0120374D01*
X0115587Y0120355D01*
X0115658Y0120333D01*
X0115728Y0120307D01*
X0115797Y0120277D01*
X0115863Y0120244D01*
X0115928Y0120207D01*
X0115991Y0120167D01*
X0116052Y0120123D01*
X0116110Y0120077D01*
X0116166Y0120027D01*
X0116219Y0119975D01*
X0116270Y0119920D01*
X0116317Y0119862D01*
X0116361Y0119802D01*
X0116402Y0119739D01*
X0116440Y0119675D01*
X0116474Y0119609D01*
X0116505Y0119540D01*
X0116532Y0119471D01*
X0116555Y0119400D01*
X0116574Y0119328D01*
X0116590Y0119255D01*
X0116602Y0119181D01*
X0116610Y0119107D01*
X0116614Y0119032D01*
X0116614Y0118958D01*
X0116610Y0118883D01*
X0116602Y0118809D01*
X0116590Y0118735D01*
X0116574Y0118662D01*
X0116555Y0118590D01*
X0116532Y0118519D01*
X0116505Y0118450D01*
X0116474Y0118381D01*
X0116440Y0118315D01*
X0116402Y0118251D01*
X0116361Y0118188D01*
X0116317Y0118128D01*
X0116270Y0118070D01*
X0116219Y0118015D01*
X0116166Y0117963D01*
X0116110Y0117913D01*
X0116052Y0117867D01*
X0115991Y0117823D01*
X0115928Y0117783D01*
X0115863Y0117746D01*
X0115797Y0117713D01*
X0115728Y0117683D01*
X0115658Y0117657D01*
X0115587Y0117635D01*
X0115515Y0117616D01*
X0115441Y0117602D01*
X0115368Y0117591D01*
X0115293Y0117584D01*
X0115219Y0117581D01*
X0115144Y0117582D01*
X0115070Y0117587D01*
X0114995Y0117596D01*
X0114922Y0117609D01*
X0114849Y0117625D01*
X0114777Y0117646D01*
X0114707Y0117670D01*
X0114637Y0117698D01*
X0114570Y0117729D01*
X0114504Y0117764D01*
X0114440Y0117803D01*
X0114378Y0117845D01*
X0114318Y0117889D01*
X0114261Y0117938D01*
X0114207Y0117989D01*
X0114155Y0118042D01*
X0114106Y0118099D01*
X0114060Y0118158D01*
X0114018Y0118219D01*
X0113979Y0118283D01*
X0113943Y0118348D01*
X0113910Y0118415D01*
X0113881Y0118484D01*
X0113856Y0118555D01*
X0113835Y0118626D01*
X0113817Y0118699D01*
X0113804Y0118772D01*
X0113794Y0118846D01*
X0113788Y0118920D01*
X0113786Y0118995D01*
X0160793Y0193296D02*
X0187193Y0193296D01*
X0187193Y0207896D01*
X0160793Y0207896D01*
X0160793Y0193296D01*
D12*
X0190893Y0195830D02*
X0192127Y0194596D01*
X0198299Y0194596D01*
X0198299Y0199534D02*
X0192127Y0199534D01*
X0190893Y0198299D01*
X0190893Y0195830D01*
X0190893Y0202146D02*
X0190893Y0207084D01*
X0190893Y0204615D02*
X0198299Y0204615D01*
X0195831Y0202146D01*
D13*
X0208102Y0124599D02*
X0209637Y0124599D01*
X0210404Y0123832D01*
X0210404Y0123064D01*
X0209637Y0122297D01*
X0207335Y0122297D01*
X0207335Y0120762D02*
X0207335Y0123832D01*
X0208102Y0124599D01*
X0211939Y0123832D02*
X0212706Y0124599D01*
X0214241Y0124599D01*
X0215008Y0123832D01*
X0215008Y0120762D01*
X0214241Y0119995D01*
X0212706Y0119995D01*
X0211939Y0120762D01*
X0210404Y0120762D02*
X0209637Y0119995D01*
X0208102Y0119995D01*
X0207335Y0120762D01*
X0208102Y0114599D02*
X0207335Y0113832D01*
X0210404Y0110762D01*
X0209637Y0109995D01*
X0208102Y0109995D01*
X0207335Y0110762D01*
X0207335Y0113832D01*
X0208102Y0114599D02*
X0209637Y0114599D01*
X0210404Y0113832D01*
X0210404Y0110762D01*
X0211939Y0109995D02*
X0215008Y0109995D01*
X0213473Y0109995D02*
X0213473Y0114599D01*
X0215008Y0113064D01*
X0216543Y0113832D02*
X0217310Y0114599D01*
X0218844Y0114599D01*
X0219612Y0113832D01*
X0219612Y0110762D01*
X0218844Y0109995D01*
X0217310Y0109995D01*
X0216543Y0110762D01*
X0113300Y0066332D02*
X0113300Y0063262D01*
X0112533Y0062495D01*
X0110998Y0062495D01*
X0110231Y0063262D01*
X0108696Y0063262D02*
X0107929Y0062495D01*
X0106394Y0062495D01*
X0105627Y0063262D01*
X0105627Y0064030D01*
X0106394Y0064797D01*
X0107161Y0064797D01*
X0106394Y0064797D02*
X0105627Y0065564D01*
X0105627Y0066332D01*
X0106394Y0067099D01*
X0107929Y0067099D01*
X0108696Y0066332D01*
X0110231Y0066332D02*
X0110998Y0067099D01*
X0112533Y0067099D01*
X0113300Y0066332D01*
X0097533Y0049599D02*
X0098300Y0048832D01*
X0098300Y0045762D01*
X0097533Y0044995D01*
X0095998Y0044995D01*
X0095231Y0045762D01*
X0093696Y0047297D02*
X0090627Y0047297D01*
X0091394Y0049599D02*
X0093696Y0047297D01*
X0095231Y0048832D02*
X0095998Y0049599D01*
X0097533Y0049599D01*
X0091394Y0049599D02*
X0091394Y0044995D01*
X0070804Y0059995D02*
X0070804Y0062297D01*
X0070037Y0063064D01*
X0068502Y0063064D01*
X0067735Y0062297D01*
X0067735Y0059995D01*
X0067735Y0061530D02*
X0066200Y0063064D01*
X0066967Y0064599D02*
X0066200Y0065366D01*
X0066200Y0066901D01*
X0066967Y0067668D01*
X0067735Y0067668D01*
X0068502Y0066901D01*
X0068502Y0066134D01*
X0068502Y0066901D02*
X0069269Y0067668D01*
X0070037Y0067668D01*
X0070804Y0066901D01*
X0070804Y0065366D01*
X0070037Y0064599D01*
X0070804Y0059995D02*
X0066200Y0059995D01*
X0058300Y0059995D02*
X0058300Y0064599D01*
X0055998Y0064599D01*
X0055231Y0063832D01*
X0055231Y0062297D01*
X0055998Y0061530D01*
X0058300Y0061530D01*
X0056765Y0061530D02*
X0055231Y0059995D01*
X0053696Y0060762D02*
X0053696Y0061530D01*
X0052929Y0062297D01*
X0051394Y0062297D01*
X0050627Y0061530D01*
X0050627Y0060762D01*
X0051394Y0059995D01*
X0052929Y0059995D01*
X0053696Y0060762D01*
X0052929Y0062297D02*
X0053696Y0063064D01*
X0053696Y0063832D01*
X0052929Y0064599D01*
X0051394Y0064599D01*
X0050627Y0063832D01*
X0050627Y0063064D01*
X0051394Y0062297D01*
X0040804Y0062866D02*
X0040037Y0062099D01*
X0039269Y0062099D01*
X0038502Y0062866D01*
X0038502Y0065168D01*
X0040037Y0065168D02*
X0040804Y0064401D01*
X0040804Y0062866D01*
X0040037Y0060564D02*
X0038502Y0060564D01*
X0037735Y0059797D01*
X0037735Y0057495D01*
X0037735Y0059030D02*
X0036200Y0060564D01*
X0036967Y0062099D02*
X0036200Y0062866D01*
X0036200Y0064401D01*
X0036967Y0065168D01*
X0040037Y0065168D01*
X0040037Y0060564D02*
X0040804Y0059797D01*
X0040804Y0057495D01*
X0036200Y0057495D01*
X0066394Y0077495D02*
X0066394Y0082099D01*
X0068696Y0079797D01*
X0065627Y0079797D01*
X0070231Y0079797D02*
X0070998Y0079030D01*
X0073300Y0079030D01*
X0071765Y0079030D02*
X0070231Y0077495D01*
X0070231Y0079797D02*
X0070231Y0081332D01*
X0070998Y0082099D01*
X0073300Y0082099D01*
X0073300Y0077495D01*
X0072731Y0089995D02*
X0074265Y0091530D01*
X0073498Y0091530D02*
X0075800Y0091530D01*
X0075800Y0089995D02*
X0075800Y0094599D01*
X0073498Y0094599D01*
X0072731Y0093832D01*
X0072731Y0092297D01*
X0073498Y0091530D01*
X0071196Y0092297D02*
X0071196Y0094599D01*
X0068127Y0094599D01*
X0068894Y0093064D02*
X0068127Y0092297D01*
X0068127Y0090762D01*
X0068894Y0089995D01*
X0070429Y0089995D01*
X0071196Y0090762D01*
X0071196Y0092297D02*
X0069661Y0093064D01*
X0068894Y0093064D01*
X0086967Y0129995D02*
X0086200Y0130762D01*
X0086200Y0132297D01*
X0086967Y0133064D01*
X0086967Y0134599D02*
X0086200Y0134599D01*
X0086967Y0134599D02*
X0090037Y0137668D01*
X0090804Y0137668D01*
X0090804Y0134599D01*
X0090037Y0133064D02*
X0090804Y0132297D01*
X0090804Y0130762D01*
X0090037Y0129995D01*
X0086967Y0129995D01*
X0075037Y0155787D02*
X0071967Y0155787D01*
X0071200Y0156554D01*
X0071200Y0158089D01*
X0071967Y0158856D01*
X0071967Y0160391D02*
X0071200Y0161158D01*
X0071200Y0162693D01*
X0071967Y0163460D01*
X0072735Y0163460D01*
X0073502Y0162693D01*
X0073502Y0161158D01*
X0074269Y0160391D01*
X0075037Y0160391D01*
X0075804Y0161158D01*
X0075804Y0162693D01*
X0075037Y0163460D01*
X0074269Y0163460D01*
X0073502Y0162693D01*
X0073502Y0161158D02*
X0072735Y0160391D01*
X0071967Y0160391D01*
X0075037Y0158856D02*
X0075804Y0158089D01*
X0075804Y0156554D01*
X0075037Y0155787D01*
X0074439Y0189995D02*
X0075973Y0191530D01*
X0075206Y0191530D02*
X0077508Y0191530D01*
X0077508Y0189995D02*
X0077508Y0194599D01*
X0075206Y0194599D01*
X0074439Y0193832D01*
X0074439Y0192297D01*
X0075206Y0191530D01*
X0072904Y0193064D02*
X0071369Y0194599D01*
X0071369Y0189995D01*
X0069835Y0189995D02*
X0072904Y0189995D01*
X0084835Y0209995D02*
X0087904Y0209995D01*
X0084835Y0213064D01*
X0084835Y0213832D01*
X0085602Y0214599D01*
X0087137Y0214599D01*
X0087904Y0213832D01*
X0089439Y0213832D02*
X0089439Y0212297D01*
X0090206Y0211530D01*
X0092508Y0211530D01*
X0090973Y0211530D02*
X0089439Y0209995D01*
X0092508Y0209995D02*
X0092508Y0214599D01*
X0090206Y0214599D01*
X0089439Y0213832D01*
D14*
X0109173Y0114746D02*
X0109673Y0114746D01*
X0109923Y0114496D01*
X0110396Y0114746D02*
X0110396Y0113495D01*
X0110646Y0113245D01*
X0111146Y0113245D01*
X0111397Y0113495D01*
X0111397Y0114746D01*
X0109923Y0113245D02*
X0108922Y0114246D01*
X0108922Y0114496D01*
X0109173Y0114746D01*
X0108922Y0113245D02*
X0109923Y0113245D01*
M02*
