G75*
%MOIN*%
%OFA0B0*%
%FSLAX25Y25*%
%IPPOS*%
%LPD*%
%AMOC8*
5,1,8,0,0,1.08239X$1,22.5*
%
%ADD10C,0.00000*%
%ADD11R,0.04724X0.07874*%
%ADD12R,0.07874X0.04724*%
%ADD13R,0.08000X0.08000*%
%ADD14C,0.08000*%
%ADD15C,0.07400*%
%ADD16C,0.07000*%
%ADD17R,0.07400X0.07400*%
%ADD18R,0.05118X0.05906*%
%ADD19C,0.06500*%
%ADD20R,0.05906X0.05118*%
%ADD21OC8,0.07400*%
%ADD22R,0.07098X0.06299*%
%ADD23OC8,0.05200*%
%ADD24OC8,0.06300*%
%ADD25C,0.06300*%
%ADD26C,0.06600*%
%ADD27OC8,0.06600*%
%ADD28C,0.02400*%
%ADD29C,0.01000*%
%ADD30C,0.02700*%
D10*
X0001000Y0029795D02*
X0001000Y0226645D01*
X0237220Y0226645D01*
X0237220Y0029795D01*
X0001000Y0029795D01*
D11*
X0049705Y0045268D03*
X0057579Y0045268D03*
X0065453Y0045268D03*
X0073327Y0045268D03*
X0081201Y0045268D03*
X0089075Y0045268D03*
X0096949Y0045268D03*
X0104823Y0045268D03*
X0104823Y0109048D03*
X0096949Y0109048D03*
X0089075Y0109048D03*
X0081201Y0109048D03*
X0073327Y0109048D03*
X0065453Y0109048D03*
X0057579Y0109048D03*
X0049705Y0109048D03*
D12*
X0112697Y0096449D03*
X0112697Y0088575D03*
X0112697Y0080701D03*
X0112697Y0072827D03*
X0112697Y0064953D03*
X0112697Y0057079D03*
D13*
X0211000Y0204795D03*
D14*
X0211000Y0185110D03*
D15*
X0213500Y0137295D03*
X0203500Y0137295D03*
X0193500Y0137295D03*
X0183500Y0137295D03*
X0173500Y0137295D03*
X0173500Y0097295D03*
X0183500Y0097295D03*
X0193500Y0097295D03*
X0203500Y0097295D03*
X0213500Y0097295D03*
X0223500Y0097295D03*
X0223500Y0137295D03*
X0183500Y0064795D03*
X0183500Y0054795D03*
X0183500Y0044795D03*
X0166000Y0054795D03*
X0166000Y0064795D03*
X0148500Y0064795D03*
X0148500Y0054795D03*
X0131000Y0054795D03*
X0131000Y0064795D03*
X0131000Y0044795D03*
X0021000Y0184795D03*
X0021000Y0194795D03*
X0021000Y0204795D03*
X0116000Y0202295D03*
X0116000Y0212295D03*
X0131000Y0212295D03*
X0131000Y0202295D03*
X0131000Y0192295D03*
X0116000Y0192295D03*
X0146000Y0192295D03*
X0146000Y0202295D03*
X0146000Y0212295D03*
D16*
X0056000Y0207590D03*
X0056000Y0182000D03*
D17*
X0116000Y0182295D03*
X0131000Y0182295D03*
X0146000Y0182295D03*
D18*
X0132240Y0169795D03*
X0124760Y0169795D03*
X0124760Y0162295D03*
X0132240Y0162295D03*
X0129740Y0137295D03*
X0122260Y0137295D03*
X0122260Y0122295D03*
X0129740Y0122295D03*
X0044740Y0122295D03*
X0037260Y0122295D03*
X0029740Y0157295D03*
X0022260Y0157295D03*
D19*
X0066000Y0154795D03*
X0066000Y0134795D03*
D20*
X0198500Y0048535D03*
X0198500Y0041055D03*
D21*
X0211000Y0049795D03*
X0211000Y0059795D03*
X0211000Y0069795D03*
X0221000Y0069795D03*
X0221000Y0059795D03*
X0221000Y0049795D03*
D22*
X0043500Y0139197D03*
X0043500Y0150393D03*
D23*
X0090851Y0202237D03*
X0098351Y0207237D03*
X0098351Y0197237D03*
D24*
X0156000Y0159795D03*
X0186000Y0154795D03*
D25*
X0186000Y0164795D03*
X0156000Y0169795D03*
D26*
X0029500Y0130982D03*
X0024500Y0138608D03*
X0012500Y0138608D03*
D27*
X0018500Y0130982D03*
D28*
X0021000Y0194795D02*
X0026000Y0194795D01*
X0031000Y0199795D01*
X0031000Y0214795D01*
X0036000Y0219795D01*
X0216000Y0219795D01*
X0226000Y0209795D01*
X0226000Y0194795D01*
X0216000Y0184795D01*
X0211315Y0184795D01*
X0211000Y0185110D01*
X0201000Y0194795D02*
X0211000Y0204795D01*
X0201000Y0194795D02*
X0201000Y0154795D01*
X0203500Y0152295D01*
X0203500Y0137295D01*
X0201000Y0154795D02*
X0186000Y0154795D01*
X0181000Y0154795D01*
X0176000Y0159795D01*
X0156000Y0159795D01*
D29*
X0151000Y0159795D01*
X0146000Y0164795D01*
X0146000Y0182295D01*
X0131000Y0182295D01*
X0123500Y0182295D01*
X0116000Y0182295D01*
X0123500Y0182295D02*
X0123500Y0194795D01*
X0121000Y0197295D01*
X0111000Y0197295D01*
X0108500Y0199795D01*
X0108500Y0212295D01*
X0106000Y0214795D01*
X0093500Y0214795D01*
X0085802Y0207097D01*
X0056493Y0207097D01*
X0056000Y0207590D01*
X0071000Y0192295D02*
X0060705Y0182000D01*
X0056000Y0182000D01*
X0051000Y0174795D02*
X0103500Y0174795D01*
X0121000Y0157295D01*
X0126000Y0157295D01*
X0124760Y0162295D02*
X0124760Y0169795D01*
X0113500Y0169795D01*
X0098500Y0184795D01*
X0098500Y0187295D01*
X0096000Y0184795D01*
X0096000Y0179795D01*
X0101000Y0172295D02*
X0118500Y0154795D01*
X0116000Y0152295D02*
X0098500Y0169795D01*
X0061000Y0169795D01*
X0056000Y0164795D01*
X0056000Y0129795D01*
X0048500Y0122295D01*
X0044740Y0122295D01*
X0037260Y0122295D02*
X0023500Y0122295D01*
X0018500Y0127295D01*
X0018500Y0130982D01*
X0012500Y0138608D02*
X0012500Y0147535D01*
X0022260Y0157295D01*
X0029740Y0157295D02*
X0043500Y0157295D01*
X0058500Y0172295D01*
X0101000Y0172295D01*
X0096000Y0164795D02*
X0098500Y0162295D01*
X0098500Y0132295D01*
X0101000Y0122295D02*
X0101000Y0117295D01*
X0104823Y0113472D01*
X0104823Y0109048D01*
X0098500Y0107497D02*
X0096949Y0109048D01*
X0098500Y0107497D02*
X0098500Y0082295D01*
X0093500Y0077295D01*
X0093500Y0082295D02*
X0093500Y0097295D01*
X0088500Y0102295D01*
X0088500Y0108473D01*
X0089075Y0109048D01*
X0081201Y0109048D02*
X0081000Y0108847D01*
X0081000Y0099795D01*
X0098500Y0079795D02*
X0098500Y0077295D01*
X0103500Y0072295D01*
X0103500Y0069795D01*
X0101000Y0067295D01*
X0061000Y0067295D01*
X0057579Y0070716D01*
X0057579Y0109048D01*
X0049705Y0109048D02*
X0049705Y0068590D01*
X0058500Y0059795D01*
X0103500Y0059795D01*
X0106000Y0062295D01*
X0106000Y0077295D01*
X0103500Y0079795D01*
X0101000Y0082295D02*
X0101000Y0084795D01*
X0103500Y0087295D01*
X0101000Y0082295D02*
X0098500Y0079795D01*
X0098500Y0072295D02*
X0081000Y0072295D01*
X0066000Y0054795D02*
X0066000Y0045815D01*
X0065453Y0045268D01*
X0049705Y0045268D02*
X0048500Y0044063D01*
X0048500Y0042295D01*
X0046000Y0039795D01*
X0041000Y0039795D01*
X0103500Y0046591D02*
X0104823Y0045268D01*
X0103500Y0046591D02*
X0103500Y0054795D01*
X0121000Y0064795D02*
X0126000Y0059795D01*
X0136000Y0059795D01*
X0148500Y0047295D01*
X0158500Y0047295D01*
X0166000Y0054795D01*
X0171000Y0059795D02*
X0173500Y0059795D01*
X0178500Y0054795D01*
X0183500Y0054795D01*
X0183500Y0064795D02*
X0188500Y0064795D01*
X0193500Y0069795D01*
X0193500Y0097295D01*
X0183500Y0097295D02*
X0183500Y0074795D01*
X0176000Y0067295D01*
X0173500Y0072295D02*
X0173500Y0097295D01*
X0186000Y0107295D02*
X0213500Y0107295D01*
X0218500Y0112295D02*
X0213500Y0117295D01*
X0186000Y0117295D01*
X0181000Y0127295D02*
X0183500Y0129795D01*
X0183500Y0137295D01*
X0181000Y0127295D02*
X0176000Y0127295D01*
X0143500Y0094795D01*
X0123500Y0094795D01*
X0121000Y0097295D01*
X0121000Y0099795D01*
X0118500Y0102295D01*
X0118500Y0107295D01*
X0113500Y0104795D02*
X0118500Y0099795D01*
X0118500Y0094795D01*
X0121000Y0092295D01*
X0146000Y0092295D01*
X0176000Y0122295D01*
X0206000Y0122295D01*
X0208500Y0124795D01*
X0208500Y0174795D01*
X0203500Y0179795D01*
X0203500Y0192295D01*
X0206000Y0194795D01*
X0216000Y0194795D01*
X0218500Y0197295D01*
X0218500Y0212295D01*
X0213500Y0217295D01*
X0126000Y0217295D01*
X0121000Y0212295D01*
X0116000Y0212295D01*
X0106000Y0204795D02*
X0106000Y0197295D01*
X0111000Y0192295D01*
X0116000Y0192295D01*
X0108500Y0187295D02*
X0108500Y0179795D01*
X0113500Y0174795D01*
X0141000Y0174795D01*
X0143500Y0172295D01*
X0143500Y0159795D01*
X0156000Y0147295D01*
X0156000Y0137295D01*
X0151000Y0132295D01*
X0148500Y0137295D02*
X0153500Y0142295D01*
X0153500Y0147295D01*
X0151000Y0149795D01*
X0148500Y0149795D01*
X0146000Y0152295D01*
X0141000Y0152295D02*
X0141000Y0167295D01*
X0138500Y0169795D01*
X0132240Y0169795D01*
X0132240Y0162295D02*
X0138500Y0162295D01*
X0138500Y0152295D01*
X0136000Y0149795D01*
X0118500Y0149795D01*
X0113500Y0144795D01*
X0113500Y0119795D01*
X0118500Y0114795D01*
X0126000Y0114795D01*
X0128500Y0112295D01*
X0128500Y0104795D01*
X0131000Y0107295D02*
X0131000Y0114795D01*
X0128500Y0117295D01*
X0118500Y0117295D01*
X0116000Y0119795D01*
X0116000Y0144795D01*
X0118500Y0147295D01*
X0136000Y0147295D01*
X0141000Y0152295D01*
X0143500Y0147295D02*
X0143500Y0132295D01*
X0138500Y0127295D01*
X0138500Y0112295D01*
X0143500Y0107295D01*
X0143500Y0104795D01*
X0138500Y0104795D02*
X0138500Y0107295D01*
X0136000Y0109795D01*
X0136000Y0127295D01*
X0141000Y0132295D01*
X0141000Y0144795D01*
X0146000Y0144795D02*
X0148500Y0147295D01*
X0146000Y0144795D02*
X0146000Y0129795D01*
X0143500Y0127295D01*
X0143500Y0112295D01*
X0148500Y0109795D02*
X0148500Y0137295D01*
X0153500Y0127295D02*
X0163500Y0127295D01*
X0173500Y0129795D02*
X0173500Y0137295D01*
X0173500Y0129795D02*
X0143500Y0099795D01*
X0123500Y0099795D01*
X0131000Y0107295D02*
X0133500Y0104795D01*
X0129740Y0122295D02*
X0129740Y0128535D01*
X0131000Y0129795D01*
X0129740Y0131055D01*
X0129740Y0137295D01*
X0126000Y0142295D02*
X0128500Y0144795D01*
X0133500Y0144795D01*
X0136000Y0142295D01*
X0136000Y0132295D01*
X0126000Y0127295D02*
X0126000Y0142295D01*
X0122260Y0137295D02*
X0123500Y0136055D01*
X0121000Y0134795D01*
X0121000Y0129795D01*
X0126000Y0127295D02*
X0122260Y0123555D01*
X0122260Y0122295D01*
X0116000Y0152295D02*
X0131000Y0152295D01*
X0133500Y0154795D01*
X0138500Y0187295D02*
X0141000Y0189795D01*
X0141000Y0204795D01*
X0133500Y0212295D01*
X0131000Y0212295D01*
X0131000Y0202295D02*
X0136000Y0202295D01*
X0138500Y0199795D01*
X0138500Y0197295D01*
X0146000Y0202295D02*
X0153500Y0202295D01*
X0158500Y0197295D01*
X0158500Y0182295D01*
X0108500Y0187295D02*
X0103500Y0192295D01*
X0071000Y0192295D01*
X0051000Y0157295D02*
X0044098Y0150393D01*
X0043500Y0150393D01*
X0043500Y0139197D02*
X0043500Y0134795D01*
X0039687Y0130982D01*
X0029500Y0130982D01*
X0036000Y0139795D02*
X0028500Y0147295D01*
X0023500Y0147295D01*
X0098351Y0207237D02*
X0103558Y0207237D01*
X0106000Y0204795D01*
X0121000Y0087295D02*
X0126000Y0082295D01*
X0126000Y0074795D01*
X0128500Y0072295D01*
X0133500Y0072295D01*
X0138500Y0067295D01*
X0138500Y0062295D01*
X0146000Y0054795D01*
X0148500Y0054795D01*
X0166000Y0064795D02*
X0173500Y0072295D01*
X0198500Y0057295D02*
X0198500Y0048535D01*
X0209740Y0048535D01*
X0211000Y0049795D01*
X0198500Y0041055D02*
X0224760Y0041055D01*
X0228500Y0044795D01*
X0228500Y0067295D01*
X0226000Y0069795D01*
X0221000Y0069795D01*
X0221000Y0084795D01*
X0218500Y0087295D01*
X0218500Y0112295D01*
X0198500Y0039795D02*
X0196000Y0037295D01*
X0191000Y0037295D01*
X0121000Y0064795D02*
X0121000Y0079795D01*
D30*
X0121000Y0079795D03*
X0121000Y0087295D03*
X0123500Y0099795D03*
X0128500Y0104795D03*
X0133500Y0104795D03*
X0138500Y0104795D03*
X0143500Y0104795D03*
X0148500Y0109795D03*
X0143500Y0112295D03*
X0153500Y0127295D03*
X0151000Y0132295D03*
X0148500Y0147295D03*
X0143500Y0147295D03*
X0141000Y0144795D03*
X0146000Y0152295D03*
X0138500Y0162295D03*
X0133500Y0154795D03*
X0126000Y0157295D03*
X0118500Y0154795D03*
X0121000Y0129795D03*
X0131000Y0129795D03*
X0136000Y0132295D03*
X0118500Y0107295D03*
X0113500Y0104795D03*
X0101000Y0122295D03*
X0098500Y0132295D03*
X0096000Y0164795D03*
X0096000Y0179795D03*
X0098500Y0187295D03*
X0138500Y0187295D03*
X0138500Y0197295D03*
X0158500Y0182295D03*
X0138500Y0169795D03*
X0163500Y0127295D03*
X0186000Y0117295D03*
X0186000Y0107295D03*
X0213500Y0107295D03*
X0198500Y0057295D03*
X0191000Y0037295D03*
X0171000Y0059795D03*
X0176000Y0067295D03*
X0103500Y0079795D03*
X0103500Y0087295D03*
X0093500Y0082295D03*
X0093500Y0077295D03*
X0098500Y0072295D03*
X0103500Y0054795D03*
X0081000Y0072295D03*
X0066000Y0054795D03*
X0041000Y0039795D03*
X0081000Y0099795D03*
X0036000Y0139795D03*
X0023500Y0147295D03*
X0051000Y0157295D03*
X0051000Y0174795D03*
M02*
