G75*
%MOIN*%
%OFA0B0*%
%FSLAX25Y25*%
%IPPOS*%
%LPD*%
%AMOC8*
5,1,8,0,0,1.08239X$1,22.5*
%
%ADD10C,0.00000*%
%ADD11R,0.08400X0.08400*%
%ADD12C,0.08400*%
%ADD13R,0.03900X0.06800*%
%ADD14R,0.12900X0.06800*%
%ADD15C,0.07800*%
%ADD16C,0.07400*%
%ADD17R,0.07800X0.07800*%
%ADD18R,0.06306X0.05518*%
%ADD19C,0.06900*%
%ADD20R,0.05400X0.02600*%
%ADD21R,0.02600X0.05400*%
%ADD22R,0.07487X0.06699*%
%ADD23OC8,0.07800*%
%ADD24R,0.05518X0.06306*%
%ADD25R,0.06699X0.07487*%
%ADD26OC8,0.05600*%
%ADD27OC8,0.06700*%
%ADD28C,0.06700*%
%ADD29C,0.07000*%
%ADD30OC8,0.07000*%
D10*
X0001000Y0029795D02*
X0001000Y0226645D01*
X0237220Y0226645D01*
X0237220Y0029795D01*
X0001000Y0029795D01*
D11*
X0211000Y0204795D03*
D12*
X0211000Y0185110D03*
D13*
X0183093Y0187996D03*
X0173993Y0187996D03*
X0164893Y0187996D03*
D14*
X0173993Y0213196D03*
D15*
X0146000Y0212295D03*
X0146000Y0202295D03*
X0146000Y0192295D03*
X0131000Y0192295D03*
X0131000Y0202295D03*
X0131000Y0212295D03*
X0116000Y0212295D03*
X0116000Y0202295D03*
X0116000Y0192295D03*
X0173500Y0137295D03*
X0183500Y0137295D03*
X0193500Y0137295D03*
X0203500Y0137295D03*
X0213500Y0137295D03*
X0223500Y0137295D03*
X0223500Y0097295D03*
X0213500Y0097295D03*
X0203500Y0097295D03*
X0193500Y0097295D03*
X0183500Y0097295D03*
X0173500Y0097295D03*
X0166000Y0064795D03*
X0166000Y0054795D03*
X0148500Y0054795D03*
X0148500Y0064795D03*
X0131000Y0064795D03*
X0131000Y0054795D03*
X0131000Y0044795D03*
X0183500Y0044795D03*
X0183500Y0054795D03*
X0183500Y0064795D03*
X0021000Y0184795D03*
X0021000Y0194795D03*
X0021000Y0204795D03*
D16*
X0056000Y0207590D03*
X0056000Y0182000D03*
D17*
X0116000Y0182295D03*
X0131000Y0182295D03*
X0146000Y0182295D03*
D18*
X0076000Y0066035D03*
X0076000Y0058555D03*
X0038500Y0053535D03*
X0038500Y0046055D03*
D19*
X0066000Y0134795D03*
X0066000Y0154795D03*
D20*
X0109100Y0140819D03*
X0109100Y0137669D03*
X0109100Y0134519D03*
X0109100Y0131370D03*
X0109100Y0128220D03*
X0109100Y0125071D03*
X0109100Y0121921D03*
X0109100Y0118771D03*
X0142900Y0118771D03*
X0142900Y0121921D03*
X0142900Y0125071D03*
X0142900Y0128220D03*
X0142900Y0131370D03*
X0142900Y0134519D03*
X0142900Y0137669D03*
X0142900Y0140819D03*
D21*
X0137024Y0146695D03*
X0133874Y0146695D03*
X0130724Y0146695D03*
X0127575Y0146695D03*
X0124425Y0146695D03*
X0121276Y0146695D03*
X0118126Y0146695D03*
X0114976Y0146695D03*
X0114976Y0112895D03*
X0118126Y0112895D03*
X0121276Y0112895D03*
X0124425Y0112895D03*
X0127575Y0112895D03*
X0130724Y0112895D03*
X0133874Y0112895D03*
X0137024Y0112895D03*
D22*
X0081000Y0129283D03*
X0081000Y0140307D03*
X0081000Y0154283D03*
X0081000Y0165307D03*
D23*
X0211000Y0069795D03*
X0211000Y0059795D03*
X0221000Y0059795D03*
X0221000Y0069795D03*
X0221000Y0049795D03*
X0211000Y0049795D03*
D24*
X0202240Y0112295D03*
X0194760Y0112295D03*
X0194760Y0122295D03*
X0202240Y0122295D03*
X0097240Y0054795D03*
X0089760Y0054795D03*
X0084740Y0079795D03*
X0077260Y0079795D03*
X0079760Y0092295D03*
X0087240Y0092295D03*
X0057240Y0054795D03*
X0049760Y0054795D03*
X0067260Y0199795D03*
X0074740Y0199795D03*
X0072260Y0212295D03*
X0079740Y0212295D03*
D25*
X0090488Y0064795D03*
X0101512Y0064795D03*
D26*
X0098351Y0197237D03*
X0090851Y0202237D03*
X0098351Y0207237D03*
D27*
X0156000Y0159795D03*
X0186000Y0154795D03*
D28*
X0186000Y0164795D03*
X0156000Y0169795D03*
D29*
X0029500Y0130982D03*
X0024500Y0138608D03*
X0012500Y0138608D03*
D30*
X0018500Y0130982D03*
M02*
