G75*
%MOIN*%
%OFA0B0*%
%FSLAX25Y25*%
%IPPOS*%
%LPD*%
%AMOC8*
5,1,8,0,0,1.08239X$1,22.5*
%
%ADD10C,0.00000*%
%ADD11C,0.12900*%
%ADD12C,0.06306*%
%ADD13C,0.00039*%
%ADD14C,0.10400*%
%ADD15R,0.07800X0.07800*%
%ADD16C,0.07800*%
D10*
X0044888Y0146728D02*
X0344100Y0146728D01*
X0344290Y0146730D01*
X0344480Y0146737D01*
X0344670Y0146749D01*
X0344860Y0146765D01*
X0345049Y0146785D01*
X0345238Y0146811D01*
X0345426Y0146840D01*
X0345613Y0146875D01*
X0345799Y0146914D01*
X0345984Y0146957D01*
X0346169Y0147005D01*
X0346352Y0147057D01*
X0346533Y0147113D01*
X0346713Y0147174D01*
X0346892Y0147240D01*
X0347069Y0147309D01*
X0347245Y0147383D01*
X0347418Y0147461D01*
X0347590Y0147544D01*
X0347759Y0147630D01*
X0347927Y0147720D01*
X0348092Y0147815D01*
X0348255Y0147913D01*
X0348415Y0148016D01*
X0348573Y0148122D01*
X0348728Y0148232D01*
X0348881Y0148345D01*
X0349031Y0148463D01*
X0349177Y0148584D01*
X0349321Y0148708D01*
X0349462Y0148836D01*
X0349600Y0148967D01*
X0349735Y0149102D01*
X0349866Y0149240D01*
X0349994Y0149381D01*
X0350118Y0149525D01*
X0350239Y0149671D01*
X0350357Y0149821D01*
X0350470Y0149974D01*
X0350580Y0150129D01*
X0350686Y0150287D01*
X0350789Y0150447D01*
X0350887Y0150610D01*
X0350982Y0150775D01*
X0351072Y0150943D01*
X0351158Y0151112D01*
X0351241Y0151284D01*
X0351319Y0151457D01*
X0351393Y0151633D01*
X0351462Y0151810D01*
X0351528Y0151989D01*
X0351589Y0152169D01*
X0351645Y0152350D01*
X0351697Y0152533D01*
X0351745Y0152718D01*
X0351788Y0152903D01*
X0351827Y0153089D01*
X0351862Y0153276D01*
X0351891Y0153464D01*
X0351917Y0153653D01*
X0351937Y0153842D01*
X0351953Y0154032D01*
X0351965Y0154222D01*
X0351972Y0154412D01*
X0351974Y0154602D01*
X0351974Y0335705D01*
X0351972Y0335895D01*
X0351965Y0336085D01*
X0351953Y0336275D01*
X0351937Y0336465D01*
X0351917Y0336654D01*
X0351891Y0336843D01*
X0351862Y0337031D01*
X0351827Y0337218D01*
X0351788Y0337404D01*
X0351745Y0337589D01*
X0351697Y0337774D01*
X0351645Y0337957D01*
X0351589Y0338138D01*
X0351528Y0338318D01*
X0351462Y0338497D01*
X0351393Y0338674D01*
X0351319Y0338850D01*
X0351241Y0339023D01*
X0351158Y0339195D01*
X0351072Y0339364D01*
X0350982Y0339532D01*
X0350887Y0339697D01*
X0350789Y0339860D01*
X0350686Y0340020D01*
X0350580Y0340178D01*
X0350470Y0340333D01*
X0350357Y0340486D01*
X0350239Y0340636D01*
X0350118Y0340782D01*
X0349994Y0340926D01*
X0349866Y0341067D01*
X0349735Y0341205D01*
X0349600Y0341340D01*
X0349462Y0341471D01*
X0349321Y0341599D01*
X0349177Y0341723D01*
X0349031Y0341844D01*
X0348881Y0341962D01*
X0348728Y0342075D01*
X0348573Y0342185D01*
X0348415Y0342291D01*
X0348255Y0342394D01*
X0348092Y0342492D01*
X0347927Y0342587D01*
X0347759Y0342677D01*
X0347590Y0342763D01*
X0347418Y0342846D01*
X0347245Y0342924D01*
X0347069Y0342998D01*
X0346892Y0343067D01*
X0346713Y0343133D01*
X0346533Y0343194D01*
X0346352Y0343250D01*
X0346169Y0343302D01*
X0345984Y0343350D01*
X0345799Y0343393D01*
X0345613Y0343432D01*
X0345426Y0343467D01*
X0345238Y0343496D01*
X0345049Y0343522D01*
X0344860Y0343542D01*
X0344670Y0343558D01*
X0344480Y0343570D01*
X0344290Y0343577D01*
X0344100Y0343579D01*
X0044888Y0343579D01*
X0044698Y0343577D01*
X0044508Y0343570D01*
X0044318Y0343558D01*
X0044128Y0343542D01*
X0043939Y0343522D01*
X0043750Y0343496D01*
X0043562Y0343467D01*
X0043375Y0343432D01*
X0043189Y0343393D01*
X0043004Y0343350D01*
X0042819Y0343302D01*
X0042636Y0343250D01*
X0042455Y0343194D01*
X0042275Y0343133D01*
X0042096Y0343067D01*
X0041919Y0342998D01*
X0041743Y0342924D01*
X0041570Y0342846D01*
X0041398Y0342763D01*
X0041229Y0342677D01*
X0041061Y0342587D01*
X0040896Y0342492D01*
X0040733Y0342394D01*
X0040573Y0342291D01*
X0040415Y0342185D01*
X0040260Y0342075D01*
X0040107Y0341962D01*
X0039957Y0341844D01*
X0039811Y0341723D01*
X0039667Y0341599D01*
X0039526Y0341471D01*
X0039388Y0341340D01*
X0039253Y0341205D01*
X0039122Y0341067D01*
X0038994Y0340926D01*
X0038870Y0340782D01*
X0038749Y0340636D01*
X0038631Y0340486D01*
X0038518Y0340333D01*
X0038408Y0340178D01*
X0038302Y0340020D01*
X0038199Y0339860D01*
X0038101Y0339697D01*
X0038006Y0339532D01*
X0037916Y0339364D01*
X0037830Y0339195D01*
X0037747Y0339023D01*
X0037669Y0338850D01*
X0037595Y0338674D01*
X0037526Y0338497D01*
X0037460Y0338318D01*
X0037399Y0338138D01*
X0037343Y0337957D01*
X0037291Y0337774D01*
X0037243Y0337589D01*
X0037200Y0337404D01*
X0037161Y0337218D01*
X0037126Y0337031D01*
X0037097Y0336843D01*
X0037071Y0336654D01*
X0037051Y0336465D01*
X0037035Y0336275D01*
X0037023Y0336085D01*
X0037016Y0335895D01*
X0037014Y0335705D01*
X0037014Y0154602D01*
X0037016Y0154412D01*
X0037023Y0154222D01*
X0037035Y0154032D01*
X0037051Y0153842D01*
X0037071Y0153653D01*
X0037097Y0153464D01*
X0037126Y0153276D01*
X0037161Y0153089D01*
X0037200Y0152903D01*
X0037243Y0152718D01*
X0037291Y0152533D01*
X0037343Y0152350D01*
X0037399Y0152169D01*
X0037460Y0151989D01*
X0037526Y0151810D01*
X0037595Y0151633D01*
X0037669Y0151457D01*
X0037747Y0151284D01*
X0037830Y0151112D01*
X0037916Y0150943D01*
X0038006Y0150775D01*
X0038101Y0150610D01*
X0038199Y0150447D01*
X0038302Y0150287D01*
X0038408Y0150129D01*
X0038518Y0149974D01*
X0038631Y0149821D01*
X0038749Y0149671D01*
X0038870Y0149525D01*
X0038994Y0149381D01*
X0039122Y0149240D01*
X0039253Y0149102D01*
X0039388Y0148967D01*
X0039526Y0148836D01*
X0039667Y0148708D01*
X0039811Y0148584D01*
X0039957Y0148463D01*
X0040107Y0148345D01*
X0040260Y0148232D01*
X0040415Y0148122D01*
X0040573Y0148016D01*
X0040733Y0147913D01*
X0040896Y0147815D01*
X0041061Y0147720D01*
X0041229Y0147630D01*
X0041398Y0147544D01*
X0041570Y0147461D01*
X0041743Y0147383D01*
X0041919Y0147309D01*
X0042096Y0147240D01*
X0042275Y0147174D01*
X0042455Y0147113D01*
X0042636Y0147057D01*
X0042819Y0147005D01*
X0043004Y0146957D01*
X0043189Y0146914D01*
X0043375Y0146875D01*
X0043562Y0146840D01*
X0043750Y0146811D01*
X0043939Y0146785D01*
X0044128Y0146765D01*
X0044318Y0146749D01*
X0044508Y0146737D01*
X0044698Y0146730D01*
X0044888Y0146728D01*
X0042575Y0158539D02*
X0042577Y0158697D01*
X0042583Y0158854D01*
X0042593Y0159012D01*
X0042607Y0159169D01*
X0042625Y0159325D01*
X0042646Y0159482D01*
X0042672Y0159637D01*
X0042702Y0159792D01*
X0042735Y0159946D01*
X0042773Y0160099D01*
X0042814Y0160252D01*
X0042859Y0160403D01*
X0042908Y0160553D01*
X0042961Y0160701D01*
X0043017Y0160849D01*
X0043078Y0160994D01*
X0043141Y0161139D01*
X0043209Y0161281D01*
X0043280Y0161422D01*
X0043354Y0161561D01*
X0043432Y0161698D01*
X0043514Y0161833D01*
X0043598Y0161966D01*
X0043687Y0162097D01*
X0043778Y0162225D01*
X0043873Y0162352D01*
X0043970Y0162475D01*
X0044071Y0162597D01*
X0044175Y0162715D01*
X0044282Y0162831D01*
X0044392Y0162944D01*
X0044504Y0163055D01*
X0044620Y0163162D01*
X0044738Y0163267D01*
X0044858Y0163369D01*
X0044981Y0163467D01*
X0045107Y0163563D01*
X0045235Y0163655D01*
X0045365Y0163744D01*
X0045497Y0163830D01*
X0045632Y0163912D01*
X0045769Y0163991D01*
X0045907Y0164066D01*
X0046047Y0164138D01*
X0046190Y0164206D01*
X0046333Y0164271D01*
X0046479Y0164332D01*
X0046626Y0164389D01*
X0046774Y0164443D01*
X0046924Y0164493D01*
X0047074Y0164539D01*
X0047226Y0164581D01*
X0047379Y0164620D01*
X0047533Y0164654D01*
X0047688Y0164685D01*
X0047843Y0164711D01*
X0047999Y0164734D01*
X0048156Y0164753D01*
X0048313Y0164768D01*
X0048470Y0164779D01*
X0048628Y0164786D01*
X0048786Y0164789D01*
X0048943Y0164788D01*
X0049101Y0164783D01*
X0049258Y0164774D01*
X0049416Y0164761D01*
X0049572Y0164744D01*
X0049729Y0164723D01*
X0049884Y0164699D01*
X0050039Y0164670D01*
X0050194Y0164637D01*
X0050347Y0164601D01*
X0050500Y0164560D01*
X0050651Y0164516D01*
X0050801Y0164468D01*
X0050950Y0164417D01*
X0051098Y0164361D01*
X0051244Y0164302D01*
X0051389Y0164239D01*
X0051532Y0164172D01*
X0051673Y0164102D01*
X0051812Y0164029D01*
X0051950Y0163952D01*
X0052086Y0163871D01*
X0052219Y0163787D01*
X0052350Y0163700D01*
X0052479Y0163609D01*
X0052606Y0163515D01*
X0052731Y0163418D01*
X0052852Y0163318D01*
X0052972Y0163215D01*
X0053088Y0163109D01*
X0053202Y0163000D01*
X0053314Y0162888D01*
X0053422Y0162774D01*
X0053527Y0162656D01*
X0053630Y0162536D01*
X0053729Y0162414D01*
X0053825Y0162289D01*
X0053918Y0162161D01*
X0054008Y0162032D01*
X0054094Y0161900D01*
X0054178Y0161766D01*
X0054257Y0161630D01*
X0054334Y0161492D01*
X0054406Y0161352D01*
X0054475Y0161210D01*
X0054541Y0161067D01*
X0054603Y0160922D01*
X0054661Y0160775D01*
X0054716Y0160627D01*
X0054767Y0160478D01*
X0054814Y0160327D01*
X0054857Y0160176D01*
X0054896Y0160023D01*
X0054932Y0159869D01*
X0054963Y0159715D01*
X0054991Y0159560D01*
X0055015Y0159404D01*
X0055035Y0159247D01*
X0055051Y0159090D01*
X0055063Y0158933D01*
X0055071Y0158776D01*
X0055075Y0158618D01*
X0055075Y0158460D01*
X0055071Y0158302D01*
X0055063Y0158145D01*
X0055051Y0157988D01*
X0055035Y0157831D01*
X0055015Y0157674D01*
X0054991Y0157518D01*
X0054963Y0157363D01*
X0054932Y0157209D01*
X0054896Y0157055D01*
X0054857Y0156902D01*
X0054814Y0156751D01*
X0054767Y0156600D01*
X0054716Y0156451D01*
X0054661Y0156303D01*
X0054603Y0156156D01*
X0054541Y0156011D01*
X0054475Y0155868D01*
X0054406Y0155726D01*
X0054334Y0155586D01*
X0054257Y0155448D01*
X0054178Y0155312D01*
X0054094Y0155178D01*
X0054008Y0155046D01*
X0053918Y0154917D01*
X0053825Y0154789D01*
X0053729Y0154664D01*
X0053630Y0154542D01*
X0053527Y0154422D01*
X0053422Y0154304D01*
X0053314Y0154190D01*
X0053202Y0154078D01*
X0053088Y0153969D01*
X0052972Y0153863D01*
X0052852Y0153760D01*
X0052731Y0153660D01*
X0052606Y0153563D01*
X0052479Y0153469D01*
X0052350Y0153378D01*
X0052219Y0153291D01*
X0052086Y0153207D01*
X0051950Y0153126D01*
X0051812Y0153049D01*
X0051673Y0152976D01*
X0051532Y0152906D01*
X0051389Y0152839D01*
X0051244Y0152776D01*
X0051098Y0152717D01*
X0050950Y0152661D01*
X0050801Y0152610D01*
X0050651Y0152562D01*
X0050500Y0152518D01*
X0050347Y0152477D01*
X0050194Y0152441D01*
X0050039Y0152408D01*
X0049884Y0152379D01*
X0049729Y0152355D01*
X0049572Y0152334D01*
X0049416Y0152317D01*
X0049258Y0152304D01*
X0049101Y0152295D01*
X0048943Y0152290D01*
X0048786Y0152289D01*
X0048628Y0152292D01*
X0048470Y0152299D01*
X0048313Y0152310D01*
X0048156Y0152325D01*
X0047999Y0152344D01*
X0047843Y0152367D01*
X0047688Y0152393D01*
X0047533Y0152424D01*
X0047379Y0152458D01*
X0047226Y0152497D01*
X0047074Y0152539D01*
X0046924Y0152585D01*
X0046774Y0152635D01*
X0046626Y0152689D01*
X0046479Y0152746D01*
X0046333Y0152807D01*
X0046190Y0152872D01*
X0046047Y0152940D01*
X0045907Y0153012D01*
X0045769Y0153087D01*
X0045632Y0153166D01*
X0045497Y0153248D01*
X0045365Y0153334D01*
X0045235Y0153423D01*
X0045107Y0153515D01*
X0044981Y0153611D01*
X0044858Y0153709D01*
X0044738Y0153811D01*
X0044620Y0153916D01*
X0044504Y0154023D01*
X0044392Y0154134D01*
X0044282Y0154247D01*
X0044175Y0154363D01*
X0044071Y0154481D01*
X0043970Y0154603D01*
X0043873Y0154726D01*
X0043778Y0154853D01*
X0043687Y0154981D01*
X0043598Y0155112D01*
X0043514Y0155245D01*
X0043432Y0155380D01*
X0043354Y0155517D01*
X0043280Y0155656D01*
X0043209Y0155797D01*
X0043141Y0155939D01*
X0043078Y0156084D01*
X0043017Y0156229D01*
X0042961Y0156377D01*
X0042908Y0156525D01*
X0042859Y0156675D01*
X0042814Y0156826D01*
X0042773Y0156979D01*
X0042735Y0157132D01*
X0042702Y0157286D01*
X0042672Y0157441D01*
X0042646Y0157596D01*
X0042625Y0157753D01*
X0042607Y0157909D01*
X0042593Y0158066D01*
X0042583Y0158224D01*
X0042577Y0158381D01*
X0042575Y0158539D01*
X0042575Y0331768D02*
X0042577Y0331926D01*
X0042583Y0332083D01*
X0042593Y0332241D01*
X0042607Y0332398D01*
X0042625Y0332554D01*
X0042646Y0332711D01*
X0042672Y0332866D01*
X0042702Y0333021D01*
X0042735Y0333175D01*
X0042773Y0333328D01*
X0042814Y0333481D01*
X0042859Y0333632D01*
X0042908Y0333782D01*
X0042961Y0333930D01*
X0043017Y0334078D01*
X0043078Y0334223D01*
X0043141Y0334368D01*
X0043209Y0334510D01*
X0043280Y0334651D01*
X0043354Y0334790D01*
X0043432Y0334927D01*
X0043514Y0335062D01*
X0043598Y0335195D01*
X0043687Y0335326D01*
X0043778Y0335454D01*
X0043873Y0335581D01*
X0043970Y0335704D01*
X0044071Y0335826D01*
X0044175Y0335944D01*
X0044282Y0336060D01*
X0044392Y0336173D01*
X0044504Y0336284D01*
X0044620Y0336391D01*
X0044738Y0336496D01*
X0044858Y0336598D01*
X0044981Y0336696D01*
X0045107Y0336792D01*
X0045235Y0336884D01*
X0045365Y0336973D01*
X0045497Y0337059D01*
X0045632Y0337141D01*
X0045769Y0337220D01*
X0045907Y0337295D01*
X0046047Y0337367D01*
X0046190Y0337435D01*
X0046333Y0337500D01*
X0046479Y0337561D01*
X0046626Y0337618D01*
X0046774Y0337672D01*
X0046924Y0337722D01*
X0047074Y0337768D01*
X0047226Y0337810D01*
X0047379Y0337849D01*
X0047533Y0337883D01*
X0047688Y0337914D01*
X0047843Y0337940D01*
X0047999Y0337963D01*
X0048156Y0337982D01*
X0048313Y0337997D01*
X0048470Y0338008D01*
X0048628Y0338015D01*
X0048786Y0338018D01*
X0048943Y0338017D01*
X0049101Y0338012D01*
X0049258Y0338003D01*
X0049416Y0337990D01*
X0049572Y0337973D01*
X0049729Y0337952D01*
X0049884Y0337928D01*
X0050039Y0337899D01*
X0050194Y0337866D01*
X0050347Y0337830D01*
X0050500Y0337789D01*
X0050651Y0337745D01*
X0050801Y0337697D01*
X0050950Y0337646D01*
X0051098Y0337590D01*
X0051244Y0337531D01*
X0051389Y0337468D01*
X0051532Y0337401D01*
X0051673Y0337331D01*
X0051812Y0337258D01*
X0051950Y0337181D01*
X0052086Y0337100D01*
X0052219Y0337016D01*
X0052350Y0336929D01*
X0052479Y0336838D01*
X0052606Y0336744D01*
X0052731Y0336647D01*
X0052852Y0336547D01*
X0052972Y0336444D01*
X0053088Y0336338D01*
X0053202Y0336229D01*
X0053314Y0336117D01*
X0053422Y0336003D01*
X0053527Y0335885D01*
X0053630Y0335765D01*
X0053729Y0335643D01*
X0053825Y0335518D01*
X0053918Y0335390D01*
X0054008Y0335261D01*
X0054094Y0335129D01*
X0054178Y0334995D01*
X0054257Y0334859D01*
X0054334Y0334721D01*
X0054406Y0334581D01*
X0054475Y0334439D01*
X0054541Y0334296D01*
X0054603Y0334151D01*
X0054661Y0334004D01*
X0054716Y0333856D01*
X0054767Y0333707D01*
X0054814Y0333556D01*
X0054857Y0333405D01*
X0054896Y0333252D01*
X0054932Y0333098D01*
X0054963Y0332944D01*
X0054991Y0332789D01*
X0055015Y0332633D01*
X0055035Y0332476D01*
X0055051Y0332319D01*
X0055063Y0332162D01*
X0055071Y0332005D01*
X0055075Y0331847D01*
X0055075Y0331689D01*
X0055071Y0331531D01*
X0055063Y0331374D01*
X0055051Y0331217D01*
X0055035Y0331060D01*
X0055015Y0330903D01*
X0054991Y0330747D01*
X0054963Y0330592D01*
X0054932Y0330438D01*
X0054896Y0330284D01*
X0054857Y0330131D01*
X0054814Y0329980D01*
X0054767Y0329829D01*
X0054716Y0329680D01*
X0054661Y0329532D01*
X0054603Y0329385D01*
X0054541Y0329240D01*
X0054475Y0329097D01*
X0054406Y0328955D01*
X0054334Y0328815D01*
X0054257Y0328677D01*
X0054178Y0328541D01*
X0054094Y0328407D01*
X0054008Y0328275D01*
X0053918Y0328146D01*
X0053825Y0328018D01*
X0053729Y0327893D01*
X0053630Y0327771D01*
X0053527Y0327651D01*
X0053422Y0327533D01*
X0053314Y0327419D01*
X0053202Y0327307D01*
X0053088Y0327198D01*
X0052972Y0327092D01*
X0052852Y0326989D01*
X0052731Y0326889D01*
X0052606Y0326792D01*
X0052479Y0326698D01*
X0052350Y0326607D01*
X0052219Y0326520D01*
X0052086Y0326436D01*
X0051950Y0326355D01*
X0051812Y0326278D01*
X0051673Y0326205D01*
X0051532Y0326135D01*
X0051389Y0326068D01*
X0051244Y0326005D01*
X0051098Y0325946D01*
X0050950Y0325890D01*
X0050801Y0325839D01*
X0050651Y0325791D01*
X0050500Y0325747D01*
X0050347Y0325706D01*
X0050194Y0325670D01*
X0050039Y0325637D01*
X0049884Y0325608D01*
X0049729Y0325584D01*
X0049572Y0325563D01*
X0049416Y0325546D01*
X0049258Y0325533D01*
X0049101Y0325524D01*
X0048943Y0325519D01*
X0048786Y0325518D01*
X0048628Y0325521D01*
X0048470Y0325528D01*
X0048313Y0325539D01*
X0048156Y0325554D01*
X0047999Y0325573D01*
X0047843Y0325596D01*
X0047688Y0325622D01*
X0047533Y0325653D01*
X0047379Y0325687D01*
X0047226Y0325726D01*
X0047074Y0325768D01*
X0046924Y0325814D01*
X0046774Y0325864D01*
X0046626Y0325918D01*
X0046479Y0325975D01*
X0046333Y0326036D01*
X0046190Y0326101D01*
X0046047Y0326169D01*
X0045907Y0326241D01*
X0045769Y0326316D01*
X0045632Y0326395D01*
X0045497Y0326477D01*
X0045365Y0326563D01*
X0045235Y0326652D01*
X0045107Y0326744D01*
X0044981Y0326840D01*
X0044858Y0326938D01*
X0044738Y0327040D01*
X0044620Y0327145D01*
X0044504Y0327252D01*
X0044392Y0327363D01*
X0044282Y0327476D01*
X0044175Y0327592D01*
X0044071Y0327710D01*
X0043970Y0327832D01*
X0043873Y0327955D01*
X0043778Y0328082D01*
X0043687Y0328210D01*
X0043598Y0328341D01*
X0043514Y0328474D01*
X0043432Y0328609D01*
X0043354Y0328746D01*
X0043280Y0328885D01*
X0043209Y0329026D01*
X0043141Y0329168D01*
X0043078Y0329313D01*
X0043017Y0329458D01*
X0042961Y0329606D01*
X0042908Y0329754D01*
X0042859Y0329904D01*
X0042814Y0330055D01*
X0042773Y0330208D01*
X0042735Y0330361D01*
X0042702Y0330515D01*
X0042672Y0330670D01*
X0042646Y0330825D01*
X0042625Y0330982D01*
X0042607Y0331138D01*
X0042593Y0331295D01*
X0042583Y0331453D01*
X0042577Y0331610D01*
X0042575Y0331768D01*
X0333913Y0331768D02*
X0333915Y0331926D01*
X0333921Y0332083D01*
X0333931Y0332241D01*
X0333945Y0332398D01*
X0333963Y0332554D01*
X0333984Y0332711D01*
X0334010Y0332866D01*
X0334040Y0333021D01*
X0334073Y0333175D01*
X0334111Y0333328D01*
X0334152Y0333481D01*
X0334197Y0333632D01*
X0334246Y0333782D01*
X0334299Y0333930D01*
X0334355Y0334078D01*
X0334416Y0334223D01*
X0334479Y0334368D01*
X0334547Y0334510D01*
X0334618Y0334651D01*
X0334692Y0334790D01*
X0334770Y0334927D01*
X0334852Y0335062D01*
X0334936Y0335195D01*
X0335025Y0335326D01*
X0335116Y0335454D01*
X0335211Y0335581D01*
X0335308Y0335704D01*
X0335409Y0335826D01*
X0335513Y0335944D01*
X0335620Y0336060D01*
X0335730Y0336173D01*
X0335842Y0336284D01*
X0335958Y0336391D01*
X0336076Y0336496D01*
X0336196Y0336598D01*
X0336319Y0336696D01*
X0336445Y0336792D01*
X0336573Y0336884D01*
X0336703Y0336973D01*
X0336835Y0337059D01*
X0336970Y0337141D01*
X0337107Y0337220D01*
X0337245Y0337295D01*
X0337385Y0337367D01*
X0337528Y0337435D01*
X0337671Y0337500D01*
X0337817Y0337561D01*
X0337964Y0337618D01*
X0338112Y0337672D01*
X0338262Y0337722D01*
X0338412Y0337768D01*
X0338564Y0337810D01*
X0338717Y0337849D01*
X0338871Y0337883D01*
X0339026Y0337914D01*
X0339181Y0337940D01*
X0339337Y0337963D01*
X0339494Y0337982D01*
X0339651Y0337997D01*
X0339808Y0338008D01*
X0339966Y0338015D01*
X0340124Y0338018D01*
X0340281Y0338017D01*
X0340439Y0338012D01*
X0340596Y0338003D01*
X0340754Y0337990D01*
X0340910Y0337973D01*
X0341067Y0337952D01*
X0341222Y0337928D01*
X0341377Y0337899D01*
X0341532Y0337866D01*
X0341685Y0337830D01*
X0341838Y0337789D01*
X0341989Y0337745D01*
X0342139Y0337697D01*
X0342288Y0337646D01*
X0342436Y0337590D01*
X0342582Y0337531D01*
X0342727Y0337468D01*
X0342870Y0337401D01*
X0343011Y0337331D01*
X0343150Y0337258D01*
X0343288Y0337181D01*
X0343424Y0337100D01*
X0343557Y0337016D01*
X0343688Y0336929D01*
X0343817Y0336838D01*
X0343944Y0336744D01*
X0344069Y0336647D01*
X0344190Y0336547D01*
X0344310Y0336444D01*
X0344426Y0336338D01*
X0344540Y0336229D01*
X0344652Y0336117D01*
X0344760Y0336003D01*
X0344865Y0335885D01*
X0344968Y0335765D01*
X0345067Y0335643D01*
X0345163Y0335518D01*
X0345256Y0335390D01*
X0345346Y0335261D01*
X0345432Y0335129D01*
X0345516Y0334995D01*
X0345595Y0334859D01*
X0345672Y0334721D01*
X0345744Y0334581D01*
X0345813Y0334439D01*
X0345879Y0334296D01*
X0345941Y0334151D01*
X0345999Y0334004D01*
X0346054Y0333856D01*
X0346105Y0333707D01*
X0346152Y0333556D01*
X0346195Y0333405D01*
X0346234Y0333252D01*
X0346270Y0333098D01*
X0346301Y0332944D01*
X0346329Y0332789D01*
X0346353Y0332633D01*
X0346373Y0332476D01*
X0346389Y0332319D01*
X0346401Y0332162D01*
X0346409Y0332005D01*
X0346413Y0331847D01*
X0346413Y0331689D01*
X0346409Y0331531D01*
X0346401Y0331374D01*
X0346389Y0331217D01*
X0346373Y0331060D01*
X0346353Y0330903D01*
X0346329Y0330747D01*
X0346301Y0330592D01*
X0346270Y0330438D01*
X0346234Y0330284D01*
X0346195Y0330131D01*
X0346152Y0329980D01*
X0346105Y0329829D01*
X0346054Y0329680D01*
X0345999Y0329532D01*
X0345941Y0329385D01*
X0345879Y0329240D01*
X0345813Y0329097D01*
X0345744Y0328955D01*
X0345672Y0328815D01*
X0345595Y0328677D01*
X0345516Y0328541D01*
X0345432Y0328407D01*
X0345346Y0328275D01*
X0345256Y0328146D01*
X0345163Y0328018D01*
X0345067Y0327893D01*
X0344968Y0327771D01*
X0344865Y0327651D01*
X0344760Y0327533D01*
X0344652Y0327419D01*
X0344540Y0327307D01*
X0344426Y0327198D01*
X0344310Y0327092D01*
X0344190Y0326989D01*
X0344069Y0326889D01*
X0343944Y0326792D01*
X0343817Y0326698D01*
X0343688Y0326607D01*
X0343557Y0326520D01*
X0343424Y0326436D01*
X0343288Y0326355D01*
X0343150Y0326278D01*
X0343011Y0326205D01*
X0342870Y0326135D01*
X0342727Y0326068D01*
X0342582Y0326005D01*
X0342436Y0325946D01*
X0342288Y0325890D01*
X0342139Y0325839D01*
X0341989Y0325791D01*
X0341838Y0325747D01*
X0341685Y0325706D01*
X0341532Y0325670D01*
X0341377Y0325637D01*
X0341222Y0325608D01*
X0341067Y0325584D01*
X0340910Y0325563D01*
X0340754Y0325546D01*
X0340596Y0325533D01*
X0340439Y0325524D01*
X0340281Y0325519D01*
X0340124Y0325518D01*
X0339966Y0325521D01*
X0339808Y0325528D01*
X0339651Y0325539D01*
X0339494Y0325554D01*
X0339337Y0325573D01*
X0339181Y0325596D01*
X0339026Y0325622D01*
X0338871Y0325653D01*
X0338717Y0325687D01*
X0338564Y0325726D01*
X0338412Y0325768D01*
X0338262Y0325814D01*
X0338112Y0325864D01*
X0337964Y0325918D01*
X0337817Y0325975D01*
X0337671Y0326036D01*
X0337528Y0326101D01*
X0337385Y0326169D01*
X0337245Y0326241D01*
X0337107Y0326316D01*
X0336970Y0326395D01*
X0336835Y0326477D01*
X0336703Y0326563D01*
X0336573Y0326652D01*
X0336445Y0326744D01*
X0336319Y0326840D01*
X0336196Y0326938D01*
X0336076Y0327040D01*
X0335958Y0327145D01*
X0335842Y0327252D01*
X0335730Y0327363D01*
X0335620Y0327476D01*
X0335513Y0327592D01*
X0335409Y0327710D01*
X0335308Y0327832D01*
X0335211Y0327955D01*
X0335116Y0328082D01*
X0335025Y0328210D01*
X0334936Y0328341D01*
X0334852Y0328474D01*
X0334770Y0328609D01*
X0334692Y0328746D01*
X0334618Y0328885D01*
X0334547Y0329026D01*
X0334479Y0329168D01*
X0334416Y0329313D01*
X0334355Y0329458D01*
X0334299Y0329606D01*
X0334246Y0329754D01*
X0334197Y0329904D01*
X0334152Y0330055D01*
X0334111Y0330208D01*
X0334073Y0330361D01*
X0334040Y0330515D01*
X0334010Y0330670D01*
X0333984Y0330825D01*
X0333963Y0330982D01*
X0333945Y0331138D01*
X0333931Y0331295D01*
X0333921Y0331453D01*
X0333915Y0331610D01*
X0333913Y0331768D01*
X0333913Y0158539D02*
X0333915Y0158697D01*
X0333921Y0158854D01*
X0333931Y0159012D01*
X0333945Y0159169D01*
X0333963Y0159325D01*
X0333984Y0159482D01*
X0334010Y0159637D01*
X0334040Y0159792D01*
X0334073Y0159946D01*
X0334111Y0160099D01*
X0334152Y0160252D01*
X0334197Y0160403D01*
X0334246Y0160553D01*
X0334299Y0160701D01*
X0334355Y0160849D01*
X0334416Y0160994D01*
X0334479Y0161139D01*
X0334547Y0161281D01*
X0334618Y0161422D01*
X0334692Y0161561D01*
X0334770Y0161698D01*
X0334852Y0161833D01*
X0334936Y0161966D01*
X0335025Y0162097D01*
X0335116Y0162225D01*
X0335211Y0162352D01*
X0335308Y0162475D01*
X0335409Y0162597D01*
X0335513Y0162715D01*
X0335620Y0162831D01*
X0335730Y0162944D01*
X0335842Y0163055D01*
X0335958Y0163162D01*
X0336076Y0163267D01*
X0336196Y0163369D01*
X0336319Y0163467D01*
X0336445Y0163563D01*
X0336573Y0163655D01*
X0336703Y0163744D01*
X0336835Y0163830D01*
X0336970Y0163912D01*
X0337107Y0163991D01*
X0337245Y0164066D01*
X0337385Y0164138D01*
X0337528Y0164206D01*
X0337671Y0164271D01*
X0337817Y0164332D01*
X0337964Y0164389D01*
X0338112Y0164443D01*
X0338262Y0164493D01*
X0338412Y0164539D01*
X0338564Y0164581D01*
X0338717Y0164620D01*
X0338871Y0164654D01*
X0339026Y0164685D01*
X0339181Y0164711D01*
X0339337Y0164734D01*
X0339494Y0164753D01*
X0339651Y0164768D01*
X0339808Y0164779D01*
X0339966Y0164786D01*
X0340124Y0164789D01*
X0340281Y0164788D01*
X0340439Y0164783D01*
X0340596Y0164774D01*
X0340754Y0164761D01*
X0340910Y0164744D01*
X0341067Y0164723D01*
X0341222Y0164699D01*
X0341377Y0164670D01*
X0341532Y0164637D01*
X0341685Y0164601D01*
X0341838Y0164560D01*
X0341989Y0164516D01*
X0342139Y0164468D01*
X0342288Y0164417D01*
X0342436Y0164361D01*
X0342582Y0164302D01*
X0342727Y0164239D01*
X0342870Y0164172D01*
X0343011Y0164102D01*
X0343150Y0164029D01*
X0343288Y0163952D01*
X0343424Y0163871D01*
X0343557Y0163787D01*
X0343688Y0163700D01*
X0343817Y0163609D01*
X0343944Y0163515D01*
X0344069Y0163418D01*
X0344190Y0163318D01*
X0344310Y0163215D01*
X0344426Y0163109D01*
X0344540Y0163000D01*
X0344652Y0162888D01*
X0344760Y0162774D01*
X0344865Y0162656D01*
X0344968Y0162536D01*
X0345067Y0162414D01*
X0345163Y0162289D01*
X0345256Y0162161D01*
X0345346Y0162032D01*
X0345432Y0161900D01*
X0345516Y0161766D01*
X0345595Y0161630D01*
X0345672Y0161492D01*
X0345744Y0161352D01*
X0345813Y0161210D01*
X0345879Y0161067D01*
X0345941Y0160922D01*
X0345999Y0160775D01*
X0346054Y0160627D01*
X0346105Y0160478D01*
X0346152Y0160327D01*
X0346195Y0160176D01*
X0346234Y0160023D01*
X0346270Y0159869D01*
X0346301Y0159715D01*
X0346329Y0159560D01*
X0346353Y0159404D01*
X0346373Y0159247D01*
X0346389Y0159090D01*
X0346401Y0158933D01*
X0346409Y0158776D01*
X0346413Y0158618D01*
X0346413Y0158460D01*
X0346409Y0158302D01*
X0346401Y0158145D01*
X0346389Y0157988D01*
X0346373Y0157831D01*
X0346353Y0157674D01*
X0346329Y0157518D01*
X0346301Y0157363D01*
X0346270Y0157209D01*
X0346234Y0157055D01*
X0346195Y0156902D01*
X0346152Y0156751D01*
X0346105Y0156600D01*
X0346054Y0156451D01*
X0345999Y0156303D01*
X0345941Y0156156D01*
X0345879Y0156011D01*
X0345813Y0155868D01*
X0345744Y0155726D01*
X0345672Y0155586D01*
X0345595Y0155448D01*
X0345516Y0155312D01*
X0345432Y0155178D01*
X0345346Y0155046D01*
X0345256Y0154917D01*
X0345163Y0154789D01*
X0345067Y0154664D01*
X0344968Y0154542D01*
X0344865Y0154422D01*
X0344760Y0154304D01*
X0344652Y0154190D01*
X0344540Y0154078D01*
X0344426Y0153969D01*
X0344310Y0153863D01*
X0344190Y0153760D01*
X0344069Y0153660D01*
X0343944Y0153563D01*
X0343817Y0153469D01*
X0343688Y0153378D01*
X0343557Y0153291D01*
X0343424Y0153207D01*
X0343288Y0153126D01*
X0343150Y0153049D01*
X0343011Y0152976D01*
X0342870Y0152906D01*
X0342727Y0152839D01*
X0342582Y0152776D01*
X0342436Y0152717D01*
X0342288Y0152661D01*
X0342139Y0152610D01*
X0341989Y0152562D01*
X0341838Y0152518D01*
X0341685Y0152477D01*
X0341532Y0152441D01*
X0341377Y0152408D01*
X0341222Y0152379D01*
X0341067Y0152355D01*
X0340910Y0152334D01*
X0340754Y0152317D01*
X0340596Y0152304D01*
X0340439Y0152295D01*
X0340281Y0152290D01*
X0340124Y0152289D01*
X0339966Y0152292D01*
X0339808Y0152299D01*
X0339651Y0152310D01*
X0339494Y0152325D01*
X0339337Y0152344D01*
X0339181Y0152367D01*
X0339026Y0152393D01*
X0338871Y0152424D01*
X0338717Y0152458D01*
X0338564Y0152497D01*
X0338412Y0152539D01*
X0338262Y0152585D01*
X0338112Y0152635D01*
X0337964Y0152689D01*
X0337817Y0152746D01*
X0337671Y0152807D01*
X0337528Y0152872D01*
X0337385Y0152940D01*
X0337245Y0153012D01*
X0337107Y0153087D01*
X0336970Y0153166D01*
X0336835Y0153248D01*
X0336703Y0153334D01*
X0336573Y0153423D01*
X0336445Y0153515D01*
X0336319Y0153611D01*
X0336196Y0153709D01*
X0336076Y0153811D01*
X0335958Y0153916D01*
X0335842Y0154023D01*
X0335730Y0154134D01*
X0335620Y0154247D01*
X0335513Y0154363D01*
X0335409Y0154481D01*
X0335308Y0154603D01*
X0335211Y0154726D01*
X0335116Y0154853D01*
X0335025Y0154981D01*
X0334936Y0155112D01*
X0334852Y0155245D01*
X0334770Y0155380D01*
X0334692Y0155517D01*
X0334618Y0155656D01*
X0334547Y0155797D01*
X0334479Y0155939D01*
X0334416Y0156084D01*
X0334355Y0156229D01*
X0334299Y0156377D01*
X0334246Y0156525D01*
X0334197Y0156675D01*
X0334152Y0156826D01*
X0334111Y0156979D01*
X0334073Y0157132D01*
X0334040Y0157286D01*
X0334010Y0157441D01*
X0333984Y0157596D01*
X0333963Y0157753D01*
X0333945Y0157909D01*
X0333931Y0158066D01*
X0333921Y0158224D01*
X0333915Y0158381D01*
X0333913Y0158539D01*
D11*
X0340163Y0158539D03*
X0340163Y0331768D03*
X0048825Y0331768D03*
X0048825Y0158539D03*
D12*
X0151974Y0304799D02*
X0151974Y0310705D01*
X0151974Y0328264D02*
X0151974Y0334169D01*
X0209061Y0334169D02*
X0209061Y0328264D01*
X0209061Y0310705D02*
X0209061Y0304799D01*
X0253155Y0304799D02*
X0253155Y0310705D01*
X0253155Y0328264D02*
X0253155Y0334169D01*
X0310242Y0334169D02*
X0310242Y0328264D01*
X0310242Y0310705D02*
X0310242Y0304799D01*
D13*
X0306896Y0304807D02*
X0313588Y0304807D01*
X0313588Y0304770D02*
X0306896Y0304770D01*
X0306896Y0304732D02*
X0313588Y0304732D01*
X0313588Y0304694D02*
X0306896Y0304694D01*
X0306896Y0304656D02*
X0313588Y0304656D01*
X0313588Y0304618D02*
X0306896Y0304618D01*
X0306896Y0304580D02*
X0313588Y0304580D01*
X0313588Y0304542D02*
X0306896Y0304542D01*
X0306896Y0304504D02*
X0313588Y0304504D01*
X0313588Y0304466D02*
X0306896Y0304466D01*
X0306896Y0304429D02*
X0313588Y0304429D01*
X0313588Y0304391D02*
X0306896Y0304391D01*
X0306896Y0304353D02*
X0313588Y0304353D01*
X0313588Y0304315D02*
X0306896Y0304315D01*
X0306896Y0304277D02*
X0313588Y0304277D01*
X0313588Y0304239D02*
X0306896Y0304239D01*
X0306896Y0304209D02*
X0306896Y0305980D01*
X0306896Y0309012D01*
X0313588Y0309012D01*
X0313588Y0305980D01*
X0306896Y0305980D01*
X0306896Y0305944D02*
X0313588Y0305944D01*
X0313588Y0305980D02*
X0313588Y0304209D01*
X0313524Y0303556D01*
X0313334Y0302928D01*
X0313025Y0302349D01*
X0312608Y0301842D01*
X0312101Y0301426D01*
X0311523Y0301117D01*
X0310895Y0300927D01*
X0310242Y0300862D01*
X0309589Y0300927D01*
X0308961Y0301117D01*
X0308383Y0301426D01*
X0307876Y0301842D01*
X0307460Y0302349D01*
X0307150Y0302928D01*
X0306960Y0303556D01*
X0306896Y0304209D01*
X0306896Y0304201D02*
X0313588Y0304201D01*
X0313584Y0304163D02*
X0306900Y0304163D01*
X0306904Y0304126D02*
X0313580Y0304126D01*
X0313577Y0304088D02*
X0306908Y0304088D01*
X0306911Y0304050D02*
X0313573Y0304050D01*
X0313569Y0304012D02*
X0306915Y0304012D01*
X0306919Y0303974D02*
X0313565Y0303974D01*
X0313562Y0303936D02*
X0306922Y0303936D01*
X0306926Y0303898D02*
X0313558Y0303898D01*
X0313554Y0303860D02*
X0306930Y0303860D01*
X0306934Y0303823D02*
X0313550Y0303823D01*
X0313547Y0303785D02*
X0306937Y0303785D01*
X0306941Y0303747D02*
X0313543Y0303747D01*
X0313539Y0303709D02*
X0306945Y0303709D01*
X0306949Y0303671D02*
X0313536Y0303671D01*
X0313532Y0303633D02*
X0306952Y0303633D01*
X0306956Y0303595D02*
X0313528Y0303595D01*
X0313524Y0303557D02*
X0306960Y0303557D01*
X0306971Y0303519D02*
X0313513Y0303519D01*
X0313502Y0303482D02*
X0306982Y0303482D01*
X0306994Y0303444D02*
X0313490Y0303444D01*
X0313479Y0303406D02*
X0307005Y0303406D01*
X0307017Y0303368D02*
X0313467Y0303368D01*
X0313456Y0303330D02*
X0307028Y0303330D01*
X0307040Y0303292D02*
X0313444Y0303292D01*
X0313433Y0303254D02*
X0307051Y0303254D01*
X0307063Y0303216D02*
X0313421Y0303216D01*
X0313410Y0303179D02*
X0307074Y0303179D01*
X0307086Y0303141D02*
X0313398Y0303141D01*
X0313387Y0303103D02*
X0307097Y0303103D01*
X0307109Y0303065D02*
X0313375Y0303065D01*
X0313364Y0303027D02*
X0307120Y0303027D01*
X0307132Y0302989D02*
X0313352Y0302989D01*
X0313341Y0302951D02*
X0307143Y0302951D01*
X0307158Y0302913D02*
X0313326Y0302913D01*
X0313306Y0302875D02*
X0307178Y0302875D01*
X0307199Y0302838D02*
X0313285Y0302838D01*
X0313265Y0302800D02*
X0307219Y0302800D01*
X0307239Y0302762D02*
X0313245Y0302762D01*
X0313225Y0302724D02*
X0307259Y0302724D01*
X0307280Y0302686D02*
X0313204Y0302686D01*
X0313184Y0302648D02*
X0307300Y0302648D01*
X0307320Y0302610D02*
X0313164Y0302610D01*
X0313144Y0302572D02*
X0307340Y0302572D01*
X0307361Y0302535D02*
X0313123Y0302535D01*
X0313103Y0302497D02*
X0307381Y0302497D01*
X0307401Y0302459D02*
X0313083Y0302459D01*
X0313063Y0302421D02*
X0307421Y0302421D01*
X0307442Y0302383D02*
X0313042Y0302383D01*
X0313021Y0302345D02*
X0307463Y0302345D01*
X0307494Y0302307D02*
X0312990Y0302307D01*
X0312959Y0302269D02*
X0307525Y0302269D01*
X0307556Y0302231D02*
X0312928Y0302231D01*
X0312897Y0302194D02*
X0307587Y0302194D01*
X0307619Y0302156D02*
X0312866Y0302156D01*
X0312834Y0302118D02*
X0307650Y0302118D01*
X0307681Y0302080D02*
X0312803Y0302080D01*
X0312772Y0302042D02*
X0307712Y0302042D01*
X0307743Y0302004D02*
X0312741Y0302004D01*
X0312710Y0301966D02*
X0307774Y0301966D01*
X0307805Y0301928D02*
X0312679Y0301928D01*
X0312648Y0301891D02*
X0307836Y0301891D01*
X0307867Y0301853D02*
X0312617Y0301853D01*
X0312575Y0301815D02*
X0307909Y0301815D01*
X0307955Y0301777D02*
X0312529Y0301777D01*
X0312482Y0301739D02*
X0308002Y0301739D01*
X0308048Y0301701D02*
X0312436Y0301701D01*
X0312390Y0301663D02*
X0308094Y0301663D01*
X0308140Y0301625D02*
X0312344Y0301625D01*
X0312298Y0301588D02*
X0308186Y0301588D01*
X0308232Y0301550D02*
X0312252Y0301550D01*
X0312205Y0301512D02*
X0308279Y0301512D01*
X0308325Y0301474D02*
X0312159Y0301474D01*
X0312113Y0301436D02*
X0308371Y0301436D01*
X0308435Y0301398D02*
X0312049Y0301398D01*
X0311978Y0301360D02*
X0308506Y0301360D01*
X0308577Y0301322D02*
X0311907Y0301322D01*
X0311836Y0301284D02*
X0308648Y0301284D01*
X0308719Y0301247D02*
X0311765Y0301247D01*
X0311694Y0301209D02*
X0308790Y0301209D01*
X0308861Y0301171D02*
X0311623Y0301171D01*
X0311553Y0301133D02*
X0308932Y0301133D01*
X0309034Y0301095D02*
X0311450Y0301095D01*
X0311326Y0301057D02*
X0309158Y0301057D01*
X0309283Y0301019D02*
X0311201Y0301019D01*
X0311076Y0300981D02*
X0309408Y0300981D01*
X0309533Y0300944D02*
X0310951Y0300944D01*
X0310683Y0300906D02*
X0309801Y0300906D01*
X0310186Y0300868D02*
X0310298Y0300868D01*
X0313588Y0304845D02*
X0306896Y0304845D01*
X0306896Y0304883D02*
X0313588Y0304883D01*
X0313588Y0304921D02*
X0306896Y0304921D01*
X0306896Y0304959D02*
X0313588Y0304959D01*
X0313588Y0304997D02*
X0306896Y0304997D01*
X0306896Y0305035D02*
X0313588Y0305035D01*
X0313588Y0305073D02*
X0306896Y0305073D01*
X0306896Y0305110D02*
X0313588Y0305110D01*
X0313588Y0305148D02*
X0306896Y0305148D01*
X0306896Y0305186D02*
X0313588Y0305186D01*
X0313588Y0305224D02*
X0306896Y0305224D01*
X0306896Y0305262D02*
X0313588Y0305262D01*
X0313588Y0305300D02*
X0306896Y0305300D01*
X0306896Y0305338D02*
X0313588Y0305338D01*
X0313588Y0305376D02*
X0306896Y0305376D01*
X0306896Y0305414D02*
X0313588Y0305414D01*
X0313588Y0305451D02*
X0306896Y0305451D01*
X0306896Y0305489D02*
X0313588Y0305489D01*
X0313588Y0305527D02*
X0306896Y0305527D01*
X0306896Y0305565D02*
X0313588Y0305565D01*
X0313588Y0305603D02*
X0306896Y0305603D01*
X0306896Y0305641D02*
X0313588Y0305641D01*
X0313588Y0305679D02*
X0306896Y0305679D01*
X0306896Y0305717D02*
X0313588Y0305717D01*
X0313588Y0305754D02*
X0306896Y0305754D01*
X0306896Y0305792D02*
X0313588Y0305792D01*
X0313588Y0305830D02*
X0306896Y0305830D01*
X0306896Y0305868D02*
X0313588Y0305868D01*
X0313588Y0305906D02*
X0306896Y0305906D01*
X0306896Y0309012D02*
X0306896Y0311295D01*
X0306960Y0311948D01*
X0307150Y0312576D01*
X0307460Y0313154D01*
X0307876Y0313662D01*
X0308383Y0314078D01*
X0308961Y0314387D01*
X0309589Y0314577D01*
X0310242Y0314642D01*
X0310895Y0314577D01*
X0311523Y0314387D01*
X0312101Y0314078D01*
X0312608Y0313662D01*
X0313025Y0313154D01*
X0313334Y0312576D01*
X0313524Y0311948D01*
X0313588Y0311295D01*
X0313588Y0309012D01*
X0306896Y0309012D01*
X0306896Y0309050D02*
X0313588Y0309050D01*
X0313588Y0309088D02*
X0306896Y0309088D01*
X0306896Y0309126D02*
X0313588Y0309126D01*
X0313588Y0309164D02*
X0306896Y0309164D01*
X0306896Y0309202D02*
X0313588Y0309202D01*
X0313588Y0309240D02*
X0306896Y0309240D01*
X0306896Y0309277D02*
X0313588Y0309277D01*
X0313588Y0309315D02*
X0306896Y0309315D01*
X0306896Y0309353D02*
X0313588Y0309353D01*
X0313588Y0309391D02*
X0306896Y0309391D01*
X0306896Y0309429D02*
X0313588Y0309429D01*
X0313588Y0309467D02*
X0306896Y0309467D01*
X0306896Y0309505D02*
X0313588Y0309505D01*
X0313588Y0309543D02*
X0306896Y0309543D01*
X0306896Y0309580D02*
X0313588Y0309580D01*
X0313588Y0309618D02*
X0306896Y0309618D01*
X0306896Y0309656D02*
X0313588Y0309656D01*
X0313588Y0309694D02*
X0306896Y0309694D01*
X0306896Y0309732D02*
X0313588Y0309732D01*
X0313588Y0309770D02*
X0306896Y0309770D01*
X0306896Y0309808D02*
X0313588Y0309808D01*
X0313588Y0309846D02*
X0306896Y0309846D01*
X0306896Y0309884D02*
X0313588Y0309884D01*
X0313588Y0309921D02*
X0306896Y0309921D01*
X0306896Y0309959D02*
X0313588Y0309959D01*
X0313588Y0309997D02*
X0306896Y0309997D01*
X0306896Y0310035D02*
X0313588Y0310035D01*
X0313588Y0310073D02*
X0306896Y0310073D01*
X0306896Y0310111D02*
X0313588Y0310111D01*
X0313588Y0310149D02*
X0306896Y0310149D01*
X0306896Y0310187D02*
X0313588Y0310187D01*
X0313588Y0310224D02*
X0306896Y0310224D01*
X0306896Y0310262D02*
X0313588Y0310262D01*
X0313588Y0310300D02*
X0306896Y0310300D01*
X0306896Y0310338D02*
X0313588Y0310338D01*
X0313588Y0310376D02*
X0306896Y0310376D01*
X0306896Y0310414D02*
X0313588Y0310414D01*
X0313588Y0310452D02*
X0306896Y0310452D01*
X0306896Y0310490D02*
X0313588Y0310490D01*
X0313588Y0310528D02*
X0306896Y0310528D01*
X0306896Y0310565D02*
X0313588Y0310565D01*
X0313588Y0310603D02*
X0306896Y0310603D01*
X0306896Y0310641D02*
X0313588Y0310641D01*
X0313588Y0310679D02*
X0306896Y0310679D01*
X0306896Y0310717D02*
X0313588Y0310717D01*
X0313588Y0310755D02*
X0306896Y0310755D01*
X0306896Y0310793D02*
X0313588Y0310793D01*
X0313588Y0310831D02*
X0306896Y0310831D01*
X0306896Y0310868D02*
X0313588Y0310868D01*
X0313588Y0310906D02*
X0306896Y0310906D01*
X0306896Y0310944D02*
X0313588Y0310944D01*
X0313588Y0310982D02*
X0306896Y0310982D01*
X0306896Y0311020D02*
X0313588Y0311020D01*
X0313588Y0311058D02*
X0306896Y0311058D01*
X0306896Y0311096D02*
X0313588Y0311096D01*
X0313588Y0311134D02*
X0306896Y0311134D01*
X0306896Y0311171D02*
X0313588Y0311171D01*
X0313588Y0311209D02*
X0306896Y0311209D01*
X0306896Y0311247D02*
X0313588Y0311247D01*
X0313588Y0311285D02*
X0306896Y0311285D01*
X0306898Y0311323D02*
X0313586Y0311323D01*
X0313582Y0311361D02*
X0306902Y0311361D01*
X0306906Y0311399D02*
X0313578Y0311399D01*
X0313575Y0311437D02*
X0306910Y0311437D01*
X0306913Y0311475D02*
X0313571Y0311475D01*
X0313567Y0311512D02*
X0306917Y0311512D01*
X0306921Y0311550D02*
X0313563Y0311550D01*
X0313560Y0311588D02*
X0306924Y0311588D01*
X0306928Y0311626D02*
X0313556Y0311626D01*
X0313552Y0311664D02*
X0306932Y0311664D01*
X0306936Y0311702D02*
X0313548Y0311702D01*
X0313545Y0311740D02*
X0306939Y0311740D01*
X0306943Y0311778D02*
X0313541Y0311778D01*
X0313537Y0311815D02*
X0306947Y0311815D01*
X0306951Y0311853D02*
X0313534Y0311853D01*
X0313530Y0311891D02*
X0306954Y0311891D01*
X0306958Y0311929D02*
X0313526Y0311929D01*
X0313518Y0311967D02*
X0306966Y0311967D01*
X0306977Y0312005D02*
X0313507Y0312005D01*
X0313495Y0312043D02*
X0306989Y0312043D01*
X0307000Y0312081D02*
X0313484Y0312081D01*
X0313473Y0312119D02*
X0307012Y0312119D01*
X0307023Y0312156D02*
X0313461Y0312156D01*
X0313450Y0312194D02*
X0307035Y0312194D01*
X0307046Y0312232D02*
X0313438Y0312232D01*
X0313427Y0312270D02*
X0307058Y0312270D01*
X0307069Y0312308D02*
X0313415Y0312308D01*
X0313404Y0312346D02*
X0307081Y0312346D01*
X0307092Y0312384D02*
X0313392Y0312384D01*
X0313381Y0312422D02*
X0307104Y0312422D01*
X0307115Y0312459D02*
X0313369Y0312459D01*
X0313358Y0312497D02*
X0307126Y0312497D01*
X0307138Y0312535D02*
X0313346Y0312535D01*
X0313335Y0312573D02*
X0307149Y0312573D01*
X0307169Y0312611D02*
X0313315Y0312611D01*
X0313295Y0312649D02*
X0307189Y0312649D01*
X0307210Y0312687D02*
X0313275Y0312687D01*
X0313254Y0312725D02*
X0307230Y0312725D01*
X0307250Y0312763D02*
X0313234Y0312763D01*
X0313214Y0312800D02*
X0307270Y0312800D01*
X0307291Y0312838D02*
X0313194Y0312838D01*
X0313173Y0312876D02*
X0307311Y0312876D01*
X0307331Y0312914D02*
X0313153Y0312914D01*
X0313133Y0312952D02*
X0307351Y0312952D01*
X0307372Y0312990D02*
X0313113Y0312990D01*
X0313092Y0313028D02*
X0307392Y0313028D01*
X0307412Y0313066D02*
X0313072Y0313066D01*
X0313052Y0313103D02*
X0307432Y0313103D01*
X0307453Y0313141D02*
X0313032Y0313141D01*
X0313004Y0313179D02*
X0307480Y0313179D01*
X0307511Y0313217D02*
X0312973Y0313217D01*
X0312942Y0313255D02*
X0307542Y0313255D01*
X0307573Y0313293D02*
X0312911Y0313293D01*
X0312880Y0313331D02*
X0307604Y0313331D01*
X0307635Y0313369D02*
X0312849Y0313369D01*
X0312818Y0313406D02*
X0307666Y0313406D01*
X0307697Y0313444D02*
X0312787Y0313444D01*
X0312756Y0313482D02*
X0307729Y0313482D01*
X0307760Y0313520D02*
X0312724Y0313520D01*
X0312693Y0313558D02*
X0307791Y0313558D01*
X0307822Y0313596D02*
X0312662Y0313596D01*
X0312631Y0313634D02*
X0307853Y0313634D01*
X0307888Y0313672D02*
X0312596Y0313672D01*
X0312550Y0313710D02*
X0307934Y0313710D01*
X0307980Y0313747D02*
X0312504Y0313747D01*
X0312458Y0313785D02*
X0308027Y0313785D01*
X0308073Y0313823D02*
X0312411Y0313823D01*
X0312365Y0313861D02*
X0308119Y0313861D01*
X0308165Y0313899D02*
X0312319Y0313899D01*
X0312273Y0313937D02*
X0308211Y0313937D01*
X0308257Y0313975D02*
X0312227Y0313975D01*
X0312181Y0314013D02*
X0308303Y0314013D01*
X0308350Y0314050D02*
X0312134Y0314050D01*
X0312081Y0314088D02*
X0308403Y0314088D01*
X0308474Y0314126D02*
X0312011Y0314126D01*
X0311940Y0314164D02*
X0308544Y0314164D01*
X0308615Y0314202D02*
X0311869Y0314202D01*
X0311798Y0314240D02*
X0308686Y0314240D01*
X0308757Y0314278D02*
X0311727Y0314278D01*
X0311656Y0314316D02*
X0308828Y0314316D01*
X0308899Y0314354D02*
X0311585Y0314354D01*
X0311508Y0314391D02*
X0308976Y0314391D01*
X0309101Y0314429D02*
X0311383Y0314429D01*
X0311258Y0314467D02*
X0309226Y0314467D01*
X0309351Y0314505D02*
X0311134Y0314505D01*
X0311009Y0314543D02*
X0309475Y0314543D01*
X0309624Y0314581D02*
X0310861Y0314581D01*
X0310476Y0314619D02*
X0310008Y0314619D01*
X0256502Y0311295D02*
X0256502Y0309012D01*
X0256502Y0305980D01*
X0249809Y0305980D01*
X0249809Y0309012D01*
X0256502Y0309012D01*
X0249809Y0309012D01*
X0249809Y0311295D01*
X0249873Y0311948D01*
X0250064Y0312576D01*
X0250373Y0313154D01*
X0250789Y0313662D01*
X0251296Y0314078D01*
X0251875Y0314387D01*
X0252503Y0314577D01*
X0253155Y0314642D01*
X0253808Y0314577D01*
X0254436Y0314387D01*
X0255015Y0314078D01*
X0255522Y0313662D01*
X0255938Y0313154D01*
X0256247Y0312576D01*
X0256438Y0311948D01*
X0256502Y0311295D01*
X0256502Y0311285D02*
X0249809Y0311285D01*
X0249809Y0311247D02*
X0256502Y0311247D01*
X0256502Y0311209D02*
X0249809Y0311209D01*
X0249809Y0311171D02*
X0256502Y0311171D01*
X0256502Y0311134D02*
X0249809Y0311134D01*
X0249809Y0311096D02*
X0256502Y0311096D01*
X0256502Y0311058D02*
X0249809Y0311058D01*
X0249809Y0311020D02*
X0256502Y0311020D01*
X0256502Y0310982D02*
X0249809Y0310982D01*
X0249809Y0310944D02*
X0256502Y0310944D01*
X0256502Y0310906D02*
X0249809Y0310906D01*
X0249809Y0310868D02*
X0256502Y0310868D01*
X0256502Y0310831D02*
X0249809Y0310831D01*
X0249809Y0310793D02*
X0256502Y0310793D01*
X0256502Y0310755D02*
X0249809Y0310755D01*
X0249809Y0310717D02*
X0256502Y0310717D01*
X0256502Y0310679D02*
X0249809Y0310679D01*
X0249809Y0310641D02*
X0256502Y0310641D01*
X0256502Y0310603D02*
X0249809Y0310603D01*
X0249809Y0310565D02*
X0256502Y0310565D01*
X0256502Y0310528D02*
X0249809Y0310528D01*
X0249809Y0310490D02*
X0256502Y0310490D01*
X0256502Y0310452D02*
X0249809Y0310452D01*
X0249809Y0310414D02*
X0256502Y0310414D01*
X0256502Y0310376D02*
X0249809Y0310376D01*
X0249809Y0310338D02*
X0256502Y0310338D01*
X0256502Y0310300D02*
X0249809Y0310300D01*
X0249809Y0310262D02*
X0256502Y0310262D01*
X0256502Y0310224D02*
X0249809Y0310224D01*
X0249809Y0310187D02*
X0256502Y0310187D01*
X0256502Y0310149D02*
X0249809Y0310149D01*
X0249809Y0310111D02*
X0256502Y0310111D01*
X0256502Y0310073D02*
X0249809Y0310073D01*
X0249809Y0310035D02*
X0256502Y0310035D01*
X0256502Y0309997D02*
X0249809Y0309997D01*
X0249809Y0309959D02*
X0256502Y0309959D01*
X0256502Y0309921D02*
X0249809Y0309921D01*
X0249809Y0309884D02*
X0256502Y0309884D01*
X0256502Y0309846D02*
X0249809Y0309846D01*
X0249809Y0309808D02*
X0256502Y0309808D01*
X0256502Y0309770D02*
X0249809Y0309770D01*
X0249809Y0309732D02*
X0256502Y0309732D01*
X0256502Y0309694D02*
X0249809Y0309694D01*
X0249809Y0309656D02*
X0256502Y0309656D01*
X0256502Y0309618D02*
X0249809Y0309618D01*
X0249809Y0309580D02*
X0256502Y0309580D01*
X0256502Y0309543D02*
X0249809Y0309543D01*
X0249809Y0309505D02*
X0256502Y0309505D01*
X0256502Y0309467D02*
X0249809Y0309467D01*
X0249809Y0309429D02*
X0256502Y0309429D01*
X0256502Y0309391D02*
X0249809Y0309391D01*
X0249809Y0309353D02*
X0256502Y0309353D01*
X0256502Y0309315D02*
X0249809Y0309315D01*
X0249809Y0309277D02*
X0256502Y0309277D01*
X0256502Y0309240D02*
X0249809Y0309240D01*
X0249809Y0309202D02*
X0256502Y0309202D01*
X0256502Y0309164D02*
X0249809Y0309164D01*
X0249809Y0309126D02*
X0256502Y0309126D01*
X0256502Y0309088D02*
X0249809Y0309088D01*
X0249809Y0309050D02*
X0256502Y0309050D01*
X0256499Y0311323D02*
X0249812Y0311323D01*
X0249815Y0311361D02*
X0256495Y0311361D01*
X0256492Y0311399D02*
X0249819Y0311399D01*
X0249823Y0311437D02*
X0256488Y0311437D01*
X0256484Y0311475D02*
X0249827Y0311475D01*
X0249830Y0311512D02*
X0256480Y0311512D01*
X0256477Y0311550D02*
X0249834Y0311550D01*
X0249838Y0311588D02*
X0256473Y0311588D01*
X0256469Y0311626D02*
X0249842Y0311626D01*
X0249845Y0311664D02*
X0256466Y0311664D01*
X0256462Y0311702D02*
X0249849Y0311702D01*
X0249853Y0311740D02*
X0256458Y0311740D01*
X0256454Y0311778D02*
X0249856Y0311778D01*
X0249860Y0311815D02*
X0256451Y0311815D01*
X0256447Y0311853D02*
X0249864Y0311853D01*
X0249868Y0311891D02*
X0256443Y0311891D01*
X0256439Y0311929D02*
X0249871Y0311929D01*
X0249879Y0311967D02*
X0256432Y0311967D01*
X0256420Y0312005D02*
X0249890Y0312005D01*
X0249902Y0312043D02*
X0256409Y0312043D01*
X0256397Y0312081D02*
X0249913Y0312081D01*
X0249925Y0312119D02*
X0256386Y0312119D01*
X0256374Y0312156D02*
X0249936Y0312156D01*
X0249948Y0312194D02*
X0256363Y0312194D01*
X0256351Y0312232D02*
X0249959Y0312232D01*
X0249971Y0312270D02*
X0256340Y0312270D01*
X0256328Y0312308D02*
X0249982Y0312308D01*
X0249994Y0312346D02*
X0256317Y0312346D01*
X0256305Y0312384D02*
X0250005Y0312384D01*
X0250017Y0312422D02*
X0256294Y0312422D01*
X0256282Y0312459D02*
X0250028Y0312459D01*
X0250040Y0312497D02*
X0256271Y0312497D01*
X0256259Y0312535D02*
X0250051Y0312535D01*
X0250063Y0312573D02*
X0256248Y0312573D01*
X0256228Y0312611D02*
X0250082Y0312611D01*
X0250103Y0312649D02*
X0256208Y0312649D01*
X0256188Y0312687D02*
X0250123Y0312687D01*
X0250143Y0312725D02*
X0256168Y0312725D01*
X0256147Y0312763D02*
X0250163Y0312763D01*
X0250184Y0312800D02*
X0256127Y0312800D01*
X0256107Y0312838D02*
X0250204Y0312838D01*
X0250224Y0312876D02*
X0256087Y0312876D01*
X0256066Y0312914D02*
X0250244Y0312914D01*
X0250265Y0312952D02*
X0256046Y0312952D01*
X0256026Y0312990D02*
X0250285Y0312990D01*
X0250305Y0313028D02*
X0256006Y0313028D01*
X0255985Y0313066D02*
X0250325Y0313066D01*
X0250346Y0313103D02*
X0255965Y0313103D01*
X0255945Y0313141D02*
X0250366Y0313141D01*
X0250393Y0313179D02*
X0255918Y0313179D01*
X0255887Y0313217D02*
X0250424Y0313217D01*
X0250455Y0313255D02*
X0255855Y0313255D01*
X0255824Y0313293D02*
X0250487Y0313293D01*
X0250518Y0313331D02*
X0255793Y0313331D01*
X0255762Y0313369D02*
X0250549Y0313369D01*
X0250580Y0313406D02*
X0255731Y0313406D01*
X0255700Y0313444D02*
X0250611Y0313444D01*
X0250642Y0313482D02*
X0255669Y0313482D01*
X0255638Y0313520D02*
X0250673Y0313520D01*
X0250704Y0313558D02*
X0255607Y0313558D01*
X0255576Y0313596D02*
X0250735Y0313596D01*
X0250766Y0313634D02*
X0255545Y0313634D01*
X0255509Y0313672D02*
X0250801Y0313672D01*
X0250848Y0313710D02*
X0255463Y0313710D01*
X0255417Y0313747D02*
X0250894Y0313747D01*
X0250940Y0313785D02*
X0255371Y0313785D01*
X0255325Y0313823D02*
X0250986Y0313823D01*
X0251032Y0313861D02*
X0255279Y0313861D01*
X0255232Y0313899D02*
X0251078Y0313899D01*
X0251125Y0313937D02*
X0255186Y0313937D01*
X0255140Y0313975D02*
X0251171Y0313975D01*
X0251217Y0314013D02*
X0255094Y0314013D01*
X0255048Y0314050D02*
X0251263Y0314050D01*
X0251316Y0314088D02*
X0254995Y0314088D01*
X0254924Y0314126D02*
X0251387Y0314126D01*
X0251458Y0314164D02*
X0254853Y0314164D01*
X0254782Y0314202D02*
X0251529Y0314202D01*
X0251600Y0314240D02*
X0254711Y0314240D01*
X0254640Y0314278D02*
X0251670Y0314278D01*
X0251741Y0314316D02*
X0254570Y0314316D01*
X0254499Y0314354D02*
X0251812Y0314354D01*
X0251889Y0314391D02*
X0254422Y0314391D01*
X0254297Y0314429D02*
X0252014Y0314429D01*
X0252139Y0314467D02*
X0254172Y0314467D01*
X0254047Y0314505D02*
X0252264Y0314505D01*
X0252389Y0314543D02*
X0253922Y0314543D01*
X0253774Y0314581D02*
X0252537Y0314581D01*
X0252922Y0314619D02*
X0253389Y0314619D01*
X0256502Y0305980D02*
X0256502Y0304209D01*
X0256438Y0303556D01*
X0256247Y0302928D01*
X0255938Y0302349D01*
X0255522Y0301842D01*
X0255015Y0301426D01*
X0254436Y0301117D01*
X0253808Y0300927D01*
X0253155Y0300862D01*
X0252503Y0300927D01*
X0251875Y0301117D01*
X0251296Y0301426D01*
X0250789Y0301842D01*
X0250373Y0302349D01*
X0250064Y0302928D01*
X0249873Y0303556D01*
X0249809Y0304209D01*
X0249809Y0305980D01*
X0249809Y0305944D02*
X0256502Y0305944D01*
X0256502Y0305906D02*
X0249809Y0305906D01*
X0249809Y0305868D02*
X0256502Y0305868D01*
X0256502Y0305830D02*
X0249809Y0305830D01*
X0249809Y0305792D02*
X0256502Y0305792D01*
X0256502Y0305754D02*
X0249809Y0305754D01*
X0249809Y0305717D02*
X0256502Y0305717D01*
X0256502Y0305679D02*
X0249809Y0305679D01*
X0249809Y0305641D02*
X0256502Y0305641D01*
X0256502Y0305603D02*
X0249809Y0305603D01*
X0249809Y0305565D02*
X0256502Y0305565D01*
X0256502Y0305527D02*
X0249809Y0305527D01*
X0249809Y0305489D02*
X0256502Y0305489D01*
X0256502Y0305451D02*
X0249809Y0305451D01*
X0249809Y0305414D02*
X0256502Y0305414D01*
X0256502Y0305376D02*
X0249809Y0305376D01*
X0249809Y0305338D02*
X0256502Y0305338D01*
X0256502Y0305300D02*
X0249809Y0305300D01*
X0249809Y0305262D02*
X0256502Y0305262D01*
X0256502Y0305224D02*
X0249809Y0305224D01*
X0249809Y0305186D02*
X0256502Y0305186D01*
X0256502Y0305148D02*
X0249809Y0305148D01*
X0249809Y0305110D02*
X0256502Y0305110D01*
X0256502Y0305073D02*
X0249809Y0305073D01*
X0249809Y0305035D02*
X0256502Y0305035D01*
X0256502Y0304997D02*
X0249809Y0304997D01*
X0249809Y0304959D02*
X0256502Y0304959D01*
X0256502Y0304921D02*
X0249809Y0304921D01*
X0249809Y0304883D02*
X0256502Y0304883D01*
X0256502Y0304845D02*
X0249809Y0304845D01*
X0249809Y0304807D02*
X0256502Y0304807D01*
X0256502Y0304770D02*
X0249809Y0304770D01*
X0249809Y0304732D02*
X0256502Y0304732D01*
X0256502Y0304694D02*
X0249809Y0304694D01*
X0249809Y0304656D02*
X0256502Y0304656D01*
X0256502Y0304618D02*
X0249809Y0304618D01*
X0249809Y0304580D02*
X0256502Y0304580D01*
X0256502Y0304542D02*
X0249809Y0304542D01*
X0249809Y0304504D02*
X0256502Y0304504D01*
X0256502Y0304466D02*
X0249809Y0304466D01*
X0249809Y0304429D02*
X0256502Y0304429D01*
X0256502Y0304391D02*
X0249809Y0304391D01*
X0249809Y0304353D02*
X0256502Y0304353D01*
X0256502Y0304315D02*
X0249809Y0304315D01*
X0249809Y0304277D02*
X0256502Y0304277D01*
X0256502Y0304239D02*
X0249809Y0304239D01*
X0249810Y0304201D02*
X0256501Y0304201D01*
X0256497Y0304163D02*
X0249813Y0304163D01*
X0249817Y0304126D02*
X0256494Y0304126D01*
X0256490Y0304088D02*
X0249821Y0304088D01*
X0249825Y0304050D02*
X0256486Y0304050D01*
X0256483Y0304012D02*
X0249828Y0304012D01*
X0249832Y0303974D02*
X0256479Y0303974D01*
X0256475Y0303936D02*
X0249836Y0303936D01*
X0249840Y0303898D02*
X0256471Y0303898D01*
X0256468Y0303860D02*
X0249843Y0303860D01*
X0249847Y0303823D02*
X0256464Y0303823D01*
X0256460Y0303785D02*
X0249851Y0303785D01*
X0249854Y0303747D02*
X0256456Y0303747D01*
X0256453Y0303709D02*
X0249858Y0303709D01*
X0249862Y0303671D02*
X0256449Y0303671D01*
X0256445Y0303633D02*
X0249866Y0303633D01*
X0249869Y0303595D02*
X0256441Y0303595D01*
X0256438Y0303557D02*
X0249873Y0303557D01*
X0249884Y0303519D02*
X0256427Y0303519D01*
X0256415Y0303482D02*
X0249896Y0303482D01*
X0249907Y0303444D02*
X0256404Y0303444D01*
X0256392Y0303406D02*
X0249919Y0303406D01*
X0249930Y0303368D02*
X0256381Y0303368D01*
X0256369Y0303330D02*
X0249942Y0303330D01*
X0249953Y0303292D02*
X0256358Y0303292D01*
X0256346Y0303254D02*
X0249965Y0303254D01*
X0249976Y0303216D02*
X0256335Y0303216D01*
X0256323Y0303179D02*
X0249988Y0303179D01*
X0249999Y0303141D02*
X0256312Y0303141D01*
X0256300Y0303103D02*
X0250011Y0303103D01*
X0250022Y0303065D02*
X0256289Y0303065D01*
X0256277Y0303027D02*
X0250034Y0303027D01*
X0250045Y0302989D02*
X0256266Y0302989D01*
X0256254Y0302951D02*
X0250057Y0302951D01*
X0250072Y0302913D02*
X0256239Y0302913D01*
X0256219Y0302875D02*
X0250092Y0302875D01*
X0250112Y0302838D02*
X0256199Y0302838D01*
X0256179Y0302800D02*
X0250132Y0302800D01*
X0250153Y0302762D02*
X0256158Y0302762D01*
X0256138Y0302724D02*
X0250173Y0302724D01*
X0250193Y0302686D02*
X0256118Y0302686D01*
X0256098Y0302648D02*
X0250213Y0302648D01*
X0250234Y0302610D02*
X0256077Y0302610D01*
X0256057Y0302572D02*
X0250254Y0302572D01*
X0250274Y0302535D02*
X0256037Y0302535D01*
X0256017Y0302497D02*
X0250294Y0302497D01*
X0250315Y0302459D02*
X0255996Y0302459D01*
X0255976Y0302421D02*
X0250335Y0302421D01*
X0250355Y0302383D02*
X0255956Y0302383D01*
X0255934Y0302345D02*
X0250377Y0302345D01*
X0250408Y0302307D02*
X0255903Y0302307D01*
X0255872Y0302269D02*
X0250439Y0302269D01*
X0250470Y0302231D02*
X0255841Y0302231D01*
X0255810Y0302194D02*
X0250501Y0302194D01*
X0250532Y0302156D02*
X0255779Y0302156D01*
X0255748Y0302118D02*
X0250563Y0302118D01*
X0250594Y0302080D02*
X0255717Y0302080D01*
X0255686Y0302042D02*
X0250625Y0302042D01*
X0250656Y0302004D02*
X0255655Y0302004D01*
X0255623Y0301966D02*
X0250687Y0301966D01*
X0250718Y0301928D02*
X0255592Y0301928D01*
X0255561Y0301891D02*
X0250750Y0301891D01*
X0250781Y0301853D02*
X0255530Y0301853D01*
X0255488Y0301815D02*
X0250823Y0301815D01*
X0250869Y0301777D02*
X0255442Y0301777D01*
X0255396Y0301739D02*
X0250915Y0301739D01*
X0250961Y0301701D02*
X0255350Y0301701D01*
X0255304Y0301663D02*
X0251007Y0301663D01*
X0251054Y0301625D02*
X0255257Y0301625D01*
X0255211Y0301588D02*
X0251100Y0301588D01*
X0251146Y0301550D02*
X0255165Y0301550D01*
X0255119Y0301512D02*
X0251192Y0301512D01*
X0251238Y0301474D02*
X0255073Y0301474D01*
X0255027Y0301436D02*
X0251284Y0301436D01*
X0251349Y0301398D02*
X0254962Y0301398D01*
X0254891Y0301360D02*
X0251420Y0301360D01*
X0251491Y0301322D02*
X0254820Y0301322D01*
X0254749Y0301284D02*
X0251561Y0301284D01*
X0251632Y0301247D02*
X0254679Y0301247D01*
X0254608Y0301209D02*
X0251703Y0301209D01*
X0251774Y0301171D02*
X0254537Y0301171D01*
X0254466Y0301133D02*
X0251845Y0301133D01*
X0251947Y0301095D02*
X0254364Y0301095D01*
X0254239Y0301057D02*
X0252072Y0301057D01*
X0252197Y0301019D02*
X0254114Y0301019D01*
X0253989Y0300981D02*
X0252322Y0300981D01*
X0252446Y0300944D02*
X0253864Y0300944D01*
X0253596Y0300906D02*
X0252714Y0300906D01*
X0253099Y0300868D02*
X0253212Y0300868D01*
X0212407Y0304209D02*
X0212343Y0303556D01*
X0212153Y0302928D01*
X0211843Y0302349D01*
X0211427Y0301842D01*
X0210920Y0301426D01*
X0210342Y0301117D01*
X0209714Y0300927D01*
X0209061Y0300862D01*
X0208408Y0300927D01*
X0207780Y0301117D01*
X0207202Y0301426D01*
X0206695Y0301842D01*
X0206278Y0302349D01*
X0205969Y0302928D01*
X0205779Y0303556D01*
X0205714Y0304209D01*
X0205714Y0305980D01*
X0205714Y0309012D01*
X0212407Y0309012D01*
X0212407Y0305980D01*
X0205714Y0305980D01*
X0205714Y0305944D02*
X0212407Y0305944D01*
X0212407Y0305980D02*
X0212407Y0304209D01*
X0212407Y0304201D02*
X0205715Y0304201D01*
X0205719Y0304163D02*
X0212403Y0304163D01*
X0212399Y0304126D02*
X0205723Y0304126D01*
X0205726Y0304088D02*
X0212395Y0304088D01*
X0212392Y0304050D02*
X0205730Y0304050D01*
X0205734Y0304012D02*
X0212388Y0304012D01*
X0212384Y0303974D02*
X0205738Y0303974D01*
X0205741Y0303936D02*
X0212381Y0303936D01*
X0212377Y0303898D02*
X0205745Y0303898D01*
X0205749Y0303860D02*
X0212373Y0303860D01*
X0212369Y0303823D02*
X0205753Y0303823D01*
X0205756Y0303785D02*
X0212366Y0303785D01*
X0212362Y0303747D02*
X0205760Y0303747D01*
X0205764Y0303709D02*
X0212358Y0303709D01*
X0212354Y0303671D02*
X0205767Y0303671D01*
X0205771Y0303633D02*
X0212351Y0303633D01*
X0212347Y0303595D02*
X0205775Y0303595D01*
X0205779Y0303557D02*
X0212343Y0303557D01*
X0212332Y0303519D02*
X0205790Y0303519D01*
X0205801Y0303482D02*
X0212321Y0303482D01*
X0212309Y0303444D02*
X0205813Y0303444D01*
X0205824Y0303406D02*
X0212298Y0303406D01*
X0212286Y0303368D02*
X0205836Y0303368D01*
X0205847Y0303330D02*
X0212275Y0303330D01*
X0212263Y0303292D02*
X0205859Y0303292D01*
X0205870Y0303254D02*
X0212252Y0303254D01*
X0212240Y0303216D02*
X0205882Y0303216D01*
X0205893Y0303179D02*
X0212229Y0303179D01*
X0212217Y0303141D02*
X0205905Y0303141D01*
X0205916Y0303103D02*
X0212206Y0303103D01*
X0212194Y0303065D02*
X0205928Y0303065D01*
X0205939Y0303027D02*
X0212183Y0303027D01*
X0212171Y0302989D02*
X0205951Y0302989D01*
X0205962Y0302951D02*
X0212160Y0302951D01*
X0212145Y0302913D02*
X0205977Y0302913D01*
X0205997Y0302875D02*
X0212125Y0302875D01*
X0212104Y0302838D02*
X0206018Y0302838D01*
X0206038Y0302800D02*
X0212084Y0302800D01*
X0212064Y0302762D02*
X0206058Y0302762D01*
X0206078Y0302724D02*
X0212044Y0302724D01*
X0212023Y0302686D02*
X0206099Y0302686D01*
X0206119Y0302648D02*
X0212003Y0302648D01*
X0211983Y0302610D02*
X0206139Y0302610D01*
X0206159Y0302572D02*
X0211963Y0302572D01*
X0211942Y0302535D02*
X0206180Y0302535D01*
X0206200Y0302497D02*
X0211922Y0302497D01*
X0211902Y0302459D02*
X0206220Y0302459D01*
X0206240Y0302421D02*
X0211882Y0302421D01*
X0211861Y0302383D02*
X0206261Y0302383D01*
X0206282Y0302345D02*
X0211840Y0302345D01*
X0211809Y0302307D02*
X0206313Y0302307D01*
X0206344Y0302269D02*
X0211778Y0302269D01*
X0211747Y0302231D02*
X0206375Y0302231D01*
X0206406Y0302194D02*
X0211716Y0302194D01*
X0211684Y0302156D02*
X0206437Y0302156D01*
X0206469Y0302118D02*
X0211653Y0302118D01*
X0211622Y0302080D02*
X0206500Y0302080D01*
X0206531Y0302042D02*
X0211591Y0302042D01*
X0211560Y0302004D02*
X0206562Y0302004D01*
X0206593Y0301966D02*
X0211529Y0301966D01*
X0211498Y0301928D02*
X0206624Y0301928D01*
X0206655Y0301891D02*
X0211467Y0301891D01*
X0211436Y0301853D02*
X0206686Y0301853D01*
X0206728Y0301815D02*
X0211394Y0301815D01*
X0211347Y0301777D02*
X0206774Y0301777D01*
X0206821Y0301739D02*
X0211301Y0301739D01*
X0211255Y0301701D02*
X0206867Y0301701D01*
X0206913Y0301663D02*
X0211209Y0301663D01*
X0211163Y0301625D02*
X0206959Y0301625D01*
X0207005Y0301588D02*
X0211117Y0301588D01*
X0211071Y0301550D02*
X0207051Y0301550D01*
X0207098Y0301512D02*
X0211024Y0301512D01*
X0210978Y0301474D02*
X0207144Y0301474D01*
X0207190Y0301436D02*
X0210932Y0301436D01*
X0210868Y0301398D02*
X0207254Y0301398D01*
X0207325Y0301360D02*
X0210797Y0301360D01*
X0210726Y0301322D02*
X0207396Y0301322D01*
X0207467Y0301284D02*
X0210655Y0301284D01*
X0210584Y0301247D02*
X0207538Y0301247D01*
X0207609Y0301209D02*
X0210513Y0301209D01*
X0210442Y0301171D02*
X0207680Y0301171D01*
X0207750Y0301133D02*
X0210371Y0301133D01*
X0210269Y0301095D02*
X0207852Y0301095D01*
X0207977Y0301057D02*
X0210145Y0301057D01*
X0210020Y0301019D02*
X0208102Y0301019D01*
X0208227Y0300981D02*
X0209895Y0300981D01*
X0209770Y0300944D02*
X0208352Y0300944D01*
X0208620Y0300906D02*
X0209502Y0300906D01*
X0209117Y0300868D02*
X0209005Y0300868D01*
X0205714Y0304239D02*
X0212407Y0304239D01*
X0212407Y0304277D02*
X0205714Y0304277D01*
X0205714Y0304315D02*
X0212407Y0304315D01*
X0212407Y0304353D02*
X0205714Y0304353D01*
X0205714Y0304391D02*
X0212407Y0304391D01*
X0212407Y0304429D02*
X0205714Y0304429D01*
X0205714Y0304466D02*
X0212407Y0304466D01*
X0212407Y0304504D02*
X0205714Y0304504D01*
X0205714Y0304542D02*
X0212407Y0304542D01*
X0212407Y0304580D02*
X0205714Y0304580D01*
X0205714Y0304618D02*
X0212407Y0304618D01*
X0212407Y0304656D02*
X0205714Y0304656D01*
X0205714Y0304694D02*
X0212407Y0304694D01*
X0212407Y0304732D02*
X0205714Y0304732D01*
X0205714Y0304770D02*
X0212407Y0304770D01*
X0212407Y0304807D02*
X0205714Y0304807D01*
X0205714Y0304845D02*
X0212407Y0304845D01*
X0212407Y0304883D02*
X0205714Y0304883D01*
X0205714Y0304921D02*
X0212407Y0304921D01*
X0212407Y0304959D02*
X0205714Y0304959D01*
X0205714Y0304997D02*
X0212407Y0304997D01*
X0212407Y0305035D02*
X0205714Y0305035D01*
X0205714Y0305073D02*
X0212407Y0305073D01*
X0212407Y0305110D02*
X0205714Y0305110D01*
X0205714Y0305148D02*
X0212407Y0305148D01*
X0212407Y0305186D02*
X0205714Y0305186D01*
X0205714Y0305224D02*
X0212407Y0305224D01*
X0212407Y0305262D02*
X0205714Y0305262D01*
X0205714Y0305300D02*
X0212407Y0305300D01*
X0212407Y0305338D02*
X0205714Y0305338D01*
X0205714Y0305376D02*
X0212407Y0305376D01*
X0212407Y0305414D02*
X0205714Y0305414D01*
X0205714Y0305451D02*
X0212407Y0305451D01*
X0212407Y0305489D02*
X0205714Y0305489D01*
X0205714Y0305527D02*
X0212407Y0305527D01*
X0212407Y0305565D02*
X0205714Y0305565D01*
X0205714Y0305603D02*
X0212407Y0305603D01*
X0212407Y0305641D02*
X0205714Y0305641D01*
X0205714Y0305679D02*
X0212407Y0305679D01*
X0212407Y0305717D02*
X0205714Y0305717D01*
X0205714Y0305754D02*
X0212407Y0305754D01*
X0212407Y0305792D02*
X0205714Y0305792D01*
X0205714Y0305830D02*
X0212407Y0305830D01*
X0212407Y0305868D02*
X0205714Y0305868D01*
X0205714Y0305906D02*
X0212407Y0305906D01*
X0212407Y0309012D02*
X0212407Y0311295D01*
X0212343Y0311948D01*
X0212153Y0312576D01*
X0211843Y0313154D01*
X0211427Y0313662D01*
X0210920Y0314078D01*
X0210342Y0314387D01*
X0209714Y0314577D01*
X0209061Y0314642D01*
X0208408Y0314577D01*
X0207780Y0314387D01*
X0207202Y0314078D01*
X0206695Y0313662D01*
X0206278Y0313154D01*
X0205969Y0312576D01*
X0205779Y0311948D01*
X0205714Y0311295D01*
X0205714Y0309012D01*
X0212407Y0309012D01*
X0212407Y0309050D02*
X0205714Y0309050D01*
X0205714Y0309088D02*
X0212407Y0309088D01*
X0212407Y0309126D02*
X0205714Y0309126D01*
X0205714Y0309164D02*
X0212407Y0309164D01*
X0212407Y0309202D02*
X0205714Y0309202D01*
X0205714Y0309240D02*
X0212407Y0309240D01*
X0212407Y0309277D02*
X0205714Y0309277D01*
X0205714Y0309315D02*
X0212407Y0309315D01*
X0212407Y0309353D02*
X0205714Y0309353D01*
X0205714Y0309391D02*
X0212407Y0309391D01*
X0212407Y0309429D02*
X0205714Y0309429D01*
X0205714Y0309467D02*
X0212407Y0309467D01*
X0212407Y0309505D02*
X0205714Y0309505D01*
X0205714Y0309543D02*
X0212407Y0309543D01*
X0212407Y0309580D02*
X0205714Y0309580D01*
X0205714Y0309618D02*
X0212407Y0309618D01*
X0212407Y0309656D02*
X0205714Y0309656D01*
X0205714Y0309694D02*
X0212407Y0309694D01*
X0212407Y0309732D02*
X0205714Y0309732D01*
X0205714Y0309770D02*
X0212407Y0309770D01*
X0212407Y0309808D02*
X0205714Y0309808D01*
X0205714Y0309846D02*
X0212407Y0309846D01*
X0212407Y0309884D02*
X0205714Y0309884D01*
X0205714Y0309921D02*
X0212407Y0309921D01*
X0212407Y0309959D02*
X0205714Y0309959D01*
X0205714Y0309997D02*
X0212407Y0309997D01*
X0212407Y0310035D02*
X0205714Y0310035D01*
X0205714Y0310073D02*
X0212407Y0310073D01*
X0212407Y0310111D02*
X0205714Y0310111D01*
X0205714Y0310149D02*
X0212407Y0310149D01*
X0212407Y0310187D02*
X0205714Y0310187D01*
X0205714Y0310224D02*
X0212407Y0310224D01*
X0212407Y0310262D02*
X0205714Y0310262D01*
X0205714Y0310300D02*
X0212407Y0310300D01*
X0212407Y0310338D02*
X0205714Y0310338D01*
X0205714Y0310376D02*
X0212407Y0310376D01*
X0212407Y0310414D02*
X0205714Y0310414D01*
X0205714Y0310452D02*
X0212407Y0310452D01*
X0212407Y0310490D02*
X0205714Y0310490D01*
X0205714Y0310528D02*
X0212407Y0310528D01*
X0212407Y0310565D02*
X0205714Y0310565D01*
X0205714Y0310603D02*
X0212407Y0310603D01*
X0212407Y0310641D02*
X0205714Y0310641D01*
X0205714Y0310679D02*
X0212407Y0310679D01*
X0212407Y0310717D02*
X0205714Y0310717D01*
X0205714Y0310755D02*
X0212407Y0310755D01*
X0212407Y0310793D02*
X0205714Y0310793D01*
X0205714Y0310831D02*
X0212407Y0310831D01*
X0212407Y0310868D02*
X0205714Y0310868D01*
X0205714Y0310906D02*
X0212407Y0310906D01*
X0212407Y0310944D02*
X0205714Y0310944D01*
X0205714Y0310982D02*
X0212407Y0310982D01*
X0212407Y0311020D02*
X0205714Y0311020D01*
X0205714Y0311058D02*
X0212407Y0311058D01*
X0212407Y0311096D02*
X0205714Y0311096D01*
X0205714Y0311134D02*
X0212407Y0311134D01*
X0212407Y0311171D02*
X0205714Y0311171D01*
X0205714Y0311209D02*
X0212407Y0311209D01*
X0212407Y0311247D02*
X0205714Y0311247D01*
X0205714Y0311285D02*
X0212407Y0311285D01*
X0212405Y0311323D02*
X0205717Y0311323D01*
X0205721Y0311361D02*
X0212401Y0311361D01*
X0212397Y0311399D02*
X0205725Y0311399D01*
X0205728Y0311437D02*
X0212393Y0311437D01*
X0212390Y0311475D02*
X0205732Y0311475D01*
X0205736Y0311512D02*
X0212386Y0311512D01*
X0212382Y0311550D02*
X0205740Y0311550D01*
X0205743Y0311588D02*
X0212379Y0311588D01*
X0212375Y0311626D02*
X0205747Y0311626D01*
X0205751Y0311664D02*
X0212371Y0311664D01*
X0212367Y0311702D02*
X0205755Y0311702D01*
X0205758Y0311740D02*
X0212364Y0311740D01*
X0212360Y0311778D02*
X0205762Y0311778D01*
X0205766Y0311815D02*
X0212356Y0311815D01*
X0212352Y0311853D02*
X0205769Y0311853D01*
X0205773Y0311891D02*
X0212349Y0311891D01*
X0212345Y0311929D02*
X0205777Y0311929D01*
X0205785Y0311967D02*
X0212337Y0311967D01*
X0212326Y0312005D02*
X0205796Y0312005D01*
X0205807Y0312043D02*
X0212314Y0312043D01*
X0212303Y0312081D02*
X0205819Y0312081D01*
X0205830Y0312119D02*
X0212291Y0312119D01*
X0212280Y0312156D02*
X0205842Y0312156D01*
X0205853Y0312194D02*
X0212268Y0312194D01*
X0212257Y0312232D02*
X0205865Y0312232D01*
X0205876Y0312270D02*
X0212245Y0312270D01*
X0212234Y0312308D02*
X0205888Y0312308D01*
X0205899Y0312346D02*
X0212222Y0312346D01*
X0212211Y0312384D02*
X0205911Y0312384D01*
X0205922Y0312422D02*
X0212199Y0312422D01*
X0212188Y0312459D02*
X0205934Y0312459D01*
X0205945Y0312497D02*
X0212177Y0312497D01*
X0212165Y0312535D02*
X0205957Y0312535D01*
X0205968Y0312573D02*
X0212154Y0312573D01*
X0212134Y0312611D02*
X0205988Y0312611D01*
X0206008Y0312649D02*
X0212114Y0312649D01*
X0212093Y0312687D02*
X0206028Y0312687D01*
X0206049Y0312725D02*
X0212073Y0312725D01*
X0212053Y0312763D02*
X0206069Y0312763D01*
X0206089Y0312800D02*
X0212033Y0312800D01*
X0212012Y0312838D02*
X0206109Y0312838D01*
X0206130Y0312876D02*
X0211992Y0312876D01*
X0211972Y0312914D02*
X0206150Y0312914D01*
X0206170Y0312952D02*
X0211952Y0312952D01*
X0211931Y0312990D02*
X0206190Y0312990D01*
X0206211Y0313028D02*
X0211911Y0313028D01*
X0211891Y0313066D02*
X0206231Y0313066D01*
X0206251Y0313103D02*
X0211871Y0313103D01*
X0211850Y0313141D02*
X0206271Y0313141D01*
X0206299Y0313179D02*
X0211823Y0313179D01*
X0211792Y0313217D02*
X0206330Y0313217D01*
X0206361Y0313255D02*
X0211761Y0313255D01*
X0211730Y0313293D02*
X0206392Y0313293D01*
X0206423Y0313331D02*
X0211699Y0313331D01*
X0211668Y0313369D02*
X0206454Y0313369D01*
X0206485Y0313406D02*
X0211637Y0313406D01*
X0211605Y0313444D02*
X0206516Y0313444D01*
X0206547Y0313482D02*
X0211574Y0313482D01*
X0211543Y0313520D02*
X0206579Y0313520D01*
X0206610Y0313558D02*
X0211512Y0313558D01*
X0211481Y0313596D02*
X0206641Y0313596D01*
X0206672Y0313634D02*
X0211450Y0313634D01*
X0211415Y0313672D02*
X0206707Y0313672D01*
X0206753Y0313710D02*
X0211369Y0313710D01*
X0211323Y0313747D02*
X0206799Y0313747D01*
X0206845Y0313785D02*
X0211276Y0313785D01*
X0211230Y0313823D02*
X0206892Y0313823D01*
X0206938Y0313861D02*
X0211184Y0313861D01*
X0211138Y0313899D02*
X0206984Y0313899D01*
X0207030Y0313937D02*
X0211092Y0313937D01*
X0211046Y0313975D02*
X0207076Y0313975D01*
X0207122Y0314013D02*
X0211000Y0314013D01*
X0210953Y0314050D02*
X0207169Y0314050D01*
X0207222Y0314088D02*
X0210900Y0314088D01*
X0210829Y0314126D02*
X0207292Y0314126D01*
X0207363Y0314164D02*
X0210759Y0314164D01*
X0210688Y0314202D02*
X0207434Y0314202D01*
X0207505Y0314240D02*
X0210617Y0314240D01*
X0210546Y0314278D02*
X0207576Y0314278D01*
X0207647Y0314316D02*
X0210475Y0314316D01*
X0210404Y0314354D02*
X0207718Y0314354D01*
X0207795Y0314391D02*
X0210327Y0314391D01*
X0210202Y0314429D02*
X0207920Y0314429D01*
X0208045Y0314467D02*
X0210077Y0314467D01*
X0209952Y0314505D02*
X0208169Y0314505D01*
X0208294Y0314543D02*
X0209828Y0314543D01*
X0209679Y0314581D02*
X0208442Y0314581D01*
X0208827Y0314619D02*
X0209295Y0314619D01*
X0155321Y0311295D02*
X0155321Y0309012D01*
X0155321Y0305980D01*
X0148628Y0305980D01*
X0148628Y0309012D01*
X0155321Y0309012D01*
X0148628Y0309012D01*
X0148628Y0311295D01*
X0148692Y0311948D01*
X0148883Y0312576D01*
X0149192Y0313154D01*
X0149608Y0313662D01*
X0150115Y0314078D01*
X0150694Y0314387D01*
X0151321Y0314577D01*
X0151974Y0314642D01*
X0152627Y0314577D01*
X0153255Y0314387D01*
X0153834Y0314078D01*
X0154341Y0313662D01*
X0154757Y0313154D01*
X0155066Y0312576D01*
X0155256Y0311948D01*
X0155321Y0311295D01*
X0155321Y0311285D02*
X0148628Y0311285D01*
X0148628Y0311247D02*
X0155321Y0311247D01*
X0155321Y0311209D02*
X0148628Y0311209D01*
X0148628Y0311171D02*
X0155321Y0311171D01*
X0155321Y0311134D02*
X0148628Y0311134D01*
X0148628Y0311096D02*
X0155321Y0311096D01*
X0155321Y0311058D02*
X0148628Y0311058D01*
X0148628Y0311020D02*
X0155321Y0311020D01*
X0155321Y0310982D02*
X0148628Y0310982D01*
X0148628Y0310944D02*
X0155321Y0310944D01*
X0155321Y0310906D02*
X0148628Y0310906D01*
X0148628Y0310868D02*
X0155321Y0310868D01*
X0155321Y0310831D02*
X0148628Y0310831D01*
X0148628Y0310793D02*
X0155321Y0310793D01*
X0155321Y0310755D02*
X0148628Y0310755D01*
X0148628Y0310717D02*
X0155321Y0310717D01*
X0155321Y0310679D02*
X0148628Y0310679D01*
X0148628Y0310641D02*
X0155321Y0310641D01*
X0155321Y0310603D02*
X0148628Y0310603D01*
X0148628Y0310565D02*
X0155321Y0310565D01*
X0155321Y0310528D02*
X0148628Y0310528D01*
X0148628Y0310490D02*
X0155321Y0310490D01*
X0155321Y0310452D02*
X0148628Y0310452D01*
X0148628Y0310414D02*
X0155321Y0310414D01*
X0155321Y0310376D02*
X0148628Y0310376D01*
X0148628Y0310338D02*
X0155321Y0310338D01*
X0155321Y0310300D02*
X0148628Y0310300D01*
X0148628Y0310262D02*
X0155321Y0310262D01*
X0155321Y0310224D02*
X0148628Y0310224D01*
X0148628Y0310187D02*
X0155321Y0310187D01*
X0155321Y0310149D02*
X0148628Y0310149D01*
X0148628Y0310111D02*
X0155321Y0310111D01*
X0155321Y0310073D02*
X0148628Y0310073D01*
X0148628Y0310035D02*
X0155321Y0310035D01*
X0155321Y0309997D02*
X0148628Y0309997D01*
X0148628Y0309959D02*
X0155321Y0309959D01*
X0155321Y0309921D02*
X0148628Y0309921D01*
X0148628Y0309884D02*
X0155321Y0309884D01*
X0155321Y0309846D02*
X0148628Y0309846D01*
X0148628Y0309808D02*
X0155321Y0309808D01*
X0155321Y0309770D02*
X0148628Y0309770D01*
X0148628Y0309732D02*
X0155321Y0309732D01*
X0155321Y0309694D02*
X0148628Y0309694D01*
X0148628Y0309656D02*
X0155321Y0309656D01*
X0155321Y0309618D02*
X0148628Y0309618D01*
X0148628Y0309580D02*
X0155321Y0309580D01*
X0155321Y0309543D02*
X0148628Y0309543D01*
X0148628Y0309505D02*
X0155321Y0309505D01*
X0155321Y0309467D02*
X0148628Y0309467D01*
X0148628Y0309429D02*
X0155321Y0309429D01*
X0155321Y0309391D02*
X0148628Y0309391D01*
X0148628Y0309353D02*
X0155321Y0309353D01*
X0155321Y0309315D02*
X0148628Y0309315D01*
X0148628Y0309277D02*
X0155321Y0309277D01*
X0155321Y0309240D02*
X0148628Y0309240D01*
X0148628Y0309202D02*
X0155321Y0309202D01*
X0155321Y0309164D02*
X0148628Y0309164D01*
X0148628Y0309126D02*
X0155321Y0309126D01*
X0155321Y0309088D02*
X0148628Y0309088D01*
X0148628Y0309050D02*
X0155321Y0309050D01*
X0155318Y0311323D02*
X0148631Y0311323D01*
X0148634Y0311361D02*
X0155314Y0311361D01*
X0155311Y0311399D02*
X0148638Y0311399D01*
X0148642Y0311437D02*
X0155307Y0311437D01*
X0155303Y0311475D02*
X0148646Y0311475D01*
X0148649Y0311512D02*
X0155299Y0311512D01*
X0155296Y0311550D02*
X0148653Y0311550D01*
X0148657Y0311588D02*
X0155292Y0311588D01*
X0155288Y0311626D02*
X0148660Y0311626D01*
X0148664Y0311664D02*
X0155284Y0311664D01*
X0155281Y0311702D02*
X0148668Y0311702D01*
X0148672Y0311740D02*
X0155277Y0311740D01*
X0155273Y0311778D02*
X0148675Y0311778D01*
X0148679Y0311815D02*
X0155270Y0311815D01*
X0155266Y0311853D02*
X0148683Y0311853D01*
X0148687Y0311891D02*
X0155262Y0311891D01*
X0155258Y0311929D02*
X0148690Y0311929D01*
X0148698Y0311967D02*
X0155251Y0311967D01*
X0155239Y0312005D02*
X0148709Y0312005D01*
X0148721Y0312043D02*
X0155228Y0312043D01*
X0155216Y0312081D02*
X0148732Y0312081D01*
X0148744Y0312119D02*
X0155205Y0312119D01*
X0155193Y0312156D02*
X0148755Y0312156D01*
X0148767Y0312194D02*
X0155182Y0312194D01*
X0155170Y0312232D02*
X0148778Y0312232D01*
X0148790Y0312270D02*
X0155159Y0312270D01*
X0155147Y0312308D02*
X0148801Y0312308D01*
X0148813Y0312346D02*
X0155136Y0312346D01*
X0155124Y0312384D02*
X0148824Y0312384D01*
X0148836Y0312422D02*
X0155113Y0312422D01*
X0155101Y0312459D02*
X0148847Y0312459D01*
X0148859Y0312497D02*
X0155090Y0312497D01*
X0155078Y0312535D02*
X0148870Y0312535D01*
X0148882Y0312573D02*
X0155067Y0312573D01*
X0155047Y0312611D02*
X0148901Y0312611D01*
X0148922Y0312649D02*
X0155027Y0312649D01*
X0155007Y0312687D02*
X0148942Y0312687D01*
X0148962Y0312725D02*
X0154987Y0312725D01*
X0154966Y0312763D02*
X0148982Y0312763D01*
X0149003Y0312800D02*
X0154946Y0312800D01*
X0154926Y0312838D02*
X0149023Y0312838D01*
X0149043Y0312876D02*
X0154906Y0312876D01*
X0154885Y0312914D02*
X0149063Y0312914D01*
X0149084Y0312952D02*
X0154865Y0312952D01*
X0154845Y0312990D02*
X0149104Y0312990D01*
X0149124Y0313028D02*
X0154825Y0313028D01*
X0154804Y0313066D02*
X0149144Y0313066D01*
X0149165Y0313103D02*
X0154784Y0313103D01*
X0154764Y0313141D02*
X0149185Y0313141D01*
X0149212Y0313179D02*
X0154737Y0313179D01*
X0154705Y0313217D02*
X0149243Y0313217D01*
X0149274Y0313255D02*
X0154674Y0313255D01*
X0154643Y0313293D02*
X0149305Y0313293D01*
X0149337Y0313331D02*
X0154612Y0313331D01*
X0154581Y0313369D02*
X0149368Y0313369D01*
X0149399Y0313406D02*
X0154550Y0313406D01*
X0154519Y0313444D02*
X0149430Y0313444D01*
X0149461Y0313482D02*
X0154488Y0313482D01*
X0154457Y0313520D02*
X0149492Y0313520D01*
X0149523Y0313558D02*
X0154426Y0313558D01*
X0154395Y0313596D02*
X0149554Y0313596D01*
X0149585Y0313634D02*
X0154363Y0313634D01*
X0154328Y0313672D02*
X0149620Y0313672D01*
X0149666Y0313710D02*
X0154282Y0313710D01*
X0154236Y0313747D02*
X0149713Y0313747D01*
X0149759Y0313785D02*
X0154190Y0313785D01*
X0154144Y0313823D02*
X0149805Y0313823D01*
X0149851Y0313861D02*
X0154098Y0313861D01*
X0154051Y0313899D02*
X0149897Y0313899D01*
X0149943Y0313937D02*
X0154005Y0313937D01*
X0153959Y0313975D02*
X0149990Y0313975D01*
X0150036Y0314013D02*
X0153913Y0314013D01*
X0153867Y0314050D02*
X0150082Y0314050D01*
X0150135Y0314088D02*
X0153814Y0314088D01*
X0153743Y0314126D02*
X0150206Y0314126D01*
X0150277Y0314164D02*
X0153672Y0314164D01*
X0153601Y0314202D02*
X0150348Y0314202D01*
X0150418Y0314240D02*
X0153530Y0314240D01*
X0153459Y0314278D02*
X0150489Y0314278D01*
X0150560Y0314316D02*
X0153388Y0314316D01*
X0153318Y0314354D02*
X0150631Y0314354D01*
X0150708Y0314391D02*
X0153240Y0314391D01*
X0153116Y0314429D02*
X0150833Y0314429D01*
X0150958Y0314467D02*
X0152991Y0314467D01*
X0152866Y0314505D02*
X0151083Y0314505D01*
X0151208Y0314543D02*
X0152741Y0314543D01*
X0152593Y0314581D02*
X0151356Y0314581D01*
X0151740Y0314619D02*
X0152208Y0314619D01*
X0155321Y0305980D02*
X0155321Y0304209D01*
X0155256Y0303556D01*
X0155066Y0302928D01*
X0154757Y0302349D01*
X0154341Y0301842D01*
X0153834Y0301426D01*
X0153255Y0301117D01*
X0152627Y0300927D01*
X0151974Y0300862D01*
X0151321Y0300927D01*
X0150694Y0301117D01*
X0150115Y0301426D01*
X0149608Y0301842D01*
X0149192Y0302349D01*
X0148883Y0302928D01*
X0148692Y0303556D01*
X0148628Y0304209D01*
X0148628Y0305980D01*
X0148628Y0305944D02*
X0155321Y0305944D01*
X0155321Y0305906D02*
X0148628Y0305906D01*
X0148628Y0305868D02*
X0155321Y0305868D01*
X0155321Y0305830D02*
X0148628Y0305830D01*
X0148628Y0305792D02*
X0155321Y0305792D01*
X0155321Y0305754D02*
X0148628Y0305754D01*
X0148628Y0305717D02*
X0155321Y0305717D01*
X0155321Y0305679D02*
X0148628Y0305679D01*
X0148628Y0305641D02*
X0155321Y0305641D01*
X0155321Y0305603D02*
X0148628Y0305603D01*
X0148628Y0305565D02*
X0155321Y0305565D01*
X0155321Y0305527D02*
X0148628Y0305527D01*
X0148628Y0305489D02*
X0155321Y0305489D01*
X0155321Y0305451D02*
X0148628Y0305451D01*
X0148628Y0305414D02*
X0155321Y0305414D01*
X0155321Y0305376D02*
X0148628Y0305376D01*
X0148628Y0305338D02*
X0155321Y0305338D01*
X0155321Y0305300D02*
X0148628Y0305300D01*
X0148628Y0305262D02*
X0155321Y0305262D01*
X0155321Y0305224D02*
X0148628Y0305224D01*
X0148628Y0305186D02*
X0155321Y0305186D01*
X0155321Y0305148D02*
X0148628Y0305148D01*
X0148628Y0305110D02*
X0155321Y0305110D01*
X0155321Y0305073D02*
X0148628Y0305073D01*
X0148628Y0305035D02*
X0155321Y0305035D01*
X0155321Y0304997D02*
X0148628Y0304997D01*
X0148628Y0304959D02*
X0155321Y0304959D01*
X0155321Y0304921D02*
X0148628Y0304921D01*
X0148628Y0304883D02*
X0155321Y0304883D01*
X0155321Y0304845D02*
X0148628Y0304845D01*
X0148628Y0304807D02*
X0155321Y0304807D01*
X0155321Y0304770D02*
X0148628Y0304770D01*
X0148628Y0304732D02*
X0155321Y0304732D01*
X0155321Y0304694D02*
X0148628Y0304694D01*
X0148628Y0304656D02*
X0155321Y0304656D01*
X0155321Y0304618D02*
X0148628Y0304618D01*
X0148628Y0304580D02*
X0155321Y0304580D01*
X0155321Y0304542D02*
X0148628Y0304542D01*
X0148628Y0304504D02*
X0155321Y0304504D01*
X0155321Y0304466D02*
X0148628Y0304466D01*
X0148628Y0304429D02*
X0155321Y0304429D01*
X0155321Y0304391D02*
X0148628Y0304391D01*
X0148628Y0304353D02*
X0155321Y0304353D01*
X0155321Y0304315D02*
X0148628Y0304315D01*
X0148628Y0304277D02*
X0155321Y0304277D01*
X0155321Y0304239D02*
X0148628Y0304239D01*
X0148629Y0304201D02*
X0155320Y0304201D01*
X0155316Y0304163D02*
X0148632Y0304163D01*
X0148636Y0304126D02*
X0155313Y0304126D01*
X0155309Y0304088D02*
X0148640Y0304088D01*
X0148644Y0304050D02*
X0155305Y0304050D01*
X0155301Y0304012D02*
X0148647Y0304012D01*
X0148651Y0303974D02*
X0155298Y0303974D01*
X0155294Y0303936D02*
X0148655Y0303936D01*
X0148658Y0303898D02*
X0155290Y0303898D01*
X0155286Y0303860D02*
X0148662Y0303860D01*
X0148666Y0303823D02*
X0155283Y0303823D01*
X0155279Y0303785D02*
X0148670Y0303785D01*
X0148673Y0303747D02*
X0155275Y0303747D01*
X0155272Y0303709D02*
X0148677Y0303709D01*
X0148681Y0303671D02*
X0155268Y0303671D01*
X0155264Y0303633D02*
X0148685Y0303633D01*
X0148688Y0303595D02*
X0155260Y0303595D01*
X0155257Y0303557D02*
X0148692Y0303557D01*
X0148703Y0303519D02*
X0155245Y0303519D01*
X0155234Y0303482D02*
X0148715Y0303482D01*
X0148726Y0303444D02*
X0155222Y0303444D01*
X0155211Y0303406D02*
X0148738Y0303406D01*
X0148749Y0303368D02*
X0155199Y0303368D01*
X0155188Y0303330D02*
X0148761Y0303330D01*
X0148772Y0303292D02*
X0155177Y0303292D01*
X0155165Y0303254D02*
X0148784Y0303254D01*
X0148795Y0303216D02*
X0155154Y0303216D01*
X0155142Y0303179D02*
X0148807Y0303179D01*
X0148818Y0303141D02*
X0155131Y0303141D01*
X0155119Y0303103D02*
X0148830Y0303103D01*
X0148841Y0303065D02*
X0155108Y0303065D01*
X0155096Y0303027D02*
X0148853Y0303027D01*
X0148864Y0302989D02*
X0155085Y0302989D01*
X0155073Y0302951D02*
X0148876Y0302951D01*
X0148890Y0302913D02*
X0155058Y0302913D01*
X0155038Y0302875D02*
X0148911Y0302875D01*
X0148931Y0302838D02*
X0155018Y0302838D01*
X0154997Y0302800D02*
X0148951Y0302800D01*
X0148971Y0302762D02*
X0154977Y0302762D01*
X0154957Y0302724D02*
X0148992Y0302724D01*
X0149012Y0302686D02*
X0154937Y0302686D01*
X0154916Y0302648D02*
X0149032Y0302648D01*
X0149052Y0302610D02*
X0154896Y0302610D01*
X0154876Y0302572D02*
X0149073Y0302572D01*
X0149093Y0302535D02*
X0154856Y0302535D01*
X0154835Y0302497D02*
X0149113Y0302497D01*
X0149133Y0302459D02*
X0154815Y0302459D01*
X0154795Y0302421D02*
X0149154Y0302421D01*
X0149174Y0302383D02*
X0154775Y0302383D01*
X0154753Y0302345D02*
X0149195Y0302345D01*
X0149227Y0302307D02*
X0154722Y0302307D01*
X0154691Y0302269D02*
X0149258Y0302269D01*
X0149289Y0302231D02*
X0154660Y0302231D01*
X0154629Y0302194D02*
X0149320Y0302194D01*
X0149351Y0302156D02*
X0154598Y0302156D01*
X0154567Y0302118D02*
X0149382Y0302118D01*
X0149413Y0302080D02*
X0154536Y0302080D01*
X0154505Y0302042D02*
X0149444Y0302042D01*
X0149475Y0302004D02*
X0154473Y0302004D01*
X0154442Y0301966D02*
X0149506Y0301966D01*
X0149537Y0301928D02*
X0154411Y0301928D01*
X0154380Y0301891D02*
X0149568Y0301891D01*
X0149600Y0301853D02*
X0154349Y0301853D01*
X0154307Y0301815D02*
X0149642Y0301815D01*
X0149688Y0301777D02*
X0154261Y0301777D01*
X0154215Y0301739D02*
X0149734Y0301739D01*
X0149780Y0301701D02*
X0154169Y0301701D01*
X0154122Y0301663D02*
X0149826Y0301663D01*
X0149872Y0301625D02*
X0154076Y0301625D01*
X0154030Y0301588D02*
X0149919Y0301588D01*
X0149965Y0301550D02*
X0153984Y0301550D01*
X0153938Y0301512D02*
X0150011Y0301512D01*
X0150057Y0301474D02*
X0153892Y0301474D01*
X0153845Y0301436D02*
X0150103Y0301436D01*
X0150168Y0301398D02*
X0153781Y0301398D01*
X0153710Y0301360D02*
X0150239Y0301360D01*
X0150309Y0301322D02*
X0153639Y0301322D01*
X0153568Y0301284D02*
X0150380Y0301284D01*
X0150451Y0301247D02*
X0153497Y0301247D01*
X0153427Y0301209D02*
X0150522Y0301209D01*
X0150593Y0301171D02*
X0153356Y0301171D01*
X0153285Y0301133D02*
X0150664Y0301133D01*
X0150766Y0301095D02*
X0153183Y0301095D01*
X0153058Y0301057D02*
X0150891Y0301057D01*
X0151016Y0301019D02*
X0152933Y0301019D01*
X0152808Y0300981D02*
X0151141Y0300981D01*
X0151265Y0300944D02*
X0152683Y0300944D01*
X0152415Y0300906D02*
X0151533Y0300906D01*
X0151918Y0300868D02*
X0152031Y0300868D01*
D14*
X0126856Y0294228D03*
X0107171Y0294228D03*
D15*
X0082014Y0280154D03*
X0342014Y0191728D03*
D16*
X0342014Y0201728D03*
X0342014Y0211728D03*
X0342014Y0221728D03*
X0342014Y0231728D03*
X0342014Y0241728D03*
X0342014Y0251728D03*
X0342014Y0261728D03*
X0082014Y0260154D03*
X0082014Y0270154D03*
X0082014Y0250154D03*
X0082014Y0240154D03*
X0082014Y0230154D03*
X0082014Y0220154D03*
X0082014Y0210154D03*
M02*
