%
M48
M72
T01C0.01500
T02C0.03543
T03C0.03937
T04C0.04000
T05C0.12500
%
T01
X7500Y140000
X32500Y135000
X77500Y160000
X107500Y122500
X52500Y72500
X87500Y50000
X82500Y57500
X93750Y43750
X7500Y47500
X32963Y68169
X77500Y87500
X41250Y46250
X103750Y43750
X90000Y33750
X182500Y42500
X150000Y102500
X182500Y105000
X145000Y93750
X143750Y76250
X228750Y107500
X292500Y152500
X287500Y110000
X287500Y122500
X275000Y110000
X196000Y70000
X237500Y126250
X257500Y138750
X263750Y132500
X249300Y135000
X156250Y171250
X232500Y138750
X251250Y116250
X20000Y142500
X20000Y160000
X5000Y170000
X25000Y175000
X27500Y190000
X35000Y180000
X82500Y187500
X80000Y177500
X105000Y182500
X127500Y185000
X140000Y172500
X127500Y172500
X140000Y185000
X165000Y190000
X95000Y157500
X47500Y142500
X57500Y140000
X70000Y127500
X107500Y137500
X122500Y115000
X95000Y115000
X127500Y102500
X182500Y82500
X5000Y72500
X5000Y35000
X77500Y112500
X80000Y147500
X252500Y192500
X265000Y185000
X285000Y190000
X285000Y175000
X295000Y165000
X272500Y142500
X295000Y135000
X310000Y150000
X310000Y172500
X305000Y125000
X297500Y100000
X292500Y72500
X270000Y85000
X210000Y82500
X302500Y32500
X206250Y8750
X195000Y27500
X150000Y25000
X86250Y33750
X82500Y33750
X78750Y33750
X75000Y33750
X71250Y33750
X93750Y33750
X97500Y33750
X101250Y33750
X105000Y33750
X108750Y33750
X67500Y33750
X112500Y33750
X116250Y33750
X230000Y75000
X217500Y60000
X257500Y72500
X275000Y65000
X242500Y60000
X265000Y52500
X230000Y45000
X217500Y35000
X237500Y30000
X252500Y20000
X265000Y32500
X277500Y22500
X277500Y45000
X220000Y20000
X256250Y8750
X56250Y163750
X277500Y80000
X222500Y107500
X82500Y87500
X112500Y175000
X92500Y87500
X197500Y90000
X87500Y177500
X137500Y77500
X117500Y62500
X77500Y82500
X77500Y67500
X102500Y62500
X65000Y97500
X20000Y97500
X132500Y22500
X34921Y97362
X4921Y97362
X9921Y97362
X14921Y97362
X24921Y97362
X29921Y97362
X4921Y102362
X9921Y102362
X14921Y102362
X19921Y102362
X24921Y102362
X29921Y102362
X34921Y102362
X34921Y92362
X29921Y92362
X24921Y92362
X19921Y92362
X14921Y92362
X9921Y92362
X4921Y92362
X4921Y107362
X4921Y112362
X34921Y107362
X34921Y112362
X4921Y87362
X4921Y82362
X9921Y82362
X9921Y87362
X29921Y87362
X29921Y82362
X34921Y82362
X34921Y87362
X292500Y100000
X177500Y72500
X117500Y57500
X162500Y15000
X135000Y55000
X117500Y52500
X72500Y67500
X103750Y52500
X165000Y179390
X255000Y179390
X165000Y174390
X260000Y176890
X260000Y169390
X165000Y169390
X170000Y149390
X267500Y171890
X160000Y169390
X247500Y122500
X272500Y125000
X87500Y85000
X267500Y130000
X150000Y52500
X141250Y53750
X140000Y15000
X107500Y68750
X107500Y77500
X145000Y13750
X112500Y75000
X150000Y7500
X117500Y82500
X102500Y70000
X52500Y82500
X100000Y85000
X205000Y93750
X52500Y60000
X28750Y70000
T02
X273228Y161024
X216142Y161024
X216142Y184488
X273228Y184488
X172047Y161024
X114961Y161024
X114961Y184488
X172047Y184488
T03
X70157Y147500
X89843Y147500
T04
X45000Y133425
X45000Y123425
X45000Y113425
X45000Y103425
X45000Y93425
X45000Y83425
X45000Y73425
X45000Y63425
X305000Y45000
X305000Y55000
X305000Y65000
X305000Y75000
X305000Y85000
X305000Y95000
X305000Y105000
X305000Y115000
T05
X11811Y185039
X303150Y185039
X11811Y11811
X303150Y11811
M30
