G75*
%MOIN*%
%OFA0B0*%
%FSLAX25Y25*%
%IPPOS*%
%LPD*%
%AMOC8*
5,1,8,0,0,1.08239X$1,22.5*
%
%ADD10C,0.00000*%
%ADD11C,0.00600*%
%ADD12R,0.29951X0.12500*%
%ADD13C,0.01969*%
%ADD14C,0.00800*%
%ADD15C,0.00400*%
%ADD16C,0.01000*%
%ADD17C,0.00787*%
%ADD18C,0.00500*%
%ADD19C,0.01575*%
%ADD20C,0.01682*%
D10*
X0044888Y0146728D02*
X0344100Y0146728D01*
X0344290Y0146730D01*
X0344480Y0146737D01*
X0344670Y0146749D01*
X0344860Y0146765D01*
X0345049Y0146785D01*
X0345238Y0146811D01*
X0345426Y0146840D01*
X0345613Y0146875D01*
X0345799Y0146914D01*
X0345984Y0146957D01*
X0346169Y0147005D01*
X0346352Y0147057D01*
X0346533Y0147113D01*
X0346713Y0147174D01*
X0346892Y0147240D01*
X0347069Y0147309D01*
X0347245Y0147383D01*
X0347418Y0147461D01*
X0347590Y0147544D01*
X0347759Y0147630D01*
X0347927Y0147720D01*
X0348092Y0147815D01*
X0348255Y0147913D01*
X0348415Y0148016D01*
X0348573Y0148122D01*
X0348728Y0148232D01*
X0348881Y0148345D01*
X0349031Y0148463D01*
X0349177Y0148584D01*
X0349321Y0148708D01*
X0349462Y0148836D01*
X0349600Y0148967D01*
X0349735Y0149102D01*
X0349866Y0149240D01*
X0349994Y0149381D01*
X0350118Y0149525D01*
X0350239Y0149671D01*
X0350357Y0149821D01*
X0350470Y0149974D01*
X0350580Y0150129D01*
X0350686Y0150287D01*
X0350789Y0150447D01*
X0350887Y0150610D01*
X0350982Y0150775D01*
X0351072Y0150943D01*
X0351158Y0151112D01*
X0351241Y0151284D01*
X0351319Y0151457D01*
X0351393Y0151633D01*
X0351462Y0151810D01*
X0351528Y0151989D01*
X0351589Y0152169D01*
X0351645Y0152350D01*
X0351697Y0152533D01*
X0351745Y0152718D01*
X0351788Y0152903D01*
X0351827Y0153089D01*
X0351862Y0153276D01*
X0351891Y0153464D01*
X0351917Y0153653D01*
X0351937Y0153842D01*
X0351953Y0154032D01*
X0351965Y0154222D01*
X0351972Y0154412D01*
X0351974Y0154602D01*
X0351974Y0335705D01*
X0351972Y0335895D01*
X0351965Y0336085D01*
X0351953Y0336275D01*
X0351937Y0336465D01*
X0351917Y0336654D01*
X0351891Y0336843D01*
X0351862Y0337031D01*
X0351827Y0337218D01*
X0351788Y0337404D01*
X0351745Y0337589D01*
X0351697Y0337774D01*
X0351645Y0337957D01*
X0351589Y0338138D01*
X0351528Y0338318D01*
X0351462Y0338497D01*
X0351393Y0338674D01*
X0351319Y0338850D01*
X0351241Y0339023D01*
X0351158Y0339195D01*
X0351072Y0339364D01*
X0350982Y0339532D01*
X0350887Y0339697D01*
X0350789Y0339860D01*
X0350686Y0340020D01*
X0350580Y0340178D01*
X0350470Y0340333D01*
X0350357Y0340486D01*
X0350239Y0340636D01*
X0350118Y0340782D01*
X0349994Y0340926D01*
X0349866Y0341067D01*
X0349735Y0341205D01*
X0349600Y0341340D01*
X0349462Y0341471D01*
X0349321Y0341599D01*
X0349177Y0341723D01*
X0349031Y0341844D01*
X0348881Y0341962D01*
X0348728Y0342075D01*
X0348573Y0342185D01*
X0348415Y0342291D01*
X0348255Y0342394D01*
X0348092Y0342492D01*
X0347927Y0342587D01*
X0347759Y0342677D01*
X0347590Y0342763D01*
X0347418Y0342846D01*
X0347245Y0342924D01*
X0347069Y0342998D01*
X0346892Y0343067D01*
X0346713Y0343133D01*
X0346533Y0343194D01*
X0346352Y0343250D01*
X0346169Y0343302D01*
X0345984Y0343350D01*
X0345799Y0343393D01*
X0345613Y0343432D01*
X0345426Y0343467D01*
X0345238Y0343496D01*
X0345049Y0343522D01*
X0344860Y0343542D01*
X0344670Y0343558D01*
X0344480Y0343570D01*
X0344290Y0343577D01*
X0344100Y0343579D01*
X0044888Y0343579D01*
X0044698Y0343577D01*
X0044508Y0343570D01*
X0044318Y0343558D01*
X0044128Y0343542D01*
X0043939Y0343522D01*
X0043750Y0343496D01*
X0043562Y0343467D01*
X0043375Y0343432D01*
X0043189Y0343393D01*
X0043004Y0343350D01*
X0042819Y0343302D01*
X0042636Y0343250D01*
X0042455Y0343194D01*
X0042275Y0343133D01*
X0042096Y0343067D01*
X0041919Y0342998D01*
X0041743Y0342924D01*
X0041570Y0342846D01*
X0041398Y0342763D01*
X0041229Y0342677D01*
X0041061Y0342587D01*
X0040896Y0342492D01*
X0040733Y0342394D01*
X0040573Y0342291D01*
X0040415Y0342185D01*
X0040260Y0342075D01*
X0040107Y0341962D01*
X0039957Y0341844D01*
X0039811Y0341723D01*
X0039667Y0341599D01*
X0039526Y0341471D01*
X0039388Y0341340D01*
X0039253Y0341205D01*
X0039122Y0341067D01*
X0038994Y0340926D01*
X0038870Y0340782D01*
X0038749Y0340636D01*
X0038631Y0340486D01*
X0038518Y0340333D01*
X0038408Y0340178D01*
X0038302Y0340020D01*
X0038199Y0339860D01*
X0038101Y0339697D01*
X0038006Y0339532D01*
X0037916Y0339364D01*
X0037830Y0339195D01*
X0037747Y0339023D01*
X0037669Y0338850D01*
X0037595Y0338674D01*
X0037526Y0338497D01*
X0037460Y0338318D01*
X0037399Y0338138D01*
X0037343Y0337957D01*
X0037291Y0337774D01*
X0037243Y0337589D01*
X0037200Y0337404D01*
X0037161Y0337218D01*
X0037126Y0337031D01*
X0037097Y0336843D01*
X0037071Y0336654D01*
X0037051Y0336465D01*
X0037035Y0336275D01*
X0037023Y0336085D01*
X0037016Y0335895D01*
X0037014Y0335705D01*
X0037014Y0154602D01*
X0037016Y0154412D01*
X0037023Y0154222D01*
X0037035Y0154032D01*
X0037051Y0153842D01*
X0037071Y0153653D01*
X0037097Y0153464D01*
X0037126Y0153276D01*
X0037161Y0153089D01*
X0037200Y0152903D01*
X0037243Y0152718D01*
X0037291Y0152533D01*
X0037343Y0152350D01*
X0037399Y0152169D01*
X0037460Y0151989D01*
X0037526Y0151810D01*
X0037595Y0151633D01*
X0037669Y0151457D01*
X0037747Y0151284D01*
X0037830Y0151112D01*
X0037916Y0150943D01*
X0038006Y0150775D01*
X0038101Y0150610D01*
X0038199Y0150447D01*
X0038302Y0150287D01*
X0038408Y0150129D01*
X0038518Y0149974D01*
X0038631Y0149821D01*
X0038749Y0149671D01*
X0038870Y0149525D01*
X0038994Y0149381D01*
X0039122Y0149240D01*
X0039253Y0149102D01*
X0039388Y0148967D01*
X0039526Y0148836D01*
X0039667Y0148708D01*
X0039811Y0148584D01*
X0039957Y0148463D01*
X0040107Y0148345D01*
X0040260Y0148232D01*
X0040415Y0148122D01*
X0040573Y0148016D01*
X0040733Y0147913D01*
X0040896Y0147815D01*
X0041061Y0147720D01*
X0041229Y0147630D01*
X0041398Y0147544D01*
X0041570Y0147461D01*
X0041743Y0147383D01*
X0041919Y0147309D01*
X0042096Y0147240D01*
X0042275Y0147174D01*
X0042455Y0147113D01*
X0042636Y0147057D01*
X0042819Y0147005D01*
X0043004Y0146957D01*
X0043189Y0146914D01*
X0043375Y0146875D01*
X0043562Y0146840D01*
X0043750Y0146811D01*
X0043939Y0146785D01*
X0044128Y0146765D01*
X0044318Y0146749D01*
X0044508Y0146737D01*
X0044698Y0146730D01*
X0044888Y0146728D01*
X0042575Y0158539D02*
X0042577Y0158697D01*
X0042583Y0158854D01*
X0042593Y0159012D01*
X0042607Y0159169D01*
X0042625Y0159325D01*
X0042646Y0159482D01*
X0042672Y0159637D01*
X0042702Y0159792D01*
X0042735Y0159946D01*
X0042773Y0160099D01*
X0042814Y0160252D01*
X0042859Y0160403D01*
X0042908Y0160553D01*
X0042961Y0160701D01*
X0043017Y0160849D01*
X0043078Y0160994D01*
X0043141Y0161139D01*
X0043209Y0161281D01*
X0043280Y0161422D01*
X0043354Y0161561D01*
X0043432Y0161698D01*
X0043514Y0161833D01*
X0043598Y0161966D01*
X0043687Y0162097D01*
X0043778Y0162225D01*
X0043873Y0162352D01*
X0043970Y0162475D01*
X0044071Y0162597D01*
X0044175Y0162715D01*
X0044282Y0162831D01*
X0044392Y0162944D01*
X0044504Y0163055D01*
X0044620Y0163162D01*
X0044738Y0163267D01*
X0044858Y0163369D01*
X0044981Y0163467D01*
X0045107Y0163563D01*
X0045235Y0163655D01*
X0045365Y0163744D01*
X0045497Y0163830D01*
X0045632Y0163912D01*
X0045769Y0163991D01*
X0045907Y0164066D01*
X0046047Y0164138D01*
X0046190Y0164206D01*
X0046333Y0164271D01*
X0046479Y0164332D01*
X0046626Y0164389D01*
X0046774Y0164443D01*
X0046924Y0164493D01*
X0047074Y0164539D01*
X0047226Y0164581D01*
X0047379Y0164620D01*
X0047533Y0164654D01*
X0047688Y0164685D01*
X0047843Y0164711D01*
X0047999Y0164734D01*
X0048156Y0164753D01*
X0048313Y0164768D01*
X0048470Y0164779D01*
X0048628Y0164786D01*
X0048786Y0164789D01*
X0048943Y0164788D01*
X0049101Y0164783D01*
X0049258Y0164774D01*
X0049416Y0164761D01*
X0049572Y0164744D01*
X0049729Y0164723D01*
X0049884Y0164699D01*
X0050039Y0164670D01*
X0050194Y0164637D01*
X0050347Y0164601D01*
X0050500Y0164560D01*
X0050651Y0164516D01*
X0050801Y0164468D01*
X0050950Y0164417D01*
X0051098Y0164361D01*
X0051244Y0164302D01*
X0051389Y0164239D01*
X0051532Y0164172D01*
X0051673Y0164102D01*
X0051812Y0164029D01*
X0051950Y0163952D01*
X0052086Y0163871D01*
X0052219Y0163787D01*
X0052350Y0163700D01*
X0052479Y0163609D01*
X0052606Y0163515D01*
X0052731Y0163418D01*
X0052852Y0163318D01*
X0052972Y0163215D01*
X0053088Y0163109D01*
X0053202Y0163000D01*
X0053314Y0162888D01*
X0053422Y0162774D01*
X0053527Y0162656D01*
X0053630Y0162536D01*
X0053729Y0162414D01*
X0053825Y0162289D01*
X0053918Y0162161D01*
X0054008Y0162032D01*
X0054094Y0161900D01*
X0054178Y0161766D01*
X0054257Y0161630D01*
X0054334Y0161492D01*
X0054406Y0161352D01*
X0054475Y0161210D01*
X0054541Y0161067D01*
X0054603Y0160922D01*
X0054661Y0160775D01*
X0054716Y0160627D01*
X0054767Y0160478D01*
X0054814Y0160327D01*
X0054857Y0160176D01*
X0054896Y0160023D01*
X0054932Y0159869D01*
X0054963Y0159715D01*
X0054991Y0159560D01*
X0055015Y0159404D01*
X0055035Y0159247D01*
X0055051Y0159090D01*
X0055063Y0158933D01*
X0055071Y0158776D01*
X0055075Y0158618D01*
X0055075Y0158460D01*
X0055071Y0158302D01*
X0055063Y0158145D01*
X0055051Y0157988D01*
X0055035Y0157831D01*
X0055015Y0157674D01*
X0054991Y0157518D01*
X0054963Y0157363D01*
X0054932Y0157209D01*
X0054896Y0157055D01*
X0054857Y0156902D01*
X0054814Y0156751D01*
X0054767Y0156600D01*
X0054716Y0156451D01*
X0054661Y0156303D01*
X0054603Y0156156D01*
X0054541Y0156011D01*
X0054475Y0155868D01*
X0054406Y0155726D01*
X0054334Y0155586D01*
X0054257Y0155448D01*
X0054178Y0155312D01*
X0054094Y0155178D01*
X0054008Y0155046D01*
X0053918Y0154917D01*
X0053825Y0154789D01*
X0053729Y0154664D01*
X0053630Y0154542D01*
X0053527Y0154422D01*
X0053422Y0154304D01*
X0053314Y0154190D01*
X0053202Y0154078D01*
X0053088Y0153969D01*
X0052972Y0153863D01*
X0052852Y0153760D01*
X0052731Y0153660D01*
X0052606Y0153563D01*
X0052479Y0153469D01*
X0052350Y0153378D01*
X0052219Y0153291D01*
X0052086Y0153207D01*
X0051950Y0153126D01*
X0051812Y0153049D01*
X0051673Y0152976D01*
X0051532Y0152906D01*
X0051389Y0152839D01*
X0051244Y0152776D01*
X0051098Y0152717D01*
X0050950Y0152661D01*
X0050801Y0152610D01*
X0050651Y0152562D01*
X0050500Y0152518D01*
X0050347Y0152477D01*
X0050194Y0152441D01*
X0050039Y0152408D01*
X0049884Y0152379D01*
X0049729Y0152355D01*
X0049572Y0152334D01*
X0049416Y0152317D01*
X0049258Y0152304D01*
X0049101Y0152295D01*
X0048943Y0152290D01*
X0048786Y0152289D01*
X0048628Y0152292D01*
X0048470Y0152299D01*
X0048313Y0152310D01*
X0048156Y0152325D01*
X0047999Y0152344D01*
X0047843Y0152367D01*
X0047688Y0152393D01*
X0047533Y0152424D01*
X0047379Y0152458D01*
X0047226Y0152497D01*
X0047074Y0152539D01*
X0046924Y0152585D01*
X0046774Y0152635D01*
X0046626Y0152689D01*
X0046479Y0152746D01*
X0046333Y0152807D01*
X0046190Y0152872D01*
X0046047Y0152940D01*
X0045907Y0153012D01*
X0045769Y0153087D01*
X0045632Y0153166D01*
X0045497Y0153248D01*
X0045365Y0153334D01*
X0045235Y0153423D01*
X0045107Y0153515D01*
X0044981Y0153611D01*
X0044858Y0153709D01*
X0044738Y0153811D01*
X0044620Y0153916D01*
X0044504Y0154023D01*
X0044392Y0154134D01*
X0044282Y0154247D01*
X0044175Y0154363D01*
X0044071Y0154481D01*
X0043970Y0154603D01*
X0043873Y0154726D01*
X0043778Y0154853D01*
X0043687Y0154981D01*
X0043598Y0155112D01*
X0043514Y0155245D01*
X0043432Y0155380D01*
X0043354Y0155517D01*
X0043280Y0155656D01*
X0043209Y0155797D01*
X0043141Y0155939D01*
X0043078Y0156084D01*
X0043017Y0156229D01*
X0042961Y0156377D01*
X0042908Y0156525D01*
X0042859Y0156675D01*
X0042814Y0156826D01*
X0042773Y0156979D01*
X0042735Y0157132D01*
X0042702Y0157286D01*
X0042672Y0157441D01*
X0042646Y0157596D01*
X0042625Y0157753D01*
X0042607Y0157909D01*
X0042593Y0158066D01*
X0042583Y0158224D01*
X0042577Y0158381D01*
X0042575Y0158539D01*
X0042575Y0331768D02*
X0042577Y0331926D01*
X0042583Y0332083D01*
X0042593Y0332241D01*
X0042607Y0332398D01*
X0042625Y0332554D01*
X0042646Y0332711D01*
X0042672Y0332866D01*
X0042702Y0333021D01*
X0042735Y0333175D01*
X0042773Y0333328D01*
X0042814Y0333481D01*
X0042859Y0333632D01*
X0042908Y0333782D01*
X0042961Y0333930D01*
X0043017Y0334078D01*
X0043078Y0334223D01*
X0043141Y0334368D01*
X0043209Y0334510D01*
X0043280Y0334651D01*
X0043354Y0334790D01*
X0043432Y0334927D01*
X0043514Y0335062D01*
X0043598Y0335195D01*
X0043687Y0335326D01*
X0043778Y0335454D01*
X0043873Y0335581D01*
X0043970Y0335704D01*
X0044071Y0335826D01*
X0044175Y0335944D01*
X0044282Y0336060D01*
X0044392Y0336173D01*
X0044504Y0336284D01*
X0044620Y0336391D01*
X0044738Y0336496D01*
X0044858Y0336598D01*
X0044981Y0336696D01*
X0045107Y0336792D01*
X0045235Y0336884D01*
X0045365Y0336973D01*
X0045497Y0337059D01*
X0045632Y0337141D01*
X0045769Y0337220D01*
X0045907Y0337295D01*
X0046047Y0337367D01*
X0046190Y0337435D01*
X0046333Y0337500D01*
X0046479Y0337561D01*
X0046626Y0337618D01*
X0046774Y0337672D01*
X0046924Y0337722D01*
X0047074Y0337768D01*
X0047226Y0337810D01*
X0047379Y0337849D01*
X0047533Y0337883D01*
X0047688Y0337914D01*
X0047843Y0337940D01*
X0047999Y0337963D01*
X0048156Y0337982D01*
X0048313Y0337997D01*
X0048470Y0338008D01*
X0048628Y0338015D01*
X0048786Y0338018D01*
X0048943Y0338017D01*
X0049101Y0338012D01*
X0049258Y0338003D01*
X0049416Y0337990D01*
X0049572Y0337973D01*
X0049729Y0337952D01*
X0049884Y0337928D01*
X0050039Y0337899D01*
X0050194Y0337866D01*
X0050347Y0337830D01*
X0050500Y0337789D01*
X0050651Y0337745D01*
X0050801Y0337697D01*
X0050950Y0337646D01*
X0051098Y0337590D01*
X0051244Y0337531D01*
X0051389Y0337468D01*
X0051532Y0337401D01*
X0051673Y0337331D01*
X0051812Y0337258D01*
X0051950Y0337181D01*
X0052086Y0337100D01*
X0052219Y0337016D01*
X0052350Y0336929D01*
X0052479Y0336838D01*
X0052606Y0336744D01*
X0052731Y0336647D01*
X0052852Y0336547D01*
X0052972Y0336444D01*
X0053088Y0336338D01*
X0053202Y0336229D01*
X0053314Y0336117D01*
X0053422Y0336003D01*
X0053527Y0335885D01*
X0053630Y0335765D01*
X0053729Y0335643D01*
X0053825Y0335518D01*
X0053918Y0335390D01*
X0054008Y0335261D01*
X0054094Y0335129D01*
X0054178Y0334995D01*
X0054257Y0334859D01*
X0054334Y0334721D01*
X0054406Y0334581D01*
X0054475Y0334439D01*
X0054541Y0334296D01*
X0054603Y0334151D01*
X0054661Y0334004D01*
X0054716Y0333856D01*
X0054767Y0333707D01*
X0054814Y0333556D01*
X0054857Y0333405D01*
X0054896Y0333252D01*
X0054932Y0333098D01*
X0054963Y0332944D01*
X0054991Y0332789D01*
X0055015Y0332633D01*
X0055035Y0332476D01*
X0055051Y0332319D01*
X0055063Y0332162D01*
X0055071Y0332005D01*
X0055075Y0331847D01*
X0055075Y0331689D01*
X0055071Y0331531D01*
X0055063Y0331374D01*
X0055051Y0331217D01*
X0055035Y0331060D01*
X0055015Y0330903D01*
X0054991Y0330747D01*
X0054963Y0330592D01*
X0054932Y0330438D01*
X0054896Y0330284D01*
X0054857Y0330131D01*
X0054814Y0329980D01*
X0054767Y0329829D01*
X0054716Y0329680D01*
X0054661Y0329532D01*
X0054603Y0329385D01*
X0054541Y0329240D01*
X0054475Y0329097D01*
X0054406Y0328955D01*
X0054334Y0328815D01*
X0054257Y0328677D01*
X0054178Y0328541D01*
X0054094Y0328407D01*
X0054008Y0328275D01*
X0053918Y0328146D01*
X0053825Y0328018D01*
X0053729Y0327893D01*
X0053630Y0327771D01*
X0053527Y0327651D01*
X0053422Y0327533D01*
X0053314Y0327419D01*
X0053202Y0327307D01*
X0053088Y0327198D01*
X0052972Y0327092D01*
X0052852Y0326989D01*
X0052731Y0326889D01*
X0052606Y0326792D01*
X0052479Y0326698D01*
X0052350Y0326607D01*
X0052219Y0326520D01*
X0052086Y0326436D01*
X0051950Y0326355D01*
X0051812Y0326278D01*
X0051673Y0326205D01*
X0051532Y0326135D01*
X0051389Y0326068D01*
X0051244Y0326005D01*
X0051098Y0325946D01*
X0050950Y0325890D01*
X0050801Y0325839D01*
X0050651Y0325791D01*
X0050500Y0325747D01*
X0050347Y0325706D01*
X0050194Y0325670D01*
X0050039Y0325637D01*
X0049884Y0325608D01*
X0049729Y0325584D01*
X0049572Y0325563D01*
X0049416Y0325546D01*
X0049258Y0325533D01*
X0049101Y0325524D01*
X0048943Y0325519D01*
X0048786Y0325518D01*
X0048628Y0325521D01*
X0048470Y0325528D01*
X0048313Y0325539D01*
X0048156Y0325554D01*
X0047999Y0325573D01*
X0047843Y0325596D01*
X0047688Y0325622D01*
X0047533Y0325653D01*
X0047379Y0325687D01*
X0047226Y0325726D01*
X0047074Y0325768D01*
X0046924Y0325814D01*
X0046774Y0325864D01*
X0046626Y0325918D01*
X0046479Y0325975D01*
X0046333Y0326036D01*
X0046190Y0326101D01*
X0046047Y0326169D01*
X0045907Y0326241D01*
X0045769Y0326316D01*
X0045632Y0326395D01*
X0045497Y0326477D01*
X0045365Y0326563D01*
X0045235Y0326652D01*
X0045107Y0326744D01*
X0044981Y0326840D01*
X0044858Y0326938D01*
X0044738Y0327040D01*
X0044620Y0327145D01*
X0044504Y0327252D01*
X0044392Y0327363D01*
X0044282Y0327476D01*
X0044175Y0327592D01*
X0044071Y0327710D01*
X0043970Y0327832D01*
X0043873Y0327955D01*
X0043778Y0328082D01*
X0043687Y0328210D01*
X0043598Y0328341D01*
X0043514Y0328474D01*
X0043432Y0328609D01*
X0043354Y0328746D01*
X0043280Y0328885D01*
X0043209Y0329026D01*
X0043141Y0329168D01*
X0043078Y0329313D01*
X0043017Y0329458D01*
X0042961Y0329606D01*
X0042908Y0329754D01*
X0042859Y0329904D01*
X0042814Y0330055D01*
X0042773Y0330208D01*
X0042735Y0330361D01*
X0042702Y0330515D01*
X0042672Y0330670D01*
X0042646Y0330825D01*
X0042625Y0330982D01*
X0042607Y0331138D01*
X0042593Y0331295D01*
X0042583Y0331453D01*
X0042577Y0331610D01*
X0042575Y0331768D01*
X0333913Y0331768D02*
X0333915Y0331926D01*
X0333921Y0332083D01*
X0333931Y0332241D01*
X0333945Y0332398D01*
X0333963Y0332554D01*
X0333984Y0332711D01*
X0334010Y0332866D01*
X0334040Y0333021D01*
X0334073Y0333175D01*
X0334111Y0333328D01*
X0334152Y0333481D01*
X0334197Y0333632D01*
X0334246Y0333782D01*
X0334299Y0333930D01*
X0334355Y0334078D01*
X0334416Y0334223D01*
X0334479Y0334368D01*
X0334547Y0334510D01*
X0334618Y0334651D01*
X0334692Y0334790D01*
X0334770Y0334927D01*
X0334852Y0335062D01*
X0334936Y0335195D01*
X0335025Y0335326D01*
X0335116Y0335454D01*
X0335211Y0335581D01*
X0335308Y0335704D01*
X0335409Y0335826D01*
X0335513Y0335944D01*
X0335620Y0336060D01*
X0335730Y0336173D01*
X0335842Y0336284D01*
X0335958Y0336391D01*
X0336076Y0336496D01*
X0336196Y0336598D01*
X0336319Y0336696D01*
X0336445Y0336792D01*
X0336573Y0336884D01*
X0336703Y0336973D01*
X0336835Y0337059D01*
X0336970Y0337141D01*
X0337107Y0337220D01*
X0337245Y0337295D01*
X0337385Y0337367D01*
X0337528Y0337435D01*
X0337671Y0337500D01*
X0337817Y0337561D01*
X0337964Y0337618D01*
X0338112Y0337672D01*
X0338262Y0337722D01*
X0338412Y0337768D01*
X0338564Y0337810D01*
X0338717Y0337849D01*
X0338871Y0337883D01*
X0339026Y0337914D01*
X0339181Y0337940D01*
X0339337Y0337963D01*
X0339494Y0337982D01*
X0339651Y0337997D01*
X0339808Y0338008D01*
X0339966Y0338015D01*
X0340124Y0338018D01*
X0340281Y0338017D01*
X0340439Y0338012D01*
X0340596Y0338003D01*
X0340754Y0337990D01*
X0340910Y0337973D01*
X0341067Y0337952D01*
X0341222Y0337928D01*
X0341377Y0337899D01*
X0341532Y0337866D01*
X0341685Y0337830D01*
X0341838Y0337789D01*
X0341989Y0337745D01*
X0342139Y0337697D01*
X0342288Y0337646D01*
X0342436Y0337590D01*
X0342582Y0337531D01*
X0342727Y0337468D01*
X0342870Y0337401D01*
X0343011Y0337331D01*
X0343150Y0337258D01*
X0343288Y0337181D01*
X0343424Y0337100D01*
X0343557Y0337016D01*
X0343688Y0336929D01*
X0343817Y0336838D01*
X0343944Y0336744D01*
X0344069Y0336647D01*
X0344190Y0336547D01*
X0344310Y0336444D01*
X0344426Y0336338D01*
X0344540Y0336229D01*
X0344652Y0336117D01*
X0344760Y0336003D01*
X0344865Y0335885D01*
X0344968Y0335765D01*
X0345067Y0335643D01*
X0345163Y0335518D01*
X0345256Y0335390D01*
X0345346Y0335261D01*
X0345432Y0335129D01*
X0345516Y0334995D01*
X0345595Y0334859D01*
X0345672Y0334721D01*
X0345744Y0334581D01*
X0345813Y0334439D01*
X0345879Y0334296D01*
X0345941Y0334151D01*
X0345999Y0334004D01*
X0346054Y0333856D01*
X0346105Y0333707D01*
X0346152Y0333556D01*
X0346195Y0333405D01*
X0346234Y0333252D01*
X0346270Y0333098D01*
X0346301Y0332944D01*
X0346329Y0332789D01*
X0346353Y0332633D01*
X0346373Y0332476D01*
X0346389Y0332319D01*
X0346401Y0332162D01*
X0346409Y0332005D01*
X0346413Y0331847D01*
X0346413Y0331689D01*
X0346409Y0331531D01*
X0346401Y0331374D01*
X0346389Y0331217D01*
X0346373Y0331060D01*
X0346353Y0330903D01*
X0346329Y0330747D01*
X0346301Y0330592D01*
X0346270Y0330438D01*
X0346234Y0330284D01*
X0346195Y0330131D01*
X0346152Y0329980D01*
X0346105Y0329829D01*
X0346054Y0329680D01*
X0345999Y0329532D01*
X0345941Y0329385D01*
X0345879Y0329240D01*
X0345813Y0329097D01*
X0345744Y0328955D01*
X0345672Y0328815D01*
X0345595Y0328677D01*
X0345516Y0328541D01*
X0345432Y0328407D01*
X0345346Y0328275D01*
X0345256Y0328146D01*
X0345163Y0328018D01*
X0345067Y0327893D01*
X0344968Y0327771D01*
X0344865Y0327651D01*
X0344760Y0327533D01*
X0344652Y0327419D01*
X0344540Y0327307D01*
X0344426Y0327198D01*
X0344310Y0327092D01*
X0344190Y0326989D01*
X0344069Y0326889D01*
X0343944Y0326792D01*
X0343817Y0326698D01*
X0343688Y0326607D01*
X0343557Y0326520D01*
X0343424Y0326436D01*
X0343288Y0326355D01*
X0343150Y0326278D01*
X0343011Y0326205D01*
X0342870Y0326135D01*
X0342727Y0326068D01*
X0342582Y0326005D01*
X0342436Y0325946D01*
X0342288Y0325890D01*
X0342139Y0325839D01*
X0341989Y0325791D01*
X0341838Y0325747D01*
X0341685Y0325706D01*
X0341532Y0325670D01*
X0341377Y0325637D01*
X0341222Y0325608D01*
X0341067Y0325584D01*
X0340910Y0325563D01*
X0340754Y0325546D01*
X0340596Y0325533D01*
X0340439Y0325524D01*
X0340281Y0325519D01*
X0340124Y0325518D01*
X0339966Y0325521D01*
X0339808Y0325528D01*
X0339651Y0325539D01*
X0339494Y0325554D01*
X0339337Y0325573D01*
X0339181Y0325596D01*
X0339026Y0325622D01*
X0338871Y0325653D01*
X0338717Y0325687D01*
X0338564Y0325726D01*
X0338412Y0325768D01*
X0338262Y0325814D01*
X0338112Y0325864D01*
X0337964Y0325918D01*
X0337817Y0325975D01*
X0337671Y0326036D01*
X0337528Y0326101D01*
X0337385Y0326169D01*
X0337245Y0326241D01*
X0337107Y0326316D01*
X0336970Y0326395D01*
X0336835Y0326477D01*
X0336703Y0326563D01*
X0336573Y0326652D01*
X0336445Y0326744D01*
X0336319Y0326840D01*
X0336196Y0326938D01*
X0336076Y0327040D01*
X0335958Y0327145D01*
X0335842Y0327252D01*
X0335730Y0327363D01*
X0335620Y0327476D01*
X0335513Y0327592D01*
X0335409Y0327710D01*
X0335308Y0327832D01*
X0335211Y0327955D01*
X0335116Y0328082D01*
X0335025Y0328210D01*
X0334936Y0328341D01*
X0334852Y0328474D01*
X0334770Y0328609D01*
X0334692Y0328746D01*
X0334618Y0328885D01*
X0334547Y0329026D01*
X0334479Y0329168D01*
X0334416Y0329313D01*
X0334355Y0329458D01*
X0334299Y0329606D01*
X0334246Y0329754D01*
X0334197Y0329904D01*
X0334152Y0330055D01*
X0334111Y0330208D01*
X0334073Y0330361D01*
X0334040Y0330515D01*
X0334010Y0330670D01*
X0333984Y0330825D01*
X0333963Y0330982D01*
X0333945Y0331138D01*
X0333931Y0331295D01*
X0333921Y0331453D01*
X0333915Y0331610D01*
X0333913Y0331768D01*
X0333913Y0158539D02*
X0333915Y0158697D01*
X0333921Y0158854D01*
X0333931Y0159012D01*
X0333945Y0159169D01*
X0333963Y0159325D01*
X0333984Y0159482D01*
X0334010Y0159637D01*
X0334040Y0159792D01*
X0334073Y0159946D01*
X0334111Y0160099D01*
X0334152Y0160252D01*
X0334197Y0160403D01*
X0334246Y0160553D01*
X0334299Y0160701D01*
X0334355Y0160849D01*
X0334416Y0160994D01*
X0334479Y0161139D01*
X0334547Y0161281D01*
X0334618Y0161422D01*
X0334692Y0161561D01*
X0334770Y0161698D01*
X0334852Y0161833D01*
X0334936Y0161966D01*
X0335025Y0162097D01*
X0335116Y0162225D01*
X0335211Y0162352D01*
X0335308Y0162475D01*
X0335409Y0162597D01*
X0335513Y0162715D01*
X0335620Y0162831D01*
X0335730Y0162944D01*
X0335842Y0163055D01*
X0335958Y0163162D01*
X0336076Y0163267D01*
X0336196Y0163369D01*
X0336319Y0163467D01*
X0336445Y0163563D01*
X0336573Y0163655D01*
X0336703Y0163744D01*
X0336835Y0163830D01*
X0336970Y0163912D01*
X0337107Y0163991D01*
X0337245Y0164066D01*
X0337385Y0164138D01*
X0337528Y0164206D01*
X0337671Y0164271D01*
X0337817Y0164332D01*
X0337964Y0164389D01*
X0338112Y0164443D01*
X0338262Y0164493D01*
X0338412Y0164539D01*
X0338564Y0164581D01*
X0338717Y0164620D01*
X0338871Y0164654D01*
X0339026Y0164685D01*
X0339181Y0164711D01*
X0339337Y0164734D01*
X0339494Y0164753D01*
X0339651Y0164768D01*
X0339808Y0164779D01*
X0339966Y0164786D01*
X0340124Y0164789D01*
X0340281Y0164788D01*
X0340439Y0164783D01*
X0340596Y0164774D01*
X0340754Y0164761D01*
X0340910Y0164744D01*
X0341067Y0164723D01*
X0341222Y0164699D01*
X0341377Y0164670D01*
X0341532Y0164637D01*
X0341685Y0164601D01*
X0341838Y0164560D01*
X0341989Y0164516D01*
X0342139Y0164468D01*
X0342288Y0164417D01*
X0342436Y0164361D01*
X0342582Y0164302D01*
X0342727Y0164239D01*
X0342870Y0164172D01*
X0343011Y0164102D01*
X0343150Y0164029D01*
X0343288Y0163952D01*
X0343424Y0163871D01*
X0343557Y0163787D01*
X0343688Y0163700D01*
X0343817Y0163609D01*
X0343944Y0163515D01*
X0344069Y0163418D01*
X0344190Y0163318D01*
X0344310Y0163215D01*
X0344426Y0163109D01*
X0344540Y0163000D01*
X0344652Y0162888D01*
X0344760Y0162774D01*
X0344865Y0162656D01*
X0344968Y0162536D01*
X0345067Y0162414D01*
X0345163Y0162289D01*
X0345256Y0162161D01*
X0345346Y0162032D01*
X0345432Y0161900D01*
X0345516Y0161766D01*
X0345595Y0161630D01*
X0345672Y0161492D01*
X0345744Y0161352D01*
X0345813Y0161210D01*
X0345879Y0161067D01*
X0345941Y0160922D01*
X0345999Y0160775D01*
X0346054Y0160627D01*
X0346105Y0160478D01*
X0346152Y0160327D01*
X0346195Y0160176D01*
X0346234Y0160023D01*
X0346270Y0159869D01*
X0346301Y0159715D01*
X0346329Y0159560D01*
X0346353Y0159404D01*
X0346373Y0159247D01*
X0346389Y0159090D01*
X0346401Y0158933D01*
X0346409Y0158776D01*
X0346413Y0158618D01*
X0346413Y0158460D01*
X0346409Y0158302D01*
X0346401Y0158145D01*
X0346389Y0157988D01*
X0346373Y0157831D01*
X0346353Y0157674D01*
X0346329Y0157518D01*
X0346301Y0157363D01*
X0346270Y0157209D01*
X0346234Y0157055D01*
X0346195Y0156902D01*
X0346152Y0156751D01*
X0346105Y0156600D01*
X0346054Y0156451D01*
X0345999Y0156303D01*
X0345941Y0156156D01*
X0345879Y0156011D01*
X0345813Y0155868D01*
X0345744Y0155726D01*
X0345672Y0155586D01*
X0345595Y0155448D01*
X0345516Y0155312D01*
X0345432Y0155178D01*
X0345346Y0155046D01*
X0345256Y0154917D01*
X0345163Y0154789D01*
X0345067Y0154664D01*
X0344968Y0154542D01*
X0344865Y0154422D01*
X0344760Y0154304D01*
X0344652Y0154190D01*
X0344540Y0154078D01*
X0344426Y0153969D01*
X0344310Y0153863D01*
X0344190Y0153760D01*
X0344069Y0153660D01*
X0343944Y0153563D01*
X0343817Y0153469D01*
X0343688Y0153378D01*
X0343557Y0153291D01*
X0343424Y0153207D01*
X0343288Y0153126D01*
X0343150Y0153049D01*
X0343011Y0152976D01*
X0342870Y0152906D01*
X0342727Y0152839D01*
X0342582Y0152776D01*
X0342436Y0152717D01*
X0342288Y0152661D01*
X0342139Y0152610D01*
X0341989Y0152562D01*
X0341838Y0152518D01*
X0341685Y0152477D01*
X0341532Y0152441D01*
X0341377Y0152408D01*
X0341222Y0152379D01*
X0341067Y0152355D01*
X0340910Y0152334D01*
X0340754Y0152317D01*
X0340596Y0152304D01*
X0340439Y0152295D01*
X0340281Y0152290D01*
X0340124Y0152289D01*
X0339966Y0152292D01*
X0339808Y0152299D01*
X0339651Y0152310D01*
X0339494Y0152325D01*
X0339337Y0152344D01*
X0339181Y0152367D01*
X0339026Y0152393D01*
X0338871Y0152424D01*
X0338717Y0152458D01*
X0338564Y0152497D01*
X0338412Y0152539D01*
X0338262Y0152585D01*
X0338112Y0152635D01*
X0337964Y0152689D01*
X0337817Y0152746D01*
X0337671Y0152807D01*
X0337528Y0152872D01*
X0337385Y0152940D01*
X0337245Y0153012D01*
X0337107Y0153087D01*
X0336970Y0153166D01*
X0336835Y0153248D01*
X0336703Y0153334D01*
X0336573Y0153423D01*
X0336445Y0153515D01*
X0336319Y0153611D01*
X0336196Y0153709D01*
X0336076Y0153811D01*
X0335958Y0153916D01*
X0335842Y0154023D01*
X0335730Y0154134D01*
X0335620Y0154247D01*
X0335513Y0154363D01*
X0335409Y0154481D01*
X0335308Y0154603D01*
X0335211Y0154726D01*
X0335116Y0154853D01*
X0335025Y0154981D01*
X0334936Y0155112D01*
X0334852Y0155245D01*
X0334770Y0155380D01*
X0334692Y0155517D01*
X0334618Y0155656D01*
X0334547Y0155797D01*
X0334479Y0155939D01*
X0334416Y0156084D01*
X0334355Y0156229D01*
X0334299Y0156377D01*
X0334246Y0156525D01*
X0334197Y0156675D01*
X0334152Y0156826D01*
X0334111Y0156979D01*
X0334073Y0157132D01*
X0334040Y0157286D01*
X0334010Y0157441D01*
X0333984Y0157596D01*
X0333963Y0157753D01*
X0333945Y0157909D01*
X0333931Y0158066D01*
X0333921Y0158224D01*
X0333915Y0158381D01*
X0333913Y0158539D01*
D11*
X0322579Y0154642D02*
X0320310Y0151239D01*
X0318895Y0151239D02*
X0316627Y0154642D01*
X0315212Y0154075D02*
X0312944Y0151806D01*
X0313511Y0151239D01*
X0314645Y0151239D01*
X0315212Y0151806D01*
X0315212Y0154075D01*
X0314645Y0154642D01*
X0313511Y0154642D01*
X0312944Y0154075D01*
X0312944Y0151806D01*
X0311529Y0151239D02*
X0309260Y0151239D01*
X0311529Y0153508D01*
X0311529Y0154075D01*
X0310962Y0154642D01*
X0309828Y0154642D01*
X0309260Y0154075D01*
X0307846Y0154075D02*
X0307846Y0152940D01*
X0307279Y0152373D01*
X0305577Y0152373D01*
X0305577Y0151239D02*
X0305577Y0154642D01*
X0307279Y0154642D01*
X0307846Y0154075D01*
X0306712Y0152373D02*
X0307846Y0151239D01*
X0304163Y0151806D02*
X0303596Y0151239D01*
X0302461Y0151239D01*
X0301894Y0151806D01*
X0301894Y0154075D01*
X0302461Y0154642D01*
X0303596Y0154642D01*
X0304163Y0154075D01*
X0316627Y0151239D02*
X0318895Y0154642D01*
X0320310Y0154642D02*
X0322579Y0151239D01*
X0337855Y0181611D02*
X0338422Y0181611D01*
X0338989Y0182178D01*
X0338989Y0185014D01*
X0338422Y0185014D02*
X0339556Y0185014D01*
X0340971Y0185014D02*
X0340971Y0181611D01*
X0340971Y0182745D02*
X0342672Y0182745D01*
X0343240Y0183312D01*
X0343240Y0184447D01*
X0342672Y0185014D01*
X0340971Y0185014D01*
X0344654Y0183880D02*
X0345788Y0185014D01*
X0345788Y0181611D01*
X0344654Y0181611D02*
X0346923Y0181611D01*
X0337855Y0181611D02*
X0337288Y0182178D01*
X0298332Y0247528D02*
X0297198Y0247528D01*
X0296631Y0248095D01*
X0298899Y0250364D01*
X0298899Y0248095D01*
X0298332Y0247528D01*
X0296631Y0248095D02*
X0296631Y0250364D01*
X0297198Y0250931D01*
X0298332Y0250931D01*
X0298899Y0250364D01*
X0295216Y0247528D02*
X0292947Y0247528D01*
X0294082Y0247528D02*
X0294082Y0250931D01*
X0292947Y0249797D01*
X0291533Y0250364D02*
X0291533Y0249230D01*
X0290966Y0248663D01*
X0289264Y0248663D01*
X0290399Y0248663D02*
X0291533Y0247528D01*
X0289264Y0247528D02*
X0289264Y0250931D01*
X0290966Y0250931D01*
X0291533Y0250364D01*
X0286414Y0258328D02*
X0286414Y0260128D01*
X0282614Y0261928D02*
X0281414Y0261928D01*
X0277614Y0260128D02*
X0277614Y0258328D01*
X0269698Y0266528D02*
X0270265Y0267095D01*
X0270265Y0269364D01*
X0269698Y0269931D01*
X0268564Y0269931D01*
X0267997Y0269364D01*
X0267997Y0268797D01*
X0268564Y0268230D01*
X0270265Y0268230D01*
X0269698Y0266528D02*
X0268564Y0266528D01*
X0267997Y0267095D01*
X0266582Y0267095D02*
X0266015Y0266528D01*
X0264881Y0266528D01*
X0264314Y0267095D01*
X0264314Y0269364D01*
X0264881Y0269931D01*
X0266015Y0269931D01*
X0266582Y0269364D01*
X0276314Y0268095D02*
X0276314Y0270931D01*
X0278582Y0270931D02*
X0278582Y0268095D01*
X0278015Y0267528D01*
X0276881Y0267528D01*
X0276314Y0268095D01*
X0279997Y0269230D02*
X0281698Y0270931D01*
X0281698Y0267528D01*
X0282265Y0269230D02*
X0279997Y0269230D01*
X0288608Y0277260D02*
X0288608Y0281197D01*
X0293333Y0282378D02*
X0295695Y0282378D01*
X0300419Y0281197D02*
X0300419Y0277260D01*
X0302511Y0283536D02*
X0303645Y0283536D01*
X0304212Y0284103D01*
X0304212Y0286939D01*
X0305627Y0286372D02*
X0306194Y0286939D01*
X0307328Y0286939D01*
X0307895Y0286372D01*
X0307895Y0285805D01*
X0307328Y0285238D01*
X0307895Y0284671D01*
X0307895Y0284103D01*
X0307328Y0283536D01*
X0306194Y0283536D01*
X0305627Y0284103D01*
X0306761Y0285238D02*
X0307328Y0285238D01*
X0302511Y0283536D02*
X0301944Y0284103D01*
X0301944Y0286939D01*
X0314807Y0286525D02*
X0314807Y0285391D01*
X0315374Y0284824D01*
X0315941Y0284824D01*
X0316508Y0285391D01*
X0316508Y0286525D01*
X0317075Y0287092D01*
X0317643Y0287092D01*
X0318210Y0286525D01*
X0318210Y0285391D01*
X0317643Y0284824D01*
X0315374Y0287092D02*
X0314807Y0286525D01*
X0315941Y0288507D02*
X0314807Y0289641D01*
X0318210Y0289641D01*
X0318210Y0288507D02*
X0318210Y0290775D01*
X0312647Y0265980D02*
X0310378Y0265980D01*
X0309811Y0265413D01*
X0309811Y0264279D01*
X0310378Y0263711D01*
X0310945Y0263711D01*
X0311512Y0264279D01*
X0311512Y0265980D01*
X0312647Y0265980D02*
X0313214Y0265413D01*
X0313214Y0264279D01*
X0312647Y0263711D01*
X0313214Y0262297D02*
X0312079Y0261163D01*
X0312079Y0261730D02*
X0312079Y0260028D01*
X0313214Y0260028D02*
X0309811Y0260028D01*
X0309811Y0261730D01*
X0310378Y0262297D01*
X0311512Y0262297D01*
X0312079Y0261730D01*
X0268765Y0277595D02*
X0268198Y0277028D01*
X0267064Y0277028D01*
X0266497Y0277595D01*
X0266497Y0278163D01*
X0267064Y0278730D01*
X0268198Y0278730D01*
X0268765Y0278163D01*
X0268765Y0277595D01*
X0268198Y0278730D02*
X0268765Y0279297D01*
X0268765Y0279864D01*
X0268198Y0280431D01*
X0267064Y0280431D01*
X0266497Y0279864D01*
X0266497Y0279297D01*
X0267064Y0278730D01*
X0265082Y0279864D02*
X0264515Y0280431D01*
X0263381Y0280431D01*
X0262814Y0279864D01*
X0262814Y0277595D01*
X0263381Y0277028D01*
X0264515Y0277028D01*
X0265082Y0277595D01*
X0223103Y0241677D02*
X0223103Y0239408D01*
X0220835Y0241677D01*
X0220268Y0241677D01*
X0219701Y0241110D01*
X0219701Y0239975D01*
X0220268Y0239408D01*
X0220268Y0237994D02*
X0221402Y0237994D01*
X0221969Y0237427D01*
X0221969Y0235725D01*
X0221969Y0236859D02*
X0223103Y0237994D01*
X0223103Y0235725D02*
X0219701Y0235725D01*
X0219701Y0237427D01*
X0220268Y0237994D01*
X0220131Y0226931D02*
X0220131Y0223528D01*
X0218997Y0223528D02*
X0221265Y0223528D01*
X0222680Y0224095D02*
X0223247Y0223528D01*
X0224381Y0223528D01*
X0224949Y0224095D01*
X0224949Y0224663D01*
X0224381Y0225230D01*
X0223814Y0225230D01*
X0224381Y0225230D02*
X0224949Y0225797D01*
X0224949Y0226364D01*
X0224381Y0226931D01*
X0223247Y0226931D01*
X0222680Y0226364D01*
X0220131Y0226931D02*
X0218997Y0225797D01*
X0217582Y0226364D02*
X0217582Y0225230D01*
X0217015Y0224663D01*
X0215314Y0224663D01*
X0216448Y0224663D02*
X0217582Y0223528D01*
X0215314Y0223528D02*
X0215314Y0226931D01*
X0217015Y0226931D01*
X0217582Y0226364D01*
X0217966Y0220181D02*
X0218533Y0219614D01*
X0218533Y0218480D01*
X0217966Y0217913D01*
X0216264Y0217913D01*
X0217399Y0217913D02*
X0218533Y0216778D01*
X0219947Y0216778D02*
X0222216Y0216778D01*
X0221082Y0216778D02*
X0221082Y0220181D01*
X0219947Y0219047D01*
X0217966Y0220181D02*
X0216264Y0220181D01*
X0216264Y0216778D01*
X0223631Y0217345D02*
X0224198Y0216778D01*
X0225332Y0216778D01*
X0225899Y0217345D01*
X0225899Y0218480D01*
X0225332Y0219047D01*
X0224765Y0219047D01*
X0223631Y0218480D01*
X0223631Y0220181D01*
X0225899Y0220181D01*
X0234500Y0217342D02*
X0237903Y0217342D01*
X0237903Y0218476D02*
X0237903Y0216207D01*
X0235634Y0216207D02*
X0234500Y0217342D01*
X0234500Y0214793D02*
X0234500Y0212524D01*
X0234500Y0213659D02*
X0237903Y0213659D01*
X0237903Y0211110D02*
X0235634Y0211110D01*
X0234500Y0209975D01*
X0235634Y0208841D01*
X0237903Y0208841D01*
X0237336Y0207427D02*
X0237903Y0206859D01*
X0237903Y0205158D01*
X0234500Y0205158D01*
X0234500Y0206859D01*
X0235067Y0207427D01*
X0235634Y0207427D01*
X0236201Y0206859D01*
X0236201Y0205158D01*
X0236201Y0206859D02*
X0236768Y0207427D01*
X0237336Y0207427D01*
X0236201Y0208841D02*
X0236201Y0211110D01*
X0229449Y0196681D02*
X0228314Y0196114D01*
X0227180Y0194980D01*
X0228881Y0194980D01*
X0229449Y0194413D01*
X0229449Y0193845D01*
X0228881Y0193278D01*
X0227747Y0193278D01*
X0227180Y0193845D01*
X0227180Y0194980D01*
X0225765Y0193278D02*
X0223497Y0193278D01*
X0224631Y0193278D02*
X0224631Y0196681D01*
X0223497Y0195547D01*
X0222082Y0196114D02*
X0222082Y0194980D01*
X0221515Y0194413D01*
X0219814Y0194413D01*
X0220948Y0194413D02*
X0222082Y0193278D01*
X0219814Y0193278D02*
X0219814Y0196681D01*
X0221515Y0196681D01*
X0222082Y0196114D01*
X0215729Y0194840D02*
X0215729Y0192572D01*
X0215729Y0193706D02*
X0212327Y0193706D01*
X0213461Y0192572D01*
X0212894Y0191157D02*
X0212327Y0191157D01*
X0212894Y0191157D02*
X0214028Y0190023D01*
X0215729Y0190023D01*
X0214028Y0190023D02*
X0212894Y0188889D01*
X0212327Y0188889D01*
X0213540Y0186258D02*
X0212973Y0185691D01*
X0212973Y0183422D01*
X0213540Y0182855D01*
X0214675Y0182855D01*
X0215242Y0183422D01*
X0216656Y0183422D02*
X0217223Y0182855D01*
X0218358Y0182855D01*
X0218925Y0183422D01*
X0218925Y0183989D01*
X0218358Y0184557D01*
X0217791Y0184557D01*
X0218358Y0184557D02*
X0218925Y0185124D01*
X0218925Y0185691D01*
X0218358Y0186258D01*
X0217223Y0186258D01*
X0216656Y0185691D01*
X0215242Y0185691D02*
X0214675Y0186258D01*
X0213540Y0186258D01*
X0206994Y0185911D02*
X0206994Y0184730D01*
X0192033Y0184730D01*
X0192033Y0185911D01*
X0186687Y0184494D02*
X0184418Y0184494D01*
X0186119Y0186195D01*
X0186119Y0182792D01*
X0183003Y0183359D02*
X0182436Y0182792D01*
X0181302Y0182792D01*
X0180735Y0183359D01*
X0180735Y0185628D01*
X0181302Y0186195D01*
X0182436Y0186195D01*
X0183003Y0185628D01*
X0192033Y0193392D02*
X0192033Y0207565D01*
X0192033Y0215045D02*
X0192033Y0216226D01*
X0206994Y0216226D01*
X0206994Y0215045D01*
X0206994Y0207565D02*
X0206994Y0193392D01*
X0215980Y0179858D02*
X0215413Y0179291D01*
X0215413Y0178157D01*
X0215980Y0177589D01*
X0215980Y0176175D02*
X0215413Y0175608D01*
X0215413Y0174473D01*
X0215980Y0173906D01*
X0218249Y0173906D01*
X0218816Y0174473D01*
X0218816Y0175608D01*
X0218249Y0176175D01*
X0218816Y0177589D02*
X0216547Y0179858D01*
X0215980Y0179858D01*
X0218816Y0179858D02*
X0218816Y0177589D01*
X0220819Y0177589D02*
X0222520Y0177589D01*
X0221953Y0178724D01*
X0221953Y0179291D01*
X0222520Y0179858D01*
X0223654Y0179858D01*
X0224222Y0179291D01*
X0224222Y0178157D01*
X0223654Y0177589D01*
X0224222Y0176175D02*
X0223087Y0175041D01*
X0223087Y0175608D02*
X0223087Y0173906D01*
X0224222Y0173906D02*
X0220819Y0173906D01*
X0220819Y0175608D01*
X0221386Y0176175D01*
X0222520Y0176175D01*
X0223087Y0175608D01*
X0220819Y0177589D02*
X0220819Y0179858D01*
X0200124Y0167850D02*
X0200124Y0156827D01*
X0188903Y0156827D02*
X0188903Y0167850D01*
X0186966Y0167974D02*
X0186399Y0168541D01*
X0185265Y0168541D01*
X0184698Y0167974D01*
X0183283Y0168541D02*
X0183283Y0165706D01*
X0182716Y0165139D01*
X0181582Y0165139D01*
X0181014Y0165706D01*
X0181014Y0168541D01*
X0184698Y0165139D02*
X0186966Y0167407D01*
X0186966Y0167974D01*
X0186966Y0165139D02*
X0184698Y0165139D01*
X0172899Y0162864D02*
X0172899Y0162297D01*
X0172332Y0161730D01*
X0171198Y0161730D01*
X0170631Y0162297D01*
X0170631Y0162864D01*
X0171198Y0163431D01*
X0172332Y0163431D01*
X0172899Y0162864D01*
X0172332Y0161730D02*
X0172899Y0161163D01*
X0172899Y0160595D01*
X0172332Y0160028D01*
X0171198Y0160028D01*
X0170631Y0160595D01*
X0170631Y0161163D01*
X0171198Y0161730D01*
X0169216Y0161730D02*
X0168649Y0161163D01*
X0166947Y0161163D01*
X0166947Y0160028D02*
X0166947Y0163431D01*
X0168649Y0163431D01*
X0169216Y0162864D01*
X0169216Y0161730D01*
X0168082Y0161163D02*
X0169216Y0160028D01*
X0168147Y0172662D02*
X0168714Y0173229D01*
X0168714Y0174364D01*
X0168147Y0174931D01*
X0168147Y0176345D02*
X0168714Y0176912D01*
X0168714Y0178047D01*
X0168147Y0178614D01*
X0167012Y0178614D01*
X0166445Y0178047D01*
X0166445Y0177480D01*
X0167012Y0176345D01*
X0165311Y0176345D01*
X0165311Y0178614D01*
X0165878Y0174931D02*
X0165311Y0174364D01*
X0165311Y0173229D01*
X0165878Y0172662D01*
X0168147Y0172662D01*
X0169991Y0196241D02*
X0169991Y0199644D01*
X0171692Y0199644D01*
X0172259Y0199077D01*
X0172259Y0197942D01*
X0171692Y0197375D01*
X0169991Y0197375D01*
X0171125Y0197375D02*
X0172259Y0196241D01*
X0173674Y0196241D02*
X0173674Y0196808D01*
X0175943Y0199077D01*
X0175943Y0199644D01*
X0173674Y0199644D01*
X0171214Y0205028D02*
X0167811Y0205028D01*
X0167811Y0206730D01*
X0168378Y0207297D01*
X0169512Y0207297D01*
X0170079Y0206730D01*
X0170079Y0205028D01*
X0170079Y0206163D02*
X0171214Y0207297D01*
X0171214Y0208711D02*
X0171214Y0210980D01*
X0171214Y0209846D02*
X0167811Y0209846D01*
X0168945Y0208711D01*
X0187428Y0219406D02*
X0187428Y0222809D01*
X0189129Y0222809D01*
X0189696Y0222242D01*
X0189696Y0221108D01*
X0189129Y0220541D01*
X0187428Y0220541D01*
X0188562Y0220541D02*
X0189696Y0219406D01*
X0191111Y0219973D02*
X0191678Y0219406D01*
X0192812Y0219406D01*
X0193379Y0219973D01*
X0193379Y0220541D01*
X0192812Y0221108D01*
X0192245Y0221108D01*
X0192812Y0221108D02*
X0193379Y0221675D01*
X0193379Y0222242D01*
X0192812Y0222809D01*
X0191678Y0222809D01*
X0191111Y0222242D01*
X0191198Y0240028D02*
X0192332Y0240028D01*
X0192899Y0240595D01*
X0192899Y0241163D01*
X0192332Y0241730D01*
X0190631Y0241730D01*
X0190631Y0240595D01*
X0191198Y0240028D01*
X0190631Y0241730D02*
X0191765Y0242864D01*
X0192899Y0243431D01*
X0189216Y0242864D02*
X0189216Y0241730D01*
X0188649Y0241163D01*
X0186947Y0241163D01*
X0186947Y0240028D02*
X0186947Y0243431D01*
X0188649Y0243431D01*
X0189216Y0242864D01*
X0188082Y0241163D02*
X0189216Y0240028D01*
X0194814Y0250028D02*
X0194814Y0253431D01*
X0196515Y0253431D01*
X0197082Y0252864D01*
X0197082Y0251730D01*
X0196515Y0251163D01*
X0194814Y0251163D01*
X0195948Y0251163D02*
X0197082Y0250028D01*
X0198497Y0250028D02*
X0200765Y0250028D01*
X0199631Y0250028D02*
X0199631Y0253431D01*
X0198497Y0252297D01*
X0202180Y0251730D02*
X0204449Y0251730D01*
X0203881Y0253431D02*
X0203881Y0250028D01*
X0202180Y0251730D02*
X0203881Y0253431D01*
X0177265Y0253431D02*
X0176131Y0252864D01*
X0174997Y0251730D01*
X0176698Y0251730D01*
X0177265Y0251163D01*
X0177265Y0250595D01*
X0176698Y0250028D01*
X0175564Y0250028D01*
X0174997Y0250595D01*
X0174997Y0251730D01*
X0173582Y0252864D02*
X0173015Y0253431D01*
X0171881Y0253431D01*
X0171314Y0252864D01*
X0171314Y0250595D01*
X0171881Y0250028D01*
X0173015Y0250028D01*
X0173582Y0250595D01*
X0162049Y0253721D02*
X0159780Y0253721D01*
X0160915Y0253721D02*
X0160915Y0257124D01*
X0159780Y0255990D01*
X0158366Y0253721D02*
X0156097Y0253721D01*
X0156097Y0257124D01*
X0154683Y0256557D02*
X0154116Y0257124D01*
X0152414Y0257124D01*
X0152414Y0253721D01*
X0154116Y0253721D01*
X0154683Y0254288D01*
X0154683Y0256557D01*
X0151000Y0257124D02*
X0151000Y0253721D01*
X0148731Y0253721D02*
X0148731Y0257124D01*
X0149865Y0255990D01*
X0151000Y0257124D01*
X0144980Y0273800D02*
X0142711Y0273800D01*
X0143846Y0273800D02*
X0143846Y0277203D01*
X0142711Y0276069D01*
X0141297Y0276636D02*
X0141297Y0275501D01*
X0140730Y0274934D01*
X0139028Y0274934D01*
X0139028Y0273800D02*
X0139028Y0277203D01*
X0140730Y0277203D01*
X0141297Y0276636D01*
X0137614Y0276636D02*
X0137047Y0277203D01*
X0135912Y0277203D01*
X0135345Y0276636D01*
X0135345Y0276069D01*
X0135912Y0275501D01*
X0137047Y0275501D01*
X0137614Y0274934D01*
X0137614Y0274367D01*
X0137047Y0273800D01*
X0135912Y0273800D01*
X0135345Y0274367D01*
X0093014Y0294228D02*
X0093021Y0294817D01*
X0093043Y0295406D01*
X0093079Y0295994D01*
X0093130Y0296580D01*
X0093194Y0297166D01*
X0093274Y0297750D01*
X0093367Y0298331D01*
X0093475Y0298910D01*
X0093597Y0299486D01*
X0093733Y0300060D01*
X0093883Y0300629D01*
X0094047Y0301195D01*
X0094225Y0301756D01*
X0094417Y0302313D01*
X0094622Y0302865D01*
X0094841Y0303412D01*
X0095073Y0303954D01*
X0095318Y0304489D01*
X0095577Y0305019D01*
X0095848Y0305542D01*
X0096132Y0306058D01*
X0096429Y0306566D01*
X0096738Y0307068D01*
X0097059Y0307562D01*
X0097392Y0308047D01*
X0097737Y0308525D01*
X0098094Y0308994D01*
X0098462Y0309453D01*
X0098841Y0309904D01*
X0099231Y0310345D01*
X0099632Y0310777D01*
X0100043Y0311199D01*
X0100465Y0311610D01*
X0100897Y0312011D01*
X0101338Y0312401D01*
X0101789Y0312780D01*
X0102248Y0313148D01*
X0102717Y0313505D01*
X0103195Y0313850D01*
X0103680Y0314183D01*
X0104174Y0314504D01*
X0104676Y0314813D01*
X0105184Y0315110D01*
X0105700Y0315394D01*
X0106223Y0315665D01*
X0106753Y0315924D01*
X0107288Y0316169D01*
X0107830Y0316401D01*
X0108377Y0316620D01*
X0108929Y0316825D01*
X0109486Y0317017D01*
X0110047Y0317195D01*
X0110613Y0317359D01*
X0111182Y0317509D01*
X0111756Y0317645D01*
X0112332Y0317767D01*
X0112911Y0317875D01*
X0113492Y0317968D01*
X0114076Y0318048D01*
X0114662Y0318112D01*
X0115248Y0318163D01*
X0115836Y0318199D01*
X0116425Y0318221D01*
X0117014Y0318228D01*
X0117603Y0318221D01*
X0118192Y0318199D01*
X0118780Y0318163D01*
X0119366Y0318112D01*
X0119952Y0318048D01*
X0120536Y0317968D01*
X0121117Y0317875D01*
X0121696Y0317767D01*
X0122272Y0317645D01*
X0122846Y0317509D01*
X0123415Y0317359D01*
X0123981Y0317195D01*
X0124542Y0317017D01*
X0125099Y0316825D01*
X0125651Y0316620D01*
X0126198Y0316401D01*
X0126740Y0316169D01*
X0127275Y0315924D01*
X0127805Y0315665D01*
X0128328Y0315394D01*
X0128844Y0315110D01*
X0129352Y0314813D01*
X0129854Y0314504D01*
X0130348Y0314183D01*
X0130833Y0313850D01*
X0131311Y0313505D01*
X0131780Y0313148D01*
X0132239Y0312780D01*
X0132690Y0312401D01*
X0133131Y0312011D01*
X0133563Y0311610D01*
X0133985Y0311199D01*
X0134396Y0310777D01*
X0134797Y0310345D01*
X0135187Y0309904D01*
X0135566Y0309453D01*
X0135934Y0308994D01*
X0136291Y0308525D01*
X0136636Y0308047D01*
X0136969Y0307562D01*
X0137290Y0307068D01*
X0137599Y0306566D01*
X0137896Y0306058D01*
X0138180Y0305542D01*
X0138451Y0305019D01*
X0138710Y0304489D01*
X0138955Y0303954D01*
X0139187Y0303412D01*
X0139406Y0302865D01*
X0139611Y0302313D01*
X0139803Y0301756D01*
X0139981Y0301195D01*
X0140145Y0300629D01*
X0140295Y0300060D01*
X0140431Y0299486D01*
X0140553Y0298910D01*
X0140661Y0298331D01*
X0140754Y0297750D01*
X0140834Y0297166D01*
X0140898Y0296580D01*
X0140949Y0295994D01*
X0140985Y0295406D01*
X0141007Y0294817D01*
X0141014Y0294228D01*
X0141007Y0293639D01*
X0140985Y0293050D01*
X0140949Y0292462D01*
X0140898Y0291876D01*
X0140834Y0291290D01*
X0140754Y0290706D01*
X0140661Y0290125D01*
X0140553Y0289546D01*
X0140431Y0288970D01*
X0140295Y0288396D01*
X0140145Y0287827D01*
X0139981Y0287261D01*
X0139803Y0286700D01*
X0139611Y0286143D01*
X0139406Y0285591D01*
X0139187Y0285044D01*
X0138955Y0284502D01*
X0138710Y0283967D01*
X0138451Y0283437D01*
X0138180Y0282914D01*
X0137896Y0282398D01*
X0137599Y0281890D01*
X0137290Y0281388D01*
X0136969Y0280894D01*
X0136636Y0280409D01*
X0136291Y0279931D01*
X0135934Y0279462D01*
X0135566Y0279003D01*
X0135187Y0278552D01*
X0134797Y0278111D01*
X0134396Y0277679D01*
X0133985Y0277257D01*
X0133563Y0276846D01*
X0133131Y0276445D01*
X0132690Y0276055D01*
X0132239Y0275676D01*
X0131780Y0275308D01*
X0131311Y0274951D01*
X0130833Y0274606D01*
X0130348Y0274273D01*
X0129854Y0273952D01*
X0129352Y0273643D01*
X0128844Y0273346D01*
X0128328Y0273062D01*
X0127805Y0272791D01*
X0127275Y0272532D01*
X0126740Y0272287D01*
X0126198Y0272055D01*
X0125651Y0271836D01*
X0125099Y0271631D01*
X0124542Y0271439D01*
X0123981Y0271261D01*
X0123415Y0271097D01*
X0122846Y0270947D01*
X0122272Y0270811D01*
X0121696Y0270689D01*
X0121117Y0270581D01*
X0120536Y0270488D01*
X0119952Y0270408D01*
X0119366Y0270344D01*
X0118780Y0270293D01*
X0118192Y0270257D01*
X0117603Y0270235D01*
X0117014Y0270228D01*
X0116425Y0270235D01*
X0115836Y0270257D01*
X0115248Y0270293D01*
X0114662Y0270344D01*
X0114076Y0270408D01*
X0113492Y0270488D01*
X0112911Y0270581D01*
X0112332Y0270689D01*
X0111756Y0270811D01*
X0111182Y0270947D01*
X0110613Y0271097D01*
X0110047Y0271261D01*
X0109486Y0271439D01*
X0108929Y0271631D01*
X0108377Y0271836D01*
X0107830Y0272055D01*
X0107288Y0272287D01*
X0106753Y0272532D01*
X0106223Y0272791D01*
X0105700Y0273062D01*
X0105184Y0273346D01*
X0104676Y0273643D01*
X0104174Y0273952D01*
X0103680Y0274273D01*
X0103195Y0274606D01*
X0102717Y0274951D01*
X0102248Y0275308D01*
X0101789Y0275676D01*
X0101338Y0276055D01*
X0100897Y0276445D01*
X0100465Y0276846D01*
X0100043Y0277257D01*
X0099632Y0277679D01*
X0099231Y0278111D01*
X0098841Y0278552D01*
X0098462Y0279003D01*
X0098094Y0279462D01*
X0097737Y0279931D01*
X0097392Y0280409D01*
X0097059Y0280894D01*
X0096738Y0281388D01*
X0096429Y0281890D01*
X0096132Y0282398D01*
X0095848Y0282914D01*
X0095577Y0283437D01*
X0095318Y0283967D01*
X0095073Y0284502D01*
X0094841Y0285044D01*
X0094622Y0285591D01*
X0094417Y0286143D01*
X0094225Y0286700D01*
X0094047Y0287261D01*
X0093883Y0287827D01*
X0093733Y0288396D01*
X0093597Y0288970D01*
X0093475Y0289546D01*
X0093367Y0290125D01*
X0093274Y0290706D01*
X0093194Y0291290D01*
X0093130Y0291876D01*
X0093079Y0292462D01*
X0093043Y0293050D01*
X0093021Y0293639D01*
X0093014Y0294228D01*
X0079627Y0302320D02*
X0079627Y0303454D01*
X0079060Y0304021D01*
X0079627Y0305436D02*
X0079627Y0307705D01*
X0079627Y0306570D02*
X0076224Y0306570D01*
X0077358Y0305436D01*
X0076791Y0304021D02*
X0076224Y0303454D01*
X0076224Y0302320D01*
X0076791Y0301753D01*
X0079060Y0301753D01*
X0079627Y0302320D01*
X0079060Y0309119D02*
X0076791Y0311388D01*
X0079060Y0311388D01*
X0079627Y0310820D01*
X0079627Y0309686D01*
X0079060Y0309119D01*
X0076791Y0309119D01*
X0076224Y0309686D01*
X0076224Y0310820D01*
X0076791Y0311388D01*
X0055285Y0311202D02*
X0053017Y0311202D01*
X0054151Y0311202D02*
X0054151Y0314604D01*
X0053017Y0313470D01*
X0051602Y0311202D02*
X0049333Y0311202D01*
X0050468Y0311202D02*
X0050468Y0314604D01*
X0049333Y0313470D01*
X0047919Y0314037D02*
X0047352Y0314604D01*
X0046217Y0314604D01*
X0045650Y0314037D01*
X0045650Y0311769D01*
X0046217Y0311202D01*
X0047352Y0311202D01*
X0047919Y0311769D01*
X0072430Y0334544D02*
X0072997Y0335111D01*
X0072997Y0335678D01*
X0072430Y0336245D01*
X0069594Y0336245D01*
X0069594Y0335678D02*
X0069594Y0336813D01*
X0071296Y0338227D02*
X0071296Y0340496D01*
X0072997Y0339929D02*
X0069594Y0339929D01*
X0071296Y0338227D01*
X0135319Y0316904D02*
X0135319Y0313501D01*
X0135319Y0314635D02*
X0137021Y0314635D01*
X0137588Y0315202D01*
X0137588Y0316337D01*
X0137021Y0316904D01*
X0135319Y0316904D01*
X0136454Y0314635D02*
X0137588Y0313501D01*
X0139003Y0313501D02*
X0141271Y0313501D01*
X0140137Y0313501D02*
X0140137Y0316904D01*
X0139003Y0315769D01*
X0142686Y0315769D02*
X0143820Y0316904D01*
X0143820Y0313501D01*
X0142686Y0313501D02*
X0144954Y0313501D01*
X0143773Y0333186D02*
X0141505Y0333186D01*
X0142639Y0333186D02*
X0142639Y0336589D01*
X0141505Y0335454D01*
X0140090Y0336022D02*
X0140090Y0333753D01*
X0139523Y0333186D01*
X0138389Y0333186D01*
X0137821Y0333753D01*
X0137821Y0336022D01*
X0138389Y0336589D01*
X0139523Y0336589D01*
X0140090Y0336022D01*
X0138956Y0334320D02*
X0140090Y0333186D01*
X0092914Y0281839D02*
X0092914Y0279570D01*
X0092914Y0280705D02*
X0089511Y0280705D01*
X0090645Y0279570D01*
X0090645Y0278156D02*
X0092914Y0278156D01*
X0091212Y0278156D02*
X0091212Y0275887D01*
X0090645Y0275887D02*
X0092914Y0275887D01*
X0090645Y0275887D02*
X0089511Y0277022D01*
X0090645Y0278156D01*
X0095014Y0272681D02*
X0096716Y0272681D01*
X0097283Y0272114D01*
X0097283Y0270980D01*
X0096716Y0270413D01*
X0095014Y0270413D01*
X0096149Y0270413D02*
X0097283Y0269278D01*
X0098697Y0269278D02*
X0100966Y0269278D01*
X0099832Y0269278D02*
X0099832Y0272681D01*
X0098697Y0271547D01*
X0102381Y0272114D02*
X0102948Y0272681D01*
X0104082Y0272681D01*
X0104649Y0272114D01*
X0104649Y0271547D01*
X0102381Y0269278D01*
X0104649Y0269278D01*
X0095014Y0269278D02*
X0095014Y0272681D01*
X0066949Y0279028D02*
X0064680Y0279028D01*
X0066949Y0281297D01*
X0066949Y0281864D01*
X0066381Y0282431D01*
X0065247Y0282431D01*
X0064680Y0281864D01*
X0062131Y0282431D02*
X0062131Y0279028D01*
X0060997Y0279028D02*
X0063265Y0279028D01*
X0060997Y0281297D02*
X0062131Y0282431D01*
X0059582Y0281864D02*
X0059015Y0282431D01*
X0057881Y0282431D01*
X0057314Y0281864D01*
X0057314Y0279595D01*
X0057881Y0279028D01*
X0059015Y0279028D01*
X0059582Y0279595D01*
X0049285Y0279943D02*
X0048718Y0279375D01*
X0049285Y0278808D01*
X0049285Y0278241D01*
X0048718Y0277674D01*
X0047584Y0277674D01*
X0047016Y0278241D01*
X0045602Y0277674D02*
X0043333Y0277674D01*
X0044468Y0277674D02*
X0044468Y0281077D01*
X0043333Y0279943D01*
X0041919Y0280510D02*
X0041352Y0281077D01*
X0040217Y0281077D01*
X0039650Y0280510D01*
X0039650Y0278241D01*
X0040217Y0277674D01*
X0041352Y0277674D01*
X0041919Y0278241D01*
X0047016Y0280510D02*
X0047584Y0281077D01*
X0048718Y0281077D01*
X0049285Y0280510D01*
X0049285Y0279943D01*
X0048718Y0279375D02*
X0048151Y0279375D01*
X0053501Y0267160D02*
X0053501Y0264324D01*
X0054068Y0263757D01*
X0055202Y0263757D01*
X0055769Y0264324D01*
X0055769Y0267160D01*
X0057184Y0267160D02*
X0057184Y0265458D01*
X0058318Y0266025D01*
X0058885Y0266025D01*
X0059452Y0265458D01*
X0059452Y0264324D01*
X0058885Y0263757D01*
X0057751Y0263757D01*
X0057184Y0264324D01*
X0057184Y0267160D02*
X0059452Y0267160D01*
X0064940Y0222416D02*
X0066074Y0222416D01*
X0065507Y0222416D02*
X0065507Y0219580D01*
X0064940Y0219013D01*
X0064373Y0219013D01*
X0063806Y0219580D01*
X0067489Y0219013D02*
X0069757Y0219013D01*
X0068623Y0219013D02*
X0068623Y0222416D01*
X0067489Y0221281D01*
X0088886Y0214338D02*
X0090587Y0212637D01*
X0090587Y0214905D01*
X0092288Y0214338D02*
X0088886Y0214338D01*
X0089453Y0211222D02*
X0090587Y0211222D01*
X0091154Y0210655D01*
X0091154Y0208953D01*
X0092288Y0208953D02*
X0088886Y0208953D01*
X0088886Y0210655D01*
X0089453Y0211222D01*
X0091154Y0210088D02*
X0092288Y0211222D01*
X0092526Y0207752D02*
X0090951Y0202240D01*
X0090951Y0196335D01*
X0087614Y0189428D02*
X0086414Y0189428D01*
X0082614Y0187628D02*
X0082614Y0185828D01*
X0084314Y0178431D02*
X0084314Y0175595D01*
X0084881Y0175028D01*
X0086015Y0175028D01*
X0086582Y0175595D01*
X0086582Y0178431D01*
X0087997Y0177297D02*
X0089131Y0178431D01*
X0089131Y0175028D01*
X0087997Y0175028D02*
X0090265Y0175028D01*
X0088767Y0167240D02*
X0088767Y0163837D01*
X0087633Y0163837D02*
X0089901Y0163837D01*
X0091316Y0164405D02*
X0091883Y0163837D01*
X0093017Y0163837D01*
X0093584Y0164405D01*
X0093584Y0164972D01*
X0093017Y0165539D01*
X0091316Y0165539D01*
X0091316Y0164405D01*
X0091316Y0165539D02*
X0092450Y0166673D01*
X0093584Y0167240D01*
X0088767Y0167240D02*
X0087633Y0166106D01*
X0086218Y0165539D02*
X0083950Y0165539D01*
X0082535Y0166673D02*
X0080266Y0164405D01*
X0080266Y0163837D01*
X0078852Y0164405D02*
X0078285Y0163837D01*
X0077150Y0163837D01*
X0076583Y0164405D01*
X0078852Y0166673D01*
X0078852Y0164405D01*
X0078852Y0166673D02*
X0078285Y0167240D01*
X0077150Y0167240D01*
X0076583Y0166673D01*
X0076583Y0164405D01*
X0075169Y0165539D02*
X0072900Y0165539D01*
X0071486Y0166673D02*
X0069217Y0164405D01*
X0069784Y0163837D01*
X0070918Y0163837D01*
X0071486Y0164405D01*
X0071486Y0166673D01*
X0070918Y0167240D01*
X0069784Y0167240D01*
X0069217Y0166673D01*
X0069217Y0164405D01*
X0067802Y0163837D02*
X0065534Y0163837D01*
X0067802Y0166106D01*
X0067802Y0166673D01*
X0067235Y0167240D01*
X0066101Y0167240D01*
X0065534Y0166673D01*
X0064097Y0174467D02*
X0062963Y0174467D01*
X0062396Y0175034D01*
X0060981Y0175602D02*
X0060981Y0177870D01*
X0062396Y0177303D02*
X0062963Y0177870D01*
X0064097Y0177870D01*
X0064664Y0177303D01*
X0064664Y0176736D01*
X0064097Y0176169D01*
X0064664Y0175602D01*
X0064664Y0175034D01*
X0064097Y0174467D01*
X0064097Y0176169D02*
X0063530Y0176169D01*
X0060981Y0175602D02*
X0059847Y0174467D01*
X0058713Y0175602D01*
X0058713Y0177870D01*
X0053615Y0176736D02*
X0053615Y0173900D01*
X0053048Y0173333D01*
X0052481Y0173333D01*
X0051913Y0174467D02*
X0053615Y0174467D01*
X0051913Y0174467D02*
X0051346Y0175034D01*
X0051346Y0176736D01*
X0049978Y0176736D02*
X0048277Y0175602D01*
X0049978Y0174467D01*
X0048277Y0174467D02*
X0048277Y0177870D01*
X0046862Y0176169D02*
X0046295Y0176736D01*
X0045161Y0176736D01*
X0044594Y0176169D01*
X0044594Y0175034D01*
X0045161Y0174467D01*
X0046295Y0174467D01*
X0046862Y0175034D01*
X0046862Y0176169D01*
X0043179Y0176169D02*
X0040911Y0176169D01*
X0040911Y0177870D02*
X0040911Y0174467D01*
X0043179Y0174467D02*
X0043179Y0177870D01*
X0073314Y0177864D02*
X0073314Y0175595D01*
X0073881Y0175028D01*
X0075015Y0175028D01*
X0075582Y0175595D01*
X0076997Y0175028D02*
X0079265Y0175028D01*
X0078131Y0175028D02*
X0078131Y0178431D01*
X0076997Y0177297D01*
X0075582Y0177864D02*
X0075015Y0178431D01*
X0073881Y0178431D01*
X0073314Y0177864D01*
X0080266Y0167240D02*
X0082535Y0167240D01*
X0082535Y0166673D01*
X0091414Y0185828D02*
X0091414Y0187628D01*
X0219203Y0151764D02*
X0219203Y0149495D01*
X0219771Y0148928D01*
X0220905Y0148928D01*
X0221472Y0149495D01*
X0222887Y0149495D02*
X0222887Y0148928D01*
X0222887Y0149495D02*
X0225155Y0151764D01*
X0225155Y0152331D01*
X0222887Y0152331D01*
X0221472Y0151764D02*
X0220905Y0152331D01*
X0219771Y0152331D01*
X0219203Y0151764D01*
X0231802Y0160020D02*
X0233503Y0160020D01*
X0234070Y0160588D01*
X0234070Y0162856D01*
X0233503Y0163423D01*
X0231802Y0163423D01*
X0231802Y0160020D01*
X0235485Y0160020D02*
X0237754Y0160020D01*
X0236619Y0160020D02*
X0236619Y0163423D01*
X0235485Y0162289D01*
X0216918Y0334544D02*
X0217485Y0335111D01*
X0217485Y0335678D01*
X0216918Y0336245D01*
X0214082Y0336245D01*
X0214082Y0335678D02*
X0214082Y0336813D01*
X0214650Y0338227D02*
X0214082Y0338794D01*
X0214082Y0339929D01*
X0214650Y0340496D01*
X0215217Y0340496D01*
X0217485Y0338227D01*
X0217485Y0340496D01*
X0315657Y0339929D02*
X0316224Y0340496D01*
X0316792Y0340496D01*
X0317359Y0339929D01*
X0317926Y0340496D01*
X0318493Y0340496D01*
X0319060Y0339929D01*
X0319060Y0338794D01*
X0318493Y0338227D01*
X0317359Y0339361D02*
X0317359Y0339929D01*
X0315657Y0339929D02*
X0315657Y0338794D01*
X0316224Y0338227D01*
X0315657Y0336813D02*
X0315657Y0335678D01*
X0315657Y0336245D02*
X0318493Y0336245D01*
X0319060Y0335678D01*
X0319060Y0335111D01*
X0318493Y0334544D01*
D12*
X0079519Y0155656D03*
D13*
X0233864Y0327831D02*
X0237801Y0331768D01*
X0233864Y0335705D01*
X0237801Y0331768D02*
X0224022Y0331768D01*
D14*
X0135026Y0331472D02*
X0135026Y0334622D01*
X0135026Y0331472D02*
X0132663Y0331472D01*
X0126364Y0331472D02*
X0124002Y0331472D01*
X0124002Y0334622D01*
X0084514Y0285154D02*
X0087014Y0282654D01*
X0087014Y0277654D01*
X0084514Y0275154D01*
X0087014Y0272654D01*
X0087014Y0267654D01*
X0084514Y0265154D01*
X0087014Y0262654D01*
X0087014Y0257654D01*
X0084514Y0255154D01*
X0087014Y0252654D01*
X0087014Y0247654D01*
X0084514Y0245154D01*
X0087014Y0242654D01*
X0087014Y0237654D01*
X0084514Y0235154D01*
X0087014Y0232654D01*
X0087014Y0227654D01*
X0084514Y0225154D01*
X0087014Y0222654D01*
X0087014Y0217654D01*
X0084514Y0215154D01*
X0087014Y0212654D01*
X0087014Y0207654D01*
X0084514Y0205154D01*
X0079514Y0205154D01*
X0077014Y0207654D01*
X0077014Y0212654D01*
X0079514Y0215154D01*
X0077014Y0217654D01*
X0077014Y0222654D01*
X0079514Y0225154D01*
X0077014Y0227654D01*
X0077014Y0232654D01*
X0079514Y0235154D01*
X0077014Y0237654D01*
X0077014Y0242654D01*
X0079514Y0245154D01*
X0077014Y0247654D01*
X0077014Y0252654D01*
X0079514Y0255154D01*
X0077014Y0257654D01*
X0077014Y0262654D01*
X0079514Y0265154D01*
X0077014Y0267654D01*
X0077014Y0272654D01*
X0079514Y0275154D01*
X0077014Y0277654D01*
X0077014Y0282654D01*
X0079514Y0285154D01*
X0084514Y0285154D01*
X0069914Y0250728D02*
X0044114Y0250728D01*
X0044114Y0237728D01*
X0069914Y0237728D01*
X0069914Y0250728D01*
X0240675Y0214169D02*
X0240675Y0203539D01*
X0240675Y0214169D02*
X0267447Y0230705D01*
X0296581Y0230705D01*
X0323352Y0214169D01*
X0323352Y0203539D01*
X0337014Y0204228D02*
X0337014Y0199228D01*
X0339514Y0196728D01*
X0337014Y0194228D01*
X0337014Y0189228D01*
X0339514Y0186728D01*
X0344514Y0186728D01*
X0347014Y0189228D01*
X0347014Y0194228D01*
X0344514Y0196728D01*
X0347014Y0199228D01*
X0347014Y0204228D01*
X0344514Y0206728D01*
X0347014Y0209228D01*
X0347014Y0214228D01*
X0344514Y0216728D01*
X0347014Y0219228D01*
X0347014Y0224228D01*
X0344514Y0226728D01*
X0347014Y0229228D01*
X0347014Y0234228D01*
X0344514Y0236728D01*
X0347014Y0239228D01*
X0347014Y0244228D01*
X0344514Y0246728D01*
X0347014Y0249228D01*
X0347014Y0254228D01*
X0344514Y0256728D01*
X0347014Y0259228D01*
X0347014Y0264228D01*
X0344514Y0266728D01*
X0339514Y0266728D01*
X0337014Y0264228D01*
X0337014Y0259228D01*
X0339514Y0256728D01*
X0337014Y0254228D01*
X0337014Y0249228D01*
X0339514Y0246728D01*
X0337014Y0244228D01*
X0337014Y0239228D01*
X0339514Y0236728D01*
X0337014Y0234228D01*
X0337014Y0229228D01*
X0339514Y0226728D01*
X0337014Y0224228D01*
X0337014Y0219228D01*
X0339514Y0216728D01*
X0337014Y0214228D01*
X0337014Y0209228D01*
X0339514Y0206728D01*
X0337014Y0204228D01*
X0323352Y0179917D02*
X0323352Y0170862D01*
X0323353Y0170862D02*
X0323353Y0170578D01*
X0323347Y0170293D01*
X0323334Y0170008D01*
X0323314Y0169724D01*
X0323287Y0169441D01*
X0323253Y0169158D01*
X0323213Y0168876D01*
X0323165Y0168596D01*
X0323111Y0168316D01*
X0323050Y0168038D01*
X0322982Y0167761D01*
X0322907Y0167487D01*
X0322826Y0167214D01*
X0322738Y0166943D01*
X0322643Y0166674D01*
X0322542Y0166408D01*
X0322434Y0166144D01*
X0322320Y0165883D01*
X0322200Y0165625D01*
X0322074Y0165370D01*
X0321941Y0165118D01*
X0321802Y0164869D01*
X0321657Y0164624D01*
X0321507Y0164383D01*
X0321350Y0164145D01*
X0321188Y0163911D01*
X0321020Y0163681D01*
X0320846Y0163455D01*
X0320667Y0163234D01*
X0320483Y0163017D01*
X0320293Y0162804D01*
X0320099Y0162596D01*
X0319899Y0162393D01*
X0319695Y0162195D01*
X0319485Y0162002D01*
X0319271Y0161814D01*
X0319053Y0161632D01*
X0318830Y0161454D01*
X0318603Y0161283D01*
X0318371Y0161116D01*
X0318136Y0160956D01*
X0317897Y0160801D01*
X0317654Y0160652D01*
X0317408Y0160509D01*
X0317158Y0160373D01*
X0316905Y0160242D01*
X0316649Y0160117D01*
X0316390Y0159999D01*
X0316128Y0159887D01*
X0315864Y0159782D01*
X0315597Y0159683D01*
X0315327Y0159590D01*
X0315056Y0159505D01*
X0314782Y0159425D01*
X0314507Y0159353D01*
X0314230Y0159287D01*
X0313951Y0159228D01*
X0313671Y0159176D01*
X0313390Y0159130D01*
X0313108Y0159092D01*
X0312825Y0159060D01*
X0312541Y0159036D01*
X0312257Y0159018D01*
X0311973Y0159007D01*
X0311688Y0159003D01*
X0311403Y0159006D01*
X0311118Y0159016D01*
X0310834Y0159033D01*
X0310550Y0159057D01*
X0310267Y0159087D01*
X0309985Y0159125D01*
X0309704Y0159169D01*
X0309424Y0159221D01*
X0309145Y0159279D01*
X0308868Y0159344D01*
X0308592Y0159415D01*
X0308318Y0159494D01*
X0308046Y0159579D01*
X0307777Y0159670D01*
X0307509Y0159768D01*
X0307245Y0159873D01*
X0306982Y0159984D01*
X0306723Y0160101D01*
X0306466Y0160225D01*
X0306213Y0160355D01*
X0305963Y0160491D01*
X0305716Y0160633D01*
X0305473Y0160781D01*
X0305233Y0160935D01*
X0304997Y0161095D01*
X0304766Y0161260D01*
X0304538Y0161431D01*
X0304314Y0161608D01*
X0304095Y0161790D01*
X0303881Y0161977D01*
X0303671Y0162169D01*
X0303466Y0162367D01*
X0303265Y0162569D01*
X0303070Y0162776D01*
X0302880Y0162988D01*
X0302880Y0162989D02*
X0302388Y0163494D01*
X0301884Y0163987D01*
X0301368Y0164468D01*
X0300840Y0164936D01*
X0300301Y0165391D01*
X0299751Y0165833D01*
X0299190Y0166260D01*
X0298619Y0166675D01*
X0298039Y0167075D01*
X0297448Y0167460D01*
X0296848Y0167831D01*
X0296240Y0168188D01*
X0295622Y0168529D01*
X0294997Y0168855D01*
X0294364Y0169165D01*
X0293723Y0169461D01*
X0293075Y0169740D01*
X0292421Y0170003D01*
X0291761Y0170250D01*
X0291094Y0170481D01*
X0290422Y0170696D01*
X0289745Y0170894D01*
X0289064Y0171075D01*
X0288378Y0171240D01*
X0287688Y0171388D01*
X0286995Y0171518D01*
X0286299Y0171632D01*
X0285601Y0171729D01*
X0284900Y0171809D01*
X0284197Y0171871D01*
X0283494Y0171916D01*
X0282789Y0171944D01*
X0282084Y0171955D01*
X0281378Y0171948D01*
X0280673Y0171924D01*
X0279969Y0171883D01*
X0279266Y0171825D01*
X0278565Y0171749D01*
X0277866Y0171657D01*
X0277169Y0171547D01*
X0276476Y0171420D01*
X0275785Y0171276D01*
X0275098Y0171116D01*
X0274416Y0170938D01*
X0273738Y0170744D01*
X0273065Y0170533D01*
X0272397Y0170306D01*
X0271735Y0170063D01*
X0271079Y0169804D01*
X0270430Y0169528D01*
X0269787Y0169237D01*
X0269152Y0168930D01*
X0268525Y0168607D01*
X0267906Y0168270D01*
X0267295Y0167917D01*
X0266693Y0167549D01*
X0266101Y0167167D01*
X0265517Y0166771D01*
X0264944Y0166360D01*
X0264381Y0165935D01*
X0263828Y0165497D01*
X0263287Y0165045D01*
X0262756Y0164580D01*
X0262238Y0164102D01*
X0261731Y0163612D01*
X0261236Y0163109D01*
X0260753Y0162595D01*
X0261147Y0162988D02*
X0260950Y0162779D01*
X0260748Y0162574D01*
X0260541Y0162374D01*
X0260329Y0162180D01*
X0260113Y0161990D01*
X0259892Y0161806D01*
X0259666Y0161628D01*
X0259436Y0161455D01*
X0259203Y0161288D01*
X0258965Y0161126D01*
X0258723Y0160970D01*
X0258477Y0160821D01*
X0258228Y0160677D01*
X0257976Y0160539D01*
X0257720Y0160408D01*
X0257461Y0160283D01*
X0257199Y0160164D01*
X0256934Y0160051D01*
X0256667Y0159946D01*
X0256397Y0159846D01*
X0256125Y0159754D01*
X0255851Y0159668D01*
X0255574Y0159588D01*
X0255296Y0159516D01*
X0255016Y0159450D01*
X0254734Y0159391D01*
X0254451Y0159339D01*
X0254167Y0159294D01*
X0253882Y0159256D01*
X0253597Y0159225D01*
X0253310Y0159201D01*
X0253023Y0159183D01*
X0252736Y0159173D01*
X0252448Y0159170D01*
X0252160Y0159174D01*
X0251873Y0159185D01*
X0251586Y0159203D01*
X0251299Y0159227D01*
X0251014Y0159259D01*
X0250729Y0159298D01*
X0250445Y0159344D01*
X0250162Y0159397D01*
X0249881Y0159456D01*
X0249601Y0159523D01*
X0249323Y0159596D01*
X0249047Y0159676D01*
X0248772Y0159762D01*
X0248500Y0159856D01*
X0248231Y0159956D01*
X0247964Y0160062D01*
X0247699Y0160175D01*
X0247438Y0160295D01*
X0247179Y0160420D01*
X0246923Y0160552D01*
X0246671Y0160691D01*
X0246422Y0160835D01*
X0246177Y0160985D01*
X0245936Y0161142D01*
X0245698Y0161304D01*
X0245465Y0161472D01*
X0245236Y0161645D01*
X0245011Y0161824D01*
X0244790Y0162009D01*
X0244574Y0162198D01*
X0244363Y0162394D01*
X0244156Y0162594D01*
X0243955Y0162799D01*
X0243758Y0163009D01*
X0243567Y0163223D01*
X0243381Y0163443D01*
X0243200Y0163667D01*
X0243025Y0163895D01*
X0242855Y0164127D01*
X0242692Y0164363D01*
X0242534Y0164604D01*
X0242382Y0164848D01*
X0242236Y0165096D01*
X0242096Y0165347D01*
X0241962Y0165601D01*
X0241834Y0165859D01*
X0241713Y0166120D01*
X0241598Y0166384D01*
X0241490Y0166650D01*
X0241388Y0166919D01*
X0241293Y0167190D01*
X0241204Y0167464D01*
X0241123Y0167740D01*
X0241047Y0168017D01*
X0240979Y0168297D01*
X0240918Y0168577D01*
X0240863Y0168860D01*
X0240815Y0169143D01*
X0240775Y0169428D01*
X0240741Y0169714D01*
X0240714Y0170000D01*
X0240694Y0170287D01*
X0240681Y0170574D01*
X0240675Y0170862D01*
X0240675Y0179917D01*
D15*
X0140994Y0198188D02*
X0137925Y0198188D01*
X0137925Y0202792D01*
X0140994Y0202792D01*
X0139459Y0200490D02*
X0137925Y0200490D01*
X0136390Y0201257D02*
X0136390Y0202025D01*
X0135623Y0202792D01*
X0134088Y0202792D01*
X0133321Y0202025D01*
X0136390Y0201257D02*
X0133321Y0198188D01*
X0136390Y0198188D01*
X0131786Y0198188D02*
X0128717Y0198188D01*
X0130251Y0198188D02*
X0130251Y0202792D01*
X0128717Y0201257D01*
X0127182Y0200490D02*
X0124113Y0200490D01*
X0122578Y0200490D02*
X0121811Y0199723D01*
X0119509Y0199723D01*
X0117974Y0199723D02*
X0117974Y0198955D01*
X0117207Y0198188D01*
X0115672Y0198188D01*
X0114905Y0198955D01*
X0113370Y0198188D02*
X0110301Y0198188D01*
X0110301Y0202792D01*
X0113370Y0202792D01*
X0114905Y0202025D02*
X0114905Y0201257D01*
X0115672Y0200490D01*
X0117207Y0200490D01*
X0117974Y0199723D01*
X0119509Y0198188D02*
X0119509Y0202792D01*
X0121811Y0202792D01*
X0122578Y0202025D01*
X0122578Y0200490D01*
X0117974Y0202025D02*
X0117207Y0202792D01*
X0115672Y0202792D01*
X0114905Y0202025D01*
X0111836Y0200490D02*
X0110301Y0200490D01*
X0067909Y0283933D02*
X0045468Y0283933D01*
X0045468Y0293972D01*
X0045468Y0299878D02*
X0045468Y0309524D01*
X0067909Y0309524D01*
X0071059Y0306374D01*
X0069976Y0300074D02*
X0069891Y0300360D01*
X0069800Y0300643D01*
X0069701Y0300924D01*
X0069596Y0301202D01*
X0069484Y0301478D01*
X0069365Y0301751D01*
X0069239Y0302021D01*
X0069107Y0302287D01*
X0068969Y0302551D01*
X0068824Y0302811D01*
X0068672Y0303067D01*
X0068515Y0303320D01*
X0068351Y0303568D01*
X0068182Y0303813D01*
X0068006Y0304053D01*
X0067825Y0304289D01*
X0067638Y0304521D01*
X0067445Y0304748D01*
X0067247Y0304970D01*
X0067044Y0305187D01*
X0066835Y0305399D01*
X0066621Y0305606D01*
X0066402Y0305808D01*
X0066179Y0306004D01*
X0065950Y0306195D01*
X0065717Y0306380D01*
X0065480Y0306560D01*
X0065238Y0306733D01*
X0064992Y0306901D01*
X0064742Y0307062D01*
X0064488Y0307218D01*
X0064230Y0307367D01*
X0063969Y0307510D01*
X0063705Y0307646D01*
X0063437Y0307776D01*
X0063166Y0307899D01*
X0062892Y0308016D01*
X0062616Y0308126D01*
X0062336Y0308229D01*
X0062055Y0308325D01*
X0061771Y0308414D01*
X0061485Y0308497D01*
X0061197Y0308572D01*
X0060907Y0308641D01*
X0060616Y0308702D01*
X0060323Y0308756D01*
X0060029Y0308803D01*
X0059734Y0308843D01*
X0059439Y0308875D01*
X0059142Y0308901D01*
X0058845Y0308919D01*
X0058547Y0308929D01*
X0058250Y0308933D01*
X0057952Y0308929D01*
X0057655Y0308918D01*
X0057358Y0308900D01*
X0057061Y0308874D01*
X0056765Y0308842D01*
X0056470Y0308802D01*
X0056177Y0308755D01*
X0055884Y0308700D01*
X0055593Y0308639D01*
X0055303Y0308570D01*
X0055015Y0308495D01*
X0054729Y0308412D01*
X0054445Y0308323D01*
X0054164Y0308226D01*
X0053885Y0308123D01*
X0053608Y0308013D01*
X0053334Y0307896D01*
X0053064Y0307772D01*
X0052796Y0307642D01*
X0052531Y0307506D01*
X0052270Y0307363D01*
X0052013Y0307213D01*
X0051759Y0307058D01*
X0051509Y0306896D01*
X0051264Y0306728D01*
X0051022Y0306555D01*
X0050784Y0306375D01*
X0050552Y0306190D01*
X0050323Y0305999D01*
X0050100Y0305802D01*
X0049881Y0305600D01*
X0049667Y0305393D01*
X0049459Y0305181D01*
X0049255Y0304964D01*
X0049057Y0304741D01*
X0048865Y0304514D01*
X0048678Y0304283D01*
X0048497Y0304047D01*
X0048321Y0303806D01*
X0048152Y0303561D01*
X0047989Y0303313D01*
X0047831Y0303060D01*
X0047680Y0302804D01*
X0047535Y0302543D01*
X0047397Y0302280D01*
X0047265Y0302013D01*
X0047140Y0301743D01*
X0047021Y0301470D01*
X0046909Y0301194D01*
X0046804Y0300916D01*
X0046706Y0300635D01*
X0046614Y0300352D01*
X0046530Y0300067D01*
X0046452Y0299779D01*
X0046551Y0293382D02*
X0046636Y0293096D01*
X0046727Y0292813D01*
X0046826Y0292532D01*
X0046931Y0292254D01*
X0047043Y0291978D01*
X0047162Y0291705D01*
X0047288Y0291435D01*
X0047420Y0291169D01*
X0047558Y0290905D01*
X0047703Y0290645D01*
X0047855Y0290389D01*
X0048012Y0290136D01*
X0048176Y0289888D01*
X0048345Y0289643D01*
X0048521Y0289403D01*
X0048702Y0289167D01*
X0048889Y0288935D01*
X0049082Y0288708D01*
X0049280Y0288486D01*
X0049483Y0288269D01*
X0049692Y0288057D01*
X0049906Y0287850D01*
X0050125Y0287648D01*
X0050348Y0287452D01*
X0050577Y0287261D01*
X0050810Y0287076D01*
X0051047Y0286896D01*
X0051289Y0286723D01*
X0051535Y0286555D01*
X0051785Y0286394D01*
X0052039Y0286238D01*
X0052297Y0286089D01*
X0052558Y0285946D01*
X0052822Y0285810D01*
X0053090Y0285680D01*
X0053361Y0285557D01*
X0053635Y0285440D01*
X0053911Y0285330D01*
X0054191Y0285227D01*
X0054472Y0285131D01*
X0054756Y0285042D01*
X0055042Y0284959D01*
X0055330Y0284884D01*
X0055620Y0284815D01*
X0055911Y0284754D01*
X0056204Y0284700D01*
X0056498Y0284653D01*
X0056793Y0284613D01*
X0057088Y0284581D01*
X0057385Y0284555D01*
X0057682Y0284537D01*
X0057980Y0284527D01*
X0058277Y0284523D01*
X0058575Y0284527D01*
X0058872Y0284538D01*
X0059169Y0284556D01*
X0059466Y0284582D01*
X0059762Y0284614D01*
X0060057Y0284654D01*
X0060350Y0284701D01*
X0060643Y0284756D01*
X0060934Y0284817D01*
X0061224Y0284886D01*
X0061512Y0284961D01*
X0061798Y0285044D01*
X0062082Y0285133D01*
X0062363Y0285230D01*
X0062642Y0285333D01*
X0062919Y0285443D01*
X0063193Y0285560D01*
X0063463Y0285684D01*
X0063731Y0285814D01*
X0063996Y0285950D01*
X0064257Y0286093D01*
X0064514Y0286243D01*
X0064768Y0286398D01*
X0065018Y0286560D01*
X0065263Y0286728D01*
X0065505Y0286901D01*
X0065743Y0287081D01*
X0065975Y0287266D01*
X0066204Y0287457D01*
X0066427Y0287654D01*
X0066646Y0287856D01*
X0066860Y0288063D01*
X0067068Y0288275D01*
X0067272Y0288492D01*
X0067470Y0288715D01*
X0067662Y0288942D01*
X0067849Y0289173D01*
X0068030Y0289409D01*
X0068206Y0289650D01*
X0068375Y0289895D01*
X0068538Y0290143D01*
X0068696Y0290396D01*
X0068847Y0290652D01*
X0068992Y0290913D01*
X0069130Y0291176D01*
X0069262Y0291443D01*
X0069387Y0291713D01*
X0069506Y0291986D01*
X0069618Y0292262D01*
X0069723Y0292540D01*
X0069821Y0292821D01*
X0069913Y0293104D01*
X0069997Y0293389D01*
X0070075Y0293677D01*
X0071059Y0287083D02*
X0067909Y0283933D01*
D16*
X0098214Y0246728D02*
X0106914Y0246728D01*
X0098214Y0246728D02*
X0098214Y0242728D01*
X0154114Y0246728D02*
X0162014Y0246728D01*
X0162014Y0242728D01*
X0198333Y0188667D02*
X0200695Y0188667D01*
X0162014Y0179828D02*
X0162014Y0151828D01*
X0098214Y0151828D01*
X0098214Y0179828D01*
X0320203Y0286886D02*
X0320203Y0306571D01*
X0328077Y0308539D02*
X0335951Y0308539D01*
X0343825Y0306571D02*
X0343825Y0286886D01*
X0335951Y0284917D02*
X0328077Y0284917D01*
D17*
X0311226Y0292949D02*
X0301384Y0292949D01*
X0311226Y0292949D02*
X0311226Y0299839D01*
X0311226Y0315587D02*
X0311226Y0324445D01*
X0281699Y0291965D02*
X0281699Y0284091D01*
X0265951Y0289996D02*
X0262014Y0289996D01*
X0263982Y0291965D01*
X0265951Y0289996D01*
X0265396Y0290550D02*
X0262568Y0290550D01*
X0263354Y0291336D02*
X0264610Y0291336D01*
X0262014Y0292949D02*
X0252171Y0292949D01*
X0252171Y0299839D01*
X0252171Y0315587D02*
X0252171Y0324445D01*
X0210045Y0324445D02*
X0210045Y0315587D01*
X0210045Y0299839D02*
X0210045Y0292949D01*
X0200203Y0292949D01*
X0180518Y0291965D02*
X0180518Y0284091D01*
X0164770Y0289996D02*
X0160833Y0289996D01*
X0162801Y0291965D01*
X0164770Y0289996D01*
X0164215Y0290550D02*
X0161387Y0290550D01*
X0162173Y0291336D02*
X0163429Y0291336D01*
X0160833Y0292949D02*
X0150990Y0292949D01*
X0150990Y0299839D01*
X0150990Y0315587D02*
X0150990Y0324445D01*
D18*
X0061679Y0221413D02*
X0061679Y0212555D01*
X0061679Y0221413D02*
X0058923Y0221413D01*
X0041994Y0221413D02*
X0041994Y0182043D01*
X0058923Y0182043D02*
X0061679Y0182043D01*
X0061679Y0190902D01*
X0224061Y0167634D02*
X0224061Y0155823D01*
X0229966Y0155823D01*
X0229966Y0167634D01*
X0224061Y0167634D01*
X0225264Y0162478D02*
X0228764Y0162478D01*
X0228764Y0160978D02*
X0227014Y0162478D01*
X0225264Y0160978D01*
X0228764Y0160978D01*
D19*
X0201207Y0169031D03*
D20*
X0081896Y0183579D03*
X0276896Y0256079D03*
X0287526Y0275685D03*
M02*
