G75*
%MOIN*%
%OFA0B0*%
%FSLAX25Y25*%
%IPPOS*%
%LPD*%
%AMOC8*
5,1,8,0,0,1.08239X$1,22.5*
%
%ADD10C,0.00600*%
%ADD11C,0.01000*%
%ADD12C,0.00800*%
%ADD13R,0.06200X0.02400*%
%ADD14C,0.00500*%
D10*
X0090459Y0045668D02*
X0092161Y0045668D01*
X0092728Y0046235D01*
X0092161Y0046802D01*
X0090459Y0046802D01*
X0090459Y0047370D02*
X0090459Y0045668D01*
X0090459Y0047370D02*
X0091026Y0047937D01*
X0092161Y0047937D01*
X0094142Y0047370D02*
X0094142Y0045668D01*
X0094142Y0047370D02*
X0094709Y0047937D01*
X0096411Y0047937D01*
X0096411Y0045668D01*
X0097825Y0046802D02*
X0100094Y0046802D01*
X0100094Y0046235D02*
X0100094Y0047370D01*
X0099527Y0047937D01*
X0098393Y0047937D01*
X0097825Y0047370D01*
X0097825Y0046802D01*
X0098393Y0045668D02*
X0099527Y0045668D01*
X0100094Y0046235D01*
X0101415Y0045668D02*
X0101982Y0046235D01*
X0101982Y0048504D01*
X0102549Y0047937D02*
X0101415Y0047937D01*
X0103964Y0047370D02*
X0103964Y0045668D01*
X0103964Y0047370D02*
X0104531Y0047937D01*
X0106233Y0047937D01*
X0106233Y0045668D01*
X0107647Y0045668D02*
X0107647Y0047937D01*
X0108781Y0049071D01*
X0109916Y0047937D01*
X0109916Y0045668D01*
X0109916Y0047370D02*
X0107647Y0047370D01*
X0093913Y0067668D02*
X0092779Y0067668D01*
X0092212Y0068235D01*
X0090797Y0068235D02*
X0090230Y0067668D01*
X0089096Y0067668D01*
X0088528Y0068235D01*
X0088528Y0068802D01*
X0089096Y0069370D01*
X0090797Y0069370D01*
X0090797Y0068235D01*
X0090797Y0069370D02*
X0089663Y0070504D01*
X0088528Y0071071D01*
X0092212Y0070504D02*
X0092779Y0071071D01*
X0093913Y0071071D01*
X0094480Y0070504D01*
X0094480Y0068235D01*
X0093913Y0067668D01*
X0094480Y0076418D02*
X0094480Y0079821D01*
X0092779Y0079821D01*
X0092212Y0079254D01*
X0092212Y0078120D01*
X0092779Y0077552D01*
X0094480Y0077552D01*
X0093346Y0077552D02*
X0092212Y0076418D01*
X0090797Y0076985D02*
X0090230Y0076418D01*
X0089096Y0076418D01*
X0088528Y0076985D01*
X0088528Y0077552D01*
X0089096Y0078120D01*
X0090797Y0078120D01*
X0090797Y0076985D01*
X0090797Y0078120D02*
X0089663Y0079254D01*
X0088528Y0079821D01*
X0089096Y0082668D02*
X0090230Y0082668D01*
X0090797Y0083235D01*
X0090797Y0084370D02*
X0089663Y0084937D01*
X0089096Y0084937D01*
X0088528Y0084370D01*
X0088528Y0083235D01*
X0089096Y0082668D01*
X0090797Y0084370D02*
X0090797Y0086071D01*
X0088528Y0086071D01*
X0092212Y0085504D02*
X0092212Y0084370D01*
X0092779Y0083802D01*
X0094480Y0083802D01*
X0094480Y0082668D02*
X0094480Y0086071D01*
X0092779Y0086071D01*
X0092212Y0085504D01*
X0093346Y0083802D02*
X0092212Y0082668D01*
X0068233Y0076936D02*
X0068233Y0075802D01*
X0067666Y0075235D01*
X0067666Y0073820D02*
X0066532Y0073820D01*
X0065964Y0073253D01*
X0065964Y0071552D01*
X0064830Y0071552D02*
X0068233Y0071552D01*
X0068233Y0073253D01*
X0067666Y0073820D01*
X0065964Y0072686D02*
X0064830Y0073820D01*
X0064830Y0075235D02*
X0067099Y0077504D01*
X0067666Y0077504D01*
X0068233Y0076936D01*
X0064830Y0077504D02*
X0064830Y0075235D01*
X0065080Y0106418D02*
X0068483Y0106418D01*
X0068483Y0108120D01*
X0067916Y0108687D01*
X0066782Y0108687D01*
X0066214Y0108120D01*
X0066214Y0106418D01*
X0066214Y0107552D02*
X0065080Y0108687D01*
X0066782Y0110101D02*
X0066782Y0112370D01*
X0068483Y0111803D02*
X0066782Y0110101D01*
X0065080Y0111803D02*
X0068483Y0111803D01*
X0090647Y0140168D02*
X0090080Y0140735D01*
X0090080Y0141870D01*
X0090647Y0142437D01*
X0090647Y0143851D02*
X0091214Y0143851D01*
X0091782Y0144418D01*
X0091782Y0145553D01*
X0091214Y0146120D01*
X0090647Y0146120D01*
X0090080Y0145553D01*
X0090080Y0144418D01*
X0090647Y0143851D01*
X0091782Y0144418D02*
X0092349Y0143851D01*
X0092916Y0143851D01*
X0093483Y0144418D01*
X0093483Y0145553D01*
X0092916Y0146120D01*
X0092349Y0146120D01*
X0091782Y0145553D01*
X0092916Y0142437D02*
X0093483Y0141870D01*
X0093483Y0140735D01*
X0092916Y0140168D01*
X0090647Y0140168D01*
X0083483Y0145735D02*
X0082916Y0145168D01*
X0080647Y0145168D01*
X0080080Y0145735D01*
X0080080Y0146870D01*
X0080647Y0147437D01*
X0080647Y0148851D02*
X0080080Y0148851D01*
X0080647Y0148851D02*
X0082916Y0151120D01*
X0083483Y0151120D01*
X0083483Y0148851D01*
X0082916Y0147437D02*
X0083483Y0146870D01*
X0083483Y0145735D01*
X0084780Y0156118D02*
X0087049Y0156118D01*
X0088183Y0157252D01*
X0087049Y0158387D01*
X0084780Y0158387D01*
X0084780Y0159801D02*
X0084780Y0162070D01*
X0084780Y0160936D02*
X0088183Y0160936D01*
X0087049Y0159801D01*
X0086482Y0158387D02*
X0086482Y0156118D01*
X0100080Y0145553D02*
X0100647Y0146120D01*
X0102916Y0146120D01*
X0103483Y0145553D01*
X0103483Y0144418D01*
X0102916Y0143851D01*
X0102349Y0143851D01*
X0101782Y0144418D01*
X0101782Y0146120D01*
X0100080Y0145553D02*
X0100080Y0144418D01*
X0100647Y0143851D01*
X0100647Y0142437D02*
X0100080Y0141870D01*
X0100080Y0140735D01*
X0100647Y0140168D01*
X0102916Y0140168D01*
X0103483Y0140735D01*
X0103483Y0141870D01*
X0102916Y0142437D01*
X0108830Y0141870D02*
X0109397Y0142437D01*
X0108830Y0141870D02*
X0108830Y0140735D01*
X0109397Y0140168D01*
X0111666Y0140168D01*
X0112233Y0140735D01*
X0112233Y0141870D01*
X0111666Y0142437D01*
X0111099Y0143851D02*
X0112233Y0144986D01*
X0108830Y0144986D01*
X0108830Y0146120D02*
X0108830Y0143851D01*
X0109397Y0147534D02*
X0111666Y0149803D01*
X0109397Y0149803D01*
X0108830Y0149236D01*
X0108830Y0148102D01*
X0109397Y0147534D01*
X0111666Y0147534D01*
X0112233Y0148102D01*
X0112233Y0149236D01*
X0111666Y0149803D01*
X0190895Y0140254D02*
X0190895Y0139687D01*
X0191462Y0139120D01*
X0190895Y0138552D01*
X0190895Y0137985D01*
X0191462Y0137418D01*
X0192596Y0137418D01*
X0193163Y0137985D01*
X0194578Y0137985D02*
X0195145Y0137418D01*
X0196279Y0137418D01*
X0196846Y0137985D01*
X0196846Y0140254D01*
X0196279Y0140821D01*
X0195145Y0140821D01*
X0194578Y0140254D01*
X0193163Y0140254D02*
X0192596Y0140821D01*
X0191462Y0140821D01*
X0190895Y0140254D01*
X0191462Y0139120D02*
X0192029Y0139120D01*
X0202712Y0122071D02*
X0204413Y0120370D01*
X0202145Y0120370D01*
X0202712Y0118668D02*
X0202712Y0122071D01*
X0205828Y0121504D02*
X0206395Y0122071D01*
X0207529Y0122071D01*
X0208096Y0121504D01*
X0208096Y0119235D01*
X0207529Y0118668D01*
X0206395Y0118668D01*
X0205828Y0119235D01*
X0227278Y0123918D02*
X0229547Y0123918D01*
X0227278Y0126187D01*
X0227278Y0126754D01*
X0227846Y0127321D01*
X0228980Y0127321D01*
X0229547Y0126754D01*
X0230962Y0126754D02*
X0231529Y0127321D01*
X0232663Y0127321D01*
X0233230Y0126754D01*
X0233230Y0124485D01*
X0232663Y0123918D01*
X0231529Y0123918D01*
X0230962Y0124485D01*
X0221413Y0145168D02*
X0220279Y0145168D01*
X0219712Y0145735D01*
X0218297Y0145168D02*
X0216028Y0145168D01*
X0217163Y0145168D02*
X0217163Y0148571D01*
X0218297Y0147437D01*
X0219712Y0148004D02*
X0220279Y0148571D01*
X0221413Y0148571D01*
X0221980Y0148004D01*
X0221980Y0145735D01*
X0221413Y0145168D01*
X0263480Y0089821D02*
X0263480Y0086418D01*
X0264614Y0086418D02*
X0262345Y0086418D01*
X0264614Y0088687D02*
X0263480Y0089821D01*
X0266028Y0089821D02*
X0268297Y0089821D01*
X0267163Y0089821D02*
X0267163Y0086418D01*
X0269712Y0086985D02*
X0270279Y0086418D01*
X0271980Y0086418D01*
X0271980Y0089821D01*
X0270279Y0089821D01*
X0269712Y0089254D01*
X0269712Y0088687D01*
X0270279Y0088120D01*
X0271980Y0088120D01*
X0270279Y0088120D02*
X0269712Y0087552D01*
X0269712Y0086985D01*
X0315080Y0116985D02*
X0315080Y0117552D01*
X0315647Y0118120D01*
X0318483Y0118120D01*
X0318483Y0118687D02*
X0318483Y0117552D01*
X0318483Y0120101D02*
X0318483Y0122370D01*
X0317916Y0122370D01*
X0315647Y0120101D01*
X0315080Y0120101D01*
X0315080Y0116985D02*
X0315647Y0116418D01*
X0321030Y0116118D02*
X0321030Y0121118D01*
X0322280Y0121118D02*
X0322280Y0116118D01*
X0324780Y0113618D01*
X0339780Y0113618D01*
X0342280Y0116118D01*
X0342280Y0121118D01*
X0339780Y0123618D01*
X0324780Y0123618D01*
X0322280Y0126118D01*
X0322280Y0131118D01*
X0324780Y0133618D01*
X0339780Y0133618D01*
X0342280Y0136118D01*
X0342280Y0141118D01*
X0339780Y0143618D01*
X0324780Y0143618D01*
X0322280Y0146118D01*
X0322280Y0151118D01*
X0324780Y0153618D01*
X0339780Y0153618D01*
X0342280Y0156118D01*
X0342280Y0161118D01*
X0339780Y0163618D01*
X0324780Y0163618D01*
X0322280Y0166118D01*
X0322280Y0171118D01*
X0324780Y0173618D01*
X0339780Y0173618D01*
X0342280Y0171118D01*
X0342280Y0166118D01*
X0339780Y0163618D01*
X0324780Y0163618D02*
X0322280Y0161118D01*
X0322280Y0156118D01*
X0324780Y0153618D01*
X0324780Y0143618D02*
X0322280Y0141118D01*
X0322280Y0136118D01*
X0324780Y0133618D01*
X0324780Y0123618D02*
X0322280Y0121118D01*
X0339780Y0123618D02*
X0342280Y0126118D01*
X0342280Y0131118D01*
X0339780Y0133618D01*
X0339780Y0143618D02*
X0342280Y0146118D01*
X0342280Y0151118D01*
X0339780Y0153618D01*
X0315647Y0186418D02*
X0315080Y0186985D01*
X0315080Y0187552D01*
X0315647Y0188120D01*
X0318483Y0188120D01*
X0318483Y0188687D02*
X0318483Y0187552D01*
X0316782Y0190101D02*
X0316782Y0191803D01*
X0316214Y0192370D01*
X0315647Y0192370D01*
X0315080Y0191803D01*
X0315080Y0190668D01*
X0315647Y0190101D01*
X0316782Y0190101D01*
X0317916Y0191236D01*
X0318483Y0192370D01*
X0315647Y0216418D02*
X0315080Y0216985D01*
X0315080Y0217552D01*
X0315647Y0218120D01*
X0318483Y0218120D01*
X0318483Y0218687D02*
X0318483Y0217552D01*
X0317349Y0220101D02*
X0318483Y0221236D01*
X0315080Y0221236D01*
X0315080Y0222370D02*
X0315080Y0220101D01*
X0291233Y0225552D02*
X0291233Y0227253D01*
X0290666Y0227820D01*
X0288397Y0227820D01*
X0287830Y0227253D01*
X0287830Y0225552D01*
X0291233Y0225552D01*
X0290666Y0229235D02*
X0291233Y0229802D01*
X0291233Y0230936D01*
X0290666Y0231504D01*
X0290099Y0231504D01*
X0287830Y0229235D01*
X0287830Y0231504D01*
X0254733Y0236418D02*
X0254733Y0238120D01*
X0254166Y0238687D01*
X0253032Y0238687D01*
X0252464Y0238120D01*
X0252464Y0236418D01*
X0251330Y0236418D02*
X0254733Y0236418D01*
X0252464Y0237552D02*
X0251330Y0238687D01*
X0251897Y0240101D02*
X0252464Y0240101D01*
X0253032Y0240668D01*
X0253032Y0241803D01*
X0252464Y0242370D01*
X0251897Y0242370D01*
X0251330Y0241803D01*
X0251330Y0240668D01*
X0251897Y0240101D01*
X0253032Y0240668D02*
X0253599Y0240101D01*
X0254166Y0240101D01*
X0254733Y0240668D01*
X0254733Y0241803D01*
X0254166Y0242370D01*
X0253599Y0242370D01*
X0253032Y0241803D01*
X0229480Y0228571D02*
X0229480Y0225168D01*
X0229480Y0226302D02*
X0227779Y0226302D01*
X0227212Y0226870D01*
X0227212Y0228004D01*
X0227779Y0228571D01*
X0229480Y0228571D01*
X0228346Y0226302D02*
X0227212Y0225168D01*
X0225797Y0225168D02*
X0225797Y0225735D01*
X0223528Y0228004D01*
X0223528Y0228571D01*
X0225797Y0228571D01*
X0247145Y0210254D02*
X0247712Y0210821D01*
X0248846Y0210821D01*
X0249413Y0210254D01*
X0249413Y0209687D01*
X0248846Y0209120D01*
X0247145Y0209120D01*
X0247145Y0210254D02*
X0247145Y0207985D01*
X0247712Y0207418D01*
X0248846Y0207418D01*
X0249413Y0207985D01*
X0250828Y0207418D02*
X0251962Y0208552D01*
X0251395Y0208552D02*
X0253096Y0208552D01*
X0253096Y0207418D02*
X0253096Y0210821D01*
X0251395Y0210821D01*
X0250828Y0210254D01*
X0250828Y0209120D01*
X0251395Y0208552D01*
X0277645Y0205418D02*
X0279913Y0205418D01*
X0278779Y0205418D02*
X0278779Y0208821D01*
X0279913Y0207687D01*
X0281328Y0208254D02*
X0281328Y0205985D01*
X0281895Y0205418D01*
X0283029Y0205418D01*
X0283596Y0205985D01*
X0283596Y0208254D01*
X0283029Y0208821D01*
X0281895Y0208821D01*
X0281328Y0208254D01*
X0282462Y0206552D02*
X0281328Y0205418D01*
X0320412Y0268918D02*
X0321547Y0268918D01*
X0322114Y0269485D01*
X0322114Y0270620D02*
X0320980Y0271187D01*
X0320412Y0271187D01*
X0319845Y0270620D01*
X0319845Y0269485D01*
X0320412Y0268918D01*
X0322114Y0270620D02*
X0322114Y0272321D01*
X0319845Y0272321D01*
X0324663Y0272321D02*
X0324663Y0268918D01*
X0325797Y0268918D02*
X0323528Y0268918D01*
X0325797Y0271187D02*
X0324663Y0272321D01*
X0327212Y0271754D02*
X0327212Y0270620D01*
X0327779Y0270052D01*
X0329480Y0270052D01*
X0329480Y0268918D02*
X0329480Y0272321D01*
X0327779Y0272321D01*
X0327212Y0271754D01*
X0328346Y0270052D02*
X0327212Y0268918D01*
X0312416Y0285418D02*
X0311849Y0285418D01*
X0311282Y0285985D01*
X0311282Y0287120D01*
X0310714Y0287687D01*
X0310147Y0287687D01*
X0309580Y0287120D01*
X0309580Y0285985D01*
X0310147Y0285418D01*
X0312416Y0285418D02*
X0312983Y0285985D01*
X0312983Y0287120D01*
X0312416Y0287687D01*
X0311849Y0289101D02*
X0312983Y0290236D01*
X0309580Y0290236D01*
X0309580Y0291370D02*
X0309580Y0289101D01*
X0116980Y0286754D02*
X0116980Y0286187D01*
X0116413Y0285620D01*
X0115279Y0285620D01*
X0114712Y0285052D01*
X0114712Y0284485D01*
X0115279Y0283918D01*
X0116413Y0283918D01*
X0116980Y0284485D01*
X0116980Y0286754D02*
X0116413Y0287321D01*
X0115279Y0287321D01*
X0114712Y0286754D01*
X0113297Y0287321D02*
X0113297Y0283918D01*
X0113297Y0285052D02*
X0111596Y0285052D01*
X0111028Y0285620D01*
X0111028Y0286754D01*
X0111596Y0287321D01*
X0113297Y0287321D01*
X0109614Y0286187D02*
X0108480Y0287321D01*
X0108480Y0283918D01*
X0109614Y0283918D02*
X0107345Y0283918D01*
X0068280Y0308618D02*
X0068287Y0309207D01*
X0068309Y0309796D01*
X0068345Y0310384D01*
X0068396Y0310970D01*
X0068460Y0311556D01*
X0068540Y0312140D01*
X0068633Y0312721D01*
X0068741Y0313300D01*
X0068863Y0313876D01*
X0068999Y0314450D01*
X0069149Y0315019D01*
X0069313Y0315585D01*
X0069491Y0316146D01*
X0069683Y0316703D01*
X0069888Y0317255D01*
X0070107Y0317802D01*
X0070339Y0318344D01*
X0070584Y0318879D01*
X0070843Y0319409D01*
X0071114Y0319932D01*
X0071398Y0320448D01*
X0071695Y0320956D01*
X0072004Y0321458D01*
X0072325Y0321952D01*
X0072658Y0322437D01*
X0073003Y0322915D01*
X0073360Y0323384D01*
X0073728Y0323843D01*
X0074107Y0324294D01*
X0074497Y0324735D01*
X0074898Y0325167D01*
X0075309Y0325589D01*
X0075731Y0326000D01*
X0076163Y0326401D01*
X0076604Y0326791D01*
X0077055Y0327170D01*
X0077514Y0327538D01*
X0077983Y0327895D01*
X0078461Y0328240D01*
X0078946Y0328573D01*
X0079440Y0328894D01*
X0079942Y0329203D01*
X0080450Y0329500D01*
X0080966Y0329784D01*
X0081489Y0330055D01*
X0082019Y0330314D01*
X0082554Y0330559D01*
X0083096Y0330791D01*
X0083643Y0331010D01*
X0084195Y0331215D01*
X0084752Y0331407D01*
X0085313Y0331585D01*
X0085879Y0331749D01*
X0086448Y0331899D01*
X0087022Y0332035D01*
X0087598Y0332157D01*
X0088177Y0332265D01*
X0088758Y0332358D01*
X0089342Y0332438D01*
X0089928Y0332502D01*
X0090514Y0332553D01*
X0091102Y0332589D01*
X0091691Y0332611D01*
X0092280Y0332618D01*
X0092869Y0332611D01*
X0093458Y0332589D01*
X0094046Y0332553D01*
X0094632Y0332502D01*
X0095218Y0332438D01*
X0095802Y0332358D01*
X0096383Y0332265D01*
X0096962Y0332157D01*
X0097538Y0332035D01*
X0098112Y0331899D01*
X0098681Y0331749D01*
X0099247Y0331585D01*
X0099808Y0331407D01*
X0100365Y0331215D01*
X0100917Y0331010D01*
X0101464Y0330791D01*
X0102006Y0330559D01*
X0102541Y0330314D01*
X0103071Y0330055D01*
X0103594Y0329784D01*
X0104110Y0329500D01*
X0104618Y0329203D01*
X0105120Y0328894D01*
X0105614Y0328573D01*
X0106099Y0328240D01*
X0106577Y0327895D01*
X0107046Y0327538D01*
X0107505Y0327170D01*
X0107956Y0326791D01*
X0108397Y0326401D01*
X0108829Y0326000D01*
X0109251Y0325589D01*
X0109662Y0325167D01*
X0110063Y0324735D01*
X0110453Y0324294D01*
X0110832Y0323843D01*
X0111200Y0323384D01*
X0111557Y0322915D01*
X0111902Y0322437D01*
X0112235Y0321952D01*
X0112556Y0321458D01*
X0112865Y0320956D01*
X0113162Y0320448D01*
X0113446Y0319932D01*
X0113717Y0319409D01*
X0113976Y0318879D01*
X0114221Y0318344D01*
X0114453Y0317802D01*
X0114672Y0317255D01*
X0114877Y0316703D01*
X0115069Y0316146D01*
X0115247Y0315585D01*
X0115411Y0315019D01*
X0115561Y0314450D01*
X0115697Y0313876D01*
X0115819Y0313300D01*
X0115927Y0312721D01*
X0116020Y0312140D01*
X0116100Y0311556D01*
X0116164Y0310970D01*
X0116215Y0310384D01*
X0116251Y0309796D01*
X0116273Y0309207D01*
X0116280Y0308618D01*
X0116273Y0308029D01*
X0116251Y0307440D01*
X0116215Y0306852D01*
X0116164Y0306266D01*
X0116100Y0305680D01*
X0116020Y0305096D01*
X0115927Y0304515D01*
X0115819Y0303936D01*
X0115697Y0303360D01*
X0115561Y0302786D01*
X0115411Y0302217D01*
X0115247Y0301651D01*
X0115069Y0301090D01*
X0114877Y0300533D01*
X0114672Y0299981D01*
X0114453Y0299434D01*
X0114221Y0298892D01*
X0113976Y0298357D01*
X0113717Y0297827D01*
X0113446Y0297304D01*
X0113162Y0296788D01*
X0112865Y0296280D01*
X0112556Y0295778D01*
X0112235Y0295284D01*
X0111902Y0294799D01*
X0111557Y0294321D01*
X0111200Y0293852D01*
X0110832Y0293393D01*
X0110453Y0292942D01*
X0110063Y0292501D01*
X0109662Y0292069D01*
X0109251Y0291647D01*
X0108829Y0291236D01*
X0108397Y0290835D01*
X0107956Y0290445D01*
X0107505Y0290066D01*
X0107046Y0289698D01*
X0106577Y0289341D01*
X0106099Y0288996D01*
X0105614Y0288663D01*
X0105120Y0288342D01*
X0104618Y0288033D01*
X0104110Y0287736D01*
X0103594Y0287452D01*
X0103071Y0287181D01*
X0102541Y0286922D01*
X0102006Y0286677D01*
X0101464Y0286445D01*
X0100917Y0286226D01*
X0100365Y0286021D01*
X0099808Y0285829D01*
X0099247Y0285651D01*
X0098681Y0285487D01*
X0098112Y0285337D01*
X0097538Y0285201D01*
X0096962Y0285079D01*
X0096383Y0284971D01*
X0095802Y0284878D01*
X0095218Y0284798D01*
X0094632Y0284734D01*
X0094046Y0284683D01*
X0093458Y0284647D01*
X0092869Y0284625D01*
X0092280Y0284618D01*
X0091691Y0284625D01*
X0091102Y0284647D01*
X0090514Y0284683D01*
X0089928Y0284734D01*
X0089342Y0284798D01*
X0088758Y0284878D01*
X0088177Y0284971D01*
X0087598Y0285079D01*
X0087022Y0285201D01*
X0086448Y0285337D01*
X0085879Y0285487D01*
X0085313Y0285651D01*
X0084752Y0285829D01*
X0084195Y0286021D01*
X0083643Y0286226D01*
X0083096Y0286445D01*
X0082554Y0286677D01*
X0082019Y0286922D01*
X0081489Y0287181D01*
X0080966Y0287452D01*
X0080450Y0287736D01*
X0079942Y0288033D01*
X0079440Y0288342D01*
X0078946Y0288663D01*
X0078461Y0288996D01*
X0077983Y0289341D01*
X0077514Y0289698D01*
X0077055Y0290066D01*
X0076604Y0290445D01*
X0076163Y0290835D01*
X0075731Y0291236D01*
X0075309Y0291647D01*
X0074898Y0292069D01*
X0074497Y0292501D01*
X0074107Y0292942D01*
X0073728Y0293393D01*
X0073360Y0293852D01*
X0073003Y0294321D01*
X0072658Y0294799D01*
X0072325Y0295284D01*
X0072004Y0295778D01*
X0071695Y0296280D01*
X0071398Y0296788D01*
X0071114Y0297304D01*
X0070843Y0297827D01*
X0070584Y0298357D01*
X0070339Y0298892D01*
X0070107Y0299434D01*
X0069888Y0299981D01*
X0069683Y0300533D01*
X0069491Y0301090D01*
X0069313Y0301651D01*
X0069149Y0302217D01*
X0068999Y0302786D01*
X0068863Y0303360D01*
X0068741Y0303936D01*
X0068633Y0304515D01*
X0068540Y0305096D01*
X0068460Y0305680D01*
X0068396Y0306266D01*
X0068345Y0306852D01*
X0068309Y0307440D01*
X0068287Y0308029D01*
X0068280Y0308618D01*
X0060416Y0298553D02*
X0060983Y0297986D01*
X0060983Y0296852D01*
X0060416Y0296284D01*
X0060416Y0298553D02*
X0059849Y0298553D01*
X0057580Y0296284D01*
X0057580Y0298553D01*
X0057580Y0294870D02*
X0057580Y0292601D01*
X0057580Y0293736D02*
X0060983Y0293736D01*
X0059849Y0292601D01*
X0060416Y0291187D02*
X0059282Y0291187D01*
X0058714Y0290620D01*
X0058714Y0288918D01*
X0057580Y0288918D02*
X0060983Y0288918D01*
X0060983Y0290620D01*
X0060416Y0291187D01*
X0058714Y0290052D02*
X0057580Y0291187D01*
X0043483Y0289236D02*
X0042916Y0289803D01*
X0042349Y0289803D01*
X0041782Y0289236D01*
X0041214Y0289803D01*
X0040647Y0289803D01*
X0040080Y0289236D01*
X0040080Y0288102D01*
X0040647Y0287534D01*
X0040080Y0286120D02*
X0040080Y0283851D01*
X0040080Y0284986D02*
X0043483Y0284986D01*
X0042349Y0283851D01*
X0042916Y0282437D02*
X0043483Y0281870D01*
X0043483Y0280735D01*
X0042916Y0280168D01*
X0040647Y0280168D01*
X0040080Y0280735D01*
X0040080Y0281870D01*
X0040647Y0282437D01*
X0042916Y0287534D02*
X0043483Y0288102D01*
X0043483Y0289236D01*
X0041782Y0289236D02*
X0041782Y0288669D01*
X0327145Y0077071D02*
X0327145Y0076504D01*
X0329413Y0074235D01*
X0329413Y0073668D01*
X0330828Y0073668D02*
X0333096Y0073668D01*
X0331962Y0073668D02*
X0331962Y0077071D01*
X0333096Y0075937D01*
X0334511Y0076504D02*
X0334511Y0075370D01*
X0335078Y0074802D01*
X0336780Y0074802D01*
X0336780Y0073668D02*
X0336780Y0077071D01*
X0335078Y0077071D01*
X0334511Y0076504D01*
X0335645Y0074802D02*
X0334511Y0073668D01*
X0329413Y0077071D02*
X0327145Y0077071D01*
X0273212Y0047416D02*
X0272078Y0047416D01*
X0272645Y0047416D02*
X0272645Y0044580D01*
X0273212Y0044013D01*
X0273779Y0044013D01*
X0274346Y0044580D01*
X0270663Y0045714D02*
X0268395Y0045714D01*
X0268962Y0044013D02*
X0268962Y0047416D01*
X0270663Y0045714D01*
X0161713Y0044254D02*
X0161146Y0044821D01*
X0160011Y0044821D01*
X0159444Y0044254D01*
X0159444Y0043687D01*
X0160011Y0043120D01*
X0159444Y0042552D01*
X0159444Y0041985D01*
X0160011Y0041418D01*
X0161146Y0041418D01*
X0161713Y0041985D01*
X0160578Y0043120D02*
X0160011Y0043120D01*
X0158030Y0044254D02*
X0158030Y0041985D01*
X0155761Y0044254D01*
X0155761Y0041985D01*
X0156328Y0041418D01*
X0157462Y0041418D01*
X0158030Y0041985D01*
X0158030Y0044254D02*
X0157462Y0044821D01*
X0156328Y0044821D01*
X0155761Y0044254D01*
X0154346Y0043120D02*
X0152078Y0043120D01*
X0150663Y0041985D02*
X0150663Y0044254D01*
X0150096Y0044821D01*
X0148962Y0044821D01*
X0148395Y0044254D01*
X0150663Y0041985D01*
X0150096Y0041418D01*
X0148962Y0041418D01*
X0148395Y0041985D01*
X0148395Y0044254D01*
X0146980Y0044821D02*
X0146980Y0043120D01*
X0145846Y0043687D01*
X0145279Y0043687D01*
X0144712Y0043120D01*
X0144712Y0041985D01*
X0145279Y0041418D01*
X0146413Y0041418D01*
X0146980Y0041985D01*
X0146980Y0044821D02*
X0144712Y0044821D01*
X0143297Y0043120D02*
X0141028Y0043120D01*
X0139614Y0043687D02*
X0138480Y0044821D01*
X0138480Y0041418D01*
X0139614Y0041418D02*
X0137345Y0041418D01*
X0135931Y0041985D02*
X0135364Y0041418D01*
X0134229Y0041418D01*
X0133662Y0041985D01*
X0133662Y0042552D01*
X0134229Y0043120D01*
X0135931Y0043120D01*
X0135931Y0041985D01*
X0135931Y0043120D02*
X0134796Y0044254D01*
X0133662Y0044821D01*
X0137345Y0047418D02*
X0139614Y0047418D01*
X0137345Y0049687D01*
X0137345Y0050254D01*
X0137912Y0050821D01*
X0139047Y0050821D01*
X0139614Y0050254D01*
X0141028Y0050821D02*
X0141028Y0048552D01*
X0142163Y0047418D01*
X0143297Y0048552D01*
X0143297Y0050821D01*
X0148395Y0050254D02*
X0148395Y0049687D01*
X0149529Y0048552D01*
X0149529Y0047985D02*
X0149529Y0047418D01*
X0148395Y0050254D02*
X0148962Y0050821D01*
X0150096Y0050821D01*
X0150663Y0050254D01*
X0152078Y0050254D02*
X0152078Y0049687D01*
X0153212Y0048552D01*
X0153212Y0047985D02*
X0153212Y0047418D01*
X0152078Y0050254D02*
X0152645Y0050821D01*
X0153779Y0050821D01*
X0154346Y0050254D01*
X0155761Y0050254D02*
X0155761Y0049687D01*
X0156895Y0048552D01*
X0156895Y0047985D02*
X0156895Y0047418D01*
X0155761Y0050254D02*
X0156328Y0050821D01*
X0157462Y0050821D01*
X0158030Y0050254D01*
D11*
X0058530Y0059868D02*
X0058530Y0033618D01*
X0122280Y0033618D01*
X0122280Y0059868D01*
X0058530Y0059868D01*
X0067280Y0056118D02*
X0074780Y0056118D01*
X0074780Y0048618D01*
X0082280Y0056118D01*
X0074780Y0056118D01*
X0074780Y0048618D02*
X0067280Y0056118D01*
X0074780Y0048618D02*
X0074780Y0038618D01*
X0185272Y0038697D02*
X0185272Y0059169D01*
X0185272Y0078067D02*
X0185272Y0098539D01*
X0213225Y0098539D01*
X0213225Y0089878D01*
X0231335Y0089878D01*
X0231335Y0098539D01*
X0259288Y0098539D01*
X0259288Y0078067D01*
X0259288Y0059169D02*
X0259288Y0038697D01*
X0185272Y0038697D01*
X0323343Y0289307D02*
X0331217Y0289307D01*
X0339091Y0291276D02*
X0339091Y0310961D01*
X0331217Y0312929D02*
X0323343Y0312929D01*
X0315469Y0310961D02*
X0315469Y0291276D01*
D12*
X0324780Y0243618D02*
X0339780Y0243618D01*
X0342280Y0241118D01*
X0342280Y0236118D01*
X0339780Y0233618D01*
X0324780Y0233618D01*
X0322280Y0236118D01*
X0322280Y0241118D01*
X0324780Y0243618D01*
X0324780Y0233618D02*
X0322280Y0231118D01*
X0322280Y0226118D01*
X0324780Y0223618D01*
X0339780Y0223618D01*
X0342280Y0226118D01*
X0342280Y0231118D01*
X0339780Y0233618D01*
X0339780Y0223618D02*
X0342280Y0221118D01*
X0342280Y0216118D01*
X0339780Y0213618D01*
X0324780Y0213618D01*
X0322280Y0211118D01*
X0322280Y0206118D01*
X0324780Y0203618D01*
X0339780Y0203618D01*
X0342280Y0206118D01*
X0342280Y0211118D01*
X0339780Y0213618D01*
X0324780Y0213618D01*
X0322280Y0216118D01*
X0322280Y0221118D01*
X0324780Y0223618D01*
X0320961Y0221118D02*
X0320961Y0216118D01*
X0324780Y0203618D02*
X0322280Y0201118D01*
X0322280Y0196118D01*
X0324780Y0193618D01*
X0339780Y0193618D01*
X0342280Y0196118D01*
X0342280Y0201118D01*
X0339780Y0203618D01*
X0339780Y0193618D02*
X0342280Y0191118D01*
X0342280Y0186118D01*
X0339780Y0183618D01*
X0324780Y0183618D01*
X0322280Y0186118D01*
X0322280Y0191118D01*
X0324780Y0193618D01*
X0320961Y0191118D02*
X0320961Y0186118D01*
X0270174Y0208106D02*
X0267024Y0208106D01*
X0267024Y0210469D01*
X0267024Y0216768D02*
X0267024Y0219130D01*
X0270174Y0219130D01*
X0280312Y0226650D02*
X0282280Y0230587D01*
X0284249Y0226650D01*
X0280312Y0226650D01*
X0082280Y0226118D02*
X0079780Y0223618D01*
X0082280Y0221118D01*
X0082280Y0216118D01*
X0079780Y0213618D01*
X0082280Y0211118D01*
X0082280Y0206118D01*
X0079780Y0203618D01*
X0082280Y0201118D01*
X0082280Y0196118D01*
X0079780Y0193618D01*
X0082280Y0191118D01*
X0082280Y0186118D01*
X0079780Y0183618D01*
X0082280Y0181118D01*
X0082280Y0176118D01*
X0079780Y0173618D01*
X0082280Y0171118D01*
X0082280Y0166118D01*
X0079780Y0163618D01*
X0082280Y0161118D01*
X0082280Y0156118D01*
X0079780Y0153618D01*
X0074780Y0153618D01*
X0072280Y0156118D01*
X0072280Y0161118D01*
X0074780Y0163618D01*
X0072280Y0166118D01*
X0072280Y0171118D01*
X0074780Y0173618D01*
X0072280Y0176118D01*
X0072280Y0181118D01*
X0074780Y0183618D01*
X0072280Y0186118D01*
X0072280Y0191118D01*
X0074780Y0193618D01*
X0072280Y0196118D01*
X0072280Y0201118D01*
X0074780Y0203618D01*
X0072280Y0206118D01*
X0072280Y0211118D01*
X0074780Y0213618D01*
X0072280Y0216118D01*
X0072280Y0221118D01*
X0074780Y0223618D01*
X0072280Y0226118D01*
X0072280Y0231118D01*
X0074780Y0233618D01*
X0079780Y0233618D01*
X0082280Y0231118D01*
X0082280Y0226118D01*
D13*
X0282280Y0230818D03*
D14*
X0286453Y0060783D02*
X0277595Y0060783D01*
X0277595Y0058028D01*
X0277595Y0041098D02*
X0316965Y0041098D01*
X0316965Y0058028D02*
X0316965Y0060783D01*
X0308107Y0060783D01*
M02*
