G75*
%MOIN*%
%OFA0B0*%
%FSLAX25Y25*%
%IPPOS*%
%LPD*%
%AMOC8*
5,1,8,0,0,1.08239X$1,22.5*
%
%ADD10R,0.04331X0.03937*%
%ADD11R,0.03937X0.04331*%
%ADD12R,0.05906X0.05118*%
%ADD13R,0.07087X0.06299*%
%ADD14R,0.03543X0.03150*%
%ADD15R,0.05118X0.05906*%
%ADD16R,0.07087X0.05512*%
%ADD17R,0.05118X0.06102*%
%ADD18R,0.03937X0.21654*%
%ADD19R,0.06299X0.11811*%
%ADD20R,0.10000X0.15000*%
D10*
X0098934Y0071118D03*
X0105627Y0071118D03*
X0072280Y0072772D03*
X0072280Y0079465D03*
X0072280Y0105272D03*
X0072280Y0111965D03*
X0201434Y0126118D03*
X0208127Y0126118D03*
X0216434Y0126118D03*
X0223127Y0126118D03*
X0208127Y0138618D03*
X0216434Y0141118D03*
X0223127Y0141118D03*
X0201434Y0138618D03*
X0247280Y0235272D03*
X0247280Y0241965D03*
D11*
X0230627Y0221118D03*
X0223934Y0221118D03*
X0323934Y0276118D03*
X0330627Y0276118D03*
X0112280Y0134465D03*
X0112280Y0127772D03*
X0105627Y0086118D03*
X0098934Y0086118D03*
X0098934Y0078618D03*
X0105627Y0078618D03*
X0328934Y0081118D03*
X0335627Y0081118D03*
D12*
X0102280Y0127378D03*
X0102280Y0134858D03*
X0092280Y0134858D03*
X0092280Y0127378D03*
X0042280Y0267378D03*
X0042280Y0274858D03*
X0052280Y0287378D03*
X0052280Y0294858D03*
D13*
X0082280Y0139130D03*
X0082280Y0128106D03*
D14*
X0265449Y0213618D03*
X0273717Y0209878D03*
X0273717Y0217358D03*
D15*
X0253520Y0216118D03*
X0246040Y0216118D03*
D16*
X0282280Y0221925D03*
X0282280Y0235311D03*
D17*
X0318422Y0285469D03*
X0336138Y0285469D03*
X0336138Y0316768D03*
X0318422Y0316768D03*
D18*
X0305154Y0059799D03*
X0297280Y0059799D03*
X0289406Y0059799D03*
D19*
X0279957Y0050941D03*
X0314603Y0050941D03*
D20*
X0263284Y0068618D03*
X0181276Y0068618D03*
M02*
