G75*
%MOIN*%
%OFA0B0*%
%FSLAX25Y25*%
%IPPOS*%
%LPD*%
%AMOC8*
5,1,8,0,0,1.08239X$1,22.5*
%
%ADD10C,0.00000*%
%ADD11C,0.04000*%
D10*
X0040154Y0028618D02*
X0339367Y0028618D01*
X0339557Y0028620D01*
X0339747Y0028627D01*
X0339937Y0028639D01*
X0340127Y0028655D01*
X0340316Y0028675D01*
X0340505Y0028701D01*
X0340693Y0028730D01*
X0340880Y0028765D01*
X0341066Y0028804D01*
X0341251Y0028847D01*
X0341436Y0028895D01*
X0341619Y0028947D01*
X0341800Y0029003D01*
X0341980Y0029064D01*
X0342159Y0029130D01*
X0342336Y0029199D01*
X0342512Y0029273D01*
X0342685Y0029351D01*
X0342857Y0029434D01*
X0343026Y0029520D01*
X0343194Y0029610D01*
X0343359Y0029705D01*
X0343522Y0029803D01*
X0343682Y0029906D01*
X0343840Y0030012D01*
X0343995Y0030122D01*
X0344148Y0030235D01*
X0344298Y0030353D01*
X0344444Y0030474D01*
X0344588Y0030598D01*
X0344729Y0030726D01*
X0344867Y0030857D01*
X0345002Y0030992D01*
X0345133Y0031130D01*
X0345261Y0031271D01*
X0345385Y0031415D01*
X0345506Y0031561D01*
X0345624Y0031711D01*
X0345737Y0031864D01*
X0345847Y0032019D01*
X0345953Y0032177D01*
X0346056Y0032337D01*
X0346154Y0032500D01*
X0346249Y0032665D01*
X0346339Y0032833D01*
X0346425Y0033002D01*
X0346508Y0033174D01*
X0346586Y0033347D01*
X0346660Y0033523D01*
X0346729Y0033700D01*
X0346795Y0033879D01*
X0346856Y0034059D01*
X0346912Y0034240D01*
X0346964Y0034423D01*
X0347012Y0034608D01*
X0347055Y0034793D01*
X0347094Y0034979D01*
X0347129Y0035166D01*
X0347158Y0035354D01*
X0347184Y0035543D01*
X0347204Y0035732D01*
X0347220Y0035922D01*
X0347232Y0036112D01*
X0347239Y0036302D01*
X0347241Y0036492D01*
X0347241Y0335705D01*
X0347239Y0335895D01*
X0347232Y0336085D01*
X0347220Y0336275D01*
X0347204Y0336465D01*
X0347184Y0336654D01*
X0347158Y0336843D01*
X0347129Y0337031D01*
X0347094Y0337218D01*
X0347055Y0337404D01*
X0347012Y0337589D01*
X0346964Y0337774D01*
X0346912Y0337957D01*
X0346856Y0338138D01*
X0346795Y0338318D01*
X0346729Y0338497D01*
X0346660Y0338674D01*
X0346586Y0338850D01*
X0346508Y0339023D01*
X0346425Y0339195D01*
X0346339Y0339364D01*
X0346249Y0339532D01*
X0346154Y0339697D01*
X0346056Y0339860D01*
X0345953Y0340020D01*
X0345847Y0340178D01*
X0345737Y0340333D01*
X0345624Y0340486D01*
X0345506Y0340636D01*
X0345385Y0340782D01*
X0345261Y0340926D01*
X0345133Y0341067D01*
X0345002Y0341205D01*
X0344867Y0341340D01*
X0344729Y0341471D01*
X0344588Y0341599D01*
X0344444Y0341723D01*
X0344298Y0341844D01*
X0344148Y0341962D01*
X0343995Y0342075D01*
X0343840Y0342185D01*
X0343682Y0342291D01*
X0343522Y0342394D01*
X0343359Y0342492D01*
X0343194Y0342587D01*
X0343026Y0342677D01*
X0342857Y0342763D01*
X0342685Y0342846D01*
X0342512Y0342924D01*
X0342336Y0342998D01*
X0342159Y0343067D01*
X0341980Y0343133D01*
X0341800Y0343194D01*
X0341619Y0343250D01*
X0341436Y0343302D01*
X0341251Y0343350D01*
X0341066Y0343393D01*
X0340880Y0343432D01*
X0340693Y0343467D01*
X0340505Y0343496D01*
X0340316Y0343522D01*
X0340127Y0343542D01*
X0339937Y0343558D01*
X0339747Y0343570D01*
X0339557Y0343577D01*
X0339367Y0343579D01*
X0040154Y0343579D01*
X0039964Y0343577D01*
X0039774Y0343570D01*
X0039584Y0343558D01*
X0039394Y0343542D01*
X0039205Y0343522D01*
X0039016Y0343496D01*
X0038828Y0343467D01*
X0038641Y0343432D01*
X0038455Y0343393D01*
X0038270Y0343350D01*
X0038085Y0343302D01*
X0037902Y0343250D01*
X0037721Y0343194D01*
X0037541Y0343133D01*
X0037362Y0343067D01*
X0037185Y0342998D01*
X0037009Y0342924D01*
X0036836Y0342846D01*
X0036664Y0342763D01*
X0036495Y0342677D01*
X0036327Y0342587D01*
X0036162Y0342492D01*
X0035999Y0342394D01*
X0035839Y0342291D01*
X0035681Y0342185D01*
X0035526Y0342075D01*
X0035373Y0341962D01*
X0035223Y0341844D01*
X0035077Y0341723D01*
X0034933Y0341599D01*
X0034792Y0341471D01*
X0034654Y0341340D01*
X0034519Y0341205D01*
X0034388Y0341067D01*
X0034260Y0340926D01*
X0034136Y0340782D01*
X0034015Y0340636D01*
X0033897Y0340486D01*
X0033784Y0340333D01*
X0033674Y0340178D01*
X0033568Y0340020D01*
X0033465Y0339860D01*
X0033367Y0339697D01*
X0033272Y0339532D01*
X0033182Y0339364D01*
X0033096Y0339195D01*
X0033013Y0339023D01*
X0032935Y0338850D01*
X0032861Y0338674D01*
X0032792Y0338497D01*
X0032726Y0338318D01*
X0032665Y0338138D01*
X0032609Y0337957D01*
X0032557Y0337774D01*
X0032509Y0337589D01*
X0032466Y0337404D01*
X0032427Y0337218D01*
X0032392Y0337031D01*
X0032363Y0336843D01*
X0032337Y0336654D01*
X0032317Y0336465D01*
X0032301Y0336275D01*
X0032289Y0336085D01*
X0032282Y0335895D01*
X0032280Y0335705D01*
X0032280Y0036492D01*
X0032282Y0036302D01*
X0032289Y0036112D01*
X0032301Y0035922D01*
X0032317Y0035732D01*
X0032337Y0035543D01*
X0032363Y0035354D01*
X0032392Y0035166D01*
X0032427Y0034979D01*
X0032466Y0034793D01*
X0032509Y0034608D01*
X0032557Y0034423D01*
X0032609Y0034240D01*
X0032665Y0034059D01*
X0032726Y0033879D01*
X0032792Y0033700D01*
X0032861Y0033523D01*
X0032935Y0033347D01*
X0033013Y0033174D01*
X0033096Y0033002D01*
X0033182Y0032833D01*
X0033272Y0032665D01*
X0033367Y0032500D01*
X0033465Y0032337D01*
X0033568Y0032177D01*
X0033674Y0032019D01*
X0033784Y0031864D01*
X0033897Y0031711D01*
X0034015Y0031561D01*
X0034136Y0031415D01*
X0034260Y0031271D01*
X0034388Y0031130D01*
X0034519Y0030992D01*
X0034654Y0030857D01*
X0034792Y0030726D01*
X0034933Y0030598D01*
X0035077Y0030474D01*
X0035223Y0030353D01*
X0035373Y0030235D01*
X0035526Y0030122D01*
X0035681Y0030012D01*
X0035839Y0029906D01*
X0035999Y0029803D01*
X0036162Y0029705D01*
X0036327Y0029610D01*
X0036495Y0029520D01*
X0036664Y0029434D01*
X0036836Y0029351D01*
X0037009Y0029273D01*
X0037185Y0029199D01*
X0037362Y0029130D01*
X0037541Y0029064D01*
X0037721Y0029003D01*
X0037902Y0028947D01*
X0038085Y0028895D01*
X0038270Y0028847D01*
X0038455Y0028804D01*
X0038641Y0028765D01*
X0038828Y0028730D01*
X0039016Y0028701D01*
X0039205Y0028675D01*
X0039394Y0028655D01*
X0039584Y0028639D01*
X0039774Y0028627D01*
X0039964Y0028620D01*
X0040154Y0028618D01*
X0037841Y0040429D02*
X0037843Y0040587D01*
X0037849Y0040744D01*
X0037859Y0040902D01*
X0037873Y0041059D01*
X0037891Y0041215D01*
X0037912Y0041372D01*
X0037938Y0041527D01*
X0037968Y0041682D01*
X0038001Y0041836D01*
X0038039Y0041989D01*
X0038080Y0042142D01*
X0038125Y0042293D01*
X0038174Y0042443D01*
X0038227Y0042591D01*
X0038283Y0042739D01*
X0038344Y0042884D01*
X0038407Y0043029D01*
X0038475Y0043171D01*
X0038546Y0043312D01*
X0038620Y0043451D01*
X0038698Y0043588D01*
X0038780Y0043723D01*
X0038864Y0043856D01*
X0038953Y0043987D01*
X0039044Y0044115D01*
X0039139Y0044242D01*
X0039236Y0044365D01*
X0039337Y0044487D01*
X0039441Y0044605D01*
X0039548Y0044721D01*
X0039658Y0044834D01*
X0039770Y0044945D01*
X0039886Y0045052D01*
X0040004Y0045157D01*
X0040124Y0045259D01*
X0040247Y0045357D01*
X0040373Y0045453D01*
X0040501Y0045545D01*
X0040631Y0045634D01*
X0040763Y0045720D01*
X0040898Y0045802D01*
X0041035Y0045881D01*
X0041173Y0045956D01*
X0041313Y0046028D01*
X0041456Y0046096D01*
X0041599Y0046161D01*
X0041745Y0046222D01*
X0041892Y0046279D01*
X0042040Y0046333D01*
X0042190Y0046383D01*
X0042340Y0046429D01*
X0042492Y0046471D01*
X0042645Y0046510D01*
X0042799Y0046544D01*
X0042954Y0046575D01*
X0043109Y0046601D01*
X0043265Y0046624D01*
X0043422Y0046643D01*
X0043579Y0046658D01*
X0043736Y0046669D01*
X0043894Y0046676D01*
X0044052Y0046679D01*
X0044209Y0046678D01*
X0044367Y0046673D01*
X0044524Y0046664D01*
X0044682Y0046651D01*
X0044838Y0046634D01*
X0044995Y0046613D01*
X0045150Y0046589D01*
X0045305Y0046560D01*
X0045460Y0046527D01*
X0045613Y0046491D01*
X0045766Y0046450D01*
X0045917Y0046406D01*
X0046067Y0046358D01*
X0046216Y0046307D01*
X0046364Y0046251D01*
X0046510Y0046192D01*
X0046655Y0046129D01*
X0046798Y0046062D01*
X0046939Y0045992D01*
X0047078Y0045919D01*
X0047216Y0045842D01*
X0047352Y0045761D01*
X0047485Y0045677D01*
X0047616Y0045590D01*
X0047745Y0045499D01*
X0047872Y0045405D01*
X0047997Y0045308D01*
X0048118Y0045208D01*
X0048238Y0045105D01*
X0048354Y0044999D01*
X0048468Y0044890D01*
X0048580Y0044778D01*
X0048688Y0044664D01*
X0048793Y0044546D01*
X0048896Y0044426D01*
X0048995Y0044304D01*
X0049091Y0044179D01*
X0049184Y0044051D01*
X0049274Y0043922D01*
X0049360Y0043790D01*
X0049444Y0043656D01*
X0049523Y0043520D01*
X0049600Y0043382D01*
X0049672Y0043242D01*
X0049741Y0043100D01*
X0049807Y0042957D01*
X0049869Y0042812D01*
X0049927Y0042665D01*
X0049982Y0042517D01*
X0050033Y0042368D01*
X0050080Y0042217D01*
X0050123Y0042066D01*
X0050162Y0041913D01*
X0050198Y0041759D01*
X0050229Y0041605D01*
X0050257Y0041450D01*
X0050281Y0041294D01*
X0050301Y0041137D01*
X0050317Y0040980D01*
X0050329Y0040823D01*
X0050337Y0040666D01*
X0050341Y0040508D01*
X0050341Y0040350D01*
X0050337Y0040192D01*
X0050329Y0040035D01*
X0050317Y0039878D01*
X0050301Y0039721D01*
X0050281Y0039564D01*
X0050257Y0039408D01*
X0050229Y0039253D01*
X0050198Y0039099D01*
X0050162Y0038945D01*
X0050123Y0038792D01*
X0050080Y0038641D01*
X0050033Y0038490D01*
X0049982Y0038341D01*
X0049927Y0038193D01*
X0049869Y0038046D01*
X0049807Y0037901D01*
X0049741Y0037758D01*
X0049672Y0037616D01*
X0049600Y0037476D01*
X0049523Y0037338D01*
X0049444Y0037202D01*
X0049360Y0037068D01*
X0049274Y0036936D01*
X0049184Y0036807D01*
X0049091Y0036679D01*
X0048995Y0036554D01*
X0048896Y0036432D01*
X0048793Y0036312D01*
X0048688Y0036194D01*
X0048580Y0036080D01*
X0048468Y0035968D01*
X0048354Y0035859D01*
X0048238Y0035753D01*
X0048118Y0035650D01*
X0047997Y0035550D01*
X0047872Y0035453D01*
X0047745Y0035359D01*
X0047616Y0035268D01*
X0047485Y0035181D01*
X0047352Y0035097D01*
X0047216Y0035016D01*
X0047078Y0034939D01*
X0046939Y0034866D01*
X0046798Y0034796D01*
X0046655Y0034729D01*
X0046510Y0034666D01*
X0046364Y0034607D01*
X0046216Y0034551D01*
X0046067Y0034500D01*
X0045917Y0034452D01*
X0045766Y0034408D01*
X0045613Y0034367D01*
X0045460Y0034331D01*
X0045305Y0034298D01*
X0045150Y0034269D01*
X0044995Y0034245D01*
X0044838Y0034224D01*
X0044682Y0034207D01*
X0044524Y0034194D01*
X0044367Y0034185D01*
X0044209Y0034180D01*
X0044052Y0034179D01*
X0043894Y0034182D01*
X0043736Y0034189D01*
X0043579Y0034200D01*
X0043422Y0034215D01*
X0043265Y0034234D01*
X0043109Y0034257D01*
X0042954Y0034283D01*
X0042799Y0034314D01*
X0042645Y0034348D01*
X0042492Y0034387D01*
X0042340Y0034429D01*
X0042190Y0034475D01*
X0042040Y0034525D01*
X0041892Y0034579D01*
X0041745Y0034636D01*
X0041599Y0034697D01*
X0041456Y0034762D01*
X0041313Y0034830D01*
X0041173Y0034902D01*
X0041035Y0034977D01*
X0040898Y0035056D01*
X0040763Y0035138D01*
X0040631Y0035224D01*
X0040501Y0035313D01*
X0040373Y0035405D01*
X0040247Y0035501D01*
X0040124Y0035599D01*
X0040004Y0035701D01*
X0039886Y0035806D01*
X0039770Y0035913D01*
X0039658Y0036024D01*
X0039548Y0036137D01*
X0039441Y0036253D01*
X0039337Y0036371D01*
X0039236Y0036493D01*
X0039139Y0036616D01*
X0039044Y0036743D01*
X0038953Y0036871D01*
X0038864Y0037002D01*
X0038780Y0037135D01*
X0038698Y0037270D01*
X0038620Y0037407D01*
X0038546Y0037546D01*
X0038475Y0037687D01*
X0038407Y0037829D01*
X0038344Y0037974D01*
X0038283Y0038119D01*
X0038227Y0038267D01*
X0038174Y0038415D01*
X0038125Y0038565D01*
X0038080Y0038716D01*
X0038039Y0038869D01*
X0038001Y0039022D01*
X0037968Y0039176D01*
X0037938Y0039331D01*
X0037912Y0039486D01*
X0037891Y0039643D01*
X0037873Y0039799D01*
X0037859Y0039956D01*
X0037849Y0040114D01*
X0037843Y0040271D01*
X0037841Y0040429D01*
X0329180Y0040429D02*
X0329182Y0040587D01*
X0329188Y0040744D01*
X0329198Y0040902D01*
X0329212Y0041059D01*
X0329230Y0041215D01*
X0329251Y0041372D01*
X0329277Y0041527D01*
X0329307Y0041682D01*
X0329340Y0041836D01*
X0329378Y0041989D01*
X0329419Y0042142D01*
X0329464Y0042293D01*
X0329513Y0042443D01*
X0329566Y0042591D01*
X0329622Y0042739D01*
X0329683Y0042884D01*
X0329746Y0043029D01*
X0329814Y0043171D01*
X0329885Y0043312D01*
X0329959Y0043451D01*
X0330037Y0043588D01*
X0330119Y0043723D01*
X0330203Y0043856D01*
X0330292Y0043987D01*
X0330383Y0044115D01*
X0330478Y0044242D01*
X0330575Y0044365D01*
X0330676Y0044487D01*
X0330780Y0044605D01*
X0330887Y0044721D01*
X0330997Y0044834D01*
X0331109Y0044945D01*
X0331225Y0045052D01*
X0331343Y0045157D01*
X0331463Y0045259D01*
X0331586Y0045357D01*
X0331712Y0045453D01*
X0331840Y0045545D01*
X0331970Y0045634D01*
X0332102Y0045720D01*
X0332237Y0045802D01*
X0332374Y0045881D01*
X0332512Y0045956D01*
X0332652Y0046028D01*
X0332795Y0046096D01*
X0332938Y0046161D01*
X0333084Y0046222D01*
X0333231Y0046279D01*
X0333379Y0046333D01*
X0333529Y0046383D01*
X0333679Y0046429D01*
X0333831Y0046471D01*
X0333984Y0046510D01*
X0334138Y0046544D01*
X0334293Y0046575D01*
X0334448Y0046601D01*
X0334604Y0046624D01*
X0334761Y0046643D01*
X0334918Y0046658D01*
X0335075Y0046669D01*
X0335233Y0046676D01*
X0335391Y0046679D01*
X0335548Y0046678D01*
X0335706Y0046673D01*
X0335863Y0046664D01*
X0336021Y0046651D01*
X0336177Y0046634D01*
X0336334Y0046613D01*
X0336489Y0046589D01*
X0336644Y0046560D01*
X0336799Y0046527D01*
X0336952Y0046491D01*
X0337105Y0046450D01*
X0337256Y0046406D01*
X0337406Y0046358D01*
X0337555Y0046307D01*
X0337703Y0046251D01*
X0337849Y0046192D01*
X0337994Y0046129D01*
X0338137Y0046062D01*
X0338278Y0045992D01*
X0338417Y0045919D01*
X0338555Y0045842D01*
X0338691Y0045761D01*
X0338824Y0045677D01*
X0338955Y0045590D01*
X0339084Y0045499D01*
X0339211Y0045405D01*
X0339336Y0045308D01*
X0339457Y0045208D01*
X0339577Y0045105D01*
X0339693Y0044999D01*
X0339807Y0044890D01*
X0339919Y0044778D01*
X0340027Y0044664D01*
X0340132Y0044546D01*
X0340235Y0044426D01*
X0340334Y0044304D01*
X0340430Y0044179D01*
X0340523Y0044051D01*
X0340613Y0043922D01*
X0340699Y0043790D01*
X0340783Y0043656D01*
X0340862Y0043520D01*
X0340939Y0043382D01*
X0341011Y0043242D01*
X0341080Y0043100D01*
X0341146Y0042957D01*
X0341208Y0042812D01*
X0341266Y0042665D01*
X0341321Y0042517D01*
X0341372Y0042368D01*
X0341419Y0042217D01*
X0341462Y0042066D01*
X0341501Y0041913D01*
X0341537Y0041759D01*
X0341568Y0041605D01*
X0341596Y0041450D01*
X0341620Y0041294D01*
X0341640Y0041137D01*
X0341656Y0040980D01*
X0341668Y0040823D01*
X0341676Y0040666D01*
X0341680Y0040508D01*
X0341680Y0040350D01*
X0341676Y0040192D01*
X0341668Y0040035D01*
X0341656Y0039878D01*
X0341640Y0039721D01*
X0341620Y0039564D01*
X0341596Y0039408D01*
X0341568Y0039253D01*
X0341537Y0039099D01*
X0341501Y0038945D01*
X0341462Y0038792D01*
X0341419Y0038641D01*
X0341372Y0038490D01*
X0341321Y0038341D01*
X0341266Y0038193D01*
X0341208Y0038046D01*
X0341146Y0037901D01*
X0341080Y0037758D01*
X0341011Y0037616D01*
X0340939Y0037476D01*
X0340862Y0037338D01*
X0340783Y0037202D01*
X0340699Y0037068D01*
X0340613Y0036936D01*
X0340523Y0036807D01*
X0340430Y0036679D01*
X0340334Y0036554D01*
X0340235Y0036432D01*
X0340132Y0036312D01*
X0340027Y0036194D01*
X0339919Y0036080D01*
X0339807Y0035968D01*
X0339693Y0035859D01*
X0339577Y0035753D01*
X0339457Y0035650D01*
X0339336Y0035550D01*
X0339211Y0035453D01*
X0339084Y0035359D01*
X0338955Y0035268D01*
X0338824Y0035181D01*
X0338691Y0035097D01*
X0338555Y0035016D01*
X0338417Y0034939D01*
X0338278Y0034866D01*
X0338137Y0034796D01*
X0337994Y0034729D01*
X0337849Y0034666D01*
X0337703Y0034607D01*
X0337555Y0034551D01*
X0337406Y0034500D01*
X0337256Y0034452D01*
X0337105Y0034408D01*
X0336952Y0034367D01*
X0336799Y0034331D01*
X0336644Y0034298D01*
X0336489Y0034269D01*
X0336334Y0034245D01*
X0336177Y0034224D01*
X0336021Y0034207D01*
X0335863Y0034194D01*
X0335706Y0034185D01*
X0335548Y0034180D01*
X0335391Y0034179D01*
X0335233Y0034182D01*
X0335075Y0034189D01*
X0334918Y0034200D01*
X0334761Y0034215D01*
X0334604Y0034234D01*
X0334448Y0034257D01*
X0334293Y0034283D01*
X0334138Y0034314D01*
X0333984Y0034348D01*
X0333831Y0034387D01*
X0333679Y0034429D01*
X0333529Y0034475D01*
X0333379Y0034525D01*
X0333231Y0034579D01*
X0333084Y0034636D01*
X0332938Y0034697D01*
X0332795Y0034762D01*
X0332652Y0034830D01*
X0332512Y0034902D01*
X0332374Y0034977D01*
X0332237Y0035056D01*
X0332102Y0035138D01*
X0331970Y0035224D01*
X0331840Y0035313D01*
X0331712Y0035405D01*
X0331586Y0035501D01*
X0331463Y0035599D01*
X0331343Y0035701D01*
X0331225Y0035806D01*
X0331109Y0035913D01*
X0330997Y0036024D01*
X0330887Y0036137D01*
X0330780Y0036253D01*
X0330676Y0036371D01*
X0330575Y0036493D01*
X0330478Y0036616D01*
X0330383Y0036743D01*
X0330292Y0036871D01*
X0330203Y0037002D01*
X0330119Y0037135D01*
X0330037Y0037270D01*
X0329959Y0037407D01*
X0329885Y0037546D01*
X0329814Y0037687D01*
X0329746Y0037829D01*
X0329683Y0037974D01*
X0329622Y0038119D01*
X0329566Y0038267D01*
X0329513Y0038415D01*
X0329464Y0038565D01*
X0329419Y0038716D01*
X0329378Y0038869D01*
X0329340Y0039022D01*
X0329307Y0039176D01*
X0329277Y0039331D01*
X0329251Y0039486D01*
X0329230Y0039643D01*
X0329212Y0039799D01*
X0329198Y0039956D01*
X0329188Y0040114D01*
X0329182Y0040271D01*
X0329180Y0040429D01*
X0329180Y0331768D02*
X0329182Y0331926D01*
X0329188Y0332083D01*
X0329198Y0332241D01*
X0329212Y0332398D01*
X0329230Y0332554D01*
X0329251Y0332711D01*
X0329277Y0332866D01*
X0329307Y0333021D01*
X0329340Y0333175D01*
X0329378Y0333328D01*
X0329419Y0333481D01*
X0329464Y0333632D01*
X0329513Y0333782D01*
X0329566Y0333930D01*
X0329622Y0334078D01*
X0329683Y0334223D01*
X0329746Y0334368D01*
X0329814Y0334510D01*
X0329885Y0334651D01*
X0329959Y0334790D01*
X0330037Y0334927D01*
X0330119Y0335062D01*
X0330203Y0335195D01*
X0330292Y0335326D01*
X0330383Y0335454D01*
X0330478Y0335581D01*
X0330575Y0335704D01*
X0330676Y0335826D01*
X0330780Y0335944D01*
X0330887Y0336060D01*
X0330997Y0336173D01*
X0331109Y0336284D01*
X0331225Y0336391D01*
X0331343Y0336496D01*
X0331463Y0336598D01*
X0331586Y0336696D01*
X0331712Y0336792D01*
X0331840Y0336884D01*
X0331970Y0336973D01*
X0332102Y0337059D01*
X0332237Y0337141D01*
X0332374Y0337220D01*
X0332512Y0337295D01*
X0332652Y0337367D01*
X0332795Y0337435D01*
X0332938Y0337500D01*
X0333084Y0337561D01*
X0333231Y0337618D01*
X0333379Y0337672D01*
X0333529Y0337722D01*
X0333679Y0337768D01*
X0333831Y0337810D01*
X0333984Y0337849D01*
X0334138Y0337883D01*
X0334293Y0337914D01*
X0334448Y0337940D01*
X0334604Y0337963D01*
X0334761Y0337982D01*
X0334918Y0337997D01*
X0335075Y0338008D01*
X0335233Y0338015D01*
X0335391Y0338018D01*
X0335548Y0338017D01*
X0335706Y0338012D01*
X0335863Y0338003D01*
X0336021Y0337990D01*
X0336177Y0337973D01*
X0336334Y0337952D01*
X0336489Y0337928D01*
X0336644Y0337899D01*
X0336799Y0337866D01*
X0336952Y0337830D01*
X0337105Y0337789D01*
X0337256Y0337745D01*
X0337406Y0337697D01*
X0337555Y0337646D01*
X0337703Y0337590D01*
X0337849Y0337531D01*
X0337994Y0337468D01*
X0338137Y0337401D01*
X0338278Y0337331D01*
X0338417Y0337258D01*
X0338555Y0337181D01*
X0338691Y0337100D01*
X0338824Y0337016D01*
X0338955Y0336929D01*
X0339084Y0336838D01*
X0339211Y0336744D01*
X0339336Y0336647D01*
X0339457Y0336547D01*
X0339577Y0336444D01*
X0339693Y0336338D01*
X0339807Y0336229D01*
X0339919Y0336117D01*
X0340027Y0336003D01*
X0340132Y0335885D01*
X0340235Y0335765D01*
X0340334Y0335643D01*
X0340430Y0335518D01*
X0340523Y0335390D01*
X0340613Y0335261D01*
X0340699Y0335129D01*
X0340783Y0334995D01*
X0340862Y0334859D01*
X0340939Y0334721D01*
X0341011Y0334581D01*
X0341080Y0334439D01*
X0341146Y0334296D01*
X0341208Y0334151D01*
X0341266Y0334004D01*
X0341321Y0333856D01*
X0341372Y0333707D01*
X0341419Y0333556D01*
X0341462Y0333405D01*
X0341501Y0333252D01*
X0341537Y0333098D01*
X0341568Y0332944D01*
X0341596Y0332789D01*
X0341620Y0332633D01*
X0341640Y0332476D01*
X0341656Y0332319D01*
X0341668Y0332162D01*
X0341676Y0332005D01*
X0341680Y0331847D01*
X0341680Y0331689D01*
X0341676Y0331531D01*
X0341668Y0331374D01*
X0341656Y0331217D01*
X0341640Y0331060D01*
X0341620Y0330903D01*
X0341596Y0330747D01*
X0341568Y0330592D01*
X0341537Y0330438D01*
X0341501Y0330284D01*
X0341462Y0330131D01*
X0341419Y0329980D01*
X0341372Y0329829D01*
X0341321Y0329680D01*
X0341266Y0329532D01*
X0341208Y0329385D01*
X0341146Y0329240D01*
X0341080Y0329097D01*
X0341011Y0328955D01*
X0340939Y0328815D01*
X0340862Y0328677D01*
X0340783Y0328541D01*
X0340699Y0328407D01*
X0340613Y0328275D01*
X0340523Y0328146D01*
X0340430Y0328018D01*
X0340334Y0327893D01*
X0340235Y0327771D01*
X0340132Y0327651D01*
X0340027Y0327533D01*
X0339919Y0327419D01*
X0339807Y0327307D01*
X0339693Y0327198D01*
X0339577Y0327092D01*
X0339457Y0326989D01*
X0339336Y0326889D01*
X0339211Y0326792D01*
X0339084Y0326698D01*
X0338955Y0326607D01*
X0338824Y0326520D01*
X0338691Y0326436D01*
X0338555Y0326355D01*
X0338417Y0326278D01*
X0338278Y0326205D01*
X0338137Y0326135D01*
X0337994Y0326068D01*
X0337849Y0326005D01*
X0337703Y0325946D01*
X0337555Y0325890D01*
X0337406Y0325839D01*
X0337256Y0325791D01*
X0337105Y0325747D01*
X0336952Y0325706D01*
X0336799Y0325670D01*
X0336644Y0325637D01*
X0336489Y0325608D01*
X0336334Y0325584D01*
X0336177Y0325563D01*
X0336021Y0325546D01*
X0335863Y0325533D01*
X0335706Y0325524D01*
X0335548Y0325519D01*
X0335391Y0325518D01*
X0335233Y0325521D01*
X0335075Y0325528D01*
X0334918Y0325539D01*
X0334761Y0325554D01*
X0334604Y0325573D01*
X0334448Y0325596D01*
X0334293Y0325622D01*
X0334138Y0325653D01*
X0333984Y0325687D01*
X0333831Y0325726D01*
X0333679Y0325768D01*
X0333529Y0325814D01*
X0333379Y0325864D01*
X0333231Y0325918D01*
X0333084Y0325975D01*
X0332938Y0326036D01*
X0332795Y0326101D01*
X0332652Y0326169D01*
X0332512Y0326241D01*
X0332374Y0326316D01*
X0332237Y0326395D01*
X0332102Y0326477D01*
X0331970Y0326563D01*
X0331840Y0326652D01*
X0331712Y0326744D01*
X0331586Y0326840D01*
X0331463Y0326938D01*
X0331343Y0327040D01*
X0331225Y0327145D01*
X0331109Y0327252D01*
X0330997Y0327363D01*
X0330887Y0327476D01*
X0330780Y0327592D01*
X0330676Y0327710D01*
X0330575Y0327832D01*
X0330478Y0327955D01*
X0330383Y0328082D01*
X0330292Y0328210D01*
X0330203Y0328341D01*
X0330119Y0328474D01*
X0330037Y0328609D01*
X0329959Y0328746D01*
X0329885Y0328885D01*
X0329814Y0329026D01*
X0329746Y0329168D01*
X0329683Y0329313D01*
X0329622Y0329458D01*
X0329566Y0329606D01*
X0329513Y0329754D01*
X0329464Y0329904D01*
X0329419Y0330055D01*
X0329378Y0330208D01*
X0329340Y0330361D01*
X0329307Y0330515D01*
X0329277Y0330670D01*
X0329251Y0330825D01*
X0329230Y0330982D01*
X0329212Y0331138D01*
X0329198Y0331295D01*
X0329188Y0331453D01*
X0329182Y0331610D01*
X0329180Y0331768D01*
X0037841Y0331768D02*
X0037843Y0331926D01*
X0037849Y0332083D01*
X0037859Y0332241D01*
X0037873Y0332398D01*
X0037891Y0332554D01*
X0037912Y0332711D01*
X0037938Y0332866D01*
X0037968Y0333021D01*
X0038001Y0333175D01*
X0038039Y0333328D01*
X0038080Y0333481D01*
X0038125Y0333632D01*
X0038174Y0333782D01*
X0038227Y0333930D01*
X0038283Y0334078D01*
X0038344Y0334223D01*
X0038407Y0334368D01*
X0038475Y0334510D01*
X0038546Y0334651D01*
X0038620Y0334790D01*
X0038698Y0334927D01*
X0038780Y0335062D01*
X0038864Y0335195D01*
X0038953Y0335326D01*
X0039044Y0335454D01*
X0039139Y0335581D01*
X0039236Y0335704D01*
X0039337Y0335826D01*
X0039441Y0335944D01*
X0039548Y0336060D01*
X0039658Y0336173D01*
X0039770Y0336284D01*
X0039886Y0336391D01*
X0040004Y0336496D01*
X0040124Y0336598D01*
X0040247Y0336696D01*
X0040373Y0336792D01*
X0040501Y0336884D01*
X0040631Y0336973D01*
X0040763Y0337059D01*
X0040898Y0337141D01*
X0041035Y0337220D01*
X0041173Y0337295D01*
X0041313Y0337367D01*
X0041456Y0337435D01*
X0041599Y0337500D01*
X0041745Y0337561D01*
X0041892Y0337618D01*
X0042040Y0337672D01*
X0042190Y0337722D01*
X0042340Y0337768D01*
X0042492Y0337810D01*
X0042645Y0337849D01*
X0042799Y0337883D01*
X0042954Y0337914D01*
X0043109Y0337940D01*
X0043265Y0337963D01*
X0043422Y0337982D01*
X0043579Y0337997D01*
X0043736Y0338008D01*
X0043894Y0338015D01*
X0044052Y0338018D01*
X0044209Y0338017D01*
X0044367Y0338012D01*
X0044524Y0338003D01*
X0044682Y0337990D01*
X0044838Y0337973D01*
X0044995Y0337952D01*
X0045150Y0337928D01*
X0045305Y0337899D01*
X0045460Y0337866D01*
X0045613Y0337830D01*
X0045766Y0337789D01*
X0045917Y0337745D01*
X0046067Y0337697D01*
X0046216Y0337646D01*
X0046364Y0337590D01*
X0046510Y0337531D01*
X0046655Y0337468D01*
X0046798Y0337401D01*
X0046939Y0337331D01*
X0047078Y0337258D01*
X0047216Y0337181D01*
X0047352Y0337100D01*
X0047485Y0337016D01*
X0047616Y0336929D01*
X0047745Y0336838D01*
X0047872Y0336744D01*
X0047997Y0336647D01*
X0048118Y0336547D01*
X0048238Y0336444D01*
X0048354Y0336338D01*
X0048468Y0336229D01*
X0048580Y0336117D01*
X0048688Y0336003D01*
X0048793Y0335885D01*
X0048896Y0335765D01*
X0048995Y0335643D01*
X0049091Y0335518D01*
X0049184Y0335390D01*
X0049274Y0335261D01*
X0049360Y0335129D01*
X0049444Y0334995D01*
X0049523Y0334859D01*
X0049600Y0334721D01*
X0049672Y0334581D01*
X0049741Y0334439D01*
X0049807Y0334296D01*
X0049869Y0334151D01*
X0049927Y0334004D01*
X0049982Y0333856D01*
X0050033Y0333707D01*
X0050080Y0333556D01*
X0050123Y0333405D01*
X0050162Y0333252D01*
X0050198Y0333098D01*
X0050229Y0332944D01*
X0050257Y0332789D01*
X0050281Y0332633D01*
X0050301Y0332476D01*
X0050317Y0332319D01*
X0050329Y0332162D01*
X0050337Y0332005D01*
X0050341Y0331847D01*
X0050341Y0331689D01*
X0050337Y0331531D01*
X0050329Y0331374D01*
X0050317Y0331217D01*
X0050301Y0331060D01*
X0050281Y0330903D01*
X0050257Y0330747D01*
X0050229Y0330592D01*
X0050198Y0330438D01*
X0050162Y0330284D01*
X0050123Y0330131D01*
X0050080Y0329980D01*
X0050033Y0329829D01*
X0049982Y0329680D01*
X0049927Y0329532D01*
X0049869Y0329385D01*
X0049807Y0329240D01*
X0049741Y0329097D01*
X0049672Y0328955D01*
X0049600Y0328815D01*
X0049523Y0328677D01*
X0049444Y0328541D01*
X0049360Y0328407D01*
X0049274Y0328275D01*
X0049184Y0328146D01*
X0049091Y0328018D01*
X0048995Y0327893D01*
X0048896Y0327771D01*
X0048793Y0327651D01*
X0048688Y0327533D01*
X0048580Y0327419D01*
X0048468Y0327307D01*
X0048354Y0327198D01*
X0048238Y0327092D01*
X0048118Y0326989D01*
X0047997Y0326889D01*
X0047872Y0326792D01*
X0047745Y0326698D01*
X0047616Y0326607D01*
X0047485Y0326520D01*
X0047352Y0326436D01*
X0047216Y0326355D01*
X0047078Y0326278D01*
X0046939Y0326205D01*
X0046798Y0326135D01*
X0046655Y0326068D01*
X0046510Y0326005D01*
X0046364Y0325946D01*
X0046216Y0325890D01*
X0046067Y0325839D01*
X0045917Y0325791D01*
X0045766Y0325747D01*
X0045613Y0325706D01*
X0045460Y0325670D01*
X0045305Y0325637D01*
X0045150Y0325608D01*
X0044995Y0325584D01*
X0044838Y0325563D01*
X0044682Y0325546D01*
X0044524Y0325533D01*
X0044367Y0325524D01*
X0044209Y0325519D01*
X0044052Y0325518D01*
X0043894Y0325521D01*
X0043736Y0325528D01*
X0043579Y0325539D01*
X0043422Y0325554D01*
X0043265Y0325573D01*
X0043109Y0325596D01*
X0042954Y0325622D01*
X0042799Y0325653D01*
X0042645Y0325687D01*
X0042492Y0325726D01*
X0042340Y0325768D01*
X0042190Y0325814D01*
X0042040Y0325864D01*
X0041892Y0325918D01*
X0041745Y0325975D01*
X0041599Y0326036D01*
X0041456Y0326101D01*
X0041313Y0326169D01*
X0041173Y0326241D01*
X0041035Y0326316D01*
X0040898Y0326395D01*
X0040763Y0326477D01*
X0040631Y0326563D01*
X0040501Y0326652D01*
X0040373Y0326744D01*
X0040247Y0326840D01*
X0040124Y0326938D01*
X0040004Y0327040D01*
X0039886Y0327145D01*
X0039770Y0327252D01*
X0039658Y0327363D01*
X0039548Y0327476D01*
X0039441Y0327592D01*
X0039337Y0327710D01*
X0039236Y0327832D01*
X0039139Y0327955D01*
X0039044Y0328082D01*
X0038953Y0328210D01*
X0038864Y0328341D01*
X0038780Y0328474D01*
X0038698Y0328609D01*
X0038620Y0328746D01*
X0038546Y0328885D01*
X0038475Y0329026D01*
X0038407Y0329168D01*
X0038344Y0329313D01*
X0038283Y0329458D01*
X0038227Y0329606D01*
X0038174Y0329754D01*
X0038125Y0329904D01*
X0038080Y0330055D01*
X0038039Y0330208D01*
X0038001Y0330361D01*
X0037968Y0330515D01*
X0037938Y0330670D01*
X0037912Y0330825D01*
X0037891Y0330982D01*
X0037873Y0331138D01*
X0037859Y0331295D01*
X0037849Y0331453D01*
X0037843Y0331610D01*
X0037841Y0331768D01*
D11*
X0147241Y0332791D02*
X0147241Y0329642D01*
X0147241Y0311295D02*
X0147241Y0304209D01*
X0204327Y0304209D02*
X0204327Y0311295D01*
X0204327Y0329642D02*
X0204327Y0332791D01*
X0248422Y0332791D02*
X0248422Y0329642D01*
X0248422Y0311295D02*
X0248422Y0304209D01*
X0305509Y0304209D02*
X0305509Y0311295D01*
X0305509Y0329642D02*
X0305509Y0332791D01*
M02*
