G75*
%MOIN*%
%OFA0B0*%
%FSLAX25Y25*%
%IPPOS*%
%LPD*%
%AMOC8*
5,1,8,0,0,1.08239X$1,22.5*
%
%ADD10C,0.13000*%
%ADD11R,0.04831X0.04437*%
%ADD12OC8,0.07900*%
%ADD13R,0.04437X0.04831*%
%ADD14R,0.06406X0.05618*%
%ADD15R,0.07587X0.06799*%
%ADD16R,0.04043X0.03650*%
%ADD17R,0.05618X0.06406*%
%ADD18R,0.07587X0.06012*%
%ADD19C,0.06406*%
%ADD20C,0.06862*%
%ADD21R,0.05618X0.06602*%
%ADD22C,0.10500*%
%ADD23R,0.04437X0.22154*%
%ADD24R,0.06799X0.12311*%
%ADD25R,0.07900X0.07900*%
%ADD26C,0.07900*%
%ADD27R,0.10500X0.15500*%
%ADD28C,0.03600*%
D10*
X0044091Y0040429D03*
X0335430Y0040429D03*
X0335430Y0331768D03*
X0044091Y0331768D03*
D11*
X0247280Y0241965D03*
X0247280Y0235272D03*
X0223127Y0141118D03*
X0216434Y0141118D03*
X0208127Y0138618D03*
X0201434Y0138618D03*
X0201434Y0126118D03*
X0208127Y0126118D03*
X0216434Y0126118D03*
X0223127Y0126118D03*
X0105627Y0071118D03*
X0098934Y0071118D03*
X0072280Y0072772D03*
X0072280Y0079465D03*
X0072280Y0105272D03*
X0072280Y0111965D03*
D12*
X0327280Y0118618D03*
X0337280Y0118618D03*
X0337280Y0128618D03*
X0327280Y0128618D03*
X0327280Y0138618D03*
X0337280Y0138618D03*
X0337280Y0148618D03*
X0327280Y0148618D03*
X0327280Y0158618D03*
X0337280Y0158618D03*
X0337280Y0168618D03*
X0327280Y0168618D03*
X0327280Y0188618D03*
X0327280Y0198618D03*
X0337280Y0198618D03*
X0337280Y0188618D03*
X0337280Y0208618D03*
X0327280Y0208618D03*
X0327280Y0218618D03*
X0337280Y0218618D03*
X0337280Y0228618D03*
X0327280Y0228618D03*
X0327280Y0238618D03*
X0337280Y0238618D03*
D13*
X0330627Y0276118D03*
X0323934Y0276118D03*
X0230627Y0221118D03*
X0223934Y0221118D03*
X0112280Y0134465D03*
X0112280Y0127772D03*
X0105627Y0086118D03*
X0098934Y0086118D03*
X0098934Y0078618D03*
X0105627Y0078618D03*
X0328934Y0081118D03*
X0335627Y0081118D03*
D14*
X0102280Y0127378D03*
X0102280Y0134858D03*
X0092280Y0134858D03*
X0092280Y0127378D03*
X0042280Y0267378D03*
X0042280Y0274858D03*
X0052280Y0287378D03*
X0052280Y0294858D03*
D15*
X0082280Y0139130D03*
X0082280Y0128106D03*
D16*
X0265449Y0213618D03*
X0273717Y0209878D03*
X0273717Y0217358D03*
D17*
X0253520Y0216118D03*
X0246040Y0216118D03*
D18*
X0282280Y0221925D03*
X0282280Y0235311D03*
D19*
X0248422Y0328264D02*
X0248422Y0334169D01*
X0147241Y0334169D02*
X0147241Y0328264D01*
D20*
X0147241Y0311295D02*
X0147241Y0304209D01*
X0204327Y0304209D02*
X0204327Y0311295D01*
X0204327Y0328035D02*
X0204327Y0334398D01*
X0248422Y0311295D02*
X0248422Y0304209D01*
X0305509Y0304209D02*
X0305509Y0311295D01*
X0305509Y0328035D02*
X0305509Y0334398D01*
D21*
X0318422Y0316768D03*
X0336138Y0316768D03*
X0336138Y0285469D03*
X0318422Y0285469D03*
D22*
X0102123Y0308618D03*
X0082438Y0308618D03*
D23*
X0289406Y0059799D03*
X0297280Y0059799D03*
X0305154Y0059799D03*
D24*
X0314603Y0050941D03*
X0279957Y0050941D03*
D25*
X0077280Y0158618D03*
D26*
X0077280Y0168618D03*
X0077280Y0178618D03*
X0077280Y0188618D03*
X0077280Y0198618D03*
X0077280Y0208618D03*
X0077280Y0218618D03*
X0077280Y0228618D03*
D27*
X0181276Y0068618D03*
X0263284Y0068618D03*
D28*
X0252280Y0061118D03*
X0247280Y0056118D03*
X0247280Y0051118D03*
X0247280Y0041118D03*
X0232280Y0036118D03*
X0212280Y0043618D03*
X0212280Y0051118D03*
X0212280Y0056118D03*
X0207280Y0063618D03*
X0204780Y0078618D03*
X0197280Y0081118D03*
X0192280Y0081118D03*
X0174780Y0086118D03*
X0186030Y0098618D03*
X0189780Y0107368D03*
X0174780Y0108618D03*
X0172280Y0113618D03*
X0174780Y0121118D03*
X0174780Y0126118D03*
X0174780Y0131118D03*
X0164780Y0123618D03*
X0154780Y0131118D03*
X0152280Y0121118D03*
X0149780Y0116118D03*
X0137280Y0123618D03*
X0134780Y0118618D03*
X0132280Y0113618D03*
X0137280Y0106118D03*
X0132280Y0096118D03*
X0132280Y0091118D03*
X0139780Y0083618D03*
X0157280Y0078618D03*
X0152280Y0066118D03*
X0167280Y0066118D03*
X0177280Y0056118D03*
X0194780Y0041118D03*
X0177280Y0036118D03*
X0137280Y0066118D03*
X0112280Y0063618D03*
X0107280Y0063618D03*
X0102280Y0063618D03*
X0097280Y0063618D03*
X0092280Y0063618D03*
X0087280Y0063618D03*
X0082280Y0063618D03*
X0077280Y0063618D03*
X0072280Y0063618D03*
X0067280Y0063618D03*
X0079780Y0077368D03*
X0089780Y0073618D03*
X0089780Y0088618D03*
X0092280Y0098618D03*
X0082280Y0106118D03*
X0092280Y0113618D03*
X0109780Y0111118D03*
X0114780Y0121118D03*
X0132280Y0138618D03*
X0127280Y0141118D03*
X0122280Y0143618D03*
X0114780Y0143618D03*
X0127280Y0158618D03*
X0132280Y0158618D03*
X0122280Y0161118D03*
X0119780Y0166118D03*
X0114780Y0168618D03*
X0109780Y0176118D03*
X0107280Y0181118D03*
X0099780Y0191118D03*
X0094780Y0188618D03*
X0104780Y0196118D03*
X0089780Y0203618D03*
X0092280Y0212368D03*
X0108530Y0217368D03*
X0104780Y0226118D03*
X0094780Y0231118D03*
X0081030Y0242368D03*
X0069780Y0241118D03*
X0069780Y0236118D03*
X0064780Y0236118D03*
X0059780Y0236118D03*
X0059780Y0231118D03*
X0054780Y0231118D03*
X0052280Y0236118D03*
X0047280Y0236118D03*
X0042280Y0236118D03*
X0037280Y0236118D03*
X0037280Y0231118D03*
X0042280Y0231118D03*
X0047280Y0231118D03*
X0042280Y0226118D03*
X0037280Y0226118D03*
X0037280Y0221118D03*
X0037280Y0216118D03*
X0042280Y0216118D03*
X0042280Y0221118D03*
X0044780Y0203618D03*
X0064780Y0216118D03*
X0064780Y0221118D03*
X0064780Y0226118D03*
X0069780Y0226118D03*
X0069780Y0221118D03*
X0069780Y0216118D03*
X0068530Y0208618D03*
X0067280Y0193618D03*
X0067280Y0178618D03*
X0052280Y0171118D03*
X0067280Y0163618D03*
X0064780Y0148618D03*
X0074780Y0146118D03*
X0064780Y0141118D03*
X0072280Y0136118D03*
X0054780Y0138618D03*
X0054780Y0143618D03*
X0054780Y0151118D03*
X0042280Y0158618D03*
X0042280Y0181118D03*
X0089780Y0153618D03*
X0052280Y0131118D03*
X0067280Y0121118D03*
X0047280Y0103618D03*
X0047280Y0096118D03*
X0047280Y0082368D03*
X0072280Y0096118D03*
X0104780Y0098618D03*
X0112280Y0083618D03*
X0112280Y0071118D03*
X0167280Y0103618D03*
X0187280Y0131118D03*
X0187280Y0138618D03*
X0192280Y0148618D03*
X0197280Y0148618D03*
X0194780Y0153618D03*
X0182280Y0153618D03*
X0177280Y0153618D03*
X0169780Y0146118D03*
X0164780Y0146118D03*
X0157280Y0153618D03*
X0152280Y0143618D03*
X0142280Y0151118D03*
X0142280Y0163618D03*
X0144780Y0168618D03*
X0152280Y0166118D03*
X0154780Y0171118D03*
X0159780Y0171118D03*
X0184780Y0171118D03*
X0196030Y0169868D03*
X0189780Y0176118D03*
X0184780Y0176118D03*
X0184780Y0181118D03*
X0184780Y0186118D03*
X0179780Y0191118D03*
X0197280Y0178618D03*
X0207280Y0186118D03*
X0212280Y0186118D03*
X0224780Y0186118D03*
X0224780Y0194868D03*
X0234780Y0201118D03*
X0242280Y0192368D03*
X0262280Y0188618D03*
X0262280Y0183618D03*
X0267280Y0183618D03*
X0272280Y0183618D03*
X0272280Y0178618D03*
X0277280Y0178618D03*
X0274780Y0173618D03*
X0274780Y0168618D03*
X0272280Y0163618D03*
X0269780Y0158618D03*
X0267280Y0153618D03*
X0284780Y0151118D03*
X0284780Y0143618D03*
X0292280Y0143618D03*
X0292280Y0136118D03*
X0297280Y0133618D03*
X0304780Y0128618D03*
X0297280Y0124868D03*
X0297280Y0119868D03*
X0297280Y0112368D03*
X0297280Y0108618D03*
X0309780Y0096118D03*
X0314780Y0093618D03*
X0322280Y0096118D03*
X0319780Y0106118D03*
X0324780Y0106118D03*
X0329780Y0111118D03*
X0334780Y0101118D03*
X0312280Y0131118D03*
X0312280Y0138618D03*
X0307280Y0143618D03*
X0302280Y0148618D03*
X0309780Y0158618D03*
X0317280Y0153618D03*
X0294780Y0166118D03*
X0282280Y0176118D03*
X0263530Y0197368D03*
X0269780Y0201118D03*
X0294780Y0216118D03*
X0274780Y0228618D03*
X0267280Y0226118D03*
X0259780Y0226118D03*
X0272280Y0237368D03*
X0297280Y0238618D03*
X0312280Y0241118D03*
X0327280Y0248618D03*
X0334780Y0251118D03*
X0322280Y0256118D03*
X0304780Y0261118D03*
X0292280Y0273618D03*
X0277280Y0266118D03*
X0274780Y0261118D03*
X0268530Y0267368D03*
X0259780Y0271118D03*
X0267280Y0276118D03*
X0274780Y0278618D03*
X0277280Y0286118D03*
X0267280Y0286118D03*
X0264780Y0259868D03*
X0254780Y0259868D03*
X0243530Y0259868D03*
X0233530Y0259868D03*
X0223530Y0259868D03*
X0213530Y0259868D03*
X0203530Y0259868D03*
X0193530Y0259868D03*
X0183530Y0259868D03*
X0173530Y0259868D03*
X0166030Y0264868D03*
X0158530Y0262368D03*
X0157280Y0271118D03*
X0149780Y0273618D03*
X0144780Y0281118D03*
X0152280Y0286118D03*
X0144780Y0291118D03*
X0152280Y0298618D03*
X0122280Y0298618D03*
X0122280Y0286118D03*
X0097280Y0286118D03*
X0094780Y0301118D03*
X0072280Y0301118D03*
X0073530Y0287368D03*
X0052280Y0278618D03*
X0051030Y0263618D03*
X0042280Y0259868D03*
X0037280Y0251118D03*
X0037280Y0246118D03*
X0037280Y0241118D03*
X0064780Y0231118D03*
X0069780Y0231118D03*
X0069780Y0246118D03*
X0069780Y0251118D03*
X0073530Y0267368D03*
X0097280Y0268618D03*
X0097280Y0253618D03*
X0112280Y0243618D03*
X0122280Y0253618D03*
X0142280Y0248618D03*
X0147280Y0241118D03*
X0152280Y0238618D03*
X0157280Y0236118D03*
X0167280Y0233618D03*
X0176030Y0229868D03*
X0174780Y0223618D03*
X0179780Y0221118D03*
X0184780Y0221118D03*
X0193530Y0229868D03*
X0214780Y0233618D03*
X0217280Y0238618D03*
X0222280Y0241118D03*
X0232280Y0243618D03*
X0229780Y0228618D03*
X0211030Y0207368D03*
X0194780Y0206118D03*
X0179780Y0203618D03*
X0167280Y0211118D03*
X0162280Y0206118D03*
X0154780Y0203618D03*
X0149780Y0206118D03*
X0134780Y0206118D03*
X0134780Y0198618D03*
X0137280Y0193618D03*
X0129780Y0176118D03*
X0123530Y0217368D03*
X0132280Y0226118D03*
X0129780Y0233618D03*
X0139780Y0233618D03*
X0144780Y0228618D03*
X0147280Y0223618D03*
X0152280Y0223618D03*
X0157280Y0223618D03*
X0234780Y0163618D03*
X0222280Y0158618D03*
X0214780Y0156118D03*
X0209780Y0158618D03*
X0209780Y0143618D03*
X0202280Y0143618D03*
X0202280Y0133618D03*
X0207280Y0133618D03*
X0214780Y0133618D03*
X0222280Y0131118D03*
X0222280Y0136118D03*
X0237280Y0136118D03*
X0242280Y0131118D03*
X0254780Y0131118D03*
X0264780Y0124868D03*
X0264780Y0119868D03*
X0269780Y0116118D03*
X0264780Y0112368D03*
X0264780Y0108618D03*
X0259780Y0103618D03*
X0267280Y0101118D03*
X0257280Y0091118D03*
X0244780Y0088618D03*
X0232280Y0086118D03*
X0228530Y0092368D03*
X0234780Y0106118D03*
X0224780Y0108618D03*
X0219780Y0108618D03*
X0237280Y0118618D03*
X0242280Y0116118D03*
X0264780Y0136118D03*
X0252280Y0143618D03*
X0247280Y0148618D03*
X0277280Y0131118D03*
X0292280Y0087368D03*
X0269780Y0081118D03*
X0277280Y0068618D03*
X0282280Y0063618D03*
X0272280Y0056118D03*
X0262280Y0043618D03*
X0282280Y0036118D03*
X0299780Y0036118D03*
X0317280Y0036118D03*
X0329780Y0051118D03*
X0322280Y0061118D03*
X0312280Y0061118D03*
X0239780Y0068618D03*
X0222280Y0076118D03*
X0139780Y0133618D03*
X0037280Y0063618D03*
X0312280Y0173618D03*
X0322280Y0176118D03*
X0339780Y0176118D03*
X0314780Y0198618D03*
X0318530Y0208618D03*
X0337280Y0268618D03*
X0327280Y0283618D03*
X0314780Y0276118D03*
X0302280Y0286118D03*
X0319780Y0296118D03*
X0337280Y0303618D03*
X0342280Y0318618D03*
X0327280Y0318618D03*
X0302280Y0318618D03*
X0289780Y0318618D03*
X0289780Y0336118D03*
X0319780Y0336118D03*
X0342280Y0286118D03*
X0202280Y0296118D03*
X0201030Y0318618D03*
X0189780Y0318618D03*
X0184780Y0321118D03*
X0177280Y0328618D03*
X0184780Y0333618D03*
X0194780Y0334868D03*
X0174780Y0338618D03*
X0167280Y0331118D03*
X0157280Y0331118D03*
X0137280Y0329868D03*
X0119780Y0331118D03*
X0119780Y0316118D03*
X0054780Y0326118D03*
X0052280Y0303618D03*
X0039780Y0306118D03*
M02*
