%
M48
M72
T01C0.0150
T02C0.0354
T03C0.0394
T04C0.0400
T05C0.1250
%
T01
X3728Y6362
X4728Y8237
X4728Y9612
X4728Y10362
X7228Y9612
X8228Y10612
X9228Y11362
X9228Y9862
X8978Y8862
X7978Y7737
X8978Y7362
X8728Y6362
X8228Y6362
X7728Y6362
X7228Y6362
X6728Y6362
X9228Y6362
X9728Y6362
X10228Y6362
X10728Y6362
X11228Y6362
X11228Y7112
X11228Y8362
X13228Y9112
X13228Y9612
X13728Y10612
X13228Y11362
X13478Y11862
X13728Y12362
X13978Y13362
X13228Y13862
X12728Y14112
X12228Y14362
X11478Y14362
X12728Y15862
X13228Y15862
X12228Y16112
X11978Y16612
X11478Y16862
X10978Y17612
X10728Y18112
X9978Y19112
X9478Y18862
X10478Y19612
X8978Y20362
X9228Y21237
X10853Y21737
X10478Y22612
X9478Y23112
X8103Y24237
X6978Y24112
X6978Y24612
X6978Y25112
X6978Y23612
X6478Y23612
X5978Y23612
X5978Y23112
X5478Y23112
X5228Y23612
X4728Y23612
X4228Y23612
X3728Y23612
X3728Y24112
X3728Y24612
X3728Y25112
X4228Y25987
X5103Y26362
X5228Y27862
X7353Y28737
X7228Y30112
X5228Y30362
X3978Y30612
X5478Y32612
X9478Y30112
X9728Y28612
X9728Y26862
X9728Y25362
X11228Y24362
X12228Y25362
X14228Y24862
X14728Y24112
X15228Y23862
X15728Y23612
X16728Y23362
X17603Y22987
X17478Y22362
X17978Y22112
X18478Y22112
X19353Y22987
X21478Y23362
X21728Y23862
X22228Y24112
X23228Y24362
X22978Y22862
X21103Y20737
X19478Y20612
X17978Y20362
X16728Y21112
X16228Y20612
X15478Y20362
X14978Y20612
X13478Y20612
X13478Y19862
X13728Y19362
X12978Y17612
X14478Y16862
X14228Y16362
X15228Y16612
X15478Y17112
X15978Y17112
X15728Y15362
X16478Y14612
X16978Y14612
X17728Y15362
X18228Y15362
X19228Y14862
X19728Y14862
X19478Y15362
X20228Y14362
X20978Y14362
X22228Y13612
X21478Y13362
X22228Y13112
X20728Y13362
X20228Y13362
X18728Y13112
X18728Y13862
X17478Y13112
X17478Y12612
X17478Y12112
X17228Y11362
X17478Y10862
X16728Y10362
X14978Y11612
X15228Y12112
X15478Y13112
X16478Y12362
X15228Y14362
X14228Y15112
X11478Y12112
X10978Y11112
X10478Y9862
X13978Y8362
X15728Y7862
X15228Y6612
X16728Y6612
X17728Y5612
X19478Y4112
X21228Y4362
X21228Y5112
X21228Y5612
X20728Y6362
X20478Y7862
X19728Y8112
X19228Y8112
X17478Y8612
X18603Y9862
X18978Y10737
X21978Y10862
X22478Y10862
X23478Y10612
X24228Y11612
X23728Y11862
X24228Y13112
X23728Y13612
X25228Y14362
X24728Y14862
X26478Y13612
X25478Y13112
X26478Y12487
X26478Y11987
X26978Y11612
X26478Y11237
X26478Y10862
X25978Y10362
X26728Y10112
X25728Y9112
X24478Y8862
X23228Y8612
X22853Y9237
X22228Y7612
X23978Y6862
X25228Y6112
X24728Y5612
X24728Y5112
X24728Y4112
X23228Y3612
X26228Y4362
X28228Y3612
X29978Y3612
X31728Y3612
X32978Y5112
X32228Y6112
X31228Y6112
X28228Y6362
X27228Y5612
X27728Y6862
X26978Y8112
X29228Y8737
X30978Y9612
X31478Y9362
X32228Y9612
X31978Y10612
X32478Y10612
X32978Y11112
X33478Y10112
X31228Y13112
X31228Y13862
X30728Y14362
X30228Y14862
X29228Y14362
X28478Y14362
X28478Y15112
X26978Y15862
X26728Y15362
X27228Y16362
X27478Y16862
X27478Y17362
X27228Y17862
X27728Y17862
X28228Y17612
X27228Y18362
X26728Y18362
X26228Y18362
X26228Y18862
X26353Y19737
X26978Y20112
X24228Y19237
X23478Y20112
X22478Y19487
X22478Y18612
X21228Y18612
X20728Y18612
X19728Y17862
X18978Y17612
X18478Y17612
X18478Y18112
X18478Y18612
X17978Y19112
X18478Y17112
X19603Y16987
X20978Y15862
X21478Y15612
X22228Y15862
X23478Y16362
X27728Y13112
X29228Y13612
X29728Y13362
X30478Y12862
X29728Y12487
X29728Y11987
X29728Y11237
X29728Y10862
X31728Y15362
X30978Y15862
X29478Y16612
X31228Y17362
X32228Y17612
X33978Y17612
X31478Y19862
X31853Y20862
X29478Y21612
X27478Y22862
X26728Y22612
X25978Y22612
X27228Y23737
X29728Y23862
X31228Y24112
X32728Y24862
X33478Y25112
X32228Y25612
X30478Y26112
X29228Y27362
X27728Y26612
X27478Y26112
X26853Y26737
X25978Y27112
X26728Y27612
X27478Y27862
X27728Y28612
X26728Y28612
X26478Y25987
X25478Y25987
X24353Y25987
X23353Y25987
X22353Y25987
X21353Y25987
X20353Y25987
X19353Y25987
X18353Y25987
X17353Y25987
X16603Y26487
X15853Y26237
X15728Y27112
X14978Y27362
X14478Y28112
X15228Y28612
X14478Y29112
X15228Y29862
X12228Y29862
X12228Y28612
X11978Y31612
X13728Y32987
X11978Y33112
X15728Y33112
X16728Y33112
X17728Y32862
X18478Y33362
X19478Y33487
X17478Y33862
X18478Y32112
X18978Y31862
X20103Y31862
X20228Y29612
X28978Y31862
X30228Y31862
X32728Y31862
X34228Y31862
X33728Y30362
X31978Y29612
X32728Y28362
X31478Y27612
X30228Y28612
X33728Y26862
X34228Y28612
X31978Y33612
X28978Y33612
X13978Y23362
X14478Y22862
X14728Y22362
X15228Y22362
X15728Y22362
X13228Y22612
X12978Y23362
X12353Y21737
X6978Y21612
X6978Y22112
X6978Y22612
X6478Y22612
X6478Y22112
X6478Y21612
X6853Y20862
X6728Y19362
X6728Y17862
X5228Y17112
X6728Y16362
X6478Y14862
X7478Y14612
X6478Y14112
X7228Y13612
X5478Y13862
X5478Y14362
X5478Y15112
X4228Y15862
X4228Y18112
X4478Y20362
X4228Y21612
X4228Y22112
X4228Y22612
X3728Y22612
X3728Y22112
X3728Y21612
X3728Y23112
X4228Y23112
X4728Y23112
X6478Y23112
X6978Y23112
X7353Y26737
X8978Y15362
X5228Y13112
X6728Y12112
X13728Y6612
X17728Y3612
T02
X14724Y33122
X24842Y33122
T03
X10212Y30862
X8244Y30862
T04
X14724Y30775
X20433Y30775
X20433Y33122
X24842Y30775
X30551Y30775
X30551Y33122
X32728Y23862
X33728Y23862
X33728Y22862
X32728Y22862
X32728Y21862
X33728Y21862
X33728Y20862
X32728Y20862
X32728Y19862
X33728Y19862
X33728Y18862
X32728Y18862
X32728Y16862
X33728Y16862
X33728Y15862
X32728Y15862
X32728Y14862
X33728Y14862
X33728Y13862
X32728Y13862
X32728Y12862
X33728Y12862
X33728Y11862
X32728Y11862
X7728Y15862
X7728Y16862
X7728Y17862
X7728Y18862
X7728Y19862
X7728Y20862
X7728Y21862
X7728Y22862
T05
X4409Y4043
X33543Y4043
X33543Y33177
X4409Y33177
M30
