G75*
%MOIN*%
%OFA0B0*%
%FSLAX25Y25*%
%IPPOS*%
%LPD*%
%AMOC8*
5,1,8,0,0,1.08239X$1,22.5*
%
%ADD10C,0.13000*%
%ADD11R,0.05500X0.02700*%
%ADD12R,0.02700X0.05500*%
%ADD13OC8,0.07900*%
%ADD14R,0.07587X0.06012*%
%ADD15R,0.04437X0.04831*%
%ADD16R,0.09200X0.02900*%
%ADD17R,0.04831X0.04437*%
%ADD18R,0.03650X0.04043*%
%ADD19R,0.06406X0.05618*%
%ADD20R,0.06406X0.01878*%
%ADD21R,0.08374X0.05224*%
%ADD22R,0.05224X0.08374*%
%ADD23R,0.04870X0.12311*%
%ADD24C,0.00168*%
%ADD25C,0.06406*%
%ADD26C,0.06862*%
%ADD27R,0.04000X0.06900*%
%ADD28R,0.13000X0.06900*%
%ADD29R,0.05618X0.06406*%
%ADD30R,0.02075X0.05815*%
%ADD31R,0.07587X0.07587*%
%ADD32R,0.09555X0.05618*%
%ADD33R,0.06799X0.06799*%
%ADD34R,0.08374X0.03256*%
%ADD35R,0.05618X0.07980*%
%ADD36R,0.05618X0.14673*%
%ADD37R,0.04437X0.09555*%
%ADD38C,0.10500*%
%ADD39R,0.07900X0.07900*%
%ADD40C,0.07900*%
%ADD41C,0.03600*%
D10*
X0044091Y0040429D03*
X0335430Y0040429D03*
X0335430Y0331768D03*
X0044091Y0331768D03*
D11*
X0195380Y0144642D03*
X0195380Y0141492D03*
X0195380Y0138343D03*
X0195380Y0135193D03*
X0195380Y0132043D03*
X0195380Y0128894D03*
X0195380Y0125744D03*
X0195380Y0122594D03*
X0229180Y0122594D03*
X0229180Y0125744D03*
X0229180Y0128894D03*
X0229180Y0132043D03*
X0229180Y0135193D03*
X0229180Y0138343D03*
X0229180Y0141492D03*
X0229180Y0144642D03*
D12*
X0223304Y0150518D03*
X0220154Y0150518D03*
X0217005Y0150518D03*
X0213855Y0150518D03*
X0210705Y0150518D03*
X0207556Y0150518D03*
X0204406Y0150518D03*
X0201257Y0150518D03*
X0201257Y0116718D03*
X0204406Y0116718D03*
X0207556Y0116718D03*
X0210705Y0116718D03*
X0213855Y0116718D03*
X0217005Y0116718D03*
X0220154Y0116718D03*
X0223304Y0116718D03*
D13*
X0327280Y0118618D03*
X0337280Y0118618D03*
X0337280Y0128618D03*
X0327280Y0128618D03*
X0327280Y0138618D03*
X0337280Y0138618D03*
X0337280Y0148618D03*
X0327280Y0148618D03*
X0327280Y0158618D03*
X0337280Y0158618D03*
X0337280Y0168618D03*
X0327280Y0168618D03*
X0327280Y0188618D03*
X0327280Y0198618D03*
X0337280Y0198618D03*
X0337280Y0188618D03*
X0337280Y0208618D03*
X0327280Y0208618D03*
X0327280Y0218618D03*
X0337280Y0218618D03*
X0337280Y0228618D03*
X0327280Y0228618D03*
X0327280Y0238618D03*
X0337280Y0238618D03*
D14*
X0204780Y0100311D03*
X0204780Y0086925D03*
D15*
X0223530Y0096522D03*
X0223530Y0103215D03*
X0135627Y0163618D03*
X0128934Y0163618D03*
X0129780Y0202772D03*
X0129780Y0209465D03*
X0139780Y0209465D03*
X0139780Y0202772D03*
X0328934Y0071118D03*
X0335627Y0071118D03*
X0335627Y0061118D03*
X0328934Y0061118D03*
D16*
X0315080Y0066118D03*
X0315080Y0071118D03*
X0315080Y0076118D03*
X0315080Y0081118D03*
X0294480Y0081118D03*
X0294480Y0076118D03*
X0294480Y0071118D03*
X0294480Y0066118D03*
D17*
X0311434Y0088618D03*
X0318127Y0088618D03*
X0047280Y0112772D03*
X0047280Y0119465D03*
D18*
X0048540Y0309681D03*
X0056020Y0309681D03*
X0052280Y0317949D03*
D19*
X0067280Y0317358D03*
X0067280Y0309878D03*
X0064780Y0327378D03*
X0064780Y0334858D03*
X0214780Y0102358D03*
X0214780Y0094878D03*
D20*
X0146847Y0172161D03*
X0146847Y0174720D03*
X0146847Y0177280D03*
X0146847Y0179839D03*
X0146847Y0182339D03*
X0146847Y0184898D03*
X0146847Y0187457D03*
X0146847Y0190016D03*
X0146847Y0192575D03*
X0146847Y0195134D03*
X0122713Y0195134D03*
X0122713Y0192575D03*
X0122713Y0190016D03*
X0122713Y0187457D03*
X0122713Y0184898D03*
X0122713Y0182339D03*
X0122713Y0179780D03*
X0122713Y0177220D03*
X0122713Y0174661D03*
X0122713Y0172102D03*
D21*
X0122280Y0120744D03*
X0122280Y0112870D03*
X0122280Y0104996D03*
X0122280Y0097122D03*
X0122280Y0089248D03*
X0122280Y0081374D03*
X0122280Y0073500D03*
X0122280Y0065626D03*
X0058501Y0065626D03*
X0058501Y0073500D03*
X0058501Y0081374D03*
X0058501Y0089248D03*
X0058501Y0097122D03*
X0058501Y0104996D03*
X0058501Y0112870D03*
X0058501Y0120744D03*
D22*
X0071099Y0128618D03*
X0078973Y0128618D03*
X0086847Y0128618D03*
X0094721Y0128618D03*
X0102595Y0128618D03*
X0110469Y0128618D03*
D23*
X0240080Y0211029D03*
X0250080Y0211029D03*
X0260080Y0211029D03*
X0280080Y0211029D03*
X0280080Y0239729D03*
X0260080Y0239729D03*
X0250080Y0239729D03*
X0240080Y0239729D03*
D24*
X0258493Y0310044D02*
X0260005Y0310044D01*
X0260005Y0293570D01*
X0258493Y0293570D01*
X0258493Y0310044D01*
X0258493Y0293737D02*
X0260005Y0293737D01*
X0260005Y0293904D02*
X0258493Y0293904D01*
X0258493Y0294071D02*
X0260005Y0294071D01*
X0260005Y0294238D02*
X0258493Y0294238D01*
X0258493Y0294405D02*
X0260005Y0294405D01*
X0260005Y0294572D02*
X0258493Y0294572D01*
X0258493Y0294739D02*
X0260005Y0294739D01*
X0260005Y0294906D02*
X0258493Y0294906D01*
X0258493Y0295073D02*
X0260005Y0295073D01*
X0260005Y0295240D02*
X0258493Y0295240D01*
X0258493Y0295407D02*
X0260005Y0295407D01*
X0260005Y0295574D02*
X0258493Y0295574D01*
X0258493Y0295741D02*
X0260005Y0295741D01*
X0260005Y0295908D02*
X0258493Y0295908D01*
X0258493Y0296075D02*
X0260005Y0296075D01*
X0260005Y0296242D02*
X0258493Y0296242D01*
X0258493Y0296409D02*
X0260005Y0296409D01*
X0260005Y0296576D02*
X0258493Y0296576D01*
X0258493Y0296743D02*
X0260005Y0296743D01*
X0260005Y0296910D02*
X0258493Y0296910D01*
X0258493Y0297077D02*
X0260005Y0297077D01*
X0260005Y0297244D02*
X0258493Y0297244D01*
X0258493Y0297411D02*
X0260005Y0297411D01*
X0260005Y0297578D02*
X0258493Y0297578D01*
X0258493Y0297745D02*
X0260005Y0297745D01*
X0260005Y0297912D02*
X0258493Y0297912D01*
X0258493Y0298079D02*
X0260005Y0298079D01*
X0260005Y0298246D02*
X0258493Y0298246D01*
X0258493Y0298413D02*
X0260005Y0298413D01*
X0260005Y0298580D02*
X0258493Y0298580D01*
X0258493Y0298747D02*
X0260005Y0298747D01*
X0260005Y0298914D02*
X0258493Y0298914D01*
X0258493Y0299081D02*
X0260005Y0299081D01*
X0260005Y0299248D02*
X0258493Y0299248D01*
X0258493Y0299415D02*
X0260005Y0299415D01*
X0260005Y0299582D02*
X0258493Y0299582D01*
X0258493Y0299749D02*
X0260005Y0299749D01*
X0260005Y0299916D02*
X0258493Y0299916D01*
X0258493Y0300083D02*
X0260005Y0300083D01*
X0260005Y0300250D02*
X0258493Y0300250D01*
X0258493Y0300417D02*
X0260005Y0300417D01*
X0260005Y0300584D02*
X0258493Y0300584D01*
X0258493Y0300751D02*
X0260005Y0300751D01*
X0260005Y0300918D02*
X0258493Y0300918D01*
X0258493Y0301085D02*
X0260005Y0301085D01*
X0260005Y0301252D02*
X0258493Y0301252D01*
X0258493Y0301419D02*
X0260005Y0301419D01*
X0260005Y0301586D02*
X0258493Y0301586D01*
X0258493Y0301753D02*
X0260005Y0301753D01*
X0260005Y0301920D02*
X0258493Y0301920D01*
X0258493Y0302087D02*
X0260005Y0302087D01*
X0260005Y0302254D02*
X0258493Y0302254D01*
X0258493Y0302421D02*
X0260005Y0302421D01*
X0260005Y0302588D02*
X0258493Y0302588D01*
X0258493Y0302755D02*
X0260005Y0302755D01*
X0260005Y0302922D02*
X0258493Y0302922D01*
X0258493Y0303089D02*
X0260005Y0303089D01*
X0260005Y0303256D02*
X0258493Y0303256D01*
X0258493Y0303423D02*
X0260005Y0303423D01*
X0260005Y0303590D02*
X0258493Y0303590D01*
X0258493Y0303757D02*
X0260005Y0303757D01*
X0260005Y0303924D02*
X0258493Y0303924D01*
X0258493Y0304091D02*
X0260005Y0304091D01*
X0260005Y0304258D02*
X0258493Y0304258D01*
X0258493Y0304425D02*
X0260005Y0304425D01*
X0260005Y0304592D02*
X0258493Y0304592D01*
X0258493Y0304759D02*
X0260005Y0304759D01*
X0260005Y0304926D02*
X0258493Y0304926D01*
X0258493Y0305093D02*
X0260005Y0305093D01*
X0260005Y0305260D02*
X0258493Y0305260D01*
X0258493Y0305427D02*
X0260005Y0305427D01*
X0260005Y0305594D02*
X0258493Y0305594D01*
X0258493Y0305761D02*
X0260005Y0305761D01*
X0260005Y0305928D02*
X0258493Y0305928D01*
X0258493Y0306095D02*
X0260005Y0306095D01*
X0260005Y0306262D02*
X0258493Y0306262D01*
X0258493Y0306429D02*
X0260005Y0306429D01*
X0260005Y0306596D02*
X0258493Y0306596D01*
X0258493Y0306763D02*
X0260005Y0306763D01*
X0260005Y0306930D02*
X0258493Y0306930D01*
X0258493Y0307097D02*
X0260005Y0307097D01*
X0260005Y0307264D02*
X0258493Y0307264D01*
X0258493Y0307431D02*
X0260005Y0307431D01*
X0260005Y0307598D02*
X0258493Y0307598D01*
X0258493Y0307765D02*
X0260005Y0307765D01*
X0260005Y0307932D02*
X0258493Y0307932D01*
X0258493Y0308099D02*
X0260005Y0308099D01*
X0260005Y0308266D02*
X0258493Y0308266D01*
X0258493Y0308433D02*
X0260005Y0308433D01*
X0260005Y0308600D02*
X0258493Y0308600D01*
X0258493Y0308767D02*
X0260005Y0308767D01*
X0260005Y0308934D02*
X0258493Y0308934D01*
X0258493Y0309101D02*
X0260005Y0309101D01*
X0260005Y0309268D02*
X0258493Y0309268D01*
X0258493Y0309435D02*
X0260005Y0309435D01*
X0260005Y0309602D02*
X0258493Y0309602D01*
X0258493Y0309769D02*
X0260005Y0309769D01*
X0260005Y0309936D02*
X0258493Y0309936D01*
X0260461Y0310044D02*
X0261973Y0310044D01*
X0261973Y0293570D01*
X0260461Y0293570D01*
X0260461Y0310044D01*
X0260461Y0293737D02*
X0261973Y0293737D01*
X0261973Y0293904D02*
X0260461Y0293904D01*
X0260461Y0294071D02*
X0261973Y0294071D01*
X0261973Y0294238D02*
X0260461Y0294238D01*
X0260461Y0294405D02*
X0261973Y0294405D01*
X0261973Y0294572D02*
X0260461Y0294572D01*
X0260461Y0294739D02*
X0261973Y0294739D01*
X0261973Y0294906D02*
X0260461Y0294906D01*
X0260461Y0295073D02*
X0261973Y0295073D01*
X0261973Y0295240D02*
X0260461Y0295240D01*
X0260461Y0295407D02*
X0261973Y0295407D01*
X0261973Y0295574D02*
X0260461Y0295574D01*
X0260461Y0295741D02*
X0261973Y0295741D01*
X0261973Y0295908D02*
X0260461Y0295908D01*
X0260461Y0296075D02*
X0261973Y0296075D01*
X0261973Y0296242D02*
X0260461Y0296242D01*
X0260461Y0296409D02*
X0261973Y0296409D01*
X0261973Y0296576D02*
X0260461Y0296576D01*
X0260461Y0296743D02*
X0261973Y0296743D01*
X0261973Y0296910D02*
X0260461Y0296910D01*
X0260461Y0297077D02*
X0261973Y0297077D01*
X0261973Y0297244D02*
X0260461Y0297244D01*
X0260461Y0297411D02*
X0261973Y0297411D01*
X0261973Y0297578D02*
X0260461Y0297578D01*
X0260461Y0297745D02*
X0261973Y0297745D01*
X0261973Y0297912D02*
X0260461Y0297912D01*
X0260461Y0298079D02*
X0261973Y0298079D01*
X0261973Y0298246D02*
X0260461Y0298246D01*
X0260461Y0298413D02*
X0261973Y0298413D01*
X0261973Y0298580D02*
X0260461Y0298580D01*
X0260461Y0298747D02*
X0261973Y0298747D01*
X0261973Y0298914D02*
X0260461Y0298914D01*
X0260461Y0299081D02*
X0261973Y0299081D01*
X0261973Y0299248D02*
X0260461Y0299248D01*
X0260461Y0299415D02*
X0261973Y0299415D01*
X0261973Y0299582D02*
X0260461Y0299582D01*
X0260461Y0299749D02*
X0261973Y0299749D01*
X0261973Y0299916D02*
X0260461Y0299916D01*
X0260461Y0300083D02*
X0261973Y0300083D01*
X0261973Y0300250D02*
X0260461Y0300250D01*
X0260461Y0300417D02*
X0261973Y0300417D01*
X0261973Y0300584D02*
X0260461Y0300584D01*
X0260461Y0300751D02*
X0261973Y0300751D01*
X0261973Y0300918D02*
X0260461Y0300918D01*
X0260461Y0301085D02*
X0261973Y0301085D01*
X0261973Y0301252D02*
X0260461Y0301252D01*
X0260461Y0301419D02*
X0261973Y0301419D01*
X0261973Y0301586D02*
X0260461Y0301586D01*
X0260461Y0301753D02*
X0261973Y0301753D01*
X0261973Y0301920D02*
X0260461Y0301920D01*
X0260461Y0302087D02*
X0261973Y0302087D01*
X0261973Y0302254D02*
X0260461Y0302254D01*
X0260461Y0302421D02*
X0261973Y0302421D01*
X0261973Y0302588D02*
X0260461Y0302588D01*
X0260461Y0302755D02*
X0261973Y0302755D01*
X0261973Y0302922D02*
X0260461Y0302922D01*
X0260461Y0303089D02*
X0261973Y0303089D01*
X0261973Y0303256D02*
X0260461Y0303256D01*
X0260461Y0303423D02*
X0261973Y0303423D01*
X0261973Y0303590D02*
X0260461Y0303590D01*
X0260461Y0303757D02*
X0261973Y0303757D01*
X0261973Y0303924D02*
X0260461Y0303924D01*
X0260461Y0304091D02*
X0261973Y0304091D01*
X0261973Y0304258D02*
X0260461Y0304258D01*
X0260461Y0304425D02*
X0261973Y0304425D01*
X0261973Y0304592D02*
X0260461Y0304592D01*
X0260461Y0304759D02*
X0261973Y0304759D01*
X0261973Y0304926D02*
X0260461Y0304926D01*
X0260461Y0305093D02*
X0261973Y0305093D01*
X0261973Y0305260D02*
X0260461Y0305260D01*
X0260461Y0305427D02*
X0261973Y0305427D01*
X0261973Y0305594D02*
X0260461Y0305594D01*
X0260461Y0305761D02*
X0261973Y0305761D01*
X0261973Y0305928D02*
X0260461Y0305928D01*
X0260461Y0306095D02*
X0261973Y0306095D01*
X0261973Y0306262D02*
X0260461Y0306262D01*
X0260461Y0306429D02*
X0261973Y0306429D01*
X0261973Y0306596D02*
X0260461Y0306596D01*
X0260461Y0306763D02*
X0261973Y0306763D01*
X0261973Y0306930D02*
X0260461Y0306930D01*
X0260461Y0307097D02*
X0261973Y0307097D01*
X0261973Y0307264D02*
X0260461Y0307264D01*
X0260461Y0307431D02*
X0261973Y0307431D01*
X0261973Y0307598D02*
X0260461Y0307598D01*
X0260461Y0307765D02*
X0261973Y0307765D01*
X0261973Y0307932D02*
X0260461Y0307932D01*
X0260461Y0308099D02*
X0261973Y0308099D01*
X0261973Y0308266D02*
X0260461Y0308266D01*
X0260461Y0308433D02*
X0261973Y0308433D01*
X0261973Y0308600D02*
X0260461Y0308600D01*
X0260461Y0308767D02*
X0261973Y0308767D01*
X0261973Y0308934D02*
X0260461Y0308934D01*
X0260461Y0309101D02*
X0261973Y0309101D01*
X0261973Y0309268D02*
X0260461Y0309268D01*
X0260461Y0309435D02*
X0261973Y0309435D01*
X0261973Y0309602D02*
X0260461Y0309602D01*
X0260461Y0309769D02*
X0261973Y0309769D01*
X0261973Y0309936D02*
X0260461Y0309936D01*
X0262430Y0310044D02*
X0263942Y0310044D01*
X0263942Y0293570D01*
X0262430Y0293570D01*
X0262430Y0310044D01*
X0262430Y0293737D02*
X0263942Y0293737D01*
X0263942Y0293904D02*
X0262430Y0293904D01*
X0262430Y0294071D02*
X0263942Y0294071D01*
X0263942Y0294238D02*
X0262430Y0294238D01*
X0262430Y0294405D02*
X0263942Y0294405D01*
X0263942Y0294572D02*
X0262430Y0294572D01*
X0262430Y0294739D02*
X0263942Y0294739D01*
X0263942Y0294906D02*
X0262430Y0294906D01*
X0262430Y0295073D02*
X0263942Y0295073D01*
X0263942Y0295240D02*
X0262430Y0295240D01*
X0262430Y0295407D02*
X0263942Y0295407D01*
X0263942Y0295574D02*
X0262430Y0295574D01*
X0262430Y0295741D02*
X0263942Y0295741D01*
X0263942Y0295908D02*
X0262430Y0295908D01*
X0262430Y0296075D02*
X0263942Y0296075D01*
X0263942Y0296242D02*
X0262430Y0296242D01*
X0262430Y0296409D02*
X0263942Y0296409D01*
X0263942Y0296576D02*
X0262430Y0296576D01*
X0262430Y0296743D02*
X0263942Y0296743D01*
X0263942Y0296910D02*
X0262430Y0296910D01*
X0262430Y0297077D02*
X0263942Y0297077D01*
X0263942Y0297244D02*
X0262430Y0297244D01*
X0262430Y0297411D02*
X0263942Y0297411D01*
X0263942Y0297578D02*
X0262430Y0297578D01*
X0262430Y0297745D02*
X0263942Y0297745D01*
X0263942Y0297912D02*
X0262430Y0297912D01*
X0262430Y0298079D02*
X0263942Y0298079D01*
X0263942Y0298246D02*
X0262430Y0298246D01*
X0262430Y0298413D02*
X0263942Y0298413D01*
X0263942Y0298580D02*
X0262430Y0298580D01*
X0262430Y0298747D02*
X0263942Y0298747D01*
X0263942Y0298914D02*
X0262430Y0298914D01*
X0262430Y0299081D02*
X0263942Y0299081D01*
X0263942Y0299248D02*
X0262430Y0299248D01*
X0262430Y0299415D02*
X0263942Y0299415D01*
X0263942Y0299582D02*
X0262430Y0299582D01*
X0262430Y0299749D02*
X0263942Y0299749D01*
X0263942Y0299916D02*
X0262430Y0299916D01*
X0262430Y0300083D02*
X0263942Y0300083D01*
X0263942Y0300250D02*
X0262430Y0300250D01*
X0262430Y0300417D02*
X0263942Y0300417D01*
X0263942Y0300584D02*
X0262430Y0300584D01*
X0262430Y0300751D02*
X0263942Y0300751D01*
X0263942Y0300918D02*
X0262430Y0300918D01*
X0262430Y0301085D02*
X0263942Y0301085D01*
X0263942Y0301252D02*
X0262430Y0301252D01*
X0262430Y0301419D02*
X0263942Y0301419D01*
X0263942Y0301586D02*
X0262430Y0301586D01*
X0262430Y0301753D02*
X0263942Y0301753D01*
X0263942Y0301920D02*
X0262430Y0301920D01*
X0262430Y0302087D02*
X0263942Y0302087D01*
X0263942Y0302254D02*
X0262430Y0302254D01*
X0262430Y0302421D02*
X0263942Y0302421D01*
X0263942Y0302588D02*
X0262430Y0302588D01*
X0262430Y0302755D02*
X0263942Y0302755D01*
X0263942Y0302922D02*
X0262430Y0302922D01*
X0262430Y0303089D02*
X0263942Y0303089D01*
X0263942Y0303256D02*
X0262430Y0303256D01*
X0262430Y0303423D02*
X0263942Y0303423D01*
X0263942Y0303590D02*
X0262430Y0303590D01*
X0262430Y0303757D02*
X0263942Y0303757D01*
X0263942Y0303924D02*
X0262430Y0303924D01*
X0262430Y0304091D02*
X0263942Y0304091D01*
X0263942Y0304258D02*
X0262430Y0304258D01*
X0262430Y0304425D02*
X0263942Y0304425D01*
X0263942Y0304592D02*
X0262430Y0304592D01*
X0262430Y0304759D02*
X0263942Y0304759D01*
X0263942Y0304926D02*
X0262430Y0304926D01*
X0262430Y0305093D02*
X0263942Y0305093D01*
X0263942Y0305260D02*
X0262430Y0305260D01*
X0262430Y0305427D02*
X0263942Y0305427D01*
X0263942Y0305594D02*
X0262430Y0305594D01*
X0262430Y0305761D02*
X0263942Y0305761D01*
X0263942Y0305928D02*
X0262430Y0305928D01*
X0262430Y0306095D02*
X0263942Y0306095D01*
X0263942Y0306262D02*
X0262430Y0306262D01*
X0262430Y0306429D02*
X0263942Y0306429D01*
X0263942Y0306596D02*
X0262430Y0306596D01*
X0262430Y0306763D02*
X0263942Y0306763D01*
X0263942Y0306930D02*
X0262430Y0306930D01*
X0262430Y0307097D02*
X0263942Y0307097D01*
X0263942Y0307264D02*
X0262430Y0307264D01*
X0262430Y0307431D02*
X0263942Y0307431D01*
X0263942Y0307598D02*
X0262430Y0307598D01*
X0262430Y0307765D02*
X0263942Y0307765D01*
X0263942Y0307932D02*
X0262430Y0307932D01*
X0262430Y0308099D02*
X0263942Y0308099D01*
X0263942Y0308266D02*
X0262430Y0308266D01*
X0262430Y0308433D02*
X0263942Y0308433D01*
X0263942Y0308600D02*
X0262430Y0308600D01*
X0262430Y0308767D02*
X0263942Y0308767D01*
X0263942Y0308934D02*
X0262430Y0308934D01*
X0262430Y0309101D02*
X0263942Y0309101D01*
X0263942Y0309268D02*
X0262430Y0309268D01*
X0262430Y0309435D02*
X0263942Y0309435D01*
X0263942Y0309602D02*
X0262430Y0309602D01*
X0262430Y0309769D02*
X0263942Y0309769D01*
X0263942Y0309936D02*
X0262430Y0309936D01*
X0264398Y0310044D02*
X0265910Y0310044D01*
X0265910Y0293570D01*
X0264398Y0293570D01*
X0264398Y0310044D01*
X0264398Y0293737D02*
X0265910Y0293737D01*
X0265910Y0293904D02*
X0264398Y0293904D01*
X0264398Y0294071D02*
X0265910Y0294071D01*
X0265910Y0294238D02*
X0264398Y0294238D01*
X0264398Y0294405D02*
X0265910Y0294405D01*
X0265910Y0294572D02*
X0264398Y0294572D01*
X0264398Y0294739D02*
X0265910Y0294739D01*
X0265910Y0294906D02*
X0264398Y0294906D01*
X0264398Y0295073D02*
X0265910Y0295073D01*
X0265910Y0295240D02*
X0264398Y0295240D01*
X0264398Y0295407D02*
X0265910Y0295407D01*
X0265910Y0295574D02*
X0264398Y0295574D01*
X0264398Y0295741D02*
X0265910Y0295741D01*
X0265910Y0295908D02*
X0264398Y0295908D01*
X0264398Y0296075D02*
X0265910Y0296075D01*
X0265910Y0296242D02*
X0264398Y0296242D01*
X0264398Y0296409D02*
X0265910Y0296409D01*
X0265910Y0296576D02*
X0264398Y0296576D01*
X0264398Y0296743D02*
X0265910Y0296743D01*
X0265910Y0296910D02*
X0264398Y0296910D01*
X0264398Y0297077D02*
X0265910Y0297077D01*
X0265910Y0297244D02*
X0264398Y0297244D01*
X0264398Y0297411D02*
X0265910Y0297411D01*
X0265910Y0297578D02*
X0264398Y0297578D01*
X0264398Y0297745D02*
X0265910Y0297745D01*
X0265910Y0297912D02*
X0264398Y0297912D01*
X0264398Y0298079D02*
X0265910Y0298079D01*
X0265910Y0298246D02*
X0264398Y0298246D01*
X0264398Y0298413D02*
X0265910Y0298413D01*
X0265910Y0298580D02*
X0264398Y0298580D01*
X0264398Y0298747D02*
X0265910Y0298747D01*
X0265910Y0298914D02*
X0264398Y0298914D01*
X0264398Y0299081D02*
X0265910Y0299081D01*
X0265910Y0299248D02*
X0264398Y0299248D01*
X0264398Y0299415D02*
X0265910Y0299415D01*
X0265910Y0299582D02*
X0264398Y0299582D01*
X0264398Y0299749D02*
X0265910Y0299749D01*
X0265910Y0299916D02*
X0264398Y0299916D01*
X0264398Y0300083D02*
X0265910Y0300083D01*
X0265910Y0300250D02*
X0264398Y0300250D01*
X0264398Y0300417D02*
X0265910Y0300417D01*
X0265910Y0300584D02*
X0264398Y0300584D01*
X0264398Y0300751D02*
X0265910Y0300751D01*
X0265910Y0300918D02*
X0264398Y0300918D01*
X0264398Y0301085D02*
X0265910Y0301085D01*
X0265910Y0301252D02*
X0264398Y0301252D01*
X0264398Y0301419D02*
X0265910Y0301419D01*
X0265910Y0301586D02*
X0264398Y0301586D01*
X0264398Y0301753D02*
X0265910Y0301753D01*
X0265910Y0301920D02*
X0264398Y0301920D01*
X0264398Y0302087D02*
X0265910Y0302087D01*
X0265910Y0302254D02*
X0264398Y0302254D01*
X0264398Y0302421D02*
X0265910Y0302421D01*
X0265910Y0302588D02*
X0264398Y0302588D01*
X0264398Y0302755D02*
X0265910Y0302755D01*
X0265910Y0302922D02*
X0264398Y0302922D01*
X0264398Y0303089D02*
X0265910Y0303089D01*
X0265910Y0303256D02*
X0264398Y0303256D01*
X0264398Y0303423D02*
X0265910Y0303423D01*
X0265910Y0303590D02*
X0264398Y0303590D01*
X0264398Y0303757D02*
X0265910Y0303757D01*
X0265910Y0303924D02*
X0264398Y0303924D01*
X0264398Y0304091D02*
X0265910Y0304091D01*
X0265910Y0304258D02*
X0264398Y0304258D01*
X0264398Y0304425D02*
X0265910Y0304425D01*
X0265910Y0304592D02*
X0264398Y0304592D01*
X0264398Y0304759D02*
X0265910Y0304759D01*
X0265910Y0304926D02*
X0264398Y0304926D01*
X0264398Y0305093D02*
X0265910Y0305093D01*
X0265910Y0305260D02*
X0264398Y0305260D01*
X0264398Y0305427D02*
X0265910Y0305427D01*
X0265910Y0305594D02*
X0264398Y0305594D01*
X0264398Y0305761D02*
X0265910Y0305761D01*
X0265910Y0305928D02*
X0264398Y0305928D01*
X0264398Y0306095D02*
X0265910Y0306095D01*
X0265910Y0306262D02*
X0264398Y0306262D01*
X0264398Y0306429D02*
X0265910Y0306429D01*
X0265910Y0306596D02*
X0264398Y0306596D01*
X0264398Y0306763D02*
X0265910Y0306763D01*
X0265910Y0306930D02*
X0264398Y0306930D01*
X0264398Y0307097D02*
X0265910Y0307097D01*
X0265910Y0307264D02*
X0264398Y0307264D01*
X0264398Y0307431D02*
X0265910Y0307431D01*
X0265910Y0307598D02*
X0264398Y0307598D01*
X0264398Y0307765D02*
X0265910Y0307765D01*
X0265910Y0307932D02*
X0264398Y0307932D01*
X0264398Y0308099D02*
X0265910Y0308099D01*
X0265910Y0308266D02*
X0264398Y0308266D01*
X0264398Y0308433D02*
X0265910Y0308433D01*
X0265910Y0308600D02*
X0264398Y0308600D01*
X0264398Y0308767D02*
X0265910Y0308767D01*
X0265910Y0308934D02*
X0264398Y0308934D01*
X0264398Y0309101D02*
X0265910Y0309101D01*
X0265910Y0309268D02*
X0264398Y0309268D01*
X0264398Y0309435D02*
X0265910Y0309435D01*
X0265910Y0309602D02*
X0264398Y0309602D01*
X0264398Y0309769D02*
X0265910Y0309769D01*
X0265910Y0309936D02*
X0264398Y0309936D01*
X0266367Y0310044D02*
X0267879Y0310044D01*
X0267879Y0293570D01*
X0266367Y0293570D01*
X0266367Y0310044D01*
X0266367Y0293737D02*
X0267879Y0293737D01*
X0267879Y0293904D02*
X0266367Y0293904D01*
X0266367Y0294071D02*
X0267879Y0294071D01*
X0267879Y0294238D02*
X0266367Y0294238D01*
X0266367Y0294405D02*
X0267879Y0294405D01*
X0267879Y0294572D02*
X0266367Y0294572D01*
X0266367Y0294739D02*
X0267879Y0294739D01*
X0267879Y0294906D02*
X0266367Y0294906D01*
X0266367Y0295073D02*
X0267879Y0295073D01*
X0267879Y0295240D02*
X0266367Y0295240D01*
X0266367Y0295407D02*
X0267879Y0295407D01*
X0267879Y0295574D02*
X0266367Y0295574D01*
X0266367Y0295741D02*
X0267879Y0295741D01*
X0267879Y0295908D02*
X0266367Y0295908D01*
X0266367Y0296075D02*
X0267879Y0296075D01*
X0267879Y0296242D02*
X0266367Y0296242D01*
X0266367Y0296409D02*
X0267879Y0296409D01*
X0267879Y0296576D02*
X0266367Y0296576D01*
X0266367Y0296743D02*
X0267879Y0296743D01*
X0267879Y0296910D02*
X0266367Y0296910D01*
X0266367Y0297077D02*
X0267879Y0297077D01*
X0267879Y0297244D02*
X0266367Y0297244D01*
X0266367Y0297411D02*
X0267879Y0297411D01*
X0267879Y0297578D02*
X0266367Y0297578D01*
X0266367Y0297745D02*
X0267879Y0297745D01*
X0267879Y0297912D02*
X0266367Y0297912D01*
X0266367Y0298079D02*
X0267879Y0298079D01*
X0267879Y0298246D02*
X0266367Y0298246D01*
X0266367Y0298413D02*
X0267879Y0298413D01*
X0267879Y0298580D02*
X0266367Y0298580D01*
X0266367Y0298747D02*
X0267879Y0298747D01*
X0267879Y0298914D02*
X0266367Y0298914D01*
X0266367Y0299081D02*
X0267879Y0299081D01*
X0267879Y0299248D02*
X0266367Y0299248D01*
X0266367Y0299415D02*
X0267879Y0299415D01*
X0267879Y0299582D02*
X0266367Y0299582D01*
X0266367Y0299749D02*
X0267879Y0299749D01*
X0267879Y0299916D02*
X0266367Y0299916D01*
X0266367Y0300083D02*
X0267879Y0300083D01*
X0267879Y0300250D02*
X0266367Y0300250D01*
X0266367Y0300417D02*
X0267879Y0300417D01*
X0267879Y0300584D02*
X0266367Y0300584D01*
X0266367Y0300751D02*
X0267879Y0300751D01*
X0267879Y0300918D02*
X0266367Y0300918D01*
X0266367Y0301085D02*
X0267879Y0301085D01*
X0267879Y0301252D02*
X0266367Y0301252D01*
X0266367Y0301419D02*
X0267879Y0301419D01*
X0267879Y0301586D02*
X0266367Y0301586D01*
X0266367Y0301753D02*
X0267879Y0301753D01*
X0267879Y0301920D02*
X0266367Y0301920D01*
X0266367Y0302087D02*
X0267879Y0302087D01*
X0267879Y0302254D02*
X0266367Y0302254D01*
X0266367Y0302421D02*
X0267879Y0302421D01*
X0267879Y0302588D02*
X0266367Y0302588D01*
X0266367Y0302755D02*
X0267879Y0302755D01*
X0267879Y0302922D02*
X0266367Y0302922D01*
X0266367Y0303089D02*
X0267879Y0303089D01*
X0267879Y0303256D02*
X0266367Y0303256D01*
X0266367Y0303423D02*
X0267879Y0303423D01*
X0267879Y0303590D02*
X0266367Y0303590D01*
X0266367Y0303757D02*
X0267879Y0303757D01*
X0267879Y0303924D02*
X0266367Y0303924D01*
X0266367Y0304091D02*
X0267879Y0304091D01*
X0267879Y0304258D02*
X0266367Y0304258D01*
X0266367Y0304425D02*
X0267879Y0304425D01*
X0267879Y0304592D02*
X0266367Y0304592D01*
X0266367Y0304759D02*
X0267879Y0304759D01*
X0267879Y0304926D02*
X0266367Y0304926D01*
X0266367Y0305093D02*
X0267879Y0305093D01*
X0267879Y0305260D02*
X0266367Y0305260D01*
X0266367Y0305427D02*
X0267879Y0305427D01*
X0267879Y0305594D02*
X0266367Y0305594D01*
X0266367Y0305761D02*
X0267879Y0305761D01*
X0267879Y0305928D02*
X0266367Y0305928D01*
X0266367Y0306095D02*
X0267879Y0306095D01*
X0267879Y0306262D02*
X0266367Y0306262D01*
X0266367Y0306429D02*
X0267879Y0306429D01*
X0267879Y0306596D02*
X0266367Y0306596D01*
X0266367Y0306763D02*
X0267879Y0306763D01*
X0267879Y0306930D02*
X0266367Y0306930D01*
X0266367Y0307097D02*
X0267879Y0307097D01*
X0267879Y0307264D02*
X0266367Y0307264D01*
X0266367Y0307431D02*
X0267879Y0307431D01*
X0267879Y0307598D02*
X0266367Y0307598D01*
X0266367Y0307765D02*
X0267879Y0307765D01*
X0267879Y0307932D02*
X0266367Y0307932D01*
X0266367Y0308099D02*
X0267879Y0308099D01*
X0267879Y0308266D02*
X0266367Y0308266D01*
X0266367Y0308433D02*
X0267879Y0308433D01*
X0267879Y0308600D02*
X0266367Y0308600D01*
X0266367Y0308767D02*
X0267879Y0308767D01*
X0267879Y0308934D02*
X0266367Y0308934D01*
X0266367Y0309101D02*
X0267879Y0309101D01*
X0267879Y0309268D02*
X0266367Y0309268D01*
X0266367Y0309435D02*
X0267879Y0309435D01*
X0267879Y0309602D02*
X0266367Y0309602D01*
X0266367Y0309769D02*
X0267879Y0309769D01*
X0267879Y0309936D02*
X0266367Y0309936D01*
X0268335Y0310044D02*
X0269847Y0310044D01*
X0269847Y0293570D01*
X0268335Y0293570D01*
X0268335Y0310044D01*
X0268335Y0293737D02*
X0269847Y0293737D01*
X0269847Y0293904D02*
X0268335Y0293904D01*
X0268335Y0294071D02*
X0269847Y0294071D01*
X0269847Y0294238D02*
X0268335Y0294238D01*
X0268335Y0294405D02*
X0269847Y0294405D01*
X0269847Y0294572D02*
X0268335Y0294572D01*
X0268335Y0294739D02*
X0269847Y0294739D01*
X0269847Y0294906D02*
X0268335Y0294906D01*
X0268335Y0295073D02*
X0269847Y0295073D01*
X0269847Y0295240D02*
X0268335Y0295240D01*
X0268335Y0295407D02*
X0269847Y0295407D01*
X0269847Y0295574D02*
X0268335Y0295574D01*
X0268335Y0295741D02*
X0269847Y0295741D01*
X0269847Y0295908D02*
X0268335Y0295908D01*
X0268335Y0296075D02*
X0269847Y0296075D01*
X0269847Y0296242D02*
X0268335Y0296242D01*
X0268335Y0296409D02*
X0269847Y0296409D01*
X0269847Y0296576D02*
X0268335Y0296576D01*
X0268335Y0296743D02*
X0269847Y0296743D01*
X0269847Y0296910D02*
X0268335Y0296910D01*
X0268335Y0297077D02*
X0269847Y0297077D01*
X0269847Y0297244D02*
X0268335Y0297244D01*
X0268335Y0297411D02*
X0269847Y0297411D01*
X0269847Y0297578D02*
X0268335Y0297578D01*
X0268335Y0297745D02*
X0269847Y0297745D01*
X0269847Y0297912D02*
X0268335Y0297912D01*
X0268335Y0298079D02*
X0269847Y0298079D01*
X0269847Y0298246D02*
X0268335Y0298246D01*
X0268335Y0298413D02*
X0269847Y0298413D01*
X0269847Y0298580D02*
X0268335Y0298580D01*
X0268335Y0298747D02*
X0269847Y0298747D01*
X0269847Y0298914D02*
X0268335Y0298914D01*
X0268335Y0299081D02*
X0269847Y0299081D01*
X0269847Y0299248D02*
X0268335Y0299248D01*
X0268335Y0299415D02*
X0269847Y0299415D01*
X0269847Y0299582D02*
X0268335Y0299582D01*
X0268335Y0299749D02*
X0269847Y0299749D01*
X0269847Y0299916D02*
X0268335Y0299916D01*
X0268335Y0300083D02*
X0269847Y0300083D01*
X0269847Y0300250D02*
X0268335Y0300250D01*
X0268335Y0300417D02*
X0269847Y0300417D01*
X0269847Y0300584D02*
X0268335Y0300584D01*
X0268335Y0300751D02*
X0269847Y0300751D01*
X0269847Y0300918D02*
X0268335Y0300918D01*
X0268335Y0301085D02*
X0269847Y0301085D01*
X0269847Y0301252D02*
X0268335Y0301252D01*
X0268335Y0301419D02*
X0269847Y0301419D01*
X0269847Y0301586D02*
X0268335Y0301586D01*
X0268335Y0301753D02*
X0269847Y0301753D01*
X0269847Y0301920D02*
X0268335Y0301920D01*
X0268335Y0302087D02*
X0269847Y0302087D01*
X0269847Y0302254D02*
X0268335Y0302254D01*
X0268335Y0302421D02*
X0269847Y0302421D01*
X0269847Y0302588D02*
X0268335Y0302588D01*
X0268335Y0302755D02*
X0269847Y0302755D01*
X0269847Y0302922D02*
X0268335Y0302922D01*
X0268335Y0303089D02*
X0269847Y0303089D01*
X0269847Y0303256D02*
X0268335Y0303256D01*
X0268335Y0303423D02*
X0269847Y0303423D01*
X0269847Y0303590D02*
X0268335Y0303590D01*
X0268335Y0303757D02*
X0269847Y0303757D01*
X0269847Y0303924D02*
X0268335Y0303924D01*
X0268335Y0304091D02*
X0269847Y0304091D01*
X0269847Y0304258D02*
X0268335Y0304258D01*
X0268335Y0304425D02*
X0269847Y0304425D01*
X0269847Y0304592D02*
X0268335Y0304592D01*
X0268335Y0304759D02*
X0269847Y0304759D01*
X0269847Y0304926D02*
X0268335Y0304926D01*
X0268335Y0305093D02*
X0269847Y0305093D01*
X0269847Y0305260D02*
X0268335Y0305260D01*
X0268335Y0305427D02*
X0269847Y0305427D01*
X0269847Y0305594D02*
X0268335Y0305594D01*
X0268335Y0305761D02*
X0269847Y0305761D01*
X0269847Y0305928D02*
X0268335Y0305928D01*
X0268335Y0306095D02*
X0269847Y0306095D01*
X0269847Y0306262D02*
X0268335Y0306262D01*
X0268335Y0306429D02*
X0269847Y0306429D01*
X0269847Y0306596D02*
X0268335Y0306596D01*
X0268335Y0306763D02*
X0269847Y0306763D01*
X0269847Y0306930D02*
X0268335Y0306930D01*
X0268335Y0307097D02*
X0269847Y0307097D01*
X0269847Y0307264D02*
X0268335Y0307264D01*
X0268335Y0307431D02*
X0269847Y0307431D01*
X0269847Y0307598D02*
X0268335Y0307598D01*
X0268335Y0307765D02*
X0269847Y0307765D01*
X0269847Y0307932D02*
X0268335Y0307932D01*
X0268335Y0308099D02*
X0269847Y0308099D01*
X0269847Y0308266D02*
X0268335Y0308266D01*
X0268335Y0308433D02*
X0269847Y0308433D01*
X0269847Y0308600D02*
X0268335Y0308600D01*
X0268335Y0308767D02*
X0269847Y0308767D01*
X0269847Y0308934D02*
X0268335Y0308934D01*
X0268335Y0309101D02*
X0269847Y0309101D01*
X0269847Y0309268D02*
X0268335Y0309268D01*
X0268335Y0309435D02*
X0269847Y0309435D01*
X0269847Y0309602D02*
X0268335Y0309602D01*
X0268335Y0309769D02*
X0269847Y0309769D01*
X0269847Y0309936D02*
X0268335Y0309936D01*
X0270304Y0310044D02*
X0271816Y0310044D01*
X0271816Y0293570D01*
X0270304Y0293570D01*
X0270304Y0310044D01*
X0270304Y0293737D02*
X0271816Y0293737D01*
X0271816Y0293904D02*
X0270304Y0293904D01*
X0270304Y0294071D02*
X0271816Y0294071D01*
X0271816Y0294238D02*
X0270304Y0294238D01*
X0270304Y0294405D02*
X0271816Y0294405D01*
X0271816Y0294572D02*
X0270304Y0294572D01*
X0270304Y0294739D02*
X0271816Y0294739D01*
X0271816Y0294906D02*
X0270304Y0294906D01*
X0270304Y0295073D02*
X0271816Y0295073D01*
X0271816Y0295240D02*
X0270304Y0295240D01*
X0270304Y0295407D02*
X0271816Y0295407D01*
X0271816Y0295574D02*
X0270304Y0295574D01*
X0270304Y0295741D02*
X0271816Y0295741D01*
X0271816Y0295908D02*
X0270304Y0295908D01*
X0270304Y0296075D02*
X0271816Y0296075D01*
X0271816Y0296242D02*
X0270304Y0296242D01*
X0270304Y0296409D02*
X0271816Y0296409D01*
X0271816Y0296576D02*
X0270304Y0296576D01*
X0270304Y0296743D02*
X0271816Y0296743D01*
X0271816Y0296910D02*
X0270304Y0296910D01*
X0270304Y0297077D02*
X0271816Y0297077D01*
X0271816Y0297244D02*
X0270304Y0297244D01*
X0270304Y0297411D02*
X0271816Y0297411D01*
X0271816Y0297578D02*
X0270304Y0297578D01*
X0270304Y0297745D02*
X0271816Y0297745D01*
X0271816Y0297912D02*
X0270304Y0297912D01*
X0270304Y0298079D02*
X0271816Y0298079D01*
X0271816Y0298246D02*
X0270304Y0298246D01*
X0270304Y0298413D02*
X0271816Y0298413D01*
X0271816Y0298580D02*
X0270304Y0298580D01*
X0270304Y0298747D02*
X0271816Y0298747D01*
X0271816Y0298914D02*
X0270304Y0298914D01*
X0270304Y0299081D02*
X0271816Y0299081D01*
X0271816Y0299248D02*
X0270304Y0299248D01*
X0270304Y0299415D02*
X0271816Y0299415D01*
X0271816Y0299582D02*
X0270304Y0299582D01*
X0270304Y0299749D02*
X0271816Y0299749D01*
X0271816Y0299916D02*
X0270304Y0299916D01*
X0270304Y0300083D02*
X0271816Y0300083D01*
X0271816Y0300250D02*
X0270304Y0300250D01*
X0270304Y0300417D02*
X0271816Y0300417D01*
X0271816Y0300584D02*
X0270304Y0300584D01*
X0270304Y0300751D02*
X0271816Y0300751D01*
X0271816Y0300918D02*
X0270304Y0300918D01*
X0270304Y0301085D02*
X0271816Y0301085D01*
X0271816Y0301252D02*
X0270304Y0301252D01*
X0270304Y0301419D02*
X0271816Y0301419D01*
X0271816Y0301586D02*
X0270304Y0301586D01*
X0270304Y0301753D02*
X0271816Y0301753D01*
X0271816Y0301920D02*
X0270304Y0301920D01*
X0270304Y0302087D02*
X0271816Y0302087D01*
X0271816Y0302254D02*
X0270304Y0302254D01*
X0270304Y0302421D02*
X0271816Y0302421D01*
X0271816Y0302588D02*
X0270304Y0302588D01*
X0270304Y0302755D02*
X0271816Y0302755D01*
X0271816Y0302922D02*
X0270304Y0302922D01*
X0270304Y0303089D02*
X0271816Y0303089D01*
X0271816Y0303256D02*
X0270304Y0303256D01*
X0270304Y0303423D02*
X0271816Y0303423D01*
X0271816Y0303590D02*
X0270304Y0303590D01*
X0270304Y0303757D02*
X0271816Y0303757D01*
X0271816Y0303924D02*
X0270304Y0303924D01*
X0270304Y0304091D02*
X0271816Y0304091D01*
X0271816Y0304258D02*
X0270304Y0304258D01*
X0270304Y0304425D02*
X0271816Y0304425D01*
X0271816Y0304592D02*
X0270304Y0304592D01*
X0270304Y0304759D02*
X0271816Y0304759D01*
X0271816Y0304926D02*
X0270304Y0304926D01*
X0270304Y0305093D02*
X0271816Y0305093D01*
X0271816Y0305260D02*
X0270304Y0305260D01*
X0270304Y0305427D02*
X0271816Y0305427D01*
X0271816Y0305594D02*
X0270304Y0305594D01*
X0270304Y0305761D02*
X0271816Y0305761D01*
X0271816Y0305928D02*
X0270304Y0305928D01*
X0270304Y0306095D02*
X0271816Y0306095D01*
X0271816Y0306262D02*
X0270304Y0306262D01*
X0270304Y0306429D02*
X0271816Y0306429D01*
X0271816Y0306596D02*
X0270304Y0306596D01*
X0270304Y0306763D02*
X0271816Y0306763D01*
X0271816Y0306930D02*
X0270304Y0306930D01*
X0270304Y0307097D02*
X0271816Y0307097D01*
X0271816Y0307264D02*
X0270304Y0307264D01*
X0270304Y0307431D02*
X0271816Y0307431D01*
X0271816Y0307598D02*
X0270304Y0307598D01*
X0270304Y0307765D02*
X0271816Y0307765D01*
X0271816Y0307932D02*
X0270304Y0307932D01*
X0270304Y0308099D02*
X0271816Y0308099D01*
X0271816Y0308266D02*
X0270304Y0308266D01*
X0270304Y0308433D02*
X0271816Y0308433D01*
X0271816Y0308600D02*
X0270304Y0308600D01*
X0270304Y0308767D02*
X0271816Y0308767D01*
X0271816Y0308934D02*
X0270304Y0308934D01*
X0270304Y0309101D02*
X0271816Y0309101D01*
X0271816Y0309268D02*
X0270304Y0309268D01*
X0270304Y0309435D02*
X0271816Y0309435D01*
X0271816Y0309602D02*
X0270304Y0309602D01*
X0270304Y0309769D02*
X0271816Y0309769D01*
X0271816Y0309936D02*
X0270304Y0309936D01*
X0272272Y0310044D02*
X0273784Y0310044D01*
X0273784Y0293570D01*
X0272272Y0293570D01*
X0272272Y0310044D01*
X0272272Y0293737D02*
X0273784Y0293737D01*
X0273784Y0293904D02*
X0272272Y0293904D01*
X0272272Y0294071D02*
X0273784Y0294071D01*
X0273784Y0294238D02*
X0272272Y0294238D01*
X0272272Y0294405D02*
X0273784Y0294405D01*
X0273784Y0294572D02*
X0272272Y0294572D01*
X0272272Y0294739D02*
X0273784Y0294739D01*
X0273784Y0294906D02*
X0272272Y0294906D01*
X0272272Y0295073D02*
X0273784Y0295073D01*
X0273784Y0295240D02*
X0272272Y0295240D01*
X0272272Y0295407D02*
X0273784Y0295407D01*
X0273784Y0295574D02*
X0272272Y0295574D01*
X0272272Y0295741D02*
X0273784Y0295741D01*
X0273784Y0295908D02*
X0272272Y0295908D01*
X0272272Y0296075D02*
X0273784Y0296075D01*
X0273784Y0296242D02*
X0272272Y0296242D01*
X0272272Y0296409D02*
X0273784Y0296409D01*
X0273784Y0296576D02*
X0272272Y0296576D01*
X0272272Y0296743D02*
X0273784Y0296743D01*
X0273784Y0296910D02*
X0272272Y0296910D01*
X0272272Y0297077D02*
X0273784Y0297077D01*
X0273784Y0297244D02*
X0272272Y0297244D01*
X0272272Y0297411D02*
X0273784Y0297411D01*
X0273784Y0297578D02*
X0272272Y0297578D01*
X0272272Y0297745D02*
X0273784Y0297745D01*
X0273784Y0297912D02*
X0272272Y0297912D01*
X0272272Y0298079D02*
X0273784Y0298079D01*
X0273784Y0298246D02*
X0272272Y0298246D01*
X0272272Y0298413D02*
X0273784Y0298413D01*
X0273784Y0298580D02*
X0272272Y0298580D01*
X0272272Y0298747D02*
X0273784Y0298747D01*
X0273784Y0298914D02*
X0272272Y0298914D01*
X0272272Y0299081D02*
X0273784Y0299081D01*
X0273784Y0299248D02*
X0272272Y0299248D01*
X0272272Y0299415D02*
X0273784Y0299415D01*
X0273784Y0299582D02*
X0272272Y0299582D01*
X0272272Y0299749D02*
X0273784Y0299749D01*
X0273784Y0299916D02*
X0272272Y0299916D01*
X0272272Y0300083D02*
X0273784Y0300083D01*
X0273784Y0300250D02*
X0272272Y0300250D01*
X0272272Y0300417D02*
X0273784Y0300417D01*
X0273784Y0300584D02*
X0272272Y0300584D01*
X0272272Y0300751D02*
X0273784Y0300751D01*
X0273784Y0300918D02*
X0272272Y0300918D01*
X0272272Y0301085D02*
X0273784Y0301085D01*
X0273784Y0301252D02*
X0272272Y0301252D01*
X0272272Y0301419D02*
X0273784Y0301419D01*
X0273784Y0301586D02*
X0272272Y0301586D01*
X0272272Y0301753D02*
X0273784Y0301753D01*
X0273784Y0301920D02*
X0272272Y0301920D01*
X0272272Y0302087D02*
X0273784Y0302087D01*
X0273784Y0302254D02*
X0272272Y0302254D01*
X0272272Y0302421D02*
X0273784Y0302421D01*
X0273784Y0302588D02*
X0272272Y0302588D01*
X0272272Y0302755D02*
X0273784Y0302755D01*
X0273784Y0302922D02*
X0272272Y0302922D01*
X0272272Y0303089D02*
X0273784Y0303089D01*
X0273784Y0303256D02*
X0272272Y0303256D01*
X0272272Y0303423D02*
X0273784Y0303423D01*
X0273784Y0303590D02*
X0272272Y0303590D01*
X0272272Y0303757D02*
X0273784Y0303757D01*
X0273784Y0303924D02*
X0272272Y0303924D01*
X0272272Y0304091D02*
X0273784Y0304091D01*
X0273784Y0304258D02*
X0272272Y0304258D01*
X0272272Y0304425D02*
X0273784Y0304425D01*
X0273784Y0304592D02*
X0272272Y0304592D01*
X0272272Y0304759D02*
X0273784Y0304759D01*
X0273784Y0304926D02*
X0272272Y0304926D01*
X0272272Y0305093D02*
X0273784Y0305093D01*
X0273784Y0305260D02*
X0272272Y0305260D01*
X0272272Y0305427D02*
X0273784Y0305427D01*
X0273784Y0305594D02*
X0272272Y0305594D01*
X0272272Y0305761D02*
X0273784Y0305761D01*
X0273784Y0305928D02*
X0272272Y0305928D01*
X0272272Y0306095D02*
X0273784Y0306095D01*
X0273784Y0306262D02*
X0272272Y0306262D01*
X0272272Y0306429D02*
X0273784Y0306429D01*
X0273784Y0306596D02*
X0272272Y0306596D01*
X0272272Y0306763D02*
X0273784Y0306763D01*
X0273784Y0306930D02*
X0272272Y0306930D01*
X0272272Y0307097D02*
X0273784Y0307097D01*
X0273784Y0307264D02*
X0272272Y0307264D01*
X0272272Y0307431D02*
X0273784Y0307431D01*
X0273784Y0307598D02*
X0272272Y0307598D01*
X0272272Y0307765D02*
X0273784Y0307765D01*
X0273784Y0307932D02*
X0272272Y0307932D01*
X0272272Y0308099D02*
X0273784Y0308099D01*
X0273784Y0308266D02*
X0272272Y0308266D01*
X0272272Y0308433D02*
X0273784Y0308433D01*
X0273784Y0308600D02*
X0272272Y0308600D01*
X0272272Y0308767D02*
X0273784Y0308767D01*
X0273784Y0308934D02*
X0272272Y0308934D01*
X0272272Y0309101D02*
X0273784Y0309101D01*
X0273784Y0309268D02*
X0272272Y0309268D01*
X0272272Y0309435D02*
X0273784Y0309435D01*
X0273784Y0309602D02*
X0272272Y0309602D01*
X0272272Y0309769D02*
X0273784Y0309769D01*
X0273784Y0309936D02*
X0272272Y0309936D01*
X0274241Y0310044D02*
X0275753Y0310044D01*
X0275753Y0293570D01*
X0274241Y0293570D01*
X0274241Y0310044D01*
X0274241Y0293737D02*
X0275753Y0293737D01*
X0275753Y0293904D02*
X0274241Y0293904D01*
X0274241Y0294071D02*
X0275753Y0294071D01*
X0275753Y0294238D02*
X0274241Y0294238D01*
X0274241Y0294405D02*
X0275753Y0294405D01*
X0275753Y0294572D02*
X0274241Y0294572D01*
X0274241Y0294739D02*
X0275753Y0294739D01*
X0275753Y0294906D02*
X0274241Y0294906D01*
X0274241Y0295073D02*
X0275753Y0295073D01*
X0275753Y0295240D02*
X0274241Y0295240D01*
X0274241Y0295407D02*
X0275753Y0295407D01*
X0275753Y0295574D02*
X0274241Y0295574D01*
X0274241Y0295741D02*
X0275753Y0295741D01*
X0275753Y0295908D02*
X0274241Y0295908D01*
X0274241Y0296075D02*
X0275753Y0296075D01*
X0275753Y0296242D02*
X0274241Y0296242D01*
X0274241Y0296409D02*
X0275753Y0296409D01*
X0275753Y0296576D02*
X0274241Y0296576D01*
X0274241Y0296743D02*
X0275753Y0296743D01*
X0275753Y0296910D02*
X0274241Y0296910D01*
X0274241Y0297077D02*
X0275753Y0297077D01*
X0275753Y0297244D02*
X0274241Y0297244D01*
X0274241Y0297411D02*
X0275753Y0297411D01*
X0275753Y0297578D02*
X0274241Y0297578D01*
X0274241Y0297745D02*
X0275753Y0297745D01*
X0275753Y0297912D02*
X0274241Y0297912D01*
X0274241Y0298079D02*
X0275753Y0298079D01*
X0275753Y0298246D02*
X0274241Y0298246D01*
X0274241Y0298413D02*
X0275753Y0298413D01*
X0275753Y0298580D02*
X0274241Y0298580D01*
X0274241Y0298747D02*
X0275753Y0298747D01*
X0275753Y0298914D02*
X0274241Y0298914D01*
X0274241Y0299081D02*
X0275753Y0299081D01*
X0275753Y0299248D02*
X0274241Y0299248D01*
X0274241Y0299415D02*
X0275753Y0299415D01*
X0275753Y0299582D02*
X0274241Y0299582D01*
X0274241Y0299749D02*
X0275753Y0299749D01*
X0275753Y0299916D02*
X0274241Y0299916D01*
X0274241Y0300083D02*
X0275753Y0300083D01*
X0275753Y0300250D02*
X0274241Y0300250D01*
X0274241Y0300417D02*
X0275753Y0300417D01*
X0275753Y0300584D02*
X0274241Y0300584D01*
X0274241Y0300751D02*
X0275753Y0300751D01*
X0275753Y0300918D02*
X0274241Y0300918D01*
X0274241Y0301085D02*
X0275753Y0301085D01*
X0275753Y0301252D02*
X0274241Y0301252D01*
X0274241Y0301419D02*
X0275753Y0301419D01*
X0275753Y0301586D02*
X0274241Y0301586D01*
X0274241Y0301753D02*
X0275753Y0301753D01*
X0275753Y0301920D02*
X0274241Y0301920D01*
X0274241Y0302087D02*
X0275753Y0302087D01*
X0275753Y0302254D02*
X0274241Y0302254D01*
X0274241Y0302421D02*
X0275753Y0302421D01*
X0275753Y0302588D02*
X0274241Y0302588D01*
X0274241Y0302755D02*
X0275753Y0302755D01*
X0275753Y0302922D02*
X0274241Y0302922D01*
X0274241Y0303089D02*
X0275753Y0303089D01*
X0275753Y0303256D02*
X0274241Y0303256D01*
X0274241Y0303423D02*
X0275753Y0303423D01*
X0275753Y0303590D02*
X0274241Y0303590D01*
X0274241Y0303757D02*
X0275753Y0303757D01*
X0275753Y0303924D02*
X0274241Y0303924D01*
X0274241Y0304091D02*
X0275753Y0304091D01*
X0275753Y0304258D02*
X0274241Y0304258D01*
X0274241Y0304425D02*
X0275753Y0304425D01*
X0275753Y0304592D02*
X0274241Y0304592D01*
X0274241Y0304759D02*
X0275753Y0304759D01*
X0275753Y0304926D02*
X0274241Y0304926D01*
X0274241Y0305093D02*
X0275753Y0305093D01*
X0275753Y0305260D02*
X0274241Y0305260D01*
X0274241Y0305427D02*
X0275753Y0305427D01*
X0275753Y0305594D02*
X0274241Y0305594D01*
X0274241Y0305761D02*
X0275753Y0305761D01*
X0275753Y0305928D02*
X0274241Y0305928D01*
X0274241Y0306095D02*
X0275753Y0306095D01*
X0275753Y0306262D02*
X0274241Y0306262D01*
X0274241Y0306429D02*
X0275753Y0306429D01*
X0275753Y0306596D02*
X0274241Y0306596D01*
X0274241Y0306763D02*
X0275753Y0306763D01*
X0275753Y0306930D02*
X0274241Y0306930D01*
X0274241Y0307097D02*
X0275753Y0307097D01*
X0275753Y0307264D02*
X0274241Y0307264D01*
X0274241Y0307431D02*
X0275753Y0307431D01*
X0275753Y0307598D02*
X0274241Y0307598D01*
X0274241Y0307765D02*
X0275753Y0307765D01*
X0275753Y0307932D02*
X0274241Y0307932D01*
X0274241Y0308099D02*
X0275753Y0308099D01*
X0275753Y0308266D02*
X0274241Y0308266D01*
X0274241Y0308433D02*
X0275753Y0308433D01*
X0275753Y0308600D02*
X0274241Y0308600D01*
X0274241Y0308767D02*
X0275753Y0308767D01*
X0275753Y0308934D02*
X0274241Y0308934D01*
X0274241Y0309101D02*
X0275753Y0309101D01*
X0275753Y0309268D02*
X0274241Y0309268D01*
X0274241Y0309435D02*
X0275753Y0309435D01*
X0275753Y0309602D02*
X0274241Y0309602D01*
X0274241Y0309769D02*
X0275753Y0309769D01*
X0275753Y0309936D02*
X0274241Y0309936D01*
X0276209Y0310044D02*
X0277721Y0310044D01*
X0277721Y0293570D01*
X0276209Y0293570D01*
X0276209Y0310044D01*
X0276209Y0293737D02*
X0277721Y0293737D01*
X0277721Y0293904D02*
X0276209Y0293904D01*
X0276209Y0294071D02*
X0277721Y0294071D01*
X0277721Y0294238D02*
X0276209Y0294238D01*
X0276209Y0294405D02*
X0277721Y0294405D01*
X0277721Y0294572D02*
X0276209Y0294572D01*
X0276209Y0294739D02*
X0277721Y0294739D01*
X0277721Y0294906D02*
X0276209Y0294906D01*
X0276209Y0295073D02*
X0277721Y0295073D01*
X0277721Y0295240D02*
X0276209Y0295240D01*
X0276209Y0295407D02*
X0277721Y0295407D01*
X0277721Y0295574D02*
X0276209Y0295574D01*
X0276209Y0295741D02*
X0277721Y0295741D01*
X0277721Y0295908D02*
X0276209Y0295908D01*
X0276209Y0296075D02*
X0277721Y0296075D01*
X0277721Y0296242D02*
X0276209Y0296242D01*
X0276209Y0296409D02*
X0277721Y0296409D01*
X0277721Y0296576D02*
X0276209Y0296576D01*
X0276209Y0296743D02*
X0277721Y0296743D01*
X0277721Y0296910D02*
X0276209Y0296910D01*
X0276209Y0297077D02*
X0277721Y0297077D01*
X0277721Y0297244D02*
X0276209Y0297244D01*
X0276209Y0297411D02*
X0277721Y0297411D01*
X0277721Y0297578D02*
X0276209Y0297578D01*
X0276209Y0297745D02*
X0277721Y0297745D01*
X0277721Y0297912D02*
X0276209Y0297912D01*
X0276209Y0298079D02*
X0277721Y0298079D01*
X0277721Y0298246D02*
X0276209Y0298246D01*
X0276209Y0298413D02*
X0277721Y0298413D01*
X0277721Y0298580D02*
X0276209Y0298580D01*
X0276209Y0298747D02*
X0277721Y0298747D01*
X0277721Y0298914D02*
X0276209Y0298914D01*
X0276209Y0299081D02*
X0277721Y0299081D01*
X0277721Y0299248D02*
X0276209Y0299248D01*
X0276209Y0299415D02*
X0277721Y0299415D01*
X0277721Y0299582D02*
X0276209Y0299582D01*
X0276209Y0299749D02*
X0277721Y0299749D01*
X0277721Y0299916D02*
X0276209Y0299916D01*
X0276209Y0300083D02*
X0277721Y0300083D01*
X0277721Y0300250D02*
X0276209Y0300250D01*
X0276209Y0300417D02*
X0277721Y0300417D01*
X0277721Y0300584D02*
X0276209Y0300584D01*
X0276209Y0300751D02*
X0277721Y0300751D01*
X0277721Y0300918D02*
X0276209Y0300918D01*
X0276209Y0301085D02*
X0277721Y0301085D01*
X0277721Y0301252D02*
X0276209Y0301252D01*
X0276209Y0301419D02*
X0277721Y0301419D01*
X0277721Y0301586D02*
X0276209Y0301586D01*
X0276209Y0301753D02*
X0277721Y0301753D01*
X0277721Y0301920D02*
X0276209Y0301920D01*
X0276209Y0302087D02*
X0277721Y0302087D01*
X0277721Y0302254D02*
X0276209Y0302254D01*
X0276209Y0302421D02*
X0277721Y0302421D01*
X0277721Y0302588D02*
X0276209Y0302588D01*
X0276209Y0302755D02*
X0277721Y0302755D01*
X0277721Y0302922D02*
X0276209Y0302922D01*
X0276209Y0303089D02*
X0277721Y0303089D01*
X0277721Y0303256D02*
X0276209Y0303256D01*
X0276209Y0303423D02*
X0277721Y0303423D01*
X0277721Y0303590D02*
X0276209Y0303590D01*
X0276209Y0303757D02*
X0277721Y0303757D01*
X0277721Y0303924D02*
X0276209Y0303924D01*
X0276209Y0304091D02*
X0277721Y0304091D01*
X0277721Y0304258D02*
X0276209Y0304258D01*
X0276209Y0304425D02*
X0277721Y0304425D01*
X0277721Y0304592D02*
X0276209Y0304592D01*
X0276209Y0304759D02*
X0277721Y0304759D01*
X0277721Y0304926D02*
X0276209Y0304926D01*
X0276209Y0305093D02*
X0277721Y0305093D01*
X0277721Y0305260D02*
X0276209Y0305260D01*
X0276209Y0305427D02*
X0277721Y0305427D01*
X0277721Y0305594D02*
X0276209Y0305594D01*
X0276209Y0305761D02*
X0277721Y0305761D01*
X0277721Y0305928D02*
X0276209Y0305928D01*
X0276209Y0306095D02*
X0277721Y0306095D01*
X0277721Y0306262D02*
X0276209Y0306262D01*
X0276209Y0306429D02*
X0277721Y0306429D01*
X0277721Y0306596D02*
X0276209Y0306596D01*
X0276209Y0306763D02*
X0277721Y0306763D01*
X0277721Y0306930D02*
X0276209Y0306930D01*
X0276209Y0307097D02*
X0277721Y0307097D01*
X0277721Y0307264D02*
X0276209Y0307264D01*
X0276209Y0307431D02*
X0277721Y0307431D01*
X0277721Y0307598D02*
X0276209Y0307598D01*
X0276209Y0307765D02*
X0277721Y0307765D01*
X0277721Y0307932D02*
X0276209Y0307932D01*
X0276209Y0308099D02*
X0277721Y0308099D01*
X0277721Y0308266D02*
X0276209Y0308266D01*
X0276209Y0308433D02*
X0277721Y0308433D01*
X0277721Y0308600D02*
X0276209Y0308600D01*
X0276209Y0308767D02*
X0277721Y0308767D01*
X0277721Y0308934D02*
X0276209Y0308934D01*
X0276209Y0309101D02*
X0277721Y0309101D01*
X0277721Y0309268D02*
X0276209Y0309268D01*
X0276209Y0309435D02*
X0277721Y0309435D01*
X0277721Y0309602D02*
X0276209Y0309602D01*
X0276209Y0309769D02*
X0277721Y0309769D01*
X0277721Y0309936D02*
X0276209Y0309936D01*
X0278178Y0310044D02*
X0279690Y0310044D01*
X0279690Y0293570D01*
X0278178Y0293570D01*
X0278178Y0310044D01*
X0278178Y0293737D02*
X0279690Y0293737D01*
X0279690Y0293904D02*
X0278178Y0293904D01*
X0278178Y0294071D02*
X0279690Y0294071D01*
X0279690Y0294238D02*
X0278178Y0294238D01*
X0278178Y0294405D02*
X0279690Y0294405D01*
X0279690Y0294572D02*
X0278178Y0294572D01*
X0278178Y0294739D02*
X0279690Y0294739D01*
X0279690Y0294906D02*
X0278178Y0294906D01*
X0278178Y0295073D02*
X0279690Y0295073D01*
X0279690Y0295240D02*
X0278178Y0295240D01*
X0278178Y0295407D02*
X0279690Y0295407D01*
X0279690Y0295574D02*
X0278178Y0295574D01*
X0278178Y0295741D02*
X0279690Y0295741D01*
X0279690Y0295908D02*
X0278178Y0295908D01*
X0278178Y0296075D02*
X0279690Y0296075D01*
X0279690Y0296242D02*
X0278178Y0296242D01*
X0278178Y0296409D02*
X0279690Y0296409D01*
X0279690Y0296576D02*
X0278178Y0296576D01*
X0278178Y0296743D02*
X0279690Y0296743D01*
X0279690Y0296910D02*
X0278178Y0296910D01*
X0278178Y0297077D02*
X0279690Y0297077D01*
X0279690Y0297244D02*
X0278178Y0297244D01*
X0278178Y0297411D02*
X0279690Y0297411D01*
X0279690Y0297578D02*
X0278178Y0297578D01*
X0278178Y0297745D02*
X0279690Y0297745D01*
X0279690Y0297912D02*
X0278178Y0297912D01*
X0278178Y0298079D02*
X0279690Y0298079D01*
X0279690Y0298246D02*
X0278178Y0298246D01*
X0278178Y0298413D02*
X0279690Y0298413D01*
X0279690Y0298580D02*
X0278178Y0298580D01*
X0278178Y0298747D02*
X0279690Y0298747D01*
X0279690Y0298914D02*
X0278178Y0298914D01*
X0278178Y0299081D02*
X0279690Y0299081D01*
X0279690Y0299248D02*
X0278178Y0299248D01*
X0278178Y0299415D02*
X0279690Y0299415D01*
X0279690Y0299582D02*
X0278178Y0299582D01*
X0278178Y0299749D02*
X0279690Y0299749D01*
X0279690Y0299916D02*
X0278178Y0299916D01*
X0278178Y0300083D02*
X0279690Y0300083D01*
X0279690Y0300250D02*
X0278178Y0300250D01*
X0278178Y0300417D02*
X0279690Y0300417D01*
X0279690Y0300584D02*
X0278178Y0300584D01*
X0278178Y0300751D02*
X0279690Y0300751D01*
X0279690Y0300918D02*
X0278178Y0300918D01*
X0278178Y0301085D02*
X0279690Y0301085D01*
X0279690Y0301252D02*
X0278178Y0301252D01*
X0278178Y0301419D02*
X0279690Y0301419D01*
X0279690Y0301586D02*
X0278178Y0301586D01*
X0278178Y0301753D02*
X0279690Y0301753D01*
X0279690Y0301920D02*
X0278178Y0301920D01*
X0278178Y0302087D02*
X0279690Y0302087D01*
X0279690Y0302254D02*
X0278178Y0302254D01*
X0278178Y0302421D02*
X0279690Y0302421D01*
X0279690Y0302588D02*
X0278178Y0302588D01*
X0278178Y0302755D02*
X0279690Y0302755D01*
X0279690Y0302922D02*
X0278178Y0302922D01*
X0278178Y0303089D02*
X0279690Y0303089D01*
X0279690Y0303256D02*
X0278178Y0303256D01*
X0278178Y0303423D02*
X0279690Y0303423D01*
X0279690Y0303590D02*
X0278178Y0303590D01*
X0278178Y0303757D02*
X0279690Y0303757D01*
X0279690Y0303924D02*
X0278178Y0303924D01*
X0278178Y0304091D02*
X0279690Y0304091D01*
X0279690Y0304258D02*
X0278178Y0304258D01*
X0278178Y0304425D02*
X0279690Y0304425D01*
X0279690Y0304592D02*
X0278178Y0304592D01*
X0278178Y0304759D02*
X0279690Y0304759D01*
X0279690Y0304926D02*
X0278178Y0304926D01*
X0278178Y0305093D02*
X0279690Y0305093D01*
X0279690Y0305260D02*
X0278178Y0305260D01*
X0278178Y0305427D02*
X0279690Y0305427D01*
X0279690Y0305594D02*
X0278178Y0305594D01*
X0278178Y0305761D02*
X0279690Y0305761D01*
X0279690Y0305928D02*
X0278178Y0305928D01*
X0278178Y0306095D02*
X0279690Y0306095D01*
X0279690Y0306262D02*
X0278178Y0306262D01*
X0278178Y0306429D02*
X0279690Y0306429D01*
X0279690Y0306596D02*
X0278178Y0306596D01*
X0278178Y0306763D02*
X0279690Y0306763D01*
X0279690Y0306930D02*
X0278178Y0306930D01*
X0278178Y0307097D02*
X0279690Y0307097D01*
X0279690Y0307264D02*
X0278178Y0307264D01*
X0278178Y0307431D02*
X0279690Y0307431D01*
X0279690Y0307598D02*
X0278178Y0307598D01*
X0278178Y0307765D02*
X0279690Y0307765D01*
X0279690Y0307932D02*
X0278178Y0307932D01*
X0278178Y0308099D02*
X0279690Y0308099D01*
X0279690Y0308266D02*
X0278178Y0308266D01*
X0278178Y0308433D02*
X0279690Y0308433D01*
X0279690Y0308600D02*
X0278178Y0308600D01*
X0278178Y0308767D02*
X0279690Y0308767D01*
X0279690Y0308934D02*
X0278178Y0308934D01*
X0278178Y0309101D02*
X0279690Y0309101D01*
X0279690Y0309268D02*
X0278178Y0309268D01*
X0278178Y0309435D02*
X0279690Y0309435D01*
X0279690Y0309602D02*
X0278178Y0309602D01*
X0278178Y0309769D02*
X0279690Y0309769D01*
X0279690Y0309936D02*
X0278178Y0309936D01*
X0280146Y0310044D02*
X0281658Y0310044D01*
X0281658Y0293570D01*
X0280146Y0293570D01*
X0280146Y0310044D01*
X0280146Y0293737D02*
X0281658Y0293737D01*
X0281658Y0293904D02*
X0280146Y0293904D01*
X0280146Y0294071D02*
X0281658Y0294071D01*
X0281658Y0294238D02*
X0280146Y0294238D01*
X0280146Y0294405D02*
X0281658Y0294405D01*
X0281658Y0294572D02*
X0280146Y0294572D01*
X0280146Y0294739D02*
X0281658Y0294739D01*
X0281658Y0294906D02*
X0280146Y0294906D01*
X0280146Y0295073D02*
X0281658Y0295073D01*
X0281658Y0295240D02*
X0280146Y0295240D01*
X0280146Y0295407D02*
X0281658Y0295407D01*
X0281658Y0295574D02*
X0280146Y0295574D01*
X0280146Y0295741D02*
X0281658Y0295741D01*
X0281658Y0295908D02*
X0280146Y0295908D01*
X0280146Y0296075D02*
X0281658Y0296075D01*
X0281658Y0296242D02*
X0280146Y0296242D01*
X0280146Y0296409D02*
X0281658Y0296409D01*
X0281658Y0296576D02*
X0280146Y0296576D01*
X0280146Y0296743D02*
X0281658Y0296743D01*
X0281658Y0296910D02*
X0280146Y0296910D01*
X0280146Y0297077D02*
X0281658Y0297077D01*
X0281658Y0297244D02*
X0280146Y0297244D01*
X0280146Y0297411D02*
X0281658Y0297411D01*
X0281658Y0297578D02*
X0280146Y0297578D01*
X0280146Y0297745D02*
X0281658Y0297745D01*
X0281658Y0297912D02*
X0280146Y0297912D01*
X0280146Y0298079D02*
X0281658Y0298079D01*
X0281658Y0298246D02*
X0280146Y0298246D01*
X0280146Y0298413D02*
X0281658Y0298413D01*
X0281658Y0298580D02*
X0280146Y0298580D01*
X0280146Y0298747D02*
X0281658Y0298747D01*
X0281658Y0298914D02*
X0280146Y0298914D01*
X0280146Y0299081D02*
X0281658Y0299081D01*
X0281658Y0299248D02*
X0280146Y0299248D01*
X0280146Y0299415D02*
X0281658Y0299415D01*
X0281658Y0299582D02*
X0280146Y0299582D01*
X0280146Y0299749D02*
X0281658Y0299749D01*
X0281658Y0299916D02*
X0280146Y0299916D01*
X0280146Y0300083D02*
X0281658Y0300083D01*
X0281658Y0300250D02*
X0280146Y0300250D01*
X0280146Y0300417D02*
X0281658Y0300417D01*
X0281658Y0300584D02*
X0280146Y0300584D01*
X0280146Y0300751D02*
X0281658Y0300751D01*
X0281658Y0300918D02*
X0280146Y0300918D01*
X0280146Y0301085D02*
X0281658Y0301085D01*
X0281658Y0301252D02*
X0280146Y0301252D01*
X0280146Y0301419D02*
X0281658Y0301419D01*
X0281658Y0301586D02*
X0280146Y0301586D01*
X0280146Y0301753D02*
X0281658Y0301753D01*
X0281658Y0301920D02*
X0280146Y0301920D01*
X0280146Y0302087D02*
X0281658Y0302087D01*
X0281658Y0302254D02*
X0280146Y0302254D01*
X0280146Y0302421D02*
X0281658Y0302421D01*
X0281658Y0302588D02*
X0280146Y0302588D01*
X0280146Y0302755D02*
X0281658Y0302755D01*
X0281658Y0302922D02*
X0280146Y0302922D01*
X0280146Y0303089D02*
X0281658Y0303089D01*
X0281658Y0303256D02*
X0280146Y0303256D01*
X0280146Y0303423D02*
X0281658Y0303423D01*
X0281658Y0303590D02*
X0280146Y0303590D01*
X0280146Y0303757D02*
X0281658Y0303757D01*
X0281658Y0303924D02*
X0280146Y0303924D01*
X0280146Y0304091D02*
X0281658Y0304091D01*
X0281658Y0304258D02*
X0280146Y0304258D01*
X0280146Y0304425D02*
X0281658Y0304425D01*
X0281658Y0304592D02*
X0280146Y0304592D01*
X0280146Y0304759D02*
X0281658Y0304759D01*
X0281658Y0304926D02*
X0280146Y0304926D01*
X0280146Y0305093D02*
X0281658Y0305093D01*
X0281658Y0305260D02*
X0280146Y0305260D01*
X0280146Y0305427D02*
X0281658Y0305427D01*
X0281658Y0305594D02*
X0280146Y0305594D01*
X0280146Y0305761D02*
X0281658Y0305761D01*
X0281658Y0305928D02*
X0280146Y0305928D01*
X0280146Y0306095D02*
X0281658Y0306095D01*
X0281658Y0306262D02*
X0280146Y0306262D01*
X0280146Y0306429D02*
X0281658Y0306429D01*
X0281658Y0306596D02*
X0280146Y0306596D01*
X0280146Y0306763D02*
X0281658Y0306763D01*
X0281658Y0306930D02*
X0280146Y0306930D01*
X0280146Y0307097D02*
X0281658Y0307097D01*
X0281658Y0307264D02*
X0280146Y0307264D01*
X0280146Y0307431D02*
X0281658Y0307431D01*
X0281658Y0307598D02*
X0280146Y0307598D01*
X0280146Y0307765D02*
X0281658Y0307765D01*
X0281658Y0307932D02*
X0280146Y0307932D01*
X0280146Y0308099D02*
X0281658Y0308099D01*
X0281658Y0308266D02*
X0280146Y0308266D01*
X0280146Y0308433D02*
X0281658Y0308433D01*
X0281658Y0308600D02*
X0280146Y0308600D01*
X0280146Y0308767D02*
X0281658Y0308767D01*
X0281658Y0308934D02*
X0280146Y0308934D01*
X0280146Y0309101D02*
X0281658Y0309101D01*
X0281658Y0309268D02*
X0280146Y0309268D01*
X0280146Y0309435D02*
X0281658Y0309435D01*
X0281658Y0309602D02*
X0280146Y0309602D01*
X0280146Y0309769D02*
X0281658Y0309769D01*
X0281658Y0309936D02*
X0280146Y0309936D01*
X0282115Y0310044D02*
X0283627Y0310044D01*
X0283627Y0293570D01*
X0282115Y0293570D01*
X0282115Y0310044D01*
X0282115Y0293737D02*
X0283627Y0293737D01*
X0283627Y0293904D02*
X0282115Y0293904D01*
X0282115Y0294071D02*
X0283627Y0294071D01*
X0283627Y0294238D02*
X0282115Y0294238D01*
X0282115Y0294405D02*
X0283627Y0294405D01*
X0283627Y0294572D02*
X0282115Y0294572D01*
X0282115Y0294739D02*
X0283627Y0294739D01*
X0283627Y0294906D02*
X0282115Y0294906D01*
X0282115Y0295073D02*
X0283627Y0295073D01*
X0283627Y0295240D02*
X0282115Y0295240D01*
X0282115Y0295407D02*
X0283627Y0295407D01*
X0283627Y0295574D02*
X0282115Y0295574D01*
X0282115Y0295741D02*
X0283627Y0295741D01*
X0283627Y0295908D02*
X0282115Y0295908D01*
X0282115Y0296075D02*
X0283627Y0296075D01*
X0283627Y0296242D02*
X0282115Y0296242D01*
X0282115Y0296409D02*
X0283627Y0296409D01*
X0283627Y0296576D02*
X0282115Y0296576D01*
X0282115Y0296743D02*
X0283627Y0296743D01*
X0283627Y0296910D02*
X0282115Y0296910D01*
X0282115Y0297077D02*
X0283627Y0297077D01*
X0283627Y0297244D02*
X0282115Y0297244D01*
X0282115Y0297411D02*
X0283627Y0297411D01*
X0283627Y0297578D02*
X0282115Y0297578D01*
X0282115Y0297745D02*
X0283627Y0297745D01*
X0283627Y0297912D02*
X0282115Y0297912D01*
X0282115Y0298079D02*
X0283627Y0298079D01*
X0283627Y0298246D02*
X0282115Y0298246D01*
X0282115Y0298413D02*
X0283627Y0298413D01*
X0283627Y0298580D02*
X0282115Y0298580D01*
X0282115Y0298747D02*
X0283627Y0298747D01*
X0283627Y0298914D02*
X0282115Y0298914D01*
X0282115Y0299081D02*
X0283627Y0299081D01*
X0283627Y0299248D02*
X0282115Y0299248D01*
X0282115Y0299415D02*
X0283627Y0299415D01*
X0283627Y0299582D02*
X0282115Y0299582D01*
X0282115Y0299749D02*
X0283627Y0299749D01*
X0283627Y0299916D02*
X0282115Y0299916D01*
X0282115Y0300083D02*
X0283627Y0300083D01*
X0283627Y0300250D02*
X0282115Y0300250D01*
X0282115Y0300417D02*
X0283627Y0300417D01*
X0283627Y0300584D02*
X0282115Y0300584D01*
X0282115Y0300751D02*
X0283627Y0300751D01*
X0283627Y0300918D02*
X0282115Y0300918D01*
X0282115Y0301085D02*
X0283627Y0301085D01*
X0283627Y0301252D02*
X0282115Y0301252D01*
X0282115Y0301419D02*
X0283627Y0301419D01*
X0283627Y0301586D02*
X0282115Y0301586D01*
X0282115Y0301753D02*
X0283627Y0301753D01*
X0283627Y0301920D02*
X0282115Y0301920D01*
X0282115Y0302087D02*
X0283627Y0302087D01*
X0283627Y0302254D02*
X0282115Y0302254D01*
X0282115Y0302421D02*
X0283627Y0302421D01*
X0283627Y0302588D02*
X0282115Y0302588D01*
X0282115Y0302755D02*
X0283627Y0302755D01*
X0283627Y0302922D02*
X0282115Y0302922D01*
X0282115Y0303089D02*
X0283627Y0303089D01*
X0283627Y0303256D02*
X0282115Y0303256D01*
X0282115Y0303423D02*
X0283627Y0303423D01*
X0283627Y0303590D02*
X0282115Y0303590D01*
X0282115Y0303757D02*
X0283627Y0303757D01*
X0283627Y0303924D02*
X0282115Y0303924D01*
X0282115Y0304091D02*
X0283627Y0304091D01*
X0283627Y0304258D02*
X0282115Y0304258D01*
X0282115Y0304425D02*
X0283627Y0304425D01*
X0283627Y0304592D02*
X0282115Y0304592D01*
X0282115Y0304759D02*
X0283627Y0304759D01*
X0283627Y0304926D02*
X0282115Y0304926D01*
X0282115Y0305093D02*
X0283627Y0305093D01*
X0283627Y0305260D02*
X0282115Y0305260D01*
X0282115Y0305427D02*
X0283627Y0305427D01*
X0283627Y0305594D02*
X0282115Y0305594D01*
X0282115Y0305761D02*
X0283627Y0305761D01*
X0283627Y0305928D02*
X0282115Y0305928D01*
X0282115Y0306095D02*
X0283627Y0306095D01*
X0283627Y0306262D02*
X0282115Y0306262D01*
X0282115Y0306429D02*
X0283627Y0306429D01*
X0283627Y0306596D02*
X0282115Y0306596D01*
X0282115Y0306763D02*
X0283627Y0306763D01*
X0283627Y0306930D02*
X0282115Y0306930D01*
X0282115Y0307097D02*
X0283627Y0307097D01*
X0283627Y0307264D02*
X0282115Y0307264D01*
X0282115Y0307431D02*
X0283627Y0307431D01*
X0283627Y0307598D02*
X0282115Y0307598D01*
X0282115Y0307765D02*
X0283627Y0307765D01*
X0283627Y0307932D02*
X0282115Y0307932D01*
X0282115Y0308099D02*
X0283627Y0308099D01*
X0283627Y0308266D02*
X0282115Y0308266D01*
X0282115Y0308433D02*
X0283627Y0308433D01*
X0283627Y0308600D02*
X0282115Y0308600D01*
X0282115Y0308767D02*
X0283627Y0308767D01*
X0283627Y0308934D02*
X0282115Y0308934D01*
X0282115Y0309101D02*
X0283627Y0309101D01*
X0283627Y0309268D02*
X0282115Y0309268D01*
X0282115Y0309435D02*
X0283627Y0309435D01*
X0283627Y0309602D02*
X0282115Y0309602D01*
X0282115Y0309769D02*
X0283627Y0309769D01*
X0283627Y0309936D02*
X0282115Y0309936D01*
X0284083Y0310044D02*
X0285595Y0310044D01*
X0285595Y0293570D01*
X0284083Y0293570D01*
X0284083Y0310044D01*
X0284083Y0293737D02*
X0285595Y0293737D01*
X0285595Y0293904D02*
X0284083Y0293904D01*
X0284083Y0294071D02*
X0285595Y0294071D01*
X0285595Y0294238D02*
X0284083Y0294238D01*
X0284083Y0294405D02*
X0285595Y0294405D01*
X0285595Y0294572D02*
X0284083Y0294572D01*
X0284083Y0294739D02*
X0285595Y0294739D01*
X0285595Y0294906D02*
X0284083Y0294906D01*
X0284083Y0295073D02*
X0285595Y0295073D01*
X0285595Y0295240D02*
X0284083Y0295240D01*
X0284083Y0295407D02*
X0285595Y0295407D01*
X0285595Y0295574D02*
X0284083Y0295574D01*
X0284083Y0295741D02*
X0285595Y0295741D01*
X0285595Y0295908D02*
X0284083Y0295908D01*
X0284083Y0296075D02*
X0285595Y0296075D01*
X0285595Y0296242D02*
X0284083Y0296242D01*
X0284083Y0296409D02*
X0285595Y0296409D01*
X0285595Y0296576D02*
X0284083Y0296576D01*
X0284083Y0296743D02*
X0285595Y0296743D01*
X0285595Y0296910D02*
X0284083Y0296910D01*
X0284083Y0297077D02*
X0285595Y0297077D01*
X0285595Y0297244D02*
X0284083Y0297244D01*
X0284083Y0297411D02*
X0285595Y0297411D01*
X0285595Y0297578D02*
X0284083Y0297578D01*
X0284083Y0297745D02*
X0285595Y0297745D01*
X0285595Y0297912D02*
X0284083Y0297912D01*
X0284083Y0298079D02*
X0285595Y0298079D01*
X0285595Y0298246D02*
X0284083Y0298246D01*
X0284083Y0298413D02*
X0285595Y0298413D01*
X0285595Y0298580D02*
X0284083Y0298580D01*
X0284083Y0298747D02*
X0285595Y0298747D01*
X0285595Y0298914D02*
X0284083Y0298914D01*
X0284083Y0299081D02*
X0285595Y0299081D01*
X0285595Y0299248D02*
X0284083Y0299248D01*
X0284083Y0299415D02*
X0285595Y0299415D01*
X0285595Y0299582D02*
X0284083Y0299582D01*
X0284083Y0299749D02*
X0285595Y0299749D01*
X0285595Y0299916D02*
X0284083Y0299916D01*
X0284083Y0300083D02*
X0285595Y0300083D01*
X0285595Y0300250D02*
X0284083Y0300250D01*
X0284083Y0300417D02*
X0285595Y0300417D01*
X0285595Y0300584D02*
X0284083Y0300584D01*
X0284083Y0300751D02*
X0285595Y0300751D01*
X0285595Y0300918D02*
X0284083Y0300918D01*
X0284083Y0301085D02*
X0285595Y0301085D01*
X0285595Y0301252D02*
X0284083Y0301252D01*
X0284083Y0301419D02*
X0285595Y0301419D01*
X0285595Y0301586D02*
X0284083Y0301586D01*
X0284083Y0301753D02*
X0285595Y0301753D01*
X0285595Y0301920D02*
X0284083Y0301920D01*
X0284083Y0302087D02*
X0285595Y0302087D01*
X0285595Y0302254D02*
X0284083Y0302254D01*
X0284083Y0302421D02*
X0285595Y0302421D01*
X0285595Y0302588D02*
X0284083Y0302588D01*
X0284083Y0302755D02*
X0285595Y0302755D01*
X0285595Y0302922D02*
X0284083Y0302922D01*
X0284083Y0303089D02*
X0285595Y0303089D01*
X0285595Y0303256D02*
X0284083Y0303256D01*
X0284083Y0303423D02*
X0285595Y0303423D01*
X0285595Y0303590D02*
X0284083Y0303590D01*
X0284083Y0303757D02*
X0285595Y0303757D01*
X0285595Y0303924D02*
X0284083Y0303924D01*
X0284083Y0304091D02*
X0285595Y0304091D01*
X0285595Y0304258D02*
X0284083Y0304258D01*
X0284083Y0304425D02*
X0285595Y0304425D01*
X0285595Y0304592D02*
X0284083Y0304592D01*
X0284083Y0304759D02*
X0285595Y0304759D01*
X0285595Y0304926D02*
X0284083Y0304926D01*
X0284083Y0305093D02*
X0285595Y0305093D01*
X0285595Y0305260D02*
X0284083Y0305260D01*
X0284083Y0305427D02*
X0285595Y0305427D01*
X0285595Y0305594D02*
X0284083Y0305594D01*
X0284083Y0305761D02*
X0285595Y0305761D01*
X0285595Y0305928D02*
X0284083Y0305928D01*
X0284083Y0306095D02*
X0285595Y0306095D01*
X0285595Y0306262D02*
X0284083Y0306262D01*
X0284083Y0306429D02*
X0285595Y0306429D01*
X0285595Y0306596D02*
X0284083Y0306596D01*
X0284083Y0306763D02*
X0285595Y0306763D01*
X0285595Y0306930D02*
X0284083Y0306930D01*
X0284083Y0307097D02*
X0285595Y0307097D01*
X0285595Y0307264D02*
X0284083Y0307264D01*
X0284083Y0307431D02*
X0285595Y0307431D01*
X0285595Y0307598D02*
X0284083Y0307598D01*
X0284083Y0307765D02*
X0285595Y0307765D01*
X0285595Y0307932D02*
X0284083Y0307932D01*
X0284083Y0308099D02*
X0285595Y0308099D01*
X0285595Y0308266D02*
X0284083Y0308266D01*
X0284083Y0308433D02*
X0285595Y0308433D01*
X0285595Y0308600D02*
X0284083Y0308600D01*
X0284083Y0308767D02*
X0285595Y0308767D01*
X0285595Y0308934D02*
X0284083Y0308934D01*
X0284083Y0309101D02*
X0285595Y0309101D01*
X0285595Y0309268D02*
X0284083Y0309268D01*
X0284083Y0309435D02*
X0285595Y0309435D01*
X0285595Y0309602D02*
X0284083Y0309602D01*
X0284083Y0309769D02*
X0285595Y0309769D01*
X0285595Y0309936D02*
X0284083Y0309936D01*
X0286052Y0310044D02*
X0287564Y0310044D01*
X0287564Y0293570D01*
X0286052Y0293570D01*
X0286052Y0310044D01*
X0286052Y0293737D02*
X0287564Y0293737D01*
X0287564Y0293904D02*
X0286052Y0293904D01*
X0286052Y0294071D02*
X0287564Y0294071D01*
X0287564Y0294238D02*
X0286052Y0294238D01*
X0286052Y0294405D02*
X0287564Y0294405D01*
X0287564Y0294572D02*
X0286052Y0294572D01*
X0286052Y0294739D02*
X0287564Y0294739D01*
X0287564Y0294906D02*
X0286052Y0294906D01*
X0286052Y0295073D02*
X0287564Y0295073D01*
X0287564Y0295240D02*
X0286052Y0295240D01*
X0286052Y0295407D02*
X0287564Y0295407D01*
X0287564Y0295574D02*
X0286052Y0295574D01*
X0286052Y0295741D02*
X0287564Y0295741D01*
X0287564Y0295908D02*
X0286052Y0295908D01*
X0286052Y0296075D02*
X0287564Y0296075D01*
X0287564Y0296242D02*
X0286052Y0296242D01*
X0286052Y0296409D02*
X0287564Y0296409D01*
X0287564Y0296576D02*
X0286052Y0296576D01*
X0286052Y0296743D02*
X0287564Y0296743D01*
X0287564Y0296910D02*
X0286052Y0296910D01*
X0286052Y0297077D02*
X0287564Y0297077D01*
X0287564Y0297244D02*
X0286052Y0297244D01*
X0286052Y0297411D02*
X0287564Y0297411D01*
X0287564Y0297578D02*
X0286052Y0297578D01*
X0286052Y0297745D02*
X0287564Y0297745D01*
X0287564Y0297912D02*
X0286052Y0297912D01*
X0286052Y0298079D02*
X0287564Y0298079D01*
X0287564Y0298246D02*
X0286052Y0298246D01*
X0286052Y0298413D02*
X0287564Y0298413D01*
X0287564Y0298580D02*
X0286052Y0298580D01*
X0286052Y0298747D02*
X0287564Y0298747D01*
X0287564Y0298914D02*
X0286052Y0298914D01*
X0286052Y0299081D02*
X0287564Y0299081D01*
X0287564Y0299248D02*
X0286052Y0299248D01*
X0286052Y0299415D02*
X0287564Y0299415D01*
X0287564Y0299582D02*
X0286052Y0299582D01*
X0286052Y0299749D02*
X0287564Y0299749D01*
X0287564Y0299916D02*
X0286052Y0299916D01*
X0286052Y0300083D02*
X0287564Y0300083D01*
X0287564Y0300250D02*
X0286052Y0300250D01*
X0286052Y0300417D02*
X0287564Y0300417D01*
X0287564Y0300584D02*
X0286052Y0300584D01*
X0286052Y0300751D02*
X0287564Y0300751D01*
X0287564Y0300918D02*
X0286052Y0300918D01*
X0286052Y0301085D02*
X0287564Y0301085D01*
X0287564Y0301252D02*
X0286052Y0301252D01*
X0286052Y0301419D02*
X0287564Y0301419D01*
X0287564Y0301586D02*
X0286052Y0301586D01*
X0286052Y0301753D02*
X0287564Y0301753D01*
X0287564Y0301920D02*
X0286052Y0301920D01*
X0286052Y0302087D02*
X0287564Y0302087D01*
X0287564Y0302254D02*
X0286052Y0302254D01*
X0286052Y0302421D02*
X0287564Y0302421D01*
X0287564Y0302588D02*
X0286052Y0302588D01*
X0286052Y0302755D02*
X0287564Y0302755D01*
X0287564Y0302922D02*
X0286052Y0302922D01*
X0286052Y0303089D02*
X0287564Y0303089D01*
X0287564Y0303256D02*
X0286052Y0303256D01*
X0286052Y0303423D02*
X0287564Y0303423D01*
X0287564Y0303590D02*
X0286052Y0303590D01*
X0286052Y0303757D02*
X0287564Y0303757D01*
X0287564Y0303924D02*
X0286052Y0303924D01*
X0286052Y0304091D02*
X0287564Y0304091D01*
X0287564Y0304258D02*
X0286052Y0304258D01*
X0286052Y0304425D02*
X0287564Y0304425D01*
X0287564Y0304592D02*
X0286052Y0304592D01*
X0286052Y0304759D02*
X0287564Y0304759D01*
X0287564Y0304926D02*
X0286052Y0304926D01*
X0286052Y0305093D02*
X0287564Y0305093D01*
X0287564Y0305260D02*
X0286052Y0305260D01*
X0286052Y0305427D02*
X0287564Y0305427D01*
X0287564Y0305594D02*
X0286052Y0305594D01*
X0286052Y0305761D02*
X0287564Y0305761D01*
X0287564Y0305928D02*
X0286052Y0305928D01*
X0286052Y0306095D02*
X0287564Y0306095D01*
X0287564Y0306262D02*
X0286052Y0306262D01*
X0286052Y0306429D02*
X0287564Y0306429D01*
X0287564Y0306596D02*
X0286052Y0306596D01*
X0286052Y0306763D02*
X0287564Y0306763D01*
X0287564Y0306930D02*
X0286052Y0306930D01*
X0286052Y0307097D02*
X0287564Y0307097D01*
X0287564Y0307264D02*
X0286052Y0307264D01*
X0286052Y0307431D02*
X0287564Y0307431D01*
X0287564Y0307598D02*
X0286052Y0307598D01*
X0286052Y0307765D02*
X0287564Y0307765D01*
X0287564Y0307932D02*
X0286052Y0307932D01*
X0286052Y0308099D02*
X0287564Y0308099D01*
X0287564Y0308266D02*
X0286052Y0308266D01*
X0286052Y0308433D02*
X0287564Y0308433D01*
X0287564Y0308600D02*
X0286052Y0308600D01*
X0286052Y0308767D02*
X0287564Y0308767D01*
X0287564Y0308934D02*
X0286052Y0308934D01*
X0286052Y0309101D02*
X0287564Y0309101D01*
X0287564Y0309268D02*
X0286052Y0309268D01*
X0286052Y0309435D02*
X0287564Y0309435D01*
X0287564Y0309602D02*
X0286052Y0309602D01*
X0286052Y0309769D02*
X0287564Y0309769D01*
X0287564Y0309936D02*
X0286052Y0309936D01*
X0288020Y0310044D02*
X0289532Y0310044D01*
X0289532Y0293570D01*
X0288020Y0293570D01*
X0288020Y0310044D01*
X0288020Y0293737D02*
X0289532Y0293737D01*
X0289532Y0293904D02*
X0288020Y0293904D01*
X0288020Y0294071D02*
X0289532Y0294071D01*
X0289532Y0294238D02*
X0288020Y0294238D01*
X0288020Y0294405D02*
X0289532Y0294405D01*
X0289532Y0294572D02*
X0288020Y0294572D01*
X0288020Y0294739D02*
X0289532Y0294739D01*
X0289532Y0294906D02*
X0288020Y0294906D01*
X0288020Y0295073D02*
X0289532Y0295073D01*
X0289532Y0295240D02*
X0288020Y0295240D01*
X0288020Y0295407D02*
X0289532Y0295407D01*
X0289532Y0295574D02*
X0288020Y0295574D01*
X0288020Y0295741D02*
X0289532Y0295741D01*
X0289532Y0295908D02*
X0288020Y0295908D01*
X0288020Y0296075D02*
X0289532Y0296075D01*
X0289532Y0296242D02*
X0288020Y0296242D01*
X0288020Y0296409D02*
X0289532Y0296409D01*
X0289532Y0296576D02*
X0288020Y0296576D01*
X0288020Y0296743D02*
X0289532Y0296743D01*
X0289532Y0296910D02*
X0288020Y0296910D01*
X0288020Y0297077D02*
X0289532Y0297077D01*
X0289532Y0297244D02*
X0288020Y0297244D01*
X0288020Y0297411D02*
X0289532Y0297411D01*
X0289532Y0297578D02*
X0288020Y0297578D01*
X0288020Y0297745D02*
X0289532Y0297745D01*
X0289532Y0297912D02*
X0288020Y0297912D01*
X0288020Y0298079D02*
X0289532Y0298079D01*
X0289532Y0298246D02*
X0288020Y0298246D01*
X0288020Y0298413D02*
X0289532Y0298413D01*
X0289532Y0298580D02*
X0288020Y0298580D01*
X0288020Y0298747D02*
X0289532Y0298747D01*
X0289532Y0298914D02*
X0288020Y0298914D01*
X0288020Y0299081D02*
X0289532Y0299081D01*
X0289532Y0299248D02*
X0288020Y0299248D01*
X0288020Y0299415D02*
X0289532Y0299415D01*
X0289532Y0299582D02*
X0288020Y0299582D01*
X0288020Y0299749D02*
X0289532Y0299749D01*
X0289532Y0299916D02*
X0288020Y0299916D01*
X0288020Y0300083D02*
X0289532Y0300083D01*
X0289532Y0300250D02*
X0288020Y0300250D01*
X0288020Y0300417D02*
X0289532Y0300417D01*
X0289532Y0300584D02*
X0288020Y0300584D01*
X0288020Y0300751D02*
X0289532Y0300751D01*
X0289532Y0300918D02*
X0288020Y0300918D01*
X0288020Y0301085D02*
X0289532Y0301085D01*
X0289532Y0301252D02*
X0288020Y0301252D01*
X0288020Y0301419D02*
X0289532Y0301419D01*
X0289532Y0301586D02*
X0288020Y0301586D01*
X0288020Y0301753D02*
X0289532Y0301753D01*
X0289532Y0301920D02*
X0288020Y0301920D01*
X0288020Y0302087D02*
X0289532Y0302087D01*
X0289532Y0302254D02*
X0288020Y0302254D01*
X0288020Y0302421D02*
X0289532Y0302421D01*
X0289532Y0302588D02*
X0288020Y0302588D01*
X0288020Y0302755D02*
X0289532Y0302755D01*
X0289532Y0302922D02*
X0288020Y0302922D01*
X0288020Y0303089D02*
X0289532Y0303089D01*
X0289532Y0303256D02*
X0288020Y0303256D01*
X0288020Y0303423D02*
X0289532Y0303423D01*
X0289532Y0303590D02*
X0288020Y0303590D01*
X0288020Y0303757D02*
X0289532Y0303757D01*
X0289532Y0303924D02*
X0288020Y0303924D01*
X0288020Y0304091D02*
X0289532Y0304091D01*
X0289532Y0304258D02*
X0288020Y0304258D01*
X0288020Y0304425D02*
X0289532Y0304425D01*
X0289532Y0304592D02*
X0288020Y0304592D01*
X0288020Y0304759D02*
X0289532Y0304759D01*
X0289532Y0304926D02*
X0288020Y0304926D01*
X0288020Y0305093D02*
X0289532Y0305093D01*
X0289532Y0305260D02*
X0288020Y0305260D01*
X0288020Y0305427D02*
X0289532Y0305427D01*
X0289532Y0305594D02*
X0288020Y0305594D01*
X0288020Y0305761D02*
X0289532Y0305761D01*
X0289532Y0305928D02*
X0288020Y0305928D01*
X0288020Y0306095D02*
X0289532Y0306095D01*
X0289532Y0306262D02*
X0288020Y0306262D01*
X0288020Y0306429D02*
X0289532Y0306429D01*
X0289532Y0306596D02*
X0288020Y0306596D01*
X0288020Y0306763D02*
X0289532Y0306763D01*
X0289532Y0306930D02*
X0288020Y0306930D01*
X0288020Y0307097D02*
X0289532Y0307097D01*
X0289532Y0307264D02*
X0288020Y0307264D01*
X0288020Y0307431D02*
X0289532Y0307431D01*
X0289532Y0307598D02*
X0288020Y0307598D01*
X0288020Y0307765D02*
X0289532Y0307765D01*
X0289532Y0307932D02*
X0288020Y0307932D01*
X0288020Y0308099D02*
X0289532Y0308099D01*
X0289532Y0308266D02*
X0288020Y0308266D01*
X0288020Y0308433D02*
X0289532Y0308433D01*
X0289532Y0308600D02*
X0288020Y0308600D01*
X0288020Y0308767D02*
X0289532Y0308767D01*
X0289532Y0308934D02*
X0288020Y0308934D01*
X0288020Y0309101D02*
X0289532Y0309101D01*
X0289532Y0309268D02*
X0288020Y0309268D01*
X0288020Y0309435D02*
X0289532Y0309435D01*
X0289532Y0309602D02*
X0288020Y0309602D01*
X0288020Y0309769D02*
X0289532Y0309769D01*
X0289532Y0309936D02*
X0288020Y0309936D01*
X0289989Y0310044D02*
X0291501Y0310044D01*
X0291501Y0293570D01*
X0289989Y0293570D01*
X0289989Y0310044D01*
X0289989Y0293737D02*
X0291501Y0293737D01*
X0291501Y0293904D02*
X0289989Y0293904D01*
X0289989Y0294071D02*
X0291501Y0294071D01*
X0291501Y0294238D02*
X0289989Y0294238D01*
X0289989Y0294405D02*
X0291501Y0294405D01*
X0291501Y0294572D02*
X0289989Y0294572D01*
X0289989Y0294739D02*
X0291501Y0294739D01*
X0291501Y0294906D02*
X0289989Y0294906D01*
X0289989Y0295073D02*
X0291501Y0295073D01*
X0291501Y0295240D02*
X0289989Y0295240D01*
X0289989Y0295407D02*
X0291501Y0295407D01*
X0291501Y0295574D02*
X0289989Y0295574D01*
X0289989Y0295741D02*
X0291501Y0295741D01*
X0291501Y0295908D02*
X0289989Y0295908D01*
X0289989Y0296075D02*
X0291501Y0296075D01*
X0291501Y0296242D02*
X0289989Y0296242D01*
X0289989Y0296409D02*
X0291501Y0296409D01*
X0291501Y0296576D02*
X0289989Y0296576D01*
X0289989Y0296743D02*
X0291501Y0296743D01*
X0291501Y0296910D02*
X0289989Y0296910D01*
X0289989Y0297077D02*
X0291501Y0297077D01*
X0291501Y0297244D02*
X0289989Y0297244D01*
X0289989Y0297411D02*
X0291501Y0297411D01*
X0291501Y0297578D02*
X0289989Y0297578D01*
X0289989Y0297745D02*
X0291501Y0297745D01*
X0291501Y0297912D02*
X0289989Y0297912D01*
X0289989Y0298079D02*
X0291501Y0298079D01*
X0291501Y0298246D02*
X0289989Y0298246D01*
X0289989Y0298413D02*
X0291501Y0298413D01*
X0291501Y0298580D02*
X0289989Y0298580D01*
X0289989Y0298747D02*
X0291501Y0298747D01*
X0291501Y0298914D02*
X0289989Y0298914D01*
X0289989Y0299081D02*
X0291501Y0299081D01*
X0291501Y0299248D02*
X0289989Y0299248D01*
X0289989Y0299415D02*
X0291501Y0299415D01*
X0291501Y0299582D02*
X0289989Y0299582D01*
X0289989Y0299749D02*
X0291501Y0299749D01*
X0291501Y0299916D02*
X0289989Y0299916D01*
X0289989Y0300083D02*
X0291501Y0300083D01*
X0291501Y0300250D02*
X0289989Y0300250D01*
X0289989Y0300417D02*
X0291501Y0300417D01*
X0291501Y0300584D02*
X0289989Y0300584D01*
X0289989Y0300751D02*
X0291501Y0300751D01*
X0291501Y0300918D02*
X0289989Y0300918D01*
X0289989Y0301085D02*
X0291501Y0301085D01*
X0291501Y0301252D02*
X0289989Y0301252D01*
X0289989Y0301419D02*
X0291501Y0301419D01*
X0291501Y0301586D02*
X0289989Y0301586D01*
X0289989Y0301753D02*
X0291501Y0301753D01*
X0291501Y0301920D02*
X0289989Y0301920D01*
X0289989Y0302087D02*
X0291501Y0302087D01*
X0291501Y0302254D02*
X0289989Y0302254D01*
X0289989Y0302421D02*
X0291501Y0302421D01*
X0291501Y0302588D02*
X0289989Y0302588D01*
X0289989Y0302755D02*
X0291501Y0302755D01*
X0291501Y0302922D02*
X0289989Y0302922D01*
X0289989Y0303089D02*
X0291501Y0303089D01*
X0291501Y0303256D02*
X0289989Y0303256D01*
X0289989Y0303423D02*
X0291501Y0303423D01*
X0291501Y0303590D02*
X0289989Y0303590D01*
X0289989Y0303757D02*
X0291501Y0303757D01*
X0291501Y0303924D02*
X0289989Y0303924D01*
X0289989Y0304091D02*
X0291501Y0304091D01*
X0291501Y0304258D02*
X0289989Y0304258D01*
X0289989Y0304425D02*
X0291501Y0304425D01*
X0291501Y0304592D02*
X0289989Y0304592D01*
X0289989Y0304759D02*
X0291501Y0304759D01*
X0291501Y0304926D02*
X0289989Y0304926D01*
X0289989Y0305093D02*
X0291501Y0305093D01*
X0291501Y0305260D02*
X0289989Y0305260D01*
X0289989Y0305427D02*
X0291501Y0305427D01*
X0291501Y0305594D02*
X0289989Y0305594D01*
X0289989Y0305761D02*
X0291501Y0305761D01*
X0291501Y0305928D02*
X0289989Y0305928D01*
X0289989Y0306095D02*
X0291501Y0306095D01*
X0291501Y0306262D02*
X0289989Y0306262D01*
X0289989Y0306429D02*
X0291501Y0306429D01*
X0291501Y0306596D02*
X0289989Y0306596D01*
X0289989Y0306763D02*
X0291501Y0306763D01*
X0291501Y0306930D02*
X0289989Y0306930D01*
X0289989Y0307097D02*
X0291501Y0307097D01*
X0291501Y0307264D02*
X0289989Y0307264D01*
X0289989Y0307431D02*
X0291501Y0307431D01*
X0291501Y0307598D02*
X0289989Y0307598D01*
X0289989Y0307765D02*
X0291501Y0307765D01*
X0291501Y0307932D02*
X0289989Y0307932D01*
X0289989Y0308099D02*
X0291501Y0308099D01*
X0291501Y0308266D02*
X0289989Y0308266D01*
X0289989Y0308433D02*
X0291501Y0308433D01*
X0291501Y0308600D02*
X0289989Y0308600D01*
X0289989Y0308767D02*
X0291501Y0308767D01*
X0291501Y0308934D02*
X0289989Y0308934D01*
X0289989Y0309101D02*
X0291501Y0309101D01*
X0291501Y0309268D02*
X0289989Y0309268D01*
X0289989Y0309435D02*
X0291501Y0309435D01*
X0291501Y0309602D02*
X0289989Y0309602D01*
X0289989Y0309769D02*
X0291501Y0309769D01*
X0291501Y0309936D02*
X0289989Y0309936D01*
X0291957Y0310044D02*
X0293469Y0310044D01*
X0293469Y0293570D01*
X0291957Y0293570D01*
X0291957Y0310044D01*
X0291957Y0293737D02*
X0293469Y0293737D01*
X0293469Y0293904D02*
X0291957Y0293904D01*
X0291957Y0294071D02*
X0293469Y0294071D01*
X0293469Y0294238D02*
X0291957Y0294238D01*
X0291957Y0294405D02*
X0293469Y0294405D01*
X0293469Y0294572D02*
X0291957Y0294572D01*
X0291957Y0294739D02*
X0293469Y0294739D01*
X0293469Y0294906D02*
X0291957Y0294906D01*
X0291957Y0295073D02*
X0293469Y0295073D01*
X0293469Y0295240D02*
X0291957Y0295240D01*
X0291957Y0295407D02*
X0293469Y0295407D01*
X0293469Y0295574D02*
X0291957Y0295574D01*
X0291957Y0295741D02*
X0293469Y0295741D01*
X0293469Y0295908D02*
X0291957Y0295908D01*
X0291957Y0296075D02*
X0293469Y0296075D01*
X0293469Y0296242D02*
X0291957Y0296242D01*
X0291957Y0296409D02*
X0293469Y0296409D01*
X0293469Y0296576D02*
X0291957Y0296576D01*
X0291957Y0296743D02*
X0293469Y0296743D01*
X0293469Y0296910D02*
X0291957Y0296910D01*
X0291957Y0297077D02*
X0293469Y0297077D01*
X0293469Y0297244D02*
X0291957Y0297244D01*
X0291957Y0297411D02*
X0293469Y0297411D01*
X0293469Y0297578D02*
X0291957Y0297578D01*
X0291957Y0297745D02*
X0293469Y0297745D01*
X0293469Y0297912D02*
X0291957Y0297912D01*
X0291957Y0298079D02*
X0293469Y0298079D01*
X0293469Y0298246D02*
X0291957Y0298246D01*
X0291957Y0298413D02*
X0293469Y0298413D01*
X0293469Y0298580D02*
X0291957Y0298580D01*
X0291957Y0298747D02*
X0293469Y0298747D01*
X0293469Y0298914D02*
X0291957Y0298914D01*
X0291957Y0299081D02*
X0293469Y0299081D01*
X0293469Y0299248D02*
X0291957Y0299248D01*
X0291957Y0299415D02*
X0293469Y0299415D01*
X0293469Y0299582D02*
X0291957Y0299582D01*
X0291957Y0299749D02*
X0293469Y0299749D01*
X0293469Y0299916D02*
X0291957Y0299916D01*
X0291957Y0300083D02*
X0293469Y0300083D01*
X0293469Y0300250D02*
X0291957Y0300250D01*
X0291957Y0300417D02*
X0293469Y0300417D01*
X0293469Y0300584D02*
X0291957Y0300584D01*
X0291957Y0300751D02*
X0293469Y0300751D01*
X0293469Y0300918D02*
X0291957Y0300918D01*
X0291957Y0301085D02*
X0293469Y0301085D01*
X0293469Y0301252D02*
X0291957Y0301252D01*
X0291957Y0301419D02*
X0293469Y0301419D01*
X0293469Y0301586D02*
X0291957Y0301586D01*
X0291957Y0301753D02*
X0293469Y0301753D01*
X0293469Y0301920D02*
X0291957Y0301920D01*
X0291957Y0302087D02*
X0293469Y0302087D01*
X0293469Y0302254D02*
X0291957Y0302254D01*
X0291957Y0302421D02*
X0293469Y0302421D01*
X0293469Y0302588D02*
X0291957Y0302588D01*
X0291957Y0302755D02*
X0293469Y0302755D01*
X0293469Y0302922D02*
X0291957Y0302922D01*
X0291957Y0303089D02*
X0293469Y0303089D01*
X0293469Y0303256D02*
X0291957Y0303256D01*
X0291957Y0303423D02*
X0293469Y0303423D01*
X0293469Y0303590D02*
X0291957Y0303590D01*
X0291957Y0303757D02*
X0293469Y0303757D01*
X0293469Y0303924D02*
X0291957Y0303924D01*
X0291957Y0304091D02*
X0293469Y0304091D01*
X0293469Y0304258D02*
X0291957Y0304258D01*
X0291957Y0304425D02*
X0293469Y0304425D01*
X0293469Y0304592D02*
X0291957Y0304592D01*
X0291957Y0304759D02*
X0293469Y0304759D01*
X0293469Y0304926D02*
X0291957Y0304926D01*
X0291957Y0305093D02*
X0293469Y0305093D01*
X0293469Y0305260D02*
X0291957Y0305260D01*
X0291957Y0305427D02*
X0293469Y0305427D01*
X0293469Y0305594D02*
X0291957Y0305594D01*
X0291957Y0305761D02*
X0293469Y0305761D01*
X0293469Y0305928D02*
X0291957Y0305928D01*
X0291957Y0306095D02*
X0293469Y0306095D01*
X0293469Y0306262D02*
X0291957Y0306262D01*
X0291957Y0306429D02*
X0293469Y0306429D01*
X0293469Y0306596D02*
X0291957Y0306596D01*
X0291957Y0306763D02*
X0293469Y0306763D01*
X0293469Y0306930D02*
X0291957Y0306930D01*
X0291957Y0307097D02*
X0293469Y0307097D01*
X0293469Y0307264D02*
X0291957Y0307264D01*
X0291957Y0307431D02*
X0293469Y0307431D01*
X0293469Y0307598D02*
X0291957Y0307598D01*
X0291957Y0307765D02*
X0293469Y0307765D01*
X0293469Y0307932D02*
X0291957Y0307932D01*
X0291957Y0308099D02*
X0293469Y0308099D01*
X0293469Y0308266D02*
X0291957Y0308266D01*
X0291957Y0308433D02*
X0293469Y0308433D01*
X0293469Y0308600D02*
X0291957Y0308600D01*
X0291957Y0308767D02*
X0293469Y0308767D01*
X0293469Y0308934D02*
X0291957Y0308934D01*
X0291957Y0309101D02*
X0293469Y0309101D01*
X0293469Y0309268D02*
X0291957Y0309268D01*
X0291957Y0309435D02*
X0293469Y0309435D01*
X0293469Y0309602D02*
X0291957Y0309602D01*
X0291957Y0309769D02*
X0293469Y0309769D01*
X0293469Y0309936D02*
X0291957Y0309936D01*
X0293926Y0310044D02*
X0295438Y0310044D01*
X0295438Y0293570D01*
X0293926Y0293570D01*
X0293926Y0310044D01*
X0293926Y0293737D02*
X0295438Y0293737D01*
X0295438Y0293904D02*
X0293926Y0293904D01*
X0293926Y0294071D02*
X0295438Y0294071D01*
X0295438Y0294238D02*
X0293926Y0294238D01*
X0293926Y0294405D02*
X0295438Y0294405D01*
X0295438Y0294572D02*
X0293926Y0294572D01*
X0293926Y0294739D02*
X0295438Y0294739D01*
X0295438Y0294906D02*
X0293926Y0294906D01*
X0293926Y0295073D02*
X0295438Y0295073D01*
X0295438Y0295240D02*
X0293926Y0295240D01*
X0293926Y0295407D02*
X0295438Y0295407D01*
X0295438Y0295574D02*
X0293926Y0295574D01*
X0293926Y0295741D02*
X0295438Y0295741D01*
X0295438Y0295908D02*
X0293926Y0295908D01*
X0293926Y0296075D02*
X0295438Y0296075D01*
X0295438Y0296242D02*
X0293926Y0296242D01*
X0293926Y0296409D02*
X0295438Y0296409D01*
X0295438Y0296576D02*
X0293926Y0296576D01*
X0293926Y0296743D02*
X0295438Y0296743D01*
X0295438Y0296910D02*
X0293926Y0296910D01*
X0293926Y0297077D02*
X0295438Y0297077D01*
X0295438Y0297244D02*
X0293926Y0297244D01*
X0293926Y0297411D02*
X0295438Y0297411D01*
X0295438Y0297578D02*
X0293926Y0297578D01*
X0293926Y0297745D02*
X0295438Y0297745D01*
X0295438Y0297912D02*
X0293926Y0297912D01*
X0293926Y0298079D02*
X0295438Y0298079D01*
X0295438Y0298246D02*
X0293926Y0298246D01*
X0293926Y0298413D02*
X0295438Y0298413D01*
X0295438Y0298580D02*
X0293926Y0298580D01*
X0293926Y0298747D02*
X0295438Y0298747D01*
X0295438Y0298914D02*
X0293926Y0298914D01*
X0293926Y0299081D02*
X0295438Y0299081D01*
X0295438Y0299248D02*
X0293926Y0299248D01*
X0293926Y0299415D02*
X0295438Y0299415D01*
X0295438Y0299582D02*
X0293926Y0299582D01*
X0293926Y0299749D02*
X0295438Y0299749D01*
X0295438Y0299916D02*
X0293926Y0299916D01*
X0293926Y0300083D02*
X0295438Y0300083D01*
X0295438Y0300250D02*
X0293926Y0300250D01*
X0293926Y0300417D02*
X0295438Y0300417D01*
X0295438Y0300584D02*
X0293926Y0300584D01*
X0293926Y0300751D02*
X0295438Y0300751D01*
X0295438Y0300918D02*
X0293926Y0300918D01*
X0293926Y0301085D02*
X0295438Y0301085D01*
X0295438Y0301252D02*
X0293926Y0301252D01*
X0293926Y0301419D02*
X0295438Y0301419D01*
X0295438Y0301586D02*
X0293926Y0301586D01*
X0293926Y0301753D02*
X0295438Y0301753D01*
X0295438Y0301920D02*
X0293926Y0301920D01*
X0293926Y0302087D02*
X0295438Y0302087D01*
X0295438Y0302254D02*
X0293926Y0302254D01*
X0293926Y0302421D02*
X0295438Y0302421D01*
X0295438Y0302588D02*
X0293926Y0302588D01*
X0293926Y0302755D02*
X0295438Y0302755D01*
X0295438Y0302922D02*
X0293926Y0302922D01*
X0293926Y0303089D02*
X0295438Y0303089D01*
X0295438Y0303256D02*
X0293926Y0303256D01*
X0293926Y0303423D02*
X0295438Y0303423D01*
X0295438Y0303590D02*
X0293926Y0303590D01*
X0293926Y0303757D02*
X0295438Y0303757D01*
X0295438Y0303924D02*
X0293926Y0303924D01*
X0293926Y0304091D02*
X0295438Y0304091D01*
X0295438Y0304258D02*
X0293926Y0304258D01*
X0293926Y0304425D02*
X0295438Y0304425D01*
X0295438Y0304592D02*
X0293926Y0304592D01*
X0293926Y0304759D02*
X0295438Y0304759D01*
X0295438Y0304926D02*
X0293926Y0304926D01*
X0293926Y0305093D02*
X0295438Y0305093D01*
X0295438Y0305260D02*
X0293926Y0305260D01*
X0293926Y0305427D02*
X0295438Y0305427D01*
X0295438Y0305594D02*
X0293926Y0305594D01*
X0293926Y0305761D02*
X0295438Y0305761D01*
X0295438Y0305928D02*
X0293926Y0305928D01*
X0293926Y0306095D02*
X0295438Y0306095D01*
X0295438Y0306262D02*
X0293926Y0306262D01*
X0293926Y0306429D02*
X0295438Y0306429D01*
X0295438Y0306596D02*
X0293926Y0306596D01*
X0293926Y0306763D02*
X0295438Y0306763D01*
X0295438Y0306930D02*
X0293926Y0306930D01*
X0293926Y0307097D02*
X0295438Y0307097D01*
X0295438Y0307264D02*
X0293926Y0307264D01*
X0293926Y0307431D02*
X0295438Y0307431D01*
X0295438Y0307598D02*
X0293926Y0307598D01*
X0293926Y0307765D02*
X0295438Y0307765D01*
X0295438Y0307932D02*
X0293926Y0307932D01*
X0293926Y0308099D02*
X0295438Y0308099D01*
X0295438Y0308266D02*
X0293926Y0308266D01*
X0293926Y0308433D02*
X0295438Y0308433D01*
X0295438Y0308600D02*
X0293926Y0308600D01*
X0293926Y0308767D02*
X0295438Y0308767D01*
X0295438Y0308934D02*
X0293926Y0308934D01*
X0293926Y0309101D02*
X0295438Y0309101D01*
X0295438Y0309268D02*
X0293926Y0309268D01*
X0293926Y0309435D02*
X0295438Y0309435D01*
X0295438Y0309602D02*
X0293926Y0309602D01*
X0293926Y0309769D02*
X0295438Y0309769D01*
X0295438Y0309936D02*
X0293926Y0309936D01*
X0194257Y0310044D02*
X0192745Y0310044D01*
X0194257Y0310044D02*
X0194257Y0293570D01*
X0192745Y0293570D01*
X0192745Y0310044D01*
X0192745Y0293737D02*
X0194257Y0293737D01*
X0194257Y0293904D02*
X0192745Y0293904D01*
X0192745Y0294071D02*
X0194257Y0294071D01*
X0194257Y0294238D02*
X0192745Y0294238D01*
X0192745Y0294405D02*
X0194257Y0294405D01*
X0194257Y0294572D02*
X0192745Y0294572D01*
X0192745Y0294739D02*
X0194257Y0294739D01*
X0194257Y0294906D02*
X0192745Y0294906D01*
X0192745Y0295073D02*
X0194257Y0295073D01*
X0194257Y0295240D02*
X0192745Y0295240D01*
X0192745Y0295407D02*
X0194257Y0295407D01*
X0194257Y0295574D02*
X0192745Y0295574D01*
X0192745Y0295741D02*
X0194257Y0295741D01*
X0194257Y0295908D02*
X0192745Y0295908D01*
X0192745Y0296075D02*
X0194257Y0296075D01*
X0194257Y0296242D02*
X0192745Y0296242D01*
X0192745Y0296409D02*
X0194257Y0296409D01*
X0194257Y0296576D02*
X0192745Y0296576D01*
X0192745Y0296743D02*
X0194257Y0296743D01*
X0194257Y0296910D02*
X0192745Y0296910D01*
X0192745Y0297077D02*
X0194257Y0297077D01*
X0194257Y0297244D02*
X0192745Y0297244D01*
X0192745Y0297411D02*
X0194257Y0297411D01*
X0194257Y0297578D02*
X0192745Y0297578D01*
X0192745Y0297745D02*
X0194257Y0297745D01*
X0194257Y0297912D02*
X0192745Y0297912D01*
X0192745Y0298079D02*
X0194257Y0298079D01*
X0194257Y0298246D02*
X0192745Y0298246D01*
X0192745Y0298413D02*
X0194257Y0298413D01*
X0194257Y0298580D02*
X0192745Y0298580D01*
X0192745Y0298747D02*
X0194257Y0298747D01*
X0194257Y0298914D02*
X0192745Y0298914D01*
X0192745Y0299081D02*
X0194257Y0299081D01*
X0194257Y0299248D02*
X0192745Y0299248D01*
X0192745Y0299415D02*
X0194257Y0299415D01*
X0194257Y0299582D02*
X0192745Y0299582D01*
X0192745Y0299749D02*
X0194257Y0299749D01*
X0194257Y0299916D02*
X0192745Y0299916D01*
X0192745Y0300083D02*
X0194257Y0300083D01*
X0194257Y0300250D02*
X0192745Y0300250D01*
X0192745Y0300417D02*
X0194257Y0300417D01*
X0194257Y0300584D02*
X0192745Y0300584D01*
X0192745Y0300751D02*
X0194257Y0300751D01*
X0194257Y0300918D02*
X0192745Y0300918D01*
X0192745Y0301085D02*
X0194257Y0301085D01*
X0194257Y0301252D02*
X0192745Y0301252D01*
X0192745Y0301419D02*
X0194257Y0301419D01*
X0194257Y0301586D02*
X0192745Y0301586D01*
X0192745Y0301753D02*
X0194257Y0301753D01*
X0194257Y0301920D02*
X0192745Y0301920D01*
X0192745Y0302087D02*
X0194257Y0302087D01*
X0194257Y0302254D02*
X0192745Y0302254D01*
X0192745Y0302421D02*
X0194257Y0302421D01*
X0194257Y0302588D02*
X0192745Y0302588D01*
X0192745Y0302755D02*
X0194257Y0302755D01*
X0194257Y0302922D02*
X0192745Y0302922D01*
X0192745Y0303089D02*
X0194257Y0303089D01*
X0194257Y0303256D02*
X0192745Y0303256D01*
X0192745Y0303423D02*
X0194257Y0303423D01*
X0194257Y0303590D02*
X0192745Y0303590D01*
X0192745Y0303757D02*
X0194257Y0303757D01*
X0194257Y0303924D02*
X0192745Y0303924D01*
X0192745Y0304091D02*
X0194257Y0304091D01*
X0194257Y0304258D02*
X0192745Y0304258D01*
X0192745Y0304425D02*
X0194257Y0304425D01*
X0194257Y0304592D02*
X0192745Y0304592D01*
X0192745Y0304759D02*
X0194257Y0304759D01*
X0194257Y0304926D02*
X0192745Y0304926D01*
X0192745Y0305093D02*
X0194257Y0305093D01*
X0194257Y0305260D02*
X0192745Y0305260D01*
X0192745Y0305427D02*
X0194257Y0305427D01*
X0194257Y0305594D02*
X0192745Y0305594D01*
X0192745Y0305761D02*
X0194257Y0305761D01*
X0194257Y0305928D02*
X0192745Y0305928D01*
X0192745Y0306095D02*
X0194257Y0306095D01*
X0194257Y0306262D02*
X0192745Y0306262D01*
X0192745Y0306429D02*
X0194257Y0306429D01*
X0194257Y0306596D02*
X0192745Y0306596D01*
X0192745Y0306763D02*
X0194257Y0306763D01*
X0194257Y0306930D02*
X0192745Y0306930D01*
X0192745Y0307097D02*
X0194257Y0307097D01*
X0194257Y0307264D02*
X0192745Y0307264D01*
X0192745Y0307431D02*
X0194257Y0307431D01*
X0194257Y0307598D02*
X0192745Y0307598D01*
X0192745Y0307765D02*
X0194257Y0307765D01*
X0194257Y0307932D02*
X0192745Y0307932D01*
X0192745Y0308099D02*
X0194257Y0308099D01*
X0194257Y0308266D02*
X0192745Y0308266D01*
X0192745Y0308433D02*
X0194257Y0308433D01*
X0194257Y0308600D02*
X0192745Y0308600D01*
X0192745Y0308767D02*
X0194257Y0308767D01*
X0194257Y0308934D02*
X0192745Y0308934D01*
X0192745Y0309101D02*
X0194257Y0309101D01*
X0194257Y0309268D02*
X0192745Y0309268D01*
X0192745Y0309435D02*
X0194257Y0309435D01*
X0194257Y0309602D02*
X0192745Y0309602D01*
X0192745Y0309769D02*
X0194257Y0309769D01*
X0194257Y0309936D02*
X0192745Y0309936D01*
X0192288Y0310044D02*
X0190776Y0310044D01*
X0192288Y0310044D02*
X0192288Y0293570D01*
X0190776Y0293570D01*
X0190776Y0310044D01*
X0190776Y0293737D02*
X0192288Y0293737D01*
X0192288Y0293904D02*
X0190776Y0293904D01*
X0190776Y0294071D02*
X0192288Y0294071D01*
X0192288Y0294238D02*
X0190776Y0294238D01*
X0190776Y0294405D02*
X0192288Y0294405D01*
X0192288Y0294572D02*
X0190776Y0294572D01*
X0190776Y0294739D02*
X0192288Y0294739D01*
X0192288Y0294906D02*
X0190776Y0294906D01*
X0190776Y0295073D02*
X0192288Y0295073D01*
X0192288Y0295240D02*
X0190776Y0295240D01*
X0190776Y0295407D02*
X0192288Y0295407D01*
X0192288Y0295574D02*
X0190776Y0295574D01*
X0190776Y0295741D02*
X0192288Y0295741D01*
X0192288Y0295908D02*
X0190776Y0295908D01*
X0190776Y0296075D02*
X0192288Y0296075D01*
X0192288Y0296242D02*
X0190776Y0296242D01*
X0190776Y0296409D02*
X0192288Y0296409D01*
X0192288Y0296576D02*
X0190776Y0296576D01*
X0190776Y0296743D02*
X0192288Y0296743D01*
X0192288Y0296910D02*
X0190776Y0296910D01*
X0190776Y0297077D02*
X0192288Y0297077D01*
X0192288Y0297244D02*
X0190776Y0297244D01*
X0190776Y0297411D02*
X0192288Y0297411D01*
X0192288Y0297578D02*
X0190776Y0297578D01*
X0190776Y0297745D02*
X0192288Y0297745D01*
X0192288Y0297912D02*
X0190776Y0297912D01*
X0190776Y0298079D02*
X0192288Y0298079D01*
X0192288Y0298246D02*
X0190776Y0298246D01*
X0190776Y0298413D02*
X0192288Y0298413D01*
X0192288Y0298580D02*
X0190776Y0298580D01*
X0190776Y0298747D02*
X0192288Y0298747D01*
X0192288Y0298914D02*
X0190776Y0298914D01*
X0190776Y0299081D02*
X0192288Y0299081D01*
X0192288Y0299248D02*
X0190776Y0299248D01*
X0190776Y0299415D02*
X0192288Y0299415D01*
X0192288Y0299582D02*
X0190776Y0299582D01*
X0190776Y0299749D02*
X0192288Y0299749D01*
X0192288Y0299916D02*
X0190776Y0299916D01*
X0190776Y0300083D02*
X0192288Y0300083D01*
X0192288Y0300250D02*
X0190776Y0300250D01*
X0190776Y0300417D02*
X0192288Y0300417D01*
X0192288Y0300584D02*
X0190776Y0300584D01*
X0190776Y0300751D02*
X0192288Y0300751D01*
X0192288Y0300918D02*
X0190776Y0300918D01*
X0190776Y0301085D02*
X0192288Y0301085D01*
X0192288Y0301252D02*
X0190776Y0301252D01*
X0190776Y0301419D02*
X0192288Y0301419D01*
X0192288Y0301586D02*
X0190776Y0301586D01*
X0190776Y0301753D02*
X0192288Y0301753D01*
X0192288Y0301920D02*
X0190776Y0301920D01*
X0190776Y0302087D02*
X0192288Y0302087D01*
X0192288Y0302254D02*
X0190776Y0302254D01*
X0190776Y0302421D02*
X0192288Y0302421D01*
X0192288Y0302588D02*
X0190776Y0302588D01*
X0190776Y0302755D02*
X0192288Y0302755D01*
X0192288Y0302922D02*
X0190776Y0302922D01*
X0190776Y0303089D02*
X0192288Y0303089D01*
X0192288Y0303256D02*
X0190776Y0303256D01*
X0190776Y0303423D02*
X0192288Y0303423D01*
X0192288Y0303590D02*
X0190776Y0303590D01*
X0190776Y0303757D02*
X0192288Y0303757D01*
X0192288Y0303924D02*
X0190776Y0303924D01*
X0190776Y0304091D02*
X0192288Y0304091D01*
X0192288Y0304258D02*
X0190776Y0304258D01*
X0190776Y0304425D02*
X0192288Y0304425D01*
X0192288Y0304592D02*
X0190776Y0304592D01*
X0190776Y0304759D02*
X0192288Y0304759D01*
X0192288Y0304926D02*
X0190776Y0304926D01*
X0190776Y0305093D02*
X0192288Y0305093D01*
X0192288Y0305260D02*
X0190776Y0305260D01*
X0190776Y0305427D02*
X0192288Y0305427D01*
X0192288Y0305594D02*
X0190776Y0305594D01*
X0190776Y0305761D02*
X0192288Y0305761D01*
X0192288Y0305928D02*
X0190776Y0305928D01*
X0190776Y0306095D02*
X0192288Y0306095D01*
X0192288Y0306262D02*
X0190776Y0306262D01*
X0190776Y0306429D02*
X0192288Y0306429D01*
X0192288Y0306596D02*
X0190776Y0306596D01*
X0190776Y0306763D02*
X0192288Y0306763D01*
X0192288Y0306930D02*
X0190776Y0306930D01*
X0190776Y0307097D02*
X0192288Y0307097D01*
X0192288Y0307264D02*
X0190776Y0307264D01*
X0190776Y0307431D02*
X0192288Y0307431D01*
X0192288Y0307598D02*
X0190776Y0307598D01*
X0190776Y0307765D02*
X0192288Y0307765D01*
X0192288Y0307932D02*
X0190776Y0307932D01*
X0190776Y0308099D02*
X0192288Y0308099D01*
X0192288Y0308266D02*
X0190776Y0308266D01*
X0190776Y0308433D02*
X0192288Y0308433D01*
X0192288Y0308600D02*
X0190776Y0308600D01*
X0190776Y0308767D02*
X0192288Y0308767D01*
X0192288Y0308934D02*
X0190776Y0308934D01*
X0190776Y0309101D02*
X0192288Y0309101D01*
X0192288Y0309268D02*
X0190776Y0309268D01*
X0190776Y0309435D02*
X0192288Y0309435D01*
X0192288Y0309602D02*
X0190776Y0309602D01*
X0190776Y0309769D02*
X0192288Y0309769D01*
X0192288Y0309936D02*
X0190776Y0309936D01*
X0190320Y0310044D02*
X0188808Y0310044D01*
X0190320Y0310044D02*
X0190320Y0293570D01*
X0188808Y0293570D01*
X0188808Y0310044D01*
X0188808Y0293737D02*
X0190320Y0293737D01*
X0190320Y0293904D02*
X0188808Y0293904D01*
X0188808Y0294071D02*
X0190320Y0294071D01*
X0190320Y0294238D02*
X0188808Y0294238D01*
X0188808Y0294405D02*
X0190320Y0294405D01*
X0190320Y0294572D02*
X0188808Y0294572D01*
X0188808Y0294739D02*
X0190320Y0294739D01*
X0190320Y0294906D02*
X0188808Y0294906D01*
X0188808Y0295073D02*
X0190320Y0295073D01*
X0190320Y0295240D02*
X0188808Y0295240D01*
X0188808Y0295407D02*
X0190320Y0295407D01*
X0190320Y0295574D02*
X0188808Y0295574D01*
X0188808Y0295741D02*
X0190320Y0295741D01*
X0190320Y0295908D02*
X0188808Y0295908D01*
X0188808Y0296075D02*
X0190320Y0296075D01*
X0190320Y0296242D02*
X0188808Y0296242D01*
X0188808Y0296409D02*
X0190320Y0296409D01*
X0190320Y0296576D02*
X0188808Y0296576D01*
X0188808Y0296743D02*
X0190320Y0296743D01*
X0190320Y0296910D02*
X0188808Y0296910D01*
X0188808Y0297077D02*
X0190320Y0297077D01*
X0190320Y0297244D02*
X0188808Y0297244D01*
X0188808Y0297411D02*
X0190320Y0297411D01*
X0190320Y0297578D02*
X0188808Y0297578D01*
X0188808Y0297745D02*
X0190320Y0297745D01*
X0190320Y0297912D02*
X0188808Y0297912D01*
X0188808Y0298079D02*
X0190320Y0298079D01*
X0190320Y0298246D02*
X0188808Y0298246D01*
X0188808Y0298413D02*
X0190320Y0298413D01*
X0190320Y0298580D02*
X0188808Y0298580D01*
X0188808Y0298747D02*
X0190320Y0298747D01*
X0190320Y0298914D02*
X0188808Y0298914D01*
X0188808Y0299081D02*
X0190320Y0299081D01*
X0190320Y0299248D02*
X0188808Y0299248D01*
X0188808Y0299415D02*
X0190320Y0299415D01*
X0190320Y0299582D02*
X0188808Y0299582D01*
X0188808Y0299749D02*
X0190320Y0299749D01*
X0190320Y0299916D02*
X0188808Y0299916D01*
X0188808Y0300083D02*
X0190320Y0300083D01*
X0190320Y0300250D02*
X0188808Y0300250D01*
X0188808Y0300417D02*
X0190320Y0300417D01*
X0190320Y0300584D02*
X0188808Y0300584D01*
X0188808Y0300751D02*
X0190320Y0300751D01*
X0190320Y0300918D02*
X0188808Y0300918D01*
X0188808Y0301085D02*
X0190320Y0301085D01*
X0190320Y0301252D02*
X0188808Y0301252D01*
X0188808Y0301419D02*
X0190320Y0301419D01*
X0190320Y0301586D02*
X0188808Y0301586D01*
X0188808Y0301753D02*
X0190320Y0301753D01*
X0190320Y0301920D02*
X0188808Y0301920D01*
X0188808Y0302087D02*
X0190320Y0302087D01*
X0190320Y0302254D02*
X0188808Y0302254D01*
X0188808Y0302421D02*
X0190320Y0302421D01*
X0190320Y0302588D02*
X0188808Y0302588D01*
X0188808Y0302755D02*
X0190320Y0302755D01*
X0190320Y0302922D02*
X0188808Y0302922D01*
X0188808Y0303089D02*
X0190320Y0303089D01*
X0190320Y0303256D02*
X0188808Y0303256D01*
X0188808Y0303423D02*
X0190320Y0303423D01*
X0190320Y0303590D02*
X0188808Y0303590D01*
X0188808Y0303757D02*
X0190320Y0303757D01*
X0190320Y0303924D02*
X0188808Y0303924D01*
X0188808Y0304091D02*
X0190320Y0304091D01*
X0190320Y0304258D02*
X0188808Y0304258D01*
X0188808Y0304425D02*
X0190320Y0304425D01*
X0190320Y0304592D02*
X0188808Y0304592D01*
X0188808Y0304759D02*
X0190320Y0304759D01*
X0190320Y0304926D02*
X0188808Y0304926D01*
X0188808Y0305093D02*
X0190320Y0305093D01*
X0190320Y0305260D02*
X0188808Y0305260D01*
X0188808Y0305427D02*
X0190320Y0305427D01*
X0190320Y0305594D02*
X0188808Y0305594D01*
X0188808Y0305761D02*
X0190320Y0305761D01*
X0190320Y0305928D02*
X0188808Y0305928D01*
X0188808Y0306095D02*
X0190320Y0306095D01*
X0190320Y0306262D02*
X0188808Y0306262D01*
X0188808Y0306429D02*
X0190320Y0306429D01*
X0190320Y0306596D02*
X0188808Y0306596D01*
X0188808Y0306763D02*
X0190320Y0306763D01*
X0190320Y0306930D02*
X0188808Y0306930D01*
X0188808Y0307097D02*
X0190320Y0307097D01*
X0190320Y0307264D02*
X0188808Y0307264D01*
X0188808Y0307431D02*
X0190320Y0307431D01*
X0190320Y0307598D02*
X0188808Y0307598D01*
X0188808Y0307765D02*
X0190320Y0307765D01*
X0190320Y0307932D02*
X0188808Y0307932D01*
X0188808Y0308099D02*
X0190320Y0308099D01*
X0190320Y0308266D02*
X0188808Y0308266D01*
X0188808Y0308433D02*
X0190320Y0308433D01*
X0190320Y0308600D02*
X0188808Y0308600D01*
X0188808Y0308767D02*
X0190320Y0308767D01*
X0190320Y0308934D02*
X0188808Y0308934D01*
X0188808Y0309101D02*
X0190320Y0309101D01*
X0190320Y0309268D02*
X0188808Y0309268D01*
X0188808Y0309435D02*
X0190320Y0309435D01*
X0190320Y0309602D02*
X0188808Y0309602D01*
X0188808Y0309769D02*
X0190320Y0309769D01*
X0190320Y0309936D02*
X0188808Y0309936D01*
X0188351Y0310044D02*
X0186839Y0310044D01*
X0188351Y0310044D02*
X0188351Y0293570D01*
X0186839Y0293570D01*
X0186839Y0310044D01*
X0186839Y0293737D02*
X0188351Y0293737D01*
X0188351Y0293904D02*
X0186839Y0293904D01*
X0186839Y0294071D02*
X0188351Y0294071D01*
X0188351Y0294238D02*
X0186839Y0294238D01*
X0186839Y0294405D02*
X0188351Y0294405D01*
X0188351Y0294572D02*
X0186839Y0294572D01*
X0186839Y0294739D02*
X0188351Y0294739D01*
X0188351Y0294906D02*
X0186839Y0294906D01*
X0186839Y0295073D02*
X0188351Y0295073D01*
X0188351Y0295240D02*
X0186839Y0295240D01*
X0186839Y0295407D02*
X0188351Y0295407D01*
X0188351Y0295574D02*
X0186839Y0295574D01*
X0186839Y0295741D02*
X0188351Y0295741D01*
X0188351Y0295908D02*
X0186839Y0295908D01*
X0186839Y0296075D02*
X0188351Y0296075D01*
X0188351Y0296242D02*
X0186839Y0296242D01*
X0186839Y0296409D02*
X0188351Y0296409D01*
X0188351Y0296576D02*
X0186839Y0296576D01*
X0186839Y0296743D02*
X0188351Y0296743D01*
X0188351Y0296910D02*
X0186839Y0296910D01*
X0186839Y0297077D02*
X0188351Y0297077D01*
X0188351Y0297244D02*
X0186839Y0297244D01*
X0186839Y0297411D02*
X0188351Y0297411D01*
X0188351Y0297578D02*
X0186839Y0297578D01*
X0186839Y0297745D02*
X0188351Y0297745D01*
X0188351Y0297912D02*
X0186839Y0297912D01*
X0186839Y0298079D02*
X0188351Y0298079D01*
X0188351Y0298246D02*
X0186839Y0298246D01*
X0186839Y0298413D02*
X0188351Y0298413D01*
X0188351Y0298580D02*
X0186839Y0298580D01*
X0186839Y0298747D02*
X0188351Y0298747D01*
X0188351Y0298914D02*
X0186839Y0298914D01*
X0186839Y0299081D02*
X0188351Y0299081D01*
X0188351Y0299248D02*
X0186839Y0299248D01*
X0186839Y0299415D02*
X0188351Y0299415D01*
X0188351Y0299582D02*
X0186839Y0299582D01*
X0186839Y0299749D02*
X0188351Y0299749D01*
X0188351Y0299916D02*
X0186839Y0299916D01*
X0186839Y0300083D02*
X0188351Y0300083D01*
X0188351Y0300250D02*
X0186839Y0300250D01*
X0186839Y0300417D02*
X0188351Y0300417D01*
X0188351Y0300584D02*
X0186839Y0300584D01*
X0186839Y0300751D02*
X0188351Y0300751D01*
X0188351Y0300918D02*
X0186839Y0300918D01*
X0186839Y0301085D02*
X0188351Y0301085D01*
X0188351Y0301252D02*
X0186839Y0301252D01*
X0186839Y0301419D02*
X0188351Y0301419D01*
X0188351Y0301586D02*
X0186839Y0301586D01*
X0186839Y0301753D02*
X0188351Y0301753D01*
X0188351Y0301920D02*
X0186839Y0301920D01*
X0186839Y0302087D02*
X0188351Y0302087D01*
X0188351Y0302254D02*
X0186839Y0302254D01*
X0186839Y0302421D02*
X0188351Y0302421D01*
X0188351Y0302588D02*
X0186839Y0302588D01*
X0186839Y0302755D02*
X0188351Y0302755D01*
X0188351Y0302922D02*
X0186839Y0302922D01*
X0186839Y0303089D02*
X0188351Y0303089D01*
X0188351Y0303256D02*
X0186839Y0303256D01*
X0186839Y0303423D02*
X0188351Y0303423D01*
X0188351Y0303590D02*
X0186839Y0303590D01*
X0186839Y0303757D02*
X0188351Y0303757D01*
X0188351Y0303924D02*
X0186839Y0303924D01*
X0186839Y0304091D02*
X0188351Y0304091D01*
X0188351Y0304258D02*
X0186839Y0304258D01*
X0186839Y0304425D02*
X0188351Y0304425D01*
X0188351Y0304592D02*
X0186839Y0304592D01*
X0186839Y0304759D02*
X0188351Y0304759D01*
X0188351Y0304926D02*
X0186839Y0304926D01*
X0186839Y0305093D02*
X0188351Y0305093D01*
X0188351Y0305260D02*
X0186839Y0305260D01*
X0186839Y0305427D02*
X0188351Y0305427D01*
X0188351Y0305594D02*
X0186839Y0305594D01*
X0186839Y0305761D02*
X0188351Y0305761D01*
X0188351Y0305928D02*
X0186839Y0305928D01*
X0186839Y0306095D02*
X0188351Y0306095D01*
X0188351Y0306262D02*
X0186839Y0306262D01*
X0186839Y0306429D02*
X0188351Y0306429D01*
X0188351Y0306596D02*
X0186839Y0306596D01*
X0186839Y0306763D02*
X0188351Y0306763D01*
X0188351Y0306930D02*
X0186839Y0306930D01*
X0186839Y0307097D02*
X0188351Y0307097D01*
X0188351Y0307264D02*
X0186839Y0307264D01*
X0186839Y0307431D02*
X0188351Y0307431D01*
X0188351Y0307598D02*
X0186839Y0307598D01*
X0186839Y0307765D02*
X0188351Y0307765D01*
X0188351Y0307932D02*
X0186839Y0307932D01*
X0186839Y0308099D02*
X0188351Y0308099D01*
X0188351Y0308266D02*
X0186839Y0308266D01*
X0186839Y0308433D02*
X0188351Y0308433D01*
X0188351Y0308600D02*
X0186839Y0308600D01*
X0186839Y0308767D02*
X0188351Y0308767D01*
X0188351Y0308934D02*
X0186839Y0308934D01*
X0186839Y0309101D02*
X0188351Y0309101D01*
X0188351Y0309268D02*
X0186839Y0309268D01*
X0186839Y0309435D02*
X0188351Y0309435D01*
X0188351Y0309602D02*
X0186839Y0309602D01*
X0186839Y0309769D02*
X0188351Y0309769D01*
X0188351Y0309936D02*
X0186839Y0309936D01*
X0186383Y0310044D02*
X0184871Y0310044D01*
X0186383Y0310044D02*
X0186383Y0293570D01*
X0184871Y0293570D01*
X0184871Y0310044D01*
X0184871Y0293737D02*
X0186383Y0293737D01*
X0186383Y0293904D02*
X0184871Y0293904D01*
X0184871Y0294071D02*
X0186383Y0294071D01*
X0186383Y0294238D02*
X0184871Y0294238D01*
X0184871Y0294405D02*
X0186383Y0294405D01*
X0186383Y0294572D02*
X0184871Y0294572D01*
X0184871Y0294739D02*
X0186383Y0294739D01*
X0186383Y0294906D02*
X0184871Y0294906D01*
X0184871Y0295073D02*
X0186383Y0295073D01*
X0186383Y0295240D02*
X0184871Y0295240D01*
X0184871Y0295407D02*
X0186383Y0295407D01*
X0186383Y0295574D02*
X0184871Y0295574D01*
X0184871Y0295741D02*
X0186383Y0295741D01*
X0186383Y0295908D02*
X0184871Y0295908D01*
X0184871Y0296075D02*
X0186383Y0296075D01*
X0186383Y0296242D02*
X0184871Y0296242D01*
X0184871Y0296409D02*
X0186383Y0296409D01*
X0186383Y0296576D02*
X0184871Y0296576D01*
X0184871Y0296743D02*
X0186383Y0296743D01*
X0186383Y0296910D02*
X0184871Y0296910D01*
X0184871Y0297077D02*
X0186383Y0297077D01*
X0186383Y0297244D02*
X0184871Y0297244D01*
X0184871Y0297411D02*
X0186383Y0297411D01*
X0186383Y0297578D02*
X0184871Y0297578D01*
X0184871Y0297745D02*
X0186383Y0297745D01*
X0186383Y0297912D02*
X0184871Y0297912D01*
X0184871Y0298079D02*
X0186383Y0298079D01*
X0186383Y0298246D02*
X0184871Y0298246D01*
X0184871Y0298413D02*
X0186383Y0298413D01*
X0186383Y0298580D02*
X0184871Y0298580D01*
X0184871Y0298747D02*
X0186383Y0298747D01*
X0186383Y0298914D02*
X0184871Y0298914D01*
X0184871Y0299081D02*
X0186383Y0299081D01*
X0186383Y0299248D02*
X0184871Y0299248D01*
X0184871Y0299415D02*
X0186383Y0299415D01*
X0186383Y0299582D02*
X0184871Y0299582D01*
X0184871Y0299749D02*
X0186383Y0299749D01*
X0186383Y0299916D02*
X0184871Y0299916D01*
X0184871Y0300083D02*
X0186383Y0300083D01*
X0186383Y0300250D02*
X0184871Y0300250D01*
X0184871Y0300417D02*
X0186383Y0300417D01*
X0186383Y0300584D02*
X0184871Y0300584D01*
X0184871Y0300751D02*
X0186383Y0300751D01*
X0186383Y0300918D02*
X0184871Y0300918D01*
X0184871Y0301085D02*
X0186383Y0301085D01*
X0186383Y0301252D02*
X0184871Y0301252D01*
X0184871Y0301419D02*
X0186383Y0301419D01*
X0186383Y0301586D02*
X0184871Y0301586D01*
X0184871Y0301753D02*
X0186383Y0301753D01*
X0186383Y0301920D02*
X0184871Y0301920D01*
X0184871Y0302087D02*
X0186383Y0302087D01*
X0186383Y0302254D02*
X0184871Y0302254D01*
X0184871Y0302421D02*
X0186383Y0302421D01*
X0186383Y0302588D02*
X0184871Y0302588D01*
X0184871Y0302755D02*
X0186383Y0302755D01*
X0186383Y0302922D02*
X0184871Y0302922D01*
X0184871Y0303089D02*
X0186383Y0303089D01*
X0186383Y0303256D02*
X0184871Y0303256D01*
X0184871Y0303423D02*
X0186383Y0303423D01*
X0186383Y0303590D02*
X0184871Y0303590D01*
X0184871Y0303757D02*
X0186383Y0303757D01*
X0186383Y0303924D02*
X0184871Y0303924D01*
X0184871Y0304091D02*
X0186383Y0304091D01*
X0186383Y0304258D02*
X0184871Y0304258D01*
X0184871Y0304425D02*
X0186383Y0304425D01*
X0186383Y0304592D02*
X0184871Y0304592D01*
X0184871Y0304759D02*
X0186383Y0304759D01*
X0186383Y0304926D02*
X0184871Y0304926D01*
X0184871Y0305093D02*
X0186383Y0305093D01*
X0186383Y0305260D02*
X0184871Y0305260D01*
X0184871Y0305427D02*
X0186383Y0305427D01*
X0186383Y0305594D02*
X0184871Y0305594D01*
X0184871Y0305761D02*
X0186383Y0305761D01*
X0186383Y0305928D02*
X0184871Y0305928D01*
X0184871Y0306095D02*
X0186383Y0306095D01*
X0186383Y0306262D02*
X0184871Y0306262D01*
X0184871Y0306429D02*
X0186383Y0306429D01*
X0186383Y0306596D02*
X0184871Y0306596D01*
X0184871Y0306763D02*
X0186383Y0306763D01*
X0186383Y0306930D02*
X0184871Y0306930D01*
X0184871Y0307097D02*
X0186383Y0307097D01*
X0186383Y0307264D02*
X0184871Y0307264D01*
X0184871Y0307431D02*
X0186383Y0307431D01*
X0186383Y0307598D02*
X0184871Y0307598D01*
X0184871Y0307765D02*
X0186383Y0307765D01*
X0186383Y0307932D02*
X0184871Y0307932D01*
X0184871Y0308099D02*
X0186383Y0308099D01*
X0186383Y0308266D02*
X0184871Y0308266D01*
X0184871Y0308433D02*
X0186383Y0308433D01*
X0186383Y0308600D02*
X0184871Y0308600D01*
X0184871Y0308767D02*
X0186383Y0308767D01*
X0186383Y0308934D02*
X0184871Y0308934D01*
X0184871Y0309101D02*
X0186383Y0309101D01*
X0186383Y0309268D02*
X0184871Y0309268D01*
X0184871Y0309435D02*
X0186383Y0309435D01*
X0186383Y0309602D02*
X0184871Y0309602D01*
X0184871Y0309769D02*
X0186383Y0309769D01*
X0186383Y0309936D02*
X0184871Y0309936D01*
X0184414Y0310044D02*
X0182902Y0310044D01*
X0184414Y0310044D02*
X0184414Y0293570D01*
X0182902Y0293570D01*
X0182902Y0310044D01*
X0182902Y0293737D02*
X0184414Y0293737D01*
X0184414Y0293904D02*
X0182902Y0293904D01*
X0182902Y0294071D02*
X0184414Y0294071D01*
X0184414Y0294238D02*
X0182902Y0294238D01*
X0182902Y0294405D02*
X0184414Y0294405D01*
X0184414Y0294572D02*
X0182902Y0294572D01*
X0182902Y0294739D02*
X0184414Y0294739D01*
X0184414Y0294906D02*
X0182902Y0294906D01*
X0182902Y0295073D02*
X0184414Y0295073D01*
X0184414Y0295240D02*
X0182902Y0295240D01*
X0182902Y0295407D02*
X0184414Y0295407D01*
X0184414Y0295574D02*
X0182902Y0295574D01*
X0182902Y0295741D02*
X0184414Y0295741D01*
X0184414Y0295908D02*
X0182902Y0295908D01*
X0182902Y0296075D02*
X0184414Y0296075D01*
X0184414Y0296242D02*
X0182902Y0296242D01*
X0182902Y0296409D02*
X0184414Y0296409D01*
X0184414Y0296576D02*
X0182902Y0296576D01*
X0182902Y0296743D02*
X0184414Y0296743D01*
X0184414Y0296910D02*
X0182902Y0296910D01*
X0182902Y0297077D02*
X0184414Y0297077D01*
X0184414Y0297244D02*
X0182902Y0297244D01*
X0182902Y0297411D02*
X0184414Y0297411D01*
X0184414Y0297578D02*
X0182902Y0297578D01*
X0182902Y0297745D02*
X0184414Y0297745D01*
X0184414Y0297912D02*
X0182902Y0297912D01*
X0182902Y0298079D02*
X0184414Y0298079D01*
X0184414Y0298246D02*
X0182902Y0298246D01*
X0182902Y0298413D02*
X0184414Y0298413D01*
X0184414Y0298580D02*
X0182902Y0298580D01*
X0182902Y0298747D02*
X0184414Y0298747D01*
X0184414Y0298914D02*
X0182902Y0298914D01*
X0182902Y0299081D02*
X0184414Y0299081D01*
X0184414Y0299248D02*
X0182902Y0299248D01*
X0182902Y0299415D02*
X0184414Y0299415D01*
X0184414Y0299582D02*
X0182902Y0299582D01*
X0182902Y0299749D02*
X0184414Y0299749D01*
X0184414Y0299916D02*
X0182902Y0299916D01*
X0182902Y0300083D02*
X0184414Y0300083D01*
X0184414Y0300250D02*
X0182902Y0300250D01*
X0182902Y0300417D02*
X0184414Y0300417D01*
X0184414Y0300584D02*
X0182902Y0300584D01*
X0182902Y0300751D02*
X0184414Y0300751D01*
X0184414Y0300918D02*
X0182902Y0300918D01*
X0182902Y0301085D02*
X0184414Y0301085D01*
X0184414Y0301252D02*
X0182902Y0301252D01*
X0182902Y0301419D02*
X0184414Y0301419D01*
X0184414Y0301586D02*
X0182902Y0301586D01*
X0182902Y0301753D02*
X0184414Y0301753D01*
X0184414Y0301920D02*
X0182902Y0301920D01*
X0182902Y0302087D02*
X0184414Y0302087D01*
X0184414Y0302254D02*
X0182902Y0302254D01*
X0182902Y0302421D02*
X0184414Y0302421D01*
X0184414Y0302588D02*
X0182902Y0302588D01*
X0182902Y0302755D02*
X0184414Y0302755D01*
X0184414Y0302922D02*
X0182902Y0302922D01*
X0182902Y0303089D02*
X0184414Y0303089D01*
X0184414Y0303256D02*
X0182902Y0303256D01*
X0182902Y0303423D02*
X0184414Y0303423D01*
X0184414Y0303590D02*
X0182902Y0303590D01*
X0182902Y0303757D02*
X0184414Y0303757D01*
X0184414Y0303924D02*
X0182902Y0303924D01*
X0182902Y0304091D02*
X0184414Y0304091D01*
X0184414Y0304258D02*
X0182902Y0304258D01*
X0182902Y0304425D02*
X0184414Y0304425D01*
X0184414Y0304592D02*
X0182902Y0304592D01*
X0182902Y0304759D02*
X0184414Y0304759D01*
X0184414Y0304926D02*
X0182902Y0304926D01*
X0182902Y0305093D02*
X0184414Y0305093D01*
X0184414Y0305260D02*
X0182902Y0305260D01*
X0182902Y0305427D02*
X0184414Y0305427D01*
X0184414Y0305594D02*
X0182902Y0305594D01*
X0182902Y0305761D02*
X0184414Y0305761D01*
X0184414Y0305928D02*
X0182902Y0305928D01*
X0182902Y0306095D02*
X0184414Y0306095D01*
X0184414Y0306262D02*
X0182902Y0306262D01*
X0182902Y0306429D02*
X0184414Y0306429D01*
X0184414Y0306596D02*
X0182902Y0306596D01*
X0182902Y0306763D02*
X0184414Y0306763D01*
X0184414Y0306930D02*
X0182902Y0306930D01*
X0182902Y0307097D02*
X0184414Y0307097D01*
X0184414Y0307264D02*
X0182902Y0307264D01*
X0182902Y0307431D02*
X0184414Y0307431D01*
X0184414Y0307598D02*
X0182902Y0307598D01*
X0182902Y0307765D02*
X0184414Y0307765D01*
X0184414Y0307932D02*
X0182902Y0307932D01*
X0182902Y0308099D02*
X0184414Y0308099D01*
X0184414Y0308266D02*
X0182902Y0308266D01*
X0182902Y0308433D02*
X0184414Y0308433D01*
X0184414Y0308600D02*
X0182902Y0308600D01*
X0182902Y0308767D02*
X0184414Y0308767D01*
X0184414Y0308934D02*
X0182902Y0308934D01*
X0182902Y0309101D02*
X0184414Y0309101D01*
X0184414Y0309268D02*
X0182902Y0309268D01*
X0182902Y0309435D02*
X0184414Y0309435D01*
X0184414Y0309602D02*
X0182902Y0309602D01*
X0182902Y0309769D02*
X0184414Y0309769D01*
X0184414Y0309936D02*
X0182902Y0309936D01*
X0182446Y0310044D02*
X0180934Y0310044D01*
X0182446Y0310044D02*
X0182446Y0293570D01*
X0180934Y0293570D01*
X0180934Y0310044D01*
X0180934Y0293737D02*
X0182446Y0293737D01*
X0182446Y0293904D02*
X0180934Y0293904D01*
X0180934Y0294071D02*
X0182446Y0294071D01*
X0182446Y0294238D02*
X0180934Y0294238D01*
X0180934Y0294405D02*
X0182446Y0294405D01*
X0182446Y0294572D02*
X0180934Y0294572D01*
X0180934Y0294739D02*
X0182446Y0294739D01*
X0182446Y0294906D02*
X0180934Y0294906D01*
X0180934Y0295073D02*
X0182446Y0295073D01*
X0182446Y0295240D02*
X0180934Y0295240D01*
X0180934Y0295407D02*
X0182446Y0295407D01*
X0182446Y0295574D02*
X0180934Y0295574D01*
X0180934Y0295741D02*
X0182446Y0295741D01*
X0182446Y0295908D02*
X0180934Y0295908D01*
X0180934Y0296075D02*
X0182446Y0296075D01*
X0182446Y0296242D02*
X0180934Y0296242D01*
X0180934Y0296409D02*
X0182446Y0296409D01*
X0182446Y0296576D02*
X0180934Y0296576D01*
X0180934Y0296743D02*
X0182446Y0296743D01*
X0182446Y0296910D02*
X0180934Y0296910D01*
X0180934Y0297077D02*
X0182446Y0297077D01*
X0182446Y0297244D02*
X0180934Y0297244D01*
X0180934Y0297411D02*
X0182446Y0297411D01*
X0182446Y0297578D02*
X0180934Y0297578D01*
X0180934Y0297745D02*
X0182446Y0297745D01*
X0182446Y0297912D02*
X0180934Y0297912D01*
X0180934Y0298079D02*
X0182446Y0298079D01*
X0182446Y0298246D02*
X0180934Y0298246D01*
X0180934Y0298413D02*
X0182446Y0298413D01*
X0182446Y0298580D02*
X0180934Y0298580D01*
X0180934Y0298747D02*
X0182446Y0298747D01*
X0182446Y0298914D02*
X0180934Y0298914D01*
X0180934Y0299081D02*
X0182446Y0299081D01*
X0182446Y0299248D02*
X0180934Y0299248D01*
X0180934Y0299415D02*
X0182446Y0299415D01*
X0182446Y0299582D02*
X0180934Y0299582D01*
X0180934Y0299749D02*
X0182446Y0299749D01*
X0182446Y0299916D02*
X0180934Y0299916D01*
X0180934Y0300083D02*
X0182446Y0300083D01*
X0182446Y0300250D02*
X0180934Y0300250D01*
X0180934Y0300417D02*
X0182446Y0300417D01*
X0182446Y0300584D02*
X0180934Y0300584D01*
X0180934Y0300751D02*
X0182446Y0300751D01*
X0182446Y0300918D02*
X0180934Y0300918D01*
X0180934Y0301085D02*
X0182446Y0301085D01*
X0182446Y0301252D02*
X0180934Y0301252D01*
X0180934Y0301419D02*
X0182446Y0301419D01*
X0182446Y0301586D02*
X0180934Y0301586D01*
X0180934Y0301753D02*
X0182446Y0301753D01*
X0182446Y0301920D02*
X0180934Y0301920D01*
X0180934Y0302087D02*
X0182446Y0302087D01*
X0182446Y0302254D02*
X0180934Y0302254D01*
X0180934Y0302421D02*
X0182446Y0302421D01*
X0182446Y0302588D02*
X0180934Y0302588D01*
X0180934Y0302755D02*
X0182446Y0302755D01*
X0182446Y0302922D02*
X0180934Y0302922D01*
X0180934Y0303089D02*
X0182446Y0303089D01*
X0182446Y0303256D02*
X0180934Y0303256D01*
X0180934Y0303423D02*
X0182446Y0303423D01*
X0182446Y0303590D02*
X0180934Y0303590D01*
X0180934Y0303757D02*
X0182446Y0303757D01*
X0182446Y0303924D02*
X0180934Y0303924D01*
X0180934Y0304091D02*
X0182446Y0304091D01*
X0182446Y0304258D02*
X0180934Y0304258D01*
X0180934Y0304425D02*
X0182446Y0304425D01*
X0182446Y0304592D02*
X0180934Y0304592D01*
X0180934Y0304759D02*
X0182446Y0304759D01*
X0182446Y0304926D02*
X0180934Y0304926D01*
X0180934Y0305093D02*
X0182446Y0305093D01*
X0182446Y0305260D02*
X0180934Y0305260D01*
X0180934Y0305427D02*
X0182446Y0305427D01*
X0182446Y0305594D02*
X0180934Y0305594D01*
X0180934Y0305761D02*
X0182446Y0305761D01*
X0182446Y0305928D02*
X0180934Y0305928D01*
X0180934Y0306095D02*
X0182446Y0306095D01*
X0182446Y0306262D02*
X0180934Y0306262D01*
X0180934Y0306429D02*
X0182446Y0306429D01*
X0182446Y0306596D02*
X0180934Y0306596D01*
X0180934Y0306763D02*
X0182446Y0306763D01*
X0182446Y0306930D02*
X0180934Y0306930D01*
X0180934Y0307097D02*
X0182446Y0307097D01*
X0182446Y0307264D02*
X0180934Y0307264D01*
X0180934Y0307431D02*
X0182446Y0307431D01*
X0182446Y0307598D02*
X0180934Y0307598D01*
X0180934Y0307765D02*
X0182446Y0307765D01*
X0182446Y0307932D02*
X0180934Y0307932D01*
X0180934Y0308099D02*
X0182446Y0308099D01*
X0182446Y0308266D02*
X0180934Y0308266D01*
X0180934Y0308433D02*
X0182446Y0308433D01*
X0182446Y0308600D02*
X0180934Y0308600D01*
X0180934Y0308767D02*
X0182446Y0308767D01*
X0182446Y0308934D02*
X0180934Y0308934D01*
X0180934Y0309101D02*
X0182446Y0309101D01*
X0182446Y0309268D02*
X0180934Y0309268D01*
X0180934Y0309435D02*
X0182446Y0309435D01*
X0182446Y0309602D02*
X0180934Y0309602D01*
X0180934Y0309769D02*
X0182446Y0309769D01*
X0182446Y0309936D02*
X0180934Y0309936D01*
X0180477Y0310044D02*
X0178965Y0310044D01*
X0180477Y0310044D02*
X0180477Y0293570D01*
X0178965Y0293570D01*
X0178965Y0310044D01*
X0178965Y0293737D02*
X0180477Y0293737D01*
X0180477Y0293904D02*
X0178965Y0293904D01*
X0178965Y0294071D02*
X0180477Y0294071D01*
X0180477Y0294238D02*
X0178965Y0294238D01*
X0178965Y0294405D02*
X0180477Y0294405D01*
X0180477Y0294572D02*
X0178965Y0294572D01*
X0178965Y0294739D02*
X0180477Y0294739D01*
X0180477Y0294906D02*
X0178965Y0294906D01*
X0178965Y0295073D02*
X0180477Y0295073D01*
X0180477Y0295240D02*
X0178965Y0295240D01*
X0178965Y0295407D02*
X0180477Y0295407D01*
X0180477Y0295574D02*
X0178965Y0295574D01*
X0178965Y0295741D02*
X0180477Y0295741D01*
X0180477Y0295908D02*
X0178965Y0295908D01*
X0178965Y0296075D02*
X0180477Y0296075D01*
X0180477Y0296242D02*
X0178965Y0296242D01*
X0178965Y0296409D02*
X0180477Y0296409D01*
X0180477Y0296576D02*
X0178965Y0296576D01*
X0178965Y0296743D02*
X0180477Y0296743D01*
X0180477Y0296910D02*
X0178965Y0296910D01*
X0178965Y0297077D02*
X0180477Y0297077D01*
X0180477Y0297244D02*
X0178965Y0297244D01*
X0178965Y0297411D02*
X0180477Y0297411D01*
X0180477Y0297578D02*
X0178965Y0297578D01*
X0178965Y0297745D02*
X0180477Y0297745D01*
X0180477Y0297912D02*
X0178965Y0297912D01*
X0178965Y0298079D02*
X0180477Y0298079D01*
X0180477Y0298246D02*
X0178965Y0298246D01*
X0178965Y0298413D02*
X0180477Y0298413D01*
X0180477Y0298580D02*
X0178965Y0298580D01*
X0178965Y0298747D02*
X0180477Y0298747D01*
X0180477Y0298914D02*
X0178965Y0298914D01*
X0178965Y0299081D02*
X0180477Y0299081D01*
X0180477Y0299248D02*
X0178965Y0299248D01*
X0178965Y0299415D02*
X0180477Y0299415D01*
X0180477Y0299582D02*
X0178965Y0299582D01*
X0178965Y0299749D02*
X0180477Y0299749D01*
X0180477Y0299916D02*
X0178965Y0299916D01*
X0178965Y0300083D02*
X0180477Y0300083D01*
X0180477Y0300250D02*
X0178965Y0300250D01*
X0178965Y0300417D02*
X0180477Y0300417D01*
X0180477Y0300584D02*
X0178965Y0300584D01*
X0178965Y0300751D02*
X0180477Y0300751D01*
X0180477Y0300918D02*
X0178965Y0300918D01*
X0178965Y0301085D02*
X0180477Y0301085D01*
X0180477Y0301252D02*
X0178965Y0301252D01*
X0178965Y0301419D02*
X0180477Y0301419D01*
X0180477Y0301586D02*
X0178965Y0301586D01*
X0178965Y0301753D02*
X0180477Y0301753D01*
X0180477Y0301920D02*
X0178965Y0301920D01*
X0178965Y0302087D02*
X0180477Y0302087D01*
X0180477Y0302254D02*
X0178965Y0302254D01*
X0178965Y0302421D02*
X0180477Y0302421D01*
X0180477Y0302588D02*
X0178965Y0302588D01*
X0178965Y0302755D02*
X0180477Y0302755D01*
X0180477Y0302922D02*
X0178965Y0302922D01*
X0178965Y0303089D02*
X0180477Y0303089D01*
X0180477Y0303256D02*
X0178965Y0303256D01*
X0178965Y0303423D02*
X0180477Y0303423D01*
X0180477Y0303590D02*
X0178965Y0303590D01*
X0178965Y0303757D02*
X0180477Y0303757D01*
X0180477Y0303924D02*
X0178965Y0303924D01*
X0178965Y0304091D02*
X0180477Y0304091D01*
X0180477Y0304258D02*
X0178965Y0304258D01*
X0178965Y0304425D02*
X0180477Y0304425D01*
X0180477Y0304592D02*
X0178965Y0304592D01*
X0178965Y0304759D02*
X0180477Y0304759D01*
X0180477Y0304926D02*
X0178965Y0304926D01*
X0178965Y0305093D02*
X0180477Y0305093D01*
X0180477Y0305260D02*
X0178965Y0305260D01*
X0178965Y0305427D02*
X0180477Y0305427D01*
X0180477Y0305594D02*
X0178965Y0305594D01*
X0178965Y0305761D02*
X0180477Y0305761D01*
X0180477Y0305928D02*
X0178965Y0305928D01*
X0178965Y0306095D02*
X0180477Y0306095D01*
X0180477Y0306262D02*
X0178965Y0306262D01*
X0178965Y0306429D02*
X0180477Y0306429D01*
X0180477Y0306596D02*
X0178965Y0306596D01*
X0178965Y0306763D02*
X0180477Y0306763D01*
X0180477Y0306930D02*
X0178965Y0306930D01*
X0178965Y0307097D02*
X0180477Y0307097D01*
X0180477Y0307264D02*
X0178965Y0307264D01*
X0178965Y0307431D02*
X0180477Y0307431D01*
X0180477Y0307598D02*
X0178965Y0307598D01*
X0178965Y0307765D02*
X0180477Y0307765D01*
X0180477Y0307932D02*
X0178965Y0307932D01*
X0178965Y0308099D02*
X0180477Y0308099D01*
X0180477Y0308266D02*
X0178965Y0308266D01*
X0178965Y0308433D02*
X0180477Y0308433D01*
X0180477Y0308600D02*
X0178965Y0308600D01*
X0178965Y0308767D02*
X0180477Y0308767D01*
X0180477Y0308934D02*
X0178965Y0308934D01*
X0178965Y0309101D02*
X0180477Y0309101D01*
X0180477Y0309268D02*
X0178965Y0309268D01*
X0178965Y0309435D02*
X0180477Y0309435D01*
X0180477Y0309602D02*
X0178965Y0309602D01*
X0178965Y0309769D02*
X0180477Y0309769D01*
X0180477Y0309936D02*
X0178965Y0309936D01*
X0178509Y0310044D02*
X0176997Y0310044D01*
X0178509Y0310044D02*
X0178509Y0293570D01*
X0176997Y0293570D01*
X0176997Y0310044D01*
X0176997Y0293737D02*
X0178509Y0293737D01*
X0178509Y0293904D02*
X0176997Y0293904D01*
X0176997Y0294071D02*
X0178509Y0294071D01*
X0178509Y0294238D02*
X0176997Y0294238D01*
X0176997Y0294405D02*
X0178509Y0294405D01*
X0178509Y0294572D02*
X0176997Y0294572D01*
X0176997Y0294739D02*
X0178509Y0294739D01*
X0178509Y0294906D02*
X0176997Y0294906D01*
X0176997Y0295073D02*
X0178509Y0295073D01*
X0178509Y0295240D02*
X0176997Y0295240D01*
X0176997Y0295407D02*
X0178509Y0295407D01*
X0178509Y0295574D02*
X0176997Y0295574D01*
X0176997Y0295741D02*
X0178509Y0295741D01*
X0178509Y0295908D02*
X0176997Y0295908D01*
X0176997Y0296075D02*
X0178509Y0296075D01*
X0178509Y0296242D02*
X0176997Y0296242D01*
X0176997Y0296409D02*
X0178509Y0296409D01*
X0178509Y0296576D02*
X0176997Y0296576D01*
X0176997Y0296743D02*
X0178509Y0296743D01*
X0178509Y0296910D02*
X0176997Y0296910D01*
X0176997Y0297077D02*
X0178509Y0297077D01*
X0178509Y0297244D02*
X0176997Y0297244D01*
X0176997Y0297411D02*
X0178509Y0297411D01*
X0178509Y0297578D02*
X0176997Y0297578D01*
X0176997Y0297745D02*
X0178509Y0297745D01*
X0178509Y0297912D02*
X0176997Y0297912D01*
X0176997Y0298079D02*
X0178509Y0298079D01*
X0178509Y0298246D02*
X0176997Y0298246D01*
X0176997Y0298413D02*
X0178509Y0298413D01*
X0178509Y0298580D02*
X0176997Y0298580D01*
X0176997Y0298747D02*
X0178509Y0298747D01*
X0178509Y0298914D02*
X0176997Y0298914D01*
X0176997Y0299081D02*
X0178509Y0299081D01*
X0178509Y0299248D02*
X0176997Y0299248D01*
X0176997Y0299415D02*
X0178509Y0299415D01*
X0178509Y0299582D02*
X0176997Y0299582D01*
X0176997Y0299749D02*
X0178509Y0299749D01*
X0178509Y0299916D02*
X0176997Y0299916D01*
X0176997Y0300083D02*
X0178509Y0300083D01*
X0178509Y0300250D02*
X0176997Y0300250D01*
X0176997Y0300417D02*
X0178509Y0300417D01*
X0178509Y0300584D02*
X0176997Y0300584D01*
X0176997Y0300751D02*
X0178509Y0300751D01*
X0178509Y0300918D02*
X0176997Y0300918D01*
X0176997Y0301085D02*
X0178509Y0301085D01*
X0178509Y0301252D02*
X0176997Y0301252D01*
X0176997Y0301419D02*
X0178509Y0301419D01*
X0178509Y0301586D02*
X0176997Y0301586D01*
X0176997Y0301753D02*
X0178509Y0301753D01*
X0178509Y0301920D02*
X0176997Y0301920D01*
X0176997Y0302087D02*
X0178509Y0302087D01*
X0178509Y0302254D02*
X0176997Y0302254D01*
X0176997Y0302421D02*
X0178509Y0302421D01*
X0178509Y0302588D02*
X0176997Y0302588D01*
X0176997Y0302755D02*
X0178509Y0302755D01*
X0178509Y0302922D02*
X0176997Y0302922D01*
X0176997Y0303089D02*
X0178509Y0303089D01*
X0178509Y0303256D02*
X0176997Y0303256D01*
X0176997Y0303423D02*
X0178509Y0303423D01*
X0178509Y0303590D02*
X0176997Y0303590D01*
X0176997Y0303757D02*
X0178509Y0303757D01*
X0178509Y0303924D02*
X0176997Y0303924D01*
X0176997Y0304091D02*
X0178509Y0304091D01*
X0178509Y0304258D02*
X0176997Y0304258D01*
X0176997Y0304425D02*
X0178509Y0304425D01*
X0178509Y0304592D02*
X0176997Y0304592D01*
X0176997Y0304759D02*
X0178509Y0304759D01*
X0178509Y0304926D02*
X0176997Y0304926D01*
X0176997Y0305093D02*
X0178509Y0305093D01*
X0178509Y0305260D02*
X0176997Y0305260D01*
X0176997Y0305427D02*
X0178509Y0305427D01*
X0178509Y0305594D02*
X0176997Y0305594D01*
X0176997Y0305761D02*
X0178509Y0305761D01*
X0178509Y0305928D02*
X0176997Y0305928D01*
X0176997Y0306095D02*
X0178509Y0306095D01*
X0178509Y0306262D02*
X0176997Y0306262D01*
X0176997Y0306429D02*
X0178509Y0306429D01*
X0178509Y0306596D02*
X0176997Y0306596D01*
X0176997Y0306763D02*
X0178509Y0306763D01*
X0178509Y0306930D02*
X0176997Y0306930D01*
X0176997Y0307097D02*
X0178509Y0307097D01*
X0178509Y0307264D02*
X0176997Y0307264D01*
X0176997Y0307431D02*
X0178509Y0307431D01*
X0178509Y0307598D02*
X0176997Y0307598D01*
X0176997Y0307765D02*
X0178509Y0307765D01*
X0178509Y0307932D02*
X0176997Y0307932D01*
X0176997Y0308099D02*
X0178509Y0308099D01*
X0178509Y0308266D02*
X0176997Y0308266D01*
X0176997Y0308433D02*
X0178509Y0308433D01*
X0178509Y0308600D02*
X0176997Y0308600D01*
X0176997Y0308767D02*
X0178509Y0308767D01*
X0178509Y0308934D02*
X0176997Y0308934D01*
X0176997Y0309101D02*
X0178509Y0309101D01*
X0178509Y0309268D02*
X0176997Y0309268D01*
X0176997Y0309435D02*
X0178509Y0309435D01*
X0178509Y0309602D02*
X0176997Y0309602D01*
X0176997Y0309769D02*
X0178509Y0309769D01*
X0178509Y0309936D02*
X0176997Y0309936D01*
X0176540Y0310044D02*
X0175028Y0310044D01*
X0176540Y0310044D02*
X0176540Y0293570D01*
X0175028Y0293570D01*
X0175028Y0310044D01*
X0175028Y0293737D02*
X0176540Y0293737D01*
X0176540Y0293904D02*
X0175028Y0293904D01*
X0175028Y0294071D02*
X0176540Y0294071D01*
X0176540Y0294238D02*
X0175028Y0294238D01*
X0175028Y0294405D02*
X0176540Y0294405D01*
X0176540Y0294572D02*
X0175028Y0294572D01*
X0175028Y0294739D02*
X0176540Y0294739D01*
X0176540Y0294906D02*
X0175028Y0294906D01*
X0175028Y0295073D02*
X0176540Y0295073D01*
X0176540Y0295240D02*
X0175028Y0295240D01*
X0175028Y0295407D02*
X0176540Y0295407D01*
X0176540Y0295574D02*
X0175028Y0295574D01*
X0175028Y0295741D02*
X0176540Y0295741D01*
X0176540Y0295908D02*
X0175028Y0295908D01*
X0175028Y0296075D02*
X0176540Y0296075D01*
X0176540Y0296242D02*
X0175028Y0296242D01*
X0175028Y0296409D02*
X0176540Y0296409D01*
X0176540Y0296576D02*
X0175028Y0296576D01*
X0175028Y0296743D02*
X0176540Y0296743D01*
X0176540Y0296910D02*
X0175028Y0296910D01*
X0175028Y0297077D02*
X0176540Y0297077D01*
X0176540Y0297244D02*
X0175028Y0297244D01*
X0175028Y0297411D02*
X0176540Y0297411D01*
X0176540Y0297578D02*
X0175028Y0297578D01*
X0175028Y0297745D02*
X0176540Y0297745D01*
X0176540Y0297912D02*
X0175028Y0297912D01*
X0175028Y0298079D02*
X0176540Y0298079D01*
X0176540Y0298246D02*
X0175028Y0298246D01*
X0175028Y0298413D02*
X0176540Y0298413D01*
X0176540Y0298580D02*
X0175028Y0298580D01*
X0175028Y0298747D02*
X0176540Y0298747D01*
X0176540Y0298914D02*
X0175028Y0298914D01*
X0175028Y0299081D02*
X0176540Y0299081D01*
X0176540Y0299248D02*
X0175028Y0299248D01*
X0175028Y0299415D02*
X0176540Y0299415D01*
X0176540Y0299582D02*
X0175028Y0299582D01*
X0175028Y0299749D02*
X0176540Y0299749D01*
X0176540Y0299916D02*
X0175028Y0299916D01*
X0175028Y0300083D02*
X0176540Y0300083D01*
X0176540Y0300250D02*
X0175028Y0300250D01*
X0175028Y0300417D02*
X0176540Y0300417D01*
X0176540Y0300584D02*
X0175028Y0300584D01*
X0175028Y0300751D02*
X0176540Y0300751D01*
X0176540Y0300918D02*
X0175028Y0300918D01*
X0175028Y0301085D02*
X0176540Y0301085D01*
X0176540Y0301252D02*
X0175028Y0301252D01*
X0175028Y0301419D02*
X0176540Y0301419D01*
X0176540Y0301586D02*
X0175028Y0301586D01*
X0175028Y0301753D02*
X0176540Y0301753D01*
X0176540Y0301920D02*
X0175028Y0301920D01*
X0175028Y0302087D02*
X0176540Y0302087D01*
X0176540Y0302254D02*
X0175028Y0302254D01*
X0175028Y0302421D02*
X0176540Y0302421D01*
X0176540Y0302588D02*
X0175028Y0302588D01*
X0175028Y0302755D02*
X0176540Y0302755D01*
X0176540Y0302922D02*
X0175028Y0302922D01*
X0175028Y0303089D02*
X0176540Y0303089D01*
X0176540Y0303256D02*
X0175028Y0303256D01*
X0175028Y0303423D02*
X0176540Y0303423D01*
X0176540Y0303590D02*
X0175028Y0303590D01*
X0175028Y0303757D02*
X0176540Y0303757D01*
X0176540Y0303924D02*
X0175028Y0303924D01*
X0175028Y0304091D02*
X0176540Y0304091D01*
X0176540Y0304258D02*
X0175028Y0304258D01*
X0175028Y0304425D02*
X0176540Y0304425D01*
X0176540Y0304592D02*
X0175028Y0304592D01*
X0175028Y0304759D02*
X0176540Y0304759D01*
X0176540Y0304926D02*
X0175028Y0304926D01*
X0175028Y0305093D02*
X0176540Y0305093D01*
X0176540Y0305260D02*
X0175028Y0305260D01*
X0175028Y0305427D02*
X0176540Y0305427D01*
X0176540Y0305594D02*
X0175028Y0305594D01*
X0175028Y0305761D02*
X0176540Y0305761D01*
X0176540Y0305928D02*
X0175028Y0305928D01*
X0175028Y0306095D02*
X0176540Y0306095D01*
X0176540Y0306262D02*
X0175028Y0306262D01*
X0175028Y0306429D02*
X0176540Y0306429D01*
X0176540Y0306596D02*
X0175028Y0306596D01*
X0175028Y0306763D02*
X0176540Y0306763D01*
X0176540Y0306930D02*
X0175028Y0306930D01*
X0175028Y0307097D02*
X0176540Y0307097D01*
X0176540Y0307264D02*
X0175028Y0307264D01*
X0175028Y0307431D02*
X0176540Y0307431D01*
X0176540Y0307598D02*
X0175028Y0307598D01*
X0175028Y0307765D02*
X0176540Y0307765D01*
X0176540Y0307932D02*
X0175028Y0307932D01*
X0175028Y0308099D02*
X0176540Y0308099D01*
X0176540Y0308266D02*
X0175028Y0308266D01*
X0175028Y0308433D02*
X0176540Y0308433D01*
X0176540Y0308600D02*
X0175028Y0308600D01*
X0175028Y0308767D02*
X0176540Y0308767D01*
X0176540Y0308934D02*
X0175028Y0308934D01*
X0175028Y0309101D02*
X0176540Y0309101D01*
X0176540Y0309268D02*
X0175028Y0309268D01*
X0175028Y0309435D02*
X0176540Y0309435D01*
X0176540Y0309602D02*
X0175028Y0309602D01*
X0175028Y0309769D02*
X0176540Y0309769D01*
X0176540Y0309936D02*
X0175028Y0309936D01*
X0174572Y0310044D02*
X0173060Y0310044D01*
X0174572Y0310044D02*
X0174572Y0293570D01*
X0173060Y0293570D01*
X0173060Y0310044D01*
X0173060Y0293737D02*
X0174572Y0293737D01*
X0174572Y0293904D02*
X0173060Y0293904D01*
X0173060Y0294071D02*
X0174572Y0294071D01*
X0174572Y0294238D02*
X0173060Y0294238D01*
X0173060Y0294405D02*
X0174572Y0294405D01*
X0174572Y0294572D02*
X0173060Y0294572D01*
X0173060Y0294739D02*
X0174572Y0294739D01*
X0174572Y0294906D02*
X0173060Y0294906D01*
X0173060Y0295073D02*
X0174572Y0295073D01*
X0174572Y0295240D02*
X0173060Y0295240D01*
X0173060Y0295407D02*
X0174572Y0295407D01*
X0174572Y0295574D02*
X0173060Y0295574D01*
X0173060Y0295741D02*
X0174572Y0295741D01*
X0174572Y0295908D02*
X0173060Y0295908D01*
X0173060Y0296075D02*
X0174572Y0296075D01*
X0174572Y0296242D02*
X0173060Y0296242D01*
X0173060Y0296409D02*
X0174572Y0296409D01*
X0174572Y0296576D02*
X0173060Y0296576D01*
X0173060Y0296743D02*
X0174572Y0296743D01*
X0174572Y0296910D02*
X0173060Y0296910D01*
X0173060Y0297077D02*
X0174572Y0297077D01*
X0174572Y0297244D02*
X0173060Y0297244D01*
X0173060Y0297411D02*
X0174572Y0297411D01*
X0174572Y0297578D02*
X0173060Y0297578D01*
X0173060Y0297745D02*
X0174572Y0297745D01*
X0174572Y0297912D02*
X0173060Y0297912D01*
X0173060Y0298079D02*
X0174572Y0298079D01*
X0174572Y0298246D02*
X0173060Y0298246D01*
X0173060Y0298413D02*
X0174572Y0298413D01*
X0174572Y0298580D02*
X0173060Y0298580D01*
X0173060Y0298747D02*
X0174572Y0298747D01*
X0174572Y0298914D02*
X0173060Y0298914D01*
X0173060Y0299081D02*
X0174572Y0299081D01*
X0174572Y0299248D02*
X0173060Y0299248D01*
X0173060Y0299415D02*
X0174572Y0299415D01*
X0174572Y0299582D02*
X0173060Y0299582D01*
X0173060Y0299749D02*
X0174572Y0299749D01*
X0174572Y0299916D02*
X0173060Y0299916D01*
X0173060Y0300083D02*
X0174572Y0300083D01*
X0174572Y0300250D02*
X0173060Y0300250D01*
X0173060Y0300417D02*
X0174572Y0300417D01*
X0174572Y0300584D02*
X0173060Y0300584D01*
X0173060Y0300751D02*
X0174572Y0300751D01*
X0174572Y0300918D02*
X0173060Y0300918D01*
X0173060Y0301085D02*
X0174572Y0301085D01*
X0174572Y0301252D02*
X0173060Y0301252D01*
X0173060Y0301419D02*
X0174572Y0301419D01*
X0174572Y0301586D02*
X0173060Y0301586D01*
X0173060Y0301753D02*
X0174572Y0301753D01*
X0174572Y0301920D02*
X0173060Y0301920D01*
X0173060Y0302087D02*
X0174572Y0302087D01*
X0174572Y0302254D02*
X0173060Y0302254D01*
X0173060Y0302421D02*
X0174572Y0302421D01*
X0174572Y0302588D02*
X0173060Y0302588D01*
X0173060Y0302755D02*
X0174572Y0302755D01*
X0174572Y0302922D02*
X0173060Y0302922D01*
X0173060Y0303089D02*
X0174572Y0303089D01*
X0174572Y0303256D02*
X0173060Y0303256D01*
X0173060Y0303423D02*
X0174572Y0303423D01*
X0174572Y0303590D02*
X0173060Y0303590D01*
X0173060Y0303757D02*
X0174572Y0303757D01*
X0174572Y0303924D02*
X0173060Y0303924D01*
X0173060Y0304091D02*
X0174572Y0304091D01*
X0174572Y0304258D02*
X0173060Y0304258D01*
X0173060Y0304425D02*
X0174572Y0304425D01*
X0174572Y0304592D02*
X0173060Y0304592D01*
X0173060Y0304759D02*
X0174572Y0304759D01*
X0174572Y0304926D02*
X0173060Y0304926D01*
X0173060Y0305093D02*
X0174572Y0305093D01*
X0174572Y0305260D02*
X0173060Y0305260D01*
X0173060Y0305427D02*
X0174572Y0305427D01*
X0174572Y0305594D02*
X0173060Y0305594D01*
X0173060Y0305761D02*
X0174572Y0305761D01*
X0174572Y0305928D02*
X0173060Y0305928D01*
X0173060Y0306095D02*
X0174572Y0306095D01*
X0174572Y0306262D02*
X0173060Y0306262D01*
X0173060Y0306429D02*
X0174572Y0306429D01*
X0174572Y0306596D02*
X0173060Y0306596D01*
X0173060Y0306763D02*
X0174572Y0306763D01*
X0174572Y0306930D02*
X0173060Y0306930D01*
X0173060Y0307097D02*
X0174572Y0307097D01*
X0174572Y0307264D02*
X0173060Y0307264D01*
X0173060Y0307431D02*
X0174572Y0307431D01*
X0174572Y0307598D02*
X0173060Y0307598D01*
X0173060Y0307765D02*
X0174572Y0307765D01*
X0174572Y0307932D02*
X0173060Y0307932D01*
X0173060Y0308099D02*
X0174572Y0308099D01*
X0174572Y0308266D02*
X0173060Y0308266D01*
X0173060Y0308433D02*
X0174572Y0308433D01*
X0174572Y0308600D02*
X0173060Y0308600D01*
X0173060Y0308767D02*
X0174572Y0308767D01*
X0174572Y0308934D02*
X0173060Y0308934D01*
X0173060Y0309101D02*
X0174572Y0309101D01*
X0174572Y0309268D02*
X0173060Y0309268D01*
X0173060Y0309435D02*
X0174572Y0309435D01*
X0174572Y0309602D02*
X0173060Y0309602D01*
X0173060Y0309769D02*
X0174572Y0309769D01*
X0174572Y0309936D02*
X0173060Y0309936D01*
X0172603Y0310044D02*
X0171091Y0310044D01*
X0172603Y0310044D02*
X0172603Y0293570D01*
X0171091Y0293570D01*
X0171091Y0310044D01*
X0171091Y0293737D02*
X0172603Y0293737D01*
X0172603Y0293904D02*
X0171091Y0293904D01*
X0171091Y0294071D02*
X0172603Y0294071D01*
X0172603Y0294238D02*
X0171091Y0294238D01*
X0171091Y0294405D02*
X0172603Y0294405D01*
X0172603Y0294572D02*
X0171091Y0294572D01*
X0171091Y0294739D02*
X0172603Y0294739D01*
X0172603Y0294906D02*
X0171091Y0294906D01*
X0171091Y0295073D02*
X0172603Y0295073D01*
X0172603Y0295240D02*
X0171091Y0295240D01*
X0171091Y0295407D02*
X0172603Y0295407D01*
X0172603Y0295574D02*
X0171091Y0295574D01*
X0171091Y0295741D02*
X0172603Y0295741D01*
X0172603Y0295908D02*
X0171091Y0295908D01*
X0171091Y0296075D02*
X0172603Y0296075D01*
X0172603Y0296242D02*
X0171091Y0296242D01*
X0171091Y0296409D02*
X0172603Y0296409D01*
X0172603Y0296576D02*
X0171091Y0296576D01*
X0171091Y0296743D02*
X0172603Y0296743D01*
X0172603Y0296910D02*
X0171091Y0296910D01*
X0171091Y0297077D02*
X0172603Y0297077D01*
X0172603Y0297244D02*
X0171091Y0297244D01*
X0171091Y0297411D02*
X0172603Y0297411D01*
X0172603Y0297578D02*
X0171091Y0297578D01*
X0171091Y0297745D02*
X0172603Y0297745D01*
X0172603Y0297912D02*
X0171091Y0297912D01*
X0171091Y0298079D02*
X0172603Y0298079D01*
X0172603Y0298246D02*
X0171091Y0298246D01*
X0171091Y0298413D02*
X0172603Y0298413D01*
X0172603Y0298580D02*
X0171091Y0298580D01*
X0171091Y0298747D02*
X0172603Y0298747D01*
X0172603Y0298914D02*
X0171091Y0298914D01*
X0171091Y0299081D02*
X0172603Y0299081D01*
X0172603Y0299248D02*
X0171091Y0299248D01*
X0171091Y0299415D02*
X0172603Y0299415D01*
X0172603Y0299582D02*
X0171091Y0299582D01*
X0171091Y0299749D02*
X0172603Y0299749D01*
X0172603Y0299916D02*
X0171091Y0299916D01*
X0171091Y0300083D02*
X0172603Y0300083D01*
X0172603Y0300250D02*
X0171091Y0300250D01*
X0171091Y0300417D02*
X0172603Y0300417D01*
X0172603Y0300584D02*
X0171091Y0300584D01*
X0171091Y0300751D02*
X0172603Y0300751D01*
X0172603Y0300918D02*
X0171091Y0300918D01*
X0171091Y0301085D02*
X0172603Y0301085D01*
X0172603Y0301252D02*
X0171091Y0301252D01*
X0171091Y0301419D02*
X0172603Y0301419D01*
X0172603Y0301586D02*
X0171091Y0301586D01*
X0171091Y0301753D02*
X0172603Y0301753D01*
X0172603Y0301920D02*
X0171091Y0301920D01*
X0171091Y0302087D02*
X0172603Y0302087D01*
X0172603Y0302254D02*
X0171091Y0302254D01*
X0171091Y0302421D02*
X0172603Y0302421D01*
X0172603Y0302588D02*
X0171091Y0302588D01*
X0171091Y0302755D02*
X0172603Y0302755D01*
X0172603Y0302922D02*
X0171091Y0302922D01*
X0171091Y0303089D02*
X0172603Y0303089D01*
X0172603Y0303256D02*
X0171091Y0303256D01*
X0171091Y0303423D02*
X0172603Y0303423D01*
X0172603Y0303590D02*
X0171091Y0303590D01*
X0171091Y0303757D02*
X0172603Y0303757D01*
X0172603Y0303924D02*
X0171091Y0303924D01*
X0171091Y0304091D02*
X0172603Y0304091D01*
X0172603Y0304258D02*
X0171091Y0304258D01*
X0171091Y0304425D02*
X0172603Y0304425D01*
X0172603Y0304592D02*
X0171091Y0304592D01*
X0171091Y0304759D02*
X0172603Y0304759D01*
X0172603Y0304926D02*
X0171091Y0304926D01*
X0171091Y0305093D02*
X0172603Y0305093D01*
X0172603Y0305260D02*
X0171091Y0305260D01*
X0171091Y0305427D02*
X0172603Y0305427D01*
X0172603Y0305594D02*
X0171091Y0305594D01*
X0171091Y0305761D02*
X0172603Y0305761D01*
X0172603Y0305928D02*
X0171091Y0305928D01*
X0171091Y0306095D02*
X0172603Y0306095D01*
X0172603Y0306262D02*
X0171091Y0306262D01*
X0171091Y0306429D02*
X0172603Y0306429D01*
X0172603Y0306596D02*
X0171091Y0306596D01*
X0171091Y0306763D02*
X0172603Y0306763D01*
X0172603Y0306930D02*
X0171091Y0306930D01*
X0171091Y0307097D02*
X0172603Y0307097D01*
X0172603Y0307264D02*
X0171091Y0307264D01*
X0171091Y0307431D02*
X0172603Y0307431D01*
X0172603Y0307598D02*
X0171091Y0307598D01*
X0171091Y0307765D02*
X0172603Y0307765D01*
X0172603Y0307932D02*
X0171091Y0307932D01*
X0171091Y0308099D02*
X0172603Y0308099D01*
X0172603Y0308266D02*
X0171091Y0308266D01*
X0171091Y0308433D02*
X0172603Y0308433D01*
X0172603Y0308600D02*
X0171091Y0308600D01*
X0171091Y0308767D02*
X0172603Y0308767D01*
X0172603Y0308934D02*
X0171091Y0308934D01*
X0171091Y0309101D02*
X0172603Y0309101D01*
X0172603Y0309268D02*
X0171091Y0309268D01*
X0171091Y0309435D02*
X0172603Y0309435D01*
X0172603Y0309602D02*
X0171091Y0309602D01*
X0171091Y0309769D02*
X0172603Y0309769D01*
X0172603Y0309936D02*
X0171091Y0309936D01*
X0170635Y0310044D02*
X0169123Y0310044D01*
X0170635Y0310044D02*
X0170635Y0293570D01*
X0169123Y0293570D01*
X0169123Y0310044D01*
X0169123Y0293737D02*
X0170635Y0293737D01*
X0170635Y0293904D02*
X0169123Y0293904D01*
X0169123Y0294071D02*
X0170635Y0294071D01*
X0170635Y0294238D02*
X0169123Y0294238D01*
X0169123Y0294405D02*
X0170635Y0294405D01*
X0170635Y0294572D02*
X0169123Y0294572D01*
X0169123Y0294739D02*
X0170635Y0294739D01*
X0170635Y0294906D02*
X0169123Y0294906D01*
X0169123Y0295073D02*
X0170635Y0295073D01*
X0170635Y0295240D02*
X0169123Y0295240D01*
X0169123Y0295407D02*
X0170635Y0295407D01*
X0170635Y0295574D02*
X0169123Y0295574D01*
X0169123Y0295741D02*
X0170635Y0295741D01*
X0170635Y0295908D02*
X0169123Y0295908D01*
X0169123Y0296075D02*
X0170635Y0296075D01*
X0170635Y0296242D02*
X0169123Y0296242D01*
X0169123Y0296409D02*
X0170635Y0296409D01*
X0170635Y0296576D02*
X0169123Y0296576D01*
X0169123Y0296743D02*
X0170635Y0296743D01*
X0170635Y0296910D02*
X0169123Y0296910D01*
X0169123Y0297077D02*
X0170635Y0297077D01*
X0170635Y0297244D02*
X0169123Y0297244D01*
X0169123Y0297411D02*
X0170635Y0297411D01*
X0170635Y0297578D02*
X0169123Y0297578D01*
X0169123Y0297745D02*
X0170635Y0297745D01*
X0170635Y0297912D02*
X0169123Y0297912D01*
X0169123Y0298079D02*
X0170635Y0298079D01*
X0170635Y0298246D02*
X0169123Y0298246D01*
X0169123Y0298413D02*
X0170635Y0298413D01*
X0170635Y0298580D02*
X0169123Y0298580D01*
X0169123Y0298747D02*
X0170635Y0298747D01*
X0170635Y0298914D02*
X0169123Y0298914D01*
X0169123Y0299081D02*
X0170635Y0299081D01*
X0170635Y0299248D02*
X0169123Y0299248D01*
X0169123Y0299415D02*
X0170635Y0299415D01*
X0170635Y0299582D02*
X0169123Y0299582D01*
X0169123Y0299749D02*
X0170635Y0299749D01*
X0170635Y0299916D02*
X0169123Y0299916D01*
X0169123Y0300083D02*
X0170635Y0300083D01*
X0170635Y0300250D02*
X0169123Y0300250D01*
X0169123Y0300417D02*
X0170635Y0300417D01*
X0170635Y0300584D02*
X0169123Y0300584D01*
X0169123Y0300751D02*
X0170635Y0300751D01*
X0170635Y0300918D02*
X0169123Y0300918D01*
X0169123Y0301085D02*
X0170635Y0301085D01*
X0170635Y0301252D02*
X0169123Y0301252D01*
X0169123Y0301419D02*
X0170635Y0301419D01*
X0170635Y0301586D02*
X0169123Y0301586D01*
X0169123Y0301753D02*
X0170635Y0301753D01*
X0170635Y0301920D02*
X0169123Y0301920D01*
X0169123Y0302087D02*
X0170635Y0302087D01*
X0170635Y0302254D02*
X0169123Y0302254D01*
X0169123Y0302421D02*
X0170635Y0302421D01*
X0170635Y0302588D02*
X0169123Y0302588D01*
X0169123Y0302755D02*
X0170635Y0302755D01*
X0170635Y0302922D02*
X0169123Y0302922D01*
X0169123Y0303089D02*
X0170635Y0303089D01*
X0170635Y0303256D02*
X0169123Y0303256D01*
X0169123Y0303423D02*
X0170635Y0303423D01*
X0170635Y0303590D02*
X0169123Y0303590D01*
X0169123Y0303757D02*
X0170635Y0303757D01*
X0170635Y0303924D02*
X0169123Y0303924D01*
X0169123Y0304091D02*
X0170635Y0304091D01*
X0170635Y0304258D02*
X0169123Y0304258D01*
X0169123Y0304425D02*
X0170635Y0304425D01*
X0170635Y0304592D02*
X0169123Y0304592D01*
X0169123Y0304759D02*
X0170635Y0304759D01*
X0170635Y0304926D02*
X0169123Y0304926D01*
X0169123Y0305093D02*
X0170635Y0305093D01*
X0170635Y0305260D02*
X0169123Y0305260D01*
X0169123Y0305427D02*
X0170635Y0305427D01*
X0170635Y0305594D02*
X0169123Y0305594D01*
X0169123Y0305761D02*
X0170635Y0305761D01*
X0170635Y0305928D02*
X0169123Y0305928D01*
X0169123Y0306095D02*
X0170635Y0306095D01*
X0170635Y0306262D02*
X0169123Y0306262D01*
X0169123Y0306429D02*
X0170635Y0306429D01*
X0170635Y0306596D02*
X0169123Y0306596D01*
X0169123Y0306763D02*
X0170635Y0306763D01*
X0170635Y0306930D02*
X0169123Y0306930D01*
X0169123Y0307097D02*
X0170635Y0307097D01*
X0170635Y0307264D02*
X0169123Y0307264D01*
X0169123Y0307431D02*
X0170635Y0307431D01*
X0170635Y0307598D02*
X0169123Y0307598D01*
X0169123Y0307765D02*
X0170635Y0307765D01*
X0170635Y0307932D02*
X0169123Y0307932D01*
X0169123Y0308099D02*
X0170635Y0308099D01*
X0170635Y0308266D02*
X0169123Y0308266D01*
X0169123Y0308433D02*
X0170635Y0308433D01*
X0170635Y0308600D02*
X0169123Y0308600D01*
X0169123Y0308767D02*
X0170635Y0308767D01*
X0170635Y0308934D02*
X0169123Y0308934D01*
X0169123Y0309101D02*
X0170635Y0309101D01*
X0170635Y0309268D02*
X0169123Y0309268D01*
X0169123Y0309435D02*
X0170635Y0309435D01*
X0170635Y0309602D02*
X0169123Y0309602D01*
X0169123Y0309769D02*
X0170635Y0309769D01*
X0170635Y0309936D02*
X0169123Y0309936D01*
X0168666Y0310044D02*
X0167154Y0310044D01*
X0168666Y0310044D02*
X0168666Y0293570D01*
X0167154Y0293570D01*
X0167154Y0310044D01*
X0167154Y0293737D02*
X0168666Y0293737D01*
X0168666Y0293904D02*
X0167154Y0293904D01*
X0167154Y0294071D02*
X0168666Y0294071D01*
X0168666Y0294238D02*
X0167154Y0294238D01*
X0167154Y0294405D02*
X0168666Y0294405D01*
X0168666Y0294572D02*
X0167154Y0294572D01*
X0167154Y0294739D02*
X0168666Y0294739D01*
X0168666Y0294906D02*
X0167154Y0294906D01*
X0167154Y0295073D02*
X0168666Y0295073D01*
X0168666Y0295240D02*
X0167154Y0295240D01*
X0167154Y0295407D02*
X0168666Y0295407D01*
X0168666Y0295574D02*
X0167154Y0295574D01*
X0167154Y0295741D02*
X0168666Y0295741D01*
X0168666Y0295908D02*
X0167154Y0295908D01*
X0167154Y0296075D02*
X0168666Y0296075D01*
X0168666Y0296242D02*
X0167154Y0296242D01*
X0167154Y0296409D02*
X0168666Y0296409D01*
X0168666Y0296576D02*
X0167154Y0296576D01*
X0167154Y0296743D02*
X0168666Y0296743D01*
X0168666Y0296910D02*
X0167154Y0296910D01*
X0167154Y0297077D02*
X0168666Y0297077D01*
X0168666Y0297244D02*
X0167154Y0297244D01*
X0167154Y0297411D02*
X0168666Y0297411D01*
X0168666Y0297578D02*
X0167154Y0297578D01*
X0167154Y0297745D02*
X0168666Y0297745D01*
X0168666Y0297912D02*
X0167154Y0297912D01*
X0167154Y0298079D02*
X0168666Y0298079D01*
X0168666Y0298246D02*
X0167154Y0298246D01*
X0167154Y0298413D02*
X0168666Y0298413D01*
X0168666Y0298580D02*
X0167154Y0298580D01*
X0167154Y0298747D02*
X0168666Y0298747D01*
X0168666Y0298914D02*
X0167154Y0298914D01*
X0167154Y0299081D02*
X0168666Y0299081D01*
X0168666Y0299248D02*
X0167154Y0299248D01*
X0167154Y0299415D02*
X0168666Y0299415D01*
X0168666Y0299582D02*
X0167154Y0299582D01*
X0167154Y0299749D02*
X0168666Y0299749D01*
X0168666Y0299916D02*
X0167154Y0299916D01*
X0167154Y0300083D02*
X0168666Y0300083D01*
X0168666Y0300250D02*
X0167154Y0300250D01*
X0167154Y0300417D02*
X0168666Y0300417D01*
X0168666Y0300584D02*
X0167154Y0300584D01*
X0167154Y0300751D02*
X0168666Y0300751D01*
X0168666Y0300918D02*
X0167154Y0300918D01*
X0167154Y0301085D02*
X0168666Y0301085D01*
X0168666Y0301252D02*
X0167154Y0301252D01*
X0167154Y0301419D02*
X0168666Y0301419D01*
X0168666Y0301586D02*
X0167154Y0301586D01*
X0167154Y0301753D02*
X0168666Y0301753D01*
X0168666Y0301920D02*
X0167154Y0301920D01*
X0167154Y0302087D02*
X0168666Y0302087D01*
X0168666Y0302254D02*
X0167154Y0302254D01*
X0167154Y0302421D02*
X0168666Y0302421D01*
X0168666Y0302588D02*
X0167154Y0302588D01*
X0167154Y0302755D02*
X0168666Y0302755D01*
X0168666Y0302922D02*
X0167154Y0302922D01*
X0167154Y0303089D02*
X0168666Y0303089D01*
X0168666Y0303256D02*
X0167154Y0303256D01*
X0167154Y0303423D02*
X0168666Y0303423D01*
X0168666Y0303590D02*
X0167154Y0303590D01*
X0167154Y0303757D02*
X0168666Y0303757D01*
X0168666Y0303924D02*
X0167154Y0303924D01*
X0167154Y0304091D02*
X0168666Y0304091D01*
X0168666Y0304258D02*
X0167154Y0304258D01*
X0167154Y0304425D02*
X0168666Y0304425D01*
X0168666Y0304592D02*
X0167154Y0304592D01*
X0167154Y0304759D02*
X0168666Y0304759D01*
X0168666Y0304926D02*
X0167154Y0304926D01*
X0167154Y0305093D02*
X0168666Y0305093D01*
X0168666Y0305260D02*
X0167154Y0305260D01*
X0167154Y0305427D02*
X0168666Y0305427D01*
X0168666Y0305594D02*
X0167154Y0305594D01*
X0167154Y0305761D02*
X0168666Y0305761D01*
X0168666Y0305928D02*
X0167154Y0305928D01*
X0167154Y0306095D02*
X0168666Y0306095D01*
X0168666Y0306262D02*
X0167154Y0306262D01*
X0167154Y0306429D02*
X0168666Y0306429D01*
X0168666Y0306596D02*
X0167154Y0306596D01*
X0167154Y0306763D02*
X0168666Y0306763D01*
X0168666Y0306930D02*
X0167154Y0306930D01*
X0167154Y0307097D02*
X0168666Y0307097D01*
X0168666Y0307264D02*
X0167154Y0307264D01*
X0167154Y0307431D02*
X0168666Y0307431D01*
X0168666Y0307598D02*
X0167154Y0307598D01*
X0167154Y0307765D02*
X0168666Y0307765D01*
X0168666Y0307932D02*
X0167154Y0307932D01*
X0167154Y0308099D02*
X0168666Y0308099D01*
X0168666Y0308266D02*
X0167154Y0308266D01*
X0167154Y0308433D02*
X0168666Y0308433D01*
X0168666Y0308600D02*
X0167154Y0308600D01*
X0167154Y0308767D02*
X0168666Y0308767D01*
X0168666Y0308934D02*
X0167154Y0308934D01*
X0167154Y0309101D02*
X0168666Y0309101D01*
X0168666Y0309268D02*
X0167154Y0309268D01*
X0167154Y0309435D02*
X0168666Y0309435D01*
X0168666Y0309602D02*
X0167154Y0309602D01*
X0167154Y0309769D02*
X0168666Y0309769D01*
X0168666Y0309936D02*
X0167154Y0309936D01*
X0166698Y0310044D02*
X0165186Y0310044D01*
X0166698Y0310044D02*
X0166698Y0293570D01*
X0165186Y0293570D01*
X0165186Y0310044D01*
X0165186Y0293737D02*
X0166698Y0293737D01*
X0166698Y0293904D02*
X0165186Y0293904D01*
X0165186Y0294071D02*
X0166698Y0294071D01*
X0166698Y0294238D02*
X0165186Y0294238D01*
X0165186Y0294405D02*
X0166698Y0294405D01*
X0166698Y0294572D02*
X0165186Y0294572D01*
X0165186Y0294739D02*
X0166698Y0294739D01*
X0166698Y0294906D02*
X0165186Y0294906D01*
X0165186Y0295073D02*
X0166698Y0295073D01*
X0166698Y0295240D02*
X0165186Y0295240D01*
X0165186Y0295407D02*
X0166698Y0295407D01*
X0166698Y0295574D02*
X0165186Y0295574D01*
X0165186Y0295741D02*
X0166698Y0295741D01*
X0166698Y0295908D02*
X0165186Y0295908D01*
X0165186Y0296075D02*
X0166698Y0296075D01*
X0166698Y0296242D02*
X0165186Y0296242D01*
X0165186Y0296409D02*
X0166698Y0296409D01*
X0166698Y0296576D02*
X0165186Y0296576D01*
X0165186Y0296743D02*
X0166698Y0296743D01*
X0166698Y0296910D02*
X0165186Y0296910D01*
X0165186Y0297077D02*
X0166698Y0297077D01*
X0166698Y0297244D02*
X0165186Y0297244D01*
X0165186Y0297411D02*
X0166698Y0297411D01*
X0166698Y0297578D02*
X0165186Y0297578D01*
X0165186Y0297745D02*
X0166698Y0297745D01*
X0166698Y0297912D02*
X0165186Y0297912D01*
X0165186Y0298079D02*
X0166698Y0298079D01*
X0166698Y0298246D02*
X0165186Y0298246D01*
X0165186Y0298413D02*
X0166698Y0298413D01*
X0166698Y0298580D02*
X0165186Y0298580D01*
X0165186Y0298747D02*
X0166698Y0298747D01*
X0166698Y0298914D02*
X0165186Y0298914D01*
X0165186Y0299081D02*
X0166698Y0299081D01*
X0166698Y0299248D02*
X0165186Y0299248D01*
X0165186Y0299415D02*
X0166698Y0299415D01*
X0166698Y0299582D02*
X0165186Y0299582D01*
X0165186Y0299749D02*
X0166698Y0299749D01*
X0166698Y0299916D02*
X0165186Y0299916D01*
X0165186Y0300083D02*
X0166698Y0300083D01*
X0166698Y0300250D02*
X0165186Y0300250D01*
X0165186Y0300417D02*
X0166698Y0300417D01*
X0166698Y0300584D02*
X0165186Y0300584D01*
X0165186Y0300751D02*
X0166698Y0300751D01*
X0166698Y0300918D02*
X0165186Y0300918D01*
X0165186Y0301085D02*
X0166698Y0301085D01*
X0166698Y0301252D02*
X0165186Y0301252D01*
X0165186Y0301419D02*
X0166698Y0301419D01*
X0166698Y0301586D02*
X0165186Y0301586D01*
X0165186Y0301753D02*
X0166698Y0301753D01*
X0166698Y0301920D02*
X0165186Y0301920D01*
X0165186Y0302087D02*
X0166698Y0302087D01*
X0166698Y0302254D02*
X0165186Y0302254D01*
X0165186Y0302421D02*
X0166698Y0302421D01*
X0166698Y0302588D02*
X0165186Y0302588D01*
X0165186Y0302755D02*
X0166698Y0302755D01*
X0166698Y0302922D02*
X0165186Y0302922D01*
X0165186Y0303089D02*
X0166698Y0303089D01*
X0166698Y0303256D02*
X0165186Y0303256D01*
X0165186Y0303423D02*
X0166698Y0303423D01*
X0166698Y0303590D02*
X0165186Y0303590D01*
X0165186Y0303757D02*
X0166698Y0303757D01*
X0166698Y0303924D02*
X0165186Y0303924D01*
X0165186Y0304091D02*
X0166698Y0304091D01*
X0166698Y0304258D02*
X0165186Y0304258D01*
X0165186Y0304425D02*
X0166698Y0304425D01*
X0166698Y0304592D02*
X0165186Y0304592D01*
X0165186Y0304759D02*
X0166698Y0304759D01*
X0166698Y0304926D02*
X0165186Y0304926D01*
X0165186Y0305093D02*
X0166698Y0305093D01*
X0166698Y0305260D02*
X0165186Y0305260D01*
X0165186Y0305427D02*
X0166698Y0305427D01*
X0166698Y0305594D02*
X0165186Y0305594D01*
X0165186Y0305761D02*
X0166698Y0305761D01*
X0166698Y0305928D02*
X0165186Y0305928D01*
X0165186Y0306095D02*
X0166698Y0306095D01*
X0166698Y0306262D02*
X0165186Y0306262D01*
X0165186Y0306429D02*
X0166698Y0306429D01*
X0166698Y0306596D02*
X0165186Y0306596D01*
X0165186Y0306763D02*
X0166698Y0306763D01*
X0166698Y0306930D02*
X0165186Y0306930D01*
X0165186Y0307097D02*
X0166698Y0307097D01*
X0166698Y0307264D02*
X0165186Y0307264D01*
X0165186Y0307431D02*
X0166698Y0307431D01*
X0166698Y0307598D02*
X0165186Y0307598D01*
X0165186Y0307765D02*
X0166698Y0307765D01*
X0166698Y0307932D02*
X0165186Y0307932D01*
X0165186Y0308099D02*
X0166698Y0308099D01*
X0166698Y0308266D02*
X0165186Y0308266D01*
X0165186Y0308433D02*
X0166698Y0308433D01*
X0166698Y0308600D02*
X0165186Y0308600D01*
X0165186Y0308767D02*
X0166698Y0308767D01*
X0166698Y0308934D02*
X0165186Y0308934D01*
X0165186Y0309101D02*
X0166698Y0309101D01*
X0166698Y0309268D02*
X0165186Y0309268D01*
X0165186Y0309435D02*
X0166698Y0309435D01*
X0166698Y0309602D02*
X0165186Y0309602D01*
X0165186Y0309769D02*
X0166698Y0309769D01*
X0166698Y0309936D02*
X0165186Y0309936D01*
X0164729Y0310044D02*
X0163217Y0310044D01*
X0164729Y0310044D02*
X0164729Y0293570D01*
X0163217Y0293570D01*
X0163217Y0310044D01*
X0163217Y0293737D02*
X0164729Y0293737D01*
X0164729Y0293904D02*
X0163217Y0293904D01*
X0163217Y0294071D02*
X0164729Y0294071D01*
X0164729Y0294238D02*
X0163217Y0294238D01*
X0163217Y0294405D02*
X0164729Y0294405D01*
X0164729Y0294572D02*
X0163217Y0294572D01*
X0163217Y0294739D02*
X0164729Y0294739D01*
X0164729Y0294906D02*
X0163217Y0294906D01*
X0163217Y0295073D02*
X0164729Y0295073D01*
X0164729Y0295240D02*
X0163217Y0295240D01*
X0163217Y0295407D02*
X0164729Y0295407D01*
X0164729Y0295574D02*
X0163217Y0295574D01*
X0163217Y0295741D02*
X0164729Y0295741D01*
X0164729Y0295908D02*
X0163217Y0295908D01*
X0163217Y0296075D02*
X0164729Y0296075D01*
X0164729Y0296242D02*
X0163217Y0296242D01*
X0163217Y0296409D02*
X0164729Y0296409D01*
X0164729Y0296576D02*
X0163217Y0296576D01*
X0163217Y0296743D02*
X0164729Y0296743D01*
X0164729Y0296910D02*
X0163217Y0296910D01*
X0163217Y0297077D02*
X0164729Y0297077D01*
X0164729Y0297244D02*
X0163217Y0297244D01*
X0163217Y0297411D02*
X0164729Y0297411D01*
X0164729Y0297578D02*
X0163217Y0297578D01*
X0163217Y0297745D02*
X0164729Y0297745D01*
X0164729Y0297912D02*
X0163217Y0297912D01*
X0163217Y0298079D02*
X0164729Y0298079D01*
X0164729Y0298246D02*
X0163217Y0298246D01*
X0163217Y0298413D02*
X0164729Y0298413D01*
X0164729Y0298580D02*
X0163217Y0298580D01*
X0163217Y0298747D02*
X0164729Y0298747D01*
X0164729Y0298914D02*
X0163217Y0298914D01*
X0163217Y0299081D02*
X0164729Y0299081D01*
X0164729Y0299248D02*
X0163217Y0299248D01*
X0163217Y0299415D02*
X0164729Y0299415D01*
X0164729Y0299582D02*
X0163217Y0299582D01*
X0163217Y0299749D02*
X0164729Y0299749D01*
X0164729Y0299916D02*
X0163217Y0299916D01*
X0163217Y0300083D02*
X0164729Y0300083D01*
X0164729Y0300250D02*
X0163217Y0300250D01*
X0163217Y0300417D02*
X0164729Y0300417D01*
X0164729Y0300584D02*
X0163217Y0300584D01*
X0163217Y0300751D02*
X0164729Y0300751D01*
X0164729Y0300918D02*
X0163217Y0300918D01*
X0163217Y0301085D02*
X0164729Y0301085D01*
X0164729Y0301252D02*
X0163217Y0301252D01*
X0163217Y0301419D02*
X0164729Y0301419D01*
X0164729Y0301586D02*
X0163217Y0301586D01*
X0163217Y0301753D02*
X0164729Y0301753D01*
X0164729Y0301920D02*
X0163217Y0301920D01*
X0163217Y0302087D02*
X0164729Y0302087D01*
X0164729Y0302254D02*
X0163217Y0302254D01*
X0163217Y0302421D02*
X0164729Y0302421D01*
X0164729Y0302588D02*
X0163217Y0302588D01*
X0163217Y0302755D02*
X0164729Y0302755D01*
X0164729Y0302922D02*
X0163217Y0302922D01*
X0163217Y0303089D02*
X0164729Y0303089D01*
X0164729Y0303256D02*
X0163217Y0303256D01*
X0163217Y0303423D02*
X0164729Y0303423D01*
X0164729Y0303590D02*
X0163217Y0303590D01*
X0163217Y0303757D02*
X0164729Y0303757D01*
X0164729Y0303924D02*
X0163217Y0303924D01*
X0163217Y0304091D02*
X0164729Y0304091D01*
X0164729Y0304258D02*
X0163217Y0304258D01*
X0163217Y0304425D02*
X0164729Y0304425D01*
X0164729Y0304592D02*
X0163217Y0304592D01*
X0163217Y0304759D02*
X0164729Y0304759D01*
X0164729Y0304926D02*
X0163217Y0304926D01*
X0163217Y0305093D02*
X0164729Y0305093D01*
X0164729Y0305260D02*
X0163217Y0305260D01*
X0163217Y0305427D02*
X0164729Y0305427D01*
X0164729Y0305594D02*
X0163217Y0305594D01*
X0163217Y0305761D02*
X0164729Y0305761D01*
X0164729Y0305928D02*
X0163217Y0305928D01*
X0163217Y0306095D02*
X0164729Y0306095D01*
X0164729Y0306262D02*
X0163217Y0306262D01*
X0163217Y0306429D02*
X0164729Y0306429D01*
X0164729Y0306596D02*
X0163217Y0306596D01*
X0163217Y0306763D02*
X0164729Y0306763D01*
X0164729Y0306930D02*
X0163217Y0306930D01*
X0163217Y0307097D02*
X0164729Y0307097D01*
X0164729Y0307264D02*
X0163217Y0307264D01*
X0163217Y0307431D02*
X0164729Y0307431D01*
X0164729Y0307598D02*
X0163217Y0307598D01*
X0163217Y0307765D02*
X0164729Y0307765D01*
X0164729Y0307932D02*
X0163217Y0307932D01*
X0163217Y0308099D02*
X0164729Y0308099D01*
X0164729Y0308266D02*
X0163217Y0308266D01*
X0163217Y0308433D02*
X0164729Y0308433D01*
X0164729Y0308600D02*
X0163217Y0308600D01*
X0163217Y0308767D02*
X0164729Y0308767D01*
X0164729Y0308934D02*
X0163217Y0308934D01*
X0163217Y0309101D02*
X0164729Y0309101D01*
X0164729Y0309268D02*
X0163217Y0309268D01*
X0163217Y0309435D02*
X0164729Y0309435D01*
X0164729Y0309602D02*
X0163217Y0309602D01*
X0163217Y0309769D02*
X0164729Y0309769D01*
X0164729Y0309936D02*
X0163217Y0309936D01*
X0162761Y0310044D02*
X0161249Y0310044D01*
X0162761Y0310044D02*
X0162761Y0293570D01*
X0161249Y0293570D01*
X0161249Y0310044D01*
X0161249Y0293737D02*
X0162761Y0293737D01*
X0162761Y0293904D02*
X0161249Y0293904D01*
X0161249Y0294071D02*
X0162761Y0294071D01*
X0162761Y0294238D02*
X0161249Y0294238D01*
X0161249Y0294405D02*
X0162761Y0294405D01*
X0162761Y0294572D02*
X0161249Y0294572D01*
X0161249Y0294739D02*
X0162761Y0294739D01*
X0162761Y0294906D02*
X0161249Y0294906D01*
X0161249Y0295073D02*
X0162761Y0295073D01*
X0162761Y0295240D02*
X0161249Y0295240D01*
X0161249Y0295407D02*
X0162761Y0295407D01*
X0162761Y0295574D02*
X0161249Y0295574D01*
X0161249Y0295741D02*
X0162761Y0295741D01*
X0162761Y0295908D02*
X0161249Y0295908D01*
X0161249Y0296075D02*
X0162761Y0296075D01*
X0162761Y0296242D02*
X0161249Y0296242D01*
X0161249Y0296409D02*
X0162761Y0296409D01*
X0162761Y0296576D02*
X0161249Y0296576D01*
X0161249Y0296743D02*
X0162761Y0296743D01*
X0162761Y0296910D02*
X0161249Y0296910D01*
X0161249Y0297077D02*
X0162761Y0297077D01*
X0162761Y0297244D02*
X0161249Y0297244D01*
X0161249Y0297411D02*
X0162761Y0297411D01*
X0162761Y0297578D02*
X0161249Y0297578D01*
X0161249Y0297745D02*
X0162761Y0297745D01*
X0162761Y0297912D02*
X0161249Y0297912D01*
X0161249Y0298079D02*
X0162761Y0298079D01*
X0162761Y0298246D02*
X0161249Y0298246D01*
X0161249Y0298413D02*
X0162761Y0298413D01*
X0162761Y0298580D02*
X0161249Y0298580D01*
X0161249Y0298747D02*
X0162761Y0298747D01*
X0162761Y0298914D02*
X0161249Y0298914D01*
X0161249Y0299081D02*
X0162761Y0299081D01*
X0162761Y0299248D02*
X0161249Y0299248D01*
X0161249Y0299415D02*
X0162761Y0299415D01*
X0162761Y0299582D02*
X0161249Y0299582D01*
X0161249Y0299749D02*
X0162761Y0299749D01*
X0162761Y0299916D02*
X0161249Y0299916D01*
X0161249Y0300083D02*
X0162761Y0300083D01*
X0162761Y0300250D02*
X0161249Y0300250D01*
X0161249Y0300417D02*
X0162761Y0300417D01*
X0162761Y0300584D02*
X0161249Y0300584D01*
X0161249Y0300751D02*
X0162761Y0300751D01*
X0162761Y0300918D02*
X0161249Y0300918D01*
X0161249Y0301085D02*
X0162761Y0301085D01*
X0162761Y0301252D02*
X0161249Y0301252D01*
X0161249Y0301419D02*
X0162761Y0301419D01*
X0162761Y0301586D02*
X0161249Y0301586D01*
X0161249Y0301753D02*
X0162761Y0301753D01*
X0162761Y0301920D02*
X0161249Y0301920D01*
X0161249Y0302087D02*
X0162761Y0302087D01*
X0162761Y0302254D02*
X0161249Y0302254D01*
X0161249Y0302421D02*
X0162761Y0302421D01*
X0162761Y0302588D02*
X0161249Y0302588D01*
X0161249Y0302755D02*
X0162761Y0302755D01*
X0162761Y0302922D02*
X0161249Y0302922D01*
X0161249Y0303089D02*
X0162761Y0303089D01*
X0162761Y0303256D02*
X0161249Y0303256D01*
X0161249Y0303423D02*
X0162761Y0303423D01*
X0162761Y0303590D02*
X0161249Y0303590D01*
X0161249Y0303757D02*
X0162761Y0303757D01*
X0162761Y0303924D02*
X0161249Y0303924D01*
X0161249Y0304091D02*
X0162761Y0304091D01*
X0162761Y0304258D02*
X0161249Y0304258D01*
X0161249Y0304425D02*
X0162761Y0304425D01*
X0162761Y0304592D02*
X0161249Y0304592D01*
X0161249Y0304759D02*
X0162761Y0304759D01*
X0162761Y0304926D02*
X0161249Y0304926D01*
X0161249Y0305093D02*
X0162761Y0305093D01*
X0162761Y0305260D02*
X0161249Y0305260D01*
X0161249Y0305427D02*
X0162761Y0305427D01*
X0162761Y0305594D02*
X0161249Y0305594D01*
X0161249Y0305761D02*
X0162761Y0305761D01*
X0162761Y0305928D02*
X0161249Y0305928D01*
X0161249Y0306095D02*
X0162761Y0306095D01*
X0162761Y0306262D02*
X0161249Y0306262D01*
X0161249Y0306429D02*
X0162761Y0306429D01*
X0162761Y0306596D02*
X0161249Y0306596D01*
X0161249Y0306763D02*
X0162761Y0306763D01*
X0162761Y0306930D02*
X0161249Y0306930D01*
X0161249Y0307097D02*
X0162761Y0307097D01*
X0162761Y0307264D02*
X0161249Y0307264D01*
X0161249Y0307431D02*
X0162761Y0307431D01*
X0162761Y0307598D02*
X0161249Y0307598D01*
X0161249Y0307765D02*
X0162761Y0307765D01*
X0162761Y0307932D02*
X0161249Y0307932D01*
X0161249Y0308099D02*
X0162761Y0308099D01*
X0162761Y0308266D02*
X0161249Y0308266D01*
X0161249Y0308433D02*
X0162761Y0308433D01*
X0162761Y0308600D02*
X0161249Y0308600D01*
X0161249Y0308767D02*
X0162761Y0308767D01*
X0162761Y0308934D02*
X0161249Y0308934D01*
X0161249Y0309101D02*
X0162761Y0309101D01*
X0162761Y0309268D02*
X0161249Y0309268D01*
X0161249Y0309435D02*
X0162761Y0309435D01*
X0162761Y0309602D02*
X0161249Y0309602D01*
X0161249Y0309769D02*
X0162761Y0309769D01*
X0162761Y0309936D02*
X0161249Y0309936D01*
X0160792Y0310044D02*
X0159280Y0310044D01*
X0160792Y0310044D02*
X0160792Y0293570D01*
X0159280Y0293570D01*
X0159280Y0310044D01*
X0159280Y0293737D02*
X0160792Y0293737D01*
X0160792Y0293904D02*
X0159280Y0293904D01*
X0159280Y0294071D02*
X0160792Y0294071D01*
X0160792Y0294238D02*
X0159280Y0294238D01*
X0159280Y0294405D02*
X0160792Y0294405D01*
X0160792Y0294572D02*
X0159280Y0294572D01*
X0159280Y0294739D02*
X0160792Y0294739D01*
X0160792Y0294906D02*
X0159280Y0294906D01*
X0159280Y0295073D02*
X0160792Y0295073D01*
X0160792Y0295240D02*
X0159280Y0295240D01*
X0159280Y0295407D02*
X0160792Y0295407D01*
X0160792Y0295574D02*
X0159280Y0295574D01*
X0159280Y0295741D02*
X0160792Y0295741D01*
X0160792Y0295908D02*
X0159280Y0295908D01*
X0159280Y0296075D02*
X0160792Y0296075D01*
X0160792Y0296242D02*
X0159280Y0296242D01*
X0159280Y0296409D02*
X0160792Y0296409D01*
X0160792Y0296576D02*
X0159280Y0296576D01*
X0159280Y0296743D02*
X0160792Y0296743D01*
X0160792Y0296910D02*
X0159280Y0296910D01*
X0159280Y0297077D02*
X0160792Y0297077D01*
X0160792Y0297244D02*
X0159280Y0297244D01*
X0159280Y0297411D02*
X0160792Y0297411D01*
X0160792Y0297578D02*
X0159280Y0297578D01*
X0159280Y0297745D02*
X0160792Y0297745D01*
X0160792Y0297912D02*
X0159280Y0297912D01*
X0159280Y0298079D02*
X0160792Y0298079D01*
X0160792Y0298246D02*
X0159280Y0298246D01*
X0159280Y0298413D02*
X0160792Y0298413D01*
X0160792Y0298580D02*
X0159280Y0298580D01*
X0159280Y0298747D02*
X0160792Y0298747D01*
X0160792Y0298914D02*
X0159280Y0298914D01*
X0159280Y0299081D02*
X0160792Y0299081D01*
X0160792Y0299248D02*
X0159280Y0299248D01*
X0159280Y0299415D02*
X0160792Y0299415D01*
X0160792Y0299582D02*
X0159280Y0299582D01*
X0159280Y0299749D02*
X0160792Y0299749D01*
X0160792Y0299916D02*
X0159280Y0299916D01*
X0159280Y0300083D02*
X0160792Y0300083D01*
X0160792Y0300250D02*
X0159280Y0300250D01*
X0159280Y0300417D02*
X0160792Y0300417D01*
X0160792Y0300584D02*
X0159280Y0300584D01*
X0159280Y0300751D02*
X0160792Y0300751D01*
X0160792Y0300918D02*
X0159280Y0300918D01*
X0159280Y0301085D02*
X0160792Y0301085D01*
X0160792Y0301252D02*
X0159280Y0301252D01*
X0159280Y0301419D02*
X0160792Y0301419D01*
X0160792Y0301586D02*
X0159280Y0301586D01*
X0159280Y0301753D02*
X0160792Y0301753D01*
X0160792Y0301920D02*
X0159280Y0301920D01*
X0159280Y0302087D02*
X0160792Y0302087D01*
X0160792Y0302254D02*
X0159280Y0302254D01*
X0159280Y0302421D02*
X0160792Y0302421D01*
X0160792Y0302588D02*
X0159280Y0302588D01*
X0159280Y0302755D02*
X0160792Y0302755D01*
X0160792Y0302922D02*
X0159280Y0302922D01*
X0159280Y0303089D02*
X0160792Y0303089D01*
X0160792Y0303256D02*
X0159280Y0303256D01*
X0159280Y0303423D02*
X0160792Y0303423D01*
X0160792Y0303590D02*
X0159280Y0303590D01*
X0159280Y0303757D02*
X0160792Y0303757D01*
X0160792Y0303924D02*
X0159280Y0303924D01*
X0159280Y0304091D02*
X0160792Y0304091D01*
X0160792Y0304258D02*
X0159280Y0304258D01*
X0159280Y0304425D02*
X0160792Y0304425D01*
X0160792Y0304592D02*
X0159280Y0304592D01*
X0159280Y0304759D02*
X0160792Y0304759D01*
X0160792Y0304926D02*
X0159280Y0304926D01*
X0159280Y0305093D02*
X0160792Y0305093D01*
X0160792Y0305260D02*
X0159280Y0305260D01*
X0159280Y0305427D02*
X0160792Y0305427D01*
X0160792Y0305594D02*
X0159280Y0305594D01*
X0159280Y0305761D02*
X0160792Y0305761D01*
X0160792Y0305928D02*
X0159280Y0305928D01*
X0159280Y0306095D02*
X0160792Y0306095D01*
X0160792Y0306262D02*
X0159280Y0306262D01*
X0159280Y0306429D02*
X0160792Y0306429D01*
X0160792Y0306596D02*
X0159280Y0306596D01*
X0159280Y0306763D02*
X0160792Y0306763D01*
X0160792Y0306930D02*
X0159280Y0306930D01*
X0159280Y0307097D02*
X0160792Y0307097D01*
X0160792Y0307264D02*
X0159280Y0307264D01*
X0159280Y0307431D02*
X0160792Y0307431D01*
X0160792Y0307598D02*
X0159280Y0307598D01*
X0159280Y0307765D02*
X0160792Y0307765D01*
X0160792Y0307932D02*
X0159280Y0307932D01*
X0159280Y0308099D02*
X0160792Y0308099D01*
X0160792Y0308266D02*
X0159280Y0308266D01*
X0159280Y0308433D02*
X0160792Y0308433D01*
X0160792Y0308600D02*
X0159280Y0308600D01*
X0159280Y0308767D02*
X0160792Y0308767D01*
X0160792Y0308934D02*
X0159280Y0308934D01*
X0159280Y0309101D02*
X0160792Y0309101D01*
X0160792Y0309268D02*
X0159280Y0309268D01*
X0159280Y0309435D02*
X0160792Y0309435D01*
X0160792Y0309602D02*
X0159280Y0309602D01*
X0159280Y0309769D02*
X0160792Y0309769D01*
X0160792Y0309936D02*
X0159280Y0309936D01*
X0158824Y0310044D02*
X0157312Y0310044D01*
X0158824Y0310044D02*
X0158824Y0293570D01*
X0157312Y0293570D01*
X0157312Y0310044D01*
X0157312Y0293737D02*
X0158824Y0293737D01*
X0158824Y0293904D02*
X0157312Y0293904D01*
X0157312Y0294071D02*
X0158824Y0294071D01*
X0158824Y0294238D02*
X0157312Y0294238D01*
X0157312Y0294405D02*
X0158824Y0294405D01*
X0158824Y0294572D02*
X0157312Y0294572D01*
X0157312Y0294739D02*
X0158824Y0294739D01*
X0158824Y0294906D02*
X0157312Y0294906D01*
X0157312Y0295073D02*
X0158824Y0295073D01*
X0158824Y0295240D02*
X0157312Y0295240D01*
X0157312Y0295407D02*
X0158824Y0295407D01*
X0158824Y0295574D02*
X0157312Y0295574D01*
X0157312Y0295741D02*
X0158824Y0295741D01*
X0158824Y0295908D02*
X0157312Y0295908D01*
X0157312Y0296075D02*
X0158824Y0296075D01*
X0158824Y0296242D02*
X0157312Y0296242D01*
X0157312Y0296409D02*
X0158824Y0296409D01*
X0158824Y0296576D02*
X0157312Y0296576D01*
X0157312Y0296743D02*
X0158824Y0296743D01*
X0158824Y0296910D02*
X0157312Y0296910D01*
X0157312Y0297077D02*
X0158824Y0297077D01*
X0158824Y0297244D02*
X0157312Y0297244D01*
X0157312Y0297411D02*
X0158824Y0297411D01*
X0158824Y0297578D02*
X0157312Y0297578D01*
X0157312Y0297745D02*
X0158824Y0297745D01*
X0158824Y0297912D02*
X0157312Y0297912D01*
X0157312Y0298079D02*
X0158824Y0298079D01*
X0158824Y0298246D02*
X0157312Y0298246D01*
X0157312Y0298413D02*
X0158824Y0298413D01*
X0158824Y0298580D02*
X0157312Y0298580D01*
X0157312Y0298747D02*
X0158824Y0298747D01*
X0158824Y0298914D02*
X0157312Y0298914D01*
X0157312Y0299081D02*
X0158824Y0299081D01*
X0158824Y0299248D02*
X0157312Y0299248D01*
X0157312Y0299415D02*
X0158824Y0299415D01*
X0158824Y0299582D02*
X0157312Y0299582D01*
X0157312Y0299749D02*
X0158824Y0299749D01*
X0158824Y0299916D02*
X0157312Y0299916D01*
X0157312Y0300083D02*
X0158824Y0300083D01*
X0158824Y0300250D02*
X0157312Y0300250D01*
X0157312Y0300417D02*
X0158824Y0300417D01*
X0158824Y0300584D02*
X0157312Y0300584D01*
X0157312Y0300751D02*
X0158824Y0300751D01*
X0158824Y0300918D02*
X0157312Y0300918D01*
X0157312Y0301085D02*
X0158824Y0301085D01*
X0158824Y0301252D02*
X0157312Y0301252D01*
X0157312Y0301419D02*
X0158824Y0301419D01*
X0158824Y0301586D02*
X0157312Y0301586D01*
X0157312Y0301753D02*
X0158824Y0301753D01*
X0158824Y0301920D02*
X0157312Y0301920D01*
X0157312Y0302087D02*
X0158824Y0302087D01*
X0158824Y0302254D02*
X0157312Y0302254D01*
X0157312Y0302421D02*
X0158824Y0302421D01*
X0158824Y0302588D02*
X0157312Y0302588D01*
X0157312Y0302755D02*
X0158824Y0302755D01*
X0158824Y0302922D02*
X0157312Y0302922D01*
X0157312Y0303089D02*
X0158824Y0303089D01*
X0158824Y0303256D02*
X0157312Y0303256D01*
X0157312Y0303423D02*
X0158824Y0303423D01*
X0158824Y0303590D02*
X0157312Y0303590D01*
X0157312Y0303757D02*
X0158824Y0303757D01*
X0158824Y0303924D02*
X0157312Y0303924D01*
X0157312Y0304091D02*
X0158824Y0304091D01*
X0158824Y0304258D02*
X0157312Y0304258D01*
X0157312Y0304425D02*
X0158824Y0304425D01*
X0158824Y0304592D02*
X0157312Y0304592D01*
X0157312Y0304759D02*
X0158824Y0304759D01*
X0158824Y0304926D02*
X0157312Y0304926D01*
X0157312Y0305093D02*
X0158824Y0305093D01*
X0158824Y0305260D02*
X0157312Y0305260D01*
X0157312Y0305427D02*
X0158824Y0305427D01*
X0158824Y0305594D02*
X0157312Y0305594D01*
X0157312Y0305761D02*
X0158824Y0305761D01*
X0158824Y0305928D02*
X0157312Y0305928D01*
X0157312Y0306095D02*
X0158824Y0306095D01*
X0158824Y0306262D02*
X0157312Y0306262D01*
X0157312Y0306429D02*
X0158824Y0306429D01*
X0158824Y0306596D02*
X0157312Y0306596D01*
X0157312Y0306763D02*
X0158824Y0306763D01*
X0158824Y0306930D02*
X0157312Y0306930D01*
X0157312Y0307097D02*
X0158824Y0307097D01*
X0158824Y0307264D02*
X0157312Y0307264D01*
X0157312Y0307431D02*
X0158824Y0307431D01*
X0158824Y0307598D02*
X0157312Y0307598D01*
X0157312Y0307765D02*
X0158824Y0307765D01*
X0158824Y0307932D02*
X0157312Y0307932D01*
X0157312Y0308099D02*
X0158824Y0308099D01*
X0158824Y0308266D02*
X0157312Y0308266D01*
X0157312Y0308433D02*
X0158824Y0308433D01*
X0158824Y0308600D02*
X0157312Y0308600D01*
X0157312Y0308767D02*
X0158824Y0308767D01*
X0158824Y0308934D02*
X0157312Y0308934D01*
X0157312Y0309101D02*
X0158824Y0309101D01*
X0158824Y0309268D02*
X0157312Y0309268D01*
X0157312Y0309435D02*
X0158824Y0309435D01*
X0158824Y0309602D02*
X0157312Y0309602D01*
X0157312Y0309769D02*
X0158824Y0309769D01*
X0158824Y0309936D02*
X0157312Y0309936D01*
D25*
X0147241Y0328264D02*
X0147241Y0334169D01*
X0248422Y0334169D02*
X0248422Y0328264D01*
D26*
X0248422Y0311295D02*
X0248422Y0304209D01*
X0204327Y0304209D02*
X0204327Y0311295D01*
X0204327Y0328035D02*
X0204327Y0334398D01*
X0147241Y0311295D02*
X0147241Y0304209D01*
X0305509Y0304209D02*
X0305509Y0311295D01*
X0305509Y0328035D02*
X0305509Y0334398D01*
D27*
X0061380Y0246218D03*
X0052280Y0246218D03*
X0043180Y0246218D03*
D28*
X0052280Y0221018D03*
D29*
X0168540Y0171118D03*
X0176020Y0171118D03*
D30*
X0094879Y0327437D03*
X0092320Y0327437D03*
X0089760Y0327437D03*
X0087201Y0327437D03*
X0084642Y0327437D03*
D31*
X0085233Y0337870D03*
X0094288Y0337870D03*
D32*
X0104524Y0337870D03*
X0074997Y0337870D03*
D33*
X0077162Y0328283D03*
X0102359Y0328283D03*
D34*
X0239780Y0150055D03*
X0239780Y0146118D03*
X0239780Y0142181D03*
D35*
X0278953Y0102417D03*
X0278953Y0089819D03*
X0300607Y0089819D03*
X0300607Y0102417D03*
D36*
X0107280Y0263067D03*
X0107280Y0294071D03*
X0059780Y0294071D03*
X0059780Y0263067D03*
D37*
X0052280Y0205409D03*
X0052280Y0191925D03*
D38*
X0082438Y0308618D03*
X0102123Y0308618D03*
D39*
X0077280Y0158618D03*
D40*
X0077280Y0168618D03*
X0077280Y0178618D03*
X0077280Y0188618D03*
X0077280Y0198618D03*
X0077280Y0208618D03*
X0077280Y0218618D03*
X0077280Y0228618D03*
D41*
X0069780Y0226118D03*
X0064780Y0226118D03*
X0064780Y0221118D03*
X0064780Y0216118D03*
X0069780Y0216118D03*
X0069780Y0221118D03*
X0069780Y0231118D03*
X0064780Y0231118D03*
X0059780Y0231118D03*
X0054780Y0231118D03*
X0052280Y0236118D03*
X0047280Y0236118D03*
X0042280Y0236118D03*
X0037280Y0236118D03*
X0037280Y0231118D03*
X0042280Y0231118D03*
X0047280Y0231118D03*
X0042280Y0226118D03*
X0037280Y0226118D03*
X0037280Y0221118D03*
X0037280Y0216118D03*
X0042280Y0216118D03*
X0042280Y0221118D03*
X0044780Y0203618D03*
X0068530Y0208618D03*
X0067280Y0193618D03*
X0067280Y0178618D03*
X0052280Y0171118D03*
X0067280Y0163618D03*
X0064780Y0148618D03*
X0074780Y0146118D03*
X0064780Y0141118D03*
X0072280Y0136118D03*
X0054780Y0138618D03*
X0054780Y0143618D03*
X0054780Y0151118D03*
X0042280Y0158618D03*
X0042280Y0181118D03*
X0089780Y0203618D03*
X0092280Y0212368D03*
X0108530Y0217368D03*
X0104780Y0226118D03*
X0094780Y0231118D03*
X0081030Y0242368D03*
X0069780Y0241118D03*
X0069780Y0236118D03*
X0064780Y0236118D03*
X0059780Y0236118D03*
X0069780Y0246118D03*
X0069780Y0251118D03*
X0073530Y0267368D03*
X0052280Y0278618D03*
X0051030Y0263618D03*
X0042280Y0259868D03*
X0037280Y0251118D03*
X0037280Y0246118D03*
X0037280Y0241118D03*
X0097280Y0253618D03*
X0112280Y0243618D03*
X0122280Y0253618D03*
X0142280Y0248618D03*
X0147280Y0241118D03*
X0152280Y0238618D03*
X0157280Y0236118D03*
X0167280Y0233618D03*
X0176030Y0229868D03*
X0174780Y0223618D03*
X0179780Y0221118D03*
X0184780Y0221118D03*
X0193530Y0229868D03*
X0214780Y0233618D03*
X0217280Y0238618D03*
X0222280Y0241118D03*
X0232280Y0243618D03*
X0229780Y0228618D03*
X0211030Y0207368D03*
X0194780Y0206118D03*
X0179780Y0203618D03*
X0167280Y0211118D03*
X0162280Y0206118D03*
X0154780Y0203618D03*
X0149780Y0206118D03*
X0134780Y0206118D03*
X0134780Y0198618D03*
X0137280Y0193618D03*
X0129780Y0176118D03*
X0119780Y0166118D03*
X0114780Y0168618D03*
X0109780Y0176118D03*
X0107280Y0181118D03*
X0099780Y0191118D03*
X0094780Y0188618D03*
X0104780Y0196118D03*
X0123530Y0217368D03*
X0132280Y0226118D03*
X0129780Y0233618D03*
X0139780Y0233618D03*
X0144780Y0228618D03*
X0147280Y0223618D03*
X0152280Y0223618D03*
X0157280Y0223618D03*
X0158530Y0262368D03*
X0166030Y0264868D03*
X0173530Y0259868D03*
X0183530Y0259868D03*
X0193530Y0259868D03*
X0203530Y0259868D03*
X0213530Y0259868D03*
X0223530Y0259868D03*
X0233530Y0259868D03*
X0243530Y0259868D03*
X0254780Y0259868D03*
X0264780Y0259868D03*
X0268530Y0267368D03*
X0259780Y0271118D03*
X0267280Y0276118D03*
X0274780Y0278618D03*
X0277280Y0286118D03*
X0267280Y0286118D03*
X0292280Y0273618D03*
X0277280Y0266118D03*
X0274780Y0261118D03*
X0304780Y0261118D03*
X0322280Y0256118D03*
X0327280Y0248618D03*
X0334780Y0251118D03*
X0337280Y0268618D03*
X0327280Y0283618D03*
X0314780Y0276118D03*
X0302280Y0286118D03*
X0319780Y0296118D03*
X0337280Y0303618D03*
X0342280Y0318618D03*
X0327280Y0318618D03*
X0302280Y0318618D03*
X0289780Y0318618D03*
X0289780Y0336118D03*
X0319780Y0336118D03*
X0342280Y0286118D03*
X0312280Y0241118D03*
X0297280Y0238618D03*
X0274780Y0228618D03*
X0267280Y0226118D03*
X0259780Y0226118D03*
X0272280Y0237368D03*
X0294780Y0216118D03*
X0318530Y0208618D03*
X0314780Y0198618D03*
X0322280Y0176118D03*
X0312280Y0173618D03*
X0294780Y0166118D03*
X0309780Y0158618D03*
X0317280Y0153618D03*
X0307280Y0143618D03*
X0302280Y0148618D03*
X0292280Y0143618D03*
X0284780Y0143618D03*
X0284780Y0151118D03*
X0269780Y0158618D03*
X0267280Y0153618D03*
X0272280Y0163618D03*
X0274780Y0168618D03*
X0274780Y0173618D03*
X0272280Y0178618D03*
X0277280Y0178618D03*
X0282280Y0176118D03*
X0272280Y0183618D03*
X0267280Y0183618D03*
X0262280Y0183618D03*
X0262280Y0188618D03*
X0263530Y0197368D03*
X0269780Y0201118D03*
X0242280Y0192368D03*
X0234780Y0201118D03*
X0224780Y0194868D03*
X0224780Y0186118D03*
X0212280Y0186118D03*
X0207280Y0186118D03*
X0197280Y0178618D03*
X0189780Y0176118D03*
X0184780Y0176118D03*
X0184780Y0181118D03*
X0184780Y0186118D03*
X0179780Y0191118D03*
X0184780Y0171118D03*
X0196030Y0169868D03*
X0209780Y0158618D03*
X0214780Y0156118D03*
X0222280Y0158618D03*
X0234780Y0163618D03*
X0247280Y0148618D03*
X0252280Y0143618D03*
X0264780Y0136118D03*
X0254780Y0131118D03*
X0264780Y0124868D03*
X0264780Y0119868D03*
X0269780Y0116118D03*
X0264780Y0112368D03*
X0264780Y0108618D03*
X0259780Y0103618D03*
X0267280Y0101118D03*
X0257280Y0091118D03*
X0244780Y0088618D03*
X0232280Y0086118D03*
X0228530Y0092368D03*
X0234780Y0106118D03*
X0224780Y0108618D03*
X0219780Y0108618D03*
X0237280Y0118618D03*
X0242280Y0116118D03*
X0242280Y0131118D03*
X0237280Y0136118D03*
X0222280Y0136118D03*
X0214780Y0133618D03*
X0222280Y0131118D03*
X0207280Y0133618D03*
X0202280Y0133618D03*
X0202280Y0143618D03*
X0197280Y0148618D03*
X0192280Y0148618D03*
X0194780Y0153618D03*
X0182280Y0153618D03*
X0177280Y0153618D03*
X0169780Y0146118D03*
X0164780Y0146118D03*
X0157280Y0153618D03*
X0152280Y0143618D03*
X0142280Y0151118D03*
X0132280Y0158618D03*
X0127280Y0158618D03*
X0122280Y0161118D03*
X0142280Y0163618D03*
X0144780Y0168618D03*
X0152280Y0166118D03*
X0154780Y0171118D03*
X0159780Y0171118D03*
X0122280Y0143618D03*
X0127280Y0141118D03*
X0132280Y0138618D03*
X0139780Y0133618D03*
X0137280Y0123618D03*
X0134780Y0118618D03*
X0132280Y0113618D03*
X0137280Y0106118D03*
X0132280Y0096118D03*
X0132280Y0091118D03*
X0139780Y0083618D03*
X0157280Y0078618D03*
X0152280Y0066118D03*
X0167280Y0066118D03*
X0177280Y0056118D03*
X0194780Y0041118D03*
X0212280Y0043618D03*
X0212280Y0051118D03*
X0212280Y0056118D03*
X0207280Y0063618D03*
X0204780Y0078618D03*
X0197280Y0081118D03*
X0192280Y0081118D03*
X0174780Y0086118D03*
X0186030Y0098618D03*
X0189780Y0107368D03*
X0174780Y0108618D03*
X0172280Y0113618D03*
X0174780Y0121118D03*
X0174780Y0126118D03*
X0174780Y0131118D03*
X0164780Y0123618D03*
X0154780Y0131118D03*
X0152280Y0121118D03*
X0149780Y0116118D03*
X0167280Y0103618D03*
X0187280Y0131118D03*
X0187280Y0138618D03*
X0209780Y0143618D03*
X0277280Y0131118D03*
X0292280Y0136118D03*
X0297280Y0133618D03*
X0304780Y0128618D03*
X0297280Y0124868D03*
X0297280Y0119868D03*
X0297280Y0112368D03*
X0297280Y0108618D03*
X0309780Y0096118D03*
X0314780Y0093618D03*
X0322280Y0096118D03*
X0319780Y0106118D03*
X0324780Y0106118D03*
X0329780Y0111118D03*
X0334780Y0101118D03*
X0312280Y0131118D03*
X0312280Y0138618D03*
X0339780Y0176118D03*
X0292280Y0087368D03*
X0269780Y0081118D03*
X0277280Y0068618D03*
X0282280Y0063618D03*
X0272280Y0056118D03*
X0262280Y0043618D03*
X0247280Y0041118D03*
X0247280Y0051118D03*
X0247280Y0056118D03*
X0252280Y0061118D03*
X0239780Y0068618D03*
X0222280Y0076118D03*
X0232280Y0036118D03*
X0282280Y0036118D03*
X0299780Y0036118D03*
X0317280Y0036118D03*
X0329780Y0051118D03*
X0322280Y0061118D03*
X0312280Y0061118D03*
X0177280Y0036118D03*
X0137280Y0066118D03*
X0112280Y0063618D03*
X0107280Y0063618D03*
X0102280Y0063618D03*
X0097280Y0063618D03*
X0092280Y0063618D03*
X0087280Y0063618D03*
X0082280Y0063618D03*
X0077280Y0063618D03*
X0072280Y0063618D03*
X0067280Y0063618D03*
X0079780Y0077368D03*
X0089780Y0073618D03*
X0089780Y0088618D03*
X0092280Y0098618D03*
X0082280Y0106118D03*
X0092280Y0113618D03*
X0109780Y0111118D03*
X0114780Y0121118D03*
X0114780Y0143618D03*
X0089780Y0153618D03*
X0052280Y0131118D03*
X0067280Y0121118D03*
X0047280Y0103618D03*
X0047280Y0096118D03*
X0047280Y0082368D03*
X0072280Y0096118D03*
X0104780Y0098618D03*
X0112280Y0083618D03*
X0112280Y0071118D03*
X0037280Y0063618D03*
X0097280Y0268618D03*
X0097280Y0286118D03*
X0094780Y0301118D03*
X0072280Y0301118D03*
X0073530Y0287368D03*
X0052280Y0303618D03*
X0039780Y0306118D03*
X0054780Y0326118D03*
X0119780Y0331118D03*
X0137280Y0329868D03*
X0119780Y0316118D03*
X0122280Y0298618D03*
X0122280Y0286118D03*
X0144780Y0281118D03*
X0152280Y0286118D03*
X0144780Y0291118D03*
X0152280Y0298618D03*
X0149780Y0273618D03*
X0157280Y0271118D03*
X0202280Y0296118D03*
X0201030Y0318618D03*
X0189780Y0318618D03*
X0184780Y0321118D03*
X0177280Y0328618D03*
X0184780Y0333618D03*
X0194780Y0334868D03*
X0174780Y0338618D03*
X0167280Y0331118D03*
X0157280Y0331118D03*
M02*
