G75*
%MOIN*%
%OFA0B0*%
%FSLAX25Y25*%
%IPPOS*%
%LPD*%
%AMOC8*
5,1,8,0,0,1.08239X$1,22.5*
%
%ADD10C,0.01000*%
%ADD11C,0.00000*%
%ADD12R,0.04331X0.03937*%
%ADD13R,0.03937X0.04331*%
%ADD14R,0.05906X0.05118*%
%ADD15R,0.07087X0.06299*%
%ADD16R,0.03543X0.03150*%
%ADD17R,0.05118X0.05906*%
%ADD18R,0.07087X0.05512*%
%ADD19R,0.03000X0.06000*%
%ADD20R,0.03937X0.21654*%
%ADD21R,0.06299X0.11811*%
%ADD22R,0.10000X0.15000*%
D10*
X0043383Y0006500D02*
X0043383Y0321461D01*
X0358343Y0321461D01*
X0358343Y0006500D01*
X0043383Y0006500D01*
D11*
X0048944Y0018311D02*
X0048946Y0018469D01*
X0048952Y0018626D01*
X0048962Y0018784D01*
X0048976Y0018941D01*
X0048994Y0019097D01*
X0049015Y0019254D01*
X0049041Y0019409D01*
X0049071Y0019564D01*
X0049104Y0019718D01*
X0049142Y0019871D01*
X0049183Y0020024D01*
X0049228Y0020175D01*
X0049277Y0020325D01*
X0049330Y0020473D01*
X0049386Y0020621D01*
X0049447Y0020766D01*
X0049510Y0020911D01*
X0049578Y0021053D01*
X0049649Y0021194D01*
X0049723Y0021333D01*
X0049801Y0021470D01*
X0049883Y0021605D01*
X0049967Y0021738D01*
X0050056Y0021869D01*
X0050147Y0021997D01*
X0050242Y0022124D01*
X0050339Y0022247D01*
X0050440Y0022369D01*
X0050544Y0022487D01*
X0050651Y0022603D01*
X0050761Y0022716D01*
X0050873Y0022827D01*
X0050989Y0022934D01*
X0051107Y0023039D01*
X0051227Y0023141D01*
X0051350Y0023239D01*
X0051476Y0023335D01*
X0051604Y0023427D01*
X0051734Y0023516D01*
X0051866Y0023602D01*
X0052001Y0023684D01*
X0052138Y0023763D01*
X0052276Y0023838D01*
X0052416Y0023910D01*
X0052559Y0023978D01*
X0052702Y0024043D01*
X0052848Y0024104D01*
X0052995Y0024161D01*
X0053143Y0024215D01*
X0053293Y0024265D01*
X0053443Y0024311D01*
X0053595Y0024353D01*
X0053748Y0024392D01*
X0053902Y0024426D01*
X0054057Y0024457D01*
X0054212Y0024483D01*
X0054368Y0024506D01*
X0054525Y0024525D01*
X0054682Y0024540D01*
X0054839Y0024551D01*
X0054997Y0024558D01*
X0055155Y0024561D01*
X0055312Y0024560D01*
X0055470Y0024555D01*
X0055627Y0024546D01*
X0055785Y0024533D01*
X0055941Y0024516D01*
X0056098Y0024495D01*
X0056253Y0024471D01*
X0056408Y0024442D01*
X0056563Y0024409D01*
X0056716Y0024373D01*
X0056869Y0024332D01*
X0057020Y0024288D01*
X0057170Y0024240D01*
X0057319Y0024189D01*
X0057467Y0024133D01*
X0057613Y0024074D01*
X0057758Y0024011D01*
X0057901Y0023944D01*
X0058042Y0023874D01*
X0058181Y0023801D01*
X0058319Y0023724D01*
X0058455Y0023643D01*
X0058588Y0023559D01*
X0058719Y0023472D01*
X0058848Y0023381D01*
X0058975Y0023287D01*
X0059100Y0023190D01*
X0059221Y0023090D01*
X0059341Y0022987D01*
X0059457Y0022881D01*
X0059571Y0022772D01*
X0059683Y0022660D01*
X0059791Y0022546D01*
X0059896Y0022428D01*
X0059999Y0022308D01*
X0060098Y0022186D01*
X0060194Y0022061D01*
X0060287Y0021933D01*
X0060377Y0021804D01*
X0060463Y0021672D01*
X0060547Y0021538D01*
X0060626Y0021402D01*
X0060703Y0021264D01*
X0060775Y0021124D01*
X0060844Y0020982D01*
X0060910Y0020839D01*
X0060972Y0020694D01*
X0061030Y0020547D01*
X0061085Y0020399D01*
X0061136Y0020250D01*
X0061183Y0020099D01*
X0061226Y0019948D01*
X0061265Y0019795D01*
X0061301Y0019641D01*
X0061332Y0019487D01*
X0061360Y0019332D01*
X0061384Y0019176D01*
X0061404Y0019019D01*
X0061420Y0018862D01*
X0061432Y0018705D01*
X0061440Y0018548D01*
X0061444Y0018390D01*
X0061444Y0018232D01*
X0061440Y0018074D01*
X0061432Y0017917D01*
X0061420Y0017760D01*
X0061404Y0017603D01*
X0061384Y0017446D01*
X0061360Y0017290D01*
X0061332Y0017135D01*
X0061301Y0016981D01*
X0061265Y0016827D01*
X0061226Y0016674D01*
X0061183Y0016523D01*
X0061136Y0016372D01*
X0061085Y0016223D01*
X0061030Y0016075D01*
X0060972Y0015928D01*
X0060910Y0015783D01*
X0060844Y0015640D01*
X0060775Y0015498D01*
X0060703Y0015358D01*
X0060626Y0015220D01*
X0060547Y0015084D01*
X0060463Y0014950D01*
X0060377Y0014818D01*
X0060287Y0014689D01*
X0060194Y0014561D01*
X0060098Y0014436D01*
X0059999Y0014314D01*
X0059896Y0014194D01*
X0059791Y0014076D01*
X0059683Y0013962D01*
X0059571Y0013850D01*
X0059457Y0013741D01*
X0059341Y0013635D01*
X0059221Y0013532D01*
X0059100Y0013432D01*
X0058975Y0013335D01*
X0058848Y0013241D01*
X0058719Y0013150D01*
X0058588Y0013063D01*
X0058455Y0012979D01*
X0058319Y0012898D01*
X0058181Y0012821D01*
X0058042Y0012748D01*
X0057901Y0012678D01*
X0057758Y0012611D01*
X0057613Y0012548D01*
X0057467Y0012489D01*
X0057319Y0012433D01*
X0057170Y0012382D01*
X0057020Y0012334D01*
X0056869Y0012290D01*
X0056716Y0012249D01*
X0056563Y0012213D01*
X0056408Y0012180D01*
X0056253Y0012151D01*
X0056098Y0012127D01*
X0055941Y0012106D01*
X0055785Y0012089D01*
X0055627Y0012076D01*
X0055470Y0012067D01*
X0055312Y0012062D01*
X0055155Y0012061D01*
X0054997Y0012064D01*
X0054839Y0012071D01*
X0054682Y0012082D01*
X0054525Y0012097D01*
X0054368Y0012116D01*
X0054212Y0012139D01*
X0054057Y0012165D01*
X0053902Y0012196D01*
X0053748Y0012230D01*
X0053595Y0012269D01*
X0053443Y0012311D01*
X0053293Y0012357D01*
X0053143Y0012407D01*
X0052995Y0012461D01*
X0052848Y0012518D01*
X0052702Y0012579D01*
X0052559Y0012644D01*
X0052416Y0012712D01*
X0052276Y0012784D01*
X0052138Y0012859D01*
X0052001Y0012938D01*
X0051866Y0013020D01*
X0051734Y0013106D01*
X0051604Y0013195D01*
X0051476Y0013287D01*
X0051350Y0013383D01*
X0051227Y0013481D01*
X0051107Y0013583D01*
X0050989Y0013688D01*
X0050873Y0013795D01*
X0050761Y0013906D01*
X0050651Y0014019D01*
X0050544Y0014135D01*
X0050440Y0014253D01*
X0050339Y0014375D01*
X0050242Y0014498D01*
X0050147Y0014625D01*
X0050056Y0014753D01*
X0049967Y0014884D01*
X0049883Y0015017D01*
X0049801Y0015152D01*
X0049723Y0015289D01*
X0049649Y0015428D01*
X0049578Y0015569D01*
X0049510Y0015711D01*
X0049447Y0015856D01*
X0049386Y0016001D01*
X0049330Y0016149D01*
X0049277Y0016297D01*
X0049228Y0016447D01*
X0049183Y0016598D01*
X0049142Y0016751D01*
X0049104Y0016904D01*
X0049071Y0017058D01*
X0049041Y0017213D01*
X0049015Y0017368D01*
X0048994Y0017525D01*
X0048976Y0017681D01*
X0048962Y0017838D01*
X0048952Y0017996D01*
X0048946Y0018153D01*
X0048944Y0018311D01*
X0340282Y0018311D02*
X0340284Y0018469D01*
X0340290Y0018626D01*
X0340300Y0018784D01*
X0340314Y0018941D01*
X0340332Y0019097D01*
X0340353Y0019254D01*
X0340379Y0019409D01*
X0340409Y0019564D01*
X0340442Y0019718D01*
X0340480Y0019871D01*
X0340521Y0020024D01*
X0340566Y0020175D01*
X0340615Y0020325D01*
X0340668Y0020473D01*
X0340724Y0020621D01*
X0340785Y0020766D01*
X0340848Y0020911D01*
X0340916Y0021053D01*
X0340987Y0021194D01*
X0341061Y0021333D01*
X0341139Y0021470D01*
X0341221Y0021605D01*
X0341305Y0021738D01*
X0341394Y0021869D01*
X0341485Y0021997D01*
X0341580Y0022124D01*
X0341677Y0022247D01*
X0341778Y0022369D01*
X0341882Y0022487D01*
X0341989Y0022603D01*
X0342099Y0022716D01*
X0342211Y0022827D01*
X0342327Y0022934D01*
X0342445Y0023039D01*
X0342565Y0023141D01*
X0342688Y0023239D01*
X0342814Y0023335D01*
X0342942Y0023427D01*
X0343072Y0023516D01*
X0343204Y0023602D01*
X0343339Y0023684D01*
X0343476Y0023763D01*
X0343614Y0023838D01*
X0343754Y0023910D01*
X0343897Y0023978D01*
X0344040Y0024043D01*
X0344186Y0024104D01*
X0344333Y0024161D01*
X0344481Y0024215D01*
X0344631Y0024265D01*
X0344781Y0024311D01*
X0344933Y0024353D01*
X0345086Y0024392D01*
X0345240Y0024426D01*
X0345395Y0024457D01*
X0345550Y0024483D01*
X0345706Y0024506D01*
X0345863Y0024525D01*
X0346020Y0024540D01*
X0346177Y0024551D01*
X0346335Y0024558D01*
X0346493Y0024561D01*
X0346650Y0024560D01*
X0346808Y0024555D01*
X0346965Y0024546D01*
X0347123Y0024533D01*
X0347279Y0024516D01*
X0347436Y0024495D01*
X0347591Y0024471D01*
X0347746Y0024442D01*
X0347901Y0024409D01*
X0348054Y0024373D01*
X0348207Y0024332D01*
X0348358Y0024288D01*
X0348508Y0024240D01*
X0348657Y0024189D01*
X0348805Y0024133D01*
X0348951Y0024074D01*
X0349096Y0024011D01*
X0349239Y0023944D01*
X0349380Y0023874D01*
X0349519Y0023801D01*
X0349657Y0023724D01*
X0349793Y0023643D01*
X0349926Y0023559D01*
X0350057Y0023472D01*
X0350186Y0023381D01*
X0350313Y0023287D01*
X0350438Y0023190D01*
X0350559Y0023090D01*
X0350679Y0022987D01*
X0350795Y0022881D01*
X0350909Y0022772D01*
X0351021Y0022660D01*
X0351129Y0022546D01*
X0351234Y0022428D01*
X0351337Y0022308D01*
X0351436Y0022186D01*
X0351532Y0022061D01*
X0351625Y0021933D01*
X0351715Y0021804D01*
X0351801Y0021672D01*
X0351885Y0021538D01*
X0351964Y0021402D01*
X0352041Y0021264D01*
X0352113Y0021124D01*
X0352182Y0020982D01*
X0352248Y0020839D01*
X0352310Y0020694D01*
X0352368Y0020547D01*
X0352423Y0020399D01*
X0352474Y0020250D01*
X0352521Y0020099D01*
X0352564Y0019948D01*
X0352603Y0019795D01*
X0352639Y0019641D01*
X0352670Y0019487D01*
X0352698Y0019332D01*
X0352722Y0019176D01*
X0352742Y0019019D01*
X0352758Y0018862D01*
X0352770Y0018705D01*
X0352778Y0018548D01*
X0352782Y0018390D01*
X0352782Y0018232D01*
X0352778Y0018074D01*
X0352770Y0017917D01*
X0352758Y0017760D01*
X0352742Y0017603D01*
X0352722Y0017446D01*
X0352698Y0017290D01*
X0352670Y0017135D01*
X0352639Y0016981D01*
X0352603Y0016827D01*
X0352564Y0016674D01*
X0352521Y0016523D01*
X0352474Y0016372D01*
X0352423Y0016223D01*
X0352368Y0016075D01*
X0352310Y0015928D01*
X0352248Y0015783D01*
X0352182Y0015640D01*
X0352113Y0015498D01*
X0352041Y0015358D01*
X0351964Y0015220D01*
X0351885Y0015084D01*
X0351801Y0014950D01*
X0351715Y0014818D01*
X0351625Y0014689D01*
X0351532Y0014561D01*
X0351436Y0014436D01*
X0351337Y0014314D01*
X0351234Y0014194D01*
X0351129Y0014076D01*
X0351021Y0013962D01*
X0350909Y0013850D01*
X0350795Y0013741D01*
X0350679Y0013635D01*
X0350559Y0013532D01*
X0350438Y0013432D01*
X0350313Y0013335D01*
X0350186Y0013241D01*
X0350057Y0013150D01*
X0349926Y0013063D01*
X0349793Y0012979D01*
X0349657Y0012898D01*
X0349519Y0012821D01*
X0349380Y0012748D01*
X0349239Y0012678D01*
X0349096Y0012611D01*
X0348951Y0012548D01*
X0348805Y0012489D01*
X0348657Y0012433D01*
X0348508Y0012382D01*
X0348358Y0012334D01*
X0348207Y0012290D01*
X0348054Y0012249D01*
X0347901Y0012213D01*
X0347746Y0012180D01*
X0347591Y0012151D01*
X0347436Y0012127D01*
X0347279Y0012106D01*
X0347123Y0012089D01*
X0346965Y0012076D01*
X0346808Y0012067D01*
X0346650Y0012062D01*
X0346493Y0012061D01*
X0346335Y0012064D01*
X0346177Y0012071D01*
X0346020Y0012082D01*
X0345863Y0012097D01*
X0345706Y0012116D01*
X0345550Y0012139D01*
X0345395Y0012165D01*
X0345240Y0012196D01*
X0345086Y0012230D01*
X0344933Y0012269D01*
X0344781Y0012311D01*
X0344631Y0012357D01*
X0344481Y0012407D01*
X0344333Y0012461D01*
X0344186Y0012518D01*
X0344040Y0012579D01*
X0343897Y0012644D01*
X0343754Y0012712D01*
X0343614Y0012784D01*
X0343476Y0012859D01*
X0343339Y0012938D01*
X0343204Y0013020D01*
X0343072Y0013106D01*
X0342942Y0013195D01*
X0342814Y0013287D01*
X0342688Y0013383D01*
X0342565Y0013481D01*
X0342445Y0013583D01*
X0342327Y0013688D01*
X0342211Y0013795D01*
X0342099Y0013906D01*
X0341989Y0014019D01*
X0341882Y0014135D01*
X0341778Y0014253D01*
X0341677Y0014375D01*
X0341580Y0014498D01*
X0341485Y0014625D01*
X0341394Y0014753D01*
X0341305Y0014884D01*
X0341221Y0015017D01*
X0341139Y0015152D01*
X0341061Y0015289D01*
X0340987Y0015428D01*
X0340916Y0015569D01*
X0340848Y0015711D01*
X0340785Y0015856D01*
X0340724Y0016001D01*
X0340668Y0016149D01*
X0340615Y0016297D01*
X0340566Y0016447D01*
X0340521Y0016598D01*
X0340480Y0016751D01*
X0340442Y0016904D01*
X0340409Y0017058D01*
X0340379Y0017213D01*
X0340353Y0017368D01*
X0340332Y0017525D01*
X0340314Y0017681D01*
X0340300Y0017838D01*
X0340290Y0017996D01*
X0340284Y0018153D01*
X0340282Y0018311D01*
X0340282Y0309650D02*
X0340284Y0309808D01*
X0340290Y0309965D01*
X0340300Y0310123D01*
X0340314Y0310280D01*
X0340332Y0310436D01*
X0340353Y0310593D01*
X0340379Y0310748D01*
X0340409Y0310903D01*
X0340442Y0311057D01*
X0340480Y0311210D01*
X0340521Y0311363D01*
X0340566Y0311514D01*
X0340615Y0311664D01*
X0340668Y0311812D01*
X0340724Y0311960D01*
X0340785Y0312105D01*
X0340848Y0312250D01*
X0340916Y0312392D01*
X0340987Y0312533D01*
X0341061Y0312672D01*
X0341139Y0312809D01*
X0341221Y0312944D01*
X0341305Y0313077D01*
X0341394Y0313208D01*
X0341485Y0313336D01*
X0341580Y0313463D01*
X0341677Y0313586D01*
X0341778Y0313708D01*
X0341882Y0313826D01*
X0341989Y0313942D01*
X0342099Y0314055D01*
X0342211Y0314166D01*
X0342327Y0314273D01*
X0342445Y0314378D01*
X0342565Y0314480D01*
X0342688Y0314578D01*
X0342814Y0314674D01*
X0342942Y0314766D01*
X0343072Y0314855D01*
X0343204Y0314941D01*
X0343339Y0315023D01*
X0343476Y0315102D01*
X0343614Y0315177D01*
X0343754Y0315249D01*
X0343897Y0315317D01*
X0344040Y0315382D01*
X0344186Y0315443D01*
X0344333Y0315500D01*
X0344481Y0315554D01*
X0344631Y0315604D01*
X0344781Y0315650D01*
X0344933Y0315692D01*
X0345086Y0315731D01*
X0345240Y0315765D01*
X0345395Y0315796D01*
X0345550Y0315822D01*
X0345706Y0315845D01*
X0345863Y0315864D01*
X0346020Y0315879D01*
X0346177Y0315890D01*
X0346335Y0315897D01*
X0346493Y0315900D01*
X0346650Y0315899D01*
X0346808Y0315894D01*
X0346965Y0315885D01*
X0347123Y0315872D01*
X0347279Y0315855D01*
X0347436Y0315834D01*
X0347591Y0315810D01*
X0347746Y0315781D01*
X0347901Y0315748D01*
X0348054Y0315712D01*
X0348207Y0315671D01*
X0348358Y0315627D01*
X0348508Y0315579D01*
X0348657Y0315528D01*
X0348805Y0315472D01*
X0348951Y0315413D01*
X0349096Y0315350D01*
X0349239Y0315283D01*
X0349380Y0315213D01*
X0349519Y0315140D01*
X0349657Y0315063D01*
X0349793Y0314982D01*
X0349926Y0314898D01*
X0350057Y0314811D01*
X0350186Y0314720D01*
X0350313Y0314626D01*
X0350438Y0314529D01*
X0350559Y0314429D01*
X0350679Y0314326D01*
X0350795Y0314220D01*
X0350909Y0314111D01*
X0351021Y0313999D01*
X0351129Y0313885D01*
X0351234Y0313767D01*
X0351337Y0313647D01*
X0351436Y0313525D01*
X0351532Y0313400D01*
X0351625Y0313272D01*
X0351715Y0313143D01*
X0351801Y0313011D01*
X0351885Y0312877D01*
X0351964Y0312741D01*
X0352041Y0312603D01*
X0352113Y0312463D01*
X0352182Y0312321D01*
X0352248Y0312178D01*
X0352310Y0312033D01*
X0352368Y0311886D01*
X0352423Y0311738D01*
X0352474Y0311589D01*
X0352521Y0311438D01*
X0352564Y0311287D01*
X0352603Y0311134D01*
X0352639Y0310980D01*
X0352670Y0310826D01*
X0352698Y0310671D01*
X0352722Y0310515D01*
X0352742Y0310358D01*
X0352758Y0310201D01*
X0352770Y0310044D01*
X0352778Y0309887D01*
X0352782Y0309729D01*
X0352782Y0309571D01*
X0352778Y0309413D01*
X0352770Y0309256D01*
X0352758Y0309099D01*
X0352742Y0308942D01*
X0352722Y0308785D01*
X0352698Y0308629D01*
X0352670Y0308474D01*
X0352639Y0308320D01*
X0352603Y0308166D01*
X0352564Y0308013D01*
X0352521Y0307862D01*
X0352474Y0307711D01*
X0352423Y0307562D01*
X0352368Y0307414D01*
X0352310Y0307267D01*
X0352248Y0307122D01*
X0352182Y0306979D01*
X0352113Y0306837D01*
X0352041Y0306697D01*
X0351964Y0306559D01*
X0351885Y0306423D01*
X0351801Y0306289D01*
X0351715Y0306157D01*
X0351625Y0306028D01*
X0351532Y0305900D01*
X0351436Y0305775D01*
X0351337Y0305653D01*
X0351234Y0305533D01*
X0351129Y0305415D01*
X0351021Y0305301D01*
X0350909Y0305189D01*
X0350795Y0305080D01*
X0350679Y0304974D01*
X0350559Y0304871D01*
X0350438Y0304771D01*
X0350313Y0304674D01*
X0350186Y0304580D01*
X0350057Y0304489D01*
X0349926Y0304402D01*
X0349793Y0304318D01*
X0349657Y0304237D01*
X0349519Y0304160D01*
X0349380Y0304087D01*
X0349239Y0304017D01*
X0349096Y0303950D01*
X0348951Y0303887D01*
X0348805Y0303828D01*
X0348657Y0303772D01*
X0348508Y0303721D01*
X0348358Y0303673D01*
X0348207Y0303629D01*
X0348054Y0303588D01*
X0347901Y0303552D01*
X0347746Y0303519D01*
X0347591Y0303490D01*
X0347436Y0303466D01*
X0347279Y0303445D01*
X0347123Y0303428D01*
X0346965Y0303415D01*
X0346808Y0303406D01*
X0346650Y0303401D01*
X0346493Y0303400D01*
X0346335Y0303403D01*
X0346177Y0303410D01*
X0346020Y0303421D01*
X0345863Y0303436D01*
X0345706Y0303455D01*
X0345550Y0303478D01*
X0345395Y0303504D01*
X0345240Y0303535D01*
X0345086Y0303569D01*
X0344933Y0303608D01*
X0344781Y0303650D01*
X0344631Y0303696D01*
X0344481Y0303746D01*
X0344333Y0303800D01*
X0344186Y0303857D01*
X0344040Y0303918D01*
X0343897Y0303983D01*
X0343754Y0304051D01*
X0343614Y0304123D01*
X0343476Y0304198D01*
X0343339Y0304277D01*
X0343204Y0304359D01*
X0343072Y0304445D01*
X0342942Y0304534D01*
X0342814Y0304626D01*
X0342688Y0304722D01*
X0342565Y0304820D01*
X0342445Y0304922D01*
X0342327Y0305027D01*
X0342211Y0305134D01*
X0342099Y0305245D01*
X0341989Y0305358D01*
X0341882Y0305474D01*
X0341778Y0305592D01*
X0341677Y0305714D01*
X0341580Y0305837D01*
X0341485Y0305964D01*
X0341394Y0306092D01*
X0341305Y0306223D01*
X0341221Y0306356D01*
X0341139Y0306491D01*
X0341061Y0306628D01*
X0340987Y0306767D01*
X0340916Y0306908D01*
X0340848Y0307050D01*
X0340785Y0307195D01*
X0340724Y0307340D01*
X0340668Y0307488D01*
X0340615Y0307636D01*
X0340566Y0307786D01*
X0340521Y0307937D01*
X0340480Y0308090D01*
X0340442Y0308243D01*
X0340409Y0308397D01*
X0340379Y0308552D01*
X0340353Y0308707D01*
X0340332Y0308864D01*
X0340314Y0309020D01*
X0340300Y0309177D01*
X0340290Y0309335D01*
X0340284Y0309492D01*
X0340282Y0309650D01*
X0048944Y0309650D02*
X0048946Y0309808D01*
X0048952Y0309965D01*
X0048962Y0310123D01*
X0048976Y0310280D01*
X0048994Y0310436D01*
X0049015Y0310593D01*
X0049041Y0310748D01*
X0049071Y0310903D01*
X0049104Y0311057D01*
X0049142Y0311210D01*
X0049183Y0311363D01*
X0049228Y0311514D01*
X0049277Y0311664D01*
X0049330Y0311812D01*
X0049386Y0311960D01*
X0049447Y0312105D01*
X0049510Y0312250D01*
X0049578Y0312392D01*
X0049649Y0312533D01*
X0049723Y0312672D01*
X0049801Y0312809D01*
X0049883Y0312944D01*
X0049967Y0313077D01*
X0050056Y0313208D01*
X0050147Y0313336D01*
X0050242Y0313463D01*
X0050339Y0313586D01*
X0050440Y0313708D01*
X0050544Y0313826D01*
X0050651Y0313942D01*
X0050761Y0314055D01*
X0050873Y0314166D01*
X0050989Y0314273D01*
X0051107Y0314378D01*
X0051227Y0314480D01*
X0051350Y0314578D01*
X0051476Y0314674D01*
X0051604Y0314766D01*
X0051734Y0314855D01*
X0051866Y0314941D01*
X0052001Y0315023D01*
X0052138Y0315102D01*
X0052276Y0315177D01*
X0052416Y0315249D01*
X0052559Y0315317D01*
X0052702Y0315382D01*
X0052848Y0315443D01*
X0052995Y0315500D01*
X0053143Y0315554D01*
X0053293Y0315604D01*
X0053443Y0315650D01*
X0053595Y0315692D01*
X0053748Y0315731D01*
X0053902Y0315765D01*
X0054057Y0315796D01*
X0054212Y0315822D01*
X0054368Y0315845D01*
X0054525Y0315864D01*
X0054682Y0315879D01*
X0054839Y0315890D01*
X0054997Y0315897D01*
X0055155Y0315900D01*
X0055312Y0315899D01*
X0055470Y0315894D01*
X0055627Y0315885D01*
X0055785Y0315872D01*
X0055941Y0315855D01*
X0056098Y0315834D01*
X0056253Y0315810D01*
X0056408Y0315781D01*
X0056563Y0315748D01*
X0056716Y0315712D01*
X0056869Y0315671D01*
X0057020Y0315627D01*
X0057170Y0315579D01*
X0057319Y0315528D01*
X0057467Y0315472D01*
X0057613Y0315413D01*
X0057758Y0315350D01*
X0057901Y0315283D01*
X0058042Y0315213D01*
X0058181Y0315140D01*
X0058319Y0315063D01*
X0058455Y0314982D01*
X0058588Y0314898D01*
X0058719Y0314811D01*
X0058848Y0314720D01*
X0058975Y0314626D01*
X0059100Y0314529D01*
X0059221Y0314429D01*
X0059341Y0314326D01*
X0059457Y0314220D01*
X0059571Y0314111D01*
X0059683Y0313999D01*
X0059791Y0313885D01*
X0059896Y0313767D01*
X0059999Y0313647D01*
X0060098Y0313525D01*
X0060194Y0313400D01*
X0060287Y0313272D01*
X0060377Y0313143D01*
X0060463Y0313011D01*
X0060547Y0312877D01*
X0060626Y0312741D01*
X0060703Y0312603D01*
X0060775Y0312463D01*
X0060844Y0312321D01*
X0060910Y0312178D01*
X0060972Y0312033D01*
X0061030Y0311886D01*
X0061085Y0311738D01*
X0061136Y0311589D01*
X0061183Y0311438D01*
X0061226Y0311287D01*
X0061265Y0311134D01*
X0061301Y0310980D01*
X0061332Y0310826D01*
X0061360Y0310671D01*
X0061384Y0310515D01*
X0061404Y0310358D01*
X0061420Y0310201D01*
X0061432Y0310044D01*
X0061440Y0309887D01*
X0061444Y0309729D01*
X0061444Y0309571D01*
X0061440Y0309413D01*
X0061432Y0309256D01*
X0061420Y0309099D01*
X0061404Y0308942D01*
X0061384Y0308785D01*
X0061360Y0308629D01*
X0061332Y0308474D01*
X0061301Y0308320D01*
X0061265Y0308166D01*
X0061226Y0308013D01*
X0061183Y0307862D01*
X0061136Y0307711D01*
X0061085Y0307562D01*
X0061030Y0307414D01*
X0060972Y0307267D01*
X0060910Y0307122D01*
X0060844Y0306979D01*
X0060775Y0306837D01*
X0060703Y0306697D01*
X0060626Y0306559D01*
X0060547Y0306423D01*
X0060463Y0306289D01*
X0060377Y0306157D01*
X0060287Y0306028D01*
X0060194Y0305900D01*
X0060098Y0305775D01*
X0059999Y0305653D01*
X0059896Y0305533D01*
X0059791Y0305415D01*
X0059683Y0305301D01*
X0059571Y0305189D01*
X0059457Y0305080D01*
X0059341Y0304974D01*
X0059221Y0304871D01*
X0059100Y0304771D01*
X0058975Y0304674D01*
X0058848Y0304580D01*
X0058719Y0304489D01*
X0058588Y0304402D01*
X0058455Y0304318D01*
X0058319Y0304237D01*
X0058181Y0304160D01*
X0058042Y0304087D01*
X0057901Y0304017D01*
X0057758Y0303950D01*
X0057613Y0303887D01*
X0057467Y0303828D01*
X0057319Y0303772D01*
X0057170Y0303721D01*
X0057020Y0303673D01*
X0056869Y0303629D01*
X0056716Y0303588D01*
X0056563Y0303552D01*
X0056408Y0303519D01*
X0056253Y0303490D01*
X0056098Y0303466D01*
X0055941Y0303445D01*
X0055785Y0303428D01*
X0055627Y0303415D01*
X0055470Y0303406D01*
X0055312Y0303401D01*
X0055155Y0303400D01*
X0054997Y0303403D01*
X0054839Y0303410D01*
X0054682Y0303421D01*
X0054525Y0303436D01*
X0054368Y0303455D01*
X0054212Y0303478D01*
X0054057Y0303504D01*
X0053902Y0303535D01*
X0053748Y0303569D01*
X0053595Y0303608D01*
X0053443Y0303650D01*
X0053293Y0303696D01*
X0053143Y0303746D01*
X0052995Y0303800D01*
X0052848Y0303857D01*
X0052702Y0303918D01*
X0052559Y0303983D01*
X0052416Y0304051D01*
X0052276Y0304123D01*
X0052138Y0304198D01*
X0052001Y0304277D01*
X0051866Y0304359D01*
X0051734Y0304445D01*
X0051604Y0304534D01*
X0051476Y0304626D01*
X0051350Y0304722D01*
X0051227Y0304820D01*
X0051107Y0304922D01*
X0050989Y0305027D01*
X0050873Y0305134D01*
X0050761Y0305245D01*
X0050651Y0305358D01*
X0050544Y0305474D01*
X0050440Y0305592D01*
X0050339Y0305714D01*
X0050242Y0305837D01*
X0050147Y0305964D01*
X0050056Y0306092D01*
X0049967Y0306223D01*
X0049883Y0306356D01*
X0049801Y0306491D01*
X0049723Y0306628D01*
X0049649Y0306767D01*
X0049578Y0306908D01*
X0049510Y0307050D01*
X0049447Y0307195D01*
X0049386Y0307340D01*
X0049330Y0307488D01*
X0049277Y0307636D01*
X0049228Y0307786D01*
X0049183Y0307937D01*
X0049142Y0308090D01*
X0049104Y0308243D01*
X0049071Y0308397D01*
X0049041Y0308552D01*
X0049015Y0308707D01*
X0048994Y0308864D01*
X0048976Y0309020D01*
X0048962Y0309177D01*
X0048952Y0309335D01*
X0048946Y0309492D01*
X0048944Y0309650D01*
D12*
X0258383Y0219846D03*
X0258383Y0213154D03*
X0234229Y0119000D03*
X0227536Y0119000D03*
X0219229Y0116500D03*
X0212536Y0116500D03*
X0212536Y0104000D03*
X0219229Y0104000D03*
X0227536Y0104000D03*
X0234229Y0104000D03*
X0310036Y0061500D03*
X0316729Y0061500D03*
X0116729Y0049000D03*
X0110036Y0049000D03*
X0083383Y0050654D03*
X0083383Y0057346D03*
X0083383Y0083154D03*
X0083383Y0089846D03*
D13*
X0110036Y0064000D03*
X0116729Y0064000D03*
X0116729Y0056500D03*
X0110036Y0056500D03*
X0123383Y0105654D03*
X0123383Y0112346D03*
X0235036Y0199000D03*
X0241729Y0199000D03*
X0340036Y0059000D03*
X0346729Y0059000D03*
D14*
X0113383Y0105260D03*
X0113383Y0112740D03*
X0103383Y0112740D03*
X0103383Y0105260D03*
X0063383Y0265260D03*
X0063383Y0272740D03*
D15*
X0093383Y0117012D03*
X0093383Y0105988D03*
D16*
X0276552Y0191500D03*
X0284820Y0187760D03*
X0284820Y0195240D03*
D17*
X0264623Y0194000D03*
X0257142Y0194000D03*
X0334642Y0254000D03*
X0342123Y0254000D03*
D18*
X0293383Y0213193D03*
X0293383Y0199807D03*
D19*
X0330883Y0270500D03*
X0345883Y0270500D03*
X0345883Y0292500D03*
X0330883Y0292500D03*
D20*
X0316257Y0037681D03*
X0308383Y0037681D03*
X0300509Y0037681D03*
D21*
X0291060Y0028823D03*
X0325705Y0028823D03*
D22*
X0274386Y0046500D03*
X0192379Y0046500D03*
M02*
