G75*
%MOIN*%
%OFA0B0*%
%FSLAX25Y25*%
%IPPOS*%
%LPD*%
%AMOC8*
5,1,8,0,0,1.08239X$1,22.5*
%
%ADD10C,0.01000*%
%ADD11C,0.00000*%
%ADD12C,0.00400*%
%ADD13C,0.00800*%
%ADD14C,0.00500*%
%ADD15C,0.00100*%
%ADD16R,0.06200X0.02400*%
%ADD17C,0.00600*%
D10*
X0043383Y0006500D02*
X0043383Y0321461D01*
X0358343Y0321461D01*
X0358343Y0006500D01*
X0043383Y0006500D01*
X0196375Y0016579D02*
X0196375Y0037051D01*
X0196375Y0055949D02*
X0196375Y0076421D01*
X0224327Y0076421D01*
X0224327Y0067760D01*
X0242438Y0067760D01*
X0242438Y0076421D01*
X0270390Y0076421D01*
X0270390Y0055949D01*
X0270390Y0037051D02*
X0270390Y0016579D01*
X0196375Y0016579D01*
D11*
X0048944Y0018311D02*
X0048946Y0018469D01*
X0048952Y0018626D01*
X0048962Y0018784D01*
X0048976Y0018941D01*
X0048994Y0019097D01*
X0049015Y0019254D01*
X0049041Y0019409D01*
X0049071Y0019564D01*
X0049104Y0019718D01*
X0049142Y0019871D01*
X0049183Y0020024D01*
X0049228Y0020175D01*
X0049277Y0020325D01*
X0049330Y0020473D01*
X0049386Y0020621D01*
X0049447Y0020766D01*
X0049510Y0020911D01*
X0049578Y0021053D01*
X0049649Y0021194D01*
X0049723Y0021333D01*
X0049801Y0021470D01*
X0049883Y0021605D01*
X0049967Y0021738D01*
X0050056Y0021869D01*
X0050147Y0021997D01*
X0050242Y0022124D01*
X0050339Y0022247D01*
X0050440Y0022369D01*
X0050544Y0022487D01*
X0050651Y0022603D01*
X0050761Y0022716D01*
X0050873Y0022827D01*
X0050989Y0022934D01*
X0051107Y0023039D01*
X0051227Y0023141D01*
X0051350Y0023239D01*
X0051476Y0023335D01*
X0051604Y0023427D01*
X0051734Y0023516D01*
X0051866Y0023602D01*
X0052001Y0023684D01*
X0052138Y0023763D01*
X0052276Y0023838D01*
X0052416Y0023910D01*
X0052559Y0023978D01*
X0052702Y0024043D01*
X0052848Y0024104D01*
X0052995Y0024161D01*
X0053143Y0024215D01*
X0053293Y0024265D01*
X0053443Y0024311D01*
X0053595Y0024353D01*
X0053748Y0024392D01*
X0053902Y0024426D01*
X0054057Y0024457D01*
X0054212Y0024483D01*
X0054368Y0024506D01*
X0054525Y0024525D01*
X0054682Y0024540D01*
X0054839Y0024551D01*
X0054997Y0024558D01*
X0055155Y0024561D01*
X0055312Y0024560D01*
X0055470Y0024555D01*
X0055627Y0024546D01*
X0055785Y0024533D01*
X0055941Y0024516D01*
X0056098Y0024495D01*
X0056253Y0024471D01*
X0056408Y0024442D01*
X0056563Y0024409D01*
X0056716Y0024373D01*
X0056869Y0024332D01*
X0057020Y0024288D01*
X0057170Y0024240D01*
X0057319Y0024189D01*
X0057467Y0024133D01*
X0057613Y0024074D01*
X0057758Y0024011D01*
X0057901Y0023944D01*
X0058042Y0023874D01*
X0058181Y0023801D01*
X0058319Y0023724D01*
X0058455Y0023643D01*
X0058588Y0023559D01*
X0058719Y0023472D01*
X0058848Y0023381D01*
X0058975Y0023287D01*
X0059100Y0023190D01*
X0059221Y0023090D01*
X0059341Y0022987D01*
X0059457Y0022881D01*
X0059571Y0022772D01*
X0059683Y0022660D01*
X0059791Y0022546D01*
X0059896Y0022428D01*
X0059999Y0022308D01*
X0060098Y0022186D01*
X0060194Y0022061D01*
X0060287Y0021933D01*
X0060377Y0021804D01*
X0060463Y0021672D01*
X0060547Y0021538D01*
X0060626Y0021402D01*
X0060703Y0021264D01*
X0060775Y0021124D01*
X0060844Y0020982D01*
X0060910Y0020839D01*
X0060972Y0020694D01*
X0061030Y0020547D01*
X0061085Y0020399D01*
X0061136Y0020250D01*
X0061183Y0020099D01*
X0061226Y0019948D01*
X0061265Y0019795D01*
X0061301Y0019641D01*
X0061332Y0019487D01*
X0061360Y0019332D01*
X0061384Y0019176D01*
X0061404Y0019019D01*
X0061420Y0018862D01*
X0061432Y0018705D01*
X0061440Y0018548D01*
X0061444Y0018390D01*
X0061444Y0018232D01*
X0061440Y0018074D01*
X0061432Y0017917D01*
X0061420Y0017760D01*
X0061404Y0017603D01*
X0061384Y0017446D01*
X0061360Y0017290D01*
X0061332Y0017135D01*
X0061301Y0016981D01*
X0061265Y0016827D01*
X0061226Y0016674D01*
X0061183Y0016523D01*
X0061136Y0016372D01*
X0061085Y0016223D01*
X0061030Y0016075D01*
X0060972Y0015928D01*
X0060910Y0015783D01*
X0060844Y0015640D01*
X0060775Y0015498D01*
X0060703Y0015358D01*
X0060626Y0015220D01*
X0060547Y0015084D01*
X0060463Y0014950D01*
X0060377Y0014818D01*
X0060287Y0014689D01*
X0060194Y0014561D01*
X0060098Y0014436D01*
X0059999Y0014314D01*
X0059896Y0014194D01*
X0059791Y0014076D01*
X0059683Y0013962D01*
X0059571Y0013850D01*
X0059457Y0013741D01*
X0059341Y0013635D01*
X0059221Y0013532D01*
X0059100Y0013432D01*
X0058975Y0013335D01*
X0058848Y0013241D01*
X0058719Y0013150D01*
X0058588Y0013063D01*
X0058455Y0012979D01*
X0058319Y0012898D01*
X0058181Y0012821D01*
X0058042Y0012748D01*
X0057901Y0012678D01*
X0057758Y0012611D01*
X0057613Y0012548D01*
X0057467Y0012489D01*
X0057319Y0012433D01*
X0057170Y0012382D01*
X0057020Y0012334D01*
X0056869Y0012290D01*
X0056716Y0012249D01*
X0056563Y0012213D01*
X0056408Y0012180D01*
X0056253Y0012151D01*
X0056098Y0012127D01*
X0055941Y0012106D01*
X0055785Y0012089D01*
X0055627Y0012076D01*
X0055470Y0012067D01*
X0055312Y0012062D01*
X0055155Y0012061D01*
X0054997Y0012064D01*
X0054839Y0012071D01*
X0054682Y0012082D01*
X0054525Y0012097D01*
X0054368Y0012116D01*
X0054212Y0012139D01*
X0054057Y0012165D01*
X0053902Y0012196D01*
X0053748Y0012230D01*
X0053595Y0012269D01*
X0053443Y0012311D01*
X0053293Y0012357D01*
X0053143Y0012407D01*
X0052995Y0012461D01*
X0052848Y0012518D01*
X0052702Y0012579D01*
X0052559Y0012644D01*
X0052416Y0012712D01*
X0052276Y0012784D01*
X0052138Y0012859D01*
X0052001Y0012938D01*
X0051866Y0013020D01*
X0051734Y0013106D01*
X0051604Y0013195D01*
X0051476Y0013287D01*
X0051350Y0013383D01*
X0051227Y0013481D01*
X0051107Y0013583D01*
X0050989Y0013688D01*
X0050873Y0013795D01*
X0050761Y0013906D01*
X0050651Y0014019D01*
X0050544Y0014135D01*
X0050440Y0014253D01*
X0050339Y0014375D01*
X0050242Y0014498D01*
X0050147Y0014625D01*
X0050056Y0014753D01*
X0049967Y0014884D01*
X0049883Y0015017D01*
X0049801Y0015152D01*
X0049723Y0015289D01*
X0049649Y0015428D01*
X0049578Y0015569D01*
X0049510Y0015711D01*
X0049447Y0015856D01*
X0049386Y0016001D01*
X0049330Y0016149D01*
X0049277Y0016297D01*
X0049228Y0016447D01*
X0049183Y0016598D01*
X0049142Y0016751D01*
X0049104Y0016904D01*
X0049071Y0017058D01*
X0049041Y0017213D01*
X0049015Y0017368D01*
X0048994Y0017525D01*
X0048976Y0017681D01*
X0048962Y0017838D01*
X0048952Y0017996D01*
X0048946Y0018153D01*
X0048944Y0018311D01*
X0340282Y0018311D02*
X0340284Y0018469D01*
X0340290Y0018626D01*
X0340300Y0018784D01*
X0340314Y0018941D01*
X0340332Y0019097D01*
X0340353Y0019254D01*
X0340379Y0019409D01*
X0340409Y0019564D01*
X0340442Y0019718D01*
X0340480Y0019871D01*
X0340521Y0020024D01*
X0340566Y0020175D01*
X0340615Y0020325D01*
X0340668Y0020473D01*
X0340724Y0020621D01*
X0340785Y0020766D01*
X0340848Y0020911D01*
X0340916Y0021053D01*
X0340987Y0021194D01*
X0341061Y0021333D01*
X0341139Y0021470D01*
X0341221Y0021605D01*
X0341305Y0021738D01*
X0341394Y0021869D01*
X0341485Y0021997D01*
X0341580Y0022124D01*
X0341677Y0022247D01*
X0341778Y0022369D01*
X0341882Y0022487D01*
X0341989Y0022603D01*
X0342099Y0022716D01*
X0342211Y0022827D01*
X0342327Y0022934D01*
X0342445Y0023039D01*
X0342565Y0023141D01*
X0342688Y0023239D01*
X0342814Y0023335D01*
X0342942Y0023427D01*
X0343072Y0023516D01*
X0343204Y0023602D01*
X0343339Y0023684D01*
X0343476Y0023763D01*
X0343614Y0023838D01*
X0343754Y0023910D01*
X0343897Y0023978D01*
X0344040Y0024043D01*
X0344186Y0024104D01*
X0344333Y0024161D01*
X0344481Y0024215D01*
X0344631Y0024265D01*
X0344781Y0024311D01*
X0344933Y0024353D01*
X0345086Y0024392D01*
X0345240Y0024426D01*
X0345395Y0024457D01*
X0345550Y0024483D01*
X0345706Y0024506D01*
X0345863Y0024525D01*
X0346020Y0024540D01*
X0346177Y0024551D01*
X0346335Y0024558D01*
X0346493Y0024561D01*
X0346650Y0024560D01*
X0346808Y0024555D01*
X0346965Y0024546D01*
X0347123Y0024533D01*
X0347279Y0024516D01*
X0347436Y0024495D01*
X0347591Y0024471D01*
X0347746Y0024442D01*
X0347901Y0024409D01*
X0348054Y0024373D01*
X0348207Y0024332D01*
X0348358Y0024288D01*
X0348508Y0024240D01*
X0348657Y0024189D01*
X0348805Y0024133D01*
X0348951Y0024074D01*
X0349096Y0024011D01*
X0349239Y0023944D01*
X0349380Y0023874D01*
X0349519Y0023801D01*
X0349657Y0023724D01*
X0349793Y0023643D01*
X0349926Y0023559D01*
X0350057Y0023472D01*
X0350186Y0023381D01*
X0350313Y0023287D01*
X0350438Y0023190D01*
X0350559Y0023090D01*
X0350679Y0022987D01*
X0350795Y0022881D01*
X0350909Y0022772D01*
X0351021Y0022660D01*
X0351129Y0022546D01*
X0351234Y0022428D01*
X0351337Y0022308D01*
X0351436Y0022186D01*
X0351532Y0022061D01*
X0351625Y0021933D01*
X0351715Y0021804D01*
X0351801Y0021672D01*
X0351885Y0021538D01*
X0351964Y0021402D01*
X0352041Y0021264D01*
X0352113Y0021124D01*
X0352182Y0020982D01*
X0352248Y0020839D01*
X0352310Y0020694D01*
X0352368Y0020547D01*
X0352423Y0020399D01*
X0352474Y0020250D01*
X0352521Y0020099D01*
X0352564Y0019948D01*
X0352603Y0019795D01*
X0352639Y0019641D01*
X0352670Y0019487D01*
X0352698Y0019332D01*
X0352722Y0019176D01*
X0352742Y0019019D01*
X0352758Y0018862D01*
X0352770Y0018705D01*
X0352778Y0018548D01*
X0352782Y0018390D01*
X0352782Y0018232D01*
X0352778Y0018074D01*
X0352770Y0017917D01*
X0352758Y0017760D01*
X0352742Y0017603D01*
X0352722Y0017446D01*
X0352698Y0017290D01*
X0352670Y0017135D01*
X0352639Y0016981D01*
X0352603Y0016827D01*
X0352564Y0016674D01*
X0352521Y0016523D01*
X0352474Y0016372D01*
X0352423Y0016223D01*
X0352368Y0016075D01*
X0352310Y0015928D01*
X0352248Y0015783D01*
X0352182Y0015640D01*
X0352113Y0015498D01*
X0352041Y0015358D01*
X0351964Y0015220D01*
X0351885Y0015084D01*
X0351801Y0014950D01*
X0351715Y0014818D01*
X0351625Y0014689D01*
X0351532Y0014561D01*
X0351436Y0014436D01*
X0351337Y0014314D01*
X0351234Y0014194D01*
X0351129Y0014076D01*
X0351021Y0013962D01*
X0350909Y0013850D01*
X0350795Y0013741D01*
X0350679Y0013635D01*
X0350559Y0013532D01*
X0350438Y0013432D01*
X0350313Y0013335D01*
X0350186Y0013241D01*
X0350057Y0013150D01*
X0349926Y0013063D01*
X0349793Y0012979D01*
X0349657Y0012898D01*
X0349519Y0012821D01*
X0349380Y0012748D01*
X0349239Y0012678D01*
X0349096Y0012611D01*
X0348951Y0012548D01*
X0348805Y0012489D01*
X0348657Y0012433D01*
X0348508Y0012382D01*
X0348358Y0012334D01*
X0348207Y0012290D01*
X0348054Y0012249D01*
X0347901Y0012213D01*
X0347746Y0012180D01*
X0347591Y0012151D01*
X0347436Y0012127D01*
X0347279Y0012106D01*
X0347123Y0012089D01*
X0346965Y0012076D01*
X0346808Y0012067D01*
X0346650Y0012062D01*
X0346493Y0012061D01*
X0346335Y0012064D01*
X0346177Y0012071D01*
X0346020Y0012082D01*
X0345863Y0012097D01*
X0345706Y0012116D01*
X0345550Y0012139D01*
X0345395Y0012165D01*
X0345240Y0012196D01*
X0345086Y0012230D01*
X0344933Y0012269D01*
X0344781Y0012311D01*
X0344631Y0012357D01*
X0344481Y0012407D01*
X0344333Y0012461D01*
X0344186Y0012518D01*
X0344040Y0012579D01*
X0343897Y0012644D01*
X0343754Y0012712D01*
X0343614Y0012784D01*
X0343476Y0012859D01*
X0343339Y0012938D01*
X0343204Y0013020D01*
X0343072Y0013106D01*
X0342942Y0013195D01*
X0342814Y0013287D01*
X0342688Y0013383D01*
X0342565Y0013481D01*
X0342445Y0013583D01*
X0342327Y0013688D01*
X0342211Y0013795D01*
X0342099Y0013906D01*
X0341989Y0014019D01*
X0341882Y0014135D01*
X0341778Y0014253D01*
X0341677Y0014375D01*
X0341580Y0014498D01*
X0341485Y0014625D01*
X0341394Y0014753D01*
X0341305Y0014884D01*
X0341221Y0015017D01*
X0341139Y0015152D01*
X0341061Y0015289D01*
X0340987Y0015428D01*
X0340916Y0015569D01*
X0340848Y0015711D01*
X0340785Y0015856D01*
X0340724Y0016001D01*
X0340668Y0016149D01*
X0340615Y0016297D01*
X0340566Y0016447D01*
X0340521Y0016598D01*
X0340480Y0016751D01*
X0340442Y0016904D01*
X0340409Y0017058D01*
X0340379Y0017213D01*
X0340353Y0017368D01*
X0340332Y0017525D01*
X0340314Y0017681D01*
X0340300Y0017838D01*
X0340290Y0017996D01*
X0340284Y0018153D01*
X0340282Y0018311D01*
X0340282Y0309650D02*
X0340284Y0309808D01*
X0340290Y0309965D01*
X0340300Y0310123D01*
X0340314Y0310280D01*
X0340332Y0310436D01*
X0340353Y0310593D01*
X0340379Y0310748D01*
X0340409Y0310903D01*
X0340442Y0311057D01*
X0340480Y0311210D01*
X0340521Y0311363D01*
X0340566Y0311514D01*
X0340615Y0311664D01*
X0340668Y0311812D01*
X0340724Y0311960D01*
X0340785Y0312105D01*
X0340848Y0312250D01*
X0340916Y0312392D01*
X0340987Y0312533D01*
X0341061Y0312672D01*
X0341139Y0312809D01*
X0341221Y0312944D01*
X0341305Y0313077D01*
X0341394Y0313208D01*
X0341485Y0313336D01*
X0341580Y0313463D01*
X0341677Y0313586D01*
X0341778Y0313708D01*
X0341882Y0313826D01*
X0341989Y0313942D01*
X0342099Y0314055D01*
X0342211Y0314166D01*
X0342327Y0314273D01*
X0342445Y0314378D01*
X0342565Y0314480D01*
X0342688Y0314578D01*
X0342814Y0314674D01*
X0342942Y0314766D01*
X0343072Y0314855D01*
X0343204Y0314941D01*
X0343339Y0315023D01*
X0343476Y0315102D01*
X0343614Y0315177D01*
X0343754Y0315249D01*
X0343897Y0315317D01*
X0344040Y0315382D01*
X0344186Y0315443D01*
X0344333Y0315500D01*
X0344481Y0315554D01*
X0344631Y0315604D01*
X0344781Y0315650D01*
X0344933Y0315692D01*
X0345086Y0315731D01*
X0345240Y0315765D01*
X0345395Y0315796D01*
X0345550Y0315822D01*
X0345706Y0315845D01*
X0345863Y0315864D01*
X0346020Y0315879D01*
X0346177Y0315890D01*
X0346335Y0315897D01*
X0346493Y0315900D01*
X0346650Y0315899D01*
X0346808Y0315894D01*
X0346965Y0315885D01*
X0347123Y0315872D01*
X0347279Y0315855D01*
X0347436Y0315834D01*
X0347591Y0315810D01*
X0347746Y0315781D01*
X0347901Y0315748D01*
X0348054Y0315712D01*
X0348207Y0315671D01*
X0348358Y0315627D01*
X0348508Y0315579D01*
X0348657Y0315528D01*
X0348805Y0315472D01*
X0348951Y0315413D01*
X0349096Y0315350D01*
X0349239Y0315283D01*
X0349380Y0315213D01*
X0349519Y0315140D01*
X0349657Y0315063D01*
X0349793Y0314982D01*
X0349926Y0314898D01*
X0350057Y0314811D01*
X0350186Y0314720D01*
X0350313Y0314626D01*
X0350438Y0314529D01*
X0350559Y0314429D01*
X0350679Y0314326D01*
X0350795Y0314220D01*
X0350909Y0314111D01*
X0351021Y0313999D01*
X0351129Y0313885D01*
X0351234Y0313767D01*
X0351337Y0313647D01*
X0351436Y0313525D01*
X0351532Y0313400D01*
X0351625Y0313272D01*
X0351715Y0313143D01*
X0351801Y0313011D01*
X0351885Y0312877D01*
X0351964Y0312741D01*
X0352041Y0312603D01*
X0352113Y0312463D01*
X0352182Y0312321D01*
X0352248Y0312178D01*
X0352310Y0312033D01*
X0352368Y0311886D01*
X0352423Y0311738D01*
X0352474Y0311589D01*
X0352521Y0311438D01*
X0352564Y0311287D01*
X0352603Y0311134D01*
X0352639Y0310980D01*
X0352670Y0310826D01*
X0352698Y0310671D01*
X0352722Y0310515D01*
X0352742Y0310358D01*
X0352758Y0310201D01*
X0352770Y0310044D01*
X0352778Y0309887D01*
X0352782Y0309729D01*
X0352782Y0309571D01*
X0352778Y0309413D01*
X0352770Y0309256D01*
X0352758Y0309099D01*
X0352742Y0308942D01*
X0352722Y0308785D01*
X0352698Y0308629D01*
X0352670Y0308474D01*
X0352639Y0308320D01*
X0352603Y0308166D01*
X0352564Y0308013D01*
X0352521Y0307862D01*
X0352474Y0307711D01*
X0352423Y0307562D01*
X0352368Y0307414D01*
X0352310Y0307267D01*
X0352248Y0307122D01*
X0352182Y0306979D01*
X0352113Y0306837D01*
X0352041Y0306697D01*
X0351964Y0306559D01*
X0351885Y0306423D01*
X0351801Y0306289D01*
X0351715Y0306157D01*
X0351625Y0306028D01*
X0351532Y0305900D01*
X0351436Y0305775D01*
X0351337Y0305653D01*
X0351234Y0305533D01*
X0351129Y0305415D01*
X0351021Y0305301D01*
X0350909Y0305189D01*
X0350795Y0305080D01*
X0350679Y0304974D01*
X0350559Y0304871D01*
X0350438Y0304771D01*
X0350313Y0304674D01*
X0350186Y0304580D01*
X0350057Y0304489D01*
X0349926Y0304402D01*
X0349793Y0304318D01*
X0349657Y0304237D01*
X0349519Y0304160D01*
X0349380Y0304087D01*
X0349239Y0304017D01*
X0349096Y0303950D01*
X0348951Y0303887D01*
X0348805Y0303828D01*
X0348657Y0303772D01*
X0348508Y0303721D01*
X0348358Y0303673D01*
X0348207Y0303629D01*
X0348054Y0303588D01*
X0347901Y0303552D01*
X0347746Y0303519D01*
X0347591Y0303490D01*
X0347436Y0303466D01*
X0347279Y0303445D01*
X0347123Y0303428D01*
X0346965Y0303415D01*
X0346808Y0303406D01*
X0346650Y0303401D01*
X0346493Y0303400D01*
X0346335Y0303403D01*
X0346177Y0303410D01*
X0346020Y0303421D01*
X0345863Y0303436D01*
X0345706Y0303455D01*
X0345550Y0303478D01*
X0345395Y0303504D01*
X0345240Y0303535D01*
X0345086Y0303569D01*
X0344933Y0303608D01*
X0344781Y0303650D01*
X0344631Y0303696D01*
X0344481Y0303746D01*
X0344333Y0303800D01*
X0344186Y0303857D01*
X0344040Y0303918D01*
X0343897Y0303983D01*
X0343754Y0304051D01*
X0343614Y0304123D01*
X0343476Y0304198D01*
X0343339Y0304277D01*
X0343204Y0304359D01*
X0343072Y0304445D01*
X0342942Y0304534D01*
X0342814Y0304626D01*
X0342688Y0304722D01*
X0342565Y0304820D01*
X0342445Y0304922D01*
X0342327Y0305027D01*
X0342211Y0305134D01*
X0342099Y0305245D01*
X0341989Y0305358D01*
X0341882Y0305474D01*
X0341778Y0305592D01*
X0341677Y0305714D01*
X0341580Y0305837D01*
X0341485Y0305964D01*
X0341394Y0306092D01*
X0341305Y0306223D01*
X0341221Y0306356D01*
X0341139Y0306491D01*
X0341061Y0306628D01*
X0340987Y0306767D01*
X0340916Y0306908D01*
X0340848Y0307050D01*
X0340785Y0307195D01*
X0340724Y0307340D01*
X0340668Y0307488D01*
X0340615Y0307636D01*
X0340566Y0307786D01*
X0340521Y0307937D01*
X0340480Y0308090D01*
X0340442Y0308243D01*
X0340409Y0308397D01*
X0340379Y0308552D01*
X0340353Y0308707D01*
X0340332Y0308864D01*
X0340314Y0309020D01*
X0340300Y0309177D01*
X0340290Y0309335D01*
X0340284Y0309492D01*
X0340282Y0309650D01*
X0048944Y0309650D02*
X0048946Y0309808D01*
X0048952Y0309965D01*
X0048962Y0310123D01*
X0048976Y0310280D01*
X0048994Y0310436D01*
X0049015Y0310593D01*
X0049041Y0310748D01*
X0049071Y0310903D01*
X0049104Y0311057D01*
X0049142Y0311210D01*
X0049183Y0311363D01*
X0049228Y0311514D01*
X0049277Y0311664D01*
X0049330Y0311812D01*
X0049386Y0311960D01*
X0049447Y0312105D01*
X0049510Y0312250D01*
X0049578Y0312392D01*
X0049649Y0312533D01*
X0049723Y0312672D01*
X0049801Y0312809D01*
X0049883Y0312944D01*
X0049967Y0313077D01*
X0050056Y0313208D01*
X0050147Y0313336D01*
X0050242Y0313463D01*
X0050339Y0313586D01*
X0050440Y0313708D01*
X0050544Y0313826D01*
X0050651Y0313942D01*
X0050761Y0314055D01*
X0050873Y0314166D01*
X0050989Y0314273D01*
X0051107Y0314378D01*
X0051227Y0314480D01*
X0051350Y0314578D01*
X0051476Y0314674D01*
X0051604Y0314766D01*
X0051734Y0314855D01*
X0051866Y0314941D01*
X0052001Y0315023D01*
X0052138Y0315102D01*
X0052276Y0315177D01*
X0052416Y0315249D01*
X0052559Y0315317D01*
X0052702Y0315382D01*
X0052848Y0315443D01*
X0052995Y0315500D01*
X0053143Y0315554D01*
X0053293Y0315604D01*
X0053443Y0315650D01*
X0053595Y0315692D01*
X0053748Y0315731D01*
X0053902Y0315765D01*
X0054057Y0315796D01*
X0054212Y0315822D01*
X0054368Y0315845D01*
X0054525Y0315864D01*
X0054682Y0315879D01*
X0054839Y0315890D01*
X0054997Y0315897D01*
X0055155Y0315900D01*
X0055312Y0315899D01*
X0055470Y0315894D01*
X0055627Y0315885D01*
X0055785Y0315872D01*
X0055941Y0315855D01*
X0056098Y0315834D01*
X0056253Y0315810D01*
X0056408Y0315781D01*
X0056563Y0315748D01*
X0056716Y0315712D01*
X0056869Y0315671D01*
X0057020Y0315627D01*
X0057170Y0315579D01*
X0057319Y0315528D01*
X0057467Y0315472D01*
X0057613Y0315413D01*
X0057758Y0315350D01*
X0057901Y0315283D01*
X0058042Y0315213D01*
X0058181Y0315140D01*
X0058319Y0315063D01*
X0058455Y0314982D01*
X0058588Y0314898D01*
X0058719Y0314811D01*
X0058848Y0314720D01*
X0058975Y0314626D01*
X0059100Y0314529D01*
X0059221Y0314429D01*
X0059341Y0314326D01*
X0059457Y0314220D01*
X0059571Y0314111D01*
X0059683Y0313999D01*
X0059791Y0313885D01*
X0059896Y0313767D01*
X0059999Y0313647D01*
X0060098Y0313525D01*
X0060194Y0313400D01*
X0060287Y0313272D01*
X0060377Y0313143D01*
X0060463Y0313011D01*
X0060547Y0312877D01*
X0060626Y0312741D01*
X0060703Y0312603D01*
X0060775Y0312463D01*
X0060844Y0312321D01*
X0060910Y0312178D01*
X0060972Y0312033D01*
X0061030Y0311886D01*
X0061085Y0311738D01*
X0061136Y0311589D01*
X0061183Y0311438D01*
X0061226Y0311287D01*
X0061265Y0311134D01*
X0061301Y0310980D01*
X0061332Y0310826D01*
X0061360Y0310671D01*
X0061384Y0310515D01*
X0061404Y0310358D01*
X0061420Y0310201D01*
X0061432Y0310044D01*
X0061440Y0309887D01*
X0061444Y0309729D01*
X0061444Y0309571D01*
X0061440Y0309413D01*
X0061432Y0309256D01*
X0061420Y0309099D01*
X0061404Y0308942D01*
X0061384Y0308785D01*
X0061360Y0308629D01*
X0061332Y0308474D01*
X0061301Y0308320D01*
X0061265Y0308166D01*
X0061226Y0308013D01*
X0061183Y0307862D01*
X0061136Y0307711D01*
X0061085Y0307562D01*
X0061030Y0307414D01*
X0060972Y0307267D01*
X0060910Y0307122D01*
X0060844Y0306979D01*
X0060775Y0306837D01*
X0060703Y0306697D01*
X0060626Y0306559D01*
X0060547Y0306423D01*
X0060463Y0306289D01*
X0060377Y0306157D01*
X0060287Y0306028D01*
X0060194Y0305900D01*
X0060098Y0305775D01*
X0059999Y0305653D01*
X0059896Y0305533D01*
X0059791Y0305415D01*
X0059683Y0305301D01*
X0059571Y0305189D01*
X0059457Y0305080D01*
X0059341Y0304974D01*
X0059221Y0304871D01*
X0059100Y0304771D01*
X0058975Y0304674D01*
X0058848Y0304580D01*
X0058719Y0304489D01*
X0058588Y0304402D01*
X0058455Y0304318D01*
X0058319Y0304237D01*
X0058181Y0304160D01*
X0058042Y0304087D01*
X0057901Y0304017D01*
X0057758Y0303950D01*
X0057613Y0303887D01*
X0057467Y0303828D01*
X0057319Y0303772D01*
X0057170Y0303721D01*
X0057020Y0303673D01*
X0056869Y0303629D01*
X0056716Y0303588D01*
X0056563Y0303552D01*
X0056408Y0303519D01*
X0056253Y0303490D01*
X0056098Y0303466D01*
X0055941Y0303445D01*
X0055785Y0303428D01*
X0055627Y0303415D01*
X0055470Y0303406D01*
X0055312Y0303401D01*
X0055155Y0303400D01*
X0054997Y0303403D01*
X0054839Y0303410D01*
X0054682Y0303421D01*
X0054525Y0303436D01*
X0054368Y0303455D01*
X0054212Y0303478D01*
X0054057Y0303504D01*
X0053902Y0303535D01*
X0053748Y0303569D01*
X0053595Y0303608D01*
X0053443Y0303650D01*
X0053293Y0303696D01*
X0053143Y0303746D01*
X0052995Y0303800D01*
X0052848Y0303857D01*
X0052702Y0303918D01*
X0052559Y0303983D01*
X0052416Y0304051D01*
X0052276Y0304123D01*
X0052138Y0304198D01*
X0052001Y0304277D01*
X0051866Y0304359D01*
X0051734Y0304445D01*
X0051604Y0304534D01*
X0051476Y0304626D01*
X0051350Y0304722D01*
X0051227Y0304820D01*
X0051107Y0304922D01*
X0050989Y0305027D01*
X0050873Y0305134D01*
X0050761Y0305245D01*
X0050651Y0305358D01*
X0050544Y0305474D01*
X0050440Y0305592D01*
X0050339Y0305714D01*
X0050242Y0305837D01*
X0050147Y0305964D01*
X0050056Y0306092D01*
X0049967Y0306223D01*
X0049883Y0306356D01*
X0049801Y0306491D01*
X0049723Y0306628D01*
X0049649Y0306767D01*
X0049578Y0306908D01*
X0049510Y0307050D01*
X0049447Y0307195D01*
X0049386Y0307340D01*
X0049330Y0307488D01*
X0049277Y0307636D01*
X0049228Y0307786D01*
X0049183Y0307937D01*
X0049142Y0308090D01*
X0049104Y0308243D01*
X0049071Y0308397D01*
X0049041Y0308552D01*
X0049015Y0308707D01*
X0048994Y0308864D01*
X0048976Y0309020D01*
X0048962Y0309177D01*
X0048952Y0309335D01*
X0048946Y0309492D01*
X0048944Y0309650D01*
D12*
X0068583Y0278977D02*
X0068583Y0275908D01*
X0071652Y0278977D01*
X0072419Y0278977D01*
X0073186Y0278210D01*
X0073186Y0276675D01*
X0072419Y0275908D01*
X0073186Y0272839D02*
X0068583Y0272839D01*
X0068583Y0274373D02*
X0068583Y0271304D01*
X0068583Y0269769D02*
X0070117Y0268235D01*
X0070117Y0269002D02*
X0070117Y0266700D01*
X0068583Y0266700D02*
X0073186Y0266700D01*
X0073186Y0269002D01*
X0072419Y0269769D01*
X0070884Y0269769D01*
X0070117Y0269002D01*
X0071652Y0271304D02*
X0073186Y0272839D01*
X0233009Y0206304D02*
X0233009Y0205537D01*
X0236079Y0202467D01*
X0236079Y0201700D01*
X0237613Y0201700D02*
X0239148Y0203235D01*
X0238381Y0203235D02*
X0240683Y0203235D01*
X0240683Y0201700D02*
X0240683Y0206304D01*
X0238381Y0206304D01*
X0237613Y0205537D01*
X0237613Y0204002D01*
X0238381Y0203235D01*
X0236079Y0206304D02*
X0233009Y0206304D01*
X0261083Y0214200D02*
X0265686Y0214200D01*
X0265686Y0216502D01*
X0264919Y0217269D01*
X0263384Y0217269D01*
X0262617Y0216502D01*
X0262617Y0214200D01*
X0262617Y0215735D02*
X0261083Y0217269D01*
X0261850Y0218804D02*
X0262617Y0218804D01*
X0263384Y0219571D01*
X0263384Y0221106D01*
X0262617Y0221873D01*
X0261850Y0221873D01*
X0261083Y0221106D01*
X0261083Y0219571D01*
X0261850Y0218804D01*
X0263384Y0219571D02*
X0264152Y0218804D01*
X0264919Y0218804D01*
X0265686Y0219571D01*
X0265686Y0221106D01*
X0264919Y0221873D01*
X0264152Y0221873D01*
X0263384Y0221106D01*
X0284083Y0211665D02*
X0284083Y0208596D01*
X0287152Y0211665D01*
X0287919Y0211665D01*
X0288686Y0210898D01*
X0288686Y0209363D01*
X0287919Y0208596D01*
X0287919Y0207061D02*
X0288686Y0206294D01*
X0288686Y0203992D01*
X0284083Y0203992D01*
X0284083Y0206294D01*
X0284850Y0207061D01*
X0287919Y0207061D01*
X0267390Y0188804D02*
X0265088Y0188804D01*
X0264321Y0188037D01*
X0264321Y0186502D01*
X0265088Y0185735D01*
X0267390Y0185735D01*
X0265856Y0185735D02*
X0264321Y0184200D01*
X0262786Y0184967D02*
X0262019Y0184200D01*
X0260485Y0184200D01*
X0259717Y0184967D01*
X0259717Y0188037D01*
X0260485Y0188804D01*
X0262019Y0188804D01*
X0262786Y0188037D01*
X0262786Y0187269D01*
X0262019Y0186502D01*
X0259717Y0186502D01*
X0267390Y0184200D02*
X0267390Y0188804D01*
X0232415Y0126304D02*
X0233183Y0125537D01*
X0233183Y0122467D01*
X0232415Y0121700D01*
X0230881Y0121700D01*
X0230113Y0122467D01*
X0228579Y0121700D02*
X0225509Y0121700D01*
X0227044Y0121700D02*
X0227044Y0126304D01*
X0228579Y0124769D01*
X0230113Y0125537D02*
X0230881Y0126304D01*
X0232415Y0126304D01*
X0232415Y0111304D02*
X0233183Y0110537D01*
X0233183Y0107467D01*
X0232415Y0106700D01*
X0230881Y0106700D01*
X0230113Y0107467D01*
X0228579Y0106700D02*
X0225509Y0109769D01*
X0225509Y0110537D01*
X0226277Y0111304D01*
X0227811Y0111304D01*
X0228579Y0110537D01*
X0230113Y0110537D02*
X0230881Y0111304D01*
X0232415Y0111304D01*
X0228579Y0106700D02*
X0225509Y0106700D01*
X0222390Y0109967D02*
X0221623Y0109200D01*
X0220088Y0109200D01*
X0219321Y0109967D01*
X0217786Y0109967D02*
X0217019Y0109200D01*
X0215485Y0109200D01*
X0214717Y0109967D01*
X0214717Y0110735D01*
X0215485Y0111502D01*
X0216252Y0111502D01*
X0215485Y0111502D02*
X0214717Y0112269D01*
X0214717Y0113037D01*
X0215485Y0113804D01*
X0217019Y0113804D01*
X0217786Y0113037D01*
X0219321Y0113037D02*
X0220088Y0113804D01*
X0221623Y0113804D01*
X0222390Y0113037D01*
X0222390Y0109967D01*
X0221623Y0101304D02*
X0222390Y0100537D01*
X0222390Y0097467D01*
X0221623Y0096700D01*
X0220088Y0096700D01*
X0219321Y0097467D01*
X0217786Y0099002D02*
X0214717Y0099002D01*
X0215485Y0096700D02*
X0215485Y0101304D01*
X0217786Y0099002D01*
X0219321Y0100537D02*
X0220088Y0101304D01*
X0221623Y0101304D01*
X0303405Y0068037D02*
X0303405Y0067269D01*
X0304173Y0066502D01*
X0305707Y0066502D01*
X0306475Y0067269D01*
X0306475Y0068037D01*
X0305707Y0068804D01*
X0304173Y0068804D01*
X0303405Y0068037D01*
X0304173Y0066502D02*
X0303405Y0065735D01*
X0303405Y0064967D01*
X0304173Y0064200D01*
X0305707Y0064200D01*
X0306475Y0064967D01*
X0306475Y0065735D01*
X0305707Y0066502D01*
X0308009Y0064200D02*
X0311079Y0064200D01*
X0309544Y0064200D02*
X0309544Y0068804D01*
X0311079Y0067269D01*
X0312613Y0068037D02*
X0313381Y0068804D01*
X0314915Y0068804D01*
X0315683Y0068037D01*
X0315683Y0064967D01*
X0314915Y0064200D01*
X0313381Y0064200D01*
X0312613Y0064967D01*
X0342217Y0056304D02*
X0342217Y0055537D01*
X0345286Y0052467D01*
X0345286Y0051700D01*
X0346821Y0051700D02*
X0349890Y0051700D01*
X0348356Y0051700D02*
X0348356Y0056304D01*
X0349890Y0054769D01*
X0351425Y0054002D02*
X0352192Y0053235D01*
X0354494Y0053235D01*
X0352960Y0053235D02*
X0351425Y0051700D01*
X0351425Y0054002D02*
X0351425Y0055537D01*
X0352192Y0056304D01*
X0354494Y0056304D01*
X0354494Y0051700D01*
X0345286Y0056304D02*
X0342217Y0056304D01*
X0305856Y0015398D02*
X0304321Y0015398D01*
X0305088Y0015398D02*
X0305088Y0011562D01*
X0305856Y0010794D01*
X0306623Y0010794D01*
X0307390Y0011562D01*
X0302786Y0013096D02*
X0299717Y0013096D01*
X0300485Y0010794D02*
X0300485Y0015398D01*
X0302786Y0013096D01*
X0130686Y0107467D02*
X0129919Y0106700D01*
X0126850Y0106700D01*
X0126083Y0107467D01*
X0126083Y0109002D01*
X0126850Y0109769D01*
X0126083Y0111304D02*
X0126083Y0114373D01*
X0126083Y0112839D02*
X0130686Y0112839D01*
X0129152Y0111304D01*
X0129919Y0109769D02*
X0130686Y0109002D01*
X0130686Y0107467D01*
X0123186Y0106502D02*
X0123186Y0104967D01*
X0122419Y0104200D01*
X0119350Y0104200D01*
X0118583Y0104967D01*
X0118583Y0106502D01*
X0119350Y0107269D01*
X0119350Y0108804D02*
X0118583Y0109571D01*
X0118583Y0111106D01*
X0119350Y0111873D01*
X0122419Y0111873D01*
X0123186Y0111106D01*
X0123186Y0109571D01*
X0122419Y0108804D01*
X0121652Y0108804D01*
X0120884Y0109571D01*
X0120884Y0111873D01*
X0122419Y0107269D02*
X0123186Y0106502D01*
X0113186Y0106502D02*
X0112419Y0107269D01*
X0113186Y0106502D02*
X0113186Y0104967D01*
X0112419Y0104200D01*
X0109350Y0104200D01*
X0108583Y0104967D01*
X0108583Y0106502D01*
X0109350Y0107269D01*
X0109350Y0108804D02*
X0110117Y0108804D01*
X0110884Y0109571D01*
X0110884Y0111106D01*
X0110117Y0111873D01*
X0109350Y0111873D01*
X0108583Y0111106D01*
X0108583Y0109571D01*
X0109350Y0108804D01*
X0110884Y0109571D02*
X0111652Y0108804D01*
X0112419Y0108804D01*
X0113186Y0109571D01*
X0113186Y0111106D01*
X0112419Y0111873D01*
X0111652Y0111873D01*
X0110884Y0111106D01*
X0103186Y0111304D02*
X0103186Y0114373D01*
X0102419Y0114373D01*
X0099350Y0111304D01*
X0098583Y0111304D01*
X0099350Y0109769D02*
X0098583Y0109002D01*
X0098583Y0107467D01*
X0099350Y0106700D01*
X0102419Y0106700D01*
X0103186Y0107467D01*
X0103186Y0109002D01*
X0102419Y0109769D01*
X0088384Y0091873D02*
X0088384Y0088804D01*
X0090686Y0091106D01*
X0086083Y0091106D01*
X0086083Y0087269D02*
X0087617Y0085735D01*
X0087617Y0086502D02*
X0087617Y0084200D01*
X0086083Y0084200D02*
X0090686Y0084200D01*
X0090686Y0086502D01*
X0089919Y0087269D01*
X0088384Y0087269D01*
X0087617Y0086502D01*
X0108009Y0071304D02*
X0111079Y0071304D01*
X0111079Y0069002D01*
X0109544Y0069769D01*
X0108777Y0069769D01*
X0108009Y0069002D01*
X0108009Y0067467D01*
X0108777Y0066700D01*
X0110311Y0066700D01*
X0111079Y0067467D01*
X0112613Y0066700D02*
X0114148Y0068235D01*
X0113381Y0068235D02*
X0115683Y0068235D01*
X0115683Y0066700D02*
X0115683Y0071304D01*
X0113381Y0071304D01*
X0112613Y0070537D01*
X0112613Y0069002D01*
X0113381Y0068235D01*
X0113381Y0063804D02*
X0112613Y0063037D01*
X0112613Y0061502D01*
X0113381Y0060735D01*
X0115683Y0060735D01*
X0115683Y0059200D02*
X0115683Y0063804D01*
X0113381Y0063804D01*
X0114148Y0060735D02*
X0112613Y0059200D01*
X0111079Y0059967D02*
X0110311Y0059200D01*
X0108777Y0059200D01*
X0108009Y0059967D01*
X0108009Y0060735D01*
X0108777Y0061502D01*
X0111079Y0061502D01*
X0111079Y0059967D01*
X0111079Y0061502D02*
X0109544Y0063037D01*
X0108009Y0063804D01*
X0108009Y0056304D02*
X0109544Y0055537D01*
X0111079Y0054002D01*
X0108777Y0054002D01*
X0108009Y0053235D01*
X0108009Y0052467D01*
X0108777Y0051700D01*
X0110311Y0051700D01*
X0111079Y0052467D01*
X0111079Y0054002D01*
X0112613Y0055537D02*
X0113381Y0056304D01*
X0114915Y0056304D01*
X0115683Y0055537D01*
X0115683Y0052467D01*
X0114915Y0051700D01*
X0113381Y0051700D01*
X0112613Y0052467D01*
X0080686Y0052863D02*
X0079919Y0052096D01*
X0080686Y0052863D02*
X0080686Y0054398D01*
X0079919Y0055165D01*
X0079152Y0055165D01*
X0076083Y0052096D01*
X0076083Y0055165D01*
X0076083Y0050561D02*
X0077617Y0049027D01*
X0077617Y0049794D02*
X0077617Y0047492D01*
X0076083Y0047492D02*
X0080686Y0047492D01*
X0080686Y0049794D01*
X0079919Y0050561D01*
X0078384Y0050561D01*
X0077617Y0049794D01*
X0126850Y0115908D02*
X0129919Y0118977D01*
X0126850Y0118977D01*
X0126083Y0118210D01*
X0126083Y0116675D01*
X0126850Y0115908D01*
X0129919Y0115908D01*
X0130686Y0116675D01*
X0130686Y0118210D01*
X0129919Y0118977D01*
X0328405Y0259967D02*
X0329173Y0259200D01*
X0330707Y0259200D01*
X0331475Y0259967D01*
X0331475Y0261502D02*
X0329940Y0262269D01*
X0329173Y0262269D01*
X0328405Y0261502D01*
X0328405Y0259967D01*
X0331475Y0261502D02*
X0331475Y0263804D01*
X0328405Y0263804D01*
X0334544Y0263804D02*
X0334544Y0259200D01*
X0336079Y0259200D02*
X0333009Y0259200D01*
X0336079Y0262269D02*
X0334544Y0263804D01*
X0337613Y0263037D02*
X0337613Y0261502D01*
X0338381Y0260735D01*
X0340683Y0260735D01*
X0340683Y0259200D02*
X0340683Y0263804D01*
X0338381Y0263804D01*
X0337613Y0263037D01*
X0339148Y0260735D02*
X0337613Y0259200D01*
D13*
X0333501Y0271500D02*
X0343383Y0271500D01*
X0348383Y0275437D02*
X0348383Y0287563D01*
X0343264Y0291500D02*
X0333501Y0291500D01*
X0328383Y0287563D02*
X0328383Y0275437D01*
X0333383Y0281500D02*
X0333385Y0281641D01*
X0333391Y0281782D01*
X0333401Y0281922D01*
X0333415Y0282062D01*
X0333433Y0282202D01*
X0333454Y0282341D01*
X0333480Y0282480D01*
X0333509Y0282618D01*
X0333543Y0282754D01*
X0333580Y0282890D01*
X0333621Y0283025D01*
X0333666Y0283159D01*
X0333715Y0283291D01*
X0333767Y0283422D01*
X0333823Y0283551D01*
X0333883Y0283678D01*
X0333946Y0283804D01*
X0334012Y0283928D01*
X0334083Y0284051D01*
X0334156Y0284171D01*
X0334233Y0284289D01*
X0334313Y0284405D01*
X0334397Y0284518D01*
X0334483Y0284629D01*
X0334573Y0284738D01*
X0334666Y0284844D01*
X0334761Y0284947D01*
X0334860Y0285048D01*
X0334961Y0285146D01*
X0335065Y0285241D01*
X0335172Y0285333D01*
X0335281Y0285422D01*
X0335393Y0285507D01*
X0335507Y0285590D01*
X0335623Y0285670D01*
X0335742Y0285746D01*
X0335863Y0285818D01*
X0335985Y0285888D01*
X0336110Y0285953D01*
X0336236Y0286016D01*
X0336364Y0286074D01*
X0336494Y0286129D01*
X0336625Y0286181D01*
X0336758Y0286228D01*
X0336892Y0286272D01*
X0337027Y0286313D01*
X0337163Y0286349D01*
X0337300Y0286381D01*
X0337438Y0286410D01*
X0337576Y0286435D01*
X0337716Y0286455D01*
X0337856Y0286472D01*
X0337996Y0286485D01*
X0338137Y0286494D01*
X0338277Y0286499D01*
X0338418Y0286500D01*
X0338559Y0286497D01*
X0338700Y0286490D01*
X0338840Y0286479D01*
X0338980Y0286464D01*
X0339120Y0286445D01*
X0339259Y0286423D01*
X0339397Y0286396D01*
X0339535Y0286366D01*
X0339671Y0286331D01*
X0339807Y0286293D01*
X0339941Y0286251D01*
X0340075Y0286205D01*
X0340207Y0286156D01*
X0340337Y0286102D01*
X0340466Y0286045D01*
X0340593Y0285985D01*
X0340719Y0285921D01*
X0340842Y0285853D01*
X0340964Y0285782D01*
X0341084Y0285708D01*
X0341201Y0285630D01*
X0341316Y0285549D01*
X0341429Y0285465D01*
X0341540Y0285378D01*
X0341648Y0285287D01*
X0341753Y0285194D01*
X0341856Y0285097D01*
X0341956Y0284998D01*
X0342053Y0284896D01*
X0342147Y0284791D01*
X0342238Y0284684D01*
X0342326Y0284574D01*
X0342411Y0284462D01*
X0342493Y0284347D01*
X0342572Y0284230D01*
X0342647Y0284111D01*
X0342719Y0283990D01*
X0342787Y0283867D01*
X0342852Y0283742D01*
X0342914Y0283615D01*
X0342971Y0283486D01*
X0343026Y0283356D01*
X0343076Y0283225D01*
X0343123Y0283092D01*
X0343166Y0282958D01*
X0343205Y0282822D01*
X0343240Y0282686D01*
X0343272Y0282549D01*
X0343299Y0282411D01*
X0343323Y0282272D01*
X0343343Y0282132D01*
X0343359Y0281992D01*
X0343371Y0281852D01*
X0343379Y0281711D01*
X0343383Y0281570D01*
X0343383Y0281430D01*
X0343379Y0281289D01*
X0343371Y0281148D01*
X0343359Y0281008D01*
X0343343Y0280868D01*
X0343323Y0280728D01*
X0343299Y0280589D01*
X0343272Y0280451D01*
X0343240Y0280314D01*
X0343205Y0280178D01*
X0343166Y0280042D01*
X0343123Y0279908D01*
X0343076Y0279775D01*
X0343026Y0279644D01*
X0342971Y0279514D01*
X0342914Y0279385D01*
X0342852Y0279258D01*
X0342787Y0279133D01*
X0342719Y0279010D01*
X0342647Y0278889D01*
X0342572Y0278770D01*
X0342493Y0278653D01*
X0342411Y0278538D01*
X0342326Y0278426D01*
X0342238Y0278316D01*
X0342147Y0278209D01*
X0342053Y0278104D01*
X0341956Y0278002D01*
X0341856Y0277903D01*
X0341753Y0277806D01*
X0341648Y0277713D01*
X0341540Y0277622D01*
X0341429Y0277535D01*
X0341316Y0277451D01*
X0341201Y0277370D01*
X0341084Y0277292D01*
X0340964Y0277218D01*
X0340842Y0277147D01*
X0340719Y0277079D01*
X0340593Y0277015D01*
X0340466Y0276955D01*
X0340337Y0276898D01*
X0340207Y0276844D01*
X0340075Y0276795D01*
X0339941Y0276749D01*
X0339807Y0276707D01*
X0339671Y0276669D01*
X0339535Y0276634D01*
X0339397Y0276604D01*
X0339259Y0276577D01*
X0339120Y0276555D01*
X0338980Y0276536D01*
X0338840Y0276521D01*
X0338700Y0276510D01*
X0338559Y0276503D01*
X0338418Y0276500D01*
X0338277Y0276501D01*
X0338137Y0276506D01*
X0337996Y0276515D01*
X0337856Y0276528D01*
X0337716Y0276545D01*
X0337576Y0276565D01*
X0337438Y0276590D01*
X0337300Y0276619D01*
X0337163Y0276651D01*
X0337027Y0276687D01*
X0336892Y0276728D01*
X0336758Y0276772D01*
X0336625Y0276819D01*
X0336494Y0276871D01*
X0336364Y0276926D01*
X0336236Y0276984D01*
X0336110Y0277047D01*
X0335985Y0277112D01*
X0335863Y0277182D01*
X0335742Y0277254D01*
X0335623Y0277330D01*
X0335507Y0277410D01*
X0335393Y0277493D01*
X0335281Y0277578D01*
X0335172Y0277667D01*
X0335065Y0277759D01*
X0334961Y0277854D01*
X0334860Y0277952D01*
X0334761Y0278053D01*
X0334666Y0278156D01*
X0334573Y0278262D01*
X0334483Y0278371D01*
X0334397Y0278482D01*
X0334313Y0278595D01*
X0334233Y0278711D01*
X0334156Y0278829D01*
X0334083Y0278949D01*
X0334012Y0279072D01*
X0333946Y0279196D01*
X0333883Y0279322D01*
X0333823Y0279449D01*
X0333767Y0279578D01*
X0333715Y0279709D01*
X0333666Y0279841D01*
X0333621Y0279975D01*
X0333580Y0280110D01*
X0333543Y0280246D01*
X0333509Y0280382D01*
X0333480Y0280520D01*
X0333454Y0280659D01*
X0333433Y0280798D01*
X0333415Y0280938D01*
X0333401Y0281078D01*
X0333391Y0281218D01*
X0333385Y0281359D01*
X0333383Y0281500D01*
X0335883Y0221500D02*
X0333383Y0219000D01*
X0333383Y0214000D01*
X0335883Y0211500D01*
X0350883Y0211500D01*
X0353383Y0214000D01*
X0353383Y0219000D01*
X0350883Y0221500D01*
X0335883Y0221500D01*
X0335883Y0211500D02*
X0333383Y0209000D01*
X0333383Y0204000D01*
X0335883Y0201500D01*
X0350883Y0201500D01*
X0353383Y0204000D01*
X0353383Y0209000D01*
X0350883Y0211500D01*
X0350883Y0201500D02*
X0353383Y0199000D01*
X0353383Y0194000D01*
X0350883Y0191500D01*
X0335883Y0191500D01*
X0333383Y0189000D01*
X0333383Y0184000D01*
X0335883Y0181500D01*
X0350883Y0181500D01*
X0353383Y0184000D01*
X0353383Y0189000D01*
X0350883Y0191500D01*
X0335883Y0191500D01*
X0333383Y0194000D01*
X0333383Y0199000D01*
X0335883Y0201500D01*
X0332064Y0199000D02*
X0332064Y0194000D01*
X0335883Y0181500D02*
X0333383Y0179000D01*
X0333383Y0174000D01*
X0335883Y0171500D01*
X0350883Y0171500D01*
X0353383Y0174000D01*
X0353383Y0179000D01*
X0350883Y0181500D01*
X0350883Y0171500D02*
X0353383Y0169000D01*
X0353383Y0164000D01*
X0350883Y0161500D01*
X0335883Y0161500D01*
X0333383Y0164000D01*
X0333383Y0169000D01*
X0335883Y0171500D01*
X0332064Y0169000D02*
X0332064Y0164000D01*
X0281276Y0185988D02*
X0278127Y0185988D01*
X0278127Y0188350D01*
X0278127Y0194650D02*
X0278127Y0197012D01*
X0281276Y0197012D01*
X0291414Y0204531D02*
X0295351Y0204531D01*
X0293383Y0208469D01*
X0291414Y0204531D01*
X0093383Y0204000D02*
X0090883Y0201500D01*
X0093383Y0199000D01*
X0093383Y0194000D01*
X0090883Y0191500D01*
X0093383Y0189000D01*
X0093383Y0184000D01*
X0090883Y0181500D01*
X0093383Y0179000D01*
X0093383Y0174000D01*
X0090883Y0171500D01*
X0093383Y0169000D01*
X0093383Y0164000D01*
X0090883Y0161500D01*
X0093383Y0159000D01*
X0093383Y0154000D01*
X0090883Y0151500D01*
X0093383Y0149000D01*
X0093383Y0144000D01*
X0090883Y0141500D01*
X0093383Y0139000D01*
X0093383Y0134000D01*
X0090883Y0131500D01*
X0085883Y0131500D01*
X0083383Y0134000D01*
X0083383Y0139000D01*
X0085883Y0141500D01*
X0083383Y0144000D01*
X0083383Y0149000D01*
X0085883Y0151500D01*
X0083383Y0154000D01*
X0083383Y0159000D01*
X0085883Y0161500D01*
X0083383Y0164000D01*
X0083383Y0169000D01*
X0085883Y0171500D01*
X0083383Y0174000D01*
X0083383Y0179000D01*
X0085883Y0181500D01*
X0083383Y0184000D01*
X0083383Y0189000D01*
X0085883Y0191500D01*
X0083383Y0194000D01*
X0083383Y0199000D01*
X0085883Y0201500D01*
X0083383Y0204000D01*
X0083383Y0209000D01*
X0085883Y0211500D01*
X0090883Y0211500D01*
X0093383Y0209000D01*
X0093383Y0204000D01*
D14*
X0095833Y0139056D02*
X0095833Y0136054D01*
X0095833Y0137555D02*
X0100336Y0137555D01*
X0098835Y0136054D01*
X0098835Y0134453D02*
X0095833Y0134453D01*
X0098084Y0134453D02*
X0098084Y0131450D01*
X0098835Y0131450D02*
X0100336Y0132951D01*
X0098835Y0134453D01*
X0098835Y0131450D02*
X0095833Y0131450D01*
X0288698Y0038665D02*
X0288698Y0035909D01*
X0288698Y0038665D02*
X0297556Y0038665D01*
X0319209Y0038665D02*
X0328068Y0038665D01*
X0328068Y0035909D01*
X0328068Y0018980D02*
X0288698Y0018980D01*
X0356883Y0091750D02*
X0356133Y0092501D01*
X0356133Y0093251D01*
X0356883Y0094002D01*
X0360636Y0094002D01*
X0360636Y0093251D02*
X0360636Y0094753D01*
X0360636Y0096354D02*
X0356133Y0096354D01*
X0357634Y0096354D02*
X0357634Y0098606D01*
X0358384Y0099356D01*
X0359886Y0099356D01*
X0360636Y0098606D01*
X0360636Y0096354D01*
X0359886Y0100958D02*
X0360636Y0101708D01*
X0360636Y0103210D01*
X0359886Y0103960D01*
X0359135Y0103960D01*
X0356133Y0100958D01*
X0356133Y0103960D01*
X0356883Y0161750D02*
X0356133Y0162501D01*
X0356133Y0163251D01*
X0356883Y0164002D01*
X0360636Y0164002D01*
X0360636Y0163251D02*
X0360636Y0164753D01*
X0360636Y0166354D02*
X0360636Y0168606D01*
X0359886Y0169356D01*
X0358384Y0169356D01*
X0357634Y0168606D01*
X0357634Y0166354D01*
X0356133Y0166354D02*
X0360636Y0166354D01*
X0359135Y0170958D02*
X0360636Y0172459D01*
X0356133Y0172459D01*
X0356133Y0170958D02*
X0356133Y0173960D01*
X0356883Y0191750D02*
X0356133Y0192501D01*
X0356133Y0193251D01*
X0356883Y0194002D01*
X0360636Y0194002D01*
X0360636Y0193251D02*
X0360636Y0194753D01*
X0359135Y0196354D02*
X0360636Y0197855D01*
X0356133Y0197855D01*
X0356133Y0196354D02*
X0356133Y0199356D01*
X0113133Y0312501D02*
X0112382Y0311750D01*
X0110881Y0311750D01*
X0110130Y0312501D01*
X0110130Y0313251D01*
X0110881Y0314002D01*
X0112382Y0314002D01*
X0113133Y0314753D01*
X0113133Y0315503D01*
X0112382Y0316254D01*
X0110881Y0316254D01*
X0110130Y0315503D01*
X0108529Y0316254D02*
X0106277Y0316254D01*
X0105526Y0315503D01*
X0105526Y0314002D01*
X0106277Y0313251D01*
X0108529Y0313251D01*
X0108529Y0311750D02*
X0108529Y0316254D01*
X0103925Y0314753D02*
X0102423Y0316254D01*
X0102423Y0311750D01*
X0100922Y0311750D02*
X0103925Y0311750D01*
D15*
X0272333Y0194328D02*
X0272333Y0193327D01*
X0272333Y0192854D02*
X0272833Y0192354D01*
X0272583Y0192854D02*
X0272333Y0192604D01*
X0272333Y0192104D01*
X0272583Y0191853D01*
X0273584Y0191853D01*
X0273834Y0192104D01*
X0273834Y0192604D01*
X0273584Y0192854D01*
X0272583Y0192854D01*
X0273333Y0193327D02*
X0273834Y0193827D01*
X0272333Y0193827D01*
X0345683Y0278050D02*
X0345433Y0278300D01*
X0345433Y0278801D01*
X0345683Y0279051D01*
X0345933Y0279051D01*
X0346183Y0278801D01*
X0346183Y0278300D01*
X0346433Y0278050D01*
X0346684Y0278050D01*
X0346934Y0278300D01*
X0346934Y0278801D01*
X0346684Y0279051D01*
X0346433Y0279523D02*
X0346934Y0280024D01*
X0345433Y0280024D01*
X0345433Y0280524D02*
X0345433Y0279523D01*
D16*
X0293383Y0208700D03*
D17*
X0335883Y0151500D02*
X0350883Y0151500D01*
X0353383Y0149000D01*
X0353383Y0144000D01*
X0350883Y0141500D01*
X0335883Y0141500D01*
X0333383Y0144000D01*
X0333383Y0149000D01*
X0335883Y0151500D01*
X0335883Y0141500D02*
X0333383Y0139000D01*
X0333383Y0134000D01*
X0335883Y0131500D01*
X0350883Y0131500D01*
X0353383Y0134000D01*
X0353383Y0139000D01*
X0350883Y0141500D01*
X0350883Y0131500D02*
X0353383Y0129000D01*
X0353383Y0124000D01*
X0350883Y0121500D01*
X0335883Y0121500D01*
X0333383Y0124000D01*
X0333383Y0129000D01*
X0335883Y0131500D01*
X0335883Y0121500D02*
X0333383Y0119000D01*
X0333383Y0114000D01*
X0335883Y0111500D01*
X0350883Y0111500D01*
X0353383Y0114000D01*
X0353383Y0119000D01*
X0350883Y0121500D01*
X0350883Y0111500D02*
X0353383Y0109000D01*
X0353383Y0104000D01*
X0350883Y0101500D01*
X0335883Y0101500D01*
X0333383Y0104000D01*
X0333383Y0109000D01*
X0335883Y0111500D01*
X0335883Y0101500D02*
X0333383Y0099000D01*
X0333383Y0094000D01*
X0335883Y0091500D01*
X0350883Y0091500D01*
X0353383Y0094000D01*
X0353383Y0099000D01*
X0350883Y0101500D01*
X0079383Y0286500D02*
X0079390Y0287089D01*
X0079412Y0287678D01*
X0079448Y0288266D01*
X0079499Y0288852D01*
X0079563Y0289438D01*
X0079643Y0290022D01*
X0079736Y0290603D01*
X0079844Y0291182D01*
X0079966Y0291758D01*
X0080102Y0292332D01*
X0080252Y0292901D01*
X0080416Y0293467D01*
X0080594Y0294028D01*
X0080786Y0294585D01*
X0080991Y0295137D01*
X0081210Y0295684D01*
X0081442Y0296226D01*
X0081687Y0296761D01*
X0081946Y0297291D01*
X0082217Y0297814D01*
X0082501Y0298330D01*
X0082798Y0298838D01*
X0083107Y0299340D01*
X0083428Y0299834D01*
X0083761Y0300319D01*
X0084106Y0300797D01*
X0084463Y0301266D01*
X0084831Y0301725D01*
X0085210Y0302176D01*
X0085600Y0302617D01*
X0086001Y0303049D01*
X0086412Y0303471D01*
X0086834Y0303882D01*
X0087266Y0304283D01*
X0087707Y0304673D01*
X0088158Y0305052D01*
X0088617Y0305420D01*
X0089086Y0305777D01*
X0089564Y0306122D01*
X0090049Y0306455D01*
X0090543Y0306776D01*
X0091045Y0307085D01*
X0091553Y0307382D01*
X0092069Y0307666D01*
X0092592Y0307937D01*
X0093122Y0308196D01*
X0093657Y0308441D01*
X0094199Y0308673D01*
X0094746Y0308892D01*
X0095298Y0309097D01*
X0095855Y0309289D01*
X0096416Y0309467D01*
X0096982Y0309631D01*
X0097551Y0309781D01*
X0098125Y0309917D01*
X0098701Y0310039D01*
X0099280Y0310147D01*
X0099861Y0310240D01*
X0100445Y0310320D01*
X0101031Y0310384D01*
X0101617Y0310435D01*
X0102205Y0310471D01*
X0102794Y0310493D01*
X0103383Y0310500D01*
X0103972Y0310493D01*
X0104561Y0310471D01*
X0105149Y0310435D01*
X0105735Y0310384D01*
X0106321Y0310320D01*
X0106905Y0310240D01*
X0107486Y0310147D01*
X0108065Y0310039D01*
X0108641Y0309917D01*
X0109215Y0309781D01*
X0109784Y0309631D01*
X0110350Y0309467D01*
X0110911Y0309289D01*
X0111468Y0309097D01*
X0112020Y0308892D01*
X0112567Y0308673D01*
X0113109Y0308441D01*
X0113644Y0308196D01*
X0114174Y0307937D01*
X0114697Y0307666D01*
X0115213Y0307382D01*
X0115721Y0307085D01*
X0116223Y0306776D01*
X0116717Y0306455D01*
X0117202Y0306122D01*
X0117680Y0305777D01*
X0118149Y0305420D01*
X0118608Y0305052D01*
X0119059Y0304673D01*
X0119500Y0304283D01*
X0119932Y0303882D01*
X0120354Y0303471D01*
X0120765Y0303049D01*
X0121166Y0302617D01*
X0121556Y0302176D01*
X0121935Y0301725D01*
X0122303Y0301266D01*
X0122660Y0300797D01*
X0123005Y0300319D01*
X0123338Y0299834D01*
X0123659Y0299340D01*
X0123968Y0298838D01*
X0124265Y0298330D01*
X0124549Y0297814D01*
X0124820Y0297291D01*
X0125079Y0296761D01*
X0125324Y0296226D01*
X0125556Y0295684D01*
X0125775Y0295137D01*
X0125980Y0294585D01*
X0126172Y0294028D01*
X0126350Y0293467D01*
X0126514Y0292901D01*
X0126664Y0292332D01*
X0126800Y0291758D01*
X0126922Y0291182D01*
X0127030Y0290603D01*
X0127123Y0290022D01*
X0127203Y0289438D01*
X0127267Y0288852D01*
X0127318Y0288266D01*
X0127354Y0287678D01*
X0127376Y0287089D01*
X0127383Y0286500D01*
X0127376Y0285911D01*
X0127354Y0285322D01*
X0127318Y0284734D01*
X0127267Y0284148D01*
X0127203Y0283562D01*
X0127123Y0282978D01*
X0127030Y0282397D01*
X0126922Y0281818D01*
X0126800Y0281242D01*
X0126664Y0280668D01*
X0126514Y0280099D01*
X0126350Y0279533D01*
X0126172Y0278972D01*
X0125980Y0278415D01*
X0125775Y0277863D01*
X0125556Y0277316D01*
X0125324Y0276774D01*
X0125079Y0276239D01*
X0124820Y0275709D01*
X0124549Y0275186D01*
X0124265Y0274670D01*
X0123968Y0274162D01*
X0123659Y0273660D01*
X0123338Y0273166D01*
X0123005Y0272681D01*
X0122660Y0272203D01*
X0122303Y0271734D01*
X0121935Y0271275D01*
X0121556Y0270824D01*
X0121166Y0270383D01*
X0120765Y0269951D01*
X0120354Y0269529D01*
X0119932Y0269118D01*
X0119500Y0268717D01*
X0119059Y0268327D01*
X0118608Y0267948D01*
X0118149Y0267580D01*
X0117680Y0267223D01*
X0117202Y0266878D01*
X0116717Y0266545D01*
X0116223Y0266224D01*
X0115721Y0265915D01*
X0115213Y0265618D01*
X0114697Y0265334D01*
X0114174Y0265063D01*
X0113644Y0264804D01*
X0113109Y0264559D01*
X0112567Y0264327D01*
X0112020Y0264108D01*
X0111468Y0263903D01*
X0110911Y0263711D01*
X0110350Y0263533D01*
X0109784Y0263369D01*
X0109215Y0263219D01*
X0108641Y0263083D01*
X0108065Y0262961D01*
X0107486Y0262853D01*
X0106905Y0262760D01*
X0106321Y0262680D01*
X0105735Y0262616D01*
X0105149Y0262565D01*
X0104561Y0262529D01*
X0103972Y0262507D01*
X0103383Y0262500D01*
X0102794Y0262507D01*
X0102205Y0262529D01*
X0101617Y0262565D01*
X0101031Y0262616D01*
X0100445Y0262680D01*
X0099861Y0262760D01*
X0099280Y0262853D01*
X0098701Y0262961D01*
X0098125Y0263083D01*
X0097551Y0263219D01*
X0096982Y0263369D01*
X0096416Y0263533D01*
X0095855Y0263711D01*
X0095298Y0263903D01*
X0094746Y0264108D01*
X0094199Y0264327D01*
X0093657Y0264559D01*
X0093122Y0264804D01*
X0092592Y0265063D01*
X0092069Y0265334D01*
X0091553Y0265618D01*
X0091045Y0265915D01*
X0090543Y0266224D01*
X0090049Y0266545D01*
X0089564Y0266878D01*
X0089086Y0267223D01*
X0088617Y0267580D01*
X0088158Y0267948D01*
X0087707Y0268327D01*
X0087266Y0268717D01*
X0086834Y0269118D01*
X0086412Y0269529D01*
X0086001Y0269951D01*
X0085600Y0270383D01*
X0085210Y0270824D01*
X0084831Y0271275D01*
X0084463Y0271734D01*
X0084106Y0272203D01*
X0083761Y0272681D01*
X0083428Y0273166D01*
X0083107Y0273660D01*
X0082798Y0274162D01*
X0082501Y0274670D01*
X0082217Y0275186D01*
X0081946Y0275709D01*
X0081687Y0276239D01*
X0081442Y0276774D01*
X0081210Y0277316D01*
X0080991Y0277863D01*
X0080786Y0278415D01*
X0080594Y0278972D01*
X0080416Y0279533D01*
X0080252Y0280099D01*
X0080102Y0280668D01*
X0079966Y0281242D01*
X0079844Y0281818D01*
X0079736Y0282397D01*
X0079643Y0282978D01*
X0079563Y0283562D01*
X0079499Y0284148D01*
X0079448Y0284734D01*
X0079412Y0285322D01*
X0079390Y0285911D01*
X0079383Y0286500D01*
M02*
