G75*
%MOIN*%
%OFA0B0*%
%FSLAX25Y25*%
%IPPOS*%
%LPD*%
%AMOC8*
5,1,8,0,0,1.08239X$1,22.5*
%
%ADD10C,0.01000*%
%ADD11C,0.00000*%
%ADD12C,0.12900*%
%ADD13R,0.04731X0.04337*%
%ADD14OC8,0.07800*%
%ADD15R,0.04337X0.04731*%
%ADD16R,0.06306X0.05518*%
%ADD17R,0.07487X0.06699*%
%ADD18R,0.03943X0.03550*%
%ADD19R,0.05518X0.06306*%
%ADD20R,0.07487X0.05912*%
%ADD21C,0.06306*%
%ADD22C,0.00039*%
%ADD23R,0.03400X0.06400*%
%ADD24C,0.10400*%
%ADD25R,0.04337X0.22054*%
%ADD26R,0.06699X0.12211*%
%ADD27R,0.07800X0.07800*%
%ADD28C,0.07800*%
%ADD29R,0.10400X0.15400*%
D10*
X0043383Y0006500D02*
X0043383Y0321461D01*
X0358343Y0321461D01*
X0358343Y0006500D01*
X0043383Y0006500D01*
D11*
X0048944Y0018311D02*
X0048946Y0018469D01*
X0048952Y0018626D01*
X0048962Y0018784D01*
X0048976Y0018941D01*
X0048994Y0019097D01*
X0049015Y0019254D01*
X0049041Y0019409D01*
X0049071Y0019564D01*
X0049104Y0019718D01*
X0049142Y0019871D01*
X0049183Y0020024D01*
X0049228Y0020175D01*
X0049277Y0020325D01*
X0049330Y0020473D01*
X0049386Y0020621D01*
X0049447Y0020766D01*
X0049510Y0020911D01*
X0049578Y0021053D01*
X0049649Y0021194D01*
X0049723Y0021333D01*
X0049801Y0021470D01*
X0049883Y0021605D01*
X0049967Y0021738D01*
X0050056Y0021869D01*
X0050147Y0021997D01*
X0050242Y0022124D01*
X0050339Y0022247D01*
X0050440Y0022369D01*
X0050544Y0022487D01*
X0050651Y0022603D01*
X0050761Y0022716D01*
X0050873Y0022827D01*
X0050989Y0022934D01*
X0051107Y0023039D01*
X0051227Y0023141D01*
X0051350Y0023239D01*
X0051476Y0023335D01*
X0051604Y0023427D01*
X0051734Y0023516D01*
X0051866Y0023602D01*
X0052001Y0023684D01*
X0052138Y0023763D01*
X0052276Y0023838D01*
X0052416Y0023910D01*
X0052559Y0023978D01*
X0052702Y0024043D01*
X0052848Y0024104D01*
X0052995Y0024161D01*
X0053143Y0024215D01*
X0053293Y0024265D01*
X0053443Y0024311D01*
X0053595Y0024353D01*
X0053748Y0024392D01*
X0053902Y0024426D01*
X0054057Y0024457D01*
X0054212Y0024483D01*
X0054368Y0024506D01*
X0054525Y0024525D01*
X0054682Y0024540D01*
X0054839Y0024551D01*
X0054997Y0024558D01*
X0055155Y0024561D01*
X0055312Y0024560D01*
X0055470Y0024555D01*
X0055627Y0024546D01*
X0055785Y0024533D01*
X0055941Y0024516D01*
X0056098Y0024495D01*
X0056253Y0024471D01*
X0056408Y0024442D01*
X0056563Y0024409D01*
X0056716Y0024373D01*
X0056869Y0024332D01*
X0057020Y0024288D01*
X0057170Y0024240D01*
X0057319Y0024189D01*
X0057467Y0024133D01*
X0057613Y0024074D01*
X0057758Y0024011D01*
X0057901Y0023944D01*
X0058042Y0023874D01*
X0058181Y0023801D01*
X0058319Y0023724D01*
X0058455Y0023643D01*
X0058588Y0023559D01*
X0058719Y0023472D01*
X0058848Y0023381D01*
X0058975Y0023287D01*
X0059100Y0023190D01*
X0059221Y0023090D01*
X0059341Y0022987D01*
X0059457Y0022881D01*
X0059571Y0022772D01*
X0059683Y0022660D01*
X0059791Y0022546D01*
X0059896Y0022428D01*
X0059999Y0022308D01*
X0060098Y0022186D01*
X0060194Y0022061D01*
X0060287Y0021933D01*
X0060377Y0021804D01*
X0060463Y0021672D01*
X0060547Y0021538D01*
X0060626Y0021402D01*
X0060703Y0021264D01*
X0060775Y0021124D01*
X0060844Y0020982D01*
X0060910Y0020839D01*
X0060972Y0020694D01*
X0061030Y0020547D01*
X0061085Y0020399D01*
X0061136Y0020250D01*
X0061183Y0020099D01*
X0061226Y0019948D01*
X0061265Y0019795D01*
X0061301Y0019641D01*
X0061332Y0019487D01*
X0061360Y0019332D01*
X0061384Y0019176D01*
X0061404Y0019019D01*
X0061420Y0018862D01*
X0061432Y0018705D01*
X0061440Y0018548D01*
X0061444Y0018390D01*
X0061444Y0018232D01*
X0061440Y0018074D01*
X0061432Y0017917D01*
X0061420Y0017760D01*
X0061404Y0017603D01*
X0061384Y0017446D01*
X0061360Y0017290D01*
X0061332Y0017135D01*
X0061301Y0016981D01*
X0061265Y0016827D01*
X0061226Y0016674D01*
X0061183Y0016523D01*
X0061136Y0016372D01*
X0061085Y0016223D01*
X0061030Y0016075D01*
X0060972Y0015928D01*
X0060910Y0015783D01*
X0060844Y0015640D01*
X0060775Y0015498D01*
X0060703Y0015358D01*
X0060626Y0015220D01*
X0060547Y0015084D01*
X0060463Y0014950D01*
X0060377Y0014818D01*
X0060287Y0014689D01*
X0060194Y0014561D01*
X0060098Y0014436D01*
X0059999Y0014314D01*
X0059896Y0014194D01*
X0059791Y0014076D01*
X0059683Y0013962D01*
X0059571Y0013850D01*
X0059457Y0013741D01*
X0059341Y0013635D01*
X0059221Y0013532D01*
X0059100Y0013432D01*
X0058975Y0013335D01*
X0058848Y0013241D01*
X0058719Y0013150D01*
X0058588Y0013063D01*
X0058455Y0012979D01*
X0058319Y0012898D01*
X0058181Y0012821D01*
X0058042Y0012748D01*
X0057901Y0012678D01*
X0057758Y0012611D01*
X0057613Y0012548D01*
X0057467Y0012489D01*
X0057319Y0012433D01*
X0057170Y0012382D01*
X0057020Y0012334D01*
X0056869Y0012290D01*
X0056716Y0012249D01*
X0056563Y0012213D01*
X0056408Y0012180D01*
X0056253Y0012151D01*
X0056098Y0012127D01*
X0055941Y0012106D01*
X0055785Y0012089D01*
X0055627Y0012076D01*
X0055470Y0012067D01*
X0055312Y0012062D01*
X0055155Y0012061D01*
X0054997Y0012064D01*
X0054839Y0012071D01*
X0054682Y0012082D01*
X0054525Y0012097D01*
X0054368Y0012116D01*
X0054212Y0012139D01*
X0054057Y0012165D01*
X0053902Y0012196D01*
X0053748Y0012230D01*
X0053595Y0012269D01*
X0053443Y0012311D01*
X0053293Y0012357D01*
X0053143Y0012407D01*
X0052995Y0012461D01*
X0052848Y0012518D01*
X0052702Y0012579D01*
X0052559Y0012644D01*
X0052416Y0012712D01*
X0052276Y0012784D01*
X0052138Y0012859D01*
X0052001Y0012938D01*
X0051866Y0013020D01*
X0051734Y0013106D01*
X0051604Y0013195D01*
X0051476Y0013287D01*
X0051350Y0013383D01*
X0051227Y0013481D01*
X0051107Y0013583D01*
X0050989Y0013688D01*
X0050873Y0013795D01*
X0050761Y0013906D01*
X0050651Y0014019D01*
X0050544Y0014135D01*
X0050440Y0014253D01*
X0050339Y0014375D01*
X0050242Y0014498D01*
X0050147Y0014625D01*
X0050056Y0014753D01*
X0049967Y0014884D01*
X0049883Y0015017D01*
X0049801Y0015152D01*
X0049723Y0015289D01*
X0049649Y0015428D01*
X0049578Y0015569D01*
X0049510Y0015711D01*
X0049447Y0015856D01*
X0049386Y0016001D01*
X0049330Y0016149D01*
X0049277Y0016297D01*
X0049228Y0016447D01*
X0049183Y0016598D01*
X0049142Y0016751D01*
X0049104Y0016904D01*
X0049071Y0017058D01*
X0049041Y0017213D01*
X0049015Y0017368D01*
X0048994Y0017525D01*
X0048976Y0017681D01*
X0048962Y0017838D01*
X0048952Y0017996D01*
X0048946Y0018153D01*
X0048944Y0018311D01*
X0340282Y0018311D02*
X0340284Y0018469D01*
X0340290Y0018626D01*
X0340300Y0018784D01*
X0340314Y0018941D01*
X0340332Y0019097D01*
X0340353Y0019254D01*
X0340379Y0019409D01*
X0340409Y0019564D01*
X0340442Y0019718D01*
X0340480Y0019871D01*
X0340521Y0020024D01*
X0340566Y0020175D01*
X0340615Y0020325D01*
X0340668Y0020473D01*
X0340724Y0020621D01*
X0340785Y0020766D01*
X0340848Y0020911D01*
X0340916Y0021053D01*
X0340987Y0021194D01*
X0341061Y0021333D01*
X0341139Y0021470D01*
X0341221Y0021605D01*
X0341305Y0021738D01*
X0341394Y0021869D01*
X0341485Y0021997D01*
X0341580Y0022124D01*
X0341677Y0022247D01*
X0341778Y0022369D01*
X0341882Y0022487D01*
X0341989Y0022603D01*
X0342099Y0022716D01*
X0342211Y0022827D01*
X0342327Y0022934D01*
X0342445Y0023039D01*
X0342565Y0023141D01*
X0342688Y0023239D01*
X0342814Y0023335D01*
X0342942Y0023427D01*
X0343072Y0023516D01*
X0343204Y0023602D01*
X0343339Y0023684D01*
X0343476Y0023763D01*
X0343614Y0023838D01*
X0343754Y0023910D01*
X0343897Y0023978D01*
X0344040Y0024043D01*
X0344186Y0024104D01*
X0344333Y0024161D01*
X0344481Y0024215D01*
X0344631Y0024265D01*
X0344781Y0024311D01*
X0344933Y0024353D01*
X0345086Y0024392D01*
X0345240Y0024426D01*
X0345395Y0024457D01*
X0345550Y0024483D01*
X0345706Y0024506D01*
X0345863Y0024525D01*
X0346020Y0024540D01*
X0346177Y0024551D01*
X0346335Y0024558D01*
X0346493Y0024561D01*
X0346650Y0024560D01*
X0346808Y0024555D01*
X0346965Y0024546D01*
X0347123Y0024533D01*
X0347279Y0024516D01*
X0347436Y0024495D01*
X0347591Y0024471D01*
X0347746Y0024442D01*
X0347901Y0024409D01*
X0348054Y0024373D01*
X0348207Y0024332D01*
X0348358Y0024288D01*
X0348508Y0024240D01*
X0348657Y0024189D01*
X0348805Y0024133D01*
X0348951Y0024074D01*
X0349096Y0024011D01*
X0349239Y0023944D01*
X0349380Y0023874D01*
X0349519Y0023801D01*
X0349657Y0023724D01*
X0349793Y0023643D01*
X0349926Y0023559D01*
X0350057Y0023472D01*
X0350186Y0023381D01*
X0350313Y0023287D01*
X0350438Y0023190D01*
X0350559Y0023090D01*
X0350679Y0022987D01*
X0350795Y0022881D01*
X0350909Y0022772D01*
X0351021Y0022660D01*
X0351129Y0022546D01*
X0351234Y0022428D01*
X0351337Y0022308D01*
X0351436Y0022186D01*
X0351532Y0022061D01*
X0351625Y0021933D01*
X0351715Y0021804D01*
X0351801Y0021672D01*
X0351885Y0021538D01*
X0351964Y0021402D01*
X0352041Y0021264D01*
X0352113Y0021124D01*
X0352182Y0020982D01*
X0352248Y0020839D01*
X0352310Y0020694D01*
X0352368Y0020547D01*
X0352423Y0020399D01*
X0352474Y0020250D01*
X0352521Y0020099D01*
X0352564Y0019948D01*
X0352603Y0019795D01*
X0352639Y0019641D01*
X0352670Y0019487D01*
X0352698Y0019332D01*
X0352722Y0019176D01*
X0352742Y0019019D01*
X0352758Y0018862D01*
X0352770Y0018705D01*
X0352778Y0018548D01*
X0352782Y0018390D01*
X0352782Y0018232D01*
X0352778Y0018074D01*
X0352770Y0017917D01*
X0352758Y0017760D01*
X0352742Y0017603D01*
X0352722Y0017446D01*
X0352698Y0017290D01*
X0352670Y0017135D01*
X0352639Y0016981D01*
X0352603Y0016827D01*
X0352564Y0016674D01*
X0352521Y0016523D01*
X0352474Y0016372D01*
X0352423Y0016223D01*
X0352368Y0016075D01*
X0352310Y0015928D01*
X0352248Y0015783D01*
X0352182Y0015640D01*
X0352113Y0015498D01*
X0352041Y0015358D01*
X0351964Y0015220D01*
X0351885Y0015084D01*
X0351801Y0014950D01*
X0351715Y0014818D01*
X0351625Y0014689D01*
X0351532Y0014561D01*
X0351436Y0014436D01*
X0351337Y0014314D01*
X0351234Y0014194D01*
X0351129Y0014076D01*
X0351021Y0013962D01*
X0350909Y0013850D01*
X0350795Y0013741D01*
X0350679Y0013635D01*
X0350559Y0013532D01*
X0350438Y0013432D01*
X0350313Y0013335D01*
X0350186Y0013241D01*
X0350057Y0013150D01*
X0349926Y0013063D01*
X0349793Y0012979D01*
X0349657Y0012898D01*
X0349519Y0012821D01*
X0349380Y0012748D01*
X0349239Y0012678D01*
X0349096Y0012611D01*
X0348951Y0012548D01*
X0348805Y0012489D01*
X0348657Y0012433D01*
X0348508Y0012382D01*
X0348358Y0012334D01*
X0348207Y0012290D01*
X0348054Y0012249D01*
X0347901Y0012213D01*
X0347746Y0012180D01*
X0347591Y0012151D01*
X0347436Y0012127D01*
X0347279Y0012106D01*
X0347123Y0012089D01*
X0346965Y0012076D01*
X0346808Y0012067D01*
X0346650Y0012062D01*
X0346493Y0012061D01*
X0346335Y0012064D01*
X0346177Y0012071D01*
X0346020Y0012082D01*
X0345863Y0012097D01*
X0345706Y0012116D01*
X0345550Y0012139D01*
X0345395Y0012165D01*
X0345240Y0012196D01*
X0345086Y0012230D01*
X0344933Y0012269D01*
X0344781Y0012311D01*
X0344631Y0012357D01*
X0344481Y0012407D01*
X0344333Y0012461D01*
X0344186Y0012518D01*
X0344040Y0012579D01*
X0343897Y0012644D01*
X0343754Y0012712D01*
X0343614Y0012784D01*
X0343476Y0012859D01*
X0343339Y0012938D01*
X0343204Y0013020D01*
X0343072Y0013106D01*
X0342942Y0013195D01*
X0342814Y0013287D01*
X0342688Y0013383D01*
X0342565Y0013481D01*
X0342445Y0013583D01*
X0342327Y0013688D01*
X0342211Y0013795D01*
X0342099Y0013906D01*
X0341989Y0014019D01*
X0341882Y0014135D01*
X0341778Y0014253D01*
X0341677Y0014375D01*
X0341580Y0014498D01*
X0341485Y0014625D01*
X0341394Y0014753D01*
X0341305Y0014884D01*
X0341221Y0015017D01*
X0341139Y0015152D01*
X0341061Y0015289D01*
X0340987Y0015428D01*
X0340916Y0015569D01*
X0340848Y0015711D01*
X0340785Y0015856D01*
X0340724Y0016001D01*
X0340668Y0016149D01*
X0340615Y0016297D01*
X0340566Y0016447D01*
X0340521Y0016598D01*
X0340480Y0016751D01*
X0340442Y0016904D01*
X0340409Y0017058D01*
X0340379Y0017213D01*
X0340353Y0017368D01*
X0340332Y0017525D01*
X0340314Y0017681D01*
X0340300Y0017838D01*
X0340290Y0017996D01*
X0340284Y0018153D01*
X0340282Y0018311D01*
X0340282Y0309650D02*
X0340284Y0309808D01*
X0340290Y0309965D01*
X0340300Y0310123D01*
X0340314Y0310280D01*
X0340332Y0310436D01*
X0340353Y0310593D01*
X0340379Y0310748D01*
X0340409Y0310903D01*
X0340442Y0311057D01*
X0340480Y0311210D01*
X0340521Y0311363D01*
X0340566Y0311514D01*
X0340615Y0311664D01*
X0340668Y0311812D01*
X0340724Y0311960D01*
X0340785Y0312105D01*
X0340848Y0312250D01*
X0340916Y0312392D01*
X0340987Y0312533D01*
X0341061Y0312672D01*
X0341139Y0312809D01*
X0341221Y0312944D01*
X0341305Y0313077D01*
X0341394Y0313208D01*
X0341485Y0313336D01*
X0341580Y0313463D01*
X0341677Y0313586D01*
X0341778Y0313708D01*
X0341882Y0313826D01*
X0341989Y0313942D01*
X0342099Y0314055D01*
X0342211Y0314166D01*
X0342327Y0314273D01*
X0342445Y0314378D01*
X0342565Y0314480D01*
X0342688Y0314578D01*
X0342814Y0314674D01*
X0342942Y0314766D01*
X0343072Y0314855D01*
X0343204Y0314941D01*
X0343339Y0315023D01*
X0343476Y0315102D01*
X0343614Y0315177D01*
X0343754Y0315249D01*
X0343897Y0315317D01*
X0344040Y0315382D01*
X0344186Y0315443D01*
X0344333Y0315500D01*
X0344481Y0315554D01*
X0344631Y0315604D01*
X0344781Y0315650D01*
X0344933Y0315692D01*
X0345086Y0315731D01*
X0345240Y0315765D01*
X0345395Y0315796D01*
X0345550Y0315822D01*
X0345706Y0315845D01*
X0345863Y0315864D01*
X0346020Y0315879D01*
X0346177Y0315890D01*
X0346335Y0315897D01*
X0346493Y0315900D01*
X0346650Y0315899D01*
X0346808Y0315894D01*
X0346965Y0315885D01*
X0347123Y0315872D01*
X0347279Y0315855D01*
X0347436Y0315834D01*
X0347591Y0315810D01*
X0347746Y0315781D01*
X0347901Y0315748D01*
X0348054Y0315712D01*
X0348207Y0315671D01*
X0348358Y0315627D01*
X0348508Y0315579D01*
X0348657Y0315528D01*
X0348805Y0315472D01*
X0348951Y0315413D01*
X0349096Y0315350D01*
X0349239Y0315283D01*
X0349380Y0315213D01*
X0349519Y0315140D01*
X0349657Y0315063D01*
X0349793Y0314982D01*
X0349926Y0314898D01*
X0350057Y0314811D01*
X0350186Y0314720D01*
X0350313Y0314626D01*
X0350438Y0314529D01*
X0350559Y0314429D01*
X0350679Y0314326D01*
X0350795Y0314220D01*
X0350909Y0314111D01*
X0351021Y0313999D01*
X0351129Y0313885D01*
X0351234Y0313767D01*
X0351337Y0313647D01*
X0351436Y0313525D01*
X0351532Y0313400D01*
X0351625Y0313272D01*
X0351715Y0313143D01*
X0351801Y0313011D01*
X0351885Y0312877D01*
X0351964Y0312741D01*
X0352041Y0312603D01*
X0352113Y0312463D01*
X0352182Y0312321D01*
X0352248Y0312178D01*
X0352310Y0312033D01*
X0352368Y0311886D01*
X0352423Y0311738D01*
X0352474Y0311589D01*
X0352521Y0311438D01*
X0352564Y0311287D01*
X0352603Y0311134D01*
X0352639Y0310980D01*
X0352670Y0310826D01*
X0352698Y0310671D01*
X0352722Y0310515D01*
X0352742Y0310358D01*
X0352758Y0310201D01*
X0352770Y0310044D01*
X0352778Y0309887D01*
X0352782Y0309729D01*
X0352782Y0309571D01*
X0352778Y0309413D01*
X0352770Y0309256D01*
X0352758Y0309099D01*
X0352742Y0308942D01*
X0352722Y0308785D01*
X0352698Y0308629D01*
X0352670Y0308474D01*
X0352639Y0308320D01*
X0352603Y0308166D01*
X0352564Y0308013D01*
X0352521Y0307862D01*
X0352474Y0307711D01*
X0352423Y0307562D01*
X0352368Y0307414D01*
X0352310Y0307267D01*
X0352248Y0307122D01*
X0352182Y0306979D01*
X0352113Y0306837D01*
X0352041Y0306697D01*
X0351964Y0306559D01*
X0351885Y0306423D01*
X0351801Y0306289D01*
X0351715Y0306157D01*
X0351625Y0306028D01*
X0351532Y0305900D01*
X0351436Y0305775D01*
X0351337Y0305653D01*
X0351234Y0305533D01*
X0351129Y0305415D01*
X0351021Y0305301D01*
X0350909Y0305189D01*
X0350795Y0305080D01*
X0350679Y0304974D01*
X0350559Y0304871D01*
X0350438Y0304771D01*
X0350313Y0304674D01*
X0350186Y0304580D01*
X0350057Y0304489D01*
X0349926Y0304402D01*
X0349793Y0304318D01*
X0349657Y0304237D01*
X0349519Y0304160D01*
X0349380Y0304087D01*
X0349239Y0304017D01*
X0349096Y0303950D01*
X0348951Y0303887D01*
X0348805Y0303828D01*
X0348657Y0303772D01*
X0348508Y0303721D01*
X0348358Y0303673D01*
X0348207Y0303629D01*
X0348054Y0303588D01*
X0347901Y0303552D01*
X0347746Y0303519D01*
X0347591Y0303490D01*
X0347436Y0303466D01*
X0347279Y0303445D01*
X0347123Y0303428D01*
X0346965Y0303415D01*
X0346808Y0303406D01*
X0346650Y0303401D01*
X0346493Y0303400D01*
X0346335Y0303403D01*
X0346177Y0303410D01*
X0346020Y0303421D01*
X0345863Y0303436D01*
X0345706Y0303455D01*
X0345550Y0303478D01*
X0345395Y0303504D01*
X0345240Y0303535D01*
X0345086Y0303569D01*
X0344933Y0303608D01*
X0344781Y0303650D01*
X0344631Y0303696D01*
X0344481Y0303746D01*
X0344333Y0303800D01*
X0344186Y0303857D01*
X0344040Y0303918D01*
X0343897Y0303983D01*
X0343754Y0304051D01*
X0343614Y0304123D01*
X0343476Y0304198D01*
X0343339Y0304277D01*
X0343204Y0304359D01*
X0343072Y0304445D01*
X0342942Y0304534D01*
X0342814Y0304626D01*
X0342688Y0304722D01*
X0342565Y0304820D01*
X0342445Y0304922D01*
X0342327Y0305027D01*
X0342211Y0305134D01*
X0342099Y0305245D01*
X0341989Y0305358D01*
X0341882Y0305474D01*
X0341778Y0305592D01*
X0341677Y0305714D01*
X0341580Y0305837D01*
X0341485Y0305964D01*
X0341394Y0306092D01*
X0341305Y0306223D01*
X0341221Y0306356D01*
X0341139Y0306491D01*
X0341061Y0306628D01*
X0340987Y0306767D01*
X0340916Y0306908D01*
X0340848Y0307050D01*
X0340785Y0307195D01*
X0340724Y0307340D01*
X0340668Y0307488D01*
X0340615Y0307636D01*
X0340566Y0307786D01*
X0340521Y0307937D01*
X0340480Y0308090D01*
X0340442Y0308243D01*
X0340409Y0308397D01*
X0340379Y0308552D01*
X0340353Y0308707D01*
X0340332Y0308864D01*
X0340314Y0309020D01*
X0340300Y0309177D01*
X0340290Y0309335D01*
X0340284Y0309492D01*
X0340282Y0309650D01*
X0048944Y0309650D02*
X0048946Y0309808D01*
X0048952Y0309965D01*
X0048962Y0310123D01*
X0048976Y0310280D01*
X0048994Y0310436D01*
X0049015Y0310593D01*
X0049041Y0310748D01*
X0049071Y0310903D01*
X0049104Y0311057D01*
X0049142Y0311210D01*
X0049183Y0311363D01*
X0049228Y0311514D01*
X0049277Y0311664D01*
X0049330Y0311812D01*
X0049386Y0311960D01*
X0049447Y0312105D01*
X0049510Y0312250D01*
X0049578Y0312392D01*
X0049649Y0312533D01*
X0049723Y0312672D01*
X0049801Y0312809D01*
X0049883Y0312944D01*
X0049967Y0313077D01*
X0050056Y0313208D01*
X0050147Y0313336D01*
X0050242Y0313463D01*
X0050339Y0313586D01*
X0050440Y0313708D01*
X0050544Y0313826D01*
X0050651Y0313942D01*
X0050761Y0314055D01*
X0050873Y0314166D01*
X0050989Y0314273D01*
X0051107Y0314378D01*
X0051227Y0314480D01*
X0051350Y0314578D01*
X0051476Y0314674D01*
X0051604Y0314766D01*
X0051734Y0314855D01*
X0051866Y0314941D01*
X0052001Y0315023D01*
X0052138Y0315102D01*
X0052276Y0315177D01*
X0052416Y0315249D01*
X0052559Y0315317D01*
X0052702Y0315382D01*
X0052848Y0315443D01*
X0052995Y0315500D01*
X0053143Y0315554D01*
X0053293Y0315604D01*
X0053443Y0315650D01*
X0053595Y0315692D01*
X0053748Y0315731D01*
X0053902Y0315765D01*
X0054057Y0315796D01*
X0054212Y0315822D01*
X0054368Y0315845D01*
X0054525Y0315864D01*
X0054682Y0315879D01*
X0054839Y0315890D01*
X0054997Y0315897D01*
X0055155Y0315900D01*
X0055312Y0315899D01*
X0055470Y0315894D01*
X0055627Y0315885D01*
X0055785Y0315872D01*
X0055941Y0315855D01*
X0056098Y0315834D01*
X0056253Y0315810D01*
X0056408Y0315781D01*
X0056563Y0315748D01*
X0056716Y0315712D01*
X0056869Y0315671D01*
X0057020Y0315627D01*
X0057170Y0315579D01*
X0057319Y0315528D01*
X0057467Y0315472D01*
X0057613Y0315413D01*
X0057758Y0315350D01*
X0057901Y0315283D01*
X0058042Y0315213D01*
X0058181Y0315140D01*
X0058319Y0315063D01*
X0058455Y0314982D01*
X0058588Y0314898D01*
X0058719Y0314811D01*
X0058848Y0314720D01*
X0058975Y0314626D01*
X0059100Y0314529D01*
X0059221Y0314429D01*
X0059341Y0314326D01*
X0059457Y0314220D01*
X0059571Y0314111D01*
X0059683Y0313999D01*
X0059791Y0313885D01*
X0059896Y0313767D01*
X0059999Y0313647D01*
X0060098Y0313525D01*
X0060194Y0313400D01*
X0060287Y0313272D01*
X0060377Y0313143D01*
X0060463Y0313011D01*
X0060547Y0312877D01*
X0060626Y0312741D01*
X0060703Y0312603D01*
X0060775Y0312463D01*
X0060844Y0312321D01*
X0060910Y0312178D01*
X0060972Y0312033D01*
X0061030Y0311886D01*
X0061085Y0311738D01*
X0061136Y0311589D01*
X0061183Y0311438D01*
X0061226Y0311287D01*
X0061265Y0311134D01*
X0061301Y0310980D01*
X0061332Y0310826D01*
X0061360Y0310671D01*
X0061384Y0310515D01*
X0061404Y0310358D01*
X0061420Y0310201D01*
X0061432Y0310044D01*
X0061440Y0309887D01*
X0061444Y0309729D01*
X0061444Y0309571D01*
X0061440Y0309413D01*
X0061432Y0309256D01*
X0061420Y0309099D01*
X0061404Y0308942D01*
X0061384Y0308785D01*
X0061360Y0308629D01*
X0061332Y0308474D01*
X0061301Y0308320D01*
X0061265Y0308166D01*
X0061226Y0308013D01*
X0061183Y0307862D01*
X0061136Y0307711D01*
X0061085Y0307562D01*
X0061030Y0307414D01*
X0060972Y0307267D01*
X0060910Y0307122D01*
X0060844Y0306979D01*
X0060775Y0306837D01*
X0060703Y0306697D01*
X0060626Y0306559D01*
X0060547Y0306423D01*
X0060463Y0306289D01*
X0060377Y0306157D01*
X0060287Y0306028D01*
X0060194Y0305900D01*
X0060098Y0305775D01*
X0059999Y0305653D01*
X0059896Y0305533D01*
X0059791Y0305415D01*
X0059683Y0305301D01*
X0059571Y0305189D01*
X0059457Y0305080D01*
X0059341Y0304974D01*
X0059221Y0304871D01*
X0059100Y0304771D01*
X0058975Y0304674D01*
X0058848Y0304580D01*
X0058719Y0304489D01*
X0058588Y0304402D01*
X0058455Y0304318D01*
X0058319Y0304237D01*
X0058181Y0304160D01*
X0058042Y0304087D01*
X0057901Y0304017D01*
X0057758Y0303950D01*
X0057613Y0303887D01*
X0057467Y0303828D01*
X0057319Y0303772D01*
X0057170Y0303721D01*
X0057020Y0303673D01*
X0056869Y0303629D01*
X0056716Y0303588D01*
X0056563Y0303552D01*
X0056408Y0303519D01*
X0056253Y0303490D01*
X0056098Y0303466D01*
X0055941Y0303445D01*
X0055785Y0303428D01*
X0055627Y0303415D01*
X0055470Y0303406D01*
X0055312Y0303401D01*
X0055155Y0303400D01*
X0054997Y0303403D01*
X0054839Y0303410D01*
X0054682Y0303421D01*
X0054525Y0303436D01*
X0054368Y0303455D01*
X0054212Y0303478D01*
X0054057Y0303504D01*
X0053902Y0303535D01*
X0053748Y0303569D01*
X0053595Y0303608D01*
X0053443Y0303650D01*
X0053293Y0303696D01*
X0053143Y0303746D01*
X0052995Y0303800D01*
X0052848Y0303857D01*
X0052702Y0303918D01*
X0052559Y0303983D01*
X0052416Y0304051D01*
X0052276Y0304123D01*
X0052138Y0304198D01*
X0052001Y0304277D01*
X0051866Y0304359D01*
X0051734Y0304445D01*
X0051604Y0304534D01*
X0051476Y0304626D01*
X0051350Y0304722D01*
X0051227Y0304820D01*
X0051107Y0304922D01*
X0050989Y0305027D01*
X0050873Y0305134D01*
X0050761Y0305245D01*
X0050651Y0305358D01*
X0050544Y0305474D01*
X0050440Y0305592D01*
X0050339Y0305714D01*
X0050242Y0305837D01*
X0050147Y0305964D01*
X0050056Y0306092D01*
X0049967Y0306223D01*
X0049883Y0306356D01*
X0049801Y0306491D01*
X0049723Y0306628D01*
X0049649Y0306767D01*
X0049578Y0306908D01*
X0049510Y0307050D01*
X0049447Y0307195D01*
X0049386Y0307340D01*
X0049330Y0307488D01*
X0049277Y0307636D01*
X0049228Y0307786D01*
X0049183Y0307937D01*
X0049142Y0308090D01*
X0049104Y0308243D01*
X0049071Y0308397D01*
X0049041Y0308552D01*
X0049015Y0308707D01*
X0048994Y0308864D01*
X0048976Y0309020D01*
X0048962Y0309177D01*
X0048952Y0309335D01*
X0048946Y0309492D01*
X0048944Y0309650D01*
D12*
X0055194Y0309650D03*
X0346532Y0309650D03*
X0346532Y0018311D03*
X0055194Y0018311D03*
D13*
X0083383Y0050654D03*
X0083383Y0057346D03*
X0110036Y0049000D03*
X0116729Y0049000D03*
X0083383Y0083154D03*
X0083383Y0089846D03*
X0212536Y0104000D03*
X0219229Y0104000D03*
X0227536Y0104000D03*
X0234229Y0104000D03*
X0219229Y0116500D03*
X0212536Y0116500D03*
X0227536Y0119000D03*
X0234229Y0119000D03*
X0310036Y0061500D03*
X0316729Y0061500D03*
X0258383Y0213154D03*
X0258383Y0219846D03*
D14*
X0338383Y0216500D03*
X0348383Y0216500D03*
X0348383Y0206500D03*
X0338383Y0206500D03*
X0338383Y0196500D03*
X0348383Y0196500D03*
X0348383Y0186500D03*
X0338383Y0186500D03*
X0338383Y0176500D03*
X0348383Y0176500D03*
X0348383Y0166500D03*
X0338383Y0166500D03*
X0338383Y0146500D03*
X0348383Y0146500D03*
X0348383Y0136500D03*
X0338383Y0136500D03*
X0338383Y0126500D03*
X0348383Y0126500D03*
X0348383Y0116500D03*
X0338383Y0116500D03*
X0338383Y0106500D03*
X0348383Y0106500D03*
X0348383Y0096500D03*
X0338383Y0096500D03*
D15*
X0340036Y0059000D03*
X0346729Y0059000D03*
X0241729Y0199000D03*
X0235036Y0199000D03*
X0123383Y0112346D03*
X0123383Y0105654D03*
X0116729Y0064000D03*
X0110036Y0064000D03*
X0110036Y0056500D03*
X0116729Y0056500D03*
D16*
X0113383Y0105260D03*
X0113383Y0112740D03*
X0103383Y0112740D03*
X0103383Y0105260D03*
X0063383Y0265260D03*
X0063383Y0272740D03*
D17*
X0093383Y0117012D03*
X0093383Y0105988D03*
D18*
X0276552Y0191500D03*
X0284820Y0187760D03*
X0284820Y0195240D03*
D19*
X0264623Y0194000D03*
X0257142Y0194000D03*
X0334642Y0254000D03*
X0342123Y0254000D03*
D20*
X0293383Y0213193D03*
X0293383Y0199807D03*
D21*
X0316611Y0282681D02*
X0316611Y0288587D01*
X0316611Y0306146D02*
X0316611Y0312051D01*
X0259524Y0312051D02*
X0259524Y0306146D01*
X0259524Y0288587D02*
X0259524Y0282681D01*
X0215430Y0282681D02*
X0215430Y0288587D01*
X0215430Y0306146D02*
X0215430Y0312051D01*
X0158343Y0312051D02*
X0158343Y0306146D01*
X0158343Y0288587D02*
X0158343Y0282681D01*
D22*
X0154997Y0282693D02*
X0161690Y0282693D01*
X0161690Y0282655D02*
X0154997Y0282655D01*
X0154997Y0282618D02*
X0161690Y0282618D01*
X0161690Y0282580D02*
X0154997Y0282580D01*
X0154997Y0282542D02*
X0161690Y0282542D01*
X0161690Y0282504D02*
X0154997Y0282504D01*
X0154997Y0282466D02*
X0161690Y0282466D01*
X0161690Y0282428D02*
X0154997Y0282428D01*
X0154997Y0282390D02*
X0161690Y0282390D01*
X0161690Y0282352D02*
X0154997Y0282352D01*
X0154997Y0282314D02*
X0161690Y0282314D01*
X0161690Y0282277D02*
X0154997Y0282277D01*
X0154997Y0282239D02*
X0161690Y0282239D01*
X0161690Y0282201D02*
X0154997Y0282201D01*
X0154997Y0282163D02*
X0161690Y0282163D01*
X0161690Y0282125D02*
X0154997Y0282125D01*
X0154997Y0282091D02*
X0154997Y0283862D01*
X0154997Y0286894D01*
X0161690Y0286894D01*
X0161690Y0283862D01*
X0154997Y0283862D01*
X0154997Y0283830D02*
X0161690Y0283830D01*
X0161690Y0283862D02*
X0161690Y0282091D01*
X0161625Y0281438D01*
X0161435Y0280810D01*
X0161126Y0280231D01*
X0160709Y0279724D01*
X0160202Y0279308D01*
X0159624Y0278999D01*
X0158996Y0278808D01*
X0158343Y0278744D01*
X0157690Y0278808D01*
X0157063Y0278999D01*
X0156484Y0279308D01*
X0155977Y0279724D01*
X0155561Y0280231D01*
X0161125Y0280231D01*
X0161146Y0280269D02*
X0155541Y0280269D01*
X0155561Y0280231D02*
X0155251Y0280810D01*
X0155061Y0281438D01*
X0154997Y0282091D01*
X0154997Y0282087D02*
X0161689Y0282087D01*
X0161686Y0282049D02*
X0155001Y0282049D01*
X0155005Y0282011D02*
X0161682Y0282011D01*
X0161678Y0281974D02*
X0155008Y0281974D01*
X0155012Y0281936D02*
X0161674Y0281936D01*
X0161671Y0281898D02*
X0155016Y0281898D01*
X0155019Y0281860D02*
X0161667Y0281860D01*
X0161663Y0281822D02*
X0155023Y0281822D01*
X0155027Y0281784D02*
X0161659Y0281784D01*
X0161656Y0281746D02*
X0155031Y0281746D01*
X0155034Y0281708D02*
X0161652Y0281708D01*
X0161648Y0281670D02*
X0155038Y0281670D01*
X0155042Y0281633D02*
X0161645Y0281633D01*
X0161641Y0281595D02*
X0155046Y0281595D01*
X0155049Y0281557D02*
X0161637Y0281557D01*
X0161633Y0281519D02*
X0155053Y0281519D01*
X0155057Y0281481D02*
X0161630Y0281481D01*
X0161626Y0281443D02*
X0155060Y0281443D01*
X0155071Y0281405D02*
X0161616Y0281405D01*
X0161604Y0281367D02*
X0155082Y0281367D01*
X0155094Y0281330D02*
X0161593Y0281330D01*
X0161581Y0281292D02*
X0155105Y0281292D01*
X0155117Y0281254D02*
X0161570Y0281254D01*
X0161558Y0281216D02*
X0155128Y0281216D01*
X0155140Y0281178D02*
X0161547Y0281178D01*
X0161535Y0281140D02*
X0155151Y0281140D01*
X0155163Y0281102D02*
X0161524Y0281102D01*
X0161512Y0281064D02*
X0155174Y0281064D01*
X0155186Y0281026D02*
X0161501Y0281026D01*
X0161489Y0280989D02*
X0155197Y0280989D01*
X0155209Y0280951D02*
X0161478Y0280951D01*
X0161466Y0280913D02*
X0155220Y0280913D01*
X0155232Y0280875D02*
X0161455Y0280875D01*
X0161443Y0280837D02*
X0155243Y0280837D01*
X0155257Y0280799D02*
X0161429Y0280799D01*
X0161409Y0280761D02*
X0155277Y0280761D01*
X0155298Y0280723D02*
X0161389Y0280723D01*
X0161368Y0280686D02*
X0155318Y0280686D01*
X0155338Y0280648D02*
X0161348Y0280648D01*
X0161328Y0280610D02*
X0155358Y0280610D01*
X0155379Y0280572D02*
X0161308Y0280572D01*
X0161287Y0280534D02*
X0155399Y0280534D01*
X0155419Y0280496D02*
X0161267Y0280496D01*
X0161247Y0280458D02*
X0155439Y0280458D01*
X0155460Y0280420D02*
X0161227Y0280420D01*
X0161206Y0280383D02*
X0155480Y0280383D01*
X0155500Y0280345D02*
X0161186Y0280345D01*
X0161166Y0280307D02*
X0155520Y0280307D01*
X0155592Y0280193D02*
X0161094Y0280193D01*
X0161063Y0280155D02*
X0155623Y0280155D01*
X0155654Y0280117D02*
X0161032Y0280117D01*
X0161001Y0280079D02*
X0155685Y0280079D01*
X0155716Y0280042D02*
X0160970Y0280042D01*
X0160939Y0280004D02*
X0155748Y0280004D01*
X0155779Y0279966D02*
X0160908Y0279966D01*
X0160877Y0279928D02*
X0155810Y0279928D01*
X0155841Y0279890D02*
X0160846Y0279890D01*
X0160814Y0279852D02*
X0155872Y0279852D01*
X0155903Y0279814D02*
X0160783Y0279814D01*
X0160752Y0279776D02*
X0155934Y0279776D01*
X0155965Y0279739D02*
X0160721Y0279739D01*
X0160681Y0279701D02*
X0156006Y0279701D01*
X0156052Y0279663D02*
X0160635Y0279663D01*
X0160588Y0279625D02*
X0156098Y0279625D01*
X0156144Y0279587D02*
X0160542Y0279587D01*
X0160496Y0279549D02*
X0156190Y0279549D01*
X0156236Y0279511D02*
X0160450Y0279511D01*
X0160404Y0279473D02*
X0156283Y0279473D01*
X0156329Y0279435D02*
X0160358Y0279435D01*
X0160311Y0279398D02*
X0156375Y0279398D01*
X0156421Y0279360D02*
X0160265Y0279360D01*
X0160219Y0279322D02*
X0156467Y0279322D01*
X0156529Y0279284D02*
X0160157Y0279284D01*
X0160086Y0279246D02*
X0156600Y0279246D01*
X0156671Y0279208D02*
X0160015Y0279208D01*
X0159945Y0279170D02*
X0156742Y0279170D01*
X0156813Y0279132D02*
X0159874Y0279132D01*
X0159803Y0279095D02*
X0156883Y0279095D01*
X0156954Y0279057D02*
X0159732Y0279057D01*
X0159661Y0279019D02*
X0157025Y0279019D01*
X0157122Y0278981D02*
X0159565Y0278981D01*
X0159440Y0278943D02*
X0157247Y0278943D01*
X0157371Y0278905D02*
X0159315Y0278905D01*
X0159190Y0278867D02*
X0157496Y0278867D01*
X0157621Y0278829D02*
X0159065Y0278829D01*
X0158824Y0278791D02*
X0157862Y0278791D01*
X0158247Y0278754D02*
X0158440Y0278754D01*
X0161690Y0282731D02*
X0154997Y0282731D01*
X0154997Y0282769D02*
X0161690Y0282769D01*
X0161690Y0282807D02*
X0154997Y0282807D01*
X0154997Y0282845D02*
X0161690Y0282845D01*
X0161690Y0282883D02*
X0154997Y0282883D01*
X0154997Y0282921D02*
X0161690Y0282921D01*
X0161690Y0282958D02*
X0154997Y0282958D01*
X0154997Y0282996D02*
X0161690Y0282996D01*
X0161690Y0283034D02*
X0154997Y0283034D01*
X0154997Y0283072D02*
X0161690Y0283072D01*
X0161690Y0283110D02*
X0154997Y0283110D01*
X0154997Y0283148D02*
X0161690Y0283148D01*
X0161690Y0283186D02*
X0154997Y0283186D01*
X0154997Y0283224D02*
X0161690Y0283224D01*
X0161690Y0283261D02*
X0154997Y0283261D01*
X0154997Y0283299D02*
X0161690Y0283299D01*
X0161690Y0283337D02*
X0154997Y0283337D01*
X0154997Y0283375D02*
X0161690Y0283375D01*
X0161690Y0283413D02*
X0154997Y0283413D01*
X0154997Y0283451D02*
X0161690Y0283451D01*
X0161690Y0283489D02*
X0154997Y0283489D01*
X0154997Y0283527D02*
X0161690Y0283527D01*
X0161690Y0283565D02*
X0154997Y0283565D01*
X0154997Y0283602D02*
X0161690Y0283602D01*
X0161690Y0283640D02*
X0154997Y0283640D01*
X0154997Y0283678D02*
X0161690Y0283678D01*
X0161690Y0283716D02*
X0154997Y0283716D01*
X0154997Y0283754D02*
X0161690Y0283754D01*
X0161690Y0283792D02*
X0154997Y0283792D01*
X0154997Y0286894D02*
X0154997Y0289177D01*
X0155061Y0289830D01*
X0155251Y0290458D01*
X0155561Y0291036D01*
X0155977Y0291543D01*
X0156484Y0291960D01*
X0157063Y0292269D01*
X0157690Y0292459D01*
X0158343Y0292524D01*
X0158996Y0292459D01*
X0159624Y0292269D01*
X0160202Y0291960D01*
X0160709Y0291543D01*
X0161126Y0291036D01*
X0161435Y0290458D01*
X0161625Y0289830D01*
X0161690Y0289177D01*
X0161690Y0286894D01*
X0161690Y0286898D02*
X0154997Y0286898D01*
X0154997Y0286936D02*
X0161690Y0286936D01*
X0161690Y0286974D02*
X0154997Y0286974D01*
X0154997Y0287012D02*
X0161690Y0287012D01*
X0161690Y0287050D02*
X0154997Y0287050D01*
X0154997Y0287088D02*
X0161690Y0287088D01*
X0161690Y0287125D02*
X0154997Y0287125D01*
X0154997Y0287163D02*
X0161690Y0287163D01*
X0161690Y0287201D02*
X0154997Y0287201D01*
X0154997Y0287239D02*
X0161690Y0287239D01*
X0161690Y0287277D02*
X0154997Y0287277D01*
X0154997Y0287315D02*
X0161690Y0287315D01*
X0161690Y0287353D02*
X0154997Y0287353D01*
X0154997Y0287391D02*
X0161690Y0287391D01*
X0161690Y0287428D02*
X0154997Y0287428D01*
X0154997Y0287466D02*
X0161690Y0287466D01*
X0161690Y0287504D02*
X0154997Y0287504D01*
X0154997Y0287542D02*
X0161690Y0287542D01*
X0161690Y0287580D02*
X0154997Y0287580D01*
X0154997Y0287618D02*
X0161690Y0287618D01*
X0161690Y0287656D02*
X0154997Y0287656D01*
X0154997Y0287694D02*
X0161690Y0287694D01*
X0161690Y0287731D02*
X0154997Y0287731D01*
X0154997Y0287769D02*
X0161690Y0287769D01*
X0161690Y0287807D02*
X0154997Y0287807D01*
X0154997Y0287845D02*
X0161690Y0287845D01*
X0161690Y0287883D02*
X0154997Y0287883D01*
X0154997Y0287921D02*
X0161690Y0287921D01*
X0161690Y0287959D02*
X0154997Y0287959D01*
X0154997Y0287997D02*
X0161690Y0287997D01*
X0161690Y0288035D02*
X0154997Y0288035D01*
X0154997Y0288072D02*
X0161690Y0288072D01*
X0161690Y0288110D02*
X0154997Y0288110D01*
X0154997Y0288148D02*
X0161690Y0288148D01*
X0161690Y0288186D02*
X0154997Y0288186D01*
X0154997Y0288224D02*
X0161690Y0288224D01*
X0161690Y0288262D02*
X0154997Y0288262D01*
X0154997Y0288300D02*
X0161690Y0288300D01*
X0161690Y0288338D02*
X0154997Y0288338D01*
X0154997Y0288375D02*
X0161690Y0288375D01*
X0161690Y0288413D02*
X0154997Y0288413D01*
X0154997Y0288451D02*
X0161690Y0288451D01*
X0161690Y0288489D02*
X0154997Y0288489D01*
X0154997Y0288527D02*
X0161690Y0288527D01*
X0161690Y0288565D02*
X0154997Y0288565D01*
X0154997Y0288603D02*
X0161690Y0288603D01*
X0161690Y0288641D02*
X0154997Y0288641D01*
X0154997Y0288679D02*
X0161690Y0288679D01*
X0161690Y0288716D02*
X0154997Y0288716D01*
X0154997Y0288754D02*
X0161690Y0288754D01*
X0161690Y0288792D02*
X0154997Y0288792D01*
X0154997Y0288830D02*
X0161690Y0288830D01*
X0161690Y0288868D02*
X0154997Y0288868D01*
X0154997Y0288906D02*
X0161690Y0288906D01*
X0161690Y0288944D02*
X0154997Y0288944D01*
X0154997Y0288982D02*
X0161690Y0288982D01*
X0161690Y0289019D02*
X0154997Y0289019D01*
X0154997Y0289057D02*
X0161690Y0289057D01*
X0161690Y0289095D02*
X0154997Y0289095D01*
X0154997Y0289133D02*
X0161690Y0289133D01*
X0161690Y0289171D02*
X0154997Y0289171D01*
X0155000Y0289209D02*
X0161687Y0289209D01*
X0161683Y0289247D02*
X0155004Y0289247D01*
X0155007Y0289285D02*
X0161679Y0289285D01*
X0161675Y0289323D02*
X0155011Y0289323D01*
X0155015Y0289360D02*
X0161672Y0289360D01*
X0161668Y0289398D02*
X0155018Y0289398D01*
X0155022Y0289436D02*
X0161664Y0289436D01*
X0161660Y0289474D02*
X0155026Y0289474D01*
X0155030Y0289512D02*
X0161657Y0289512D01*
X0161653Y0289550D02*
X0155033Y0289550D01*
X0155037Y0289588D02*
X0161649Y0289588D01*
X0161645Y0289626D02*
X0155041Y0289626D01*
X0155045Y0289663D02*
X0161642Y0289663D01*
X0161638Y0289701D02*
X0155048Y0289701D01*
X0155052Y0289739D02*
X0161634Y0289739D01*
X0161631Y0289777D02*
X0155056Y0289777D01*
X0155060Y0289815D02*
X0161627Y0289815D01*
X0161618Y0289853D02*
X0155068Y0289853D01*
X0155079Y0289891D02*
X0161607Y0289891D01*
X0161595Y0289929D02*
X0155091Y0289929D01*
X0155102Y0289966D02*
X0161584Y0289966D01*
X0161572Y0290004D02*
X0155114Y0290004D01*
X0155125Y0290042D02*
X0161561Y0290042D01*
X0161549Y0290080D02*
X0155137Y0290080D01*
X0155148Y0290118D02*
X0161538Y0290118D01*
X0161526Y0290156D02*
X0155160Y0290156D01*
X0155171Y0290194D02*
X0161515Y0290194D01*
X0161503Y0290232D02*
X0155183Y0290232D01*
X0155194Y0290270D02*
X0161492Y0290270D01*
X0161481Y0290307D02*
X0155206Y0290307D01*
X0155217Y0290345D02*
X0161469Y0290345D01*
X0161458Y0290383D02*
X0155229Y0290383D01*
X0155240Y0290421D02*
X0161446Y0290421D01*
X0161434Y0290459D02*
X0155252Y0290459D01*
X0155272Y0290497D02*
X0161414Y0290497D01*
X0161394Y0290535D02*
X0155293Y0290535D01*
X0155313Y0290573D02*
X0161374Y0290573D01*
X0161353Y0290610D02*
X0155333Y0290610D01*
X0155353Y0290648D02*
X0161333Y0290648D01*
X0161313Y0290686D02*
X0155374Y0290686D01*
X0155394Y0290724D02*
X0161293Y0290724D01*
X0161272Y0290762D02*
X0155414Y0290762D01*
X0155434Y0290800D02*
X0161252Y0290800D01*
X0161232Y0290838D02*
X0155455Y0290838D01*
X0155475Y0290876D02*
X0161212Y0290876D01*
X0161191Y0290914D02*
X0155495Y0290914D01*
X0155515Y0290951D02*
X0161171Y0290951D01*
X0161151Y0290989D02*
X0155536Y0290989D01*
X0155556Y0291027D02*
X0161131Y0291027D01*
X0161102Y0291065D02*
X0155584Y0291065D01*
X0155615Y0291103D02*
X0161071Y0291103D01*
X0161040Y0291141D02*
X0155646Y0291141D01*
X0155678Y0291179D02*
X0161009Y0291179D01*
X0160978Y0291217D02*
X0155709Y0291217D01*
X0155740Y0291254D02*
X0160947Y0291254D01*
X0160916Y0291292D02*
X0155771Y0291292D01*
X0155802Y0291330D02*
X0160884Y0291330D01*
X0160853Y0291368D02*
X0155833Y0291368D01*
X0155864Y0291406D02*
X0160822Y0291406D01*
X0160791Y0291444D02*
X0155895Y0291444D01*
X0155926Y0291482D02*
X0160760Y0291482D01*
X0160729Y0291520D02*
X0155957Y0291520D01*
X0155994Y0291558D02*
X0160692Y0291558D01*
X0160646Y0291595D02*
X0156040Y0291595D01*
X0156086Y0291633D02*
X0160600Y0291633D01*
X0160554Y0291671D02*
X0156132Y0291671D01*
X0156179Y0291709D02*
X0160508Y0291709D01*
X0160462Y0291747D02*
X0156225Y0291747D01*
X0156271Y0291785D02*
X0160415Y0291785D01*
X0160369Y0291823D02*
X0156317Y0291823D01*
X0156363Y0291861D02*
X0160323Y0291861D01*
X0160277Y0291898D02*
X0156409Y0291898D01*
X0156456Y0291936D02*
X0160231Y0291936D01*
X0160175Y0291974D02*
X0156511Y0291974D01*
X0156582Y0292012D02*
X0160104Y0292012D01*
X0160033Y0292050D02*
X0156653Y0292050D01*
X0156724Y0292088D02*
X0159963Y0292088D01*
X0159892Y0292126D02*
X0156795Y0292126D01*
X0156866Y0292164D02*
X0159821Y0292164D01*
X0159750Y0292202D02*
X0156936Y0292202D01*
X0157007Y0292239D02*
X0159679Y0292239D01*
X0159596Y0292277D02*
X0157090Y0292277D01*
X0157215Y0292315D02*
X0159471Y0292315D01*
X0159346Y0292353D02*
X0157340Y0292353D01*
X0157465Y0292391D02*
X0159222Y0292391D01*
X0159097Y0292429D02*
X0157590Y0292429D01*
X0157765Y0292467D02*
X0158921Y0292467D01*
X0158537Y0292505D02*
X0158150Y0292505D01*
X0212083Y0289177D02*
X0212083Y0286894D01*
X0212083Y0283862D01*
X0218776Y0283862D01*
X0218776Y0286894D01*
X0212083Y0286894D01*
X0212083Y0286898D02*
X0218776Y0286898D01*
X0218776Y0286894D02*
X0218776Y0289177D01*
X0218712Y0289830D01*
X0218522Y0290458D01*
X0218212Y0291036D01*
X0217796Y0291543D01*
X0217289Y0291960D01*
X0216710Y0292269D01*
X0216083Y0292459D01*
X0215430Y0292524D01*
X0214777Y0292459D01*
X0214149Y0292269D01*
X0213571Y0291960D01*
X0213063Y0291543D01*
X0212647Y0291036D01*
X0212338Y0290458D01*
X0212148Y0289830D01*
X0212083Y0289177D01*
X0212083Y0289171D02*
X0218776Y0289171D01*
X0218776Y0289133D02*
X0212083Y0289133D01*
X0212083Y0289095D02*
X0218776Y0289095D01*
X0218776Y0289057D02*
X0212083Y0289057D01*
X0212083Y0289019D02*
X0218776Y0289019D01*
X0218776Y0288982D02*
X0212083Y0288982D01*
X0212083Y0288944D02*
X0218776Y0288944D01*
X0218776Y0288906D02*
X0212083Y0288906D01*
X0212083Y0288868D02*
X0218776Y0288868D01*
X0218776Y0288830D02*
X0212083Y0288830D01*
X0212083Y0288792D02*
X0218776Y0288792D01*
X0218776Y0288754D02*
X0212083Y0288754D01*
X0212083Y0288716D02*
X0218776Y0288716D01*
X0218776Y0288679D02*
X0212083Y0288679D01*
X0212083Y0288641D02*
X0218776Y0288641D01*
X0218776Y0288603D02*
X0212083Y0288603D01*
X0212083Y0288565D02*
X0218776Y0288565D01*
X0218776Y0288527D02*
X0212083Y0288527D01*
X0212083Y0288489D02*
X0218776Y0288489D01*
X0218776Y0288451D02*
X0212083Y0288451D01*
X0212083Y0288413D02*
X0218776Y0288413D01*
X0218776Y0288375D02*
X0212083Y0288375D01*
X0212083Y0288338D02*
X0218776Y0288338D01*
X0218776Y0288300D02*
X0212083Y0288300D01*
X0212083Y0288262D02*
X0218776Y0288262D01*
X0218776Y0288224D02*
X0212083Y0288224D01*
X0212083Y0288186D02*
X0218776Y0288186D01*
X0218776Y0288148D02*
X0212083Y0288148D01*
X0212083Y0288110D02*
X0218776Y0288110D01*
X0218776Y0288072D02*
X0212083Y0288072D01*
X0212083Y0288035D02*
X0218776Y0288035D01*
X0218776Y0287997D02*
X0212083Y0287997D01*
X0212083Y0287959D02*
X0218776Y0287959D01*
X0218776Y0287921D02*
X0212083Y0287921D01*
X0212083Y0287883D02*
X0218776Y0287883D01*
X0218776Y0287845D02*
X0212083Y0287845D01*
X0212083Y0287807D02*
X0218776Y0287807D01*
X0218776Y0287769D02*
X0212083Y0287769D01*
X0212083Y0287731D02*
X0218776Y0287731D01*
X0218776Y0287694D02*
X0212083Y0287694D01*
X0212083Y0287656D02*
X0218776Y0287656D01*
X0218776Y0287618D02*
X0212083Y0287618D01*
X0212083Y0287580D02*
X0218776Y0287580D01*
X0218776Y0287542D02*
X0212083Y0287542D01*
X0212083Y0287504D02*
X0218776Y0287504D01*
X0218776Y0287466D02*
X0212083Y0287466D01*
X0212083Y0287428D02*
X0218776Y0287428D01*
X0218776Y0287391D02*
X0212083Y0287391D01*
X0212083Y0287353D02*
X0218776Y0287353D01*
X0218776Y0287315D02*
X0212083Y0287315D01*
X0212083Y0287277D02*
X0218776Y0287277D01*
X0218776Y0287239D02*
X0212083Y0287239D01*
X0212083Y0287201D02*
X0218776Y0287201D01*
X0218776Y0287163D02*
X0212083Y0287163D01*
X0212083Y0287125D02*
X0218776Y0287125D01*
X0218776Y0287088D02*
X0212083Y0287088D01*
X0212083Y0287050D02*
X0218776Y0287050D01*
X0218776Y0287012D02*
X0212083Y0287012D01*
X0212083Y0286974D02*
X0218776Y0286974D01*
X0218776Y0286936D02*
X0212083Y0286936D01*
X0212086Y0289209D02*
X0218773Y0289209D01*
X0218769Y0289247D02*
X0212090Y0289247D01*
X0212094Y0289285D02*
X0218766Y0289285D01*
X0218762Y0289323D02*
X0212098Y0289323D01*
X0212101Y0289360D02*
X0218758Y0289360D01*
X0218754Y0289398D02*
X0212105Y0289398D01*
X0212109Y0289436D02*
X0218751Y0289436D01*
X0218747Y0289474D02*
X0212113Y0289474D01*
X0212116Y0289512D02*
X0218743Y0289512D01*
X0218740Y0289550D02*
X0212120Y0289550D01*
X0212124Y0289588D02*
X0218736Y0289588D01*
X0218732Y0289626D02*
X0212127Y0289626D01*
X0212131Y0289663D02*
X0218728Y0289663D01*
X0218725Y0289701D02*
X0212135Y0289701D01*
X0212139Y0289739D02*
X0218721Y0289739D01*
X0218717Y0289777D02*
X0212142Y0289777D01*
X0212146Y0289815D02*
X0218713Y0289815D01*
X0218705Y0289853D02*
X0212155Y0289853D01*
X0212166Y0289891D02*
X0218694Y0289891D01*
X0218682Y0289929D02*
X0212178Y0289929D01*
X0212189Y0289966D02*
X0218671Y0289966D01*
X0218659Y0290004D02*
X0212201Y0290004D01*
X0212212Y0290042D02*
X0218648Y0290042D01*
X0218636Y0290080D02*
X0212224Y0290080D01*
X0212235Y0290118D02*
X0218625Y0290118D01*
X0218613Y0290156D02*
X0212246Y0290156D01*
X0212258Y0290194D02*
X0218602Y0290194D01*
X0218590Y0290232D02*
X0212269Y0290232D01*
X0212281Y0290270D02*
X0218579Y0290270D01*
X0218567Y0290307D02*
X0212292Y0290307D01*
X0212304Y0290345D02*
X0218556Y0290345D01*
X0218544Y0290383D02*
X0212315Y0290383D01*
X0212327Y0290421D02*
X0218533Y0290421D01*
X0218521Y0290459D02*
X0212339Y0290459D01*
X0212359Y0290497D02*
X0218501Y0290497D01*
X0218480Y0290535D02*
X0212379Y0290535D01*
X0212399Y0290573D02*
X0218460Y0290573D01*
X0218440Y0290610D02*
X0212420Y0290610D01*
X0212440Y0290648D02*
X0218420Y0290648D01*
X0218399Y0290686D02*
X0212460Y0290686D01*
X0212480Y0290724D02*
X0218379Y0290724D01*
X0218359Y0290762D02*
X0212501Y0290762D01*
X0212521Y0290800D02*
X0218339Y0290800D01*
X0218318Y0290838D02*
X0212541Y0290838D01*
X0212561Y0290876D02*
X0218298Y0290876D01*
X0218278Y0290914D02*
X0212582Y0290914D01*
X0212602Y0290951D02*
X0218258Y0290951D01*
X0218237Y0290989D02*
X0212622Y0290989D01*
X0212642Y0291027D02*
X0218217Y0291027D01*
X0218189Y0291065D02*
X0212671Y0291065D01*
X0212702Y0291103D02*
X0218158Y0291103D01*
X0218127Y0291141D02*
X0212733Y0291141D01*
X0212764Y0291179D02*
X0218095Y0291179D01*
X0218064Y0291217D02*
X0212795Y0291217D01*
X0212826Y0291254D02*
X0218033Y0291254D01*
X0218002Y0291292D02*
X0212857Y0291292D01*
X0212888Y0291330D02*
X0217971Y0291330D01*
X0217940Y0291368D02*
X0212920Y0291368D01*
X0212951Y0291406D02*
X0217909Y0291406D01*
X0217878Y0291444D02*
X0212982Y0291444D01*
X0213013Y0291482D02*
X0217847Y0291482D01*
X0217816Y0291520D02*
X0213044Y0291520D01*
X0213081Y0291558D02*
X0217779Y0291558D01*
X0217733Y0291595D02*
X0213127Y0291595D01*
X0213173Y0291633D02*
X0217687Y0291633D01*
X0217641Y0291671D02*
X0213219Y0291671D01*
X0213265Y0291709D02*
X0217594Y0291709D01*
X0217548Y0291747D02*
X0213311Y0291747D01*
X0213358Y0291785D02*
X0217502Y0291785D01*
X0217456Y0291823D02*
X0213404Y0291823D01*
X0213450Y0291861D02*
X0217410Y0291861D01*
X0217364Y0291898D02*
X0213496Y0291898D01*
X0213542Y0291936D02*
X0217317Y0291936D01*
X0217262Y0291974D02*
X0213598Y0291974D01*
X0213669Y0292012D02*
X0217191Y0292012D01*
X0217120Y0292050D02*
X0213740Y0292050D01*
X0213810Y0292088D02*
X0217049Y0292088D01*
X0216978Y0292126D02*
X0213881Y0292126D01*
X0213952Y0292164D02*
X0216907Y0292164D01*
X0216836Y0292202D02*
X0214023Y0292202D01*
X0214094Y0292239D02*
X0216766Y0292239D01*
X0216683Y0292277D02*
X0214177Y0292277D01*
X0214302Y0292315D02*
X0216558Y0292315D01*
X0216433Y0292353D02*
X0214427Y0292353D01*
X0214551Y0292391D02*
X0216308Y0292391D01*
X0216183Y0292429D02*
X0214676Y0292429D01*
X0214852Y0292467D02*
X0216008Y0292467D01*
X0215623Y0292505D02*
X0215236Y0292505D01*
X0212083Y0283862D02*
X0212083Y0282091D01*
X0212148Y0281438D01*
X0212338Y0280810D01*
X0212647Y0280231D01*
X0213063Y0279724D01*
X0213571Y0279308D01*
X0214149Y0278999D01*
X0214777Y0278808D01*
X0215430Y0278744D01*
X0216083Y0278808D01*
X0216710Y0278999D01*
X0217289Y0279308D01*
X0217796Y0279724D01*
X0218212Y0280231D01*
X0212648Y0280231D01*
X0212627Y0280269D02*
X0218232Y0280269D01*
X0218212Y0280231D02*
X0218522Y0280810D01*
X0218712Y0281438D01*
X0218776Y0282091D01*
X0218776Y0283862D01*
X0218776Y0283830D02*
X0212083Y0283830D01*
X0212083Y0283792D02*
X0218776Y0283792D01*
X0218776Y0283754D02*
X0212083Y0283754D01*
X0212083Y0283716D02*
X0218776Y0283716D01*
X0218776Y0283678D02*
X0212083Y0283678D01*
X0212083Y0283640D02*
X0218776Y0283640D01*
X0218776Y0283602D02*
X0212083Y0283602D01*
X0212083Y0283565D02*
X0218776Y0283565D01*
X0218776Y0283527D02*
X0212083Y0283527D01*
X0212083Y0283489D02*
X0218776Y0283489D01*
X0218776Y0283451D02*
X0212083Y0283451D01*
X0212083Y0283413D02*
X0218776Y0283413D01*
X0218776Y0283375D02*
X0212083Y0283375D01*
X0212083Y0283337D02*
X0218776Y0283337D01*
X0218776Y0283299D02*
X0212083Y0283299D01*
X0212083Y0283261D02*
X0218776Y0283261D01*
X0218776Y0283224D02*
X0212083Y0283224D01*
X0212083Y0283186D02*
X0218776Y0283186D01*
X0218776Y0283148D02*
X0212083Y0283148D01*
X0212083Y0283110D02*
X0218776Y0283110D01*
X0218776Y0283072D02*
X0212083Y0283072D01*
X0212083Y0283034D02*
X0218776Y0283034D01*
X0218776Y0282996D02*
X0212083Y0282996D01*
X0212083Y0282958D02*
X0218776Y0282958D01*
X0218776Y0282921D02*
X0212083Y0282921D01*
X0212083Y0282883D02*
X0218776Y0282883D01*
X0218776Y0282845D02*
X0212083Y0282845D01*
X0212083Y0282807D02*
X0218776Y0282807D01*
X0218776Y0282769D02*
X0212083Y0282769D01*
X0212083Y0282731D02*
X0218776Y0282731D01*
X0218776Y0282693D02*
X0212083Y0282693D01*
X0212083Y0282655D02*
X0218776Y0282655D01*
X0218776Y0282618D02*
X0212083Y0282618D01*
X0212083Y0282580D02*
X0218776Y0282580D01*
X0218776Y0282542D02*
X0212083Y0282542D01*
X0212083Y0282504D02*
X0218776Y0282504D01*
X0218776Y0282466D02*
X0212083Y0282466D01*
X0212083Y0282428D02*
X0218776Y0282428D01*
X0218776Y0282390D02*
X0212083Y0282390D01*
X0212083Y0282352D02*
X0218776Y0282352D01*
X0218776Y0282314D02*
X0212083Y0282314D01*
X0212083Y0282277D02*
X0218776Y0282277D01*
X0218776Y0282239D02*
X0212083Y0282239D01*
X0212083Y0282201D02*
X0218776Y0282201D01*
X0218776Y0282163D02*
X0212083Y0282163D01*
X0212083Y0282125D02*
X0218776Y0282125D01*
X0218776Y0282087D02*
X0212084Y0282087D01*
X0212087Y0282049D02*
X0218772Y0282049D01*
X0218768Y0282011D02*
X0212091Y0282011D01*
X0212095Y0281974D02*
X0218765Y0281974D01*
X0218761Y0281936D02*
X0212099Y0281936D01*
X0212102Y0281898D02*
X0218757Y0281898D01*
X0218754Y0281860D02*
X0212106Y0281860D01*
X0212110Y0281822D02*
X0218750Y0281822D01*
X0218746Y0281784D02*
X0212114Y0281784D01*
X0212117Y0281746D02*
X0218742Y0281746D01*
X0218739Y0281708D02*
X0212121Y0281708D01*
X0212125Y0281670D02*
X0218735Y0281670D01*
X0218731Y0281633D02*
X0212128Y0281633D01*
X0212132Y0281595D02*
X0218727Y0281595D01*
X0218724Y0281557D02*
X0212136Y0281557D01*
X0212140Y0281519D02*
X0218720Y0281519D01*
X0218716Y0281481D02*
X0212143Y0281481D01*
X0212147Y0281443D02*
X0218712Y0281443D01*
X0218702Y0281405D02*
X0212157Y0281405D01*
X0212169Y0281367D02*
X0218691Y0281367D01*
X0218679Y0281330D02*
X0212180Y0281330D01*
X0212192Y0281292D02*
X0218668Y0281292D01*
X0218656Y0281254D02*
X0212203Y0281254D01*
X0212215Y0281216D02*
X0218645Y0281216D01*
X0218633Y0281178D02*
X0212226Y0281178D01*
X0212238Y0281140D02*
X0218622Y0281140D01*
X0218610Y0281102D02*
X0212249Y0281102D01*
X0212261Y0281064D02*
X0218599Y0281064D01*
X0218587Y0281026D02*
X0212272Y0281026D01*
X0212284Y0280989D02*
X0218576Y0280989D01*
X0218564Y0280951D02*
X0212295Y0280951D01*
X0212307Y0280913D02*
X0218553Y0280913D01*
X0218541Y0280875D02*
X0212318Y0280875D01*
X0212330Y0280837D02*
X0218530Y0280837D01*
X0218516Y0280799D02*
X0212344Y0280799D01*
X0212364Y0280761D02*
X0218496Y0280761D01*
X0218475Y0280723D02*
X0212384Y0280723D01*
X0212405Y0280686D02*
X0218455Y0280686D01*
X0218435Y0280648D02*
X0212425Y0280648D01*
X0212445Y0280610D02*
X0218415Y0280610D01*
X0218394Y0280572D02*
X0212465Y0280572D01*
X0212486Y0280534D02*
X0218374Y0280534D01*
X0218354Y0280496D02*
X0212506Y0280496D01*
X0212526Y0280458D02*
X0218334Y0280458D01*
X0218313Y0280420D02*
X0212546Y0280420D01*
X0212567Y0280383D02*
X0218293Y0280383D01*
X0218273Y0280345D02*
X0212587Y0280345D01*
X0212607Y0280307D02*
X0218253Y0280307D01*
X0218181Y0280193D02*
X0212679Y0280193D01*
X0212710Y0280155D02*
X0218150Y0280155D01*
X0218119Y0280117D02*
X0212741Y0280117D01*
X0212772Y0280079D02*
X0218088Y0280079D01*
X0218057Y0280042D02*
X0212803Y0280042D01*
X0212834Y0280004D02*
X0218025Y0280004D01*
X0217994Y0279966D02*
X0212865Y0279966D01*
X0212896Y0279928D02*
X0217963Y0279928D01*
X0217932Y0279890D02*
X0212927Y0279890D01*
X0212959Y0279852D02*
X0217901Y0279852D01*
X0217870Y0279814D02*
X0212990Y0279814D01*
X0213021Y0279776D02*
X0217839Y0279776D01*
X0217808Y0279739D02*
X0213052Y0279739D01*
X0213092Y0279701D02*
X0217767Y0279701D01*
X0217721Y0279663D02*
X0213138Y0279663D01*
X0213185Y0279625D02*
X0217675Y0279625D01*
X0217629Y0279587D02*
X0213231Y0279587D01*
X0213277Y0279549D02*
X0217583Y0279549D01*
X0217537Y0279511D02*
X0213323Y0279511D01*
X0213369Y0279473D02*
X0217490Y0279473D01*
X0217444Y0279435D02*
X0213415Y0279435D01*
X0213462Y0279398D02*
X0217398Y0279398D01*
X0217352Y0279360D02*
X0213508Y0279360D01*
X0213554Y0279322D02*
X0217306Y0279322D01*
X0217244Y0279284D02*
X0213616Y0279284D01*
X0213687Y0279246D02*
X0217173Y0279246D01*
X0217102Y0279208D02*
X0213757Y0279208D01*
X0213828Y0279170D02*
X0217031Y0279170D01*
X0216960Y0279132D02*
X0213899Y0279132D01*
X0213970Y0279095D02*
X0216889Y0279095D01*
X0216819Y0279057D02*
X0214041Y0279057D01*
X0214112Y0279019D02*
X0216748Y0279019D01*
X0216651Y0278981D02*
X0214208Y0278981D01*
X0214333Y0278943D02*
X0216526Y0278943D01*
X0216402Y0278905D02*
X0214458Y0278905D01*
X0214583Y0278867D02*
X0216277Y0278867D01*
X0216152Y0278829D02*
X0214708Y0278829D01*
X0214949Y0278791D02*
X0215911Y0278791D01*
X0215526Y0278754D02*
X0215333Y0278754D01*
X0256178Y0282091D02*
X0256242Y0281438D01*
X0256433Y0280810D01*
X0256742Y0280231D01*
X0262306Y0280231D01*
X0262307Y0280231D02*
X0261891Y0279724D01*
X0261383Y0279308D01*
X0260805Y0278999D01*
X0260177Y0278808D01*
X0259524Y0278744D01*
X0258871Y0278808D01*
X0258244Y0278999D01*
X0257665Y0279308D01*
X0257158Y0279724D01*
X0256742Y0280231D01*
X0256722Y0280269D02*
X0262327Y0280269D01*
X0262347Y0280307D02*
X0256702Y0280307D01*
X0256681Y0280345D02*
X0262367Y0280345D01*
X0262388Y0280383D02*
X0256661Y0280383D01*
X0256641Y0280420D02*
X0262408Y0280420D01*
X0262428Y0280458D02*
X0256621Y0280458D01*
X0256600Y0280496D02*
X0262448Y0280496D01*
X0262469Y0280534D02*
X0256580Y0280534D01*
X0256560Y0280572D02*
X0262489Y0280572D01*
X0262509Y0280610D02*
X0256540Y0280610D01*
X0256519Y0280648D02*
X0262529Y0280648D01*
X0262550Y0280686D02*
X0256499Y0280686D01*
X0256479Y0280723D02*
X0262570Y0280723D01*
X0262590Y0280761D02*
X0256459Y0280761D01*
X0256438Y0280799D02*
X0262610Y0280799D01*
X0262616Y0280810D02*
X0262307Y0280231D01*
X0262275Y0280193D02*
X0256773Y0280193D01*
X0256804Y0280155D02*
X0262244Y0280155D01*
X0262213Y0280117D02*
X0256835Y0280117D01*
X0256866Y0280079D02*
X0262182Y0280079D01*
X0262151Y0280042D02*
X0256898Y0280042D01*
X0256929Y0280004D02*
X0262120Y0280004D01*
X0262089Y0279966D02*
X0256960Y0279966D01*
X0256991Y0279928D02*
X0262058Y0279928D01*
X0262027Y0279890D02*
X0257022Y0279890D01*
X0257053Y0279852D02*
X0261996Y0279852D01*
X0261964Y0279814D02*
X0257084Y0279814D01*
X0257115Y0279776D02*
X0261933Y0279776D01*
X0261902Y0279739D02*
X0257146Y0279739D01*
X0257187Y0279701D02*
X0261862Y0279701D01*
X0261816Y0279663D02*
X0257233Y0279663D01*
X0257279Y0279625D02*
X0261770Y0279625D01*
X0261723Y0279587D02*
X0257325Y0279587D01*
X0257371Y0279549D02*
X0261677Y0279549D01*
X0261631Y0279511D02*
X0257418Y0279511D01*
X0257464Y0279473D02*
X0261585Y0279473D01*
X0261539Y0279435D02*
X0257510Y0279435D01*
X0257556Y0279398D02*
X0261493Y0279398D01*
X0261446Y0279360D02*
X0257602Y0279360D01*
X0257648Y0279322D02*
X0261400Y0279322D01*
X0261338Y0279284D02*
X0257710Y0279284D01*
X0257781Y0279246D02*
X0261267Y0279246D01*
X0261197Y0279208D02*
X0257852Y0279208D01*
X0257923Y0279170D02*
X0261126Y0279170D01*
X0261055Y0279132D02*
X0257994Y0279132D01*
X0258065Y0279095D02*
X0260984Y0279095D01*
X0260913Y0279057D02*
X0258135Y0279057D01*
X0258206Y0279019D02*
X0260842Y0279019D01*
X0260746Y0278981D02*
X0258303Y0278981D01*
X0258428Y0278943D02*
X0260621Y0278943D01*
X0260496Y0278905D02*
X0258553Y0278905D01*
X0258677Y0278867D02*
X0260371Y0278867D01*
X0260246Y0278829D02*
X0258802Y0278829D01*
X0259043Y0278791D02*
X0260005Y0278791D01*
X0259621Y0278754D02*
X0259428Y0278754D01*
X0256424Y0280837D02*
X0262624Y0280837D01*
X0262616Y0280810D02*
X0262806Y0281438D01*
X0262871Y0282091D01*
X0262871Y0283862D01*
X0262871Y0286894D01*
X0256178Y0286894D01*
X0256178Y0283862D01*
X0262871Y0283862D01*
X0262871Y0283830D02*
X0256178Y0283830D01*
X0256178Y0283862D02*
X0256178Y0282091D01*
X0256178Y0282087D02*
X0262870Y0282087D01*
X0262867Y0282049D02*
X0256182Y0282049D01*
X0256186Y0282011D02*
X0262863Y0282011D01*
X0262859Y0281974D02*
X0256189Y0281974D01*
X0256193Y0281936D02*
X0262855Y0281936D01*
X0262852Y0281898D02*
X0256197Y0281898D01*
X0256201Y0281860D02*
X0262848Y0281860D01*
X0262844Y0281822D02*
X0256204Y0281822D01*
X0256208Y0281784D02*
X0262841Y0281784D01*
X0262837Y0281746D02*
X0256212Y0281746D01*
X0256215Y0281708D02*
X0262833Y0281708D01*
X0262829Y0281670D02*
X0256219Y0281670D01*
X0256223Y0281633D02*
X0262826Y0281633D01*
X0262822Y0281595D02*
X0256227Y0281595D01*
X0256230Y0281557D02*
X0262818Y0281557D01*
X0262814Y0281519D02*
X0256234Y0281519D01*
X0256238Y0281481D02*
X0262811Y0281481D01*
X0262807Y0281443D02*
X0256242Y0281443D01*
X0256252Y0281405D02*
X0262797Y0281405D01*
X0262785Y0281367D02*
X0256263Y0281367D01*
X0256275Y0281330D02*
X0262774Y0281330D01*
X0262762Y0281292D02*
X0256286Y0281292D01*
X0256298Y0281254D02*
X0262751Y0281254D01*
X0262739Y0281216D02*
X0256309Y0281216D01*
X0256321Y0281178D02*
X0262728Y0281178D01*
X0262716Y0281140D02*
X0256332Y0281140D01*
X0256344Y0281102D02*
X0262705Y0281102D01*
X0262693Y0281064D02*
X0256355Y0281064D01*
X0256367Y0281026D02*
X0262682Y0281026D01*
X0262670Y0280989D02*
X0256378Y0280989D01*
X0256390Y0280951D02*
X0262659Y0280951D01*
X0262647Y0280913D02*
X0256401Y0280913D01*
X0256413Y0280875D02*
X0262636Y0280875D01*
X0262871Y0282125D02*
X0256178Y0282125D01*
X0256178Y0282163D02*
X0262871Y0282163D01*
X0262871Y0282201D02*
X0256178Y0282201D01*
X0256178Y0282239D02*
X0262871Y0282239D01*
X0262871Y0282277D02*
X0256178Y0282277D01*
X0256178Y0282314D02*
X0262871Y0282314D01*
X0262871Y0282352D02*
X0256178Y0282352D01*
X0256178Y0282390D02*
X0262871Y0282390D01*
X0262871Y0282428D02*
X0256178Y0282428D01*
X0256178Y0282466D02*
X0262871Y0282466D01*
X0262871Y0282504D02*
X0256178Y0282504D01*
X0256178Y0282542D02*
X0262871Y0282542D01*
X0262871Y0282580D02*
X0256178Y0282580D01*
X0256178Y0282618D02*
X0262871Y0282618D01*
X0262871Y0282655D02*
X0256178Y0282655D01*
X0256178Y0282693D02*
X0262871Y0282693D01*
X0262871Y0282731D02*
X0256178Y0282731D01*
X0256178Y0282769D02*
X0262871Y0282769D01*
X0262871Y0282807D02*
X0256178Y0282807D01*
X0256178Y0282845D02*
X0262871Y0282845D01*
X0262871Y0282883D02*
X0256178Y0282883D01*
X0256178Y0282921D02*
X0262871Y0282921D01*
X0262871Y0282958D02*
X0256178Y0282958D01*
X0256178Y0282996D02*
X0262871Y0282996D01*
X0262871Y0283034D02*
X0256178Y0283034D01*
X0256178Y0283072D02*
X0262871Y0283072D01*
X0262871Y0283110D02*
X0256178Y0283110D01*
X0256178Y0283148D02*
X0262871Y0283148D01*
X0262871Y0283186D02*
X0256178Y0283186D01*
X0256178Y0283224D02*
X0262871Y0283224D01*
X0262871Y0283261D02*
X0256178Y0283261D01*
X0256178Y0283299D02*
X0262871Y0283299D01*
X0262871Y0283337D02*
X0256178Y0283337D01*
X0256178Y0283375D02*
X0262871Y0283375D01*
X0262871Y0283413D02*
X0256178Y0283413D01*
X0256178Y0283451D02*
X0262871Y0283451D01*
X0262871Y0283489D02*
X0256178Y0283489D01*
X0256178Y0283527D02*
X0262871Y0283527D01*
X0262871Y0283565D02*
X0256178Y0283565D01*
X0256178Y0283602D02*
X0262871Y0283602D01*
X0262871Y0283640D02*
X0256178Y0283640D01*
X0256178Y0283678D02*
X0262871Y0283678D01*
X0262871Y0283716D02*
X0256178Y0283716D01*
X0256178Y0283754D02*
X0262871Y0283754D01*
X0262871Y0283792D02*
X0256178Y0283792D01*
X0256178Y0286894D02*
X0256178Y0289177D01*
X0256242Y0289830D01*
X0256433Y0290458D01*
X0256742Y0291036D01*
X0257158Y0291543D01*
X0257665Y0291960D01*
X0258244Y0292269D01*
X0258871Y0292459D01*
X0259524Y0292524D01*
X0260177Y0292459D01*
X0260805Y0292269D01*
X0261383Y0291960D01*
X0261891Y0291543D01*
X0262307Y0291036D01*
X0262616Y0290458D01*
X0262806Y0289830D01*
X0262871Y0289177D01*
X0262871Y0286894D01*
X0262871Y0286898D02*
X0256178Y0286898D01*
X0256178Y0286936D02*
X0262871Y0286936D01*
X0262871Y0286974D02*
X0256178Y0286974D01*
X0256178Y0287012D02*
X0262871Y0287012D01*
X0262871Y0287050D02*
X0256178Y0287050D01*
X0256178Y0287088D02*
X0262871Y0287088D01*
X0262871Y0287125D02*
X0256178Y0287125D01*
X0256178Y0287163D02*
X0262871Y0287163D01*
X0262871Y0287201D02*
X0256178Y0287201D01*
X0256178Y0287239D02*
X0262871Y0287239D01*
X0262871Y0287277D02*
X0256178Y0287277D01*
X0256178Y0287315D02*
X0262871Y0287315D01*
X0262871Y0287353D02*
X0256178Y0287353D01*
X0256178Y0287391D02*
X0262871Y0287391D01*
X0262871Y0287428D02*
X0256178Y0287428D01*
X0256178Y0287466D02*
X0262871Y0287466D01*
X0262871Y0287504D02*
X0256178Y0287504D01*
X0256178Y0287542D02*
X0262871Y0287542D01*
X0262871Y0287580D02*
X0256178Y0287580D01*
X0256178Y0287618D02*
X0262871Y0287618D01*
X0262871Y0287656D02*
X0256178Y0287656D01*
X0256178Y0287694D02*
X0262871Y0287694D01*
X0262871Y0287731D02*
X0256178Y0287731D01*
X0256178Y0287769D02*
X0262871Y0287769D01*
X0262871Y0287807D02*
X0256178Y0287807D01*
X0256178Y0287845D02*
X0262871Y0287845D01*
X0262871Y0287883D02*
X0256178Y0287883D01*
X0256178Y0287921D02*
X0262871Y0287921D01*
X0262871Y0287959D02*
X0256178Y0287959D01*
X0256178Y0287997D02*
X0262871Y0287997D01*
X0262871Y0288035D02*
X0256178Y0288035D01*
X0256178Y0288072D02*
X0262871Y0288072D01*
X0262871Y0288110D02*
X0256178Y0288110D01*
X0256178Y0288148D02*
X0262871Y0288148D01*
X0262871Y0288186D02*
X0256178Y0288186D01*
X0256178Y0288224D02*
X0262871Y0288224D01*
X0262871Y0288262D02*
X0256178Y0288262D01*
X0256178Y0288300D02*
X0262871Y0288300D01*
X0262871Y0288338D02*
X0256178Y0288338D01*
X0256178Y0288375D02*
X0262871Y0288375D01*
X0262871Y0288413D02*
X0256178Y0288413D01*
X0256178Y0288451D02*
X0262871Y0288451D01*
X0262871Y0288489D02*
X0256178Y0288489D01*
X0256178Y0288527D02*
X0262871Y0288527D01*
X0262871Y0288565D02*
X0256178Y0288565D01*
X0256178Y0288603D02*
X0262871Y0288603D01*
X0262871Y0288641D02*
X0256178Y0288641D01*
X0256178Y0288679D02*
X0262871Y0288679D01*
X0262871Y0288716D02*
X0256178Y0288716D01*
X0256178Y0288754D02*
X0262871Y0288754D01*
X0262871Y0288792D02*
X0256178Y0288792D01*
X0256178Y0288830D02*
X0262871Y0288830D01*
X0262871Y0288868D02*
X0256178Y0288868D01*
X0256178Y0288906D02*
X0262871Y0288906D01*
X0262871Y0288944D02*
X0256178Y0288944D01*
X0256178Y0288982D02*
X0262871Y0288982D01*
X0262871Y0289019D02*
X0256178Y0289019D01*
X0256178Y0289057D02*
X0262871Y0289057D01*
X0262871Y0289095D02*
X0256178Y0289095D01*
X0256178Y0289133D02*
X0262871Y0289133D01*
X0262871Y0289171D02*
X0256178Y0289171D01*
X0256181Y0289209D02*
X0262868Y0289209D01*
X0262864Y0289247D02*
X0256185Y0289247D01*
X0256188Y0289285D02*
X0262860Y0289285D01*
X0262856Y0289323D02*
X0256192Y0289323D01*
X0256196Y0289360D02*
X0262853Y0289360D01*
X0262849Y0289398D02*
X0256200Y0289398D01*
X0256203Y0289436D02*
X0262845Y0289436D01*
X0262841Y0289474D02*
X0256207Y0289474D01*
X0256211Y0289512D02*
X0262838Y0289512D01*
X0262834Y0289550D02*
X0256215Y0289550D01*
X0256218Y0289588D02*
X0262830Y0289588D01*
X0262827Y0289626D02*
X0256222Y0289626D01*
X0256226Y0289663D02*
X0262823Y0289663D01*
X0262819Y0289701D02*
X0256229Y0289701D01*
X0256233Y0289739D02*
X0262815Y0289739D01*
X0262812Y0289777D02*
X0256237Y0289777D01*
X0256241Y0289815D02*
X0262808Y0289815D01*
X0262800Y0289853D02*
X0256249Y0289853D01*
X0256261Y0289891D02*
X0262788Y0289891D01*
X0262777Y0289929D02*
X0256272Y0289929D01*
X0256284Y0289966D02*
X0262765Y0289966D01*
X0262754Y0290004D02*
X0256295Y0290004D01*
X0256306Y0290042D02*
X0262742Y0290042D01*
X0262731Y0290080D02*
X0256318Y0290080D01*
X0256329Y0290118D02*
X0262719Y0290118D01*
X0262708Y0290156D02*
X0256341Y0290156D01*
X0256352Y0290194D02*
X0262696Y0290194D01*
X0262685Y0290232D02*
X0256364Y0290232D01*
X0256375Y0290270D02*
X0262673Y0290270D01*
X0262662Y0290307D02*
X0256387Y0290307D01*
X0256398Y0290345D02*
X0262650Y0290345D01*
X0262639Y0290383D02*
X0256410Y0290383D01*
X0256421Y0290421D02*
X0262627Y0290421D01*
X0262615Y0290459D02*
X0256433Y0290459D01*
X0256453Y0290497D02*
X0262595Y0290497D01*
X0262575Y0290535D02*
X0256474Y0290535D01*
X0256494Y0290573D02*
X0262555Y0290573D01*
X0262534Y0290610D02*
X0256514Y0290610D01*
X0256534Y0290648D02*
X0262514Y0290648D01*
X0262494Y0290686D02*
X0256555Y0290686D01*
X0256575Y0290724D02*
X0262474Y0290724D01*
X0262453Y0290762D02*
X0256595Y0290762D01*
X0256615Y0290800D02*
X0262433Y0290800D01*
X0262413Y0290838D02*
X0256636Y0290838D01*
X0256656Y0290876D02*
X0262393Y0290876D01*
X0262372Y0290914D02*
X0256676Y0290914D01*
X0256696Y0290951D02*
X0262352Y0290951D01*
X0262332Y0290989D02*
X0256717Y0290989D01*
X0256737Y0291027D02*
X0262312Y0291027D01*
X0262283Y0291065D02*
X0256765Y0291065D01*
X0256796Y0291103D02*
X0262252Y0291103D01*
X0262221Y0291141D02*
X0256828Y0291141D01*
X0256859Y0291179D02*
X0262190Y0291179D01*
X0262159Y0291217D02*
X0256890Y0291217D01*
X0256921Y0291254D02*
X0262128Y0291254D01*
X0262097Y0291292D02*
X0256952Y0291292D01*
X0256983Y0291330D02*
X0262066Y0291330D01*
X0262034Y0291368D02*
X0257014Y0291368D01*
X0257045Y0291406D02*
X0262003Y0291406D01*
X0261972Y0291444D02*
X0257076Y0291444D01*
X0257107Y0291482D02*
X0261941Y0291482D01*
X0261910Y0291520D02*
X0257138Y0291520D01*
X0257175Y0291558D02*
X0261873Y0291558D01*
X0261827Y0291595D02*
X0257221Y0291595D01*
X0257267Y0291633D02*
X0261781Y0291633D01*
X0261735Y0291671D02*
X0257314Y0291671D01*
X0257360Y0291709D02*
X0261689Y0291709D01*
X0261643Y0291747D02*
X0257406Y0291747D01*
X0257452Y0291785D02*
X0261597Y0291785D01*
X0261550Y0291823D02*
X0257498Y0291823D01*
X0257544Y0291861D02*
X0261504Y0291861D01*
X0261458Y0291898D02*
X0257591Y0291898D01*
X0257637Y0291936D02*
X0261412Y0291936D01*
X0261356Y0291974D02*
X0257692Y0291974D01*
X0257763Y0292012D02*
X0261285Y0292012D01*
X0261214Y0292050D02*
X0257834Y0292050D01*
X0257905Y0292088D02*
X0261144Y0292088D01*
X0261073Y0292126D02*
X0257976Y0292126D01*
X0258047Y0292164D02*
X0261002Y0292164D01*
X0260931Y0292202D02*
X0258118Y0292202D01*
X0258188Y0292239D02*
X0260860Y0292239D01*
X0260777Y0292277D02*
X0258271Y0292277D01*
X0258396Y0292315D02*
X0260652Y0292315D01*
X0260528Y0292353D02*
X0258521Y0292353D01*
X0258646Y0292391D02*
X0260403Y0292391D01*
X0260278Y0292429D02*
X0258771Y0292429D01*
X0258946Y0292467D02*
X0260103Y0292467D01*
X0259718Y0292505D02*
X0259331Y0292505D01*
X0313264Y0289177D02*
X0313264Y0286894D01*
X0313264Y0283862D01*
X0319957Y0283862D01*
X0319957Y0286894D01*
X0313264Y0286894D01*
X0313264Y0286898D02*
X0319957Y0286898D01*
X0319957Y0286894D02*
X0319957Y0289177D01*
X0319893Y0289830D01*
X0319703Y0290458D01*
X0319393Y0291036D01*
X0318977Y0291543D01*
X0318470Y0291960D01*
X0317892Y0292269D01*
X0317264Y0292459D01*
X0316611Y0292524D01*
X0315958Y0292459D01*
X0315330Y0292269D01*
X0314752Y0291960D01*
X0314245Y0291543D01*
X0313828Y0291036D01*
X0313519Y0290458D01*
X0313329Y0289830D01*
X0313264Y0289177D01*
X0313264Y0289171D02*
X0319957Y0289171D01*
X0319957Y0289133D02*
X0313264Y0289133D01*
X0313264Y0289095D02*
X0319957Y0289095D01*
X0319957Y0289057D02*
X0313264Y0289057D01*
X0313264Y0289019D02*
X0319957Y0289019D01*
X0319957Y0288982D02*
X0313264Y0288982D01*
X0313264Y0288944D02*
X0319957Y0288944D01*
X0319957Y0288906D02*
X0313264Y0288906D01*
X0313264Y0288868D02*
X0319957Y0288868D01*
X0319957Y0288830D02*
X0313264Y0288830D01*
X0313264Y0288792D02*
X0319957Y0288792D01*
X0319957Y0288754D02*
X0313264Y0288754D01*
X0313264Y0288716D02*
X0319957Y0288716D01*
X0319957Y0288679D02*
X0313264Y0288679D01*
X0313264Y0288641D02*
X0319957Y0288641D01*
X0319957Y0288603D02*
X0313264Y0288603D01*
X0313264Y0288565D02*
X0319957Y0288565D01*
X0319957Y0288527D02*
X0313264Y0288527D01*
X0313264Y0288489D02*
X0319957Y0288489D01*
X0319957Y0288451D02*
X0313264Y0288451D01*
X0313264Y0288413D02*
X0319957Y0288413D01*
X0319957Y0288375D02*
X0313264Y0288375D01*
X0313264Y0288338D02*
X0319957Y0288338D01*
X0319957Y0288300D02*
X0313264Y0288300D01*
X0313264Y0288262D02*
X0319957Y0288262D01*
X0319957Y0288224D02*
X0313264Y0288224D01*
X0313264Y0288186D02*
X0319957Y0288186D01*
X0319957Y0288148D02*
X0313264Y0288148D01*
X0313264Y0288110D02*
X0319957Y0288110D01*
X0319957Y0288072D02*
X0313264Y0288072D01*
X0313264Y0288035D02*
X0319957Y0288035D01*
X0319957Y0287997D02*
X0313264Y0287997D01*
X0313264Y0287959D02*
X0319957Y0287959D01*
X0319957Y0287921D02*
X0313264Y0287921D01*
X0313264Y0287883D02*
X0319957Y0287883D01*
X0319957Y0287845D02*
X0313264Y0287845D01*
X0313264Y0287807D02*
X0319957Y0287807D01*
X0319957Y0287769D02*
X0313264Y0287769D01*
X0313264Y0287731D02*
X0319957Y0287731D01*
X0319957Y0287694D02*
X0313264Y0287694D01*
X0313264Y0287656D02*
X0319957Y0287656D01*
X0319957Y0287618D02*
X0313264Y0287618D01*
X0313264Y0287580D02*
X0319957Y0287580D01*
X0319957Y0287542D02*
X0313264Y0287542D01*
X0313264Y0287504D02*
X0319957Y0287504D01*
X0319957Y0287466D02*
X0313264Y0287466D01*
X0313264Y0287428D02*
X0319957Y0287428D01*
X0319957Y0287391D02*
X0313264Y0287391D01*
X0313264Y0287353D02*
X0319957Y0287353D01*
X0319957Y0287315D02*
X0313264Y0287315D01*
X0313264Y0287277D02*
X0319957Y0287277D01*
X0319957Y0287239D02*
X0313264Y0287239D01*
X0313264Y0287201D02*
X0319957Y0287201D01*
X0319957Y0287163D02*
X0313264Y0287163D01*
X0313264Y0287125D02*
X0319957Y0287125D01*
X0319957Y0287088D02*
X0313264Y0287088D01*
X0313264Y0287050D02*
X0319957Y0287050D01*
X0319957Y0287012D02*
X0313264Y0287012D01*
X0313264Y0286974D02*
X0319957Y0286974D01*
X0319957Y0286936D02*
X0313264Y0286936D01*
X0313268Y0289209D02*
X0319954Y0289209D01*
X0319950Y0289247D02*
X0313271Y0289247D01*
X0313275Y0289285D02*
X0319947Y0289285D01*
X0319943Y0289323D02*
X0313279Y0289323D01*
X0313282Y0289360D02*
X0319939Y0289360D01*
X0319936Y0289398D02*
X0313286Y0289398D01*
X0313290Y0289436D02*
X0319932Y0289436D01*
X0319928Y0289474D02*
X0313294Y0289474D01*
X0313297Y0289512D02*
X0319924Y0289512D01*
X0319921Y0289550D02*
X0313301Y0289550D01*
X0313305Y0289588D02*
X0319917Y0289588D01*
X0319913Y0289626D02*
X0313309Y0289626D01*
X0313312Y0289663D02*
X0319909Y0289663D01*
X0319906Y0289701D02*
X0313316Y0289701D01*
X0313320Y0289739D02*
X0319902Y0289739D01*
X0319898Y0289777D02*
X0313324Y0289777D01*
X0313327Y0289815D02*
X0319895Y0289815D01*
X0319886Y0289853D02*
X0313336Y0289853D01*
X0313347Y0289891D02*
X0319875Y0289891D01*
X0319863Y0289929D02*
X0313359Y0289929D01*
X0313370Y0289966D02*
X0319852Y0289966D01*
X0319840Y0290004D02*
X0313382Y0290004D01*
X0313393Y0290042D02*
X0319829Y0290042D01*
X0319817Y0290080D02*
X0313405Y0290080D01*
X0313416Y0290118D02*
X0319806Y0290118D01*
X0319794Y0290156D02*
X0313428Y0290156D01*
X0313439Y0290194D02*
X0319783Y0290194D01*
X0319771Y0290232D02*
X0313451Y0290232D01*
X0313462Y0290270D02*
X0319760Y0290270D01*
X0319748Y0290307D02*
X0313474Y0290307D01*
X0313485Y0290345D02*
X0319737Y0290345D01*
X0319725Y0290383D02*
X0313497Y0290383D01*
X0313508Y0290421D02*
X0319714Y0290421D01*
X0319702Y0290459D02*
X0313520Y0290459D01*
X0313540Y0290497D02*
X0319682Y0290497D01*
X0319662Y0290535D02*
X0313560Y0290535D01*
X0313581Y0290573D02*
X0319641Y0290573D01*
X0319621Y0290610D02*
X0313601Y0290610D01*
X0313621Y0290648D02*
X0319601Y0290648D01*
X0319581Y0290686D02*
X0313641Y0290686D01*
X0313662Y0290724D02*
X0319560Y0290724D01*
X0319540Y0290762D02*
X0313682Y0290762D01*
X0313702Y0290800D02*
X0319520Y0290800D01*
X0319500Y0290838D02*
X0313722Y0290838D01*
X0313743Y0290876D02*
X0319479Y0290876D01*
X0319459Y0290914D02*
X0313763Y0290914D01*
X0313783Y0290951D02*
X0319439Y0290951D01*
X0319419Y0290989D02*
X0313803Y0290989D01*
X0313824Y0291027D02*
X0319398Y0291027D01*
X0319370Y0291065D02*
X0313852Y0291065D01*
X0313883Y0291103D02*
X0319339Y0291103D01*
X0319308Y0291141D02*
X0313914Y0291141D01*
X0313945Y0291179D02*
X0319277Y0291179D01*
X0319245Y0291217D02*
X0313976Y0291217D01*
X0314007Y0291254D02*
X0319214Y0291254D01*
X0319183Y0291292D02*
X0314038Y0291292D01*
X0314070Y0291330D02*
X0319152Y0291330D01*
X0319121Y0291368D02*
X0314101Y0291368D01*
X0314132Y0291406D02*
X0319090Y0291406D01*
X0319059Y0291444D02*
X0314163Y0291444D01*
X0314194Y0291482D02*
X0319028Y0291482D01*
X0318997Y0291520D02*
X0314225Y0291520D01*
X0314262Y0291558D02*
X0318960Y0291558D01*
X0318914Y0291595D02*
X0314308Y0291595D01*
X0314354Y0291633D02*
X0318868Y0291633D01*
X0318822Y0291671D02*
X0314400Y0291671D01*
X0314446Y0291709D02*
X0318775Y0291709D01*
X0318729Y0291747D02*
X0314493Y0291747D01*
X0314539Y0291785D02*
X0318683Y0291785D01*
X0318637Y0291823D02*
X0314585Y0291823D01*
X0314631Y0291861D02*
X0318591Y0291861D01*
X0318545Y0291898D02*
X0314677Y0291898D01*
X0314723Y0291936D02*
X0318498Y0291936D01*
X0318443Y0291974D02*
X0314779Y0291974D01*
X0314850Y0292012D02*
X0318372Y0292012D01*
X0318301Y0292050D02*
X0314921Y0292050D01*
X0314992Y0292088D02*
X0318230Y0292088D01*
X0318159Y0292126D02*
X0315062Y0292126D01*
X0315133Y0292164D02*
X0318088Y0292164D01*
X0318018Y0292202D02*
X0315204Y0292202D01*
X0315275Y0292239D02*
X0317947Y0292239D01*
X0317864Y0292277D02*
X0315358Y0292277D01*
X0315483Y0292315D02*
X0317739Y0292315D01*
X0317614Y0292353D02*
X0315608Y0292353D01*
X0315732Y0292391D02*
X0317489Y0292391D01*
X0317364Y0292429D02*
X0315857Y0292429D01*
X0316033Y0292467D02*
X0317189Y0292467D01*
X0316805Y0292505D02*
X0316417Y0292505D01*
X0313264Y0283862D02*
X0313264Y0282091D01*
X0313329Y0281438D01*
X0313519Y0280810D01*
X0313828Y0280231D01*
X0314245Y0279724D01*
X0314752Y0279308D01*
X0315330Y0278999D01*
X0315958Y0278808D01*
X0316611Y0278744D01*
X0317264Y0278808D01*
X0317892Y0278999D01*
X0318470Y0279308D01*
X0318977Y0279724D01*
X0319393Y0280231D01*
X0313829Y0280231D01*
X0313808Y0280269D02*
X0319413Y0280269D01*
X0319393Y0280231D02*
X0319703Y0280810D01*
X0319893Y0281438D01*
X0319957Y0282091D01*
X0319957Y0283862D01*
X0319957Y0283830D02*
X0313264Y0283830D01*
X0313264Y0283792D02*
X0319957Y0283792D01*
X0319957Y0283754D02*
X0313264Y0283754D01*
X0313264Y0283716D02*
X0319957Y0283716D01*
X0319957Y0283678D02*
X0313264Y0283678D01*
X0313264Y0283640D02*
X0319957Y0283640D01*
X0319957Y0283602D02*
X0313264Y0283602D01*
X0313264Y0283565D02*
X0319957Y0283565D01*
X0319957Y0283527D02*
X0313264Y0283527D01*
X0313264Y0283489D02*
X0319957Y0283489D01*
X0319957Y0283451D02*
X0313264Y0283451D01*
X0313264Y0283413D02*
X0319957Y0283413D01*
X0319957Y0283375D02*
X0313264Y0283375D01*
X0313264Y0283337D02*
X0319957Y0283337D01*
X0319957Y0283299D02*
X0313264Y0283299D01*
X0313264Y0283261D02*
X0319957Y0283261D01*
X0319957Y0283224D02*
X0313264Y0283224D01*
X0313264Y0283186D02*
X0319957Y0283186D01*
X0319957Y0283148D02*
X0313264Y0283148D01*
X0313264Y0283110D02*
X0319957Y0283110D01*
X0319957Y0283072D02*
X0313264Y0283072D01*
X0313264Y0283034D02*
X0319957Y0283034D01*
X0319957Y0282996D02*
X0313264Y0282996D01*
X0313264Y0282958D02*
X0319957Y0282958D01*
X0319957Y0282921D02*
X0313264Y0282921D01*
X0313264Y0282883D02*
X0319957Y0282883D01*
X0319957Y0282845D02*
X0313264Y0282845D01*
X0313264Y0282807D02*
X0319957Y0282807D01*
X0319957Y0282769D02*
X0313264Y0282769D01*
X0313264Y0282731D02*
X0319957Y0282731D01*
X0319957Y0282693D02*
X0313264Y0282693D01*
X0313264Y0282655D02*
X0319957Y0282655D01*
X0319957Y0282618D02*
X0313264Y0282618D01*
X0313264Y0282580D02*
X0319957Y0282580D01*
X0319957Y0282542D02*
X0313264Y0282542D01*
X0313264Y0282504D02*
X0319957Y0282504D01*
X0319957Y0282466D02*
X0313264Y0282466D01*
X0313264Y0282428D02*
X0319957Y0282428D01*
X0319957Y0282390D02*
X0313264Y0282390D01*
X0313264Y0282352D02*
X0319957Y0282352D01*
X0319957Y0282314D02*
X0313264Y0282314D01*
X0313264Y0282277D02*
X0319957Y0282277D01*
X0319957Y0282239D02*
X0313264Y0282239D01*
X0313264Y0282201D02*
X0319957Y0282201D01*
X0319957Y0282163D02*
X0313264Y0282163D01*
X0313264Y0282125D02*
X0319957Y0282125D01*
X0319957Y0282087D02*
X0313265Y0282087D01*
X0313269Y0282049D02*
X0319953Y0282049D01*
X0319950Y0282011D02*
X0313272Y0282011D01*
X0313276Y0281974D02*
X0319946Y0281974D01*
X0319942Y0281936D02*
X0313280Y0281936D01*
X0313283Y0281898D02*
X0319938Y0281898D01*
X0319935Y0281860D02*
X0313287Y0281860D01*
X0313291Y0281822D02*
X0319931Y0281822D01*
X0319927Y0281784D02*
X0313295Y0281784D01*
X0313298Y0281746D02*
X0319923Y0281746D01*
X0319920Y0281708D02*
X0313302Y0281708D01*
X0313306Y0281670D02*
X0319916Y0281670D01*
X0319912Y0281633D02*
X0313310Y0281633D01*
X0313313Y0281595D02*
X0319909Y0281595D01*
X0319905Y0281557D02*
X0313317Y0281557D01*
X0313321Y0281519D02*
X0319901Y0281519D01*
X0319897Y0281481D02*
X0313324Y0281481D01*
X0313328Y0281443D02*
X0319894Y0281443D01*
X0319883Y0281405D02*
X0313339Y0281405D01*
X0313350Y0281367D02*
X0319872Y0281367D01*
X0319860Y0281330D02*
X0313362Y0281330D01*
X0313373Y0281292D02*
X0319849Y0281292D01*
X0319837Y0281254D02*
X0313385Y0281254D01*
X0313396Y0281216D02*
X0319826Y0281216D01*
X0319814Y0281178D02*
X0313408Y0281178D01*
X0313419Y0281140D02*
X0319803Y0281140D01*
X0319791Y0281102D02*
X0313430Y0281102D01*
X0313442Y0281064D02*
X0319780Y0281064D01*
X0319768Y0281026D02*
X0313453Y0281026D01*
X0313465Y0280989D02*
X0319757Y0280989D01*
X0319745Y0280951D02*
X0313476Y0280951D01*
X0313488Y0280913D02*
X0319734Y0280913D01*
X0319722Y0280875D02*
X0313499Y0280875D01*
X0313511Y0280837D02*
X0319711Y0280837D01*
X0319697Y0280799D02*
X0313525Y0280799D01*
X0313545Y0280761D02*
X0319677Y0280761D01*
X0319656Y0280723D02*
X0313565Y0280723D01*
X0313586Y0280686D02*
X0319636Y0280686D01*
X0319616Y0280648D02*
X0313606Y0280648D01*
X0313626Y0280610D02*
X0319596Y0280610D01*
X0319575Y0280572D02*
X0313646Y0280572D01*
X0313667Y0280534D02*
X0319555Y0280534D01*
X0319535Y0280496D02*
X0313687Y0280496D01*
X0313707Y0280458D02*
X0319515Y0280458D01*
X0319494Y0280420D02*
X0313727Y0280420D01*
X0313748Y0280383D02*
X0319474Y0280383D01*
X0319454Y0280345D02*
X0313768Y0280345D01*
X0313788Y0280307D02*
X0319434Y0280307D01*
X0319362Y0280193D02*
X0313860Y0280193D01*
X0313891Y0280155D02*
X0319331Y0280155D01*
X0319300Y0280117D02*
X0313922Y0280117D01*
X0313953Y0280079D02*
X0319269Y0280079D01*
X0319238Y0280042D02*
X0313984Y0280042D01*
X0314015Y0280004D02*
X0319207Y0280004D01*
X0319175Y0279966D02*
X0314046Y0279966D01*
X0314077Y0279928D02*
X0319144Y0279928D01*
X0319113Y0279890D02*
X0314109Y0279890D01*
X0314140Y0279852D02*
X0319082Y0279852D01*
X0319051Y0279814D02*
X0314171Y0279814D01*
X0314202Y0279776D02*
X0319020Y0279776D01*
X0318989Y0279739D02*
X0314233Y0279739D01*
X0314273Y0279701D02*
X0318948Y0279701D01*
X0318902Y0279663D02*
X0314320Y0279663D01*
X0314366Y0279625D02*
X0318856Y0279625D01*
X0318810Y0279587D02*
X0314412Y0279587D01*
X0314458Y0279549D02*
X0318764Y0279549D01*
X0318718Y0279511D02*
X0314504Y0279511D01*
X0314550Y0279473D02*
X0318671Y0279473D01*
X0318625Y0279435D02*
X0314596Y0279435D01*
X0314643Y0279398D02*
X0318579Y0279398D01*
X0318533Y0279360D02*
X0314689Y0279360D01*
X0314735Y0279322D02*
X0318487Y0279322D01*
X0318425Y0279284D02*
X0314797Y0279284D01*
X0314868Y0279246D02*
X0318354Y0279246D01*
X0318283Y0279208D02*
X0314939Y0279208D01*
X0315009Y0279170D02*
X0318212Y0279170D01*
X0318141Y0279132D02*
X0315080Y0279132D01*
X0315151Y0279095D02*
X0318071Y0279095D01*
X0318000Y0279057D02*
X0315222Y0279057D01*
X0315293Y0279019D02*
X0317929Y0279019D01*
X0317832Y0278981D02*
X0315389Y0278981D01*
X0315514Y0278943D02*
X0317708Y0278943D01*
X0317583Y0278905D02*
X0315639Y0278905D01*
X0315764Y0278867D02*
X0317458Y0278867D01*
X0317333Y0278829D02*
X0315889Y0278829D01*
X0316130Y0278791D02*
X0317092Y0278791D01*
X0316707Y0278754D02*
X0316514Y0278754D01*
D23*
X0330883Y0270500D03*
X0345883Y0270500D03*
X0345883Y0292500D03*
X0330883Y0292500D03*
D24*
X0113225Y0286500D03*
X0093540Y0286500D03*
D25*
X0300509Y0037681D03*
X0308383Y0037681D03*
X0316257Y0037681D03*
D26*
X0325705Y0028823D03*
X0291060Y0028823D03*
D27*
X0088383Y0136500D03*
D28*
X0088383Y0146500D03*
X0088383Y0156500D03*
X0088383Y0166500D03*
X0088383Y0176500D03*
X0088383Y0186500D03*
X0088383Y0196500D03*
X0088383Y0206500D03*
D29*
X0192379Y0046500D03*
X0274386Y0046500D03*
M02*
