G75*
%MOIN*%
%OFA0B0*%
%FSLAX25Y25*%
%IPPOS*%
%LPD*%
%AMOC8*
5,1,8,0,0,1.08239X$1,22.5*
%
%ADD10C,0.01000*%
%ADD11C,0.00000*%
%ADD12C,0.00600*%
%ADD13C,0.00800*%
%ADD14R,0.06200X0.02400*%
%ADD15C,0.03000*%
%ADD16C,0.00400*%
%ADD17C,0.00787*%
%ADD18C,0.00866*%
D10*
X0043383Y0006500D02*
X0043383Y0321461D01*
X0358343Y0321461D01*
X0358343Y0006500D01*
X0043383Y0006500D01*
X0069583Y0011600D02*
X0069583Y0039600D01*
X0069583Y0011600D02*
X0133383Y0011600D01*
X0133383Y0039600D01*
X0133383Y0102500D02*
X0133383Y0106500D01*
X0125483Y0106500D01*
X0078283Y0106500D02*
X0069583Y0106500D01*
X0069583Y0102500D01*
X0235789Y0188261D02*
X0235789Y0218261D01*
X0245789Y0218261D01*
X0275789Y0218261D02*
X0285789Y0218261D01*
X0295789Y0218261D02*
X0295789Y0188261D01*
X0285789Y0188261D02*
X0275789Y0188261D01*
X0245789Y0188261D02*
X0235789Y0188261D01*
X0288883Y0074000D02*
X0292883Y0074000D01*
D11*
X0340282Y0018311D02*
X0340284Y0018469D01*
X0340290Y0018626D01*
X0340300Y0018784D01*
X0340314Y0018941D01*
X0340332Y0019097D01*
X0340353Y0019254D01*
X0340379Y0019409D01*
X0340409Y0019564D01*
X0340442Y0019718D01*
X0340480Y0019871D01*
X0340521Y0020024D01*
X0340566Y0020175D01*
X0340615Y0020325D01*
X0340668Y0020473D01*
X0340724Y0020621D01*
X0340785Y0020766D01*
X0340848Y0020911D01*
X0340916Y0021053D01*
X0340987Y0021194D01*
X0341061Y0021333D01*
X0341139Y0021470D01*
X0341221Y0021605D01*
X0341305Y0021738D01*
X0341394Y0021869D01*
X0341485Y0021997D01*
X0341580Y0022124D01*
X0341677Y0022247D01*
X0341778Y0022369D01*
X0341882Y0022487D01*
X0341989Y0022603D01*
X0342099Y0022716D01*
X0342211Y0022827D01*
X0342327Y0022934D01*
X0342445Y0023039D01*
X0342565Y0023141D01*
X0342688Y0023239D01*
X0342814Y0023335D01*
X0342942Y0023427D01*
X0343072Y0023516D01*
X0343204Y0023602D01*
X0343339Y0023684D01*
X0343476Y0023763D01*
X0343614Y0023838D01*
X0343754Y0023910D01*
X0343897Y0023978D01*
X0344040Y0024043D01*
X0344186Y0024104D01*
X0344333Y0024161D01*
X0344481Y0024215D01*
X0344631Y0024265D01*
X0344781Y0024311D01*
X0344933Y0024353D01*
X0345086Y0024392D01*
X0345240Y0024426D01*
X0345395Y0024457D01*
X0345550Y0024483D01*
X0345706Y0024506D01*
X0345863Y0024525D01*
X0346020Y0024540D01*
X0346177Y0024551D01*
X0346335Y0024558D01*
X0346493Y0024561D01*
X0346650Y0024560D01*
X0346808Y0024555D01*
X0346965Y0024546D01*
X0347123Y0024533D01*
X0347279Y0024516D01*
X0347436Y0024495D01*
X0347591Y0024471D01*
X0347746Y0024442D01*
X0347901Y0024409D01*
X0348054Y0024373D01*
X0348207Y0024332D01*
X0348358Y0024288D01*
X0348508Y0024240D01*
X0348657Y0024189D01*
X0348805Y0024133D01*
X0348951Y0024074D01*
X0349096Y0024011D01*
X0349239Y0023944D01*
X0349380Y0023874D01*
X0349519Y0023801D01*
X0349657Y0023724D01*
X0349793Y0023643D01*
X0349926Y0023559D01*
X0350057Y0023472D01*
X0350186Y0023381D01*
X0350313Y0023287D01*
X0350438Y0023190D01*
X0350559Y0023090D01*
X0350679Y0022987D01*
X0350795Y0022881D01*
X0350909Y0022772D01*
X0351021Y0022660D01*
X0351129Y0022546D01*
X0351234Y0022428D01*
X0351337Y0022308D01*
X0351436Y0022186D01*
X0351532Y0022061D01*
X0351625Y0021933D01*
X0351715Y0021804D01*
X0351801Y0021672D01*
X0351885Y0021538D01*
X0351964Y0021402D01*
X0352041Y0021264D01*
X0352113Y0021124D01*
X0352182Y0020982D01*
X0352248Y0020839D01*
X0352310Y0020694D01*
X0352368Y0020547D01*
X0352423Y0020399D01*
X0352474Y0020250D01*
X0352521Y0020099D01*
X0352564Y0019948D01*
X0352603Y0019795D01*
X0352639Y0019641D01*
X0352670Y0019487D01*
X0352698Y0019332D01*
X0352722Y0019176D01*
X0352742Y0019019D01*
X0352758Y0018862D01*
X0352770Y0018705D01*
X0352778Y0018548D01*
X0352782Y0018390D01*
X0352782Y0018232D01*
X0352778Y0018074D01*
X0352770Y0017917D01*
X0352758Y0017760D01*
X0352742Y0017603D01*
X0352722Y0017446D01*
X0352698Y0017290D01*
X0352670Y0017135D01*
X0352639Y0016981D01*
X0352603Y0016827D01*
X0352564Y0016674D01*
X0352521Y0016523D01*
X0352474Y0016372D01*
X0352423Y0016223D01*
X0352368Y0016075D01*
X0352310Y0015928D01*
X0352248Y0015783D01*
X0352182Y0015640D01*
X0352113Y0015498D01*
X0352041Y0015358D01*
X0351964Y0015220D01*
X0351885Y0015084D01*
X0351801Y0014950D01*
X0351715Y0014818D01*
X0351625Y0014689D01*
X0351532Y0014561D01*
X0351436Y0014436D01*
X0351337Y0014314D01*
X0351234Y0014194D01*
X0351129Y0014076D01*
X0351021Y0013962D01*
X0350909Y0013850D01*
X0350795Y0013741D01*
X0350679Y0013635D01*
X0350559Y0013532D01*
X0350438Y0013432D01*
X0350313Y0013335D01*
X0350186Y0013241D01*
X0350057Y0013150D01*
X0349926Y0013063D01*
X0349793Y0012979D01*
X0349657Y0012898D01*
X0349519Y0012821D01*
X0349380Y0012748D01*
X0349239Y0012678D01*
X0349096Y0012611D01*
X0348951Y0012548D01*
X0348805Y0012489D01*
X0348657Y0012433D01*
X0348508Y0012382D01*
X0348358Y0012334D01*
X0348207Y0012290D01*
X0348054Y0012249D01*
X0347901Y0012213D01*
X0347746Y0012180D01*
X0347591Y0012151D01*
X0347436Y0012127D01*
X0347279Y0012106D01*
X0347123Y0012089D01*
X0346965Y0012076D01*
X0346808Y0012067D01*
X0346650Y0012062D01*
X0346493Y0012061D01*
X0346335Y0012064D01*
X0346177Y0012071D01*
X0346020Y0012082D01*
X0345863Y0012097D01*
X0345706Y0012116D01*
X0345550Y0012139D01*
X0345395Y0012165D01*
X0345240Y0012196D01*
X0345086Y0012230D01*
X0344933Y0012269D01*
X0344781Y0012311D01*
X0344631Y0012357D01*
X0344481Y0012407D01*
X0344333Y0012461D01*
X0344186Y0012518D01*
X0344040Y0012579D01*
X0343897Y0012644D01*
X0343754Y0012712D01*
X0343614Y0012784D01*
X0343476Y0012859D01*
X0343339Y0012938D01*
X0343204Y0013020D01*
X0343072Y0013106D01*
X0342942Y0013195D01*
X0342814Y0013287D01*
X0342688Y0013383D01*
X0342565Y0013481D01*
X0342445Y0013583D01*
X0342327Y0013688D01*
X0342211Y0013795D01*
X0342099Y0013906D01*
X0341989Y0014019D01*
X0341882Y0014135D01*
X0341778Y0014253D01*
X0341677Y0014375D01*
X0341580Y0014498D01*
X0341485Y0014625D01*
X0341394Y0014753D01*
X0341305Y0014884D01*
X0341221Y0015017D01*
X0341139Y0015152D01*
X0341061Y0015289D01*
X0340987Y0015428D01*
X0340916Y0015569D01*
X0340848Y0015711D01*
X0340785Y0015856D01*
X0340724Y0016001D01*
X0340668Y0016149D01*
X0340615Y0016297D01*
X0340566Y0016447D01*
X0340521Y0016598D01*
X0340480Y0016751D01*
X0340442Y0016904D01*
X0340409Y0017058D01*
X0340379Y0017213D01*
X0340353Y0017368D01*
X0340332Y0017525D01*
X0340314Y0017681D01*
X0340300Y0017838D01*
X0340290Y0017996D01*
X0340284Y0018153D01*
X0340282Y0018311D01*
X0048944Y0018311D02*
X0048946Y0018469D01*
X0048952Y0018626D01*
X0048962Y0018784D01*
X0048976Y0018941D01*
X0048994Y0019097D01*
X0049015Y0019254D01*
X0049041Y0019409D01*
X0049071Y0019564D01*
X0049104Y0019718D01*
X0049142Y0019871D01*
X0049183Y0020024D01*
X0049228Y0020175D01*
X0049277Y0020325D01*
X0049330Y0020473D01*
X0049386Y0020621D01*
X0049447Y0020766D01*
X0049510Y0020911D01*
X0049578Y0021053D01*
X0049649Y0021194D01*
X0049723Y0021333D01*
X0049801Y0021470D01*
X0049883Y0021605D01*
X0049967Y0021738D01*
X0050056Y0021869D01*
X0050147Y0021997D01*
X0050242Y0022124D01*
X0050339Y0022247D01*
X0050440Y0022369D01*
X0050544Y0022487D01*
X0050651Y0022603D01*
X0050761Y0022716D01*
X0050873Y0022827D01*
X0050989Y0022934D01*
X0051107Y0023039D01*
X0051227Y0023141D01*
X0051350Y0023239D01*
X0051476Y0023335D01*
X0051604Y0023427D01*
X0051734Y0023516D01*
X0051866Y0023602D01*
X0052001Y0023684D01*
X0052138Y0023763D01*
X0052276Y0023838D01*
X0052416Y0023910D01*
X0052559Y0023978D01*
X0052702Y0024043D01*
X0052848Y0024104D01*
X0052995Y0024161D01*
X0053143Y0024215D01*
X0053293Y0024265D01*
X0053443Y0024311D01*
X0053595Y0024353D01*
X0053748Y0024392D01*
X0053902Y0024426D01*
X0054057Y0024457D01*
X0054212Y0024483D01*
X0054368Y0024506D01*
X0054525Y0024525D01*
X0054682Y0024540D01*
X0054839Y0024551D01*
X0054997Y0024558D01*
X0055155Y0024561D01*
X0055312Y0024560D01*
X0055470Y0024555D01*
X0055627Y0024546D01*
X0055785Y0024533D01*
X0055941Y0024516D01*
X0056098Y0024495D01*
X0056253Y0024471D01*
X0056408Y0024442D01*
X0056563Y0024409D01*
X0056716Y0024373D01*
X0056869Y0024332D01*
X0057020Y0024288D01*
X0057170Y0024240D01*
X0057319Y0024189D01*
X0057467Y0024133D01*
X0057613Y0024074D01*
X0057758Y0024011D01*
X0057901Y0023944D01*
X0058042Y0023874D01*
X0058181Y0023801D01*
X0058319Y0023724D01*
X0058455Y0023643D01*
X0058588Y0023559D01*
X0058719Y0023472D01*
X0058848Y0023381D01*
X0058975Y0023287D01*
X0059100Y0023190D01*
X0059221Y0023090D01*
X0059341Y0022987D01*
X0059457Y0022881D01*
X0059571Y0022772D01*
X0059683Y0022660D01*
X0059791Y0022546D01*
X0059896Y0022428D01*
X0059999Y0022308D01*
X0060098Y0022186D01*
X0060194Y0022061D01*
X0060287Y0021933D01*
X0060377Y0021804D01*
X0060463Y0021672D01*
X0060547Y0021538D01*
X0060626Y0021402D01*
X0060703Y0021264D01*
X0060775Y0021124D01*
X0060844Y0020982D01*
X0060910Y0020839D01*
X0060972Y0020694D01*
X0061030Y0020547D01*
X0061085Y0020399D01*
X0061136Y0020250D01*
X0061183Y0020099D01*
X0061226Y0019948D01*
X0061265Y0019795D01*
X0061301Y0019641D01*
X0061332Y0019487D01*
X0061360Y0019332D01*
X0061384Y0019176D01*
X0061404Y0019019D01*
X0061420Y0018862D01*
X0061432Y0018705D01*
X0061440Y0018548D01*
X0061444Y0018390D01*
X0061444Y0018232D01*
X0061440Y0018074D01*
X0061432Y0017917D01*
X0061420Y0017760D01*
X0061404Y0017603D01*
X0061384Y0017446D01*
X0061360Y0017290D01*
X0061332Y0017135D01*
X0061301Y0016981D01*
X0061265Y0016827D01*
X0061226Y0016674D01*
X0061183Y0016523D01*
X0061136Y0016372D01*
X0061085Y0016223D01*
X0061030Y0016075D01*
X0060972Y0015928D01*
X0060910Y0015783D01*
X0060844Y0015640D01*
X0060775Y0015498D01*
X0060703Y0015358D01*
X0060626Y0015220D01*
X0060547Y0015084D01*
X0060463Y0014950D01*
X0060377Y0014818D01*
X0060287Y0014689D01*
X0060194Y0014561D01*
X0060098Y0014436D01*
X0059999Y0014314D01*
X0059896Y0014194D01*
X0059791Y0014076D01*
X0059683Y0013962D01*
X0059571Y0013850D01*
X0059457Y0013741D01*
X0059341Y0013635D01*
X0059221Y0013532D01*
X0059100Y0013432D01*
X0058975Y0013335D01*
X0058848Y0013241D01*
X0058719Y0013150D01*
X0058588Y0013063D01*
X0058455Y0012979D01*
X0058319Y0012898D01*
X0058181Y0012821D01*
X0058042Y0012748D01*
X0057901Y0012678D01*
X0057758Y0012611D01*
X0057613Y0012548D01*
X0057467Y0012489D01*
X0057319Y0012433D01*
X0057170Y0012382D01*
X0057020Y0012334D01*
X0056869Y0012290D01*
X0056716Y0012249D01*
X0056563Y0012213D01*
X0056408Y0012180D01*
X0056253Y0012151D01*
X0056098Y0012127D01*
X0055941Y0012106D01*
X0055785Y0012089D01*
X0055627Y0012076D01*
X0055470Y0012067D01*
X0055312Y0012062D01*
X0055155Y0012061D01*
X0054997Y0012064D01*
X0054839Y0012071D01*
X0054682Y0012082D01*
X0054525Y0012097D01*
X0054368Y0012116D01*
X0054212Y0012139D01*
X0054057Y0012165D01*
X0053902Y0012196D01*
X0053748Y0012230D01*
X0053595Y0012269D01*
X0053443Y0012311D01*
X0053293Y0012357D01*
X0053143Y0012407D01*
X0052995Y0012461D01*
X0052848Y0012518D01*
X0052702Y0012579D01*
X0052559Y0012644D01*
X0052416Y0012712D01*
X0052276Y0012784D01*
X0052138Y0012859D01*
X0052001Y0012938D01*
X0051866Y0013020D01*
X0051734Y0013106D01*
X0051604Y0013195D01*
X0051476Y0013287D01*
X0051350Y0013383D01*
X0051227Y0013481D01*
X0051107Y0013583D01*
X0050989Y0013688D01*
X0050873Y0013795D01*
X0050761Y0013906D01*
X0050651Y0014019D01*
X0050544Y0014135D01*
X0050440Y0014253D01*
X0050339Y0014375D01*
X0050242Y0014498D01*
X0050147Y0014625D01*
X0050056Y0014753D01*
X0049967Y0014884D01*
X0049883Y0015017D01*
X0049801Y0015152D01*
X0049723Y0015289D01*
X0049649Y0015428D01*
X0049578Y0015569D01*
X0049510Y0015711D01*
X0049447Y0015856D01*
X0049386Y0016001D01*
X0049330Y0016149D01*
X0049277Y0016297D01*
X0049228Y0016447D01*
X0049183Y0016598D01*
X0049142Y0016751D01*
X0049104Y0016904D01*
X0049071Y0017058D01*
X0049041Y0017213D01*
X0049015Y0017368D01*
X0048994Y0017525D01*
X0048976Y0017681D01*
X0048962Y0017838D01*
X0048952Y0017996D01*
X0048946Y0018153D01*
X0048944Y0018311D01*
X0048944Y0309650D02*
X0048946Y0309808D01*
X0048952Y0309965D01*
X0048962Y0310123D01*
X0048976Y0310280D01*
X0048994Y0310436D01*
X0049015Y0310593D01*
X0049041Y0310748D01*
X0049071Y0310903D01*
X0049104Y0311057D01*
X0049142Y0311210D01*
X0049183Y0311363D01*
X0049228Y0311514D01*
X0049277Y0311664D01*
X0049330Y0311812D01*
X0049386Y0311960D01*
X0049447Y0312105D01*
X0049510Y0312250D01*
X0049578Y0312392D01*
X0049649Y0312533D01*
X0049723Y0312672D01*
X0049801Y0312809D01*
X0049883Y0312944D01*
X0049967Y0313077D01*
X0050056Y0313208D01*
X0050147Y0313336D01*
X0050242Y0313463D01*
X0050339Y0313586D01*
X0050440Y0313708D01*
X0050544Y0313826D01*
X0050651Y0313942D01*
X0050761Y0314055D01*
X0050873Y0314166D01*
X0050989Y0314273D01*
X0051107Y0314378D01*
X0051227Y0314480D01*
X0051350Y0314578D01*
X0051476Y0314674D01*
X0051604Y0314766D01*
X0051734Y0314855D01*
X0051866Y0314941D01*
X0052001Y0315023D01*
X0052138Y0315102D01*
X0052276Y0315177D01*
X0052416Y0315249D01*
X0052559Y0315317D01*
X0052702Y0315382D01*
X0052848Y0315443D01*
X0052995Y0315500D01*
X0053143Y0315554D01*
X0053293Y0315604D01*
X0053443Y0315650D01*
X0053595Y0315692D01*
X0053748Y0315731D01*
X0053902Y0315765D01*
X0054057Y0315796D01*
X0054212Y0315822D01*
X0054368Y0315845D01*
X0054525Y0315864D01*
X0054682Y0315879D01*
X0054839Y0315890D01*
X0054997Y0315897D01*
X0055155Y0315900D01*
X0055312Y0315899D01*
X0055470Y0315894D01*
X0055627Y0315885D01*
X0055785Y0315872D01*
X0055941Y0315855D01*
X0056098Y0315834D01*
X0056253Y0315810D01*
X0056408Y0315781D01*
X0056563Y0315748D01*
X0056716Y0315712D01*
X0056869Y0315671D01*
X0057020Y0315627D01*
X0057170Y0315579D01*
X0057319Y0315528D01*
X0057467Y0315472D01*
X0057613Y0315413D01*
X0057758Y0315350D01*
X0057901Y0315283D01*
X0058042Y0315213D01*
X0058181Y0315140D01*
X0058319Y0315063D01*
X0058455Y0314982D01*
X0058588Y0314898D01*
X0058719Y0314811D01*
X0058848Y0314720D01*
X0058975Y0314626D01*
X0059100Y0314529D01*
X0059221Y0314429D01*
X0059341Y0314326D01*
X0059457Y0314220D01*
X0059571Y0314111D01*
X0059683Y0313999D01*
X0059791Y0313885D01*
X0059896Y0313767D01*
X0059999Y0313647D01*
X0060098Y0313525D01*
X0060194Y0313400D01*
X0060287Y0313272D01*
X0060377Y0313143D01*
X0060463Y0313011D01*
X0060547Y0312877D01*
X0060626Y0312741D01*
X0060703Y0312603D01*
X0060775Y0312463D01*
X0060844Y0312321D01*
X0060910Y0312178D01*
X0060972Y0312033D01*
X0061030Y0311886D01*
X0061085Y0311738D01*
X0061136Y0311589D01*
X0061183Y0311438D01*
X0061226Y0311287D01*
X0061265Y0311134D01*
X0061301Y0310980D01*
X0061332Y0310826D01*
X0061360Y0310671D01*
X0061384Y0310515D01*
X0061404Y0310358D01*
X0061420Y0310201D01*
X0061432Y0310044D01*
X0061440Y0309887D01*
X0061444Y0309729D01*
X0061444Y0309571D01*
X0061440Y0309413D01*
X0061432Y0309256D01*
X0061420Y0309099D01*
X0061404Y0308942D01*
X0061384Y0308785D01*
X0061360Y0308629D01*
X0061332Y0308474D01*
X0061301Y0308320D01*
X0061265Y0308166D01*
X0061226Y0308013D01*
X0061183Y0307862D01*
X0061136Y0307711D01*
X0061085Y0307562D01*
X0061030Y0307414D01*
X0060972Y0307267D01*
X0060910Y0307122D01*
X0060844Y0306979D01*
X0060775Y0306837D01*
X0060703Y0306697D01*
X0060626Y0306559D01*
X0060547Y0306423D01*
X0060463Y0306289D01*
X0060377Y0306157D01*
X0060287Y0306028D01*
X0060194Y0305900D01*
X0060098Y0305775D01*
X0059999Y0305653D01*
X0059896Y0305533D01*
X0059791Y0305415D01*
X0059683Y0305301D01*
X0059571Y0305189D01*
X0059457Y0305080D01*
X0059341Y0304974D01*
X0059221Y0304871D01*
X0059100Y0304771D01*
X0058975Y0304674D01*
X0058848Y0304580D01*
X0058719Y0304489D01*
X0058588Y0304402D01*
X0058455Y0304318D01*
X0058319Y0304237D01*
X0058181Y0304160D01*
X0058042Y0304087D01*
X0057901Y0304017D01*
X0057758Y0303950D01*
X0057613Y0303887D01*
X0057467Y0303828D01*
X0057319Y0303772D01*
X0057170Y0303721D01*
X0057020Y0303673D01*
X0056869Y0303629D01*
X0056716Y0303588D01*
X0056563Y0303552D01*
X0056408Y0303519D01*
X0056253Y0303490D01*
X0056098Y0303466D01*
X0055941Y0303445D01*
X0055785Y0303428D01*
X0055627Y0303415D01*
X0055470Y0303406D01*
X0055312Y0303401D01*
X0055155Y0303400D01*
X0054997Y0303403D01*
X0054839Y0303410D01*
X0054682Y0303421D01*
X0054525Y0303436D01*
X0054368Y0303455D01*
X0054212Y0303478D01*
X0054057Y0303504D01*
X0053902Y0303535D01*
X0053748Y0303569D01*
X0053595Y0303608D01*
X0053443Y0303650D01*
X0053293Y0303696D01*
X0053143Y0303746D01*
X0052995Y0303800D01*
X0052848Y0303857D01*
X0052702Y0303918D01*
X0052559Y0303983D01*
X0052416Y0304051D01*
X0052276Y0304123D01*
X0052138Y0304198D01*
X0052001Y0304277D01*
X0051866Y0304359D01*
X0051734Y0304445D01*
X0051604Y0304534D01*
X0051476Y0304626D01*
X0051350Y0304722D01*
X0051227Y0304820D01*
X0051107Y0304922D01*
X0050989Y0305027D01*
X0050873Y0305134D01*
X0050761Y0305245D01*
X0050651Y0305358D01*
X0050544Y0305474D01*
X0050440Y0305592D01*
X0050339Y0305714D01*
X0050242Y0305837D01*
X0050147Y0305964D01*
X0050056Y0306092D01*
X0049967Y0306223D01*
X0049883Y0306356D01*
X0049801Y0306491D01*
X0049723Y0306628D01*
X0049649Y0306767D01*
X0049578Y0306908D01*
X0049510Y0307050D01*
X0049447Y0307195D01*
X0049386Y0307340D01*
X0049330Y0307488D01*
X0049277Y0307636D01*
X0049228Y0307786D01*
X0049183Y0307937D01*
X0049142Y0308090D01*
X0049104Y0308243D01*
X0049071Y0308397D01*
X0049041Y0308552D01*
X0049015Y0308707D01*
X0048994Y0308864D01*
X0048976Y0309020D01*
X0048962Y0309177D01*
X0048952Y0309335D01*
X0048946Y0309492D01*
X0048944Y0309650D01*
X0340282Y0309650D02*
X0340284Y0309808D01*
X0340290Y0309965D01*
X0340300Y0310123D01*
X0340314Y0310280D01*
X0340332Y0310436D01*
X0340353Y0310593D01*
X0340379Y0310748D01*
X0340409Y0310903D01*
X0340442Y0311057D01*
X0340480Y0311210D01*
X0340521Y0311363D01*
X0340566Y0311514D01*
X0340615Y0311664D01*
X0340668Y0311812D01*
X0340724Y0311960D01*
X0340785Y0312105D01*
X0340848Y0312250D01*
X0340916Y0312392D01*
X0340987Y0312533D01*
X0341061Y0312672D01*
X0341139Y0312809D01*
X0341221Y0312944D01*
X0341305Y0313077D01*
X0341394Y0313208D01*
X0341485Y0313336D01*
X0341580Y0313463D01*
X0341677Y0313586D01*
X0341778Y0313708D01*
X0341882Y0313826D01*
X0341989Y0313942D01*
X0342099Y0314055D01*
X0342211Y0314166D01*
X0342327Y0314273D01*
X0342445Y0314378D01*
X0342565Y0314480D01*
X0342688Y0314578D01*
X0342814Y0314674D01*
X0342942Y0314766D01*
X0343072Y0314855D01*
X0343204Y0314941D01*
X0343339Y0315023D01*
X0343476Y0315102D01*
X0343614Y0315177D01*
X0343754Y0315249D01*
X0343897Y0315317D01*
X0344040Y0315382D01*
X0344186Y0315443D01*
X0344333Y0315500D01*
X0344481Y0315554D01*
X0344631Y0315604D01*
X0344781Y0315650D01*
X0344933Y0315692D01*
X0345086Y0315731D01*
X0345240Y0315765D01*
X0345395Y0315796D01*
X0345550Y0315822D01*
X0345706Y0315845D01*
X0345863Y0315864D01*
X0346020Y0315879D01*
X0346177Y0315890D01*
X0346335Y0315897D01*
X0346493Y0315900D01*
X0346650Y0315899D01*
X0346808Y0315894D01*
X0346965Y0315885D01*
X0347123Y0315872D01*
X0347279Y0315855D01*
X0347436Y0315834D01*
X0347591Y0315810D01*
X0347746Y0315781D01*
X0347901Y0315748D01*
X0348054Y0315712D01*
X0348207Y0315671D01*
X0348358Y0315627D01*
X0348508Y0315579D01*
X0348657Y0315528D01*
X0348805Y0315472D01*
X0348951Y0315413D01*
X0349096Y0315350D01*
X0349239Y0315283D01*
X0349380Y0315213D01*
X0349519Y0315140D01*
X0349657Y0315063D01*
X0349793Y0314982D01*
X0349926Y0314898D01*
X0350057Y0314811D01*
X0350186Y0314720D01*
X0350313Y0314626D01*
X0350438Y0314529D01*
X0350559Y0314429D01*
X0350679Y0314326D01*
X0350795Y0314220D01*
X0350909Y0314111D01*
X0351021Y0313999D01*
X0351129Y0313885D01*
X0351234Y0313767D01*
X0351337Y0313647D01*
X0351436Y0313525D01*
X0351532Y0313400D01*
X0351625Y0313272D01*
X0351715Y0313143D01*
X0351801Y0313011D01*
X0351885Y0312877D01*
X0351964Y0312741D01*
X0352041Y0312603D01*
X0352113Y0312463D01*
X0352182Y0312321D01*
X0352248Y0312178D01*
X0352310Y0312033D01*
X0352368Y0311886D01*
X0352423Y0311738D01*
X0352474Y0311589D01*
X0352521Y0311438D01*
X0352564Y0311287D01*
X0352603Y0311134D01*
X0352639Y0310980D01*
X0352670Y0310826D01*
X0352698Y0310671D01*
X0352722Y0310515D01*
X0352742Y0310358D01*
X0352758Y0310201D01*
X0352770Y0310044D01*
X0352778Y0309887D01*
X0352782Y0309729D01*
X0352782Y0309571D01*
X0352778Y0309413D01*
X0352770Y0309256D01*
X0352758Y0309099D01*
X0352742Y0308942D01*
X0352722Y0308785D01*
X0352698Y0308629D01*
X0352670Y0308474D01*
X0352639Y0308320D01*
X0352603Y0308166D01*
X0352564Y0308013D01*
X0352521Y0307862D01*
X0352474Y0307711D01*
X0352423Y0307562D01*
X0352368Y0307414D01*
X0352310Y0307267D01*
X0352248Y0307122D01*
X0352182Y0306979D01*
X0352113Y0306837D01*
X0352041Y0306697D01*
X0351964Y0306559D01*
X0351885Y0306423D01*
X0351801Y0306289D01*
X0351715Y0306157D01*
X0351625Y0306028D01*
X0351532Y0305900D01*
X0351436Y0305775D01*
X0351337Y0305653D01*
X0351234Y0305533D01*
X0351129Y0305415D01*
X0351021Y0305301D01*
X0350909Y0305189D01*
X0350795Y0305080D01*
X0350679Y0304974D01*
X0350559Y0304871D01*
X0350438Y0304771D01*
X0350313Y0304674D01*
X0350186Y0304580D01*
X0350057Y0304489D01*
X0349926Y0304402D01*
X0349793Y0304318D01*
X0349657Y0304237D01*
X0349519Y0304160D01*
X0349380Y0304087D01*
X0349239Y0304017D01*
X0349096Y0303950D01*
X0348951Y0303887D01*
X0348805Y0303828D01*
X0348657Y0303772D01*
X0348508Y0303721D01*
X0348358Y0303673D01*
X0348207Y0303629D01*
X0348054Y0303588D01*
X0347901Y0303552D01*
X0347746Y0303519D01*
X0347591Y0303490D01*
X0347436Y0303466D01*
X0347279Y0303445D01*
X0347123Y0303428D01*
X0346965Y0303415D01*
X0346808Y0303406D01*
X0346650Y0303401D01*
X0346493Y0303400D01*
X0346335Y0303403D01*
X0346177Y0303410D01*
X0346020Y0303421D01*
X0345863Y0303436D01*
X0345706Y0303455D01*
X0345550Y0303478D01*
X0345395Y0303504D01*
X0345240Y0303535D01*
X0345086Y0303569D01*
X0344933Y0303608D01*
X0344781Y0303650D01*
X0344631Y0303696D01*
X0344481Y0303746D01*
X0344333Y0303800D01*
X0344186Y0303857D01*
X0344040Y0303918D01*
X0343897Y0303983D01*
X0343754Y0304051D01*
X0343614Y0304123D01*
X0343476Y0304198D01*
X0343339Y0304277D01*
X0343204Y0304359D01*
X0343072Y0304445D01*
X0342942Y0304534D01*
X0342814Y0304626D01*
X0342688Y0304722D01*
X0342565Y0304820D01*
X0342445Y0304922D01*
X0342327Y0305027D01*
X0342211Y0305134D01*
X0342099Y0305245D01*
X0341989Y0305358D01*
X0341882Y0305474D01*
X0341778Y0305592D01*
X0341677Y0305714D01*
X0341580Y0305837D01*
X0341485Y0305964D01*
X0341394Y0306092D01*
X0341305Y0306223D01*
X0341221Y0306356D01*
X0341139Y0306491D01*
X0341061Y0306628D01*
X0340987Y0306767D01*
X0340916Y0306908D01*
X0340848Y0307050D01*
X0340785Y0307195D01*
X0340724Y0307340D01*
X0340668Y0307488D01*
X0340615Y0307636D01*
X0340566Y0307786D01*
X0340521Y0307937D01*
X0340480Y0308090D01*
X0340442Y0308243D01*
X0340409Y0308397D01*
X0340379Y0308552D01*
X0340353Y0308707D01*
X0340332Y0308864D01*
X0340314Y0309020D01*
X0340300Y0309177D01*
X0340290Y0309335D01*
X0340284Y0309492D01*
X0340282Y0309650D01*
D12*
X0327083Y0312501D02*
X0327083Y0313068D01*
X0326515Y0313635D01*
X0323680Y0313635D01*
X0323680Y0313068D02*
X0323680Y0314202D01*
X0323680Y0315617D02*
X0325381Y0315617D01*
X0324814Y0316751D01*
X0324814Y0317318D01*
X0325381Y0317885D01*
X0326515Y0317885D01*
X0327083Y0317318D01*
X0327083Y0316184D01*
X0326515Y0315617D01*
X0323680Y0315617D02*
X0323680Y0317885D01*
X0327083Y0312501D02*
X0326515Y0311934D01*
X0224583Y0312501D02*
X0224583Y0313068D01*
X0224015Y0313635D01*
X0221180Y0313635D01*
X0221180Y0313068D02*
X0221180Y0314202D01*
X0221747Y0315617D02*
X0221180Y0316184D01*
X0221180Y0317318D01*
X0221747Y0317885D01*
X0222314Y0317885D01*
X0222881Y0317318D01*
X0223448Y0317885D01*
X0224015Y0317885D01*
X0224583Y0317318D01*
X0224583Y0316184D01*
X0224015Y0315617D01*
X0222881Y0316751D02*
X0222881Y0317318D01*
X0224583Y0312501D02*
X0224015Y0311934D01*
X0127083Y0312501D02*
X0127083Y0313068D01*
X0126515Y0313635D01*
X0123680Y0313635D01*
X0123680Y0313068D02*
X0123680Y0314202D01*
X0124247Y0315617D02*
X0123680Y0316184D01*
X0123680Y0317318D01*
X0124247Y0317885D01*
X0124814Y0317885D01*
X0127083Y0315617D01*
X0127083Y0317885D01*
X0127083Y0312501D02*
X0126515Y0311934D01*
X0121265Y0300185D02*
X0121833Y0299618D01*
X0121833Y0298483D01*
X0121265Y0297916D01*
X0121833Y0296502D02*
X0121833Y0294233D01*
X0121833Y0295367D02*
X0118430Y0295367D01*
X0119564Y0294233D01*
X0118997Y0292819D02*
X0118430Y0292251D01*
X0118430Y0291117D01*
X0118997Y0290550D01*
X0121265Y0290550D01*
X0121833Y0291117D01*
X0121833Y0292251D01*
X0121265Y0292819D01*
X0118997Y0297916D02*
X0118430Y0298483D01*
X0118430Y0299618D01*
X0118997Y0300185D01*
X0119564Y0300185D01*
X0120131Y0299618D01*
X0120698Y0300185D01*
X0121265Y0300185D01*
X0120131Y0299618D02*
X0120131Y0299051D01*
X0086833Y0294618D02*
X0086833Y0293483D01*
X0086265Y0292916D01*
X0086833Y0291502D02*
X0086833Y0289233D01*
X0086833Y0290367D02*
X0083430Y0290367D01*
X0084564Y0289233D01*
X0085131Y0287819D02*
X0085698Y0287251D01*
X0085698Y0285550D01*
X0085698Y0286684D02*
X0086833Y0287819D01*
X0085131Y0287819D02*
X0083997Y0287819D01*
X0083430Y0287251D01*
X0083430Y0285550D01*
X0086833Y0285550D01*
X0083997Y0292916D02*
X0083430Y0293483D01*
X0083430Y0294618D01*
X0083997Y0295185D01*
X0084564Y0295185D01*
X0085131Y0294618D01*
X0085698Y0295185D01*
X0086265Y0295185D01*
X0086833Y0294618D01*
X0085131Y0294618D02*
X0085131Y0294051D01*
X0070583Y0307367D02*
X0070015Y0306800D01*
X0067747Y0306800D01*
X0067180Y0307367D01*
X0067180Y0308501D01*
X0067747Y0309069D01*
X0068314Y0310483D02*
X0067180Y0311617D01*
X0070583Y0311617D01*
X0070583Y0310483D02*
X0070583Y0312752D01*
X0070583Y0314166D02*
X0070015Y0314166D01*
X0067747Y0316435D01*
X0067180Y0316435D01*
X0067180Y0314166D01*
X0070015Y0309069D02*
X0070583Y0308501D01*
X0070583Y0307367D01*
X0055817Y0292203D02*
X0054683Y0292203D01*
X0054116Y0291636D01*
X0052701Y0291636D02*
X0052701Y0289367D01*
X0052134Y0288800D01*
X0051000Y0288800D01*
X0050433Y0289367D01*
X0050433Y0291636D01*
X0051000Y0292203D01*
X0052134Y0292203D01*
X0052701Y0291636D01*
X0051567Y0289934D02*
X0052701Y0288800D01*
X0054116Y0288800D02*
X0056384Y0291069D01*
X0056384Y0291636D01*
X0055817Y0292203D01*
X0056384Y0288800D02*
X0054116Y0288800D01*
X0054551Y0234203D02*
X0054551Y0231367D01*
X0053984Y0230800D01*
X0052850Y0230800D01*
X0052283Y0231367D01*
X0052283Y0234203D01*
X0055966Y0233636D02*
X0056533Y0234203D01*
X0057667Y0234203D01*
X0058234Y0233636D01*
X0058234Y0233069D01*
X0057667Y0232501D01*
X0058234Y0231934D01*
X0058234Y0231367D01*
X0057667Y0230800D01*
X0056533Y0230800D01*
X0055966Y0231367D01*
X0057100Y0232501D02*
X0057667Y0232501D01*
X0050183Y0218800D02*
X0076583Y0218800D01*
X0076583Y0204200D01*
X0050183Y0204200D01*
X0050183Y0218800D01*
X0085133Y0230867D02*
X0085700Y0230300D01*
X0086835Y0230300D01*
X0087402Y0230867D01*
X0088816Y0230300D02*
X0091085Y0230300D01*
X0089951Y0230300D02*
X0089951Y0233703D01*
X0088816Y0232569D01*
X0087402Y0233136D02*
X0086835Y0233703D01*
X0085700Y0233703D01*
X0085133Y0233136D01*
X0085133Y0230867D01*
X0092499Y0230867D02*
X0093067Y0230300D01*
X0094201Y0230300D01*
X0094768Y0230867D01*
X0094768Y0232001D01*
X0094201Y0232569D01*
X0093634Y0232569D01*
X0092499Y0232001D01*
X0092499Y0233703D01*
X0094768Y0233703D01*
X0137633Y0233136D02*
X0137633Y0230867D01*
X0138200Y0230300D01*
X0139335Y0230300D01*
X0139902Y0230867D01*
X0141316Y0230300D02*
X0143585Y0230300D01*
X0142451Y0230300D02*
X0142451Y0233703D01*
X0141316Y0232569D01*
X0139902Y0233136D02*
X0139335Y0233703D01*
X0138200Y0233703D01*
X0137633Y0233136D01*
X0144999Y0232001D02*
X0147268Y0232001D01*
X0146701Y0230300D02*
X0146701Y0233703D01*
X0144999Y0232001D01*
X0143083Y0201435D02*
X0143083Y0199166D01*
X0140814Y0201435D01*
X0140247Y0201435D01*
X0139680Y0200868D01*
X0139680Y0199733D01*
X0140247Y0199166D01*
X0139680Y0196617D02*
X0143083Y0196617D01*
X0143083Y0195483D02*
X0143083Y0197752D01*
X0140814Y0195483D02*
X0139680Y0196617D01*
X0140247Y0194069D02*
X0139680Y0193501D01*
X0139680Y0192367D01*
X0140247Y0191800D01*
X0142515Y0191800D01*
X0143083Y0192367D01*
X0143083Y0193501D01*
X0142515Y0194069D01*
X0149680Y0193501D02*
X0149680Y0192367D01*
X0150247Y0191800D01*
X0152515Y0191800D01*
X0153083Y0192367D01*
X0153083Y0193501D01*
X0152515Y0194069D01*
X0153083Y0195483D02*
X0153083Y0197752D01*
X0153083Y0196617D02*
X0149680Y0196617D01*
X0150814Y0195483D01*
X0150247Y0194069D02*
X0149680Y0193501D01*
X0150814Y0199166D02*
X0149680Y0200301D01*
X0153083Y0200301D01*
X0153083Y0201435D02*
X0153083Y0199166D01*
X0135317Y0178953D02*
X0134183Y0178953D01*
X0133616Y0178386D01*
X0132201Y0178953D02*
X0132201Y0176117D01*
X0131634Y0175550D01*
X0130500Y0175550D01*
X0129933Y0176117D01*
X0129933Y0178953D01*
X0133616Y0175550D02*
X0135884Y0177819D01*
X0135884Y0178386D01*
X0135317Y0178953D01*
X0135884Y0175550D02*
X0133616Y0175550D01*
X0137383Y0175000D02*
X0154383Y0175000D01*
X0178683Y0157703D02*
X0180384Y0157703D01*
X0180951Y0157136D01*
X0180951Y0156001D01*
X0180384Y0155434D01*
X0178683Y0155434D01*
X0179817Y0155434D02*
X0180951Y0154300D01*
X0182366Y0154300D02*
X0184634Y0154300D01*
X0183500Y0154300D02*
X0183500Y0157703D01*
X0182366Y0156569D01*
X0186049Y0157136D02*
X0186616Y0157703D01*
X0187750Y0157703D01*
X0188317Y0157136D01*
X0186049Y0154867D01*
X0186616Y0154300D01*
X0187750Y0154300D01*
X0188317Y0154867D01*
X0188317Y0157136D01*
X0186049Y0157136D02*
X0186049Y0154867D01*
X0190883Y0152750D02*
X0190883Y0145250D01*
X0178683Y0154300D02*
X0178683Y0157703D01*
X0175883Y0152750D02*
X0175883Y0145250D01*
X0154383Y0148000D02*
X0137383Y0148000D01*
X0146183Y0137703D02*
X0147884Y0137703D01*
X0148451Y0137136D01*
X0148451Y0136001D01*
X0147884Y0135434D01*
X0146183Y0135434D01*
X0147317Y0135434D02*
X0148451Y0134300D01*
X0149866Y0134300D02*
X0152134Y0134300D01*
X0151000Y0134300D02*
X0151000Y0137703D01*
X0149866Y0136569D01*
X0153549Y0136569D02*
X0154683Y0137703D01*
X0154683Y0134300D01*
X0153549Y0134300D02*
X0155817Y0134300D01*
X0146183Y0134300D02*
X0146183Y0137703D01*
X0210383Y0124500D02*
X0210383Y0098500D01*
X0235383Y0098500D01*
X0236383Y0099500D01*
X0236383Y0124500D01*
X0210383Y0124500D01*
X0233183Y0100700D02*
X0233185Y0100763D01*
X0233191Y0100825D01*
X0233201Y0100887D01*
X0233214Y0100949D01*
X0233232Y0101009D01*
X0233253Y0101068D01*
X0233278Y0101126D01*
X0233307Y0101182D01*
X0233339Y0101236D01*
X0233374Y0101288D01*
X0233412Y0101337D01*
X0233454Y0101385D01*
X0233498Y0101429D01*
X0233546Y0101471D01*
X0233595Y0101509D01*
X0233647Y0101544D01*
X0233701Y0101576D01*
X0233757Y0101605D01*
X0233815Y0101630D01*
X0233874Y0101651D01*
X0233934Y0101669D01*
X0233996Y0101682D01*
X0234058Y0101692D01*
X0234120Y0101698D01*
X0234183Y0101700D01*
X0234246Y0101698D01*
X0234308Y0101692D01*
X0234370Y0101682D01*
X0234432Y0101669D01*
X0234492Y0101651D01*
X0234551Y0101630D01*
X0234609Y0101605D01*
X0234665Y0101576D01*
X0234719Y0101544D01*
X0234771Y0101509D01*
X0234820Y0101471D01*
X0234868Y0101429D01*
X0234912Y0101385D01*
X0234954Y0101337D01*
X0234992Y0101288D01*
X0235027Y0101236D01*
X0235059Y0101182D01*
X0235088Y0101126D01*
X0235113Y0101068D01*
X0235134Y0101009D01*
X0235152Y0100949D01*
X0235165Y0100887D01*
X0235175Y0100825D01*
X0235181Y0100763D01*
X0235183Y0100700D01*
X0235181Y0100637D01*
X0235175Y0100575D01*
X0235165Y0100513D01*
X0235152Y0100451D01*
X0235134Y0100391D01*
X0235113Y0100332D01*
X0235088Y0100274D01*
X0235059Y0100218D01*
X0235027Y0100164D01*
X0234992Y0100112D01*
X0234954Y0100063D01*
X0234912Y0100015D01*
X0234868Y0099971D01*
X0234820Y0099929D01*
X0234771Y0099891D01*
X0234719Y0099856D01*
X0234665Y0099824D01*
X0234609Y0099795D01*
X0234551Y0099770D01*
X0234492Y0099749D01*
X0234432Y0099731D01*
X0234370Y0099718D01*
X0234308Y0099708D01*
X0234246Y0099702D01*
X0234183Y0099700D01*
X0234120Y0099702D01*
X0234058Y0099708D01*
X0233996Y0099718D01*
X0233934Y0099731D01*
X0233874Y0099749D01*
X0233815Y0099770D01*
X0233757Y0099795D01*
X0233701Y0099824D01*
X0233647Y0099856D01*
X0233595Y0099891D01*
X0233546Y0099929D01*
X0233498Y0099971D01*
X0233454Y0100015D01*
X0233412Y0100063D01*
X0233374Y0100112D01*
X0233339Y0100164D01*
X0233307Y0100218D01*
X0233278Y0100274D01*
X0233253Y0100332D01*
X0233232Y0100391D01*
X0233214Y0100451D01*
X0233201Y0100513D01*
X0233191Y0100575D01*
X0233185Y0100637D01*
X0233183Y0100700D01*
X0238816Y0096203D02*
X0238816Y0093367D01*
X0239383Y0092800D01*
X0240518Y0092800D01*
X0241085Y0093367D01*
X0241085Y0096203D01*
X0242499Y0095069D02*
X0243634Y0096203D01*
X0243634Y0092800D01*
X0244768Y0092800D02*
X0242499Y0092800D01*
X0229633Y0084000D02*
X0222133Y0084000D01*
X0209833Y0075002D02*
X0209833Y0072733D01*
X0209833Y0073867D02*
X0206430Y0073867D01*
X0207564Y0072733D01*
X0206997Y0071319D02*
X0206430Y0070751D01*
X0206430Y0069050D01*
X0209833Y0069050D01*
X0209833Y0070751D01*
X0209265Y0071319D01*
X0206997Y0071319D01*
X0222133Y0069000D02*
X0229633Y0069000D01*
X0228333Y0067885D02*
X0228333Y0065617D01*
X0228333Y0066751D02*
X0224930Y0066751D01*
X0226064Y0065617D01*
X0226631Y0064202D02*
X0227198Y0063635D01*
X0227198Y0061934D01*
X0227198Y0063068D02*
X0228333Y0064202D01*
X0226631Y0064202D02*
X0225497Y0064202D01*
X0224930Y0063635D01*
X0224930Y0061934D01*
X0228333Y0061934D01*
X0237997Y0071934D02*
X0240265Y0071934D01*
X0240833Y0072501D01*
X0240833Y0073635D01*
X0240265Y0074202D01*
X0240265Y0075617D02*
X0240833Y0076184D01*
X0240833Y0077318D01*
X0240265Y0077885D01*
X0239131Y0077885D01*
X0238564Y0077318D01*
X0238564Y0076751D01*
X0239131Y0075617D01*
X0237430Y0075617D01*
X0237430Y0077885D01*
X0237997Y0074202D02*
X0237430Y0073635D01*
X0237430Y0072501D01*
X0237997Y0071934D01*
X0256865Y0118591D02*
X0257432Y0118591D01*
X0258566Y0119726D01*
X0260268Y0119726D01*
X0258566Y0119726D02*
X0257432Y0120860D01*
X0256865Y0120860D01*
X0257999Y0122274D02*
X0256865Y0123409D01*
X0260268Y0123409D01*
X0260268Y0124543D02*
X0260268Y0122274D01*
X0318683Y0082703D02*
X0318683Y0082136D01*
X0319817Y0081001D01*
X0319817Y0079300D01*
X0319817Y0081001D02*
X0320951Y0082136D01*
X0320951Y0082703D01*
X0322366Y0082136D02*
X0322933Y0082703D01*
X0324067Y0082703D01*
X0324634Y0082136D01*
X0324634Y0081569D01*
X0322366Y0079300D01*
X0324634Y0079300D01*
X0308383Y0061500D02*
X0305883Y0064000D01*
X0308383Y0061500D02*
X0323383Y0061500D01*
X0338683Y0056453D02*
X0338683Y0053050D01*
X0338683Y0054184D02*
X0340384Y0054184D01*
X0340951Y0054751D01*
X0340951Y0055886D01*
X0340384Y0056453D01*
X0338683Y0056453D01*
X0339817Y0054184D02*
X0340951Y0053050D01*
X0342366Y0053050D02*
X0344634Y0053050D01*
X0343500Y0053050D02*
X0343500Y0056453D01*
X0342366Y0055319D01*
X0346049Y0054751D02*
X0348317Y0054751D01*
X0347750Y0053050D02*
X0347750Y0056453D01*
X0346049Y0054751D01*
X0323383Y0041500D02*
X0308383Y0041500D01*
X0313683Y0038953D02*
X0313683Y0036117D01*
X0314250Y0035550D01*
X0315384Y0035550D01*
X0315951Y0036117D01*
X0315951Y0038953D01*
X0317366Y0037251D02*
X0319634Y0037251D01*
X0319067Y0035550D02*
X0319067Y0038953D01*
X0317366Y0037251D01*
X0338683Y0035203D02*
X0340384Y0035203D01*
X0340951Y0034636D01*
X0340951Y0033501D01*
X0340384Y0032934D01*
X0338683Y0032934D01*
X0339817Y0032934D02*
X0340951Y0031800D01*
X0342366Y0031800D02*
X0344634Y0031800D01*
X0343500Y0031800D02*
X0343500Y0035203D01*
X0342366Y0034069D01*
X0346049Y0033501D02*
X0347750Y0033501D01*
X0348317Y0032934D01*
X0348317Y0032367D01*
X0347750Y0031800D01*
X0346616Y0031800D01*
X0346049Y0032367D01*
X0346049Y0033501D01*
X0347183Y0034636D01*
X0348317Y0035203D01*
X0338683Y0035203D02*
X0338683Y0031800D01*
X0144898Y0044193D02*
X0141495Y0044193D01*
X0142629Y0045328D01*
X0141495Y0046462D01*
X0144898Y0046462D01*
X0144898Y0047877D02*
X0144898Y0049578D01*
X0144330Y0050145D01*
X0142062Y0050145D01*
X0141495Y0049578D01*
X0141495Y0047877D01*
X0144898Y0047877D01*
X0144898Y0051560D02*
X0144898Y0053828D01*
X0144898Y0055243D02*
X0144898Y0057511D01*
X0144898Y0056377D02*
X0141495Y0056377D01*
X0142629Y0055243D01*
X0141495Y0051560D02*
X0144898Y0051560D01*
X0054583Y0089434D02*
X0051180Y0089434D01*
X0051180Y0091135D01*
X0051747Y0091702D01*
X0052881Y0091702D01*
X0053448Y0091135D01*
X0053448Y0089434D01*
X0053448Y0090568D02*
X0054583Y0091702D01*
X0054015Y0093117D02*
X0054583Y0093684D01*
X0054583Y0094818D01*
X0054015Y0095385D01*
X0053448Y0095385D01*
X0052881Y0094818D01*
X0052881Y0094251D01*
X0052881Y0094818D02*
X0052314Y0095385D01*
X0051747Y0095385D01*
X0051180Y0094818D01*
X0051180Y0093684D01*
X0051747Y0093117D01*
X0068200Y0160300D02*
X0069335Y0160300D01*
X0069902Y0160867D01*
X0071316Y0160300D02*
X0073585Y0160300D01*
X0072451Y0160300D02*
X0072451Y0163703D01*
X0071316Y0162569D01*
X0069902Y0163136D02*
X0069335Y0163703D01*
X0068200Y0163703D01*
X0067633Y0163136D01*
X0067633Y0160867D01*
X0068200Y0160300D01*
X0074999Y0160867D02*
X0075567Y0160300D01*
X0076701Y0160300D01*
X0077268Y0160867D01*
X0077268Y0161434D01*
X0076701Y0162001D01*
X0074999Y0162001D01*
X0074999Y0160867D01*
X0074999Y0162001D02*
X0076134Y0163136D01*
X0077268Y0163703D01*
X0278816Y0182800D02*
X0278816Y0186203D01*
X0279383Y0184501D02*
X0281085Y0182800D01*
X0282499Y0182800D02*
X0284768Y0182800D01*
X0283634Y0182800D02*
X0283634Y0186203D01*
X0282499Y0185069D01*
X0281085Y0186203D02*
X0278816Y0183934D01*
D13*
X0285528Y0079906D02*
X0285528Y0068094D01*
X0285922Y0073031D02*
X0285983Y0073033D01*
X0286043Y0073039D01*
X0286104Y0073048D01*
X0286163Y0073061D01*
X0286221Y0073078D01*
X0286279Y0073099D01*
X0286335Y0073123D01*
X0286389Y0073151D01*
X0286441Y0073182D01*
X0286492Y0073216D01*
X0286540Y0073253D01*
X0286585Y0073294D01*
X0286628Y0073337D01*
X0286669Y0073382D01*
X0286706Y0073430D01*
X0286740Y0073481D01*
X0286771Y0073533D01*
X0286799Y0073587D01*
X0286823Y0073643D01*
X0286844Y0073701D01*
X0286861Y0073759D01*
X0286874Y0073818D01*
X0286883Y0073879D01*
X0286889Y0073939D01*
X0286891Y0074000D01*
X0286889Y0074061D01*
X0286883Y0074121D01*
X0286874Y0074182D01*
X0286861Y0074241D01*
X0286844Y0074299D01*
X0286823Y0074357D01*
X0286799Y0074413D01*
X0286771Y0074467D01*
X0286740Y0074519D01*
X0286706Y0074570D01*
X0286669Y0074618D01*
X0286628Y0074663D01*
X0286585Y0074706D01*
X0286540Y0074747D01*
X0286492Y0074784D01*
X0286441Y0074818D01*
X0286389Y0074849D01*
X0286335Y0074877D01*
X0286279Y0074901D01*
X0286221Y0074922D01*
X0286163Y0074939D01*
X0286104Y0074952D01*
X0286043Y0074961D01*
X0285983Y0074967D01*
X0285922Y0074969D01*
X0295371Y0079906D02*
X0306394Y0079906D01*
X0316237Y0079906D02*
X0316237Y0068094D01*
X0306394Y0068094D02*
X0295371Y0068094D01*
X0311418Y0058600D02*
X0311420Y0058647D01*
X0311426Y0058694D01*
X0311436Y0058741D01*
X0311449Y0058786D01*
X0311467Y0058830D01*
X0311488Y0058872D01*
X0311512Y0058913D01*
X0311540Y0058951D01*
X0311571Y0058987D01*
X0311605Y0059020D01*
X0311641Y0059050D01*
X0311680Y0059077D01*
X0311721Y0059101D01*
X0311764Y0059121D01*
X0311808Y0059137D01*
X0311854Y0059150D01*
X0311900Y0059159D01*
X0311948Y0059164D01*
X0311995Y0059165D01*
X0312042Y0059162D01*
X0312089Y0059155D01*
X0312135Y0059144D01*
X0312180Y0059130D01*
X0312224Y0059111D01*
X0312265Y0059089D01*
X0312305Y0059064D01*
X0312343Y0059035D01*
X0312378Y0059004D01*
X0312411Y0058969D01*
X0312440Y0058932D01*
X0312466Y0058893D01*
X0312489Y0058851D01*
X0312508Y0058808D01*
X0312524Y0058763D01*
X0312536Y0058717D01*
X0312544Y0058671D01*
X0312548Y0058624D01*
X0312548Y0058576D01*
X0312544Y0058529D01*
X0312536Y0058483D01*
X0312524Y0058437D01*
X0312508Y0058392D01*
X0312489Y0058349D01*
X0312466Y0058307D01*
X0312440Y0058268D01*
X0312411Y0058231D01*
X0312378Y0058196D01*
X0312343Y0058165D01*
X0312305Y0058136D01*
X0312266Y0058111D01*
X0312224Y0058089D01*
X0312180Y0058070D01*
X0312135Y0058056D01*
X0312089Y0058045D01*
X0312042Y0058038D01*
X0311995Y0058035D01*
X0311948Y0058036D01*
X0311900Y0058041D01*
X0311854Y0058050D01*
X0311808Y0058063D01*
X0311764Y0058079D01*
X0311721Y0058099D01*
X0311680Y0058123D01*
X0311641Y0058150D01*
X0311605Y0058180D01*
X0311571Y0058213D01*
X0311540Y0058249D01*
X0311512Y0058287D01*
X0311488Y0058328D01*
X0311467Y0058370D01*
X0311449Y0058414D01*
X0311436Y0058459D01*
X0311426Y0058506D01*
X0311420Y0058553D01*
X0311418Y0058600D01*
X0217851Y0073469D02*
X0213914Y0073469D01*
X0215883Y0069531D01*
X0217851Y0073469D01*
X0068894Y0291106D02*
X0068894Y0294256D01*
X0066532Y0294256D01*
X0060233Y0294256D02*
X0057871Y0294256D01*
X0057871Y0291106D01*
D14*
X0215883Y0069300D03*
D15*
X0140883Y0171500D03*
D16*
X0073619Y0166264D02*
X0066138Y0166264D01*
X0060627Y0166264D02*
X0053146Y0166264D01*
X0053146Y0183587D01*
X0056296Y0186736D01*
X0070469Y0186736D02*
X0073619Y0183587D01*
X0073619Y0166264D01*
X0060036Y0167445D02*
X0059817Y0167529D01*
X0059600Y0167619D01*
X0059386Y0167714D01*
X0059173Y0167814D01*
X0058964Y0167919D01*
X0058756Y0168030D01*
X0058552Y0168145D01*
X0058350Y0168265D01*
X0058152Y0168391D01*
X0057957Y0168521D01*
X0057764Y0168655D01*
X0057575Y0168795D01*
X0057390Y0168938D01*
X0057208Y0169087D01*
X0057030Y0169239D01*
X0056855Y0169396D01*
X0056685Y0169558D01*
X0056518Y0169723D01*
X0056356Y0169892D01*
X0056197Y0170065D01*
X0056043Y0170242D01*
X0055893Y0170423D01*
X0055748Y0170607D01*
X0055607Y0170795D01*
X0055471Y0170986D01*
X0055340Y0171181D01*
X0055213Y0171378D01*
X0055091Y0171579D01*
X0054974Y0171782D01*
X0054862Y0171989D01*
X0054755Y0172197D01*
X0054653Y0172409D01*
X0054557Y0172623D01*
X0054465Y0172839D01*
X0054379Y0173057D01*
X0054298Y0173278D01*
X0054223Y0173500D01*
X0054153Y0173724D01*
X0054088Y0173949D01*
X0054029Y0174177D01*
X0053976Y0174405D01*
X0053928Y0174635D01*
X0053886Y0174866D01*
X0053849Y0175098D01*
X0053818Y0175330D01*
X0053792Y0175564D01*
X0053773Y0175797D01*
X0053759Y0176032D01*
X0053751Y0176266D01*
X0053748Y0176501D01*
X0053751Y0176736D01*
X0053760Y0176970D01*
X0053775Y0177204D01*
X0053795Y0177438D01*
X0053821Y0177671D01*
X0053852Y0177904D01*
X0053890Y0178136D01*
X0053932Y0178366D01*
X0053981Y0178596D01*
X0054035Y0178824D01*
X0054095Y0179052D01*
X0054160Y0179277D01*
X0054230Y0179501D01*
X0054306Y0179723D01*
X0054387Y0179943D01*
X0054474Y0180161D01*
X0054566Y0180377D01*
X0054663Y0180591D01*
X0054766Y0180802D01*
X0054873Y0181011D01*
X0054986Y0181217D01*
X0055103Y0181420D01*
X0055225Y0181620D01*
X0055353Y0181817D01*
X0055485Y0182011D01*
X0055621Y0182202D01*
X0055763Y0182389D01*
X0055908Y0182573D01*
X0056059Y0182754D01*
X0056213Y0182930D01*
X0056372Y0183103D01*
X0056535Y0183272D01*
X0056702Y0183437D01*
X0056873Y0183598D01*
X0057048Y0183754D01*
X0057226Y0183907D01*
X0057409Y0184054D01*
X0057594Y0184198D01*
X0057784Y0184337D01*
X0057976Y0184471D01*
X0058172Y0184600D01*
X0058371Y0184725D01*
X0058573Y0184845D01*
X0058777Y0184960D01*
X0058985Y0185069D01*
X0059195Y0185174D01*
X0059407Y0185274D01*
X0059622Y0185368D01*
X0059839Y0185457D01*
X0066729Y0185555D02*
X0066948Y0185471D01*
X0067165Y0185381D01*
X0067379Y0185286D01*
X0067592Y0185186D01*
X0067801Y0185081D01*
X0068009Y0184970D01*
X0068213Y0184855D01*
X0068415Y0184735D01*
X0068613Y0184609D01*
X0068808Y0184479D01*
X0069001Y0184345D01*
X0069190Y0184205D01*
X0069375Y0184062D01*
X0069557Y0183913D01*
X0069735Y0183761D01*
X0069910Y0183604D01*
X0070080Y0183442D01*
X0070247Y0183277D01*
X0070409Y0183108D01*
X0070568Y0182935D01*
X0070722Y0182758D01*
X0070872Y0182577D01*
X0071017Y0182393D01*
X0071158Y0182205D01*
X0071294Y0182014D01*
X0071425Y0181819D01*
X0071552Y0181622D01*
X0071674Y0181421D01*
X0071791Y0181218D01*
X0071903Y0181011D01*
X0072010Y0180803D01*
X0072112Y0180591D01*
X0072208Y0180377D01*
X0072300Y0180161D01*
X0072386Y0179943D01*
X0072467Y0179722D01*
X0072542Y0179500D01*
X0072612Y0179276D01*
X0072677Y0179051D01*
X0072736Y0178823D01*
X0072789Y0178595D01*
X0072837Y0178365D01*
X0072879Y0178134D01*
X0072916Y0177902D01*
X0072947Y0177670D01*
X0072973Y0177436D01*
X0072992Y0177203D01*
X0073006Y0176968D01*
X0073014Y0176734D01*
X0073017Y0176499D01*
X0073014Y0176264D01*
X0073005Y0176030D01*
X0072990Y0175796D01*
X0072970Y0175562D01*
X0072944Y0175329D01*
X0072913Y0175096D01*
X0072875Y0174864D01*
X0072833Y0174634D01*
X0072784Y0174404D01*
X0072730Y0174176D01*
X0072670Y0173948D01*
X0072605Y0173723D01*
X0072535Y0173499D01*
X0072459Y0173277D01*
X0072378Y0173057D01*
X0072291Y0172839D01*
X0072199Y0172623D01*
X0072102Y0172409D01*
X0071999Y0172198D01*
X0071892Y0171989D01*
X0071779Y0171783D01*
X0071662Y0171580D01*
X0071540Y0171380D01*
X0071412Y0171183D01*
X0071280Y0170989D01*
X0071144Y0170798D01*
X0071002Y0170611D01*
X0070857Y0170427D01*
X0070706Y0170246D01*
X0070552Y0170070D01*
X0070393Y0169897D01*
X0070230Y0169728D01*
X0070063Y0169563D01*
X0069892Y0169402D01*
X0069717Y0169246D01*
X0069539Y0169093D01*
X0069356Y0168946D01*
X0069171Y0168802D01*
X0068981Y0168663D01*
X0068789Y0168529D01*
X0068593Y0168400D01*
X0068394Y0168275D01*
X0068192Y0168155D01*
X0067988Y0168040D01*
X0067780Y0167931D01*
X0067570Y0167826D01*
X0067358Y0167726D01*
X0067143Y0167632D01*
X0066926Y0167543D01*
X0067438Y0236421D02*
X0050804Y0236421D01*
X0050804Y0273429D01*
X0053953Y0276579D01*
X0067536Y0275693D02*
X0067066Y0275605D01*
X0066598Y0275506D01*
X0066133Y0275395D01*
X0065671Y0275273D01*
X0065212Y0275140D01*
X0064757Y0274995D01*
X0064305Y0274840D01*
X0063857Y0274673D01*
X0063413Y0274495D01*
X0062974Y0274307D01*
X0062539Y0274108D01*
X0062110Y0273898D01*
X0061686Y0273677D01*
X0061267Y0273447D01*
X0060854Y0273206D01*
X0060447Y0272955D01*
X0060047Y0272694D01*
X0059653Y0272424D01*
X0059265Y0272144D01*
X0058885Y0271854D01*
X0058512Y0271555D01*
X0058146Y0271248D01*
X0057788Y0270931D01*
X0057438Y0270605D01*
X0057096Y0270272D01*
X0056763Y0269929D01*
X0056437Y0269579D01*
X0056121Y0269221D01*
X0055813Y0268855D01*
X0055515Y0268482D01*
X0055225Y0268102D01*
X0054945Y0267714D01*
X0054675Y0267320D01*
X0054414Y0266919D01*
X0054164Y0266512D01*
X0053923Y0266099D01*
X0053693Y0265681D01*
X0053473Y0265256D01*
X0053263Y0264827D01*
X0053064Y0264392D01*
X0052876Y0263953D01*
X0052699Y0263509D01*
X0052532Y0263061D01*
X0052377Y0262609D01*
X0052232Y0262153D01*
X0052099Y0261694D01*
X0051977Y0261232D01*
X0051867Y0260767D01*
X0051768Y0260299D01*
X0051681Y0259829D01*
X0051605Y0259358D01*
X0051540Y0258884D01*
X0051488Y0258409D01*
X0051447Y0257933D01*
X0051417Y0257456D01*
X0051400Y0256978D01*
X0051394Y0256500D01*
X0051400Y0256022D01*
X0051417Y0255544D01*
X0051447Y0255067D01*
X0051488Y0254591D01*
X0051540Y0254116D01*
X0051605Y0253642D01*
X0051681Y0253171D01*
X0051768Y0252701D01*
X0051867Y0252233D01*
X0051977Y0251768D01*
X0052099Y0251306D01*
X0052232Y0250847D01*
X0052377Y0250391D01*
X0052532Y0249939D01*
X0052699Y0249491D01*
X0052876Y0249047D01*
X0053064Y0248608D01*
X0053263Y0248173D01*
X0053473Y0247744D01*
X0053693Y0247319D01*
X0053923Y0246901D01*
X0054164Y0246488D01*
X0054414Y0246081D01*
X0054675Y0245680D01*
X0054945Y0245286D01*
X0055225Y0244898D01*
X0055515Y0244518D01*
X0055813Y0244145D01*
X0056121Y0243779D01*
X0056437Y0243421D01*
X0056763Y0243071D01*
X0057096Y0242728D01*
X0057438Y0242395D01*
X0057788Y0242069D01*
X0058146Y0241752D01*
X0058512Y0241445D01*
X0058885Y0241146D01*
X0059265Y0240856D01*
X0059653Y0240576D01*
X0060047Y0240306D01*
X0060447Y0240045D01*
X0060854Y0239794D01*
X0061267Y0239553D01*
X0061686Y0239323D01*
X0062110Y0239102D01*
X0062539Y0238892D01*
X0062974Y0238693D01*
X0063413Y0238505D01*
X0063857Y0238327D01*
X0064305Y0238160D01*
X0064757Y0238005D01*
X0065212Y0237860D01*
X0065671Y0237727D01*
X0066133Y0237605D01*
X0066598Y0237494D01*
X0067066Y0237395D01*
X0067536Y0237307D01*
X0074229Y0236421D02*
X0090961Y0236421D01*
X0090961Y0273429D01*
X0087812Y0276579D01*
X0098304Y0273429D02*
X0101453Y0276579D01*
X0098304Y0273429D02*
X0098304Y0236421D01*
X0114938Y0236421D01*
X0121729Y0236421D02*
X0138461Y0236421D01*
X0138461Y0273429D01*
X0135312Y0276579D01*
X0121729Y0275693D02*
X0122199Y0275605D01*
X0122667Y0275506D01*
X0123132Y0275395D01*
X0123594Y0275273D01*
X0124053Y0275140D01*
X0124508Y0274995D01*
X0124960Y0274840D01*
X0125408Y0274673D01*
X0125852Y0274495D01*
X0126291Y0274307D01*
X0126726Y0274108D01*
X0127155Y0273898D01*
X0127579Y0273677D01*
X0127998Y0273447D01*
X0128411Y0273206D01*
X0128818Y0272955D01*
X0129218Y0272694D01*
X0129612Y0272424D01*
X0130000Y0272144D01*
X0130380Y0271854D01*
X0130753Y0271555D01*
X0131119Y0271248D01*
X0131477Y0270931D01*
X0131827Y0270605D01*
X0132169Y0270272D01*
X0132502Y0269929D01*
X0132828Y0269579D01*
X0133144Y0269221D01*
X0133452Y0268855D01*
X0133750Y0268482D01*
X0134040Y0268102D01*
X0134320Y0267714D01*
X0134590Y0267320D01*
X0134851Y0266919D01*
X0135101Y0266512D01*
X0135342Y0266099D01*
X0135572Y0265681D01*
X0135792Y0265256D01*
X0136002Y0264827D01*
X0136201Y0264392D01*
X0136389Y0263953D01*
X0136566Y0263509D01*
X0136733Y0263061D01*
X0136888Y0262609D01*
X0137033Y0262153D01*
X0137166Y0261694D01*
X0137288Y0261232D01*
X0137398Y0260767D01*
X0137497Y0260299D01*
X0137584Y0259829D01*
X0137660Y0259358D01*
X0137725Y0258884D01*
X0137777Y0258409D01*
X0137818Y0257933D01*
X0137848Y0257456D01*
X0137865Y0256978D01*
X0137871Y0256500D01*
X0137865Y0256022D01*
X0137848Y0255544D01*
X0137818Y0255067D01*
X0137777Y0254591D01*
X0137725Y0254116D01*
X0137660Y0253642D01*
X0137584Y0253171D01*
X0137497Y0252701D01*
X0137398Y0252233D01*
X0137288Y0251768D01*
X0137166Y0251306D01*
X0137033Y0250847D01*
X0136888Y0250391D01*
X0136733Y0249939D01*
X0136566Y0249491D01*
X0136389Y0249047D01*
X0136201Y0248608D01*
X0136002Y0248173D01*
X0135792Y0247744D01*
X0135572Y0247319D01*
X0135342Y0246901D01*
X0135101Y0246488D01*
X0134851Y0246081D01*
X0134590Y0245680D01*
X0134320Y0245286D01*
X0134040Y0244898D01*
X0133750Y0244518D01*
X0133452Y0244145D01*
X0133144Y0243779D01*
X0132828Y0243421D01*
X0132502Y0243071D01*
X0132169Y0242728D01*
X0131827Y0242395D01*
X0131477Y0242069D01*
X0131119Y0241752D01*
X0130753Y0241445D01*
X0130380Y0241146D01*
X0130000Y0240856D01*
X0129612Y0240576D01*
X0129218Y0240306D01*
X0128818Y0240045D01*
X0128411Y0239794D01*
X0127998Y0239553D01*
X0127579Y0239323D01*
X0127155Y0239102D01*
X0126726Y0238892D01*
X0126291Y0238693D01*
X0125852Y0238505D01*
X0125408Y0238327D01*
X0124960Y0238160D01*
X0124508Y0238005D01*
X0124053Y0237860D01*
X0123594Y0237727D01*
X0123132Y0237605D01*
X0122667Y0237494D01*
X0122199Y0237395D01*
X0121729Y0237307D01*
X0115036Y0237307D02*
X0114566Y0237395D01*
X0114098Y0237494D01*
X0113633Y0237605D01*
X0113171Y0237727D01*
X0112712Y0237860D01*
X0112257Y0238005D01*
X0111805Y0238160D01*
X0111357Y0238327D01*
X0110913Y0238505D01*
X0110474Y0238693D01*
X0110039Y0238892D01*
X0109610Y0239102D01*
X0109186Y0239323D01*
X0108767Y0239553D01*
X0108354Y0239794D01*
X0107947Y0240045D01*
X0107547Y0240306D01*
X0107153Y0240576D01*
X0106765Y0240856D01*
X0106385Y0241146D01*
X0106012Y0241445D01*
X0105646Y0241752D01*
X0105288Y0242069D01*
X0104938Y0242395D01*
X0104596Y0242728D01*
X0104263Y0243071D01*
X0103937Y0243421D01*
X0103621Y0243779D01*
X0103313Y0244145D01*
X0103015Y0244518D01*
X0102725Y0244898D01*
X0102445Y0245286D01*
X0102175Y0245680D01*
X0101914Y0246081D01*
X0101664Y0246488D01*
X0101423Y0246901D01*
X0101193Y0247319D01*
X0100973Y0247744D01*
X0100763Y0248173D01*
X0100564Y0248608D01*
X0100376Y0249047D01*
X0100199Y0249491D01*
X0100032Y0249939D01*
X0099877Y0250391D01*
X0099732Y0250847D01*
X0099599Y0251306D01*
X0099477Y0251768D01*
X0099367Y0252233D01*
X0099268Y0252701D01*
X0099181Y0253171D01*
X0099105Y0253642D01*
X0099040Y0254116D01*
X0098988Y0254591D01*
X0098947Y0255067D01*
X0098917Y0255544D01*
X0098900Y0256022D01*
X0098894Y0256500D01*
X0098900Y0256978D01*
X0098917Y0257456D01*
X0098947Y0257933D01*
X0098988Y0258409D01*
X0099040Y0258884D01*
X0099105Y0259358D01*
X0099181Y0259829D01*
X0099268Y0260299D01*
X0099367Y0260767D01*
X0099477Y0261232D01*
X0099599Y0261694D01*
X0099732Y0262153D01*
X0099877Y0262609D01*
X0100032Y0263061D01*
X0100199Y0263509D01*
X0100376Y0263953D01*
X0100564Y0264392D01*
X0100763Y0264827D01*
X0100973Y0265256D01*
X0101193Y0265681D01*
X0101423Y0266099D01*
X0101664Y0266512D01*
X0101914Y0266919D01*
X0102175Y0267320D01*
X0102445Y0267714D01*
X0102725Y0268102D01*
X0103015Y0268482D01*
X0103313Y0268855D01*
X0103621Y0269221D01*
X0103937Y0269579D01*
X0104263Y0269929D01*
X0104596Y0270272D01*
X0104938Y0270605D01*
X0105288Y0270931D01*
X0105646Y0271248D01*
X0106012Y0271555D01*
X0106385Y0271854D01*
X0106765Y0272144D01*
X0107153Y0272424D01*
X0107547Y0272694D01*
X0107947Y0272955D01*
X0108354Y0273206D01*
X0108767Y0273447D01*
X0109186Y0273677D01*
X0109610Y0273898D01*
X0110039Y0274108D01*
X0110474Y0274307D01*
X0110913Y0274495D01*
X0111357Y0274673D01*
X0111805Y0274840D01*
X0112257Y0274995D01*
X0112712Y0275140D01*
X0113171Y0275273D01*
X0113633Y0275395D01*
X0114098Y0275506D01*
X0114566Y0275605D01*
X0115036Y0275693D01*
X0074229Y0275693D02*
X0074699Y0275605D01*
X0075167Y0275506D01*
X0075632Y0275395D01*
X0076094Y0275273D01*
X0076553Y0275140D01*
X0077008Y0274995D01*
X0077460Y0274840D01*
X0077908Y0274673D01*
X0078352Y0274495D01*
X0078791Y0274307D01*
X0079226Y0274108D01*
X0079655Y0273898D01*
X0080079Y0273677D01*
X0080498Y0273447D01*
X0080911Y0273206D01*
X0081318Y0272955D01*
X0081718Y0272694D01*
X0082112Y0272424D01*
X0082500Y0272144D01*
X0082880Y0271854D01*
X0083253Y0271555D01*
X0083619Y0271248D01*
X0083977Y0270931D01*
X0084327Y0270605D01*
X0084669Y0270272D01*
X0085002Y0269929D01*
X0085328Y0269579D01*
X0085644Y0269221D01*
X0085952Y0268855D01*
X0086250Y0268482D01*
X0086540Y0268102D01*
X0086820Y0267714D01*
X0087090Y0267320D01*
X0087351Y0266919D01*
X0087601Y0266512D01*
X0087842Y0266099D01*
X0088072Y0265681D01*
X0088292Y0265256D01*
X0088502Y0264827D01*
X0088701Y0264392D01*
X0088889Y0263953D01*
X0089066Y0263509D01*
X0089233Y0263061D01*
X0089388Y0262609D01*
X0089533Y0262153D01*
X0089666Y0261694D01*
X0089788Y0261232D01*
X0089898Y0260767D01*
X0089997Y0260299D01*
X0090084Y0259829D01*
X0090160Y0259358D01*
X0090225Y0258884D01*
X0090277Y0258409D01*
X0090318Y0257933D01*
X0090348Y0257456D01*
X0090365Y0256978D01*
X0090371Y0256500D01*
X0090365Y0256022D01*
X0090348Y0255544D01*
X0090318Y0255067D01*
X0090277Y0254591D01*
X0090225Y0254116D01*
X0090160Y0253642D01*
X0090084Y0253171D01*
X0089997Y0252701D01*
X0089898Y0252233D01*
X0089788Y0251768D01*
X0089666Y0251306D01*
X0089533Y0250847D01*
X0089388Y0250391D01*
X0089233Y0249939D01*
X0089066Y0249491D01*
X0088889Y0249047D01*
X0088701Y0248608D01*
X0088502Y0248173D01*
X0088292Y0247744D01*
X0088072Y0247319D01*
X0087842Y0246901D01*
X0087601Y0246488D01*
X0087351Y0246081D01*
X0087090Y0245680D01*
X0086820Y0245286D01*
X0086540Y0244898D01*
X0086250Y0244518D01*
X0085952Y0244145D01*
X0085644Y0243779D01*
X0085328Y0243421D01*
X0085002Y0243071D01*
X0084669Y0242728D01*
X0084327Y0242395D01*
X0083977Y0242069D01*
X0083619Y0241752D01*
X0083253Y0241445D01*
X0082880Y0241146D01*
X0082500Y0240856D01*
X0082112Y0240576D01*
X0081718Y0240306D01*
X0081318Y0240045D01*
X0080911Y0239794D01*
X0080498Y0239553D01*
X0080079Y0239323D01*
X0079655Y0239102D01*
X0079226Y0238892D01*
X0078791Y0238693D01*
X0078352Y0238505D01*
X0077908Y0238327D01*
X0077460Y0238160D01*
X0077008Y0238005D01*
X0076553Y0237860D01*
X0076094Y0237727D01*
X0075632Y0237605D01*
X0075167Y0237494D01*
X0074699Y0237395D01*
X0074229Y0237307D01*
X0081670Y0062564D02*
X0081670Y0057960D01*
X0084739Y0057960D01*
X0086274Y0058727D02*
X0087041Y0057960D01*
X0088576Y0057960D01*
X0089343Y0058727D01*
X0089343Y0059494D01*
X0088576Y0060262D01*
X0087041Y0060262D01*
X0086274Y0061029D01*
X0086274Y0061796D01*
X0087041Y0062564D01*
X0088576Y0062564D01*
X0089343Y0061796D01*
X0090878Y0062564D02*
X0093180Y0062564D01*
X0093947Y0061796D01*
X0093947Y0060262D01*
X0093180Y0059494D01*
X0090878Y0059494D01*
X0090878Y0057960D02*
X0090878Y0062564D01*
X0095482Y0060262D02*
X0098551Y0060262D01*
X0100086Y0061029D02*
X0101620Y0062564D01*
X0101620Y0057960D01*
X0100086Y0057960D02*
X0103155Y0057960D01*
X0104690Y0057960D02*
X0107759Y0061029D01*
X0107759Y0061796D01*
X0106992Y0062564D01*
X0105457Y0062564D01*
X0104690Y0061796D01*
X0104690Y0057960D02*
X0107759Y0057960D01*
X0109294Y0057960D02*
X0112363Y0057960D01*
X0110828Y0060262D02*
X0109294Y0060262D01*
X0109294Y0062564D02*
X0109294Y0057960D01*
X0109294Y0062564D02*
X0112363Y0062564D01*
X0084739Y0062564D02*
X0081670Y0062564D01*
X0081670Y0060262D02*
X0083205Y0060262D01*
D17*
X0186886Y0261972D02*
X0186886Y0270831D01*
X0171138Y0267878D02*
X0167201Y0267878D01*
X0169170Y0269846D01*
X0171138Y0267878D01*
X0170807Y0268209D02*
X0167532Y0268209D01*
X0168318Y0268995D02*
X0170021Y0268995D01*
X0169236Y0269781D02*
X0169104Y0269781D01*
X0167201Y0270831D02*
X0157359Y0270831D01*
X0157359Y0277720D01*
X0157359Y0293469D02*
X0157359Y0302327D01*
X0206572Y0270831D02*
X0216414Y0270831D01*
X0216414Y0277720D01*
X0216414Y0293469D02*
X0216414Y0302327D01*
X0258540Y0302327D02*
X0258540Y0293469D01*
X0258540Y0277720D02*
X0258540Y0270831D01*
X0268383Y0270831D01*
X0269499Y0268995D02*
X0271203Y0268995D01*
X0271989Y0268209D02*
X0268714Y0268209D01*
X0268383Y0267878D02*
X0270351Y0269846D01*
X0272320Y0267878D01*
X0268383Y0267878D01*
X0270285Y0269781D02*
X0270417Y0269781D01*
X0288068Y0270831D02*
X0288068Y0261972D01*
X0307753Y0270831D02*
X0317595Y0270831D01*
X0317595Y0277720D01*
X0317595Y0293469D02*
X0317595Y0302327D01*
D18*
X0254032Y0130799D02*
X0247733Y0130799D01*
X0247733Y0117201D02*
X0254032Y0117201D01*
M02*
