G75*
%MOIN*%
%OFA0B0*%
%FSLAX25Y25*%
%IPPOS*%
%LPD*%
%AMOC8*
5,1,8,0,0,1.08239X$1,22.5*
%
%ADD10C,0.01000*%
%ADD11C,0.00000*%
%ADD12C,0.00039*%
D10*
X0043383Y0006500D02*
X0043383Y0321461D01*
X0358343Y0321461D01*
X0358343Y0006500D01*
X0043383Y0006500D01*
D11*
X0048944Y0018311D02*
X0048946Y0018469D01*
X0048952Y0018626D01*
X0048962Y0018784D01*
X0048976Y0018941D01*
X0048994Y0019097D01*
X0049015Y0019254D01*
X0049041Y0019409D01*
X0049071Y0019564D01*
X0049104Y0019718D01*
X0049142Y0019871D01*
X0049183Y0020024D01*
X0049228Y0020175D01*
X0049277Y0020325D01*
X0049330Y0020473D01*
X0049386Y0020621D01*
X0049447Y0020766D01*
X0049510Y0020911D01*
X0049578Y0021053D01*
X0049649Y0021194D01*
X0049723Y0021333D01*
X0049801Y0021470D01*
X0049883Y0021605D01*
X0049967Y0021738D01*
X0050056Y0021869D01*
X0050147Y0021997D01*
X0050242Y0022124D01*
X0050339Y0022247D01*
X0050440Y0022369D01*
X0050544Y0022487D01*
X0050651Y0022603D01*
X0050761Y0022716D01*
X0050873Y0022827D01*
X0050989Y0022934D01*
X0051107Y0023039D01*
X0051227Y0023141D01*
X0051350Y0023239D01*
X0051476Y0023335D01*
X0051604Y0023427D01*
X0051734Y0023516D01*
X0051866Y0023602D01*
X0052001Y0023684D01*
X0052138Y0023763D01*
X0052276Y0023838D01*
X0052416Y0023910D01*
X0052559Y0023978D01*
X0052702Y0024043D01*
X0052848Y0024104D01*
X0052995Y0024161D01*
X0053143Y0024215D01*
X0053293Y0024265D01*
X0053443Y0024311D01*
X0053595Y0024353D01*
X0053748Y0024392D01*
X0053902Y0024426D01*
X0054057Y0024457D01*
X0054212Y0024483D01*
X0054368Y0024506D01*
X0054525Y0024525D01*
X0054682Y0024540D01*
X0054839Y0024551D01*
X0054997Y0024558D01*
X0055155Y0024561D01*
X0055312Y0024560D01*
X0055470Y0024555D01*
X0055627Y0024546D01*
X0055785Y0024533D01*
X0055941Y0024516D01*
X0056098Y0024495D01*
X0056253Y0024471D01*
X0056408Y0024442D01*
X0056563Y0024409D01*
X0056716Y0024373D01*
X0056869Y0024332D01*
X0057020Y0024288D01*
X0057170Y0024240D01*
X0057319Y0024189D01*
X0057467Y0024133D01*
X0057613Y0024074D01*
X0057758Y0024011D01*
X0057901Y0023944D01*
X0058042Y0023874D01*
X0058181Y0023801D01*
X0058319Y0023724D01*
X0058455Y0023643D01*
X0058588Y0023559D01*
X0058719Y0023472D01*
X0058848Y0023381D01*
X0058975Y0023287D01*
X0059100Y0023190D01*
X0059221Y0023090D01*
X0059341Y0022987D01*
X0059457Y0022881D01*
X0059571Y0022772D01*
X0059683Y0022660D01*
X0059791Y0022546D01*
X0059896Y0022428D01*
X0059999Y0022308D01*
X0060098Y0022186D01*
X0060194Y0022061D01*
X0060287Y0021933D01*
X0060377Y0021804D01*
X0060463Y0021672D01*
X0060547Y0021538D01*
X0060626Y0021402D01*
X0060703Y0021264D01*
X0060775Y0021124D01*
X0060844Y0020982D01*
X0060910Y0020839D01*
X0060972Y0020694D01*
X0061030Y0020547D01*
X0061085Y0020399D01*
X0061136Y0020250D01*
X0061183Y0020099D01*
X0061226Y0019948D01*
X0061265Y0019795D01*
X0061301Y0019641D01*
X0061332Y0019487D01*
X0061360Y0019332D01*
X0061384Y0019176D01*
X0061404Y0019019D01*
X0061420Y0018862D01*
X0061432Y0018705D01*
X0061440Y0018548D01*
X0061444Y0018390D01*
X0061444Y0018232D01*
X0061440Y0018074D01*
X0061432Y0017917D01*
X0061420Y0017760D01*
X0061404Y0017603D01*
X0061384Y0017446D01*
X0061360Y0017290D01*
X0061332Y0017135D01*
X0061301Y0016981D01*
X0061265Y0016827D01*
X0061226Y0016674D01*
X0061183Y0016523D01*
X0061136Y0016372D01*
X0061085Y0016223D01*
X0061030Y0016075D01*
X0060972Y0015928D01*
X0060910Y0015783D01*
X0060844Y0015640D01*
X0060775Y0015498D01*
X0060703Y0015358D01*
X0060626Y0015220D01*
X0060547Y0015084D01*
X0060463Y0014950D01*
X0060377Y0014818D01*
X0060287Y0014689D01*
X0060194Y0014561D01*
X0060098Y0014436D01*
X0059999Y0014314D01*
X0059896Y0014194D01*
X0059791Y0014076D01*
X0059683Y0013962D01*
X0059571Y0013850D01*
X0059457Y0013741D01*
X0059341Y0013635D01*
X0059221Y0013532D01*
X0059100Y0013432D01*
X0058975Y0013335D01*
X0058848Y0013241D01*
X0058719Y0013150D01*
X0058588Y0013063D01*
X0058455Y0012979D01*
X0058319Y0012898D01*
X0058181Y0012821D01*
X0058042Y0012748D01*
X0057901Y0012678D01*
X0057758Y0012611D01*
X0057613Y0012548D01*
X0057467Y0012489D01*
X0057319Y0012433D01*
X0057170Y0012382D01*
X0057020Y0012334D01*
X0056869Y0012290D01*
X0056716Y0012249D01*
X0056563Y0012213D01*
X0056408Y0012180D01*
X0056253Y0012151D01*
X0056098Y0012127D01*
X0055941Y0012106D01*
X0055785Y0012089D01*
X0055627Y0012076D01*
X0055470Y0012067D01*
X0055312Y0012062D01*
X0055155Y0012061D01*
X0054997Y0012064D01*
X0054839Y0012071D01*
X0054682Y0012082D01*
X0054525Y0012097D01*
X0054368Y0012116D01*
X0054212Y0012139D01*
X0054057Y0012165D01*
X0053902Y0012196D01*
X0053748Y0012230D01*
X0053595Y0012269D01*
X0053443Y0012311D01*
X0053293Y0012357D01*
X0053143Y0012407D01*
X0052995Y0012461D01*
X0052848Y0012518D01*
X0052702Y0012579D01*
X0052559Y0012644D01*
X0052416Y0012712D01*
X0052276Y0012784D01*
X0052138Y0012859D01*
X0052001Y0012938D01*
X0051866Y0013020D01*
X0051734Y0013106D01*
X0051604Y0013195D01*
X0051476Y0013287D01*
X0051350Y0013383D01*
X0051227Y0013481D01*
X0051107Y0013583D01*
X0050989Y0013688D01*
X0050873Y0013795D01*
X0050761Y0013906D01*
X0050651Y0014019D01*
X0050544Y0014135D01*
X0050440Y0014253D01*
X0050339Y0014375D01*
X0050242Y0014498D01*
X0050147Y0014625D01*
X0050056Y0014753D01*
X0049967Y0014884D01*
X0049883Y0015017D01*
X0049801Y0015152D01*
X0049723Y0015289D01*
X0049649Y0015428D01*
X0049578Y0015569D01*
X0049510Y0015711D01*
X0049447Y0015856D01*
X0049386Y0016001D01*
X0049330Y0016149D01*
X0049277Y0016297D01*
X0049228Y0016447D01*
X0049183Y0016598D01*
X0049142Y0016751D01*
X0049104Y0016904D01*
X0049071Y0017058D01*
X0049041Y0017213D01*
X0049015Y0017368D01*
X0048994Y0017525D01*
X0048976Y0017681D01*
X0048962Y0017838D01*
X0048952Y0017996D01*
X0048946Y0018153D01*
X0048944Y0018311D01*
X0340282Y0018311D02*
X0340284Y0018469D01*
X0340290Y0018626D01*
X0340300Y0018784D01*
X0340314Y0018941D01*
X0340332Y0019097D01*
X0340353Y0019254D01*
X0340379Y0019409D01*
X0340409Y0019564D01*
X0340442Y0019718D01*
X0340480Y0019871D01*
X0340521Y0020024D01*
X0340566Y0020175D01*
X0340615Y0020325D01*
X0340668Y0020473D01*
X0340724Y0020621D01*
X0340785Y0020766D01*
X0340848Y0020911D01*
X0340916Y0021053D01*
X0340987Y0021194D01*
X0341061Y0021333D01*
X0341139Y0021470D01*
X0341221Y0021605D01*
X0341305Y0021738D01*
X0341394Y0021869D01*
X0341485Y0021997D01*
X0341580Y0022124D01*
X0341677Y0022247D01*
X0341778Y0022369D01*
X0341882Y0022487D01*
X0341989Y0022603D01*
X0342099Y0022716D01*
X0342211Y0022827D01*
X0342327Y0022934D01*
X0342445Y0023039D01*
X0342565Y0023141D01*
X0342688Y0023239D01*
X0342814Y0023335D01*
X0342942Y0023427D01*
X0343072Y0023516D01*
X0343204Y0023602D01*
X0343339Y0023684D01*
X0343476Y0023763D01*
X0343614Y0023838D01*
X0343754Y0023910D01*
X0343897Y0023978D01*
X0344040Y0024043D01*
X0344186Y0024104D01*
X0344333Y0024161D01*
X0344481Y0024215D01*
X0344631Y0024265D01*
X0344781Y0024311D01*
X0344933Y0024353D01*
X0345086Y0024392D01*
X0345240Y0024426D01*
X0345395Y0024457D01*
X0345550Y0024483D01*
X0345706Y0024506D01*
X0345863Y0024525D01*
X0346020Y0024540D01*
X0346177Y0024551D01*
X0346335Y0024558D01*
X0346493Y0024561D01*
X0346650Y0024560D01*
X0346808Y0024555D01*
X0346965Y0024546D01*
X0347123Y0024533D01*
X0347279Y0024516D01*
X0347436Y0024495D01*
X0347591Y0024471D01*
X0347746Y0024442D01*
X0347901Y0024409D01*
X0348054Y0024373D01*
X0348207Y0024332D01*
X0348358Y0024288D01*
X0348508Y0024240D01*
X0348657Y0024189D01*
X0348805Y0024133D01*
X0348951Y0024074D01*
X0349096Y0024011D01*
X0349239Y0023944D01*
X0349380Y0023874D01*
X0349519Y0023801D01*
X0349657Y0023724D01*
X0349793Y0023643D01*
X0349926Y0023559D01*
X0350057Y0023472D01*
X0350186Y0023381D01*
X0350313Y0023287D01*
X0350438Y0023190D01*
X0350559Y0023090D01*
X0350679Y0022987D01*
X0350795Y0022881D01*
X0350909Y0022772D01*
X0351021Y0022660D01*
X0351129Y0022546D01*
X0351234Y0022428D01*
X0351337Y0022308D01*
X0351436Y0022186D01*
X0351532Y0022061D01*
X0351625Y0021933D01*
X0351715Y0021804D01*
X0351801Y0021672D01*
X0351885Y0021538D01*
X0351964Y0021402D01*
X0352041Y0021264D01*
X0352113Y0021124D01*
X0352182Y0020982D01*
X0352248Y0020839D01*
X0352310Y0020694D01*
X0352368Y0020547D01*
X0352423Y0020399D01*
X0352474Y0020250D01*
X0352521Y0020099D01*
X0352564Y0019948D01*
X0352603Y0019795D01*
X0352639Y0019641D01*
X0352670Y0019487D01*
X0352698Y0019332D01*
X0352722Y0019176D01*
X0352742Y0019019D01*
X0352758Y0018862D01*
X0352770Y0018705D01*
X0352778Y0018548D01*
X0352782Y0018390D01*
X0352782Y0018232D01*
X0352778Y0018074D01*
X0352770Y0017917D01*
X0352758Y0017760D01*
X0352742Y0017603D01*
X0352722Y0017446D01*
X0352698Y0017290D01*
X0352670Y0017135D01*
X0352639Y0016981D01*
X0352603Y0016827D01*
X0352564Y0016674D01*
X0352521Y0016523D01*
X0352474Y0016372D01*
X0352423Y0016223D01*
X0352368Y0016075D01*
X0352310Y0015928D01*
X0352248Y0015783D01*
X0352182Y0015640D01*
X0352113Y0015498D01*
X0352041Y0015358D01*
X0351964Y0015220D01*
X0351885Y0015084D01*
X0351801Y0014950D01*
X0351715Y0014818D01*
X0351625Y0014689D01*
X0351532Y0014561D01*
X0351436Y0014436D01*
X0351337Y0014314D01*
X0351234Y0014194D01*
X0351129Y0014076D01*
X0351021Y0013962D01*
X0350909Y0013850D01*
X0350795Y0013741D01*
X0350679Y0013635D01*
X0350559Y0013532D01*
X0350438Y0013432D01*
X0350313Y0013335D01*
X0350186Y0013241D01*
X0350057Y0013150D01*
X0349926Y0013063D01*
X0349793Y0012979D01*
X0349657Y0012898D01*
X0349519Y0012821D01*
X0349380Y0012748D01*
X0349239Y0012678D01*
X0349096Y0012611D01*
X0348951Y0012548D01*
X0348805Y0012489D01*
X0348657Y0012433D01*
X0348508Y0012382D01*
X0348358Y0012334D01*
X0348207Y0012290D01*
X0348054Y0012249D01*
X0347901Y0012213D01*
X0347746Y0012180D01*
X0347591Y0012151D01*
X0347436Y0012127D01*
X0347279Y0012106D01*
X0347123Y0012089D01*
X0346965Y0012076D01*
X0346808Y0012067D01*
X0346650Y0012062D01*
X0346493Y0012061D01*
X0346335Y0012064D01*
X0346177Y0012071D01*
X0346020Y0012082D01*
X0345863Y0012097D01*
X0345706Y0012116D01*
X0345550Y0012139D01*
X0345395Y0012165D01*
X0345240Y0012196D01*
X0345086Y0012230D01*
X0344933Y0012269D01*
X0344781Y0012311D01*
X0344631Y0012357D01*
X0344481Y0012407D01*
X0344333Y0012461D01*
X0344186Y0012518D01*
X0344040Y0012579D01*
X0343897Y0012644D01*
X0343754Y0012712D01*
X0343614Y0012784D01*
X0343476Y0012859D01*
X0343339Y0012938D01*
X0343204Y0013020D01*
X0343072Y0013106D01*
X0342942Y0013195D01*
X0342814Y0013287D01*
X0342688Y0013383D01*
X0342565Y0013481D01*
X0342445Y0013583D01*
X0342327Y0013688D01*
X0342211Y0013795D01*
X0342099Y0013906D01*
X0341989Y0014019D01*
X0341882Y0014135D01*
X0341778Y0014253D01*
X0341677Y0014375D01*
X0341580Y0014498D01*
X0341485Y0014625D01*
X0341394Y0014753D01*
X0341305Y0014884D01*
X0341221Y0015017D01*
X0341139Y0015152D01*
X0341061Y0015289D01*
X0340987Y0015428D01*
X0340916Y0015569D01*
X0340848Y0015711D01*
X0340785Y0015856D01*
X0340724Y0016001D01*
X0340668Y0016149D01*
X0340615Y0016297D01*
X0340566Y0016447D01*
X0340521Y0016598D01*
X0340480Y0016751D01*
X0340442Y0016904D01*
X0340409Y0017058D01*
X0340379Y0017213D01*
X0340353Y0017368D01*
X0340332Y0017525D01*
X0340314Y0017681D01*
X0340300Y0017838D01*
X0340290Y0017996D01*
X0340284Y0018153D01*
X0340282Y0018311D01*
X0340282Y0309650D02*
X0340284Y0309808D01*
X0340290Y0309965D01*
X0340300Y0310123D01*
X0340314Y0310280D01*
X0340332Y0310436D01*
X0340353Y0310593D01*
X0340379Y0310748D01*
X0340409Y0310903D01*
X0340442Y0311057D01*
X0340480Y0311210D01*
X0340521Y0311363D01*
X0340566Y0311514D01*
X0340615Y0311664D01*
X0340668Y0311812D01*
X0340724Y0311960D01*
X0340785Y0312105D01*
X0340848Y0312250D01*
X0340916Y0312392D01*
X0340987Y0312533D01*
X0341061Y0312672D01*
X0341139Y0312809D01*
X0341221Y0312944D01*
X0341305Y0313077D01*
X0341394Y0313208D01*
X0341485Y0313336D01*
X0341580Y0313463D01*
X0341677Y0313586D01*
X0341778Y0313708D01*
X0341882Y0313826D01*
X0341989Y0313942D01*
X0342099Y0314055D01*
X0342211Y0314166D01*
X0342327Y0314273D01*
X0342445Y0314378D01*
X0342565Y0314480D01*
X0342688Y0314578D01*
X0342814Y0314674D01*
X0342942Y0314766D01*
X0343072Y0314855D01*
X0343204Y0314941D01*
X0343339Y0315023D01*
X0343476Y0315102D01*
X0343614Y0315177D01*
X0343754Y0315249D01*
X0343897Y0315317D01*
X0344040Y0315382D01*
X0344186Y0315443D01*
X0344333Y0315500D01*
X0344481Y0315554D01*
X0344631Y0315604D01*
X0344781Y0315650D01*
X0344933Y0315692D01*
X0345086Y0315731D01*
X0345240Y0315765D01*
X0345395Y0315796D01*
X0345550Y0315822D01*
X0345706Y0315845D01*
X0345863Y0315864D01*
X0346020Y0315879D01*
X0346177Y0315890D01*
X0346335Y0315897D01*
X0346493Y0315900D01*
X0346650Y0315899D01*
X0346808Y0315894D01*
X0346965Y0315885D01*
X0347123Y0315872D01*
X0347279Y0315855D01*
X0347436Y0315834D01*
X0347591Y0315810D01*
X0347746Y0315781D01*
X0347901Y0315748D01*
X0348054Y0315712D01*
X0348207Y0315671D01*
X0348358Y0315627D01*
X0348508Y0315579D01*
X0348657Y0315528D01*
X0348805Y0315472D01*
X0348951Y0315413D01*
X0349096Y0315350D01*
X0349239Y0315283D01*
X0349380Y0315213D01*
X0349519Y0315140D01*
X0349657Y0315063D01*
X0349793Y0314982D01*
X0349926Y0314898D01*
X0350057Y0314811D01*
X0350186Y0314720D01*
X0350313Y0314626D01*
X0350438Y0314529D01*
X0350559Y0314429D01*
X0350679Y0314326D01*
X0350795Y0314220D01*
X0350909Y0314111D01*
X0351021Y0313999D01*
X0351129Y0313885D01*
X0351234Y0313767D01*
X0351337Y0313647D01*
X0351436Y0313525D01*
X0351532Y0313400D01*
X0351625Y0313272D01*
X0351715Y0313143D01*
X0351801Y0313011D01*
X0351885Y0312877D01*
X0351964Y0312741D01*
X0352041Y0312603D01*
X0352113Y0312463D01*
X0352182Y0312321D01*
X0352248Y0312178D01*
X0352310Y0312033D01*
X0352368Y0311886D01*
X0352423Y0311738D01*
X0352474Y0311589D01*
X0352521Y0311438D01*
X0352564Y0311287D01*
X0352603Y0311134D01*
X0352639Y0310980D01*
X0352670Y0310826D01*
X0352698Y0310671D01*
X0352722Y0310515D01*
X0352742Y0310358D01*
X0352758Y0310201D01*
X0352770Y0310044D01*
X0352778Y0309887D01*
X0352782Y0309729D01*
X0352782Y0309571D01*
X0352778Y0309413D01*
X0352770Y0309256D01*
X0352758Y0309099D01*
X0352742Y0308942D01*
X0352722Y0308785D01*
X0352698Y0308629D01*
X0352670Y0308474D01*
X0352639Y0308320D01*
X0352603Y0308166D01*
X0352564Y0308013D01*
X0352521Y0307862D01*
X0352474Y0307711D01*
X0352423Y0307562D01*
X0352368Y0307414D01*
X0352310Y0307267D01*
X0352248Y0307122D01*
X0352182Y0306979D01*
X0352113Y0306837D01*
X0352041Y0306697D01*
X0351964Y0306559D01*
X0351885Y0306423D01*
X0351801Y0306289D01*
X0351715Y0306157D01*
X0351625Y0306028D01*
X0351532Y0305900D01*
X0351436Y0305775D01*
X0351337Y0305653D01*
X0351234Y0305533D01*
X0351129Y0305415D01*
X0351021Y0305301D01*
X0350909Y0305189D01*
X0350795Y0305080D01*
X0350679Y0304974D01*
X0350559Y0304871D01*
X0350438Y0304771D01*
X0350313Y0304674D01*
X0350186Y0304580D01*
X0350057Y0304489D01*
X0349926Y0304402D01*
X0349793Y0304318D01*
X0349657Y0304237D01*
X0349519Y0304160D01*
X0349380Y0304087D01*
X0349239Y0304017D01*
X0349096Y0303950D01*
X0348951Y0303887D01*
X0348805Y0303828D01*
X0348657Y0303772D01*
X0348508Y0303721D01*
X0348358Y0303673D01*
X0348207Y0303629D01*
X0348054Y0303588D01*
X0347901Y0303552D01*
X0347746Y0303519D01*
X0347591Y0303490D01*
X0347436Y0303466D01*
X0347279Y0303445D01*
X0347123Y0303428D01*
X0346965Y0303415D01*
X0346808Y0303406D01*
X0346650Y0303401D01*
X0346493Y0303400D01*
X0346335Y0303403D01*
X0346177Y0303410D01*
X0346020Y0303421D01*
X0345863Y0303436D01*
X0345706Y0303455D01*
X0345550Y0303478D01*
X0345395Y0303504D01*
X0345240Y0303535D01*
X0345086Y0303569D01*
X0344933Y0303608D01*
X0344781Y0303650D01*
X0344631Y0303696D01*
X0344481Y0303746D01*
X0344333Y0303800D01*
X0344186Y0303857D01*
X0344040Y0303918D01*
X0343897Y0303983D01*
X0343754Y0304051D01*
X0343614Y0304123D01*
X0343476Y0304198D01*
X0343339Y0304277D01*
X0343204Y0304359D01*
X0343072Y0304445D01*
X0342942Y0304534D01*
X0342814Y0304626D01*
X0342688Y0304722D01*
X0342565Y0304820D01*
X0342445Y0304922D01*
X0342327Y0305027D01*
X0342211Y0305134D01*
X0342099Y0305245D01*
X0341989Y0305358D01*
X0341882Y0305474D01*
X0341778Y0305592D01*
X0341677Y0305714D01*
X0341580Y0305837D01*
X0341485Y0305964D01*
X0341394Y0306092D01*
X0341305Y0306223D01*
X0341221Y0306356D01*
X0341139Y0306491D01*
X0341061Y0306628D01*
X0340987Y0306767D01*
X0340916Y0306908D01*
X0340848Y0307050D01*
X0340785Y0307195D01*
X0340724Y0307340D01*
X0340668Y0307488D01*
X0340615Y0307636D01*
X0340566Y0307786D01*
X0340521Y0307937D01*
X0340480Y0308090D01*
X0340442Y0308243D01*
X0340409Y0308397D01*
X0340379Y0308552D01*
X0340353Y0308707D01*
X0340332Y0308864D01*
X0340314Y0309020D01*
X0340300Y0309177D01*
X0340290Y0309335D01*
X0340284Y0309492D01*
X0340282Y0309650D01*
X0048944Y0309650D02*
X0048946Y0309808D01*
X0048952Y0309965D01*
X0048962Y0310123D01*
X0048976Y0310280D01*
X0048994Y0310436D01*
X0049015Y0310593D01*
X0049041Y0310748D01*
X0049071Y0310903D01*
X0049104Y0311057D01*
X0049142Y0311210D01*
X0049183Y0311363D01*
X0049228Y0311514D01*
X0049277Y0311664D01*
X0049330Y0311812D01*
X0049386Y0311960D01*
X0049447Y0312105D01*
X0049510Y0312250D01*
X0049578Y0312392D01*
X0049649Y0312533D01*
X0049723Y0312672D01*
X0049801Y0312809D01*
X0049883Y0312944D01*
X0049967Y0313077D01*
X0050056Y0313208D01*
X0050147Y0313336D01*
X0050242Y0313463D01*
X0050339Y0313586D01*
X0050440Y0313708D01*
X0050544Y0313826D01*
X0050651Y0313942D01*
X0050761Y0314055D01*
X0050873Y0314166D01*
X0050989Y0314273D01*
X0051107Y0314378D01*
X0051227Y0314480D01*
X0051350Y0314578D01*
X0051476Y0314674D01*
X0051604Y0314766D01*
X0051734Y0314855D01*
X0051866Y0314941D01*
X0052001Y0315023D01*
X0052138Y0315102D01*
X0052276Y0315177D01*
X0052416Y0315249D01*
X0052559Y0315317D01*
X0052702Y0315382D01*
X0052848Y0315443D01*
X0052995Y0315500D01*
X0053143Y0315554D01*
X0053293Y0315604D01*
X0053443Y0315650D01*
X0053595Y0315692D01*
X0053748Y0315731D01*
X0053902Y0315765D01*
X0054057Y0315796D01*
X0054212Y0315822D01*
X0054368Y0315845D01*
X0054525Y0315864D01*
X0054682Y0315879D01*
X0054839Y0315890D01*
X0054997Y0315897D01*
X0055155Y0315900D01*
X0055312Y0315899D01*
X0055470Y0315894D01*
X0055627Y0315885D01*
X0055785Y0315872D01*
X0055941Y0315855D01*
X0056098Y0315834D01*
X0056253Y0315810D01*
X0056408Y0315781D01*
X0056563Y0315748D01*
X0056716Y0315712D01*
X0056869Y0315671D01*
X0057020Y0315627D01*
X0057170Y0315579D01*
X0057319Y0315528D01*
X0057467Y0315472D01*
X0057613Y0315413D01*
X0057758Y0315350D01*
X0057901Y0315283D01*
X0058042Y0315213D01*
X0058181Y0315140D01*
X0058319Y0315063D01*
X0058455Y0314982D01*
X0058588Y0314898D01*
X0058719Y0314811D01*
X0058848Y0314720D01*
X0058975Y0314626D01*
X0059100Y0314529D01*
X0059221Y0314429D01*
X0059341Y0314326D01*
X0059457Y0314220D01*
X0059571Y0314111D01*
X0059683Y0313999D01*
X0059791Y0313885D01*
X0059896Y0313767D01*
X0059999Y0313647D01*
X0060098Y0313525D01*
X0060194Y0313400D01*
X0060287Y0313272D01*
X0060377Y0313143D01*
X0060463Y0313011D01*
X0060547Y0312877D01*
X0060626Y0312741D01*
X0060703Y0312603D01*
X0060775Y0312463D01*
X0060844Y0312321D01*
X0060910Y0312178D01*
X0060972Y0312033D01*
X0061030Y0311886D01*
X0061085Y0311738D01*
X0061136Y0311589D01*
X0061183Y0311438D01*
X0061226Y0311287D01*
X0061265Y0311134D01*
X0061301Y0310980D01*
X0061332Y0310826D01*
X0061360Y0310671D01*
X0061384Y0310515D01*
X0061404Y0310358D01*
X0061420Y0310201D01*
X0061432Y0310044D01*
X0061440Y0309887D01*
X0061444Y0309729D01*
X0061444Y0309571D01*
X0061440Y0309413D01*
X0061432Y0309256D01*
X0061420Y0309099D01*
X0061404Y0308942D01*
X0061384Y0308785D01*
X0061360Y0308629D01*
X0061332Y0308474D01*
X0061301Y0308320D01*
X0061265Y0308166D01*
X0061226Y0308013D01*
X0061183Y0307862D01*
X0061136Y0307711D01*
X0061085Y0307562D01*
X0061030Y0307414D01*
X0060972Y0307267D01*
X0060910Y0307122D01*
X0060844Y0306979D01*
X0060775Y0306837D01*
X0060703Y0306697D01*
X0060626Y0306559D01*
X0060547Y0306423D01*
X0060463Y0306289D01*
X0060377Y0306157D01*
X0060287Y0306028D01*
X0060194Y0305900D01*
X0060098Y0305775D01*
X0059999Y0305653D01*
X0059896Y0305533D01*
X0059791Y0305415D01*
X0059683Y0305301D01*
X0059571Y0305189D01*
X0059457Y0305080D01*
X0059341Y0304974D01*
X0059221Y0304871D01*
X0059100Y0304771D01*
X0058975Y0304674D01*
X0058848Y0304580D01*
X0058719Y0304489D01*
X0058588Y0304402D01*
X0058455Y0304318D01*
X0058319Y0304237D01*
X0058181Y0304160D01*
X0058042Y0304087D01*
X0057901Y0304017D01*
X0057758Y0303950D01*
X0057613Y0303887D01*
X0057467Y0303828D01*
X0057319Y0303772D01*
X0057170Y0303721D01*
X0057020Y0303673D01*
X0056869Y0303629D01*
X0056716Y0303588D01*
X0056563Y0303552D01*
X0056408Y0303519D01*
X0056253Y0303490D01*
X0056098Y0303466D01*
X0055941Y0303445D01*
X0055785Y0303428D01*
X0055627Y0303415D01*
X0055470Y0303406D01*
X0055312Y0303401D01*
X0055155Y0303400D01*
X0054997Y0303403D01*
X0054839Y0303410D01*
X0054682Y0303421D01*
X0054525Y0303436D01*
X0054368Y0303455D01*
X0054212Y0303478D01*
X0054057Y0303504D01*
X0053902Y0303535D01*
X0053748Y0303569D01*
X0053595Y0303608D01*
X0053443Y0303650D01*
X0053293Y0303696D01*
X0053143Y0303746D01*
X0052995Y0303800D01*
X0052848Y0303857D01*
X0052702Y0303918D01*
X0052559Y0303983D01*
X0052416Y0304051D01*
X0052276Y0304123D01*
X0052138Y0304198D01*
X0052001Y0304277D01*
X0051866Y0304359D01*
X0051734Y0304445D01*
X0051604Y0304534D01*
X0051476Y0304626D01*
X0051350Y0304722D01*
X0051227Y0304820D01*
X0051107Y0304922D01*
X0050989Y0305027D01*
X0050873Y0305134D01*
X0050761Y0305245D01*
X0050651Y0305358D01*
X0050544Y0305474D01*
X0050440Y0305592D01*
X0050339Y0305714D01*
X0050242Y0305837D01*
X0050147Y0305964D01*
X0050056Y0306092D01*
X0049967Y0306223D01*
X0049883Y0306356D01*
X0049801Y0306491D01*
X0049723Y0306628D01*
X0049649Y0306767D01*
X0049578Y0306908D01*
X0049510Y0307050D01*
X0049447Y0307195D01*
X0049386Y0307340D01*
X0049330Y0307488D01*
X0049277Y0307636D01*
X0049228Y0307786D01*
X0049183Y0307937D01*
X0049142Y0308090D01*
X0049104Y0308243D01*
X0049071Y0308397D01*
X0049041Y0308552D01*
X0049015Y0308707D01*
X0048994Y0308864D01*
X0048976Y0309020D01*
X0048962Y0309177D01*
X0048952Y0309335D01*
X0048946Y0309492D01*
X0048944Y0309650D01*
D12*
X0156572Y0310673D02*
X0156572Y0307524D01*
X0156571Y0307524D02*
X0156573Y0307441D01*
X0156579Y0307358D01*
X0156589Y0307276D01*
X0156602Y0307194D01*
X0156619Y0307112D01*
X0156641Y0307032D01*
X0156666Y0306953D01*
X0156694Y0306875D01*
X0156726Y0306798D01*
X0156762Y0306723D01*
X0156802Y0306650D01*
X0156844Y0306579D01*
X0156890Y0306510D01*
X0156939Y0306443D01*
X0156992Y0306378D01*
X0157047Y0306316D01*
X0157105Y0306256D01*
X0157166Y0306200D01*
X0157229Y0306146D01*
X0157295Y0306095D01*
X0157363Y0306048D01*
X0157433Y0306003D01*
X0157505Y0305962D01*
X0157580Y0305925D01*
X0157655Y0305891D01*
X0157733Y0305860D01*
X0157811Y0305834D01*
X0157891Y0305811D01*
X0157972Y0305791D01*
X0158053Y0305776D01*
X0158136Y0305764D01*
X0158218Y0305756D01*
X0158301Y0305752D01*
X0158385Y0305752D01*
X0158468Y0305756D01*
X0158550Y0305764D01*
X0158633Y0305776D01*
X0158714Y0305791D01*
X0158795Y0305811D01*
X0158875Y0305834D01*
X0158953Y0305860D01*
X0159031Y0305891D01*
X0159106Y0305925D01*
X0159181Y0305962D01*
X0159253Y0306003D01*
X0159323Y0306048D01*
X0159391Y0306095D01*
X0159457Y0306146D01*
X0159520Y0306200D01*
X0159581Y0306256D01*
X0159639Y0306316D01*
X0159694Y0306378D01*
X0159747Y0306443D01*
X0159796Y0306510D01*
X0159842Y0306579D01*
X0159884Y0306650D01*
X0159924Y0306723D01*
X0159960Y0306798D01*
X0159992Y0306875D01*
X0160020Y0306953D01*
X0160045Y0307032D01*
X0160067Y0307112D01*
X0160084Y0307194D01*
X0160097Y0307276D01*
X0160107Y0307358D01*
X0160113Y0307441D01*
X0160115Y0307524D01*
X0160115Y0310673D01*
X0160113Y0310756D01*
X0160107Y0310839D01*
X0160097Y0310921D01*
X0160084Y0311003D01*
X0160067Y0311085D01*
X0160045Y0311165D01*
X0160020Y0311244D01*
X0159992Y0311322D01*
X0159960Y0311399D01*
X0159924Y0311474D01*
X0159884Y0311547D01*
X0159842Y0311618D01*
X0159796Y0311687D01*
X0159747Y0311754D01*
X0159694Y0311819D01*
X0159639Y0311881D01*
X0159581Y0311941D01*
X0159520Y0311997D01*
X0159457Y0312051D01*
X0159391Y0312102D01*
X0159323Y0312149D01*
X0159253Y0312194D01*
X0159181Y0312235D01*
X0159106Y0312272D01*
X0159031Y0312306D01*
X0158953Y0312337D01*
X0158875Y0312363D01*
X0158795Y0312386D01*
X0158714Y0312406D01*
X0158633Y0312421D01*
X0158550Y0312433D01*
X0158468Y0312441D01*
X0158385Y0312445D01*
X0158301Y0312445D01*
X0158218Y0312441D01*
X0158136Y0312433D01*
X0158053Y0312421D01*
X0157972Y0312406D01*
X0157891Y0312386D01*
X0157811Y0312363D01*
X0157733Y0312337D01*
X0157655Y0312306D01*
X0157580Y0312272D01*
X0157505Y0312235D01*
X0157433Y0312194D01*
X0157363Y0312149D01*
X0157295Y0312102D01*
X0157229Y0312051D01*
X0157166Y0311997D01*
X0157105Y0311941D01*
X0157047Y0311881D01*
X0156992Y0311819D01*
X0156939Y0311754D01*
X0156890Y0311687D01*
X0156844Y0311618D01*
X0156802Y0311547D01*
X0156762Y0311474D01*
X0156726Y0311399D01*
X0156694Y0311322D01*
X0156666Y0311244D01*
X0156641Y0311165D01*
X0156619Y0311085D01*
X0156602Y0311003D01*
X0156589Y0310921D01*
X0156579Y0310839D01*
X0156573Y0310756D01*
X0156571Y0310673D01*
X0156572Y0289177D02*
X0156572Y0282091D01*
X0156571Y0282091D02*
X0156573Y0282008D01*
X0156579Y0281925D01*
X0156589Y0281843D01*
X0156602Y0281761D01*
X0156619Y0281679D01*
X0156641Y0281599D01*
X0156666Y0281520D01*
X0156694Y0281442D01*
X0156726Y0281365D01*
X0156762Y0281290D01*
X0156802Y0281217D01*
X0156844Y0281146D01*
X0156890Y0281077D01*
X0156939Y0281010D01*
X0156992Y0280945D01*
X0157047Y0280883D01*
X0157105Y0280823D01*
X0157166Y0280767D01*
X0157229Y0280713D01*
X0157295Y0280662D01*
X0157363Y0280615D01*
X0157433Y0280570D01*
X0157505Y0280529D01*
X0157580Y0280492D01*
X0157655Y0280458D01*
X0157733Y0280427D01*
X0157811Y0280401D01*
X0157891Y0280378D01*
X0157972Y0280358D01*
X0158053Y0280343D01*
X0158136Y0280331D01*
X0158218Y0280323D01*
X0158301Y0280319D01*
X0158385Y0280319D01*
X0158468Y0280323D01*
X0158550Y0280331D01*
X0158633Y0280343D01*
X0158714Y0280358D01*
X0158795Y0280378D01*
X0158875Y0280401D01*
X0158953Y0280427D01*
X0159031Y0280458D01*
X0159106Y0280492D01*
X0159181Y0280529D01*
X0159253Y0280570D01*
X0159323Y0280615D01*
X0159391Y0280662D01*
X0159457Y0280713D01*
X0159520Y0280767D01*
X0159581Y0280823D01*
X0159639Y0280883D01*
X0159694Y0280945D01*
X0159747Y0281010D01*
X0159796Y0281077D01*
X0159842Y0281146D01*
X0159884Y0281217D01*
X0159924Y0281290D01*
X0159960Y0281365D01*
X0159992Y0281442D01*
X0160020Y0281520D01*
X0160045Y0281599D01*
X0160067Y0281679D01*
X0160084Y0281761D01*
X0160097Y0281843D01*
X0160107Y0281925D01*
X0160113Y0282008D01*
X0160115Y0282091D01*
X0160115Y0289177D01*
X0160113Y0289260D01*
X0160107Y0289343D01*
X0160097Y0289425D01*
X0160084Y0289507D01*
X0160067Y0289589D01*
X0160045Y0289669D01*
X0160020Y0289748D01*
X0159992Y0289826D01*
X0159960Y0289903D01*
X0159924Y0289978D01*
X0159884Y0290051D01*
X0159842Y0290122D01*
X0159796Y0290191D01*
X0159747Y0290258D01*
X0159694Y0290323D01*
X0159639Y0290385D01*
X0159581Y0290445D01*
X0159520Y0290501D01*
X0159457Y0290555D01*
X0159391Y0290606D01*
X0159323Y0290653D01*
X0159253Y0290698D01*
X0159181Y0290739D01*
X0159106Y0290776D01*
X0159031Y0290810D01*
X0158953Y0290841D01*
X0158875Y0290867D01*
X0158795Y0290890D01*
X0158714Y0290910D01*
X0158633Y0290925D01*
X0158550Y0290937D01*
X0158468Y0290945D01*
X0158385Y0290949D01*
X0158301Y0290949D01*
X0158218Y0290945D01*
X0158136Y0290937D01*
X0158053Y0290925D01*
X0157972Y0290910D01*
X0157891Y0290890D01*
X0157811Y0290867D01*
X0157733Y0290841D01*
X0157655Y0290810D01*
X0157580Y0290776D01*
X0157505Y0290739D01*
X0157433Y0290698D01*
X0157363Y0290653D01*
X0157295Y0290606D01*
X0157229Y0290555D01*
X0157166Y0290501D01*
X0157105Y0290445D01*
X0157047Y0290385D01*
X0156992Y0290323D01*
X0156939Y0290258D01*
X0156890Y0290191D01*
X0156844Y0290122D01*
X0156802Y0290051D01*
X0156762Y0289978D01*
X0156726Y0289903D01*
X0156694Y0289826D01*
X0156666Y0289748D01*
X0156641Y0289669D01*
X0156619Y0289589D01*
X0156602Y0289507D01*
X0156589Y0289425D01*
X0156579Y0289343D01*
X0156573Y0289260D01*
X0156571Y0289177D01*
X0213658Y0289177D02*
X0213658Y0282091D01*
X0213660Y0282008D01*
X0213666Y0281925D01*
X0213676Y0281843D01*
X0213689Y0281761D01*
X0213706Y0281679D01*
X0213728Y0281599D01*
X0213753Y0281520D01*
X0213781Y0281442D01*
X0213813Y0281365D01*
X0213849Y0281290D01*
X0213889Y0281217D01*
X0213931Y0281146D01*
X0213977Y0281077D01*
X0214026Y0281010D01*
X0214079Y0280945D01*
X0214134Y0280883D01*
X0214192Y0280823D01*
X0214253Y0280767D01*
X0214316Y0280713D01*
X0214382Y0280662D01*
X0214450Y0280615D01*
X0214520Y0280570D01*
X0214592Y0280529D01*
X0214667Y0280492D01*
X0214742Y0280458D01*
X0214820Y0280427D01*
X0214898Y0280401D01*
X0214978Y0280378D01*
X0215059Y0280358D01*
X0215140Y0280343D01*
X0215223Y0280331D01*
X0215305Y0280323D01*
X0215388Y0280319D01*
X0215472Y0280319D01*
X0215555Y0280323D01*
X0215637Y0280331D01*
X0215720Y0280343D01*
X0215801Y0280358D01*
X0215882Y0280378D01*
X0215962Y0280401D01*
X0216040Y0280427D01*
X0216118Y0280458D01*
X0216193Y0280492D01*
X0216268Y0280529D01*
X0216340Y0280570D01*
X0216410Y0280615D01*
X0216478Y0280662D01*
X0216544Y0280713D01*
X0216607Y0280767D01*
X0216668Y0280823D01*
X0216726Y0280883D01*
X0216781Y0280945D01*
X0216834Y0281010D01*
X0216883Y0281077D01*
X0216929Y0281146D01*
X0216971Y0281217D01*
X0217011Y0281290D01*
X0217047Y0281365D01*
X0217079Y0281442D01*
X0217107Y0281520D01*
X0217132Y0281599D01*
X0217154Y0281679D01*
X0217171Y0281761D01*
X0217184Y0281843D01*
X0217194Y0281925D01*
X0217200Y0282008D01*
X0217202Y0282091D01*
X0217201Y0282091D02*
X0217201Y0289177D01*
X0217202Y0289177D02*
X0217200Y0289260D01*
X0217194Y0289343D01*
X0217184Y0289425D01*
X0217171Y0289507D01*
X0217154Y0289589D01*
X0217132Y0289669D01*
X0217107Y0289748D01*
X0217079Y0289826D01*
X0217047Y0289903D01*
X0217011Y0289978D01*
X0216971Y0290051D01*
X0216929Y0290122D01*
X0216883Y0290191D01*
X0216834Y0290258D01*
X0216781Y0290323D01*
X0216726Y0290385D01*
X0216668Y0290445D01*
X0216607Y0290501D01*
X0216544Y0290555D01*
X0216478Y0290606D01*
X0216410Y0290653D01*
X0216340Y0290698D01*
X0216268Y0290739D01*
X0216193Y0290776D01*
X0216118Y0290810D01*
X0216040Y0290841D01*
X0215962Y0290867D01*
X0215882Y0290890D01*
X0215801Y0290910D01*
X0215720Y0290925D01*
X0215637Y0290937D01*
X0215555Y0290945D01*
X0215472Y0290949D01*
X0215388Y0290949D01*
X0215305Y0290945D01*
X0215223Y0290937D01*
X0215140Y0290925D01*
X0215059Y0290910D01*
X0214978Y0290890D01*
X0214898Y0290867D01*
X0214820Y0290841D01*
X0214742Y0290810D01*
X0214667Y0290776D01*
X0214592Y0290739D01*
X0214520Y0290698D01*
X0214450Y0290653D01*
X0214382Y0290606D01*
X0214316Y0290555D01*
X0214253Y0290501D01*
X0214192Y0290445D01*
X0214134Y0290385D01*
X0214079Y0290323D01*
X0214026Y0290258D01*
X0213977Y0290191D01*
X0213931Y0290122D01*
X0213889Y0290051D01*
X0213849Y0289978D01*
X0213813Y0289903D01*
X0213781Y0289826D01*
X0213753Y0289748D01*
X0213728Y0289669D01*
X0213706Y0289589D01*
X0213689Y0289507D01*
X0213676Y0289425D01*
X0213666Y0289343D01*
X0213660Y0289260D01*
X0213658Y0289177D01*
X0213658Y0307524D02*
X0213658Y0310673D01*
X0213660Y0310756D01*
X0213666Y0310839D01*
X0213676Y0310921D01*
X0213689Y0311003D01*
X0213706Y0311085D01*
X0213728Y0311165D01*
X0213753Y0311244D01*
X0213781Y0311322D01*
X0213813Y0311399D01*
X0213849Y0311474D01*
X0213889Y0311547D01*
X0213931Y0311618D01*
X0213977Y0311687D01*
X0214026Y0311754D01*
X0214079Y0311819D01*
X0214134Y0311881D01*
X0214192Y0311941D01*
X0214253Y0311997D01*
X0214316Y0312051D01*
X0214382Y0312102D01*
X0214450Y0312149D01*
X0214520Y0312194D01*
X0214592Y0312235D01*
X0214667Y0312272D01*
X0214742Y0312306D01*
X0214820Y0312337D01*
X0214898Y0312363D01*
X0214978Y0312386D01*
X0215059Y0312406D01*
X0215140Y0312421D01*
X0215223Y0312433D01*
X0215305Y0312441D01*
X0215388Y0312445D01*
X0215472Y0312445D01*
X0215555Y0312441D01*
X0215637Y0312433D01*
X0215720Y0312421D01*
X0215801Y0312406D01*
X0215882Y0312386D01*
X0215962Y0312363D01*
X0216040Y0312337D01*
X0216118Y0312306D01*
X0216193Y0312272D01*
X0216268Y0312235D01*
X0216340Y0312194D01*
X0216410Y0312149D01*
X0216478Y0312102D01*
X0216544Y0312051D01*
X0216607Y0311997D01*
X0216668Y0311941D01*
X0216726Y0311881D01*
X0216781Y0311819D01*
X0216834Y0311754D01*
X0216883Y0311687D01*
X0216929Y0311618D01*
X0216971Y0311547D01*
X0217011Y0311474D01*
X0217047Y0311399D01*
X0217079Y0311322D01*
X0217107Y0311244D01*
X0217132Y0311165D01*
X0217154Y0311085D01*
X0217171Y0311003D01*
X0217184Y0310921D01*
X0217194Y0310839D01*
X0217200Y0310756D01*
X0217202Y0310673D01*
X0217201Y0310673D02*
X0217201Y0307524D01*
X0217202Y0307524D02*
X0217200Y0307441D01*
X0217194Y0307358D01*
X0217184Y0307276D01*
X0217171Y0307194D01*
X0217154Y0307112D01*
X0217132Y0307032D01*
X0217107Y0306953D01*
X0217079Y0306875D01*
X0217047Y0306798D01*
X0217011Y0306723D01*
X0216971Y0306650D01*
X0216929Y0306579D01*
X0216883Y0306510D01*
X0216834Y0306443D01*
X0216781Y0306378D01*
X0216726Y0306316D01*
X0216668Y0306256D01*
X0216607Y0306200D01*
X0216544Y0306146D01*
X0216478Y0306095D01*
X0216410Y0306048D01*
X0216340Y0306003D01*
X0216268Y0305962D01*
X0216193Y0305925D01*
X0216118Y0305891D01*
X0216040Y0305860D01*
X0215962Y0305834D01*
X0215882Y0305811D01*
X0215801Y0305791D01*
X0215720Y0305776D01*
X0215637Y0305764D01*
X0215555Y0305756D01*
X0215472Y0305752D01*
X0215388Y0305752D01*
X0215305Y0305756D01*
X0215223Y0305764D01*
X0215140Y0305776D01*
X0215059Y0305791D01*
X0214978Y0305811D01*
X0214898Y0305834D01*
X0214820Y0305860D01*
X0214742Y0305891D01*
X0214667Y0305925D01*
X0214592Y0305962D01*
X0214520Y0306003D01*
X0214450Y0306048D01*
X0214382Y0306095D01*
X0214316Y0306146D01*
X0214253Y0306200D01*
X0214192Y0306256D01*
X0214134Y0306316D01*
X0214079Y0306378D01*
X0214026Y0306443D01*
X0213977Y0306510D01*
X0213931Y0306579D01*
X0213889Y0306650D01*
X0213849Y0306723D01*
X0213813Y0306798D01*
X0213781Y0306875D01*
X0213753Y0306953D01*
X0213728Y0307032D01*
X0213706Y0307112D01*
X0213689Y0307194D01*
X0213676Y0307276D01*
X0213666Y0307358D01*
X0213660Y0307441D01*
X0213658Y0307524D01*
X0257753Y0307524D02*
X0257753Y0310673D01*
X0257752Y0310673D02*
X0257754Y0310756D01*
X0257760Y0310839D01*
X0257770Y0310921D01*
X0257783Y0311003D01*
X0257800Y0311085D01*
X0257822Y0311165D01*
X0257847Y0311244D01*
X0257875Y0311322D01*
X0257907Y0311399D01*
X0257943Y0311474D01*
X0257983Y0311547D01*
X0258025Y0311618D01*
X0258071Y0311687D01*
X0258120Y0311754D01*
X0258173Y0311819D01*
X0258228Y0311881D01*
X0258286Y0311941D01*
X0258347Y0311997D01*
X0258410Y0312051D01*
X0258476Y0312102D01*
X0258544Y0312149D01*
X0258614Y0312194D01*
X0258686Y0312235D01*
X0258761Y0312272D01*
X0258836Y0312306D01*
X0258914Y0312337D01*
X0258992Y0312363D01*
X0259072Y0312386D01*
X0259153Y0312406D01*
X0259234Y0312421D01*
X0259317Y0312433D01*
X0259399Y0312441D01*
X0259482Y0312445D01*
X0259566Y0312445D01*
X0259649Y0312441D01*
X0259731Y0312433D01*
X0259814Y0312421D01*
X0259895Y0312406D01*
X0259976Y0312386D01*
X0260056Y0312363D01*
X0260134Y0312337D01*
X0260212Y0312306D01*
X0260287Y0312272D01*
X0260362Y0312235D01*
X0260434Y0312194D01*
X0260504Y0312149D01*
X0260572Y0312102D01*
X0260638Y0312051D01*
X0260701Y0311997D01*
X0260762Y0311941D01*
X0260820Y0311881D01*
X0260875Y0311819D01*
X0260928Y0311754D01*
X0260977Y0311687D01*
X0261023Y0311618D01*
X0261065Y0311547D01*
X0261105Y0311474D01*
X0261141Y0311399D01*
X0261173Y0311322D01*
X0261201Y0311244D01*
X0261226Y0311165D01*
X0261248Y0311085D01*
X0261265Y0311003D01*
X0261278Y0310921D01*
X0261288Y0310839D01*
X0261294Y0310756D01*
X0261296Y0310673D01*
X0261296Y0307524D01*
X0261294Y0307441D01*
X0261288Y0307358D01*
X0261278Y0307276D01*
X0261265Y0307194D01*
X0261248Y0307112D01*
X0261226Y0307032D01*
X0261201Y0306953D01*
X0261173Y0306875D01*
X0261141Y0306798D01*
X0261105Y0306723D01*
X0261065Y0306650D01*
X0261023Y0306579D01*
X0260977Y0306510D01*
X0260928Y0306443D01*
X0260875Y0306378D01*
X0260820Y0306316D01*
X0260762Y0306256D01*
X0260701Y0306200D01*
X0260638Y0306146D01*
X0260572Y0306095D01*
X0260504Y0306048D01*
X0260434Y0306003D01*
X0260362Y0305962D01*
X0260287Y0305925D01*
X0260212Y0305891D01*
X0260134Y0305860D01*
X0260056Y0305834D01*
X0259976Y0305811D01*
X0259895Y0305791D01*
X0259814Y0305776D01*
X0259731Y0305764D01*
X0259649Y0305756D01*
X0259566Y0305752D01*
X0259482Y0305752D01*
X0259399Y0305756D01*
X0259317Y0305764D01*
X0259234Y0305776D01*
X0259153Y0305791D01*
X0259072Y0305811D01*
X0258992Y0305834D01*
X0258914Y0305860D01*
X0258836Y0305891D01*
X0258761Y0305925D01*
X0258686Y0305962D01*
X0258614Y0306003D01*
X0258544Y0306048D01*
X0258476Y0306095D01*
X0258410Y0306146D01*
X0258347Y0306200D01*
X0258286Y0306256D01*
X0258228Y0306316D01*
X0258173Y0306378D01*
X0258120Y0306443D01*
X0258071Y0306510D01*
X0258025Y0306579D01*
X0257983Y0306650D01*
X0257943Y0306723D01*
X0257907Y0306798D01*
X0257875Y0306875D01*
X0257847Y0306953D01*
X0257822Y0307032D01*
X0257800Y0307112D01*
X0257783Y0307194D01*
X0257770Y0307276D01*
X0257760Y0307358D01*
X0257754Y0307441D01*
X0257752Y0307524D01*
X0257753Y0289177D02*
X0257753Y0282091D01*
X0257752Y0282091D02*
X0257754Y0282008D01*
X0257760Y0281925D01*
X0257770Y0281843D01*
X0257783Y0281761D01*
X0257800Y0281679D01*
X0257822Y0281599D01*
X0257847Y0281520D01*
X0257875Y0281442D01*
X0257907Y0281365D01*
X0257943Y0281290D01*
X0257983Y0281217D01*
X0258025Y0281146D01*
X0258071Y0281077D01*
X0258120Y0281010D01*
X0258173Y0280945D01*
X0258228Y0280883D01*
X0258286Y0280823D01*
X0258347Y0280767D01*
X0258410Y0280713D01*
X0258476Y0280662D01*
X0258544Y0280615D01*
X0258614Y0280570D01*
X0258686Y0280529D01*
X0258761Y0280492D01*
X0258836Y0280458D01*
X0258914Y0280427D01*
X0258992Y0280401D01*
X0259072Y0280378D01*
X0259153Y0280358D01*
X0259234Y0280343D01*
X0259317Y0280331D01*
X0259399Y0280323D01*
X0259482Y0280319D01*
X0259566Y0280319D01*
X0259649Y0280323D01*
X0259731Y0280331D01*
X0259814Y0280343D01*
X0259895Y0280358D01*
X0259976Y0280378D01*
X0260056Y0280401D01*
X0260134Y0280427D01*
X0260212Y0280458D01*
X0260287Y0280492D01*
X0260362Y0280529D01*
X0260434Y0280570D01*
X0260504Y0280615D01*
X0260572Y0280662D01*
X0260638Y0280713D01*
X0260701Y0280767D01*
X0260762Y0280823D01*
X0260820Y0280883D01*
X0260875Y0280945D01*
X0260928Y0281010D01*
X0260977Y0281077D01*
X0261023Y0281146D01*
X0261065Y0281217D01*
X0261105Y0281290D01*
X0261141Y0281365D01*
X0261173Y0281442D01*
X0261201Y0281520D01*
X0261226Y0281599D01*
X0261248Y0281679D01*
X0261265Y0281761D01*
X0261278Y0281843D01*
X0261288Y0281925D01*
X0261294Y0282008D01*
X0261296Y0282091D01*
X0261296Y0289177D01*
X0261294Y0289260D01*
X0261288Y0289343D01*
X0261278Y0289425D01*
X0261265Y0289507D01*
X0261248Y0289589D01*
X0261226Y0289669D01*
X0261201Y0289748D01*
X0261173Y0289826D01*
X0261141Y0289903D01*
X0261105Y0289978D01*
X0261065Y0290051D01*
X0261023Y0290122D01*
X0260977Y0290191D01*
X0260928Y0290258D01*
X0260875Y0290323D01*
X0260820Y0290385D01*
X0260762Y0290445D01*
X0260701Y0290501D01*
X0260638Y0290555D01*
X0260572Y0290606D01*
X0260504Y0290653D01*
X0260434Y0290698D01*
X0260362Y0290739D01*
X0260287Y0290776D01*
X0260212Y0290810D01*
X0260134Y0290841D01*
X0260056Y0290867D01*
X0259976Y0290890D01*
X0259895Y0290910D01*
X0259814Y0290925D01*
X0259731Y0290937D01*
X0259649Y0290945D01*
X0259566Y0290949D01*
X0259482Y0290949D01*
X0259399Y0290945D01*
X0259317Y0290937D01*
X0259234Y0290925D01*
X0259153Y0290910D01*
X0259072Y0290890D01*
X0258992Y0290867D01*
X0258914Y0290841D01*
X0258836Y0290810D01*
X0258761Y0290776D01*
X0258686Y0290739D01*
X0258614Y0290698D01*
X0258544Y0290653D01*
X0258476Y0290606D01*
X0258410Y0290555D01*
X0258347Y0290501D01*
X0258286Y0290445D01*
X0258228Y0290385D01*
X0258173Y0290323D01*
X0258120Y0290258D01*
X0258071Y0290191D01*
X0258025Y0290122D01*
X0257983Y0290051D01*
X0257943Y0289978D01*
X0257907Y0289903D01*
X0257875Y0289826D01*
X0257847Y0289748D01*
X0257822Y0289669D01*
X0257800Y0289589D01*
X0257783Y0289507D01*
X0257770Y0289425D01*
X0257760Y0289343D01*
X0257754Y0289260D01*
X0257752Y0289177D01*
X0314839Y0289177D02*
X0314839Y0282091D01*
X0314841Y0282008D01*
X0314847Y0281925D01*
X0314857Y0281843D01*
X0314870Y0281761D01*
X0314887Y0281679D01*
X0314909Y0281599D01*
X0314934Y0281520D01*
X0314962Y0281442D01*
X0314994Y0281365D01*
X0315030Y0281290D01*
X0315070Y0281217D01*
X0315112Y0281146D01*
X0315158Y0281077D01*
X0315207Y0281010D01*
X0315260Y0280945D01*
X0315315Y0280883D01*
X0315373Y0280823D01*
X0315434Y0280767D01*
X0315497Y0280713D01*
X0315563Y0280662D01*
X0315631Y0280615D01*
X0315701Y0280570D01*
X0315773Y0280529D01*
X0315848Y0280492D01*
X0315923Y0280458D01*
X0316001Y0280427D01*
X0316079Y0280401D01*
X0316159Y0280378D01*
X0316240Y0280358D01*
X0316321Y0280343D01*
X0316404Y0280331D01*
X0316486Y0280323D01*
X0316569Y0280319D01*
X0316653Y0280319D01*
X0316736Y0280323D01*
X0316818Y0280331D01*
X0316901Y0280343D01*
X0316982Y0280358D01*
X0317063Y0280378D01*
X0317143Y0280401D01*
X0317221Y0280427D01*
X0317299Y0280458D01*
X0317374Y0280492D01*
X0317449Y0280529D01*
X0317521Y0280570D01*
X0317591Y0280615D01*
X0317659Y0280662D01*
X0317725Y0280713D01*
X0317788Y0280767D01*
X0317849Y0280823D01*
X0317907Y0280883D01*
X0317962Y0280945D01*
X0318015Y0281010D01*
X0318064Y0281077D01*
X0318110Y0281146D01*
X0318152Y0281217D01*
X0318192Y0281290D01*
X0318228Y0281365D01*
X0318260Y0281442D01*
X0318288Y0281520D01*
X0318313Y0281599D01*
X0318335Y0281679D01*
X0318352Y0281761D01*
X0318365Y0281843D01*
X0318375Y0281925D01*
X0318381Y0282008D01*
X0318383Y0282091D01*
X0318383Y0289177D01*
X0318381Y0289260D01*
X0318375Y0289343D01*
X0318365Y0289425D01*
X0318352Y0289507D01*
X0318335Y0289589D01*
X0318313Y0289669D01*
X0318288Y0289748D01*
X0318260Y0289826D01*
X0318228Y0289903D01*
X0318192Y0289978D01*
X0318152Y0290051D01*
X0318110Y0290122D01*
X0318064Y0290191D01*
X0318015Y0290258D01*
X0317962Y0290323D01*
X0317907Y0290385D01*
X0317849Y0290445D01*
X0317788Y0290501D01*
X0317725Y0290555D01*
X0317659Y0290606D01*
X0317591Y0290653D01*
X0317521Y0290698D01*
X0317449Y0290739D01*
X0317374Y0290776D01*
X0317299Y0290810D01*
X0317221Y0290841D01*
X0317143Y0290867D01*
X0317063Y0290890D01*
X0316982Y0290910D01*
X0316901Y0290925D01*
X0316818Y0290937D01*
X0316736Y0290945D01*
X0316653Y0290949D01*
X0316569Y0290949D01*
X0316486Y0290945D01*
X0316404Y0290937D01*
X0316321Y0290925D01*
X0316240Y0290910D01*
X0316159Y0290890D01*
X0316079Y0290867D01*
X0316001Y0290841D01*
X0315923Y0290810D01*
X0315848Y0290776D01*
X0315773Y0290739D01*
X0315701Y0290698D01*
X0315631Y0290653D01*
X0315563Y0290606D01*
X0315497Y0290555D01*
X0315434Y0290501D01*
X0315373Y0290445D01*
X0315315Y0290385D01*
X0315260Y0290323D01*
X0315207Y0290258D01*
X0315158Y0290191D01*
X0315112Y0290122D01*
X0315070Y0290051D01*
X0315030Y0289978D01*
X0314994Y0289903D01*
X0314962Y0289826D01*
X0314934Y0289748D01*
X0314909Y0289669D01*
X0314887Y0289589D01*
X0314870Y0289507D01*
X0314857Y0289425D01*
X0314847Y0289343D01*
X0314841Y0289260D01*
X0314839Y0289177D01*
X0314839Y0307524D02*
X0314839Y0310673D01*
X0314841Y0310756D01*
X0314847Y0310839D01*
X0314857Y0310921D01*
X0314870Y0311003D01*
X0314887Y0311085D01*
X0314909Y0311165D01*
X0314934Y0311244D01*
X0314962Y0311322D01*
X0314994Y0311399D01*
X0315030Y0311474D01*
X0315070Y0311547D01*
X0315112Y0311618D01*
X0315158Y0311687D01*
X0315207Y0311754D01*
X0315260Y0311819D01*
X0315315Y0311881D01*
X0315373Y0311941D01*
X0315434Y0311997D01*
X0315497Y0312051D01*
X0315563Y0312102D01*
X0315631Y0312149D01*
X0315701Y0312194D01*
X0315773Y0312235D01*
X0315848Y0312272D01*
X0315923Y0312306D01*
X0316001Y0312337D01*
X0316079Y0312363D01*
X0316159Y0312386D01*
X0316240Y0312406D01*
X0316321Y0312421D01*
X0316404Y0312433D01*
X0316486Y0312441D01*
X0316569Y0312445D01*
X0316653Y0312445D01*
X0316736Y0312441D01*
X0316818Y0312433D01*
X0316901Y0312421D01*
X0316982Y0312406D01*
X0317063Y0312386D01*
X0317143Y0312363D01*
X0317221Y0312337D01*
X0317299Y0312306D01*
X0317374Y0312272D01*
X0317449Y0312235D01*
X0317521Y0312194D01*
X0317591Y0312149D01*
X0317659Y0312102D01*
X0317725Y0312051D01*
X0317788Y0311997D01*
X0317849Y0311941D01*
X0317907Y0311881D01*
X0317962Y0311819D01*
X0318015Y0311754D01*
X0318064Y0311687D01*
X0318110Y0311618D01*
X0318152Y0311547D01*
X0318192Y0311474D01*
X0318228Y0311399D01*
X0318260Y0311322D01*
X0318288Y0311244D01*
X0318313Y0311165D01*
X0318335Y0311085D01*
X0318352Y0311003D01*
X0318365Y0310921D01*
X0318375Y0310839D01*
X0318381Y0310756D01*
X0318383Y0310673D01*
X0318383Y0307524D01*
X0318381Y0307441D01*
X0318375Y0307358D01*
X0318365Y0307276D01*
X0318352Y0307194D01*
X0318335Y0307112D01*
X0318313Y0307032D01*
X0318288Y0306953D01*
X0318260Y0306875D01*
X0318228Y0306798D01*
X0318192Y0306723D01*
X0318152Y0306650D01*
X0318110Y0306579D01*
X0318064Y0306510D01*
X0318015Y0306443D01*
X0317962Y0306378D01*
X0317907Y0306316D01*
X0317849Y0306256D01*
X0317788Y0306200D01*
X0317725Y0306146D01*
X0317659Y0306095D01*
X0317591Y0306048D01*
X0317521Y0306003D01*
X0317449Y0305962D01*
X0317374Y0305925D01*
X0317299Y0305891D01*
X0317221Y0305860D01*
X0317143Y0305834D01*
X0317063Y0305811D01*
X0316982Y0305791D01*
X0316901Y0305776D01*
X0316818Y0305764D01*
X0316736Y0305756D01*
X0316653Y0305752D01*
X0316569Y0305752D01*
X0316486Y0305756D01*
X0316404Y0305764D01*
X0316321Y0305776D01*
X0316240Y0305791D01*
X0316159Y0305811D01*
X0316079Y0305834D01*
X0316001Y0305860D01*
X0315923Y0305891D01*
X0315848Y0305925D01*
X0315773Y0305962D01*
X0315701Y0306003D01*
X0315631Y0306048D01*
X0315563Y0306095D01*
X0315497Y0306146D01*
X0315434Y0306200D01*
X0315373Y0306256D01*
X0315315Y0306316D01*
X0315260Y0306378D01*
X0315207Y0306443D01*
X0315158Y0306510D01*
X0315112Y0306579D01*
X0315070Y0306650D01*
X0315030Y0306723D01*
X0314994Y0306798D01*
X0314962Y0306875D01*
X0314934Y0306953D01*
X0314909Y0307032D01*
X0314887Y0307112D01*
X0314870Y0307194D01*
X0314857Y0307276D01*
X0314847Y0307358D01*
X0314841Y0307441D01*
X0314839Y0307524D01*
M02*
