%
M48
M72
T01C0.01500
T02C0.03543
T03C0.03937
T04C0.04000
T05C0.12500
%
T01
X48383Y41500
X58383Y60250
X58383Y74000
X58383Y81500
X78383Y99000
X63383Y109000
X65883Y116500
X65883Y121500
X75883Y119000
X75883Y126500
X65883Y129000
X53383Y136500
X63383Y149000
X53383Y159000
X78383Y156500
X78383Y141500
X85883Y124000
X83383Y114000
X100883Y131500
X125883Y121500
X133383Y121500
X138383Y119000
X143383Y116500
X150883Y111500
X148383Y101500
X145883Y96500
X143383Y91500
X148383Y84000
X160883Y94000
X163383Y99000
X175883Y101500
X185883Y99000
X183383Y91500
X185883Y86500
X178383Y81500
X185883Y64000
X203383Y59000
X208383Y59000
X215883Y56500
X233383Y54000
X243383Y64000
X243383Y74000
X255883Y66500
X268383Y69000
X278383Y79000
X270883Y81500
X275883Y86500
X275883Y90250
X280883Y94000
X275883Y97750
X275883Y102750
X265883Y109000
X275883Y114000
X263383Y121500
X258383Y126500
X248383Y114000
X253383Y109000
X248383Y96500
X253383Y94000
X250883Y86500
X235883Y86500
X230883Y86500
X233383Y109000
X233383Y114000
X225883Y111500
X218383Y111500
X213383Y111500
X213383Y121500
X208383Y126500
X203383Y126500
X205883Y131500
X220883Y136500
X225883Y134000
X233383Y136500
X245883Y141500
X220883Y121500
X198383Y116500
X198383Y109000
X185883Y109000
X185883Y104000
X165883Y109000
X175883Y124000
X180883Y124000
X188383Y131500
X193383Y131500
X195883Y149000
X195883Y154000
X200883Y154000
X208383Y156500
X207133Y147750
X195883Y159000
X195883Y164000
X190883Y169000
X190883Y181500
X178383Y189000
X173383Y184000
X165883Y181500
X160883Y184000
X145883Y184000
X145883Y176500
X148383Y171500
X140883Y154000
X130883Y144000
X133383Y139000
X138383Y136500
X143383Y136500
X153383Y141500
X155883Y146500
X163383Y144000
X165883Y149000
X170883Y149000
X168383Y131500
X153383Y129000
X125883Y146500
X120883Y154000
X118383Y159000
X110883Y169000
X105883Y166500
X115883Y174000
X100883Y181500
X103383Y190250
X119633Y195250
X115883Y204000
X105883Y209000
X92133Y220250
X80883Y219000
X80883Y224000
X80883Y229000
X80883Y214000
X80883Y209000
X80883Y204000
X80883Y199000
X75883Y199000
X75883Y204000
X75883Y209000
X75883Y214000
X70883Y214000
X70883Y209000
X65883Y209000
X63383Y214000
X58383Y214000
X58383Y209000
X53383Y209000
X53383Y204000
X53383Y199000
X48383Y199000
X48383Y204000
X48383Y209000
X48383Y214000
X53383Y214000
X48383Y219000
X48383Y224000
X48383Y229000
X84633Y245250
X108383Y246500
X108383Y231500
X123383Y221500
X133383Y231500
X153383Y226500
X158383Y219000
X163383Y216500
X168383Y214000
X178383Y211500
X187133Y207750
X185883Y201500
X190883Y199000
X195883Y199000
X204633Y207750
X217133Y200250
X225883Y211500
X228383Y216500
X235883Y219000
X243383Y221500
X244633Y237750
X254633Y237750
X265883Y237750
X275883Y237750
X279633Y245250
X285883Y239000
X288383Y244000
X303383Y251500
X315883Y264000
X323383Y271500
X333383Y281500
X348383Y281500
X338383Y264000
X350883Y261500
X348383Y246500
X330883Y234000
X338383Y226500
X345883Y229000
X323383Y219000
X308383Y216500
X285883Y206500
X278383Y204000
X270883Y204000
X283383Y216500
X315883Y236500
X323383Y251500
X288383Y264000
X285883Y256500
X278383Y254000
X270883Y249000
X278383Y264000
X300883Y296500
X313383Y296500
X330883Y301500
X328383Y314000
X300883Y314000
X215883Y297750
X209633Y296500
X200883Y296500
X195883Y299000
X188383Y306500
X185883Y316500
X178383Y309000
X168383Y309000
X135883Y299000
X130883Y314000
X105883Y279000
X108383Y264000
X84633Y265250
X83383Y279000
X63383Y281500
X53383Y279000
X53383Y296500
X65883Y304000
X63383Y256500
X133383Y264000
X133383Y276500
X155883Y269000
X163383Y264000
X155883Y259000
X160883Y251500
X168383Y249000
X169633Y240250
X177133Y242750
X184633Y237750
X194633Y237750
X204633Y237750
X214633Y237750
X224633Y237750
X234633Y237750
X213383Y274000
X205883Y307750
X205883Y316500
X163383Y276500
X150883Y211500
X155883Y206500
X158383Y201500
X163383Y201500
X168383Y201500
X143383Y204000
X140883Y211500
X134633Y195250
X80883Y194000
X75883Y194000
X79633Y186500
X78383Y171500
X55883Y181500
X53383Y194000
X48383Y194000
X125883Y99000
X120883Y89000
X115883Y76500
X103383Y76500
X93383Y84000
X103383Y91500
X83383Y74000
X100883Y61500
X90883Y56500
X100883Y51500
X103383Y41500
X108383Y41500
X113383Y41500
X118383Y41500
X123383Y41500
X123383Y49000
X123383Y61500
X143383Y71500
X150883Y61500
X168383Y51500
X160883Y36500
X180883Y29000
X190883Y16500
X205883Y19000
X223383Y21500
X223383Y29000
X223383Y34000
X218383Y41500
X250883Y46500
X263383Y39000
X258383Y34000
X258383Y29000
X258383Y19000
X243383Y14000
X273383Y21500
X283383Y34000
X293383Y41500
X288383Y46500
X280883Y59000
X303383Y66500
X320883Y74000
X325883Y64000
X333383Y74000
X345883Y79000
X335883Y84000
X330883Y84000
X340883Y89000
X315883Y106500
X308383Y102750
X308383Y97750
X308383Y90250
X308383Y86500
X323383Y109000
X323383Y116500
X313383Y126500
X303383Y121500
X295883Y121500
X295883Y129000
X280883Y136500
X283383Y141500
X285883Y146500
X285883Y151500
X288383Y156500
X283383Y156500
X283383Y161500
X278383Y161500
X273383Y161500
X273383Y166500
X274633Y175250
X280883Y179000
X253383Y170250
X245883Y179000
X235883Y172750
X235883Y164000
X223383Y164000
X218383Y164000
X222133Y185250
X205883Y184000
X278383Y131500
X293383Y154000
X305883Y144000
X320883Y136500
X330883Y131500
X323383Y151500
X325883Y176500
X305883Y194000
X303383Y114000
X308383Y111500
X288383Y109000
X323383Y39000
X333383Y39000
X340883Y29000
X328383Y14000
X310883Y14000
X293383Y14000
X170883Y14000
X155883Y14000
X140883Y14000
X140883Y26500
X140883Y39000
X98383Y41500
X93383Y41500
X88383Y41500
X83383Y41500
X78383Y41500
T02
X316611Y285634
X316611Y309098
X259524Y309098
X259524Y285634
X215430Y285634
X215430Y309098
X158343Y309098
X158343Y285634
T03
X113225Y286500
X93540Y286500
T04
X88383Y136500
X88383Y146500
X88383Y156500
X88383Y166500
X88383Y176500
X88383Y186500
X88383Y196500
X88383Y206500
X338383Y216500
X348383Y216500
X348383Y206500
X338383Y206500
X338383Y196500
X348383Y196500
X348383Y186500
X338383Y186500
X338383Y176500
X348383Y176500
X348383Y166500
X338383Y166500
X338383Y146500
X348383Y146500
X348383Y136500
X338383Y136500
X338383Y126500
X348383Y126500
X348383Y116500
X338383Y116500
X338383Y106500
X348383Y106500
X348383Y96500
X338383Y96500
T05
X55194Y18311
X346532Y18311
X346532Y309650
X55194Y309650
M30
