%
M48
M72
T01C0.01500
T02C0.03543
T03C0.03937
T04C0.04000
T05C0.12500
%
T01
X152500Y292500
X120000Y270000
X141250Y231250
X235000Y257500
X245000Y257500
X35000Y35000
X40000Y35000
X45000Y35000
X50000Y35000
X55000Y35000
X60000Y35000
X65000Y35000
X70000Y35000
X75000Y35000
X80000Y35000
X57500Y60000
X47500Y48750
X57500Y45000
X143750Y201250
X161250Y201250
X151250Y231250
X161250Y231250
X76250Y188750
X171250Y231250
X91250Y188750
X275000Y115000
X36250Y180000
X178750Y178750
X181250Y231250
X191250Y231250
X201250Y231250
X211250Y231250
X236250Y238750
X231250Y168750
X242500Y250000
X262500Y137500
X235000Y247500
X227500Y242500
X245000Y237500
X242500Y232500
X210000Y163750
X232500Y231250
X60000Y183750
X222500Y231250
X192500Y166250
X133750Y236250
X48750Y213750
X90000Y225000
X97500Y205000
X117500Y245000
X125000Y242500
X112500Y262500
X120000Y257500
X112500Y252500
X65000Y225000
X126250Y233750
X125000Y302500
X170000Y267500
X65000Y257500
X41250Y238750
X41250Y258750
X168750Y290000
X105000Y301250
X162500Y306250
X15000Y53750
X87500Y302500
X80000Y215000
X62500Y202500
X7500Y277500
X152500Y305000
X142500Y310000
X65000Y240000
X18750Y235000
X40000Y272500
X90000Y270000
X62500Y272500
X87500Y287500
X10000Y152500
X125000Y125000
X10000Y130000
X20000Y142500
X35000Y165000
X35000Y150000
X35000Y135000
X135000Y302500
X257500Y307500
X257500Y290000
X82500Y140000
X270000Y290000
X287500Y307500
X295000Y290000
X310000Y257500
X270000Y257500
X287500Y267500
X305000Y275000
X305000Y240000
X120000Y115000
X57500Y125000
X282500Y247500
X40000Y107500
X290000Y227500
X310000Y290000
X272500Y232500
X110000Y122500
X82500Y115000
X302500Y222500
X280000Y212500
X265000Y210000
X262500Y187500
X280000Y145000
X20000Y102500
X277500Y130000
X40000Y67500
X252500Y122500
X245000Y102500
X77500Y82500
X210000Y102500
X222500Y102500
X235000Y72500
X196250Y66250
X212500Y60000
X225000Y62500
X120000Y37500
X135000Y37500
X237500Y52500
X250000Y35000
X280000Y32500
X297500Y22500
X122500Y102500
X60000Y85000
X107500Y55000
X302500Y72500
X105000Y37500
X290000Y67500
X277500Y67500
X50000Y77500
X22500Y297500
X220000Y32500
X162500Y12500
X230000Y15000
X250000Y7500
X267500Y7500
X285000Y7500
X145000Y7500
X215000Y12500
X135000Y75000
X200000Y7500
X105000Y77500
X145000Y27500
X180000Y15000
X197500Y200000
X172500Y50000
X125000Y50000
X175000Y35000
X190000Y47500
X207500Y40000
X5000Y35000
X142500Y57500
X107500Y105000
X286250Y180000
X240000Y208750
X282500Y65000
X170000Y115000
X190000Y102500
X190000Y107500
X200000Y57500
X165000Y150000
X280000Y102500
X107500Y205000
X90000Y257500
X237500Y172500
X202500Y172500
X135000Y205000
X205000Y107500
X210000Y87500
X237500Y87500
X272500Y100000
X10000Y231250
X295000Y220000
X20000Y250000
X142500Y92500
X132500Y95000
X132500Y117500
X142500Y195000
X112500Y200000
X110000Y220000
X290000Y32500
X160000Y52500
X180000Y22500
X215000Y22500
X165000Y52500
X180000Y27500
X215000Y27500
X240000Y27500
X147500Y175000
X160000Y120000
X230000Y155000
X152500Y192500
X157500Y147500
X165000Y120000
X240000Y155000
X163750Y141250
X162500Y125000
X152500Y142500
X235000Y155000
X170000Y105000
X182500Y205000
X125000Y207500
X125000Y195000
X147500Y192500
X137500Y117500
X260000Y58750
X260000Y115000
X235000Y125000
X152500Y157500
X150000Y125000
X142500Y97500
X187500Y80000
X192500Y80000
X142500Y102500
X145000Y125000
X147500Y162500
X177500Y115000
X152500Y147500
X230000Y160000
X192500Y157500
X20000Y275000
X62500Y160000
X67500Y162500
X72500Y167500
X72500Y197500
X100000Y197500
X135000Y182500
X175000Y157500
X177500Y130000
X32500Y197500
X5000Y207500
X10000Y207500
X15000Y207500
X20000Y207500
X27500Y207500
X32500Y207500
X5000Y202500
X10000Y202500
X15000Y202500
X22500Y202500
X27500Y202500
X32500Y202500
X5000Y197500
X5000Y192500
X32500Y192500
X10000Y187500
X32500Y187500
X5000Y222500
X37500Y222500
X37500Y187500
X5000Y187500
X37500Y217500
X37500Y212500
X37500Y207500
X37500Y202500
X37500Y197500
X37500Y192500
X5000Y217500
X5000Y212500
X10000Y192500
X10000Y197500
X35000Y92500
X82500Y92500
X57500Y175000
X12500Y175000
X270000Y120000
X240000Y135000
X202500Y135000
X180000Y157500
X130000Y177500
X102500Y177500
X295000Y255000
X307500Y147500
X290000Y147500
X162500Y177500
X182500Y127500
X80000Y42500
X100000Y62500
X220000Y115000
X250000Y147500
X80000Y55000
X15000Y75000
X15000Y67500
X60000Y70000
X72500Y70000
X215000Y120000
X245000Y150000
X22500Y115000
X32500Y120000
X75000Y152500
X242500Y145000
X122500Y142500
X22500Y122500
X42500Y117500
X77500Y147500
X242500Y140000
X120000Y137500
X282500Y170000
X240000Y150000
X127500Y142500
X87500Y137500
X242500Y200000
X157500Y290000
X227500Y197500
X200000Y215000
X145000Y300000
X235000Y197500
X260000Y245000
X185000Y210000
X120000Y210000
X120000Y195000
X122500Y175000
X100000Y130000
X100000Y110000
X105000Y95000
X120000Y92500
X140000Y85000
X105000Y165000
X112500Y140000
X115000Y212500
X115000Y195000
X117500Y177500
X102500Y170000
X110000Y135000
X102500Y90000
X117500Y87500
X142500Y80000
X95000Y130000
X95000Y112500
X190000Y212500
X152500Y152500
X190000Y130000
X22500Y110000
X32500Y112500
X285000Y125000
X252500Y115000
X227500Y75000
X100000Y67500
X153750Y70000
X157500Y78750
X202500Y77500
X155000Y102500
X155000Y110000
X297500Y82500
X265000Y91250
X232500Y91250
X205000Y90000
X265000Y96250
X232500Y96250
X280000Y110000
X260000Y107500
X232500Y107500
X265000Y105000
X237500Y130000
X175000Y105000
X182500Y105000
X292500Y77500
X265000Y83750
X232500Y83750
X245000Y40000
X97500Y147500
X100000Y85000
X90000Y132500
X90000Y115000
X287500Y77500
X265000Y80000
X232500Y80000
T02
X273228Y279134
X216142Y279134
X216142Y302598
X273228Y302598
X172047Y279134
X114961Y279134
X114961Y302598
X172047Y302598
T03
X69843Y280000
X50157Y280000
T04
X295000Y190000
X305000Y190000
X295000Y200000
X305000Y200000
X295000Y210000
X305000Y210000
X295000Y160000
X305000Y160000
X295000Y170000
X305000Y170000
X295000Y180000
X305000Y180000
X295000Y90000
X305000Y90000
X295000Y100000
X305000Y100000
X295000Y110000
X305000Y110000
X295000Y120000
X305000Y120000
X295000Y130000
X305000Y130000
X295000Y140000
X305000Y140000
X45000Y130000
X45000Y140000
X45000Y150000
X45000Y160000
X45000Y170000
X45000Y180000
X45000Y190000
X45000Y200000
T05
X11811Y303150
X303150Y303150
X11811Y11811
X303150Y11811
M30
